%TF.GenerationSoftware,KiCad,Pcbnew,(6.0.7)*%
%TF.CreationDate,2022-11-13T10:53:50-05:00*%
%TF.ProjectId,redshift,72656473-6869-4667-942e-6b696361645f,0.2*%
%TF.SameCoordinates,Original*%
%TF.FileFunction,Copper,L4,Bot*%
%TF.FilePolarity,Positive*%
%FSLAX46Y46*%
G04 Gerber Fmt 4.6, Leading zero omitted, Abs format (unit mm)*
G04 Created by KiCad (PCBNEW (6.0.7)) date 2022-11-13 10:53:50*
%MOMM*%
%LPD*%
G01*
G04 APERTURE LIST*
%TA.AperFunction,SMDPad,CuDef*%
%ADD10C,1.500000*%
%TD*%
%TA.AperFunction,ComponentPad*%
%ADD11O,2.700000X1.700000*%
%TD*%
%TA.AperFunction,ComponentPad*%
%ADD12C,1.700000*%
%TD*%
%TA.AperFunction,ComponentPad*%
%ADD13O,1.050000X2.100000*%
%TD*%
%TA.AperFunction,ComponentPad*%
%ADD14O,1.000000X2.000000*%
%TD*%
%TA.AperFunction,ComponentPad*%
%ADD15O,1.350000X1.350000*%
%TD*%
%TA.AperFunction,ComponentPad*%
%ADD16R,1.350000X1.350000*%
%TD*%
%TA.AperFunction,ComponentPad*%
%ADD17C,1.400000*%
%TD*%
%TA.AperFunction,ComponentPad*%
%ADD18R,1.400000X1.400000*%
%TD*%
%TA.AperFunction,ViaPad*%
%ADD19C,0.500000*%
%TD*%
%TA.AperFunction,ViaPad*%
%ADD20C,0.450000*%
%TD*%
%TA.AperFunction,ViaPad*%
%ADD21C,0.800000*%
%TD*%
%TA.AperFunction,Conductor*%
%ADD22C,0.200000*%
%TD*%
%TA.AperFunction,Conductor*%
%ADD23C,0.400000*%
%TD*%
%TA.AperFunction,Conductor*%
%ADD24C,0.250000*%
%TD*%
G04 APERTURE END LIST*
D10*
%TO.P,TP9,1,1*%
%TO.N,/USB_D-*%
X14200000Y49900000D03*
%TD*%
%TO.P,TP8,1,1*%
%TO.N,/USB_D+*%
X9100000Y49200000D03*
%TD*%
D11*
%TO.P,ENC1,MP*%
%TO.N,N/C*%
X12000000Y35800000D03*
X12000000Y46200000D03*
D12*
%TO.P,ENC1,C,C*%
%TO.N,GND*%
X14000000Y43500000D03*
%TO.P,ENC1,B,B*%
%TO.N,/ENC_B*%
X14000000Y41000000D03*
%TO.P,ENC1,A,A*%
%TO.N,/ENC_A*%
X14000000Y38500000D03*
%TD*%
D13*
%TO.P,J1,S4,SHIELD*%
%TO.N,/SH*%
X18180000Y57820000D03*
D14*
%TO.P,J1,S3,SHIELD*%
X18180000Y62000000D03*
%TO.P,J1,S2,SHIELD*%
X26820000Y62000000D03*
D13*
%TO.P,J1,S1,SHIELD*%
X26820000Y57820000D03*
%TD*%
D12*
%TO.P,SW3,3,NC*%
%TO.N,/SW3_M_NC*%
X34000000Y33920000D03*
%TO.P,SW3,2,NO*%
%TO.N,/SW3_M_NO*%
X34000000Y39000000D03*
%TO.P,SW3,1,C*%
%TO.N,GND*%
X34000000Y44080000D03*
%TD*%
D15*
%TO.P,J3,6,Pin_6*%
%TO.N,/SWCLK*%
X42750000Y8500000D03*
%TO.P,J3,5,Pin_5*%
%TO.N,/SWO*%
X42750000Y10500000D03*
%TO.P,J3,4,Pin_4*%
%TO.N,/SWDIO*%
X42750000Y12500000D03*
%TO.P,J3,3,Pin_3*%
%TO.N,/RESET*%
X42750000Y14500000D03*
%TO.P,J3,2,Pin_2*%
%TO.N,/DBG_VIN*%
X42750000Y16500000D03*
D16*
%TO.P,J3,1,Pin_1*%
%TO.N,GND*%
X42750000Y18500000D03*
%TD*%
D17*
%TO.P,U1,16*%
%TO.N,N/C*%
X17150000Y5905000D03*
%TO.P,U1,15,LED_P*%
%TO.N,Net-(R7-Pad2)*%
X17150000Y7685000D03*
%TO.P,U1,14,~{RESET}*%
%TO.N,/SNSR_RST*%
X17150000Y9465000D03*
%TO.P,U1,13,~{CS}*%
%TO.N,/FC6_CS1*%
X17150000Y11245000D03*
%TO.P,U1,12,MISO*%
%TO.N,/FC6_MISO*%
X17150000Y13025000D03*
%TO.P,U1,11,MOSI*%
%TO.N,/FC6_MOSI*%
X17150000Y14805000D03*
%TO.P,U1,10,SCLK*%
%TO.N,/FC6_SCK*%
X17150000Y16585000D03*
%TO.P,U1,9,MOTION*%
%TO.N,/SNSR_MTN*%
X17150000Y18365000D03*
%TO.P,U1,8,GND*%
%TO.N,GND*%
X27850000Y17475000D03*
%TO.P,U1,7,VDDIO*%
%TO.N,+3V3*%
X27850000Y15695000D03*
%TO.P,U1,6,GPO*%
%TO.N,unconnected-(U1-Pad6)*%
X27850000Y13915000D03*
%TO.P,U1,5,VDDPIX*%
%TO.N,Net-(C21-Pad1)*%
X27850000Y12135000D03*
%TO.P,U1,4,VDD*%
%TO.N,+1V9*%
X27850000Y10355000D03*
%TO.P,U1,3,GND*%
%TO.N,GND*%
X27850000Y8575000D03*
%TO.P,U1,2*%
%TO.N,N/C*%
X27850000Y6795000D03*
D18*
%TO.P,U1,1*%
X27850000Y5015000D03*
%TD*%
D12*
%TO.P,SW2,3,NC*%
%TO.N,/SW2_R_NC*%
X41000000Y35920000D03*
%TO.P,SW2,2,NO*%
%TO.N,/SW2_R_NO*%
X41000000Y41000000D03*
%TO.P,SW2,1,C*%
%TO.N,GND*%
X41000000Y46080000D03*
%TD*%
%TO.P,SW1,3,NC*%
%TO.N,/SW1_L_NC*%
X4000000Y35920000D03*
%TO.P,SW1,2,NO*%
%TO.N,/SW1_L_NO*%
X4000000Y41000000D03*
%TO.P,SW1,1,C*%
%TO.N,GND*%
X4000000Y46080000D03*
%TD*%
D10*
%TO.P,TP5,1,1*%
%TO.N,/FC6_MISO*%
X12000000Y13000000D03*
%TD*%
%TO.P,TP6,1,1*%
%TO.N,/SW2_R_NO*%
X41500000Y38500000D03*
%TD*%
%TO.P,TP7,1,1*%
%TO.N,/SW2_R_NC*%
X41500000Y33500000D03*
%TD*%
%TO.P,TP13,1,1*%
%TO.N,/ENC_A*%
X7500000Y38000000D03*
%TD*%
%TO.P,TP3,1,1*%
%TO.N,/FC6_MOSI*%
X12000000Y19000000D03*
%TD*%
%TO.P,TP10,1,1*%
%TO.N,/SW3_M_NO*%
X34000000Y41500000D03*
%TD*%
%TO.P,TP11,1,1*%
%TO.N,/SW3_M_NC*%
X34000000Y36500000D03*
%TD*%
%TO.P,TP2,1,1*%
%TO.N,/SW1_L_NO*%
X4000000Y43500000D03*
%TD*%
%TO.P,TP12,1,1*%
%TO.N,+3V3*%
X38000000Y1750000D03*
%TD*%
%TO.P,TP18,1,1*%
%TO.N,/ISP*%
X37000000Y8000000D03*
%TD*%
%TO.P,TP17,1,1*%
%TO.N,+5V*%
X32750000Y49750000D03*
%TD*%
%TO.P,TP16,1,1*%
%TO.N,+1V9*%
X31750000Y1750000D03*
%TD*%
%TO.P,TP4,1,1*%
%TO.N,/SW1_L_NC*%
X4000000Y38500000D03*
%TD*%
%TO.P,TP14,1,1*%
%TO.N,GND*%
X34750000Y1750000D03*
%TD*%
%TO.P,TP1,1,1*%
%TO.N,/FC6_SCK*%
X12000000Y16500000D03*
%TD*%
%TO.P,TP15,1,1*%
%TO.N,/ENC_B*%
X7500000Y41000000D03*
%TD*%
D19*
%TO.N,GND*%
X30400000Y17800000D03*
X17700000Y32800000D03*
X16200000Y48600000D03*
X37500000Y40200000D03*
X39800000Y26900000D03*
X16100000Y3600000D03*
X27800000Y2600000D03*
X43000000Y5500000D03*
X41200000Y2200000D03*
X36800000Y24600000D03*
X41100000Y22700000D03*
X35000000Y27400000D03*
X42000000Y30500000D03*
X42200000Y51100000D03*
X36700000Y34000000D03*
X31300000Y39400000D03*
X29000000Y48500000D03*
X35300000Y47400000D03*
X9700000Y52100000D03*
X11100000Y42900000D03*
X4300000Y50800000D03*
X10900000Y30100000D03*
X3100000Y30900000D03*
X4600000Y28400000D03*
X2600000Y24300000D03*
X5400000Y22200000D03*
X2600000Y17900000D03*
X7700000Y13000000D03*
X7900000Y16200000D03*
X3800000Y12900000D03*
X9400000Y8800000D03*
X3500000Y2900000D03*
X4100000Y7100000D03*
X10900000Y4000000D03*
X29900000Y52100000D03*
X32900000Y11900000D03*
X22500000Y60300000D03*
X30400000Y7100000D03*
X13000000Y28900000D03*
D20*
%TO.N,+5V*%
X31750000Y48500000D03*
D19*
X25700000Y53000000D03*
X31786965Y16986965D03*
%TO.N,+3V3*%
X23500000Y31000000D03*
X31250000Y24250000D03*
X15300000Y28500000D03*
X23500000Y20500000D03*
X13350000Y14400000D03*
X27250000Y26500000D03*
X8500000Y31750000D03*
X31400000Y51900000D03*
X19500000Y20500000D03*
X31250000Y23250000D03*
X28100000Y27824500D03*
X21500000Y20500000D03*
X24549011Y21549011D03*
X27250000Y25500000D03*
D21*
X38000000Y750000D03*
D19*
%TO.N,+1V9*%
X32250000Y9450000D03*
%TO.N,/USB_D+*%
X21250000Y54500000D03*
X23050000Y28000000D03*
%TO.N,/USB_D-*%
X23000000Y30000000D03*
X23750000Y54500000D03*
%TO.N,/VBUS_*%
X21000000Y58750000D03*
X44000000Y22750000D03*
X25718767Y56218767D03*
X24000000Y58750000D03*
X24759355Y56495456D03*
%TO.N,/USB1_LED*%
X20924500Y26586598D03*
X4750000Y31250000D03*
D20*
%TO.N,/FC6_CS1*%
X25250000Y20750000D03*
%TO.N,/RESET*%
X23800000Y27500000D03*
D19*
X35725500Y14500000D03*
%TO.N,/FC6_SCK*%
X13000000Y16500000D03*
X14475500Y16500000D03*
X20550000Y25350000D03*
%TO.N,/FC6_MOSI*%
X16024500Y19000000D03*
X13000000Y19000000D03*
%TO.N,/FC6_MISO*%
X22399500Y24490312D03*
X14975500Y12750000D03*
X13000000Y12750000D03*
D20*
%TO.N,/SW1_L_NC*%
X21050000Y27400000D03*
D19*
%TO.N,/SNSR_RST*%
X17300000Y21549011D03*
X14000000Y19524500D03*
X21850000Y21750000D03*
%TO.N,/SW1_L_NO*%
X21650000Y27924500D03*
%TO.N,GND*%
X21350000Y24500000D03*
X29270000Y26500000D03*
X27000000Y56250000D03*
X29250000Y28500000D03*
X31250000Y22250000D03*
X19000000Y53750000D03*
X24451727Y24042359D03*
X35750000Y5000000D03*
X24000000Y51750000D03*
X26600989Y31000000D03*
D21*
X34750000Y750000D03*
D19*
X30000000Y33250000D03*
X18475011Y27000000D03*
X22500000Y20500000D03*
X25750000Y31000000D03*
X38250000Y5000000D03*
X35500000Y50750000D03*
X20500000Y20500000D03*
X34500000Y5000000D03*
X34100000Y10250000D03*
X25000000Y55090500D03*
X30250000Y28500000D03*
X17000000Y53750000D03*
X33229122Y15229122D03*
X30580000Y13920000D03*
X29250000Y25500000D03*
X20800000Y28450000D03*
X18374500Y56250000D03*
D20*
X26250000Y26500000D03*
D19*
X18500000Y20500000D03*
X14250000Y22750000D03*
X39650000Y20300000D03*
%TO.N,/SW4_NC*%
X20544503Y24500000D03*
X14250000Y21750000D03*
D20*
%TO.N,/SW4_NO*%
X20050000Y22724011D03*
D19*
X14250000Y20750000D03*
D20*
%TO.N,/SW2_R_NO*%
X22494503Y26500000D03*
%TO.N,/SW2_R_NC*%
X22535842Y25670558D03*
%TO.N,/SW3_M_NO*%
X24000000Y28250000D03*
%TO.N,/SW3_M_NC*%
X24569819Y27449500D03*
%TO.N,/ENC_B*%
X18500000Y26000000D03*
D21*
X5750000Y41000000D03*
%TO.N,/ENC_A*%
X6334080Y39232867D03*
D20*
X18750000Y28000000D03*
D19*
%TO.N,/SWO*%
X35750000Y6125500D03*
D20*
X23991917Y26050500D03*
D19*
X40250000Y9725500D03*
D20*
%TO.N,/SWCLK*%
X26250000Y25500000D03*
D19*
X38750000Y10250000D03*
%TO.N,/SWDIO*%
X33650000Y18950000D03*
D20*
X24000000Y25200000D03*
D19*
X38750000Y11250000D03*
X29945943Y20495943D03*
%TO.N,/SNSR_MTN*%
X23150000Y24150000D03*
%TO.N,/ISP*%
X26250000Y20750000D03*
X35725500Y13500000D03*
X37000000Y8750000D03*
X22500000Y22250000D03*
%TO.N,/DBG_VIN*%
X44000000Y20000000D03*
X33250000Y5000000D03*
%TD*%
D22*
%TO.N,/USB_D-*%
X14200000Y51509314D02*
X14200000Y49900000D01*
D23*
X14215686Y51525000D02*
X14200000Y51509314D01*
D22*
%TO.N,/USB_D+*%
X9100000Y47540686D02*
X9100000Y49200000D01*
D23*
%TO.N,/USB_D-*%
X14215686Y51525000D02*
X9900000Y47209314D01*
X13065242Y30750444D02*
X21474556Y30750444D01*
X20775000Y51525000D02*
X14215686Y51525000D01*
X23750000Y54500000D02*
X20775000Y51525000D01*
X9900000Y47209314D02*
X9900000Y33915686D01*
X9900000Y33915686D02*
X13065242Y30750444D01*
X21474556Y30750444D02*
X22225000Y30000000D01*
X22225000Y30000000D02*
X23000000Y30000000D01*
%TO.N,/USB_D+*%
X12733870Y29950444D02*
X21099556Y29950444D01*
X9100000Y33584314D02*
X12733870Y29950444D01*
X21099556Y29950444D02*
X23050000Y28000000D01*
X13884314Y52325000D02*
X9100000Y47540686D01*
X9100000Y47540686D02*
X9100000Y33584314D01*
X20443629Y52325000D02*
X13884314Y52325000D01*
X21250000Y53131371D02*
X20443629Y52325000D01*
X21250000Y54500000D02*
X21250000Y53131371D01*
D24*
%TO.N,+5V*%
X32750000Y49500000D02*
X32750000Y49750000D01*
X31750000Y48500000D02*
X32750000Y49500000D01*
%TO.N,+1V9*%
X32250000Y2250000D02*
X31750000Y1750000D01*
X32250000Y9450000D02*
X32250000Y2250000D01*
%TO.N,/USB1_LED*%
X12039014Y24700962D02*
X19037389Y24700961D01*
X19037389Y24700961D02*
X20923026Y26586598D01*
X4750000Y31250000D02*
X5489976Y31250000D01*
X5489976Y31250000D02*
X12039014Y24700962D01*
%TO.N,/FC6_CS1*%
X15500000Y12895000D02*
X17150000Y11245000D01*
X15500000Y19241772D02*
X15500000Y12895000D01*
X24975489Y21024511D02*
X17282739Y21024511D01*
X17282739Y21024511D02*
X15500000Y19241772D01*
X25250000Y20750000D02*
X24975489Y21024511D01*
%TO.N,/RESET*%
X35015686Y14500000D02*
X24865686Y24650000D01*
X23800000Y27500000D02*
X23292463Y27500000D01*
X22241756Y27350000D02*
X21620878Y26729122D01*
X23292463Y27500000D02*
X23142463Y27350000D01*
X23700000Y24650000D02*
X23179442Y25170558D01*
X21620878Y25878415D02*
X21620878Y26729122D01*
X22328735Y25170558D02*
X21620878Y25878415D01*
X35725500Y14500000D02*
X35015686Y14500000D01*
X23179442Y25170558D02*
X22328735Y25170558D01*
X23142463Y27350000D02*
X22241756Y27350000D01*
X24865686Y24650000D02*
X23700000Y24650000D01*
%TO.N,/FC6_SCK*%
X21342761Y25350000D02*
X21875000Y24817761D01*
X13000000Y16500000D02*
X12000000Y16500000D01*
X21875000Y23090686D02*
X21008825Y22224511D01*
X16724011Y22474011D02*
X14524511Y20274511D01*
X14524511Y20274511D02*
X14524511Y16524511D01*
X21008825Y22224511D02*
X17932649Y22224511D01*
X21875000Y24817761D02*
X21875000Y23090686D01*
X14524511Y16524511D02*
X14500000Y16500000D01*
X20550000Y25350000D02*
X21342761Y25350000D01*
X17683148Y22474011D02*
X16724011Y22474011D01*
X17932649Y22224511D02*
X17683148Y22474011D01*
%TO.N,/FC6_MOSI*%
X16000000Y15955000D02*
X17150000Y14805000D01*
X13000000Y19000000D02*
X12000000Y19000000D01*
X16024500Y19000000D02*
X16000000Y18975500D01*
X16000000Y18975500D02*
X16000000Y15955000D01*
%TO.N,/FC6_MISO*%
X12750000Y13000000D02*
X12000000Y13000000D01*
X22399500Y24490312D02*
X22399500Y23049500D01*
X21174511Y21824511D02*
X17766963Y21824511D01*
X13000000Y12750000D02*
X12750000Y13000000D01*
X17766963Y21824511D02*
X17517463Y22074011D01*
X22399500Y23049500D02*
X21174511Y21824511D01*
X15000000Y20028389D02*
X15000000Y12774500D01*
X17045622Y22074011D02*
X15000000Y20028389D01*
X15000000Y12774500D02*
X14975500Y12750000D01*
X17517463Y22074011D02*
X17045622Y22074011D01*
%TO.N,/SW1_L_NC*%
X4850480Y35069520D02*
X4000000Y35920000D01*
X4000000Y35920000D02*
X4000000Y38500000D01*
X19399030Y25803591D02*
X19399030Y25627608D01*
X19399030Y25627608D02*
X18871903Y25100481D01*
X21050000Y27400000D02*
X20995439Y27400000D01*
X12204501Y25100481D02*
X4850480Y32454502D01*
X20995439Y27400000D02*
X19399030Y25803591D01*
X18871903Y25100481D02*
X12204501Y25100481D01*
X4850480Y32454502D02*
X4850480Y35069520D01*
%TO.N,/SNSR_RST*%
X14000000Y19524500D02*
X13950989Y19475489D01*
X14250000Y12365000D02*
X17150000Y9465000D01*
X13950989Y16049011D02*
X14250000Y15750000D01*
X13950989Y19475489D02*
X13950989Y16049011D01*
X14250000Y15750000D02*
X14250000Y12365000D01*
X21524511Y21424511D02*
X17424500Y21424511D01*
X21850000Y21750000D02*
X21524511Y21424511D01*
X17424500Y21424511D02*
X17300000Y21549011D01*
%TO.N,/SW1_L_NO*%
X5250000Y39750000D02*
X4000000Y41000000D01*
X4000000Y41000000D02*
X4000000Y43500000D01*
X18706417Y25500001D02*
X12369987Y25500001D01*
X18999511Y27249511D02*
X18999511Y25793095D01*
X21650000Y27924500D02*
X19674500Y27924500D01*
X12369987Y25500001D02*
X5250000Y32619988D01*
X19674500Y27924500D02*
X18999511Y27249511D01*
X5250000Y32619988D02*
X5250000Y39750000D01*
X18999511Y25793095D02*
X18706417Y25500001D01*
%TO.N,/SW4_NC*%
X20044503Y24000000D02*
X16500000Y24000000D01*
X20544503Y24500000D02*
X20044503Y24000000D01*
X16500000Y24000000D02*
X14250000Y21750000D01*
%TO.N,/SW4_NO*%
X16374011Y22874011D02*
X15550000Y22050000D01*
X15550000Y22050000D02*
X14250000Y20750000D01*
X19975989Y22650000D02*
X18250000Y22650000D01*
X18250000Y22650000D02*
X18025989Y22874011D01*
X20050000Y22724011D02*
X19975989Y22650000D01*
X18025989Y22874011D02*
X16374011Y22874011D01*
%TO.N,/SW2_R_NO*%
X39750000Y37750000D02*
X39750000Y39750000D01*
X25427207Y26950000D02*
X25877208Y27400000D01*
X22944503Y26950000D02*
X25427207Y26950000D01*
X38334514Y29649520D02*
X39750000Y31065006D01*
X26300000Y27400000D02*
X28549520Y29649520D01*
X25877208Y27400000D02*
X26300000Y27400000D01*
X39750000Y31065006D02*
X39750000Y37750000D01*
X39750000Y39750000D02*
X41000000Y41000000D01*
X40500000Y38500000D02*
X41500000Y38500000D01*
X39750000Y37750000D02*
X40500000Y38500000D01*
X22494503Y26500000D02*
X22944503Y26950000D01*
X28549520Y29649520D02*
X38334514Y29649520D01*
%TO.N,/SW2_R_NC*%
X25750000Y26550000D02*
X25750000Y26707107D01*
X28750000Y29250000D02*
X38500000Y29250000D01*
X40149520Y32850480D02*
X40149520Y35069520D01*
X23415284Y26550000D02*
X25750000Y26550000D01*
X38500000Y29250000D02*
X40149520Y30899520D01*
X26500000Y27000000D02*
X28750000Y29250000D01*
X40149520Y35069520D02*
X41000000Y35920000D01*
X26042893Y27000000D02*
X26500000Y27000000D01*
X25750000Y26707107D02*
X26042893Y27000000D01*
X40799040Y33500000D02*
X40149520Y32850480D01*
X40149520Y30899520D02*
X40149520Y32850480D01*
X41500000Y33500000D02*
X40799040Y33500000D01*
X22535842Y25670558D02*
X23415284Y26550000D01*
%TO.N,/SW3_M_NO*%
X32069028Y30449040D02*
X32750000Y31130012D01*
X24000000Y28250000D02*
X25984314Y28250000D01*
X34000000Y39000000D02*
X34000000Y41500000D01*
X25984314Y28250000D02*
X28183355Y30449040D01*
X28183355Y30449040D02*
X32069028Y30449040D01*
X32750000Y31130012D02*
X32750000Y37750000D01*
X32750000Y37750000D02*
X34000000Y39000000D01*
%TO.N,/SW3_M_NC*%
X33149520Y30964526D02*
X33149520Y33069520D01*
X25361022Y27449500D02*
X25711523Y27800000D01*
X25711523Y27800000D02*
X26100000Y27800000D01*
X34000000Y33920000D02*
X34000000Y36500000D01*
X28349040Y30049040D02*
X32234034Y30049040D01*
X33149520Y33069520D02*
X34000000Y33920000D01*
X24569819Y27449500D02*
X25361022Y27449500D01*
X32234034Y30049040D02*
X33149520Y30964526D01*
X26100000Y27800000D02*
X28349040Y30049040D01*
%TO.N,/ENC_B*%
X12535473Y25899521D02*
X18399521Y25899521D01*
X5649520Y40899520D02*
X5649520Y32785474D01*
X5750000Y41000000D02*
X7500000Y41000000D01*
X5649520Y32785474D02*
X12535473Y25899521D01*
X5750000Y41000000D02*
X5649520Y40899520D01*
X18399521Y25899521D02*
X18500000Y26000000D01*
%TO.N,/ENC_A*%
X6049040Y32950960D02*
X6049040Y38947827D01*
X17950500Y27217261D02*
X17950500Y26700500D01*
X6334080Y39232867D02*
X7500000Y38066947D01*
X12700960Y26299040D02*
X6049040Y32950960D01*
X17950500Y26700500D02*
X17549040Y26299040D01*
X17549040Y26299040D02*
X12700960Y26299040D01*
X18750000Y28000000D02*
X18733239Y28000000D01*
X18733239Y28000000D02*
X17950500Y27217261D01*
X6049040Y38947827D02*
X6334080Y39232867D01*
X7500000Y38066947D02*
X7500000Y38000000D01*
%TO.N,/SWO*%
X36250000Y14933642D02*
X36250000Y12000000D01*
X26500000Y24450000D02*
X26733642Y24450000D01*
X38625500Y6125500D02*
X39250000Y6750000D01*
X38524500Y9725500D02*
X40250000Y9725500D01*
X35750000Y6125500D02*
X38625500Y6125500D01*
X26733642Y24450000D02*
X36250000Y14933642D01*
X39250000Y6750000D02*
X39250000Y8725500D01*
X23991917Y26050500D02*
X24899500Y26050500D01*
X36250000Y12000000D02*
X38524500Y9725500D01*
X39250000Y8725500D02*
X40250000Y9725500D01*
X24899500Y26050500D02*
X26500000Y24450000D01*
%TO.N,/SWCLK*%
X26250000Y25500000D02*
X26775000Y24975000D01*
X36649519Y12165487D02*
X38565006Y10250000D01*
X26775000Y24974328D02*
X36649519Y15099809D01*
X26775000Y24975000D02*
X26775000Y24974328D01*
X36649519Y15099809D02*
X36649519Y12165487D01*
X41000000Y10250000D02*
X42750000Y8500000D01*
X38565006Y10250000D02*
X41000000Y10250000D01*
%TO.N,/SWDIO*%
X29804057Y20495943D02*
X29945943Y20495943D01*
X38130012Y11250000D02*
X41500000Y11250000D01*
X24000000Y25200000D02*
X24950000Y25200000D01*
X33650000Y18950000D02*
X33650000Y18665014D01*
X25832152Y24317848D02*
X25982152Y24317848D01*
X37049039Y12330973D02*
X38130012Y11250000D01*
X25982152Y24317848D02*
X29804057Y20495943D01*
X37049039Y15265975D02*
X37049039Y12330973D01*
X24950000Y25200000D02*
X25832152Y24317848D01*
X41500000Y11250000D02*
X42750000Y12500000D01*
X33650000Y18665014D02*
X37049039Y15265975D01*
%TO.N,/SNSR_MTN*%
X17475489Y19975489D02*
X17150000Y19650000D01*
X28250000Y20500000D02*
X27725489Y19975489D01*
X28250000Y20700000D02*
X28250000Y20500000D01*
X23150000Y24150000D02*
X23782152Y23517848D01*
X23782152Y23517848D02*
X25432152Y23517848D01*
X27725489Y19975489D02*
X17475489Y19975489D01*
X17150000Y19650000D02*
X17150000Y18365000D01*
X25432152Y23517848D02*
X28250000Y20700000D01*
%TO.N,/ISP*%
X24725489Y22274511D02*
X22524511Y22274511D01*
X35725500Y11774500D02*
X37000000Y10500000D01*
X22524511Y22274511D02*
X22500000Y22250000D01*
X37000000Y10500000D02*
X37000000Y8750000D01*
X35725500Y13500000D02*
X35725500Y11774500D01*
X26250000Y20750000D02*
X24725489Y22274511D01*
%TD*%
%TA.AperFunction,Conductor*%
%TO.N,GND*%
G36*
X26361470Y63179498D02*
G01*
X26407963Y63125842D01*
X26418067Y63055568D01*
X26385199Y62987247D01*
X26289552Y62885393D01*
X26285735Y62878449D01*
X26285733Y62878447D01*
X26244506Y62803455D01*
X26210373Y62741368D01*
X26208403Y62733696D01*
X26208402Y62733693D01*
X26172878Y62595335D01*
X26169500Y62582177D01*
X26169500Y61459075D01*
X26173342Y61428664D01*
X26181555Y61363653D01*
X26184929Y61336942D01*
X26245432Y61184129D01*
X26342037Y61051163D01*
X26468674Y60946400D01*
X26617387Y60876421D01*
X26625170Y60874936D01*
X26625174Y60874935D01*
X26771044Y60847109D01*
X26771046Y60847109D01*
X26778830Y60845624D01*
X26860845Y60850784D01*
X26934949Y60855446D01*
X26934951Y60855446D01*
X26942860Y60855944D01*
X26950396Y60858393D01*
X26950398Y60858393D01*
X27005882Y60876421D01*
X27099171Y60906732D01*
X27237940Y60994798D01*
X27350448Y61114607D01*
X27392720Y61191498D01*
X27425807Y61251684D01*
X27429627Y61258632D01*
X27451458Y61343659D01*
X27487773Y61404665D01*
X27551305Y61436354D01*
X27621884Y61428664D01*
X27677101Y61384037D01*
X27699500Y61312324D01*
X27699500Y58618501D01*
X27679498Y58550380D01*
X27625842Y58503887D01*
X27555568Y58493783D01*
X27490988Y58523277D01*
X27455634Y58573963D01*
X27425711Y58653152D01*
X27423027Y58660255D01*
X27414427Y58672768D01*
X27334723Y58788738D01*
X27334722Y58788739D01*
X27330421Y58794997D01*
X27208348Y58903760D01*
X27201638Y58907313D01*
X27070566Y58976712D01*
X27070564Y58976713D01*
X27063855Y58980265D01*
X27003787Y58995353D01*
X26912655Y59018244D01*
X26912651Y59018244D01*
X26905284Y59020095D01*
X26897685Y59020135D01*
X26897683Y59020135D01*
X26829653Y59020491D01*
X26741790Y59020951D01*
X26734410Y59019179D01*
X26734408Y59019179D01*
X26590189Y58984556D01*
X26590185Y58984555D01*
X26582810Y58982784D01*
X26437524Y58907796D01*
X26431802Y58902804D01*
X26431800Y58902803D01*
X26320044Y58805312D01*
X26320041Y58805309D01*
X26314319Y58800317D01*
X26220307Y58666552D01*
X26160917Y58514224D01*
X26158140Y58493127D01*
X26151505Y58442732D01*
X26122783Y58377805D01*
X26063518Y58338713D01*
X25992526Y58337868D01*
X25932347Y58375538D01*
X25903069Y58434272D01*
X25892634Y58486023D01*
X25890936Y58494444D01*
X25825571Y58622730D01*
X25728116Y58728712D01*
X25605750Y58804582D01*
X25467488Y58844751D01*
X25460673Y58845251D01*
X25459596Y58845331D01*
X25459583Y58845331D01*
X25457288Y58845500D01*
X25353930Y58845500D01*
X25349685Y58844918D01*
X25349678Y58844918D01*
X25290769Y58836848D01*
X25247354Y58830901D01*
X25239470Y58827489D01*
X25239469Y58827489D01*
X25123098Y58777131D01*
X25123095Y58777129D01*
X25115217Y58773720D01*
X25003325Y58683112D01*
X24919921Y58565751D01*
X24871150Y58430285D01*
X24870522Y58421727D01*
X24870521Y58421724D01*
X24865098Y58347863D01*
X24860606Y58286693D01*
X24889064Y58145556D01*
X24954429Y58017270D01*
X25051884Y57911288D01*
X25174250Y57835418D01*
X25312512Y57795249D01*
X25319327Y57794749D01*
X25320404Y57794669D01*
X25320417Y57794669D01*
X25322712Y57794500D01*
X25426070Y57794500D01*
X25430315Y57795082D01*
X25430322Y57795082D01*
X25489231Y57803152D01*
X25532646Y57809099D01*
X25587929Y57833022D01*
X25656902Y57862869D01*
X25656905Y57862871D01*
X25664783Y57866280D01*
X25776675Y57956888D01*
X25860079Y58074249D01*
X25899949Y58184992D01*
X25941844Y58242310D01*
X26008076Y58267879D01*
X26077618Y58253581D01*
X26128391Y58203956D01*
X26144500Y58142311D01*
X26144500Y57254004D01*
X26159181Y57132687D01*
X26216973Y56979745D01*
X26309579Y56845003D01*
X26315249Y56839952D01*
X26315250Y56839950D01*
X26341576Y56816495D01*
X26431652Y56736240D01*
X26438361Y56732688D01*
X26438362Y56732687D01*
X26569434Y56663288D01*
X26569436Y56663287D01*
X26576145Y56659735D01*
X26627215Y56646907D01*
X26727345Y56621756D01*
X26727349Y56621756D01*
X26734716Y56619905D01*
X26742315Y56619865D01*
X26742317Y56619865D01*
X26810347Y56619509D01*
X26898210Y56619049D01*
X26905590Y56620821D01*
X26905592Y56620821D01*
X27049811Y56655444D01*
X27049815Y56655445D01*
X27057190Y56657216D01*
X27202476Y56732204D01*
X27208200Y56737197D01*
X27319956Y56834688D01*
X27319959Y56834691D01*
X27325681Y56839683D01*
X27419693Y56973448D01*
X27456107Y57066845D01*
X27499488Y57123046D01*
X27566367Y57146873D01*
X27635511Y57130759D01*
X27684967Y57079822D01*
X27699500Y57021075D01*
X27699500Y56037317D01*
X27697586Y56015437D01*
X27694864Y56000000D01*
X27695520Y55996279D01*
X27696113Y55986470D01*
X27696113Y55986469D01*
X27709925Y55758136D01*
X27712099Y55722199D01*
X27762266Y55448448D01*
X27845063Y55182740D01*
X27959285Y54928950D01*
X27961257Y54925689D01*
X27961259Y54925684D01*
X27981828Y54891659D01*
X28000000Y54826474D01*
X28000000Y54000000D01*
X28826474Y54000000D01*
X28891659Y53981828D01*
X28925684Y53961259D01*
X28925689Y53961257D01*
X28928950Y53959285D01*
X29018052Y53919183D01*
X29179264Y53846627D01*
X29179270Y53846625D01*
X29182740Y53845063D01*
X29448448Y53762266D01*
X29722199Y53712099D01*
X29725991Y53711870D01*
X29725996Y53711869D01*
X29985484Y53696173D01*
X29996279Y53695520D01*
X30000000Y53694864D01*
X30015437Y53697586D01*
X30037317Y53699500D01*
X41962683Y53699500D01*
X41984563Y53697586D01*
X42000000Y53694864D01*
X42010855Y53696778D01*
X42021294Y53696778D01*
X42034509Y53697562D01*
X42295187Y53682923D01*
X42309219Y53681342D01*
X42451471Y53657172D01*
X42593719Y53633003D01*
X42607494Y53629859D01*
X42693847Y53604981D01*
X42884799Y53549969D01*
X42898118Y53545308D01*
X43113449Y53456115D01*
X43164736Y53434871D01*
X43177466Y53428740D01*
X43430020Y53289159D01*
X43441985Y53281642D01*
X43677342Y53114647D01*
X43688389Y53105837D01*
X43903559Y52913550D01*
X43913550Y52903559D01*
X44105837Y52688389D01*
X44114647Y52677342D01*
X44281642Y52441985D01*
X44289159Y52430020D01*
X44428740Y52177466D01*
X44434871Y52164736D01*
X44545308Y51898118D01*
X44549969Y51884799D01*
X44581689Y51774696D01*
X44629859Y51607494D01*
X44633003Y51593719D01*
X44645723Y51518855D01*
X44675183Y51345470D01*
X44681341Y51309224D01*
X44682923Y51295187D01*
X44694397Y51090878D01*
X44697562Y51034512D01*
X44696778Y51021294D01*
X44696778Y51010855D01*
X44694864Y51000000D01*
X44696778Y50989145D01*
X44697586Y50984563D01*
X44699500Y50962683D01*
X44699500Y3037317D01*
X44697586Y3015437D01*
X44694864Y3000000D01*
X44696778Y2989145D01*
X44696778Y2978706D01*
X44697562Y2965491D01*
X44686926Y2776095D01*
X44682923Y2704817D01*
X44681342Y2690781D01*
X44669808Y2622899D01*
X44633003Y2406281D01*
X44629859Y2392506D01*
X44549969Y2115201D01*
X44545308Y2101882D01*
X44446547Y1863452D01*
X44434871Y1835264D01*
X44428740Y1822534D01*
X44289159Y1569980D01*
X44281642Y1558015D01*
X44114647Y1322658D01*
X44105837Y1311611D01*
X43913550Y1096441D01*
X43903559Y1086450D01*
X43688389Y894163D01*
X43677342Y885353D01*
X43441985Y718358D01*
X43430020Y710841D01*
X43177466Y571260D01*
X43164735Y565129D01*
X42898118Y454692D01*
X42884799Y450031D01*
X42725466Y404128D01*
X42607494Y370141D01*
X42593719Y366997D01*
X42451471Y342828D01*
X42309219Y318658D01*
X42295187Y317077D01*
X42034509Y302438D01*
X42021294Y303222D01*
X42010855Y303222D01*
X42000000Y305136D01*
X41989145Y303222D01*
X41984563Y302414D01*
X41962683Y300500D01*
X38598240Y300500D01*
X38530119Y320502D01*
X38483626Y374158D01*
X38473522Y444432D01*
X38481831Y474718D01*
X38496966Y511256D01*
X38536330Y606291D01*
X38555250Y750000D01*
X38536330Y893709D01*
X38532033Y904084D01*
X38531764Y906587D01*
X38531033Y909314D01*
X38531458Y909428D01*
X38524445Y974672D01*
X38556226Y1038158D01*
X38574382Y1054234D01*
X38600532Y1073233D01*
X38605871Y1077112D01*
X38618525Y1091165D01*
X38728114Y1212876D01*
X38728115Y1212877D01*
X38732533Y1217784D01*
X38827179Y1381716D01*
X38885674Y1561744D01*
X38895552Y1655724D01*
X38904770Y1743435D01*
X38905460Y1750000D01*
X38896499Y1835264D01*
X38886364Y1931693D01*
X38886364Y1931695D01*
X38885674Y1938256D01*
X38827179Y2118284D01*
X38779222Y2201349D01*
X38735836Y2276495D01*
X38732533Y2282216D01*
X38633227Y2392506D01*
X38610286Y2417985D01*
X38610284Y2417986D01*
X38605871Y2422888D01*
X38452730Y2534151D01*
X38279803Y2611144D01*
X38181788Y2631978D01*
X38101103Y2649128D01*
X38101099Y2649128D01*
X38094646Y2650500D01*
X37905354Y2650500D01*
X37898901Y2649128D01*
X37898897Y2649128D01*
X37818212Y2631978D01*
X37720197Y2611144D01*
X37547270Y2534151D01*
X37394129Y2422888D01*
X37389716Y2417986D01*
X37389714Y2417985D01*
X37366773Y2392506D01*
X37267467Y2282216D01*
X37264164Y2276495D01*
X37220779Y2201349D01*
X37172821Y2118284D01*
X37114326Y1938256D01*
X37113636Y1931695D01*
X37113636Y1931693D01*
X37103501Y1835264D01*
X37094540Y1750000D01*
X37095230Y1743435D01*
X37104449Y1655724D01*
X37114326Y1561744D01*
X37172821Y1381716D01*
X37267467Y1217784D01*
X37271885Y1212877D01*
X37271886Y1212876D01*
X37381476Y1091165D01*
X37394129Y1077112D01*
X37399468Y1073233D01*
X37425618Y1054234D01*
X37468972Y998012D01*
X37475047Y927276D01*
X37467968Y904086D01*
X37463670Y893709D01*
X37444750Y750000D01*
X37463670Y606291D01*
X37503035Y511256D01*
X37518169Y474718D01*
X37525758Y404128D01*
X37493979Y340641D01*
X37432920Y304414D01*
X37401760Y300500D01*
X35157997Y300500D01*
X35089876Y320502D01*
X35043383Y374158D01*
X35033279Y444432D01*
X35062773Y509012D01*
X35125386Y548207D01*
X35176595Y561928D01*
X35186887Y565674D01*
X35376416Y654053D01*
X35385912Y659536D01*
X35427148Y688410D01*
X35435523Y698888D01*
X35428457Y712332D01*
X34762811Y1377979D01*
X34748868Y1385592D01*
X34747034Y1385461D01*
X34740420Y1381210D01*
X34070820Y711609D01*
X34064393Y699839D01*
X34073687Y687825D01*
X34114088Y659536D01*
X34123584Y654053D01*
X34313113Y565674D01*
X34323405Y561928D01*
X34374614Y548207D01*
X34435237Y511256D01*
X34466258Y447395D01*
X34457830Y376900D01*
X34412627Y322153D01*
X34342003Y300500D01*
X3037317Y300500D01*
X3015437Y302414D01*
X3010855Y303222D01*
X3000000Y305136D01*
X2989145Y303222D01*
X2978706Y303222D01*
X2965491Y302438D01*
X2704813Y317077D01*
X2690781Y318658D01*
X2548529Y342828D01*
X2406281Y366997D01*
X2392506Y370141D01*
X2274534Y404128D01*
X2115201Y450031D01*
X2101882Y454692D01*
X1835265Y565129D01*
X1822534Y571260D01*
X1569980Y710841D01*
X1558015Y718358D01*
X1322658Y885353D01*
X1311611Y894163D01*
X1096441Y1086450D01*
X1086450Y1096441D01*
X894163Y1311611D01*
X885353Y1322658D01*
X718358Y1558015D01*
X710841Y1569980D01*
X611348Y1750000D01*
X30844540Y1750000D01*
X30845230Y1743435D01*
X30854449Y1655724D01*
X30864326Y1561744D01*
X30922821Y1381716D01*
X31017467Y1217784D01*
X31021885Y1212877D01*
X31021886Y1212876D01*
X31131476Y1091165D01*
X31144129Y1077112D01*
X31297270Y965849D01*
X31470197Y888856D01*
X31568212Y868022D01*
X31648897Y850872D01*
X31648901Y850872D01*
X31655354Y849500D01*
X31844646Y849500D01*
X31851099Y850872D01*
X31851103Y850872D01*
X31931788Y868022D01*
X32029803Y888856D01*
X32202730Y965849D01*
X32355871Y1077112D01*
X32368525Y1091165D01*
X32478114Y1212876D01*
X32478115Y1212877D01*
X32482533Y1217784D01*
X32577179Y1381716D01*
X32635674Y1561744D01*
X32645552Y1655724D01*
X32654770Y1743435D01*
X32654885Y1744525D01*
X33487674Y1744525D01*
X33505901Y1536196D01*
X33507804Y1525401D01*
X33561928Y1323405D01*
X33565674Y1313113D01*
X33654054Y1123583D01*
X33659534Y1114093D01*
X33688411Y1072851D01*
X33698887Y1064477D01*
X33712334Y1071545D01*
X34377979Y1737189D01*
X34384356Y1748868D01*
X35114408Y1748868D01*
X35114539Y1747034D01*
X35118790Y1740420D01*
X35788391Y1070820D01*
X35800161Y1064393D01*
X35812176Y1073689D01*
X35840466Y1114093D01*
X35845946Y1123583D01*
X35934326Y1313113D01*
X35938072Y1323405D01*
X35992196Y1525401D01*
X35994099Y1536196D01*
X36012326Y1744525D01*
X36012326Y1755475D01*
X35994099Y1963804D01*
X35992196Y1974599D01*
X35938072Y2176595D01*
X35934326Y2186887D01*
X35845946Y2376417D01*
X35840466Y2385907D01*
X35811589Y2427149D01*
X35801113Y2435523D01*
X35787666Y2428455D01*
X35122021Y1762811D01*
X35114408Y1748868D01*
X34384356Y1748868D01*
X34385592Y1751132D01*
X34385461Y1752966D01*
X34381210Y1759580D01*
X33711609Y2429180D01*
X33699839Y2435607D01*
X33687824Y2426311D01*
X33659534Y2385907D01*
X33654054Y2376417D01*
X33565674Y2186887D01*
X33561928Y2176595D01*
X33507804Y1974599D01*
X33505901Y1963804D01*
X33487674Y1755475D01*
X33487674Y1744525D01*
X32654885Y1744525D01*
X32655460Y1750000D01*
X32646499Y1835264D01*
X32636364Y1931693D01*
X32636364Y1931695D01*
X32635674Y1938256D01*
X32577179Y2118284D01*
X32564778Y2139764D01*
X32545357Y2173401D01*
X32528476Y2236401D01*
X32528476Y2237829D01*
X32530897Y2250000D01*
X32527921Y2264963D01*
X32525500Y2289543D01*
X32525500Y2801113D01*
X34064477Y2801113D01*
X34071545Y2787666D01*
X34737189Y2122021D01*
X34751132Y2114408D01*
X34752966Y2114539D01*
X34759580Y2118790D01*
X35429180Y2788391D01*
X35435607Y2800161D01*
X35426313Y2812175D01*
X35385912Y2840464D01*
X35376416Y2845947D01*
X35186887Y2934326D01*
X35176595Y2938072D01*
X34974599Y2992196D01*
X34963804Y2994099D01*
X34755475Y3012326D01*
X34744525Y3012326D01*
X34536196Y2994099D01*
X34525401Y2992196D01*
X34323405Y2938072D01*
X34313113Y2934326D01*
X34123583Y2845946D01*
X34114093Y2840466D01*
X34072851Y2811589D01*
X34064477Y2801113D01*
X32525500Y2801113D01*
X32525500Y5000000D01*
X32844508Y5000000D01*
X32864354Y4874696D01*
X32921950Y4761658D01*
X33011658Y4671950D01*
X33124696Y4614354D01*
X33134485Y4612804D01*
X33134487Y4612803D01*
X33240207Y4596059D01*
X33250000Y4594508D01*
X33259793Y4596059D01*
X33365513Y4612803D01*
X33365515Y4612804D01*
X33375304Y4614354D01*
X33488342Y4671950D01*
X33578050Y4761658D01*
X33635646Y4874696D01*
X33655492Y5000000D01*
X33635646Y5125304D01*
X33578050Y5238342D01*
X33488342Y5328050D01*
X33375304Y5385646D01*
X33365515Y5387196D01*
X33365513Y5387197D01*
X33259793Y5403941D01*
X33250000Y5405492D01*
X33240207Y5403941D01*
X33134487Y5387197D01*
X33134485Y5387196D01*
X33124696Y5385646D01*
X33011658Y5328050D01*
X32921950Y5238342D01*
X32864354Y5125304D01*
X32844508Y5000000D01*
X32525500Y5000000D01*
X32525500Y9106918D01*
X32545502Y9175039D01*
X32562405Y9196013D01*
X32578050Y9211658D01*
X32635646Y9324696D01*
X32648280Y9404461D01*
X32653941Y9440207D01*
X32655492Y9450000D01*
X32652960Y9465985D01*
X32637197Y9565513D01*
X32637196Y9565515D01*
X32635646Y9575304D01*
X32578050Y9688342D01*
X32488342Y9778050D01*
X32375304Y9835646D01*
X32365515Y9837196D01*
X32365513Y9837197D01*
X32259793Y9853941D01*
X32250000Y9855492D01*
X32240207Y9853941D01*
X32134487Y9837197D01*
X32134485Y9837196D01*
X32124696Y9835646D01*
X32011658Y9778050D01*
X31921950Y9688342D01*
X31864354Y9575304D01*
X31862804Y9565515D01*
X31862803Y9565513D01*
X31847040Y9465985D01*
X31844508Y9450000D01*
X31846059Y9440207D01*
X31851721Y9404461D01*
X31864354Y9324696D01*
X31921950Y9211658D01*
X31937595Y9196013D01*
X31971621Y9133701D01*
X31974500Y9106918D01*
X31974500Y2776095D01*
X31954498Y2707974D01*
X31900842Y2661481D01*
X31844646Y2652306D01*
X31844646Y2650500D01*
X31655354Y2650500D01*
X31648901Y2649128D01*
X31648897Y2649128D01*
X31568212Y2631978D01*
X31470197Y2611144D01*
X31297270Y2534151D01*
X31144129Y2422888D01*
X31139716Y2417986D01*
X31139714Y2417985D01*
X31116773Y2392506D01*
X31017467Y2282216D01*
X31014164Y2276495D01*
X30970779Y2201349D01*
X30922821Y2118284D01*
X30864326Y1938256D01*
X30863636Y1931695D01*
X30863636Y1931693D01*
X30853501Y1835264D01*
X30844540Y1750000D01*
X611348Y1750000D01*
X571260Y1822534D01*
X565129Y1835264D01*
X553453Y1863452D01*
X454692Y2101882D01*
X450031Y2115201D01*
X370141Y2392506D01*
X366997Y2406281D01*
X330192Y2622899D01*
X318658Y2690781D01*
X317077Y2704817D01*
X313074Y2776095D01*
X302438Y2965491D01*
X303222Y2978706D01*
X303222Y2989145D01*
X305136Y3000000D01*
X302414Y3015437D01*
X300500Y3037317D01*
X300500Y13000000D01*
X11094540Y13000000D01*
X11095230Y12993435D01*
X11111007Y12843326D01*
X11114326Y12811744D01*
X11172821Y12631716D01*
X11176124Y12625994D01*
X11176125Y12625993D01*
X11221777Y12546921D01*
X11267467Y12467784D01*
X11271885Y12462877D01*
X11271886Y12462876D01*
X11389711Y12332019D01*
X11394129Y12327112D01*
X11547270Y12215849D01*
X11720197Y12138856D01*
X11818212Y12118022D01*
X11898897Y12100872D01*
X11898901Y12100872D01*
X11905354Y12099500D01*
X12094646Y12099500D01*
X12101099Y12100872D01*
X12101103Y12100872D01*
X12181788Y12118022D01*
X12279803Y12138856D01*
X12452730Y12215849D01*
X12495862Y12247186D01*
X12600527Y12323229D01*
X12600529Y12323231D01*
X12605871Y12327112D01*
X12648709Y12374689D01*
X12709154Y12411927D01*
X12780138Y12410575D01*
X12799546Y12402644D01*
X12849541Y12377171D01*
X12874696Y12364354D01*
X12884485Y12362804D01*
X12884487Y12362803D01*
X12990207Y12346059D01*
X13000000Y12344508D01*
X13009793Y12346059D01*
X13115513Y12362803D01*
X13115515Y12362804D01*
X13125304Y12364354D01*
X13238342Y12421950D01*
X13328050Y12511658D01*
X13385646Y12624696D01*
X13387754Y12638001D01*
X13403941Y12740207D01*
X13405492Y12750000D01*
X13395713Y12811744D01*
X13387197Y12865513D01*
X13387196Y12865515D01*
X13385646Y12875304D01*
X13328050Y12988342D01*
X13238342Y13078050D01*
X13125304Y13135646D01*
X13115513Y13137197D01*
X13115512Y13137197D01*
X13074526Y13143688D01*
X13026574Y13151283D01*
X12962421Y13181695D01*
X12957189Y13186637D01*
X12955515Y13188311D01*
X12948624Y13198624D01*
X12925623Y13213993D01*
X12927212Y13216370D01*
X12927210Y13216372D01*
X12925621Y13213994D01*
X12900243Y13230951D01*
X12854716Y13285427D01*
X12850412Y13296780D01*
X12829221Y13361999D01*
X12827179Y13368284D01*
X12732533Y13532216D01*
X12613509Y13664405D01*
X12610286Y13667985D01*
X12610284Y13667986D01*
X12605871Y13672888D01*
X12474551Y13768297D01*
X12458072Y13780270D01*
X12458071Y13780271D01*
X12452730Y13784151D01*
X12279803Y13861144D01*
X12176249Y13883155D01*
X12101103Y13899128D01*
X12101099Y13899128D01*
X12094646Y13900500D01*
X11905354Y13900500D01*
X11898901Y13899128D01*
X11898897Y13899128D01*
X11823751Y13883155D01*
X11720197Y13861144D01*
X11547270Y13784151D01*
X11541929Y13780271D01*
X11541928Y13780270D01*
X11525449Y13768297D01*
X11394129Y13672888D01*
X11389716Y13667986D01*
X11389714Y13667985D01*
X11386491Y13664405D01*
X11267467Y13532216D01*
X11172821Y13368284D01*
X11114326Y13188256D01*
X11113636Y13181695D01*
X11113636Y13181693D01*
X11106304Y13111934D01*
X11094540Y13000000D01*
X300500Y13000000D01*
X300500Y16500000D01*
X11094540Y16500000D01*
X11095230Y16493435D01*
X11112207Y16331910D01*
X11114326Y16311744D01*
X11172821Y16131716D01*
X11176124Y16125994D01*
X11176125Y16125993D01*
X11201331Y16082335D01*
X11267467Y15967784D01*
X11271885Y15962877D01*
X11271886Y15962876D01*
X11380806Y15841909D01*
X11394129Y15827112D01*
X11399468Y15823233D01*
X11457380Y15781158D01*
X11547270Y15715849D01*
X11720197Y15638856D01*
X11816770Y15618329D01*
X11898897Y15600872D01*
X11898901Y15600872D01*
X11905354Y15599500D01*
X12094646Y15599500D01*
X12101099Y15600872D01*
X12101103Y15600872D01*
X12183230Y15618329D01*
X12279803Y15638856D01*
X12452730Y15715849D01*
X12542621Y15781158D01*
X12600532Y15823233D01*
X12605871Y15827112D01*
X12619195Y15841909D01*
X12728114Y15962876D01*
X12728115Y15962877D01*
X12732533Y15967784D01*
X12778677Y16047708D01*
X12830059Y16096701D01*
X12899773Y16110137D01*
X12907506Y16109157D01*
X12990206Y16096059D01*
X12990207Y16096059D01*
X13000000Y16094508D01*
X13009793Y16096059D01*
X13115513Y16112803D01*
X13115515Y16112804D01*
X13125304Y16114354D01*
X13238342Y16171950D01*
X13328050Y16261658D01*
X13385646Y16374696D01*
X13394955Y16433468D01*
X13403941Y16490207D01*
X13405492Y16500000D01*
X13392588Y16581473D01*
X13387197Y16615513D01*
X13387196Y16615515D01*
X13385646Y16625304D01*
X13328050Y16738342D01*
X13238342Y16828050D01*
X13125304Y16885646D01*
X13115515Y16887196D01*
X13115513Y16887197D01*
X13009793Y16903941D01*
X13000000Y16905492D01*
X12990207Y16903941D01*
X12990206Y16903941D01*
X12907506Y16890843D01*
X12837095Y16899943D01*
X12782781Y16945665D01*
X12778677Y16952292D01*
X12735836Y17026495D01*
X12732533Y17032216D01*
X12702500Y17065571D01*
X12610286Y17167985D01*
X12610284Y17167986D01*
X12605871Y17172888D01*
X12545880Y17216474D01*
X12458072Y17280270D01*
X12458071Y17280271D01*
X12452730Y17284151D01*
X12279803Y17361144D01*
X12181788Y17381978D01*
X12101103Y17399128D01*
X12101099Y17399128D01*
X12094646Y17400500D01*
X11905354Y17400500D01*
X11898901Y17399128D01*
X11898897Y17399128D01*
X11818212Y17381978D01*
X11720197Y17361144D01*
X11547270Y17284151D01*
X11541929Y17280271D01*
X11541928Y17280270D01*
X11454120Y17216474D01*
X11394129Y17172888D01*
X11389716Y17167986D01*
X11389714Y17167985D01*
X11297500Y17065571D01*
X11267467Y17032216D01*
X11264164Y17026495D01*
X11193408Y16903941D01*
X11172821Y16868284D01*
X11114326Y16688256D01*
X11113636Y16681695D01*
X11113636Y16681693D01*
X11105662Y16605820D01*
X11094540Y16500000D01*
X300500Y16500000D01*
X300500Y19000000D01*
X11094540Y19000000D01*
X11095230Y18993435D01*
X11111936Y18834487D01*
X11114326Y18811744D01*
X11172821Y18631716D01*
X11176124Y18625994D01*
X11176125Y18625993D01*
X11194303Y18594508D01*
X11267467Y18467784D01*
X11394129Y18327112D01*
X11399468Y18323233D01*
X11505771Y18246000D01*
X11547270Y18215849D01*
X11720197Y18138856D01*
X11787159Y18124623D01*
X11898897Y18100872D01*
X11898901Y18100872D01*
X11905354Y18099500D01*
X12094646Y18099500D01*
X12101099Y18100872D01*
X12101103Y18100872D01*
X12212841Y18124623D01*
X12279803Y18138856D01*
X12452730Y18215849D01*
X12494230Y18246000D01*
X12600532Y18323233D01*
X12605871Y18327112D01*
X12732533Y18467784D01*
X12778677Y18547708D01*
X12830059Y18596701D01*
X12899773Y18610137D01*
X12907506Y18609157D01*
X12990206Y18596059D01*
X12990207Y18596059D01*
X13000000Y18594508D01*
X13009793Y18596059D01*
X13115513Y18612803D01*
X13115515Y18612804D01*
X13125304Y18614354D01*
X13238342Y18671950D01*
X13328050Y18761658D01*
X13385646Y18874696D01*
X13405492Y19000000D01*
X13388340Y19108297D01*
X13387197Y19115513D01*
X13387196Y19115515D01*
X13385646Y19125304D01*
X13328050Y19238342D01*
X13238342Y19328050D01*
X13125304Y19385646D01*
X13115515Y19387196D01*
X13115513Y19387197D01*
X13009793Y19403941D01*
X13000000Y19405492D01*
X12990207Y19403941D01*
X12990206Y19403941D01*
X12907506Y19390843D01*
X12837095Y19399943D01*
X12782781Y19445665D01*
X12778677Y19452292D01*
X12735836Y19526495D01*
X12732533Y19532216D01*
X12723784Y19541933D01*
X12610286Y19667985D01*
X12610284Y19667986D01*
X12605871Y19672888D01*
X12483915Y19761494D01*
X12458072Y19780270D01*
X12458071Y19780271D01*
X12452730Y19784151D01*
X12279803Y19861144D01*
X12169982Y19884487D01*
X12101103Y19899128D01*
X12101099Y19899128D01*
X12094646Y19900500D01*
X11905354Y19900500D01*
X11898901Y19899128D01*
X11898897Y19899128D01*
X11830018Y19884487D01*
X11720197Y19861144D01*
X11547270Y19784151D01*
X11541929Y19780271D01*
X11541928Y19780270D01*
X11516085Y19761494D01*
X11394129Y19672888D01*
X11389716Y19667986D01*
X11389714Y19667985D01*
X11276216Y19541933D01*
X11267467Y19532216D01*
X11264164Y19526495D01*
X11192027Y19401549D01*
X11172821Y19368284D01*
X11114326Y19188256D01*
X11113636Y19181695D01*
X11113636Y19181693D01*
X11101368Y19064968D01*
X11094540Y19000000D01*
X300500Y19000000D01*
X300500Y35934037D01*
X2994757Y35934037D01*
X3011175Y35738517D01*
X3065258Y35549909D01*
X3068076Y35544426D01*
X3152123Y35380887D01*
X3152126Y35380883D01*
X3154944Y35375399D01*
X3276818Y35221631D01*
X3281511Y35217637D01*
X3281512Y35217636D01*
X3417003Y35102325D01*
X3426238Y35094465D01*
X3431616Y35091459D01*
X3431618Y35091458D01*
X3463330Y35073735D01*
X3597513Y34998743D01*
X3784118Y34938111D01*
X3978946Y34914879D01*
X3985081Y34915351D01*
X3985083Y34915351D01*
X4168434Y34929459D01*
X4168438Y34929460D01*
X4174576Y34929932D01*
X4363556Y34982697D01*
X4369054Y34985474D01*
X4369057Y34985475D01*
X4392168Y34997150D01*
X4461990Y35010012D01*
X4527681Y34983083D01*
X4568385Y34924914D01*
X4574980Y34884685D01*
X4574980Y32494045D01*
X4572559Y32469463D01*
X4569583Y32454502D01*
X4574980Y32427370D01*
X4574980Y32427369D01*
X4590965Y32347007D01*
X4651856Y32255878D01*
X4662172Y32248985D01*
X4662173Y32248984D01*
X4664544Y32247400D01*
X4683636Y32231730D01*
X5139446Y31775920D01*
X5173472Y31713608D01*
X5168407Y31642793D01*
X5125860Y31585957D01*
X5059340Y31561146D01*
X4990208Y31576184D01*
X4988342Y31578050D01*
X4875304Y31635646D01*
X4865515Y31637196D01*
X4865513Y31637197D01*
X4759793Y31653941D01*
X4750000Y31655492D01*
X4740207Y31653941D01*
X4634487Y31637197D01*
X4634485Y31637196D01*
X4624696Y31635646D01*
X4511658Y31578050D01*
X4421950Y31488342D01*
X4364354Y31375304D01*
X4362804Y31365515D01*
X4362803Y31365513D01*
X4356507Y31325761D01*
X4344508Y31250000D01*
X4346059Y31240207D01*
X4362643Y31135502D01*
X4364354Y31124696D01*
X4421950Y31011658D01*
X4511658Y30921950D01*
X4624696Y30864354D01*
X4634485Y30862804D01*
X4634487Y30862803D01*
X4740207Y30846059D01*
X4750000Y30844508D01*
X4759793Y30846059D01*
X4865513Y30862803D01*
X4865515Y30862804D01*
X4875304Y30864354D01*
X4988342Y30921950D01*
X5003987Y30937595D01*
X5066299Y30971621D01*
X5093082Y30974500D01*
X5323670Y30974500D01*
X5391791Y30954498D01*
X5412765Y30937595D01*
X11816242Y24534118D01*
X11831912Y24515026D01*
X11840390Y24502338D01*
X11850703Y24495447D01*
X11863391Y24486969D01*
X11863391Y24486968D01*
X11888053Y24470490D01*
X11888055Y24470489D01*
X11931519Y24441447D01*
X11976358Y24432528D01*
X12011874Y24425463D01*
X12011879Y24425462D01*
X12011882Y24425462D01*
X12011890Y24425461D01*
X12039014Y24420066D01*
X12053971Y24423041D01*
X12078551Y24425462D01*
X12096968Y24425462D01*
X16227445Y24425461D01*
X16295566Y24405459D01*
X16342059Y24351803D01*
X16352162Y24281529D01*
X16322669Y24216949D01*
X16316540Y24210366D01*
X16311689Y24205515D01*
X16301376Y24198624D01*
X16294485Y24188311D01*
X16292898Y24185936D01*
X16277228Y24166844D01*
X14297814Y22187430D01*
X14228430Y22152076D01*
X14134487Y22137197D01*
X14134485Y22137196D01*
X14124696Y22135646D01*
X14011658Y22078050D01*
X13921950Y21988342D01*
X13864354Y21875304D01*
X13862804Y21865515D01*
X13862803Y21865513D01*
X13860436Y21850566D01*
X13844508Y21750000D01*
X13864354Y21624696D01*
X13921950Y21511658D01*
X14011658Y21421950D01*
X14107282Y21373227D01*
X14124696Y21364354D01*
X14123706Y21362412D01*
X14171458Y21329759D01*
X14199095Y21264362D01*
X14186988Y21194405D01*
X14138981Y21142100D01*
X14124932Y21135683D01*
X14124696Y21135646D01*
X14011658Y21078050D01*
X13921950Y20988342D01*
X13864354Y20875304D01*
X13844508Y20750000D01*
X13864354Y20624696D01*
X13921950Y20511658D01*
X14011658Y20421950D01*
X14124696Y20364354D01*
X14134487Y20362803D01*
X14134488Y20362803D01*
X14142292Y20361567D01*
X14206445Y20331156D01*
X14243973Y20270888D01*
X14246158Y20261718D01*
X14246586Y20259568D01*
X14249011Y20234968D01*
X14249011Y20038080D01*
X14229009Y19969959D01*
X14175353Y19923466D01*
X14103300Y19913631D01*
X14009793Y19928441D01*
X14000000Y19929992D01*
X13990207Y19928441D01*
X13884487Y19911697D01*
X13884485Y19911696D01*
X13874696Y19910146D01*
X13761658Y19852550D01*
X13671950Y19762842D01*
X13614354Y19649804D01*
X13612804Y19640015D01*
X13612803Y19640013D01*
X13597827Y19545453D01*
X13594508Y19524500D01*
X13596059Y19514707D01*
X13611472Y19417394D01*
X13614354Y19399196D01*
X13648312Y19332550D01*
X13661756Y19306165D01*
X13675489Y19248962D01*
X13675489Y16088554D01*
X13673068Y16063972D01*
X13670092Y16049011D01*
X13675489Y16021879D01*
X13675489Y16021878D01*
X13691474Y15941516D01*
X13752365Y15850387D01*
X13762681Y15843494D01*
X13762682Y15843493D01*
X13765053Y15841909D01*
X13784145Y15826239D01*
X13937595Y15672789D01*
X13971621Y15610477D01*
X13974500Y15583694D01*
X13974500Y14580700D01*
X13954498Y14512579D01*
X13900842Y14466086D01*
X13830568Y14455982D01*
X13765988Y14485476D01*
X13738588Y14526803D01*
X13735646Y14525304D01*
X13678050Y14638342D01*
X13588342Y14728050D01*
X13475304Y14785646D01*
X13465515Y14787196D01*
X13465513Y14787197D01*
X13359793Y14803941D01*
X13350000Y14805492D01*
X13340207Y14803941D01*
X13234487Y14787197D01*
X13234485Y14787196D01*
X13224696Y14785646D01*
X13111658Y14728050D01*
X13021950Y14638342D01*
X12964354Y14525304D01*
X12962804Y14515515D01*
X12962803Y14515513D01*
X12948083Y14422573D01*
X12944508Y14400000D01*
X12946059Y14390207D01*
X12962563Y14286006D01*
X12964354Y14274696D01*
X13021950Y14161658D01*
X13111658Y14071950D01*
X13224696Y14014354D01*
X13234485Y14012804D01*
X13234487Y14012803D01*
X13340207Y13996059D01*
X13350000Y13994508D01*
X13359793Y13996059D01*
X13465513Y14012803D01*
X13465515Y14012804D01*
X13475304Y14014354D01*
X13588342Y14071950D01*
X13678050Y14161658D01*
X13735646Y14274696D01*
X13738818Y14273080D01*
X13768734Y14316837D01*
X13834129Y14344478D01*
X13904087Y14332376D01*
X13956396Y14284373D01*
X13974500Y14219300D01*
X13974500Y12404543D01*
X13972079Y12379961D01*
X13969103Y12365000D01*
X13974500Y12337868D01*
X13974500Y12337867D01*
X13990485Y12257505D01*
X14051376Y12166376D01*
X14061692Y12159483D01*
X14061693Y12159482D01*
X14064064Y12157898D01*
X14083156Y12142228D01*
X16324893Y9900491D01*
X16358919Y9838179D01*
X16355631Y9772460D01*
X16324248Y9675872D01*
X16313503Y9642803D01*
X16312813Y9636240D01*
X16312813Y9636239D01*
X16302652Y9539563D01*
X16294815Y9465000D01*
X16295505Y9458435D01*
X16311520Y9306068D01*
X16313503Y9287197D01*
X16368750Y9117165D01*
X16458141Y8962335D01*
X16462559Y8957428D01*
X16462560Y8957427D01*
X16569954Y8838155D01*
X16577770Y8829474D01*
X16583109Y8825595D01*
X16704125Y8737671D01*
X16722407Y8724388D01*
X16728433Y8721705D01*
X16728440Y8721701D01*
X16799403Y8690107D01*
X16853499Y8644127D01*
X16874149Y8576200D01*
X16854797Y8507892D01*
X16799404Y8459893D01*
X16728438Y8428297D01*
X16728436Y8428296D01*
X16722408Y8425612D01*
X16717067Y8421732D01*
X16717066Y8421731D01*
X16630893Y8359122D01*
X16577770Y8320526D01*
X16573357Y8315624D01*
X16573355Y8315623D01*
X16464326Y8194534D01*
X16458141Y8187665D01*
X16368750Y8032835D01*
X16313503Y7862803D01*
X16294815Y7685000D01*
X16295505Y7678435D01*
X16302874Y7608329D01*
X16313503Y7507197D01*
X16368750Y7337165D01*
X16372053Y7331443D01*
X16372054Y7331442D01*
X16388722Y7302573D01*
X16458141Y7182335D01*
X16462559Y7177428D01*
X16462560Y7177427D01*
X16494869Y7141545D01*
X16577770Y7049474D01*
X16583109Y7045595D01*
X16683298Y6972803D01*
X16722407Y6944388D01*
X16728433Y6941705D01*
X16728440Y6941701D01*
X16799403Y6910107D01*
X16853499Y6864127D01*
X16874149Y6796200D01*
X16854797Y6727892D01*
X16799404Y6679893D01*
X16728438Y6648297D01*
X16728436Y6648296D01*
X16722408Y6645612D01*
X16577770Y6540526D01*
X16573357Y6535624D01*
X16573355Y6535623D01*
X16551316Y6511146D01*
X16458141Y6407665D01*
X16368750Y6252835D01*
X16313503Y6082803D01*
X16312813Y6076240D01*
X16312813Y6076239D01*
X16299532Y5949877D01*
X16294815Y5905000D01*
X16295505Y5898435D01*
X16299885Y5856767D01*
X16313503Y5727197D01*
X16368750Y5557165D01*
X16458141Y5402335D01*
X16462559Y5397428D01*
X16462560Y5397427D01*
X16531341Y5321039D01*
X16577770Y5269474D01*
X16583109Y5265595D01*
X16632777Y5229509D01*
X16722407Y5164388D01*
X16728435Y5161704D01*
X16728437Y5161703D01*
X16879702Y5094356D01*
X16885733Y5091671D01*
X16973171Y5073085D01*
X17054152Y5055872D01*
X17054156Y5055872D01*
X17060609Y5054500D01*
X17239391Y5054500D01*
X17245844Y5055872D01*
X17245848Y5055872D01*
X17326829Y5073085D01*
X17414267Y5091671D01*
X17420298Y5094356D01*
X17571563Y5161703D01*
X17571565Y5161704D01*
X17577593Y5164388D01*
X17667224Y5229509D01*
X17699439Y5252915D01*
X17766306Y5276773D01*
X17835458Y5260693D01*
X17884938Y5209780D01*
X17899500Y5150979D01*
X17899500Y2287374D01*
X17898935Y2275817D01*
X17895754Y2264832D01*
X17896758Y2253241D01*
X17899030Y2227006D01*
X17899500Y2216134D01*
X17899500Y2207052D01*
X17900562Y2201351D01*
X17900562Y2201349D01*
X17900724Y2200479D01*
X17902384Y2188280D01*
X17903673Y2173401D01*
X17905413Y2153304D01*
X17910520Y2142855D01*
X17911432Y2139567D01*
X17912661Y2136383D01*
X17914791Y2124947D01*
X17929014Y2101873D01*
X17933221Y2095048D01*
X17939160Y2084266D01*
X17954575Y2052731D01*
X17963101Y2044822D01*
X17965134Y2042084D01*
X17967428Y2039554D01*
X17973532Y2029652D01*
X17982788Y2022613D01*
X17982793Y2022608D01*
X18001487Y2008393D01*
X18010908Y2000474D01*
X18036646Y1976599D01*
X18047447Y1972290D01*
X18050324Y1970471D01*
X18053381Y1968934D01*
X18062641Y1961892D01*
X18083348Y1955896D01*
X18096367Y1952126D01*
X18108008Y1948129D01*
X18140622Y1935117D01*
X18146915Y1934500D01*
X18149997Y1934500D01*
X18153067Y1934350D01*
X18153061Y1934234D01*
X18159183Y1933935D01*
X18170168Y1930754D01*
X18207994Y1934030D01*
X18218866Y1934500D01*
X26747626Y1934500D01*
X26759183Y1933935D01*
X26770168Y1930754D01*
X26807994Y1934030D01*
X26818866Y1934500D01*
X26827948Y1934500D01*
X26833649Y1935562D01*
X26833651Y1935562D01*
X26834521Y1935724D01*
X26846720Y1937384D01*
X26870105Y1939409D01*
X26870106Y1939409D01*
X26881696Y1940413D01*
X26892145Y1945520D01*
X26895433Y1946432D01*
X26898617Y1947661D01*
X26910053Y1949791D01*
X26939952Y1968221D01*
X26950734Y1974160D01*
X26971819Y1984467D01*
X26982269Y1989575D01*
X26990178Y1998101D01*
X26992916Y2000134D01*
X26995446Y2002428D01*
X27005348Y2008532D01*
X27012387Y2017788D01*
X27012392Y2017793D01*
X27026607Y2036487D01*
X27034526Y2045908D01*
X27050490Y2063118D01*
X27058401Y2071646D01*
X27062710Y2082447D01*
X27064529Y2085324D01*
X27066066Y2088381D01*
X27073108Y2097641D01*
X27082874Y2131368D01*
X27086873Y2143014D01*
X27099883Y2175622D01*
X27100500Y2181915D01*
X27100500Y2184997D01*
X27100650Y2188067D01*
X27100766Y2188061D01*
X27101065Y2194183D01*
X27104246Y2205168D01*
X27100970Y2242994D01*
X27100500Y2253866D01*
X27100500Y4038500D01*
X27120502Y4106621D01*
X27174158Y4153114D01*
X27226500Y4164500D01*
X28564820Y4164500D01*
X28608722Y4173233D01*
X28619040Y4180127D01*
X28619042Y4180128D01*
X28648185Y4199601D01*
X28658504Y4206496D01*
X28665399Y4216815D01*
X28684872Y4245958D01*
X28684873Y4245960D01*
X28691767Y4256278D01*
X28700500Y4300180D01*
X28700500Y5729820D01*
X28691767Y5773722D01*
X28684873Y5784040D01*
X28684872Y5784042D01*
X28665399Y5813185D01*
X28658504Y5823504D01*
X28648185Y5830399D01*
X28619042Y5849872D01*
X28619040Y5849873D01*
X28608722Y5856767D01*
X28564820Y5865500D01*
X28405398Y5865500D01*
X28337277Y5885502D01*
X28290784Y5939158D01*
X28280680Y6009432D01*
X28310174Y6074012D01*
X28331337Y6093436D01*
X28361991Y6115707D01*
X28422230Y6159474D01*
X28495649Y6241013D01*
X28537440Y6287427D01*
X28537441Y6287428D01*
X28541859Y6292335D01*
X28631250Y6447165D01*
X28686497Y6617197D01*
X28688073Y6632186D01*
X28704495Y6788435D01*
X28705185Y6795000D01*
X28697919Y6864127D01*
X28687187Y6966239D01*
X28687187Y6966240D01*
X28686497Y6972803D01*
X28631250Y7142835D01*
X28541859Y7297665D01*
X28478617Y7367902D01*
X28447900Y7431910D01*
X28456663Y7502363D01*
X28482054Y7533468D01*
X28479937Y7535160D01*
X28499623Y7559788D01*
X28492554Y7573236D01*
X27579885Y8485905D01*
X27545859Y8548217D01*
X27547694Y8573868D01*
X28214408Y8573868D01*
X28214539Y8572035D01*
X28218790Y8565420D01*
X28852486Y7931724D01*
X28864261Y7925294D01*
X28876276Y7934590D01*
X28897001Y7964189D01*
X28902479Y7973677D01*
X28987159Y8155277D01*
X28990907Y8165571D01*
X29042769Y8359122D01*
X29044671Y8369909D01*
X29062135Y8569525D01*
X29062135Y8580475D01*
X29044671Y8780091D01*
X29042769Y8790878D01*
X28990907Y8984429D01*
X28987159Y8994723D01*
X28902479Y9176323D01*
X28897001Y9185811D01*
X28875689Y9216248D01*
X28865212Y9224623D01*
X28851764Y9217554D01*
X28222022Y8587812D01*
X28214408Y8573868D01*
X27547694Y8573868D01*
X27550924Y8619032D01*
X27579885Y8664095D01*
X28493276Y9577486D01*
X28499706Y9589261D01*
X28478701Y9616411D01*
X28481065Y9618240D01*
X28455651Y9650038D01*
X28448346Y9720658D01*
X28478617Y9782098D01*
X28537440Y9847427D01*
X28537441Y9847428D01*
X28541859Y9852335D01*
X28600843Y9954498D01*
X28627946Y10001442D01*
X28627947Y10001443D01*
X28631250Y10007165D01*
X28686497Y10177197D01*
X28697127Y10278329D01*
X28704495Y10348435D01*
X28705185Y10355000D01*
X28697762Y10425623D01*
X28687187Y10526239D01*
X28687187Y10526240D01*
X28686497Y10532803D01*
X28631250Y10702835D01*
X28541859Y10857665D01*
X28488028Y10917450D01*
X28426645Y10985623D01*
X28426643Y10985624D01*
X28422230Y10990526D01*
X28359633Y11036006D01*
X28282935Y11091731D01*
X28282933Y11091732D01*
X28277593Y11095612D01*
X28271567Y11098295D01*
X28271560Y11098299D01*
X28200597Y11129893D01*
X28146501Y11175873D01*
X28125851Y11243800D01*
X28145203Y11312108D01*
X28200597Y11360107D01*
X28271560Y11391701D01*
X28271567Y11391705D01*
X28277593Y11394388D01*
X28316703Y11422803D01*
X28416891Y11495595D01*
X28422230Y11499474D01*
X28427834Y11505697D01*
X28537440Y11627427D01*
X28537441Y11627428D01*
X28541859Y11632335D01*
X28593889Y11722454D01*
X28627946Y11781442D01*
X28627947Y11781443D01*
X28631250Y11787165D01*
X28686497Y11957197D01*
X28697127Y12058329D01*
X28704495Y12128435D01*
X28705185Y12135000D01*
X28698132Y12202108D01*
X28687187Y12306239D01*
X28687187Y12306240D01*
X28686497Y12312803D01*
X28683858Y12320927D01*
X28635259Y12470496D01*
X28631250Y12482835D01*
X28617550Y12506565D01*
X28545162Y12631944D01*
X28541859Y12637665D01*
X28469279Y12718273D01*
X28426645Y12765623D01*
X28426643Y12765624D01*
X28422230Y12770526D01*
X28338540Y12831331D01*
X28282935Y12871731D01*
X28282933Y12871732D01*
X28277593Y12875612D01*
X28271567Y12878295D01*
X28271560Y12878299D01*
X28200597Y12909893D01*
X28146501Y12955873D01*
X28125851Y13023800D01*
X28145203Y13092108D01*
X28200597Y13140107D01*
X28271560Y13171701D01*
X28271567Y13171705D01*
X28277593Y13174388D01*
X28287648Y13181693D01*
X28416891Y13275595D01*
X28422230Y13279474D01*
X28427834Y13285697D01*
X28537440Y13407427D01*
X28537441Y13407428D01*
X28541859Y13412335D01*
X28631250Y13567165D01*
X28686497Y13737197D01*
X28691526Y13785039D01*
X28704495Y13908435D01*
X28705185Y13915000D01*
X28697919Y13984127D01*
X28687187Y14086239D01*
X28687187Y14086240D01*
X28686497Y14092803D01*
X28631250Y14262835D01*
X28608999Y14301376D01*
X28545162Y14411944D01*
X28541859Y14417665D01*
X28500634Y14463450D01*
X28426645Y14545623D01*
X28426643Y14545624D01*
X28422230Y14550526D01*
X28392942Y14571805D01*
X28282935Y14651731D01*
X28282933Y14651732D01*
X28277593Y14655612D01*
X28271567Y14658295D01*
X28271560Y14658299D01*
X28200597Y14689893D01*
X28146501Y14735873D01*
X28125851Y14803800D01*
X28145203Y14872108D01*
X28200597Y14920107D01*
X28271560Y14951701D01*
X28271567Y14951705D01*
X28277593Y14954388D01*
X28316703Y14982803D01*
X28416891Y15055595D01*
X28422230Y15059474D01*
X28427834Y15065697D01*
X28537440Y15187427D01*
X28537441Y15187428D01*
X28541859Y15192335D01*
X28631250Y15347165D01*
X28671646Y15471490D01*
X28684457Y15510918D01*
X28684457Y15510920D01*
X28686497Y15517197D01*
X28695148Y15599500D01*
X28704495Y15688435D01*
X28705185Y15695000D01*
X28698132Y15762108D01*
X28687187Y15866239D01*
X28687187Y15866240D01*
X28686497Y15872803D01*
X28683134Y15883155D01*
X28633292Y16036550D01*
X28631250Y16042835D01*
X28620658Y16061182D01*
X28545162Y16191944D01*
X28541859Y16197665D01*
X28478617Y16267902D01*
X28447900Y16331910D01*
X28456663Y16402363D01*
X28482054Y16433468D01*
X28479937Y16435160D01*
X28499623Y16459788D01*
X28492554Y16473236D01*
X27579885Y17385905D01*
X27545859Y17448217D01*
X27547694Y17473868D01*
X28214408Y17473868D01*
X28214539Y17472035D01*
X28218790Y17465420D01*
X28852486Y16831724D01*
X28864261Y16825294D01*
X28876276Y16834590D01*
X28897001Y16864189D01*
X28902479Y16873677D01*
X28987159Y17055277D01*
X28990907Y17065571D01*
X29042769Y17259122D01*
X29044671Y17269909D01*
X29062135Y17469525D01*
X29062135Y17480475D01*
X29044671Y17680091D01*
X29042769Y17690878D01*
X28990907Y17884429D01*
X28987159Y17894723D01*
X28902479Y18076323D01*
X28897001Y18085811D01*
X28875689Y18116248D01*
X28865212Y18124623D01*
X28851764Y18117554D01*
X28222022Y17487812D01*
X28214408Y17473868D01*
X27547694Y17473868D01*
X27550924Y17519032D01*
X27579885Y17564095D01*
X28493276Y18477486D01*
X28499706Y18489261D01*
X28490410Y18501276D01*
X28460811Y18522001D01*
X28451323Y18527479D01*
X28269723Y18612159D01*
X28259429Y18615907D01*
X28065878Y18667769D01*
X28055091Y18669671D01*
X27855475Y18687135D01*
X27844525Y18687135D01*
X27644909Y18669671D01*
X27634122Y18667769D01*
X27440571Y18615907D01*
X27430277Y18612159D01*
X27279749Y18541968D01*
X27209558Y18531307D01*
X27144745Y18560287D01*
X27105889Y18619707D01*
X27100500Y18656163D01*
X27100500Y19442626D01*
X27101065Y19454183D01*
X27104246Y19465168D01*
X27100970Y19502994D01*
X27100500Y19513866D01*
X27100500Y19522948D01*
X27099276Y19529521D01*
X27097616Y19541720D01*
X27095763Y19563118D01*
X27109813Y19632711D01*
X27159258Y19683660D01*
X27221293Y19699989D01*
X27685946Y19699989D01*
X27710528Y19697568D01*
X27725489Y19694592D01*
X27752621Y19699989D01*
X27752622Y19699989D01*
X27832984Y19715974D01*
X27888997Y19753401D01*
X27901109Y19761494D01*
X27903676Y19757653D01*
X27903679Y19757655D01*
X27901112Y19761496D01*
X27913800Y19769974D01*
X27924113Y19776865D01*
X27932593Y19789555D01*
X27948260Y19808644D01*
X28416844Y20277228D01*
X28435936Y20292898D01*
X28438311Y20294485D01*
X28448624Y20301376D01*
X28466448Y20328050D01*
X28509516Y20392506D01*
X28511361Y20391273D01*
X28545676Y20433852D01*
X28613041Y20456269D01*
X28681831Y20438707D01*
X28706626Y20419444D01*
X31599844Y17526226D01*
X31633870Y17463914D01*
X31628805Y17393099D01*
X31586258Y17336263D01*
X31567954Y17324865D01*
X31557456Y17319516D01*
X31557454Y17319515D01*
X31548623Y17315015D01*
X31458915Y17225307D01*
X31401319Y17112269D01*
X31399769Y17102480D01*
X31399768Y17102478D01*
X31397422Y17087665D01*
X31381473Y16986965D01*
X31383024Y16977172D01*
X31399364Y16874007D01*
X31401319Y16861661D01*
X31458915Y16748623D01*
X31548623Y16658915D01*
X31661661Y16601319D01*
X31671450Y16599769D01*
X31671452Y16599768D01*
X31777172Y16583024D01*
X31786965Y16581473D01*
X31796758Y16583024D01*
X31902478Y16599768D01*
X31902480Y16599769D01*
X31912269Y16601319D01*
X32025307Y16658915D01*
X32115015Y16748623D01*
X32124865Y16767954D01*
X32173614Y16819568D01*
X32242529Y16836633D01*
X32309730Y16813731D01*
X32326226Y16799844D01*
X34792914Y14333156D01*
X34808584Y14314064D01*
X34817062Y14301376D01*
X34827375Y14294485D01*
X34840063Y14286007D01*
X34840064Y14286006D01*
X34884148Y14256550D01*
X34908192Y14240484D01*
X35015686Y14219103D01*
X35030648Y14222079D01*
X35055228Y14224500D01*
X35382418Y14224500D01*
X35450539Y14204498D01*
X35471513Y14187595D01*
X35487158Y14171950D01*
X35600196Y14114354D01*
X35599206Y14112412D01*
X35646958Y14079759D01*
X35674595Y14014362D01*
X35662488Y13944405D01*
X35614481Y13892100D01*
X35600432Y13885683D01*
X35600196Y13885646D01*
X35487158Y13828050D01*
X35397450Y13738342D01*
X35339854Y13625304D01*
X35338304Y13615515D01*
X35338303Y13615513D01*
X35321936Y13512172D01*
X35320008Y13500000D01*
X35321559Y13490207D01*
X35333893Y13412335D01*
X35339854Y13374696D01*
X35397450Y13261658D01*
X35413095Y13246013D01*
X35447121Y13183701D01*
X35450000Y13156918D01*
X35450000Y11814043D01*
X35447579Y11789461D01*
X35444603Y11774500D01*
X35450000Y11747368D01*
X35450000Y11747367D01*
X35465985Y11667005D01*
X35526876Y11575876D01*
X35537192Y11568983D01*
X35537193Y11568982D01*
X35539564Y11567398D01*
X35558656Y11551728D01*
X36687595Y10422789D01*
X36721621Y10360477D01*
X36724500Y10333694D01*
X36724500Y9093082D01*
X36704498Y9024961D01*
X36687595Y9003987D01*
X36671950Y8988342D01*
X36614354Y8875304D01*
X36612803Y8865513D01*
X36610023Y8856956D01*
X36569950Y8798350D01*
X36553250Y8786814D01*
X36547270Y8784151D01*
X36541929Y8780271D01*
X36541928Y8780270D01*
X36449791Y8713329D01*
X36394129Y8672888D01*
X36389716Y8667986D01*
X36389714Y8667985D01*
X36303320Y8572035D01*
X36267467Y8532216D01*
X36264164Y8526495D01*
X36203679Y8421731D01*
X36172821Y8368284D01*
X36114326Y8188256D01*
X36113636Y8181695D01*
X36113636Y8181693D01*
X36097991Y8032835D01*
X36094540Y8000000D01*
X36095230Y7993435D01*
X36109650Y7856239D01*
X36114326Y7811744D01*
X36172821Y7631716D01*
X36176124Y7625994D01*
X36176125Y7625993D01*
X36229544Y7533468D01*
X36267467Y7467784D01*
X36394129Y7327112D01*
X36547270Y7215849D01*
X36720197Y7138856D01*
X36818212Y7118022D01*
X36898897Y7100872D01*
X36898901Y7100872D01*
X36905354Y7099500D01*
X37094646Y7099500D01*
X37101099Y7100872D01*
X37101103Y7100872D01*
X37181788Y7118022D01*
X37279803Y7138856D01*
X37452730Y7215849D01*
X37605871Y7327112D01*
X37732533Y7467784D01*
X37770456Y7533468D01*
X37823875Y7625993D01*
X37823876Y7625994D01*
X37827179Y7631716D01*
X37885674Y7811744D01*
X37890351Y7856239D01*
X37904770Y7993435D01*
X37905460Y8000000D01*
X37902009Y8032835D01*
X37886364Y8181693D01*
X37886364Y8181695D01*
X37885674Y8188256D01*
X37827179Y8368284D01*
X37796322Y8421731D01*
X37735836Y8526495D01*
X37732533Y8532216D01*
X37696680Y8572035D01*
X37610286Y8667985D01*
X37610284Y8667986D01*
X37605871Y8672888D01*
X37550209Y8713329D01*
X37458072Y8780270D01*
X37458071Y8780271D01*
X37452730Y8784151D01*
X37446785Y8786798D01*
X37397817Y8838155D01*
X37389977Y8856956D01*
X37387197Y8865513D01*
X37385646Y8875304D01*
X37328050Y8988342D01*
X37312405Y9003987D01*
X37278379Y9066299D01*
X37275500Y9093082D01*
X37275500Y10280694D01*
X37295502Y10348815D01*
X37349158Y10395308D01*
X37419432Y10405412D01*
X37484012Y10375918D01*
X37490595Y10369789D01*
X38301729Y9558655D01*
X38317396Y9539566D01*
X38325876Y9526876D01*
X38336189Y9519985D01*
X38348877Y9511507D01*
X38347288Y9509130D01*
X38347290Y9509129D01*
X38348878Y9511506D01*
X38375032Y9494031D01*
X38375034Y9494028D01*
X38375035Y9494029D01*
X38417005Y9465985D01*
X38429174Y9463564D01*
X38429175Y9463564D01*
X38497367Y9450000D01*
X38512328Y9447024D01*
X38512329Y9447024D01*
X38524500Y9444603D01*
X38536671Y9447024D01*
X38536673Y9447024D01*
X38539463Y9447579D01*
X38564043Y9450000D01*
X39280694Y9450000D01*
X39348815Y9429998D01*
X39395308Y9376342D01*
X39405412Y9306068D01*
X39375918Y9241488D01*
X39369789Y9234905D01*
X39083156Y8948272D01*
X39064064Y8932602D01*
X39051376Y8924124D01*
X39044485Y8913811D01*
X39036007Y8901123D01*
X39036006Y8901122D01*
X39018755Y8875304D01*
X39000868Y8848535D01*
X39000868Y8848534D01*
X38990485Y8832995D01*
X38990485Y8832994D01*
X38969103Y8725500D01*
X38971524Y8713329D01*
X38972079Y8710539D01*
X38974500Y8685957D01*
X38974500Y6916306D01*
X38954498Y6848185D01*
X38937595Y6827211D01*
X38548289Y6437905D01*
X38485977Y6403879D01*
X38459194Y6401000D01*
X36093082Y6401000D01*
X36024961Y6421002D01*
X36003987Y6437905D01*
X35988342Y6453550D01*
X35875304Y6511146D01*
X35865515Y6512696D01*
X35865513Y6512697D01*
X35759793Y6529441D01*
X35750000Y6530992D01*
X35740207Y6529441D01*
X35634487Y6512697D01*
X35634485Y6512696D01*
X35624696Y6511146D01*
X35511658Y6453550D01*
X35421950Y6363842D01*
X35364354Y6250804D01*
X35362804Y6241015D01*
X35362803Y6241013D01*
X35346059Y6135293D01*
X35344508Y6125500D01*
X35364354Y6000196D01*
X35421950Y5887158D01*
X35511658Y5797450D01*
X35624696Y5739854D01*
X35634485Y5738304D01*
X35634487Y5738303D01*
X35740207Y5721559D01*
X35750000Y5720008D01*
X35759793Y5721559D01*
X35865513Y5738303D01*
X35865515Y5738304D01*
X35875304Y5739854D01*
X35988342Y5797450D01*
X36003987Y5813095D01*
X36066299Y5847121D01*
X36093082Y5850000D01*
X38585957Y5850000D01*
X38610539Y5847579D01*
X38625500Y5844603D01*
X38652632Y5850000D01*
X38652633Y5850000D01*
X38732995Y5865985D01*
X38791401Y5905011D01*
X38801122Y5911506D01*
X38802592Y5909306D01*
X38802594Y5909306D01*
X38801123Y5911507D01*
X38813811Y5919985D01*
X38824124Y5926876D01*
X38832602Y5939564D01*
X38848272Y5958656D01*
X39416844Y6527228D01*
X39435936Y6542898D01*
X39438307Y6544482D01*
X39438308Y6544483D01*
X39448624Y6551376D01*
X39509515Y6642505D01*
X39525500Y6722867D01*
X39525500Y6722871D01*
X39530896Y6750000D01*
X39527921Y6764957D01*
X39525500Y6789537D01*
X39525500Y8559194D01*
X39545502Y8627315D01*
X39562405Y8648289D01*
X40202186Y9288070D01*
X40271570Y9323424D01*
X40365513Y9338303D01*
X40365515Y9338304D01*
X40375304Y9339854D01*
X40488342Y9397450D01*
X40578050Y9487158D01*
X40635646Y9600196D01*
X40647415Y9674500D01*
X40653941Y9715707D01*
X40655492Y9725500D01*
X40653941Y9735294D01*
X40639133Y9828790D01*
X40648233Y9899201D01*
X40693955Y9953515D01*
X40763582Y9974500D01*
X40833694Y9974500D01*
X40901815Y9954498D01*
X40922789Y9937595D01*
X41944733Y8915651D01*
X41978759Y8853339D01*
X41975472Y8787622D01*
X41938092Y8672576D01*
X41937402Y8666009D01*
X41920783Y8507892D01*
X41919953Y8500000D01*
X41938092Y8327424D01*
X41991714Y8162389D01*
X42078478Y8012111D01*
X42194590Y7883155D01*
X42334976Y7781158D01*
X42341004Y7778474D01*
X42341006Y7778473D01*
X42487470Y7713263D01*
X42493501Y7710578D01*
X42578368Y7692539D01*
X42656779Y7675872D01*
X42656783Y7675872D01*
X42663236Y7674500D01*
X42836764Y7674500D01*
X42843217Y7675872D01*
X42843221Y7675872D01*
X42921631Y7692539D01*
X43006499Y7710578D01*
X43012530Y7713263D01*
X43158994Y7778473D01*
X43158996Y7778474D01*
X43165024Y7781158D01*
X43305410Y7883155D01*
X43421522Y8012111D01*
X43508286Y8162389D01*
X43561908Y8327424D01*
X43580047Y8500000D01*
X43579218Y8507892D01*
X43562598Y8666009D01*
X43561908Y8672576D01*
X43557561Y8685957D01*
X43513990Y8820055D01*
X43508286Y8837611D01*
X43421522Y8987889D01*
X43305410Y9116845D01*
X43165024Y9218842D01*
X43158996Y9221526D01*
X43158994Y9221527D01*
X43012530Y9286737D01*
X43012529Y9286737D01*
X43006499Y9289422D01*
X42921631Y9307461D01*
X42843221Y9324128D01*
X42843217Y9324128D01*
X42836764Y9325500D01*
X42663236Y9325500D01*
X42656783Y9324128D01*
X42656779Y9324128D01*
X42499959Y9290795D01*
X42499956Y9290794D01*
X42493501Y9289422D01*
X42473453Y9280496D01*
X42403088Y9271060D01*
X42338791Y9301166D01*
X42333109Y9306507D01*
X41222772Y10416844D01*
X41207102Y10435936D01*
X41205515Y10438311D01*
X41198624Y10448624D01*
X41175623Y10463993D01*
X41175621Y10463995D01*
X41139183Y10488342D01*
X41139182Y10488342D01*
X41121735Y10500000D01*
X41919953Y10500000D01*
X41938092Y10327424D01*
X41940132Y10321145D01*
X41940133Y10321141D01*
X41964193Y10247092D01*
X41991714Y10162389D01*
X42078478Y10012111D01*
X42194590Y9883155D01*
X42334976Y9781158D01*
X42341004Y9778474D01*
X42341006Y9778473D01*
X42470861Y9720658D01*
X42493501Y9710578D01*
X42565130Y9695353D01*
X42656779Y9675872D01*
X42656783Y9675872D01*
X42663236Y9674500D01*
X42836764Y9674500D01*
X42843217Y9675872D01*
X42843221Y9675872D01*
X42934870Y9695353D01*
X43006499Y9710578D01*
X43029139Y9720658D01*
X43158994Y9778473D01*
X43158996Y9778474D01*
X43165024Y9781158D01*
X43305410Y9883155D01*
X43421522Y10012111D01*
X43508286Y10162389D01*
X43535807Y10247092D01*
X43559867Y10321141D01*
X43559868Y10321145D01*
X43561908Y10327424D01*
X43580047Y10500000D01*
X43561908Y10672576D01*
X43552077Y10702835D01*
X43535807Y10752908D01*
X43508286Y10837611D01*
X43421522Y10987889D01*
X43355767Y11060918D01*
X43309832Y11111934D01*
X43309831Y11111935D01*
X43305410Y11116845D01*
X43165024Y11218842D01*
X43158996Y11221526D01*
X43158994Y11221527D01*
X43012530Y11286737D01*
X43012529Y11286737D01*
X43006499Y11289422D01*
X42921631Y11307461D01*
X42843221Y11324128D01*
X42843217Y11324128D01*
X42836764Y11325500D01*
X42663236Y11325500D01*
X42656783Y11324128D01*
X42656779Y11324128D01*
X42578369Y11307461D01*
X42493501Y11289422D01*
X42487472Y11286738D01*
X42487470Y11286737D01*
X42341007Y11221527D01*
X42341005Y11221526D01*
X42334977Y11218842D01*
X42329636Y11214962D01*
X42329635Y11214961D01*
X42265452Y11168329D01*
X42194590Y11116845D01*
X42190169Y11111935D01*
X42190168Y11111934D01*
X42144233Y11060918D01*
X42078478Y10987889D01*
X41991714Y10837611D01*
X41964193Y10752908D01*
X41947924Y10702835D01*
X41938092Y10672576D01*
X41919953Y10500000D01*
X41121735Y10500000D01*
X41107495Y10509515D01*
X41095326Y10511936D01*
X41095325Y10511936D01*
X41027133Y10525500D01*
X41012172Y10528476D01*
X41012171Y10528476D01*
X41000000Y10530897D01*
X40987829Y10528476D01*
X40985039Y10527921D01*
X40960457Y10525500D01*
X39093082Y10525500D01*
X39024961Y10545502D01*
X39003987Y10562405D01*
X38988342Y10578050D01*
X38875304Y10635646D01*
X38876294Y10637588D01*
X38828542Y10670241D01*
X38800905Y10735638D01*
X38813012Y10805595D01*
X38861019Y10857900D01*
X38875068Y10864317D01*
X38875304Y10864354D01*
X38988342Y10921950D01*
X39003987Y10937595D01*
X39066299Y10971621D01*
X39093082Y10974500D01*
X41460457Y10974500D01*
X41485039Y10972079D01*
X41500000Y10969103D01*
X41527132Y10974500D01*
X41527133Y10974500D01*
X41607495Y10990485D01*
X41665901Y11029511D01*
X41675622Y11036006D01*
X41677092Y11033806D01*
X41677094Y11033806D01*
X41675623Y11036007D01*
X41688311Y11044485D01*
X41698624Y11051376D01*
X41707102Y11064064D01*
X41722772Y11083156D01*
X42333109Y11693493D01*
X42395421Y11727519D01*
X42466236Y11722454D01*
X42473443Y11719508D01*
X42481316Y11716003D01*
X42487465Y11713265D01*
X42487468Y11713264D01*
X42493501Y11710578D01*
X42499962Y11709205D01*
X42499961Y11709205D01*
X42656779Y11675872D01*
X42656783Y11675872D01*
X42663236Y11674500D01*
X42836764Y11674500D01*
X42843217Y11675872D01*
X42843221Y11675872D01*
X42926120Y11693493D01*
X43006499Y11710578D01*
X43055000Y11732172D01*
X43158994Y11778473D01*
X43158996Y11778474D01*
X43165024Y11781158D01*
X43181943Y11793450D01*
X43293226Y11874303D01*
X43305410Y11883155D01*
X43421522Y12012111D01*
X43508286Y12162389D01*
X43555025Y12306239D01*
X43559867Y12321141D01*
X43559869Y12321150D01*
X43561908Y12327424D01*
X43580047Y12500000D01*
X43561908Y12672576D01*
X43547061Y12718273D01*
X43527230Y12779307D01*
X43508286Y12837611D01*
X43421522Y12987889D01*
X43355417Y13061306D01*
X43309832Y13111934D01*
X43309831Y13111935D01*
X43305410Y13116845D01*
X43183367Y13205515D01*
X43170366Y13214961D01*
X43170365Y13214962D01*
X43165024Y13218842D01*
X43158996Y13221526D01*
X43158994Y13221527D01*
X43012530Y13286737D01*
X43012529Y13286737D01*
X43006499Y13289422D01*
X42921632Y13307461D01*
X42843221Y13324128D01*
X42843217Y13324128D01*
X42836764Y13325500D01*
X42663236Y13325500D01*
X42656783Y13324128D01*
X42656779Y13324128D01*
X42578368Y13307461D01*
X42493501Y13289422D01*
X42487472Y13286738D01*
X42487470Y13286737D01*
X42341007Y13221527D01*
X42341005Y13221526D01*
X42334977Y13218842D01*
X42329636Y13214962D01*
X42329635Y13214961D01*
X42241990Y13151283D01*
X42194590Y13116845D01*
X42190169Y13111935D01*
X42190168Y13111934D01*
X42144583Y13061306D01*
X42078478Y12987889D01*
X41991714Y12837611D01*
X41972770Y12779307D01*
X41952940Y12718273D01*
X41938092Y12672576D01*
X41919953Y12500000D01*
X41938092Y12327424D01*
X41975217Y12213163D01*
X41975472Y12212379D01*
X41977498Y12141411D01*
X41944733Y12084349D01*
X41422789Y11562405D01*
X41360477Y11528379D01*
X41333694Y11525500D01*
X39093082Y11525500D01*
X39024961Y11545502D01*
X39003987Y11562405D01*
X38988342Y11578050D01*
X38875304Y11635646D01*
X38865515Y11637196D01*
X38865513Y11637197D01*
X38759793Y11653941D01*
X38750000Y11655492D01*
X38740207Y11653941D01*
X38634487Y11637197D01*
X38634485Y11637196D01*
X38624696Y11635646D01*
X38511658Y11578050D01*
X38496013Y11562405D01*
X38433701Y11528379D01*
X38406918Y11525500D01*
X38296318Y11525500D01*
X38228197Y11545502D01*
X38207223Y11562405D01*
X37361444Y12408184D01*
X37327418Y12470496D01*
X37324539Y12497279D01*
X37324539Y14500000D01*
X41919953Y14500000D01*
X41938092Y14327424D01*
X41940132Y14321145D01*
X41940133Y14321141D01*
X41946555Y14301376D01*
X41991714Y14162389D01*
X42078478Y14012111D01*
X42082899Y14007201D01*
X42178973Y13900500D01*
X42194590Y13883155D01*
X42270435Y13828050D01*
X42327160Y13786837D01*
X42334976Y13781158D01*
X42341004Y13778474D01*
X42341006Y13778473D01*
X42450981Y13729509D01*
X42493501Y13710578D01*
X42578368Y13692539D01*
X42656779Y13675872D01*
X42656783Y13675872D01*
X42663236Y13674500D01*
X42836764Y13674500D01*
X42843217Y13675872D01*
X42843221Y13675872D01*
X42921632Y13692539D01*
X43006499Y13710578D01*
X43049019Y13729509D01*
X43158994Y13778473D01*
X43158996Y13778474D01*
X43165024Y13781158D01*
X43172841Y13786837D01*
X43229565Y13828050D01*
X43305410Y13883155D01*
X43321028Y13900500D01*
X43417101Y14007201D01*
X43421522Y14012111D01*
X43508286Y14162389D01*
X43553445Y14301376D01*
X43559867Y14321141D01*
X43559868Y14321145D01*
X43561908Y14327424D01*
X43580047Y14500000D01*
X43561908Y14672576D01*
X43556282Y14689893D01*
X43527531Y14778379D01*
X43508286Y14837611D01*
X43421522Y14987889D01*
X43351464Y15065697D01*
X43309832Y15111934D01*
X43309831Y15111935D01*
X43305410Y15116845D01*
X43193633Y15198056D01*
X43170366Y15214961D01*
X43170365Y15214962D01*
X43165024Y15218842D01*
X43158996Y15221526D01*
X43158994Y15221527D01*
X43012530Y15286737D01*
X43012529Y15286737D01*
X43006499Y15289422D01*
X42920672Y15307665D01*
X42843221Y15324128D01*
X42843217Y15324128D01*
X42836764Y15325500D01*
X42663236Y15325500D01*
X42656783Y15324128D01*
X42656779Y15324128D01*
X42579328Y15307665D01*
X42493501Y15289422D01*
X42487472Y15286738D01*
X42487470Y15286737D01*
X42341007Y15221527D01*
X42341005Y15221526D01*
X42334977Y15218842D01*
X42329636Y15214962D01*
X42329635Y15214961D01*
X42319818Y15207828D01*
X42194590Y15116845D01*
X42190169Y15111935D01*
X42190168Y15111934D01*
X42148536Y15065697D01*
X42078478Y14987889D01*
X41991714Y14837611D01*
X41972469Y14778379D01*
X41943719Y14689893D01*
X41938092Y14672576D01*
X41919953Y14500000D01*
X37324539Y14500000D01*
X37324539Y15226432D01*
X37326960Y15251014D01*
X37327515Y15253804D01*
X37329936Y15265975D01*
X37323480Y15298433D01*
X37308554Y15373470D01*
X37280510Y15415440D01*
X37280511Y15415440D01*
X37280508Y15415443D01*
X37263033Y15441597D01*
X37266874Y15444164D01*
X37266873Y15444165D01*
X37263032Y15441598D01*
X37254554Y15454286D01*
X37247663Y15464599D01*
X37234975Y15473077D01*
X37215883Y15488747D01*
X34924299Y17780331D01*
X41567001Y17780331D01*
X41567371Y17773510D01*
X41572895Y17722648D01*
X41576521Y17707396D01*
X41621676Y17586946D01*
X41630214Y17571351D01*
X41706715Y17469276D01*
X41719276Y17456715D01*
X41821351Y17380214D01*
X41836946Y17371676D01*
X41957394Y17326522D01*
X41972649Y17322895D01*
X42023514Y17317369D01*
X42030328Y17317000D01*
X42091810Y17317000D01*
X42159931Y17296998D01*
X42206424Y17243342D01*
X42216528Y17173068D01*
X42185448Y17106691D01*
X42078478Y16987889D01*
X41991714Y16837611D01*
X41989674Y16831331D01*
X41943187Y16688256D01*
X41938092Y16672576D01*
X41919953Y16500000D01*
X41938092Y16327424D01*
X41940132Y16321145D01*
X41940133Y16321141D01*
X41945226Y16305466D01*
X41991714Y16162389D01*
X42078478Y16012111D01*
X42194590Y15883155D01*
X42334976Y15781158D01*
X42341004Y15778474D01*
X42341006Y15778473D01*
X42472945Y15719730D01*
X42493501Y15710578D01*
X42572436Y15693800D01*
X42656779Y15675872D01*
X42656783Y15675872D01*
X42663236Y15674500D01*
X42836764Y15674500D01*
X42843217Y15675872D01*
X42843221Y15675872D01*
X42927564Y15693800D01*
X43006499Y15710578D01*
X43027055Y15719730D01*
X43158994Y15778473D01*
X43158996Y15778474D01*
X43165024Y15781158D01*
X43305410Y15883155D01*
X43421522Y16012111D01*
X43508286Y16162389D01*
X43554774Y16305466D01*
X43559867Y16321141D01*
X43559868Y16321145D01*
X43561908Y16327424D01*
X43580047Y16500000D01*
X43561908Y16672576D01*
X43556814Y16688256D01*
X43510326Y16831331D01*
X43508286Y16837611D01*
X43421522Y16987889D01*
X43314551Y17106693D01*
X43283835Y17170699D01*
X43292600Y17241152D01*
X43338063Y17295683D01*
X43408189Y17317001D01*
X43469669Y17317001D01*
X43476490Y17317371D01*
X43527352Y17322895D01*
X43542604Y17326521D01*
X43663054Y17371676D01*
X43678649Y17380214D01*
X43780724Y17456715D01*
X43793285Y17469276D01*
X43869786Y17571351D01*
X43878324Y17586946D01*
X43923478Y17707394D01*
X43927105Y17722649D01*
X43932631Y17773514D01*
X43933000Y17780328D01*
X43933000Y18227885D01*
X43928525Y18243124D01*
X43927135Y18244329D01*
X43919452Y18246000D01*
X41585116Y18246000D01*
X41569877Y18241525D01*
X41568672Y18240135D01*
X41567001Y18232452D01*
X41567001Y17780331D01*
X34924299Y17780331D01*
X34047819Y18656811D01*
X34013793Y18719123D01*
X34017583Y18772115D01*
X41567000Y18772115D01*
X41571475Y18756876D01*
X41572865Y18755671D01*
X41580548Y18754000D01*
X42477885Y18754000D01*
X42493124Y18758475D01*
X42494329Y18759865D01*
X42496000Y18767548D01*
X42496000Y18772115D01*
X43004000Y18772115D01*
X43008475Y18756876D01*
X43009865Y18755671D01*
X43017548Y18754000D01*
X43914884Y18754000D01*
X43930123Y18758475D01*
X43931328Y18759865D01*
X43932999Y18767548D01*
X43932999Y19219669D01*
X43932629Y19226490D01*
X43927105Y19277352D01*
X43923479Y19292604D01*
X43875172Y19421462D01*
X43877451Y19422316D01*
X43865074Y19478905D01*
X43889809Y19545453D01*
X43946597Y19588065D01*
X43990504Y19596012D01*
X44000000Y19594508D01*
X44009793Y19596059D01*
X44115513Y19612803D01*
X44115515Y19612804D01*
X44125304Y19614354D01*
X44238342Y19671950D01*
X44328050Y19761658D01*
X44385646Y19874696D01*
X44391507Y19911697D01*
X44403941Y19990207D01*
X44405492Y20000000D01*
X44385646Y20125304D01*
X44328050Y20238342D01*
X44238342Y20328050D01*
X44125304Y20385646D01*
X44115515Y20387196D01*
X44115513Y20387197D01*
X44009793Y20403941D01*
X44000000Y20405492D01*
X43990207Y20403941D01*
X43884487Y20387197D01*
X43884485Y20387196D01*
X43874696Y20385646D01*
X43761658Y20328050D01*
X43671950Y20238342D01*
X43614354Y20125304D01*
X43594508Y20000000D01*
X43596059Y19990207D01*
X43608494Y19911697D01*
X43614354Y19874696D01*
X43618854Y19865865D01*
X43618855Y19865861D01*
X43620236Y19863151D01*
X43620921Y19859504D01*
X43621920Y19856429D01*
X43621522Y19856300D01*
X43633338Y19793374D01*
X43606635Y19727590D01*
X43548607Y19686686D01*
X43494357Y19680689D01*
X43476481Y19682631D01*
X43469672Y19683000D01*
X43022115Y19683000D01*
X43006876Y19678525D01*
X43005671Y19677135D01*
X43004000Y19669452D01*
X43004000Y18772115D01*
X42496000Y18772115D01*
X42496000Y19664884D01*
X42491525Y19680123D01*
X42490135Y19681328D01*
X42482452Y19682999D01*
X42030331Y19682999D01*
X42023510Y19682629D01*
X41972648Y19677105D01*
X41957396Y19673479D01*
X41836946Y19628324D01*
X41821351Y19619786D01*
X41719276Y19543285D01*
X41706715Y19530724D01*
X41630214Y19428649D01*
X41621676Y19413054D01*
X41576522Y19292606D01*
X41572895Y19277351D01*
X41567369Y19226486D01*
X41567000Y19219672D01*
X41567000Y18772115D01*
X34017583Y18772115D01*
X34018858Y18789938D01*
X34024647Y18803108D01*
X34031144Y18815860D01*
X34031144Y18815861D01*
X34035646Y18824696D01*
X34045036Y18883979D01*
X34053941Y18940207D01*
X34055492Y18950000D01*
X34047490Y19000526D01*
X34037197Y19065513D01*
X34037196Y19065515D01*
X34035646Y19075304D01*
X33978050Y19188342D01*
X33888342Y19278050D01*
X33775304Y19335646D01*
X33765515Y19337196D01*
X33765513Y19337197D01*
X33659793Y19353941D01*
X33650000Y19355492D01*
X33640207Y19353941D01*
X33534487Y19337197D01*
X33534485Y19337196D01*
X33524696Y19335646D01*
X33411658Y19278050D01*
X33321950Y19188342D01*
X33317449Y19179509D01*
X33317448Y19179507D01*
X33275338Y19096861D01*
X33226590Y19045245D01*
X33157675Y19028179D01*
X33090474Y19051079D01*
X33073976Y19064968D01*
X29388944Y22750000D01*
X43594508Y22750000D01*
X43596059Y22740207D01*
X43612620Y22635646D01*
X43614354Y22624696D01*
X43671950Y22511658D01*
X43761658Y22421950D01*
X43874696Y22364354D01*
X43884485Y22362804D01*
X43884487Y22362803D01*
X43990207Y22346059D01*
X44000000Y22344508D01*
X44009793Y22346059D01*
X44115513Y22362803D01*
X44115515Y22362804D01*
X44125304Y22364354D01*
X44238342Y22421950D01*
X44328050Y22511658D01*
X44385646Y22624696D01*
X44387381Y22635646D01*
X44403941Y22740207D01*
X44405492Y22750000D01*
X44389515Y22850876D01*
X44387197Y22865513D01*
X44387196Y22865515D01*
X44385646Y22875304D01*
X44328050Y22988342D01*
X44238342Y23078050D01*
X44125304Y23135646D01*
X44115515Y23137196D01*
X44115513Y23137197D01*
X44009793Y23153941D01*
X44000000Y23155492D01*
X43990207Y23153941D01*
X43884487Y23137197D01*
X43884485Y23137196D01*
X43874696Y23135646D01*
X43761658Y23078050D01*
X43671950Y22988342D01*
X43614354Y22875304D01*
X43612804Y22865515D01*
X43612803Y22865513D01*
X43610485Y22850876D01*
X43594508Y22750000D01*
X29388944Y22750000D01*
X28888944Y23250000D01*
X30844508Y23250000D01*
X30846059Y23240207D01*
X30862620Y23135646D01*
X30864354Y23124696D01*
X30921950Y23011658D01*
X31011658Y22921950D01*
X31124696Y22864354D01*
X31134485Y22862804D01*
X31134487Y22862803D01*
X31240207Y22846059D01*
X31250000Y22844508D01*
X31259793Y22846059D01*
X31365513Y22862803D01*
X31365515Y22862804D01*
X31375304Y22864354D01*
X31488342Y22921950D01*
X31578050Y23011658D01*
X31635646Y23124696D01*
X31637381Y23135646D01*
X31653941Y23240207D01*
X31655492Y23250000D01*
X31649266Y23289311D01*
X31637197Y23365513D01*
X31637196Y23365515D01*
X31635646Y23375304D01*
X31578050Y23488342D01*
X31488342Y23578050D01*
X31375304Y23635646D01*
X31376294Y23637588D01*
X31328542Y23670241D01*
X31300905Y23735638D01*
X31313012Y23805595D01*
X31361019Y23857900D01*
X31375068Y23864317D01*
X31375304Y23864354D01*
X31488342Y23921950D01*
X31578050Y24011658D01*
X31635646Y24124696D01*
X31642418Y24167450D01*
X31653941Y24240207D01*
X31655492Y24250000D01*
X31650997Y24278379D01*
X31637197Y24365513D01*
X31637196Y24365515D01*
X31635646Y24375304D01*
X31578050Y24488342D01*
X31488342Y24578050D01*
X31375304Y24635646D01*
X31365515Y24637196D01*
X31365513Y24637197D01*
X31259793Y24653941D01*
X31250000Y24655492D01*
X31240207Y24653941D01*
X31134487Y24637197D01*
X31134485Y24637196D01*
X31124696Y24635646D01*
X31011658Y24578050D01*
X30921950Y24488342D01*
X30864354Y24375304D01*
X30862804Y24365515D01*
X30862803Y24365513D01*
X30849003Y24278379D01*
X30844508Y24250000D01*
X30846059Y24240207D01*
X30857583Y24167450D01*
X30864354Y24124696D01*
X30921950Y24011658D01*
X31011658Y23921950D01*
X31095685Y23879136D01*
X31124696Y23864354D01*
X31123706Y23862412D01*
X31171458Y23829759D01*
X31199095Y23764362D01*
X31186988Y23694405D01*
X31138981Y23642100D01*
X31124932Y23635683D01*
X31124696Y23635646D01*
X31011658Y23578050D01*
X30921950Y23488342D01*
X30864354Y23375304D01*
X30862804Y23365515D01*
X30862803Y23365513D01*
X30850734Y23289311D01*
X30844508Y23250000D01*
X28888944Y23250000D01*
X27247402Y24891542D01*
X27213376Y24953854D01*
X27218441Y25024669D01*
X27260988Y25081505D01*
X27316787Y25105086D01*
X27358282Y25111658D01*
X27365512Y25112803D01*
X27365513Y25112803D01*
X27375304Y25114354D01*
X27488342Y25171950D01*
X27578050Y25261658D01*
X27635646Y25374696D01*
X27647113Y25447093D01*
X27653941Y25490207D01*
X27655492Y25500000D01*
X27645357Y25563993D01*
X27637197Y25615513D01*
X27637196Y25615515D01*
X27635646Y25625304D01*
X27578050Y25738342D01*
X27488342Y25828050D01*
X27375304Y25885646D01*
X27376294Y25887588D01*
X27328542Y25920241D01*
X27300905Y25985638D01*
X27313012Y26055595D01*
X27361019Y26107900D01*
X27375068Y26114317D01*
X27375304Y26114354D01*
X27488342Y26171950D01*
X27578050Y26261658D01*
X27635646Y26374696D01*
X27639604Y26399682D01*
X27653941Y26490207D01*
X27655492Y26500000D01*
X27649501Y26537829D01*
X27637197Y26615513D01*
X27637196Y26615515D01*
X27635646Y26625304D01*
X27578050Y26738342D01*
X27488342Y26828050D01*
X27375304Y26885646D01*
X27365515Y26887196D01*
X27365513Y26887197D01*
X27259793Y26903941D01*
X27250000Y26905492D01*
X27240207Y26903941D01*
X27134487Y26887197D01*
X27134485Y26887196D01*
X27124696Y26885646D01*
X27115863Y26881146D01*
X27106429Y26878080D01*
X27105519Y26880881D01*
X27051303Y26870699D01*
X26985518Y26897398D01*
X26944611Y26955425D01*
X26941570Y27026357D01*
X26974781Y27085165D01*
X27549349Y27659733D01*
X27611661Y27693759D01*
X27682476Y27688694D01*
X27739312Y27646147D01*
X27750710Y27627842D01*
X27766706Y27596450D01*
X27771950Y27586158D01*
X27861658Y27496450D01*
X27974696Y27438854D01*
X27984485Y27437304D01*
X27984487Y27437303D01*
X28090207Y27420559D01*
X28100000Y27419008D01*
X28109793Y27420559D01*
X28215513Y27437303D01*
X28215515Y27437304D01*
X28225304Y27438854D01*
X28338342Y27496450D01*
X28428050Y27586158D01*
X28485646Y27699196D01*
X28505492Y27824500D01*
X28498942Y27865857D01*
X28487197Y27940013D01*
X28487196Y27940015D01*
X28485646Y27949804D01*
X28428050Y28062842D01*
X28338342Y28152550D01*
X28329508Y28157051D01*
X28329507Y28157052D01*
X28296658Y28173790D01*
X28245043Y28222538D01*
X28227978Y28291453D01*
X28250879Y28358655D01*
X28264767Y28375151D01*
X28827211Y28937595D01*
X28889523Y28971621D01*
X28916306Y28974500D01*
X38460457Y28974500D01*
X38485039Y28972079D01*
X38500000Y28969103D01*
X38527132Y28974500D01*
X38527133Y28974500D01*
X38607495Y28990485D01*
X38649465Y29018529D01*
X38649465Y29018528D01*
X38649468Y29018531D01*
X38675622Y29036006D01*
X38678189Y29032165D01*
X38678190Y29032166D01*
X38675623Y29036007D01*
X38688311Y29044485D01*
X38698624Y29051376D01*
X38707104Y29064066D01*
X38722771Y29083155D01*
X40316364Y30676748D01*
X40335456Y30692418D01*
X40337827Y30694002D01*
X40337828Y30694003D01*
X40348144Y30700896D01*
X40370067Y30733705D01*
X40386974Y30759008D01*
X40402142Y30781708D01*
X40402142Y30781709D01*
X40409036Y30792026D01*
X40423422Y30864354D01*
X40427996Y30887348D01*
X40430417Y30899520D01*
X40427441Y30914482D01*
X40425020Y30939062D01*
X40425020Y32684174D01*
X40445022Y32752295D01*
X40461925Y32773269D01*
X40620976Y32932320D01*
X40683288Y32966346D01*
X40754103Y32961281D01*
X40803707Y32927535D01*
X40889709Y32832019D01*
X40889718Y32832011D01*
X40894129Y32827112D01*
X41047270Y32715849D01*
X41220197Y32638856D01*
X41318212Y32618022D01*
X41398897Y32600872D01*
X41398901Y32600872D01*
X41405354Y32599500D01*
X41594646Y32599500D01*
X41601099Y32600872D01*
X41601103Y32600872D01*
X41681788Y32618022D01*
X41779803Y32638856D01*
X41952730Y32715849D01*
X42105871Y32827112D01*
X42110290Y32832019D01*
X42228114Y32962876D01*
X42228115Y32962877D01*
X42232533Y32967784D01*
X42267397Y33028171D01*
X42323875Y33125993D01*
X42323876Y33125994D01*
X42327179Y33131716D01*
X42385674Y33311744D01*
X42388131Y33335116D01*
X42404770Y33493435D01*
X42405460Y33500000D01*
X42401483Y33537841D01*
X42386364Y33681693D01*
X42386364Y33681695D01*
X42385674Y33688256D01*
X42327179Y33868284D01*
X42311493Y33895454D01*
X42235836Y34026495D01*
X42232533Y34032216D01*
X42163272Y34109138D01*
X42110286Y34167985D01*
X42110284Y34167986D01*
X42105871Y34172888D01*
X41952730Y34284151D01*
X41779803Y34361144D01*
X41681788Y34381978D01*
X41601103Y34399128D01*
X41601099Y34399128D01*
X41594646Y34400500D01*
X41405354Y34400500D01*
X41398901Y34399128D01*
X41398897Y34399128D01*
X41318212Y34381978D01*
X41220197Y34361144D01*
X41047270Y34284151D01*
X40894129Y34172888D01*
X40889716Y34167986D01*
X40889714Y34167985D01*
X40836728Y34109138D01*
X40767467Y34032216D01*
X40672821Y33868284D01*
X40670780Y33862003D01*
X40668094Y33855970D01*
X40666928Y33856489D01*
X40630780Y33803623D01*
X40565384Y33775985D01*
X40495427Y33788091D01*
X40443120Y33836097D01*
X40425020Y33901164D01*
X40425020Y34882211D01*
X40445022Y34950332D01*
X40498678Y34996825D01*
X40568952Y35006929D01*
X40597310Y34998857D01*
X40597513Y34998743D01*
X40784118Y34938111D01*
X40978946Y34914879D01*
X40985081Y34915351D01*
X40985083Y34915351D01*
X41168434Y34929459D01*
X41168438Y34929460D01*
X41174576Y34929932D01*
X41363556Y34982697D01*
X41538689Y35071163D01*
X41553116Y35082434D01*
X41680251Y35181763D01*
X41693303Y35191960D01*
X41699857Y35199552D01*
X41817485Y35335827D01*
X41817485Y35335828D01*
X41821509Y35340489D01*
X41918425Y35511091D01*
X41980358Y35697268D01*
X42004949Y35891929D01*
X42005341Y35920000D01*
X41986194Y36115272D01*
X41984413Y36121171D01*
X41984412Y36121176D01*
X41931265Y36297207D01*
X41929484Y36303106D01*
X41837370Y36476347D01*
X41713361Y36628398D01*
X41562180Y36753465D01*
X41389585Y36846787D01*
X41276172Y36881894D01*
X41208039Y36902985D01*
X41208036Y36902986D01*
X41202152Y36904807D01*
X41196027Y36905451D01*
X41196026Y36905451D01*
X41013147Y36924673D01*
X41013146Y36924673D01*
X41007019Y36925317D01*
X40884383Y36914156D01*
X40817759Y36908093D01*
X40817758Y36908093D01*
X40811618Y36907534D01*
X40805704Y36905793D01*
X40805702Y36905793D01*
X40725208Y36882102D01*
X40623393Y36852136D01*
X40617930Y36849280D01*
X40617928Y36849279D01*
X40454972Y36764088D01*
X40454968Y36764085D01*
X40449512Y36761233D01*
X40444712Y36757373D01*
X40444711Y36757373D01*
X40410326Y36729727D01*
X40296600Y36638289D01*
X40292642Y36633572D01*
X40292640Y36633570D01*
X40248022Y36580396D01*
X40188912Y36541069D01*
X40117924Y36539943D01*
X40057597Y36577374D01*
X40027083Y36641479D01*
X40025500Y36661387D01*
X40025500Y37583694D01*
X40045502Y37651815D01*
X40062405Y37672789D01*
X40501261Y38111645D01*
X40563573Y38145671D01*
X40634388Y38140606D01*
X40691224Y38098059D01*
X40699474Y38085551D01*
X40767467Y37967784D01*
X40771885Y37962877D01*
X40771886Y37962876D01*
X40810052Y37920489D01*
X40894129Y37827112D01*
X40899468Y37823233D01*
X40970040Y37771960D01*
X41047270Y37715849D01*
X41220197Y37638856D01*
X41318212Y37618022D01*
X41398897Y37600872D01*
X41398901Y37600872D01*
X41405354Y37599500D01*
X41594646Y37599500D01*
X41601099Y37600872D01*
X41601103Y37600872D01*
X41681788Y37618022D01*
X41779803Y37638856D01*
X41952730Y37715849D01*
X42029961Y37771960D01*
X42100532Y37823233D01*
X42105871Y37827112D01*
X42189949Y37920489D01*
X42228114Y37962876D01*
X42228115Y37962877D01*
X42232533Y37967784D01*
X42304086Y38091718D01*
X42323875Y38125993D01*
X42323876Y38125994D01*
X42327179Y38131716D01*
X42385674Y38311744D01*
X42391617Y38368284D01*
X42404770Y38493435D01*
X42405460Y38500000D01*
X42395271Y38596944D01*
X42386364Y38681693D01*
X42386364Y38681695D01*
X42385674Y38688256D01*
X42327179Y38868284D01*
X42265305Y38975454D01*
X42235836Y39026495D01*
X42232533Y39032216D01*
X42223215Y39042565D01*
X42110286Y39167985D01*
X42110284Y39167986D01*
X42105871Y39172888D01*
X42063566Y39203624D01*
X41958072Y39280270D01*
X41958071Y39280271D01*
X41952730Y39284151D01*
X41779803Y39361144D01*
X41671299Y39384207D01*
X41601103Y39399128D01*
X41601099Y39399128D01*
X41594646Y39400500D01*
X41405354Y39400500D01*
X41398901Y39399128D01*
X41398897Y39399128D01*
X41328701Y39384207D01*
X41220197Y39361144D01*
X41047270Y39284151D01*
X41041929Y39280271D01*
X41041928Y39280270D01*
X40936434Y39203624D01*
X40894129Y39172888D01*
X40889716Y39167986D01*
X40889714Y39167985D01*
X40776785Y39042565D01*
X40767467Y39032216D01*
X40672821Y38868284D01*
X40670780Y38862003D01*
X40668094Y38855970D01*
X40666837Y38856530D01*
X40630886Y38803956D01*
X40565489Y38776321D01*
X40551129Y38775500D01*
X40539543Y38775500D01*
X40514961Y38777921D01*
X40512171Y38778476D01*
X40500000Y38780897D01*
X40487829Y38778476D01*
X40472868Y38775500D01*
X40472867Y38775500D01*
X40392505Y38759515D01*
X40364025Y38740485D01*
X40324378Y38713994D01*
X40324377Y38713993D01*
X40301376Y38698624D01*
X40294485Y38688311D01*
X40292898Y38685936D01*
X40277228Y38666844D01*
X40240595Y38630211D01*
X40178283Y38596185D01*
X40107468Y38601250D01*
X40050632Y38643797D01*
X40025821Y38710317D01*
X40025500Y38719306D01*
X40025500Y39583694D01*
X40045502Y39651815D01*
X40062405Y39672789D01*
X40447308Y40057692D01*
X40509620Y40091718D01*
X40586844Y40084060D01*
X40592134Y40081749D01*
X40597513Y40078743D01*
X40784118Y40018111D01*
X40978946Y39994879D01*
X40985081Y39995351D01*
X40985083Y39995351D01*
X41168434Y40009459D01*
X41168438Y40009460D01*
X41174576Y40009932D01*
X41363556Y40062697D01*
X41538689Y40151163D01*
X41568515Y40174465D01*
X41688453Y40268171D01*
X41693303Y40271960D01*
X41723084Y40306461D01*
X41817485Y40415827D01*
X41817485Y40415828D01*
X41821509Y40420489D01*
X41848377Y40467784D01*
X41880407Y40524168D01*
X41918425Y40591091D01*
X41980358Y40777268D01*
X42004949Y40971929D01*
X42005341Y41000000D01*
X41986194Y41195272D01*
X41984413Y41201171D01*
X41984412Y41201176D01*
X41931265Y41377207D01*
X41929484Y41383106D01*
X41837370Y41556347D01*
X41713361Y41708398D01*
X41562180Y41833465D01*
X41389585Y41926787D01*
X41276172Y41961894D01*
X41208039Y41982985D01*
X41208036Y41982986D01*
X41202152Y41984807D01*
X41196027Y41985451D01*
X41196026Y41985451D01*
X41013147Y42004673D01*
X41013146Y42004673D01*
X41007019Y42005317D01*
X40884383Y41994156D01*
X40817759Y41988093D01*
X40817758Y41988093D01*
X40811618Y41987534D01*
X40805704Y41985793D01*
X40805702Y41985793D01*
X40727753Y41962851D01*
X40623393Y41932136D01*
X40617930Y41929280D01*
X40617928Y41929279D01*
X40454972Y41844088D01*
X40454968Y41844085D01*
X40449512Y41841233D01*
X40444712Y41837373D01*
X40444711Y41837373D01*
X40410326Y41809727D01*
X40296600Y41718289D01*
X40170480Y41567984D01*
X40167516Y41562592D01*
X40167513Y41562588D01*
X40119819Y41475832D01*
X40075956Y41396046D01*
X40074095Y41390179D01*
X40074094Y41390177D01*
X40049214Y41311744D01*
X40016628Y41209022D01*
X39994757Y41014037D01*
X40011175Y40818517D01*
X40065258Y40629909D01*
X40073471Y40613929D01*
X40082679Y40596012D01*
X40096026Y40526281D01*
X40069555Y40460404D01*
X40059707Y40449323D01*
X39583156Y39972772D01*
X39564064Y39957102D01*
X39551376Y39948624D01*
X39490485Y39857495D01*
X39490485Y39857494D01*
X39469103Y39750000D01*
X39471524Y39737829D01*
X39472079Y39735039D01*
X39474500Y39710457D01*
X39474500Y37789543D01*
X39472079Y37764963D01*
X39469103Y37750000D01*
X39471524Y37737829D01*
X39472079Y37735039D01*
X39474500Y37710457D01*
X39474500Y31231311D01*
X39454498Y31163190D01*
X39437595Y31142216D01*
X38257303Y29961925D01*
X38194991Y29927899D01*
X38168208Y29925020D01*
X32803820Y29925020D01*
X32735699Y29945022D01*
X32689206Y29998678D01*
X32679102Y30068952D01*
X32708596Y30133532D01*
X32714725Y30140115D01*
X33316364Y30741754D01*
X33335456Y30757424D01*
X33337827Y30759008D01*
X33337828Y30759009D01*
X33348144Y30765902D01*
X33409035Y30857031D01*
X33425020Y30937393D01*
X33425020Y30937394D01*
X33430417Y30964526D01*
X33427441Y30979489D01*
X33425020Y31004069D01*
X33425020Y32882211D01*
X33445022Y32950332D01*
X33498678Y32996825D01*
X33568952Y33006929D01*
X33597310Y32998857D01*
X33597513Y32998743D01*
X33784118Y32938111D01*
X33978946Y32914879D01*
X33985081Y32915351D01*
X33985083Y32915351D01*
X34168434Y32929459D01*
X34168438Y32929460D01*
X34174576Y32929932D01*
X34363556Y32982697D01*
X34538689Y33071163D01*
X34597699Y33117266D01*
X34688453Y33188171D01*
X34693303Y33191960D01*
X34821509Y33340489D01*
X34839411Y33372001D01*
X34893983Y33468066D01*
X34918425Y33511091D01*
X34980358Y33697268D01*
X35004949Y33891929D01*
X35005341Y33920000D01*
X34986194Y34115272D01*
X34984413Y34121171D01*
X34984412Y34121176D01*
X34931265Y34297207D01*
X34929484Y34303106D01*
X34837370Y34476347D01*
X34713361Y34628398D01*
X34562180Y34753465D01*
X34389585Y34846787D01*
X34382959Y34848838D01*
X34364242Y34854632D01*
X34305082Y34893882D01*
X34276534Y34958886D01*
X34275500Y34974997D01*
X34275500Y35555116D01*
X34295502Y35623237D01*
X34350248Y35670221D01*
X34452730Y35715849D01*
X34605871Y35827112D01*
X34631382Y35855444D01*
X34728114Y35962876D01*
X34728115Y35962877D01*
X34732533Y35967784D01*
X34827179Y36131716D01*
X34885674Y36311744D01*
X34905460Y36500000D01*
X34899019Y36561280D01*
X34886364Y36681693D01*
X34886364Y36681695D01*
X34885674Y36688256D01*
X34827179Y36868284D01*
X34807145Y36902985D01*
X34735836Y37026495D01*
X34732533Y37032216D01*
X34636514Y37138856D01*
X34610286Y37167985D01*
X34610284Y37167986D01*
X34605871Y37172888D01*
X34452730Y37284151D01*
X34279803Y37361144D01*
X34181788Y37381978D01*
X34101103Y37399128D01*
X34101099Y37399128D01*
X34094646Y37400500D01*
X33905354Y37400500D01*
X33898901Y37399128D01*
X33898897Y37399128D01*
X33818212Y37381978D01*
X33720197Y37361144D01*
X33547270Y37284151D01*
X33394129Y37172888D01*
X33389716Y37167986D01*
X33389714Y37167985D01*
X33363486Y37138856D01*
X33267467Y37032216D01*
X33264164Y37026495D01*
X33260619Y37020355D01*
X33209236Y36971362D01*
X33139523Y36957926D01*
X33073612Y36984313D01*
X33032430Y37042145D01*
X33025500Y37083355D01*
X33025500Y37583694D01*
X33045502Y37651815D01*
X33062405Y37672789D01*
X33447308Y38057692D01*
X33509620Y38091718D01*
X33586844Y38084060D01*
X33592134Y38081749D01*
X33597513Y38078743D01*
X33784118Y38018111D01*
X33978946Y37994879D01*
X33985081Y37995351D01*
X33985083Y37995351D01*
X34168434Y38009459D01*
X34168438Y38009460D01*
X34174576Y38009932D01*
X34363556Y38062697D01*
X34538689Y38151163D01*
X34693303Y38271960D01*
X34703167Y38283387D01*
X34817485Y38415827D01*
X34817485Y38415828D01*
X34821509Y38420489D01*
X34918425Y38591091D01*
X34980358Y38777268D01*
X35004949Y38971929D01*
X35005341Y39000000D01*
X34986194Y39195272D01*
X34984413Y39201171D01*
X34984412Y39201176D01*
X34931265Y39377207D01*
X34929484Y39383106D01*
X34837370Y39556347D01*
X34713361Y39708398D01*
X34562180Y39833465D01*
X34389585Y39926787D01*
X34383696Y39928610D01*
X34364242Y39934632D01*
X34305082Y39973882D01*
X34276534Y40038886D01*
X34275500Y40054997D01*
X34275500Y40555116D01*
X34295502Y40623237D01*
X34350248Y40670221D01*
X34452730Y40715849D01*
X34461713Y40722375D01*
X34600532Y40823233D01*
X34605871Y40827112D01*
X34674813Y40903679D01*
X34728114Y40962876D01*
X34728115Y40962877D01*
X34732533Y40967784D01*
X34751133Y41000000D01*
X34823875Y41125993D01*
X34823876Y41125994D01*
X34827179Y41131716D01*
X34885674Y41311744D01*
X34891617Y41368284D01*
X34904770Y41493435D01*
X34905460Y41500000D01*
X34885674Y41688256D01*
X34827179Y41868284D01*
X34792351Y41928609D01*
X34735836Y42026495D01*
X34732533Y42032216D01*
X34726527Y42038886D01*
X34610286Y42167985D01*
X34610284Y42167986D01*
X34605871Y42172888D01*
X34452730Y42284151D01*
X34279803Y42361144D01*
X34155680Y42387527D01*
X34101103Y42399128D01*
X34101099Y42399128D01*
X34094646Y42400500D01*
X33905354Y42400500D01*
X33898901Y42399128D01*
X33898897Y42399128D01*
X33844320Y42387527D01*
X33720197Y42361144D01*
X33547270Y42284151D01*
X33394129Y42172888D01*
X33389716Y42167986D01*
X33389714Y42167985D01*
X33273473Y42038886D01*
X33267467Y42032216D01*
X33264164Y42026495D01*
X33207650Y41928609D01*
X33172821Y41868284D01*
X33114326Y41688256D01*
X33094540Y41500000D01*
X33095230Y41493435D01*
X33108384Y41368284D01*
X33114326Y41311744D01*
X33172821Y41131716D01*
X33176124Y41125994D01*
X33176125Y41125993D01*
X33248867Y41000000D01*
X33267467Y40967784D01*
X33271885Y40962877D01*
X33271886Y40962876D01*
X33325188Y40903679D01*
X33394129Y40827112D01*
X33399468Y40823233D01*
X33538288Y40722375D01*
X33547270Y40715849D01*
X33649752Y40670221D01*
X33703845Y40624242D01*
X33724500Y40555116D01*
X33724500Y40056153D01*
X33704498Y39988032D01*
X33650842Y39941539D01*
X33634078Y39935281D01*
X33623393Y39932136D01*
X33539818Y39888444D01*
X33454972Y39844088D01*
X33454968Y39844085D01*
X33449512Y39841233D01*
X33444712Y39837373D01*
X33444711Y39837373D01*
X33410326Y39809727D01*
X33296600Y39718289D01*
X33170480Y39567984D01*
X33167516Y39562592D01*
X33167513Y39562588D01*
X33142476Y39517045D01*
X33075956Y39396046D01*
X33016628Y39209022D01*
X32994757Y39014037D01*
X33011175Y38818517D01*
X33065258Y38629909D01*
X33079987Y38601250D01*
X33082679Y38596012D01*
X33096026Y38526281D01*
X33069555Y38460404D01*
X33059707Y38449323D01*
X32583156Y37972772D01*
X32564064Y37957102D01*
X32551376Y37948624D01*
X32536007Y37925623D01*
X32533630Y37927212D01*
X32533629Y37927210D01*
X32536006Y37925622D01*
X32518531Y37899468D01*
X32518528Y37899466D01*
X32518529Y37899465D01*
X32490485Y37857495D01*
X32488065Y37845326D01*
X32488064Y37845325D01*
X32483670Y37823233D01*
X32483045Y37820091D01*
X32469103Y37750000D01*
X32471524Y37737829D01*
X32472079Y37735039D01*
X32474500Y37710457D01*
X32474500Y31296318D01*
X32454498Y31228197D01*
X32437595Y31207223D01*
X31991817Y30761445D01*
X31929505Y30727419D01*
X31902722Y30724540D01*
X28222898Y30724540D01*
X28198318Y30726961D01*
X28195528Y30727516D01*
X28195526Y30727516D01*
X28183355Y30729937D01*
X28156223Y30724540D01*
X28156222Y30724540D01*
X28075860Y30708555D01*
X28065541Y30701660D01*
X28038557Y30683630D01*
X28014342Y30667450D01*
X28007733Y30663034D01*
X28007732Y30663033D01*
X27984731Y30647664D01*
X27977840Y30637351D01*
X27976253Y30634976D01*
X27960583Y30615884D01*
X25907103Y28562405D01*
X25844791Y28528379D01*
X25818008Y28525500D01*
X24305910Y28525500D01*
X24237789Y28545502D01*
X24231847Y28549565D01*
X24230479Y28550559D01*
X24223465Y28557573D01*
X24117482Y28611574D01*
X24000000Y28630181D01*
X23882518Y28611574D01*
X23776535Y28557573D01*
X23692427Y28473465D01*
X23687927Y28464633D01*
X23648006Y28386283D01*
X23638426Y28367482D01*
X23636875Y28357691D01*
X23636875Y28357690D01*
X23621742Y28262142D01*
X23591330Y28197989D01*
X23531061Y28160462D01*
X23460072Y28161476D01*
X23400900Y28200709D01*
X23385025Y28224653D01*
X23382551Y28229508D01*
X23378050Y28238342D01*
X23288342Y28328050D01*
X23175304Y28385646D01*
X23175629Y28386283D01*
X23133713Y28411969D01*
X22112585Y29433097D01*
X22078559Y29495409D01*
X22083624Y29566224D01*
X22126171Y29623060D01*
X22196733Y29648095D01*
X22230019Y29649403D01*
X22234966Y29649500D01*
X22775468Y29649500D01*
X22832670Y29635767D01*
X22874696Y29614354D01*
X22884485Y29612804D01*
X22884487Y29612803D01*
X22990207Y29596059D01*
X23000000Y29594508D01*
X23009793Y29596059D01*
X23115513Y29612803D01*
X23115515Y29612804D01*
X23125304Y29614354D01*
X23238342Y29671950D01*
X23328050Y29761658D01*
X23385646Y29874696D01*
X23393617Y29925020D01*
X23403941Y29990207D01*
X23405492Y30000000D01*
X23385646Y30125304D01*
X23328050Y30238342D01*
X23238342Y30328050D01*
X23125304Y30385646D01*
X23115515Y30387196D01*
X23115513Y30387197D01*
X23009793Y30403941D01*
X23000000Y30405492D01*
X22990207Y30403941D01*
X22884487Y30387197D01*
X22884485Y30387196D01*
X22874696Y30385646D01*
X22832671Y30364233D01*
X22775468Y30350500D01*
X22422372Y30350500D01*
X22354251Y30370502D01*
X22333277Y30387405D01*
X21758339Y30962343D01*
X21746261Y30977297D01*
X21743029Y30980849D01*
X21737381Y30989596D01*
X21713470Y31008446D01*
X21709535Y31011943D01*
X21709447Y31011839D01*
X21705488Y31015194D01*
X21701810Y31018872D01*
X21697585Y31021891D01*
X21697577Y31021898D01*
X21687476Y31029116D01*
X21682729Y31032680D01*
X21672274Y31040922D01*
X21645745Y31061836D01*
X21637769Y31064637D01*
X21630887Y31069555D01*
X21585720Y31083063D01*
X21580114Y31084885D01*
X21535650Y31100500D01*
X21536569Y31103117D01*
X21485866Y31130662D01*
X21451707Y31192901D01*
X21456620Y31263727D01*
X21499045Y31320654D01*
X21565512Y31345607D01*
X21574770Y31345948D01*
X23021164Y31345948D01*
X23089285Y31325946D01*
X23135778Y31272290D01*
X23145882Y31202016D01*
X23133431Y31162746D01*
X23122971Y31142216D01*
X23114354Y31125304D01*
X23112804Y31115515D01*
X23112803Y31115513D01*
X23105997Y31072538D01*
X23094508Y31000000D01*
X23096059Y30990207D01*
X23108053Y30914482D01*
X23114354Y30874696D01*
X23171950Y30761658D01*
X23261658Y30671950D01*
X23374696Y30614354D01*
X23384485Y30612804D01*
X23384487Y30612803D01*
X23490207Y30596059D01*
X23500000Y30594508D01*
X23509793Y30596059D01*
X23615513Y30612803D01*
X23615515Y30612804D01*
X23625304Y30614354D01*
X23738342Y30671950D01*
X23828050Y30761658D01*
X23885646Y30874696D01*
X23891948Y30914482D01*
X23903941Y30990207D01*
X23905492Y31000000D01*
X23894003Y31072538D01*
X23887197Y31115513D01*
X23887196Y31115515D01*
X23885646Y31125304D01*
X23877029Y31142216D01*
X23866569Y31162746D01*
X23853465Y31232522D01*
X23880165Y31298307D01*
X23938193Y31339213D01*
X23978836Y31345948D01*
X26109151Y31345948D01*
X26131018Y31344036D01*
X26146476Y31341312D01*
X26155070Y31342828D01*
X26159117Y31343227D01*
X26159328Y31343227D01*
X26159858Y31343300D01*
X26297247Y31356844D01*
X26297252Y31356845D01*
X26303409Y31357452D01*
X26404284Y31388063D01*
X26448390Y31401447D01*
X26448391Y31401448D01*
X26454308Y31403243D01*
X26593374Y31477592D01*
X26598155Y31481516D01*
X26710477Y31573713D01*
X26710481Y31573717D01*
X26715264Y31577643D01*
X26738137Y31605519D01*
X26811365Y31694765D01*
X26811369Y31694770D01*
X26815292Y31699552D01*
X26822804Y31713608D01*
X26886699Y31833175D01*
X26886700Y31833176D01*
X26889615Y31838632D01*
X26935377Y31989540D01*
X26935982Y31995693D01*
X26935985Y31995706D01*
X26944058Y32077759D01*
X26945130Y32084064D01*
X26946329Y32087069D01*
X26946946Y32093362D01*
X26946946Y32100939D01*
X26947552Y32113278D01*
X26949382Y32131875D01*
X26949668Y32133965D01*
X26949668Y32134782D01*
X26949854Y32136673D01*
X26951582Y32146476D01*
X26948862Y32161893D01*
X26946946Y32183785D01*
X26946948Y34609109D01*
X26948864Y34631000D01*
X26949669Y34635564D01*
X26951584Y34646418D01*
X26949866Y34656165D01*
X26951224Y34673394D01*
X26953592Y34688338D01*
X26965778Y34725832D01*
X26975991Y34745871D01*
X26999162Y34777758D01*
X27015065Y34793659D01*
X27046963Y34816830D01*
X27047085Y34816892D01*
X27067001Y34827037D01*
X27104491Y34839215D01*
X27120039Y34841676D01*
X27136853Y34842998D01*
X27146418Y34841310D01*
X27157273Y34843223D01*
X27157274Y34843223D01*
X27160871Y34843857D01*
X27161876Y34844034D01*
X27183743Y34845946D01*
X29109151Y34845948D01*
X29131018Y34844036D01*
X29146476Y34841312D01*
X29155070Y34842828D01*
X29159117Y34843227D01*
X29159328Y34843227D01*
X29159858Y34843300D01*
X29297247Y34856844D01*
X29297252Y34856845D01*
X29303409Y34857452D01*
X29423460Y34893882D01*
X29448390Y34901447D01*
X29448391Y34901448D01*
X29454308Y34903243D01*
X29593374Y34977592D01*
X29598155Y34981516D01*
X29710477Y35073713D01*
X29710481Y35073717D01*
X29715264Y35077643D01*
X29719195Y35082434D01*
X29811365Y35194765D01*
X29811369Y35194770D01*
X29815292Y35199552D01*
X29823660Y35215210D01*
X29886699Y35333175D01*
X29886700Y35333176D01*
X29889615Y35338632D01*
X29894193Y35353727D01*
X29905062Y35389572D01*
X29935377Y35489540D01*
X29935982Y35495693D01*
X29935985Y35495706D01*
X29944058Y35577759D01*
X29945130Y35584064D01*
X29946329Y35587069D01*
X29946946Y35593362D01*
X29946946Y35600939D01*
X29947552Y35613278D01*
X29949382Y35631875D01*
X29949668Y35633965D01*
X29949668Y35634782D01*
X29949854Y35636673D01*
X29951582Y35646476D01*
X29948862Y35661893D01*
X29946946Y35683785D01*
X29946946Y42955147D01*
X33239977Y42955147D01*
X33245258Y42948093D01*
X33406756Y42853721D01*
X33416042Y42849271D01*
X33615001Y42773297D01*
X33624899Y42770421D01*
X33833595Y42727962D01*
X33843823Y42726743D01*
X34056650Y42718938D01*
X34066936Y42719405D01*
X34278185Y42746466D01*
X34288262Y42748608D01*
X34492255Y42809809D01*
X34501842Y42813567D01*
X34693098Y42907262D01*
X34701944Y42912535D01*
X34749247Y42946277D01*
X34757648Y42956977D01*
X34750660Y42970130D01*
X34012812Y43707978D01*
X33998868Y43715592D01*
X33997035Y43715461D01*
X33990420Y43711210D01*
X33246737Y42967527D01*
X33239977Y42955147D01*
X29946946Y42955147D01*
X29946946Y44108137D01*
X32638050Y44108137D01*
X32650309Y43895523D01*
X32651745Y43885303D01*
X32698565Y43677554D01*
X32701645Y43667725D01*
X32781770Y43470397D01*
X32786413Y43461206D01*
X32866460Y43330580D01*
X32876916Y43321120D01*
X32885694Y43324904D01*
X33627978Y44067188D01*
X33634356Y44078868D01*
X34364408Y44078868D01*
X34364539Y44077035D01*
X34368790Y44070420D01*
X35110474Y43328736D01*
X35122484Y43322177D01*
X35134223Y43331145D01*
X35165004Y43373981D01*
X35170315Y43382820D01*
X35264670Y43573733D01*
X35268469Y43583328D01*
X35330376Y43787085D01*
X35332555Y43797166D01*
X35360590Y44010113D01*
X35361109Y44016788D01*
X35362572Y44076636D01*
X35362378Y44083354D01*
X35344781Y44297396D01*
X35343096Y44307576D01*
X35291214Y44514125D01*
X35287894Y44523876D01*
X35202972Y44719186D01*
X35198105Y44728261D01*
X35133063Y44828803D01*
X35122377Y44838005D01*
X35112812Y44833602D01*
X34372022Y44092812D01*
X34364408Y44078868D01*
X33634356Y44078868D01*
X33635592Y44081132D01*
X33635461Y44082965D01*
X33631210Y44089580D01*
X32889849Y44830941D01*
X32878313Y44837241D01*
X32866031Y44827618D01*
X32818089Y44757338D01*
X32813004Y44748387D01*
X32723338Y44555217D01*
X32719775Y44545530D01*
X32662864Y44340319D01*
X32660933Y44330200D01*
X32638302Y44118426D01*
X32638050Y44108137D01*
X29946946Y44108137D01*
X29946946Y45203573D01*
X33241223Y45203573D01*
X33247968Y45191242D01*
X33987188Y44452022D01*
X34001132Y44444408D01*
X34002965Y44444539D01*
X34009580Y44448790D01*
X34515937Y44955147D01*
X40239977Y44955147D01*
X40245258Y44948093D01*
X40406756Y44853721D01*
X40416042Y44849271D01*
X40615001Y44773297D01*
X40624899Y44770421D01*
X40833595Y44727962D01*
X40843823Y44726743D01*
X41056650Y44718938D01*
X41066936Y44719405D01*
X41278185Y44746466D01*
X41288262Y44748608D01*
X41492255Y44809809D01*
X41501842Y44813567D01*
X41693098Y44907262D01*
X41701944Y44912535D01*
X41749247Y44946277D01*
X41757648Y44956977D01*
X41750660Y44970130D01*
X41012812Y45707978D01*
X40998868Y45715592D01*
X40997035Y45715461D01*
X40990420Y45711210D01*
X40246737Y44967527D01*
X40239977Y44955147D01*
X34515937Y44955147D01*
X34753389Y45192599D01*
X34760410Y45205456D01*
X34753611Y45214787D01*
X34749554Y45217482D01*
X34563117Y45320401D01*
X34553705Y45324631D01*
X34352959Y45395720D01*
X34342989Y45398354D01*
X34133327Y45435699D01*
X34123073Y45436669D01*
X33910116Y45439272D01*
X33899832Y45438552D01*
X33689321Y45406339D01*
X33679293Y45403950D01*
X33476868Y45337788D01*
X33467359Y45333791D01*
X33278466Y45235460D01*
X33269734Y45229961D01*
X33249677Y45214901D01*
X33241223Y45203573D01*
X29946946Y45203573D01*
X29946946Y46108137D01*
X39638050Y46108137D01*
X39650309Y45895523D01*
X39651745Y45885303D01*
X39698565Y45677554D01*
X39701645Y45667725D01*
X39781770Y45470397D01*
X39786413Y45461206D01*
X39866460Y45330580D01*
X39876916Y45321120D01*
X39885694Y45324904D01*
X40627978Y46067188D01*
X40634356Y46078868D01*
X41364408Y46078868D01*
X41364539Y46077035D01*
X41368790Y46070420D01*
X42110474Y45328736D01*
X42122484Y45322177D01*
X42134223Y45331145D01*
X42165004Y45373981D01*
X42170315Y45382820D01*
X42264670Y45573733D01*
X42268469Y45583328D01*
X42330376Y45787085D01*
X42332555Y45797166D01*
X42360590Y46010113D01*
X42361109Y46016788D01*
X42362572Y46076636D01*
X42362378Y46083354D01*
X42344781Y46297396D01*
X42343096Y46307576D01*
X42291214Y46514125D01*
X42287894Y46523876D01*
X42202972Y46719186D01*
X42198105Y46728261D01*
X42133063Y46828803D01*
X42122377Y46838005D01*
X42112812Y46833602D01*
X41372022Y46092812D01*
X41364408Y46078868D01*
X40634356Y46078868D01*
X40635592Y46081132D01*
X40635461Y46082965D01*
X40631210Y46089580D01*
X39889849Y46830941D01*
X39878313Y46837241D01*
X39866031Y46827618D01*
X39818089Y46757338D01*
X39813004Y46748387D01*
X39723338Y46555217D01*
X39719775Y46545530D01*
X39662864Y46340319D01*
X39660933Y46330200D01*
X39638302Y46118426D01*
X39638050Y46108137D01*
X29946946Y46108137D01*
X29946946Y46609151D01*
X29948858Y46631019D01*
X29949669Y46635621D01*
X29949669Y46635622D01*
X29951582Y46646476D01*
X29949853Y46656277D01*
X29949667Y46658163D01*
X29949667Y46658987D01*
X29949381Y46661070D01*
X29939264Y46763693D01*
X29935351Y46803390D01*
X29889572Y46954273D01*
X29877093Y46977618D01*
X29818157Y47087869D01*
X29818155Y47087872D01*
X29815239Y47093327D01*
X29760609Y47159892D01*
X29724760Y47203573D01*
X40241223Y47203573D01*
X40247968Y47191242D01*
X40987188Y46452022D01*
X41001132Y46444408D01*
X41002965Y46444539D01*
X41009580Y46448790D01*
X41753389Y47192599D01*
X41760410Y47205456D01*
X41753611Y47214787D01*
X41749554Y47217482D01*
X41563117Y47320401D01*
X41553705Y47324631D01*
X41352959Y47395720D01*
X41342989Y47398354D01*
X41133327Y47435699D01*
X41123073Y47436669D01*
X40910116Y47439272D01*
X40899832Y47438552D01*
X40689321Y47406339D01*
X40679293Y47403950D01*
X40476868Y47337788D01*
X40467359Y47333791D01*
X40278466Y47235460D01*
X40269734Y47229961D01*
X40249677Y47214901D01*
X40241223Y47203573D01*
X29724760Y47203573D01*
X29719133Y47210430D01*
X29715210Y47215210D01*
X29593327Y47315239D01*
X29587872Y47318155D01*
X29587869Y47318157D01*
X29459730Y47386655D01*
X29459729Y47386655D01*
X29454273Y47389572D01*
X29303390Y47435351D01*
X29297234Y47435958D01*
X29297228Y47435959D01*
X29215163Y47444048D01*
X29208853Y47445121D01*
X29205825Y47446329D01*
X29199532Y47446946D01*
X29191959Y47446946D01*
X29179603Y47447554D01*
X29163500Y47449141D01*
X29161066Y47449381D01*
X29158984Y47449667D01*
X29158163Y47449667D01*
X29156277Y47449853D01*
X29146476Y47451582D01*
X29135621Y47449669D01*
X29131019Y47448858D01*
X29109151Y47446946D01*
X28146363Y47446947D01*
X27183749Y47446948D01*
X27161883Y47448860D01*
X27146419Y47451585D01*
X27136672Y47449865D01*
X27119445Y47451219D01*
X27112939Y47452249D01*
X27104492Y47453586D01*
X27066994Y47465767D01*
X27046948Y47475980D01*
X27015056Y47499152D01*
X26999153Y47515055D01*
X26975980Y47546949D01*
X26965768Y47566992D01*
X26953587Y47604486D01*
X26951218Y47619450D01*
X26949864Y47636671D01*
X26951584Y47646418D01*
X26948860Y47661876D01*
X26946948Y47683743D01*
X26946947Y48500000D01*
X31369819Y48500000D01*
X31388426Y48382518D01*
X31442427Y48276535D01*
X31526535Y48192427D01*
X31632518Y48138426D01*
X31750000Y48119819D01*
X31867482Y48138426D01*
X31973465Y48192427D01*
X32057573Y48276535D01*
X32111574Y48382518D01*
X32116428Y48413163D01*
X32122001Y48448354D01*
X32152413Y48512507D01*
X32157355Y48517739D01*
X32469881Y48830265D01*
X32532193Y48864291D01*
X32585172Y48864417D01*
X32641687Y48852405D01*
X32655354Y48849500D01*
X32844646Y48849500D01*
X32851099Y48850872D01*
X32851103Y48850872D01*
X32931788Y48868022D01*
X33029803Y48888856D01*
X33202730Y48965849D01*
X33257259Y49005466D01*
X33350532Y49073233D01*
X33355871Y49077112D01*
X33386327Y49110936D01*
X33478114Y49212876D01*
X33478115Y49212877D01*
X33482533Y49217784D01*
X33566302Y49362876D01*
X33573875Y49375993D01*
X33573876Y49375994D01*
X33577179Y49381716D01*
X33635674Y49561744D01*
X33655460Y49750000D01*
X33654101Y49762926D01*
X33636364Y49931693D01*
X33636364Y49931695D01*
X33635674Y49938256D01*
X33577179Y50118284D01*
X33569827Y50131019D01*
X33485836Y50276495D01*
X33482533Y50282216D01*
X33459467Y50307833D01*
X33360286Y50417985D01*
X33360284Y50417986D01*
X33355871Y50422888D01*
X33320825Y50448350D01*
X33208072Y50530270D01*
X33208071Y50530271D01*
X33202730Y50534151D01*
X33029803Y50611144D01*
X32931788Y50631978D01*
X32851103Y50649128D01*
X32851099Y50649128D01*
X32844646Y50650500D01*
X32655354Y50650500D01*
X32648901Y50649128D01*
X32648897Y50649128D01*
X32568212Y50631978D01*
X32470197Y50611144D01*
X32297270Y50534151D01*
X32291929Y50530271D01*
X32291928Y50530270D01*
X32179175Y50448350D01*
X32144129Y50422888D01*
X32139716Y50417986D01*
X32139714Y50417985D01*
X32040533Y50307833D01*
X32017467Y50282216D01*
X32014164Y50276495D01*
X31930174Y50131019D01*
X31922821Y50118284D01*
X31864326Y49938256D01*
X31863636Y49931695D01*
X31863636Y49931693D01*
X31845899Y49762926D01*
X31844540Y49750000D01*
X31864326Y49561744D01*
X31922821Y49381716D01*
X31926124Y49375994D01*
X31926125Y49375993D01*
X31991344Y49263031D01*
X32008082Y49194036D01*
X31984862Y49126944D01*
X31971320Y49110936D01*
X31767739Y48907355D01*
X31705427Y48873329D01*
X31698354Y48872001D01*
X31642310Y48863125D01*
X31642309Y48863125D01*
X31632518Y48861574D01*
X31526535Y48807573D01*
X31442427Y48723465D01*
X31388426Y48617482D01*
X31369819Y48500000D01*
X26946947Y48500000D01*
X26946946Y49574007D01*
X26946945Y50109151D01*
X26948857Y50131019D01*
X26949668Y50135621D01*
X26949668Y50135622D01*
X26951581Y50146476D01*
X26949852Y50156277D01*
X26949666Y50158163D01*
X26949666Y50158987D01*
X26949380Y50161070D01*
X26939263Y50263693D01*
X26935350Y50303390D01*
X26889571Y50454272D01*
X26815239Y50593326D01*
X26715209Y50715209D01*
X26593326Y50815239D01*
X26454272Y50889571D01*
X26303390Y50935350D01*
X26250687Y50940545D01*
X26215168Y50944047D01*
X26208854Y50945121D01*
X26205825Y50946329D01*
X26199532Y50946946D01*
X26191949Y50946946D01*
X26179592Y50947554D01*
X26167887Y50948707D01*
X26161067Y50949380D01*
X26158985Y50949666D01*
X26158163Y50949666D01*
X26156277Y50949852D01*
X26146476Y50951581D01*
X26131023Y50948858D01*
X26109157Y50946946D01*
X20935395Y50946946D01*
X20867274Y50966948D01*
X20820781Y51020604D01*
X20810677Y51090878D01*
X20840171Y51155458D01*
X20889474Y51188707D01*
X20890103Y51188812D01*
X20931584Y51211194D01*
X20936870Y51213887D01*
X20979326Y51234274D01*
X20983274Y51237592D01*
X20985207Y51239525D01*
X20986804Y51240990D01*
X20987294Y51241254D01*
X20987313Y51241234D01*
X20987402Y51241313D01*
X20992794Y51244222D01*
X21026455Y51280636D01*
X21029884Y51284202D01*
X21645682Y51900000D01*
X30994508Y51900000D01*
X30996059Y51890207D01*
X31008895Y51809165D01*
X31014354Y51774696D01*
X31071950Y51661658D01*
X31161658Y51571950D01*
X31274696Y51514354D01*
X31284485Y51512804D01*
X31284487Y51512803D01*
X31390207Y51496059D01*
X31400000Y51494508D01*
X31409793Y51496059D01*
X31515513Y51512803D01*
X31515515Y51512804D01*
X31525304Y51514354D01*
X31638342Y51571950D01*
X31728050Y51661658D01*
X31785646Y51774696D01*
X31791106Y51809165D01*
X31803941Y51890207D01*
X31805492Y51900000D01*
X31803941Y51909793D01*
X31787197Y52015513D01*
X31787196Y52015515D01*
X31785646Y52025304D01*
X31728050Y52138342D01*
X31638342Y52228050D01*
X31525304Y52285646D01*
X31515515Y52287196D01*
X31515513Y52287197D01*
X31409793Y52303941D01*
X31400000Y52305492D01*
X31390207Y52303941D01*
X31284487Y52287197D01*
X31284485Y52287196D01*
X31274696Y52285646D01*
X31161658Y52228050D01*
X31071950Y52138342D01*
X31014354Y52025304D01*
X31012804Y52015515D01*
X31012803Y52015513D01*
X30996059Y51909793D01*
X30994508Y51900000D01*
X21645682Y51900000D01*
X22745682Y53000000D01*
X25294508Y53000000D01*
X25296059Y52990207D01*
X25309783Y52903559D01*
X25314354Y52874696D01*
X25371950Y52761658D01*
X25461658Y52671950D01*
X25574696Y52614354D01*
X25584485Y52612804D01*
X25584487Y52612803D01*
X25690207Y52596059D01*
X25700000Y52594508D01*
X25709793Y52596059D01*
X25815513Y52612803D01*
X25815515Y52612804D01*
X25825304Y52614354D01*
X25938342Y52671950D01*
X26028050Y52761658D01*
X26085646Y52874696D01*
X26090218Y52903559D01*
X26103941Y52990207D01*
X26105492Y53000000D01*
X26095787Y53061277D01*
X26087197Y53115513D01*
X26087196Y53115515D01*
X26085646Y53125304D01*
X26028050Y53238342D01*
X25938342Y53328050D01*
X25825304Y53385646D01*
X25815515Y53387196D01*
X25815513Y53387197D01*
X25709793Y53403941D01*
X25700000Y53405492D01*
X25690207Y53403941D01*
X25584487Y53387197D01*
X25584485Y53387196D01*
X25574696Y53385646D01*
X25461658Y53328050D01*
X25371950Y53238342D01*
X25314354Y53125304D01*
X25312804Y53115515D01*
X25312803Y53115513D01*
X25304213Y53061277D01*
X25294508Y53000000D01*
X22745682Y53000000D01*
X23833713Y54088031D01*
X23875629Y54113717D01*
X23875304Y54114354D01*
X23883398Y54118478D01*
X23883399Y54118479D01*
X23988342Y54171950D01*
X24078050Y54261658D01*
X24135646Y54374696D01*
X24151010Y54471698D01*
X24153941Y54490207D01*
X24155492Y54500000D01*
X24144359Y54570290D01*
X24137197Y54615513D01*
X24137196Y54615515D01*
X24135646Y54625304D01*
X24078050Y54738342D01*
X23988342Y54828050D01*
X23875304Y54885646D01*
X23865515Y54887196D01*
X23865513Y54887197D01*
X23759793Y54903941D01*
X23750000Y54905492D01*
X23740207Y54903941D01*
X23634487Y54887197D01*
X23634485Y54887196D01*
X23624696Y54885646D01*
X23511658Y54828050D01*
X23421950Y54738342D01*
X23364354Y54625304D01*
X23363717Y54625629D01*
X23338031Y54583713D01*
X21815595Y53061277D01*
X21753283Y53027251D01*
X21682468Y53032316D01*
X21625632Y53074863D01*
X21600821Y53141383D01*
X21600500Y53150372D01*
X21600500Y54275468D01*
X21614233Y54332671D01*
X21631145Y54365863D01*
X21635646Y54374696D01*
X21651010Y54471698D01*
X21653941Y54490207D01*
X21655492Y54500000D01*
X21644359Y54570290D01*
X21637197Y54615513D01*
X21637196Y54615515D01*
X21635646Y54625304D01*
X21578050Y54738342D01*
X21488342Y54828050D01*
X21375304Y54885646D01*
X21365515Y54887196D01*
X21365513Y54887197D01*
X21259793Y54903941D01*
X21250000Y54905492D01*
X21240207Y54903941D01*
X21134487Y54887197D01*
X21134485Y54887196D01*
X21124696Y54885646D01*
X21011658Y54828050D01*
X20921950Y54738342D01*
X20864354Y54625304D01*
X20862804Y54615515D01*
X20862803Y54615513D01*
X20855641Y54570290D01*
X20844508Y54500000D01*
X20846059Y54490207D01*
X20848991Y54471698D01*
X20864354Y54374696D01*
X20868855Y54365863D01*
X20885767Y54332671D01*
X20899500Y54275468D01*
X20899500Y53328743D01*
X20879498Y53260622D01*
X20862595Y53239648D01*
X20335352Y52712405D01*
X20273040Y52678379D01*
X20246257Y52675500D01*
X13935140Y52675500D01*
X13916041Y52677533D01*
X13911237Y52677760D01*
X13901054Y52679952D01*
X13890712Y52678728D01*
X13890709Y52678728D01*
X13870826Y52676374D01*
X13865567Y52676064D01*
X13865578Y52675928D01*
X13860401Y52675500D01*
X13855199Y52675500D01*
X13837835Y52672610D01*
X13831965Y52671774D01*
X13795515Y52667460D01*
X13795513Y52667460D01*
X13785176Y52666236D01*
X13777556Y52662577D01*
X13769211Y52661188D01*
X13727734Y52638808D01*
X13722449Y52636116D01*
X13679988Y52615726D01*
X13676040Y52612408D01*
X13674107Y52610475D01*
X13672510Y52609010D01*
X13672020Y52608746D01*
X13672001Y52608766D01*
X13671912Y52608687D01*
X13666520Y52605778D01*
X13659450Y52598130D01*
X13659449Y52598129D01*
X13632859Y52569364D01*
X13629430Y52565798D01*
X10216807Y49153175D01*
X10154495Y49119149D01*
X10083680Y49124214D01*
X10026844Y49166761D01*
X10002402Y49229099D01*
X9986364Y49381694D01*
X9986363Y49381697D01*
X9985674Y49388256D01*
X9927179Y49568284D01*
X9832533Y49732216D01*
X9828114Y49737124D01*
X9710286Y49867985D01*
X9710284Y49867986D01*
X9705871Y49872888D01*
X9615899Y49938256D01*
X9558072Y49980270D01*
X9558071Y49980271D01*
X9552730Y49984151D01*
X9379803Y50061144D01*
X9281788Y50081978D01*
X9201103Y50099128D01*
X9201099Y50099128D01*
X9194646Y50100500D01*
X9005354Y50100500D01*
X8998901Y50099128D01*
X8998897Y50099128D01*
X8918212Y50081978D01*
X8820197Y50061144D01*
X8647270Y49984151D01*
X8641929Y49980271D01*
X8641928Y49980270D01*
X8584101Y49938256D01*
X8494129Y49872888D01*
X8489716Y49867986D01*
X8489714Y49867985D01*
X8371886Y49737124D01*
X8367467Y49732216D01*
X8272821Y49568284D01*
X8214326Y49388256D01*
X8213636Y49381695D01*
X8213636Y49381693D01*
X8197010Y49223505D01*
X8194540Y49200000D01*
X8195230Y49193435D01*
X8203038Y49119149D01*
X8214326Y49011744D01*
X8272821Y48831716D01*
X8367467Y48667784D01*
X8494129Y48527112D01*
X8499468Y48523233D01*
X8602531Y48448354D01*
X8647270Y48415849D01*
X8722132Y48382518D01*
X8774749Y48359091D01*
X8828845Y48313111D01*
X8849500Y48243985D01*
X8849500Y47833422D01*
X8826012Y47760161D01*
X8821326Y47753604D01*
X8817764Y47748859D01*
X8788608Y47711875D01*
X8785807Y47703899D01*
X8780889Y47697017D01*
X8767381Y47651850D01*
X8765559Y47646244D01*
X8752572Y47609263D01*
X8752571Y47609257D01*
X8749945Y47601780D01*
X8749500Y47596642D01*
X8749500Y47593923D01*
X8749405Y47591741D01*
X8749245Y47591206D01*
X8749218Y47591207D01*
X8749211Y47591089D01*
X8747456Y47585222D01*
X8749403Y47535667D01*
X8749500Y47530720D01*
X8749500Y33635138D01*
X8747467Y33616039D01*
X8747240Y33611231D01*
X8745049Y33601053D01*
X8746273Y33590714D01*
X8748627Y33570823D01*
X8748937Y33565568D01*
X8749072Y33565579D01*
X8749500Y33560400D01*
X8749500Y33555199D01*
X8750354Y33550071D01*
X8750354Y33550065D01*
X8752389Y33537841D01*
X8753226Y33531965D01*
X8758764Y33485176D01*
X8762423Y33477556D01*
X8763812Y33469211D01*
X8768757Y33460047D01*
X8786192Y33427734D01*
X8788884Y33422449D01*
X8809274Y33379988D01*
X8812592Y33376040D01*
X8814525Y33374107D01*
X8815990Y33372510D01*
X8816254Y33372020D01*
X8816234Y33372001D01*
X8816313Y33371912D01*
X8819222Y33366520D01*
X8826870Y33359450D01*
X8826871Y33359449D01*
X8855636Y33332859D01*
X8859202Y33329430D01*
X12450087Y29738545D01*
X12462165Y29723591D01*
X12465397Y29720039D01*
X12471045Y29711292D01*
X12479222Y29704846D01*
X12494956Y29692442D01*
X12498891Y29688945D01*
X12498979Y29689049D01*
X12502938Y29685694D01*
X12506616Y29682016D01*
X12510841Y29678997D01*
X12510849Y29678990D01*
X12520950Y29671772D01*
X12525697Y29668208D01*
X12536152Y29659966D01*
X12562681Y29639052D01*
X12570657Y29636251D01*
X12577539Y29631333D01*
X12587517Y29628349D01*
X12622661Y29617839D01*
X12628307Y29616005D01*
X12665297Y29603015D01*
X12665300Y29603014D01*
X12672776Y29600389D01*
X12677914Y29599944D01*
X12680619Y29599944D01*
X12682818Y29599849D01*
X12683350Y29599690D01*
X12683349Y29599663D01*
X12683465Y29599656D01*
X12689333Y29597901D01*
X12738873Y29599847D01*
X12743820Y29599944D01*
X20902184Y29599944D01*
X20970305Y29579942D01*
X20991279Y29563039D01*
X22638031Y27916287D01*
X22663717Y27874371D01*
X22664354Y27874696D01*
X22668858Y27865857D01*
X22697979Y27808703D01*
X22711083Y27738926D01*
X22684383Y27673141D01*
X22626355Y27632235D01*
X22585712Y27625500D01*
X22281299Y27625500D01*
X22256717Y27627921D01*
X22253927Y27628476D01*
X22241756Y27630897D01*
X22214624Y27625500D01*
X22214623Y27625500D01*
X22171760Y27616974D01*
X22101047Y27623302D01*
X22044979Y27666856D01*
X22021360Y27733808D01*
X22031139Y27779935D01*
X22028080Y27780929D01*
X22031146Y27790363D01*
X22035646Y27799196D01*
X22037528Y27811074D01*
X22053941Y27914707D01*
X22055492Y27924500D01*
X22047573Y27974500D01*
X22037197Y28040013D01*
X22037196Y28040015D01*
X22035646Y28049804D01*
X21978050Y28162842D01*
X21888342Y28252550D01*
X21775304Y28310146D01*
X21765515Y28311696D01*
X21765513Y28311697D01*
X21659793Y28328441D01*
X21650000Y28329992D01*
X21640207Y28328441D01*
X21534487Y28311697D01*
X21534485Y28311696D01*
X21524696Y28310146D01*
X21411658Y28252550D01*
X21396013Y28236905D01*
X21333701Y28202879D01*
X21306918Y28200000D01*
X19714042Y28200000D01*
X19689462Y28202421D01*
X19686672Y28202976D01*
X19674500Y28205397D01*
X19662328Y28202976D01*
X19659538Y28202421D01*
X19567006Y28184016D01*
X19556689Y28177123D01*
X19556688Y28177122D01*
X19498878Y28138494D01*
X19498877Y28138493D01*
X19475876Y28123124D01*
X19468985Y28112811D01*
X19467398Y28110436D01*
X19451728Y28091344D01*
X19336516Y27976132D01*
X19274204Y27942106D01*
X19203389Y27947171D01*
X19146553Y27989718D01*
X19122972Y28045516D01*
X19113125Y28107690D01*
X19113125Y28107691D01*
X19111574Y28117482D01*
X19057573Y28223465D01*
X18973465Y28307573D01*
X18867482Y28361574D01*
X18750000Y28380181D01*
X18632518Y28361574D01*
X18526535Y28307573D01*
X18442427Y28223465D01*
X18388426Y28117482D01*
X18386875Y28107690D01*
X18386875Y28107689D01*
X18381153Y28071561D01*
X18350741Y28007408D01*
X18345799Y28002176D01*
X17783656Y27440033D01*
X17764564Y27424363D01*
X17751876Y27415885D01*
X17736507Y27392884D01*
X17734130Y27394473D01*
X17734129Y27394471D01*
X17736506Y27392883D01*
X17719031Y27366729D01*
X17719028Y27366727D01*
X17719029Y27366726D01*
X17699261Y27337141D01*
X17690985Y27324756D01*
X17678008Y27259515D01*
X17669603Y27217261D01*
X17672024Y27205090D01*
X17672579Y27202300D01*
X17675000Y27177718D01*
X17675000Y26866806D01*
X17654998Y26798685D01*
X17638095Y26777711D01*
X17471829Y26611445D01*
X17409517Y26577419D01*
X17382734Y26574540D01*
X12867266Y26574540D01*
X12799145Y26594542D01*
X12778171Y26611445D01*
X10889616Y28500000D01*
X14894508Y28500000D01*
X14896059Y28490207D01*
X14912620Y28385646D01*
X14914354Y28374696D01*
X14971950Y28261658D01*
X15061658Y28171950D01*
X15174696Y28114354D01*
X15184485Y28112804D01*
X15184487Y28112803D01*
X15290207Y28096059D01*
X15300000Y28094508D01*
X15309793Y28096059D01*
X15415513Y28112803D01*
X15415515Y28112804D01*
X15425304Y28114354D01*
X15538342Y28171950D01*
X15628050Y28261658D01*
X15685646Y28374696D01*
X15687381Y28385646D01*
X15703941Y28490207D01*
X15705492Y28500000D01*
X15697484Y28550562D01*
X15687197Y28615513D01*
X15687196Y28615515D01*
X15685646Y28625304D01*
X15628050Y28738342D01*
X15538342Y28828050D01*
X15425304Y28885646D01*
X15415515Y28887196D01*
X15415513Y28887197D01*
X15309793Y28903941D01*
X15300000Y28905492D01*
X15290207Y28903941D01*
X15184487Y28887197D01*
X15184485Y28887196D01*
X15174696Y28885646D01*
X15061658Y28828050D01*
X14971950Y28738342D01*
X14914354Y28625304D01*
X14912804Y28615515D01*
X14912803Y28615513D01*
X14902516Y28550562D01*
X14894508Y28500000D01*
X10889616Y28500000D01*
X8224781Y31164835D01*
X8190755Y31227147D01*
X8195820Y31297962D01*
X8238367Y31354798D01*
X8304887Y31379609D01*
X8355589Y31369335D01*
X8356429Y31371920D01*
X8365862Y31368855D01*
X8374696Y31364354D01*
X8384485Y31362804D01*
X8384487Y31362803D01*
X8490207Y31346059D01*
X8500000Y31344508D01*
X8509793Y31346059D01*
X8615513Y31362803D01*
X8615515Y31362804D01*
X8625304Y31364354D01*
X8738342Y31421950D01*
X8828050Y31511658D01*
X8885646Y31624696D01*
X8887381Y31635646D01*
X8903941Y31740207D01*
X8905492Y31750000D01*
X8885646Y31875304D01*
X8828050Y31988342D01*
X8738342Y32078050D01*
X8625304Y32135646D01*
X8615515Y32137196D01*
X8615513Y32137197D01*
X8509793Y32153941D01*
X8500000Y32155492D01*
X8490207Y32153941D01*
X8384487Y32137197D01*
X8384485Y32137196D01*
X8374696Y32135646D01*
X8261658Y32078050D01*
X8171950Y31988342D01*
X8114354Y31875304D01*
X8094508Y31750000D01*
X8096059Y31740207D01*
X8112620Y31635646D01*
X8114354Y31624696D01*
X8118854Y31615863D01*
X8121920Y31606429D01*
X8119119Y31605519D01*
X8129301Y31551303D01*
X8102602Y31485518D01*
X8044575Y31444611D01*
X7973643Y31441570D01*
X7914835Y31474781D01*
X6361445Y33028171D01*
X6327419Y33090483D01*
X6324540Y33117266D01*
X6324540Y38548601D01*
X6344542Y38616722D01*
X6398198Y38663215D01*
X6468472Y38673319D01*
X6533052Y38643825D01*
X6539635Y38637696D01*
X6654318Y38523013D01*
X6688344Y38460701D01*
X6683279Y38389886D01*
X6678667Y38380098D01*
X6678809Y38380035D01*
X6676125Y38374007D01*
X6672821Y38368284D01*
X6614326Y38188256D01*
X6613636Y38181695D01*
X6613636Y38181693D01*
X6598962Y38042074D01*
X6594540Y38000000D01*
X6595230Y37993435D01*
X6610797Y37845325D01*
X6614326Y37811744D01*
X6672821Y37631716D01*
X6767467Y37467784D01*
X6771885Y37462877D01*
X6771886Y37462876D01*
X6865908Y37358455D01*
X6894129Y37327112D01*
X7047270Y37215849D01*
X7220197Y37138856D01*
X7318212Y37118022D01*
X7398897Y37100872D01*
X7398901Y37100872D01*
X7405354Y37099500D01*
X7594646Y37099500D01*
X7601099Y37100872D01*
X7601103Y37100872D01*
X7681788Y37118022D01*
X7779803Y37138856D01*
X7952730Y37215849D01*
X8105871Y37327112D01*
X8134093Y37358455D01*
X8228114Y37462876D01*
X8228115Y37462877D01*
X8232533Y37467784D01*
X8327179Y37631716D01*
X8385674Y37811744D01*
X8389204Y37845325D01*
X8404770Y37993435D01*
X8405460Y38000000D01*
X8401038Y38042074D01*
X8386364Y38181693D01*
X8386364Y38181695D01*
X8385674Y38188256D01*
X8327179Y38368284D01*
X8297039Y38420489D01*
X8235836Y38526495D01*
X8232533Y38532216D01*
X8217780Y38548601D01*
X8110286Y38667985D01*
X8110284Y38667986D01*
X8105871Y38672888D01*
X7983308Y38761935D01*
X7958072Y38780270D01*
X7958071Y38780271D01*
X7952730Y38784151D01*
X7779803Y38861144D01*
X7672565Y38883938D01*
X7601103Y38899128D01*
X7601099Y38899128D01*
X7594646Y38900500D01*
X7405354Y38900500D01*
X7398901Y38899128D01*
X7398897Y38899128D01*
X7327435Y38883938D01*
X7220197Y38861144D01*
X7214164Y38858458D01*
X7214158Y38858456D01*
X7212967Y38857926D01*
X7212216Y38857825D01*
X7207885Y38856418D01*
X7207628Y38857210D01*
X7142600Y38848492D01*
X7078304Y38878599D01*
X7072625Y38883938D01*
X6913998Y39042565D01*
X6879972Y39104877D01*
X6878171Y39148106D01*
X6888252Y39224678D01*
X6888252Y39224679D01*
X6889330Y39232867D01*
X6870410Y39376576D01*
X6814941Y39510492D01*
X6726701Y39625488D01*
X6611705Y39713728D01*
X6477789Y39769197D01*
X6334080Y39788117D01*
X6190371Y39769197D01*
X6157641Y39755640D01*
X6099238Y39731449D01*
X6028648Y39723860D01*
X5965161Y39755640D01*
X5928934Y39816698D01*
X5925020Y39847858D01*
X5925020Y40392448D01*
X5945022Y40460569D01*
X6002802Y40508857D01*
X6005232Y40509864D01*
X6027625Y40519139D01*
X6142621Y40607379D01*
X6194666Y40675204D01*
X6252003Y40717071D01*
X6294627Y40724500D01*
X6551129Y40724500D01*
X6619250Y40704498D01*
X6665743Y40650842D01*
X6670490Y40638648D01*
X6670781Y40637995D01*
X6672821Y40631716D01*
X6767467Y40467784D01*
X6771885Y40462877D01*
X6771886Y40462876D01*
X6810052Y40420489D01*
X6894129Y40327112D01*
X6899468Y40323233D01*
X7035278Y40224562D01*
X7047270Y40215849D01*
X7220197Y40138856D01*
X7318212Y40118022D01*
X7398897Y40100872D01*
X7398901Y40100872D01*
X7405354Y40099500D01*
X7594646Y40099500D01*
X7601099Y40100872D01*
X7601103Y40100872D01*
X7681788Y40118022D01*
X7779803Y40138856D01*
X7952730Y40215849D01*
X7964723Y40224562D01*
X8100532Y40323233D01*
X8105871Y40327112D01*
X8189949Y40420489D01*
X8228114Y40462876D01*
X8228115Y40462877D01*
X8232533Y40467784D01*
X8306565Y40596012D01*
X8323875Y40625993D01*
X8323876Y40625995D01*
X8327179Y40631716D01*
X8385674Y40811744D01*
X8391068Y40863060D01*
X8404770Y40993435D01*
X8405460Y41000000D01*
X8392218Y41125993D01*
X8386364Y41181693D01*
X8386364Y41181695D01*
X8385674Y41188256D01*
X8327179Y41368284D01*
X8232533Y41532216D01*
X8227858Y41537408D01*
X8110286Y41667985D01*
X8110284Y41667986D01*
X8105871Y41672888D01*
X8063566Y41703624D01*
X7958072Y41780270D01*
X7958071Y41780271D01*
X7952730Y41784151D01*
X7779803Y41861144D01*
X7681788Y41881978D01*
X7601103Y41899128D01*
X7601099Y41899128D01*
X7594646Y41900500D01*
X7405354Y41900500D01*
X7398901Y41899128D01*
X7398897Y41899128D01*
X7318212Y41881978D01*
X7220197Y41861144D01*
X7047270Y41784151D01*
X7041929Y41780271D01*
X7041928Y41780270D01*
X6936434Y41703624D01*
X6894129Y41672888D01*
X6889716Y41667986D01*
X6889714Y41667985D01*
X6772142Y41537408D01*
X6767467Y41532216D01*
X6672821Y41368284D01*
X6670780Y41362003D01*
X6668094Y41355970D01*
X6666837Y41356530D01*
X6630886Y41303956D01*
X6565489Y41276321D01*
X6551129Y41275500D01*
X6294627Y41275500D01*
X6226506Y41295502D01*
X6194665Y41324796D01*
X6161296Y41368284D01*
X6142621Y41392621D01*
X6027625Y41480861D01*
X5893709Y41536330D01*
X5750000Y41555250D01*
X5606291Y41536330D01*
X5472375Y41480861D01*
X5357379Y41392621D01*
X5269139Y41277625D01*
X5265980Y41269998D01*
X5265977Y41269993D01*
X5225462Y41172178D01*
X5180914Y41116897D01*
X5113551Y41094475D01*
X5044760Y41112033D01*
X4996381Y41163994D01*
X4986403Y41193145D01*
X4986194Y41195272D01*
X4984412Y41201176D01*
X4931265Y41377207D01*
X4929484Y41383106D01*
X4837370Y41556347D01*
X4713361Y41708398D01*
X4562180Y41833465D01*
X4389585Y41926787D01*
X4381535Y41929279D01*
X4364242Y41934632D01*
X4305082Y41973882D01*
X4276534Y42038886D01*
X4275500Y42054997D01*
X4275500Y42555116D01*
X4295502Y42623237D01*
X4350248Y42670221D01*
X4452730Y42715849D01*
X4467725Y42726743D01*
X4600532Y42823233D01*
X4605871Y42827112D01*
X4682787Y42912535D01*
X4728114Y42962876D01*
X4728115Y42962877D01*
X4732533Y42967784D01*
X4827179Y43131716D01*
X4885674Y43311744D01*
X4886660Y43321120D01*
X4904770Y43493435D01*
X4905460Y43500000D01*
X4885674Y43688256D01*
X4827179Y43868284D01*
X4732533Y44032216D01*
X4605871Y44172888D01*
X4488717Y44258005D01*
X4458072Y44280270D01*
X4458071Y44280271D01*
X4452730Y44284151D01*
X4279803Y44361144D01*
X4181788Y44381978D01*
X4101103Y44399128D01*
X4101099Y44399128D01*
X4094646Y44400500D01*
X3905354Y44400500D01*
X3898901Y44399128D01*
X3898897Y44399128D01*
X3818212Y44381978D01*
X3720197Y44361144D01*
X3547270Y44284151D01*
X3541929Y44280271D01*
X3541928Y44280270D01*
X3511283Y44258005D01*
X3394129Y44172888D01*
X3267467Y44032216D01*
X3172821Y43868284D01*
X3114326Y43688256D01*
X3094540Y43500000D01*
X3095230Y43493435D01*
X3113341Y43321120D01*
X3114326Y43311744D01*
X3172821Y43131716D01*
X3267467Y42967784D01*
X3271885Y42962877D01*
X3271886Y42962876D01*
X3317214Y42912535D01*
X3394129Y42827112D01*
X3399468Y42823233D01*
X3532276Y42726743D01*
X3547270Y42715849D01*
X3649752Y42670221D01*
X3703845Y42624242D01*
X3724500Y42555116D01*
X3724500Y42056153D01*
X3704498Y41988032D01*
X3650842Y41941539D01*
X3634078Y41935281D01*
X3623393Y41932136D01*
X3562879Y41900500D01*
X3454972Y41844088D01*
X3454968Y41844085D01*
X3449512Y41841233D01*
X3444712Y41837373D01*
X3444711Y41837373D01*
X3410326Y41809727D01*
X3296600Y41718289D01*
X3170480Y41567984D01*
X3167516Y41562592D01*
X3167513Y41562588D01*
X3119819Y41475832D01*
X3075956Y41396046D01*
X3074095Y41390179D01*
X3074094Y41390177D01*
X3049214Y41311744D01*
X3016628Y41209022D01*
X2994757Y41014037D01*
X3011175Y40818517D01*
X3065258Y40629909D01*
X3068687Y40623237D01*
X3152123Y40460887D01*
X3152126Y40460883D01*
X3154944Y40455399D01*
X3276818Y40301631D01*
X3281511Y40297637D01*
X3281512Y40297636D01*
X3373052Y40219730D01*
X3426238Y40174465D01*
X3431616Y40171459D01*
X3431618Y40171458D01*
X3489953Y40138856D01*
X3597513Y40078743D01*
X3784118Y40018111D01*
X3978946Y39994879D01*
X3985081Y39995351D01*
X3985083Y39995351D01*
X4168434Y40009459D01*
X4168438Y40009460D01*
X4174576Y40009932D01*
X4363556Y40062697D01*
X4369056Y40065475D01*
X4369058Y40065476D01*
X4404481Y40083369D01*
X4474303Y40096229D01*
X4539994Y40069299D01*
X4550386Y40059998D01*
X4937595Y39672789D01*
X4971621Y39610477D01*
X4974500Y39583694D01*
X4974500Y39083355D01*
X4954498Y39015234D01*
X4900842Y38968741D01*
X4830568Y38958637D01*
X4765988Y38988131D01*
X4739381Y39020355D01*
X4735836Y39026495D01*
X4732533Y39032216D01*
X4723215Y39042565D01*
X4610286Y39167985D01*
X4610284Y39167986D01*
X4605871Y39172888D01*
X4563566Y39203624D01*
X4458072Y39280270D01*
X4458071Y39280271D01*
X4452730Y39284151D01*
X4279803Y39361144D01*
X4171299Y39384207D01*
X4101103Y39399128D01*
X4101099Y39399128D01*
X4094646Y39400500D01*
X3905354Y39400500D01*
X3898901Y39399128D01*
X3898897Y39399128D01*
X3828701Y39384207D01*
X3720197Y39361144D01*
X3547270Y39284151D01*
X3541929Y39280271D01*
X3541928Y39280270D01*
X3436434Y39203624D01*
X3394129Y39172888D01*
X3389716Y39167986D01*
X3389714Y39167985D01*
X3276785Y39042565D01*
X3267467Y39032216D01*
X3264164Y39026495D01*
X3234696Y38975454D01*
X3172821Y38868284D01*
X3114326Y38688256D01*
X3113636Y38681695D01*
X3113636Y38681693D01*
X3104729Y38596944D01*
X3094540Y38500000D01*
X3095230Y38493435D01*
X3108384Y38368284D01*
X3114326Y38311744D01*
X3172821Y38131716D01*
X3176124Y38125994D01*
X3176125Y38125993D01*
X3195914Y38091718D01*
X3267467Y37967784D01*
X3271885Y37962877D01*
X3271886Y37962876D01*
X3310052Y37920489D01*
X3394129Y37827112D01*
X3399468Y37823233D01*
X3470040Y37771960D01*
X3547270Y37715849D01*
X3649752Y37670221D01*
X3703845Y37624242D01*
X3724500Y37555116D01*
X3724500Y36976153D01*
X3704498Y36908032D01*
X3650842Y36861539D01*
X3634078Y36855281D01*
X3623393Y36852136D01*
X3539818Y36808444D01*
X3454972Y36764088D01*
X3454968Y36764085D01*
X3449512Y36761233D01*
X3444712Y36757373D01*
X3444711Y36757373D01*
X3410326Y36729727D01*
X3296600Y36638289D01*
X3170480Y36487984D01*
X3167516Y36482592D01*
X3167513Y36482588D01*
X3132136Y36418237D01*
X3075956Y36316046D01*
X3074095Y36310179D01*
X3074094Y36310177D01*
X3052103Y36240852D01*
X3016628Y36129022D01*
X2994757Y35934037D01*
X300500Y35934037D01*
X300500Y44955147D01*
X3239977Y44955147D01*
X3245258Y44948093D01*
X3406756Y44853721D01*
X3416042Y44849271D01*
X3615001Y44773297D01*
X3624899Y44770421D01*
X3833595Y44727962D01*
X3843823Y44726743D01*
X4056650Y44718938D01*
X4066936Y44719405D01*
X4278185Y44746466D01*
X4288262Y44748608D01*
X4492255Y44809809D01*
X4501842Y44813567D01*
X4693098Y44907262D01*
X4701944Y44912535D01*
X4749247Y44946277D01*
X4757648Y44956977D01*
X4750660Y44970130D01*
X4012812Y45707978D01*
X3998868Y45715592D01*
X3997035Y45715461D01*
X3990420Y45711210D01*
X3246737Y44967527D01*
X3239977Y44955147D01*
X300500Y44955147D01*
X300500Y46108137D01*
X2638050Y46108137D01*
X2650309Y45895523D01*
X2651745Y45885303D01*
X2698565Y45677554D01*
X2701645Y45667725D01*
X2781770Y45470397D01*
X2786413Y45461206D01*
X2866460Y45330580D01*
X2876916Y45321120D01*
X2885694Y45324904D01*
X3627978Y46067188D01*
X3634356Y46078868D01*
X4364408Y46078868D01*
X4364539Y46077035D01*
X4368790Y46070420D01*
X5110474Y45328736D01*
X5122484Y45322177D01*
X5134223Y45331145D01*
X5165004Y45373981D01*
X5170315Y45382820D01*
X5264670Y45573733D01*
X5268469Y45583328D01*
X5330376Y45787085D01*
X5332555Y45797166D01*
X5360590Y46010113D01*
X5361109Y46016788D01*
X5362572Y46076636D01*
X5362378Y46083354D01*
X5344781Y46297396D01*
X5343096Y46307576D01*
X5291214Y46514125D01*
X5287894Y46523876D01*
X5202972Y46719186D01*
X5198105Y46728261D01*
X5133063Y46828803D01*
X5122377Y46838005D01*
X5112812Y46833602D01*
X4372022Y46092812D01*
X4364408Y46078868D01*
X3634356Y46078868D01*
X3635592Y46081132D01*
X3635461Y46082965D01*
X3631210Y46089580D01*
X2889849Y46830941D01*
X2878313Y46837241D01*
X2866031Y46827618D01*
X2818089Y46757338D01*
X2813004Y46748387D01*
X2723338Y46555217D01*
X2719775Y46545530D01*
X2662864Y46340319D01*
X2660933Y46330200D01*
X2638302Y46118426D01*
X2638050Y46108137D01*
X300500Y46108137D01*
X300500Y47203573D01*
X3241223Y47203573D01*
X3247968Y47191242D01*
X3987188Y46452022D01*
X4001132Y46444408D01*
X4002965Y46444539D01*
X4009580Y46448790D01*
X4753389Y47192599D01*
X4760410Y47205456D01*
X4753611Y47214787D01*
X4749554Y47217482D01*
X4563117Y47320401D01*
X4553705Y47324631D01*
X4352959Y47395720D01*
X4342989Y47398354D01*
X4133327Y47435699D01*
X4123073Y47436669D01*
X3910116Y47439272D01*
X3899832Y47438552D01*
X3689321Y47406339D01*
X3679293Y47403950D01*
X3476868Y47337788D01*
X3467359Y47333791D01*
X3278466Y47235460D01*
X3269734Y47229961D01*
X3249677Y47214901D01*
X3241223Y47203573D01*
X300500Y47203573D01*
X300500Y50962683D01*
X302414Y50984563D01*
X303222Y50989145D01*
X305136Y51000000D01*
X303222Y51010855D01*
X303222Y51021294D01*
X302438Y51034512D01*
X305604Y51090878D01*
X317077Y51295187D01*
X318659Y51309224D01*
X324818Y51345470D01*
X354277Y51518855D01*
X366997Y51593719D01*
X370141Y51607494D01*
X418311Y51774696D01*
X450031Y51884799D01*
X454692Y51898118D01*
X565129Y52164736D01*
X571260Y52177466D01*
X710841Y52430020D01*
X718358Y52441985D01*
X885353Y52677342D01*
X894163Y52688389D01*
X1086450Y52903559D01*
X1096441Y52913550D01*
X1311611Y53105837D01*
X1322658Y53114647D01*
X1558015Y53281642D01*
X1569980Y53289159D01*
X1822534Y53428740D01*
X1835264Y53434871D01*
X1886551Y53456115D01*
X2101882Y53545308D01*
X2115201Y53549969D01*
X2306153Y53604981D01*
X2392506Y53629859D01*
X2406281Y53633003D01*
X2548529Y53657172D01*
X2690781Y53681342D01*
X2704813Y53682923D01*
X2965491Y53697562D01*
X2978706Y53696778D01*
X2989145Y53696778D01*
X3000000Y53694864D01*
X3015437Y53697586D01*
X3037317Y53699500D01*
X14962683Y53699500D01*
X14984563Y53697586D01*
X14989145Y53696778D01*
X15000000Y53694864D01*
X15003721Y53695520D01*
X15013530Y53696113D01*
X15013531Y53696113D01*
X15274004Y53711869D01*
X15274009Y53711870D01*
X15277801Y53712099D01*
X15551552Y53762266D01*
X15817260Y53845063D01*
X15820730Y53846625D01*
X15820736Y53846627D01*
X15981948Y53919183D01*
X16071050Y53959285D01*
X16074311Y53961257D01*
X16074316Y53961259D01*
X16108341Y53981828D01*
X16173526Y54000000D01*
X17000000Y54000000D01*
X17000000Y54826474D01*
X17018172Y54891659D01*
X17038741Y54925684D01*
X17038743Y54925689D01*
X17040715Y54928950D01*
X17154937Y55182740D01*
X17237734Y55448448D01*
X17287901Y55722199D01*
X17297823Y55886217D01*
X17303827Y55985484D01*
X17304480Y55996279D01*
X17305136Y56000000D01*
X17302414Y56015437D01*
X17300500Y56037317D01*
X17300500Y56495456D01*
X24353863Y56495456D01*
X24355414Y56485663D01*
X24361336Y56448276D01*
X24373709Y56370152D01*
X24431305Y56257114D01*
X24521013Y56167406D01*
X24634051Y56109810D01*
X24643840Y56108260D01*
X24643842Y56108259D01*
X24749562Y56091515D01*
X24759355Y56089964D01*
X24769148Y56091515D01*
X24874868Y56108259D01*
X24874870Y56108260D01*
X24884659Y56109810D01*
X24997697Y56167406D01*
X25087405Y56257114D01*
X25090289Y56262774D01*
X25144945Y56304918D01*
X25215682Y56310992D01*
X25278472Y56277858D01*
X25313382Y56216037D01*
X25315105Y56207212D01*
X25330778Y56108259D01*
X25333121Y56093463D01*
X25390717Y55980425D01*
X25480425Y55890717D01*
X25593463Y55833121D01*
X25603252Y55831571D01*
X25603254Y55831570D01*
X25708974Y55814826D01*
X25718767Y55813275D01*
X25728560Y55814826D01*
X25834280Y55831570D01*
X25834282Y55831571D01*
X25844071Y55833121D01*
X25957109Y55890717D01*
X26046817Y55980425D01*
X26104413Y56093463D01*
X26106757Y56108259D01*
X26122708Y56208974D01*
X26124259Y56218767D01*
X26119296Y56250103D01*
X26105964Y56334280D01*
X26105963Y56334282D01*
X26104413Y56344071D01*
X26046817Y56457109D01*
X25957109Y56546817D01*
X25844071Y56604413D01*
X25834282Y56605963D01*
X25834280Y56605964D01*
X25728560Y56622708D01*
X25718767Y56624259D01*
X25708974Y56622708D01*
X25603254Y56605964D01*
X25603252Y56605963D01*
X25593463Y56604413D01*
X25480425Y56546817D01*
X25390717Y56457109D01*
X25387833Y56451449D01*
X25333177Y56409305D01*
X25262440Y56403231D01*
X25199650Y56436365D01*
X25164740Y56498186D01*
X25163017Y56507011D01*
X25146552Y56610968D01*
X25146552Y56610969D01*
X25145001Y56620760D01*
X25087405Y56733798D01*
X24997697Y56823506D01*
X24884659Y56881102D01*
X24874870Y56882652D01*
X24874868Y56882653D01*
X24769148Y56899397D01*
X24759355Y56900948D01*
X24749562Y56899397D01*
X24643842Y56882653D01*
X24643840Y56882652D01*
X24634051Y56881102D01*
X24521013Y56823506D01*
X24431305Y56733798D01*
X24373709Y56620760D01*
X24372159Y56610971D01*
X24372158Y56610969D01*
X24371120Y56604413D01*
X24353863Y56495456D01*
X17300500Y56495456D01*
X17300500Y57021499D01*
X17320502Y57089620D01*
X17374158Y57136113D01*
X17444432Y57146217D01*
X17509012Y57116723D01*
X17544366Y57066037D01*
X17576973Y56979745D01*
X17669579Y56845003D01*
X17675249Y56839952D01*
X17675250Y56839950D01*
X17701576Y56816495D01*
X17791652Y56736240D01*
X17798361Y56732688D01*
X17798362Y56732687D01*
X17929434Y56663288D01*
X17929436Y56663287D01*
X17936145Y56659735D01*
X17987215Y56646907D01*
X18087345Y56621756D01*
X18087349Y56621756D01*
X18094716Y56619905D01*
X18102315Y56619865D01*
X18102317Y56619865D01*
X18170347Y56619509D01*
X18258210Y56619049D01*
X18265590Y56620821D01*
X18265592Y56620821D01*
X18409811Y56655444D01*
X18409815Y56655445D01*
X18417190Y56657216D01*
X18562476Y56732204D01*
X18568200Y56737197D01*
X18679956Y56834688D01*
X18679959Y56834691D01*
X18685681Y56839683D01*
X18779693Y56973448D01*
X18839083Y57125776D01*
X18855500Y57250473D01*
X18855500Y58140737D01*
X18875502Y58208858D01*
X18929158Y58255351D01*
X18999432Y58265455D01*
X19064012Y58235961D01*
X19102396Y58176235D01*
X19105014Y58165642D01*
X19109064Y58145556D01*
X19174429Y58017270D01*
X19271884Y57911288D01*
X19394250Y57835418D01*
X19532512Y57795249D01*
X19539327Y57794749D01*
X19540404Y57794669D01*
X19540417Y57794669D01*
X19542712Y57794500D01*
X19646070Y57794500D01*
X19650315Y57795082D01*
X19650322Y57795082D01*
X19709231Y57803152D01*
X19752646Y57809099D01*
X19807929Y57833022D01*
X19876902Y57862869D01*
X19876905Y57862871D01*
X19884783Y57866280D01*
X19996675Y57956888D01*
X20080079Y58074249D01*
X20112983Y58165642D01*
X20125942Y58201637D01*
X20125942Y58201639D01*
X20128850Y58209715D01*
X20130778Y58235961D01*
X20138765Y58344744D01*
X20139394Y58353307D01*
X20110936Y58494444D01*
X20045571Y58622730D01*
X19948116Y58728712D01*
X19913782Y58750000D01*
X20594508Y58750000D01*
X20614354Y58624696D01*
X20671950Y58511658D01*
X20761658Y58421950D01*
X20874696Y58364354D01*
X20884485Y58362804D01*
X20884487Y58362803D01*
X20990207Y58346059D01*
X21000000Y58344508D01*
X21009793Y58346059D01*
X21115513Y58362803D01*
X21115515Y58362804D01*
X21125304Y58364354D01*
X21238342Y58421950D01*
X21328050Y58511658D01*
X21385646Y58624696D01*
X21405492Y58750000D01*
X23594508Y58750000D01*
X23614354Y58624696D01*
X23671950Y58511658D01*
X23761658Y58421950D01*
X23874696Y58364354D01*
X23884485Y58362804D01*
X23884487Y58362803D01*
X23990207Y58346059D01*
X24000000Y58344508D01*
X24009793Y58346059D01*
X24115513Y58362803D01*
X24115515Y58362804D01*
X24125304Y58364354D01*
X24238342Y58421950D01*
X24328050Y58511658D01*
X24385646Y58624696D01*
X24405492Y58750000D01*
X24390393Y58845331D01*
X24387197Y58865513D01*
X24387196Y58865515D01*
X24385646Y58875304D01*
X24328050Y58988342D01*
X24238342Y59078050D01*
X24125304Y59135646D01*
X24115515Y59137196D01*
X24115513Y59137197D01*
X24009793Y59153941D01*
X24000000Y59155492D01*
X23990207Y59153941D01*
X23884487Y59137197D01*
X23884485Y59137196D01*
X23874696Y59135646D01*
X23761658Y59078050D01*
X23671950Y58988342D01*
X23614354Y58875304D01*
X23612804Y58865515D01*
X23612803Y58865513D01*
X23609607Y58845331D01*
X23594508Y58750000D01*
X21405492Y58750000D01*
X21390393Y58845331D01*
X21387197Y58865513D01*
X21387196Y58865515D01*
X21385646Y58875304D01*
X21328050Y58988342D01*
X21238342Y59078050D01*
X21125304Y59135646D01*
X21115515Y59137196D01*
X21115513Y59137197D01*
X21009793Y59153941D01*
X21000000Y59155492D01*
X20990207Y59153941D01*
X20884487Y59137197D01*
X20884485Y59137196D01*
X20874696Y59135646D01*
X20761658Y59078050D01*
X20671950Y58988342D01*
X20614354Y58875304D01*
X20612804Y58865515D01*
X20612803Y58865513D01*
X20609607Y58845331D01*
X20594508Y58750000D01*
X19913782Y58750000D01*
X19825750Y58804582D01*
X19687488Y58844751D01*
X19680673Y58845251D01*
X19679596Y58845331D01*
X19679583Y58845331D01*
X19677288Y58845500D01*
X19573930Y58845500D01*
X19569685Y58844918D01*
X19569678Y58844918D01*
X19510769Y58836848D01*
X19467354Y58830901D01*
X19459470Y58827489D01*
X19459469Y58827489D01*
X19343098Y58777131D01*
X19343095Y58777129D01*
X19335217Y58773720D01*
X19223325Y58683112D01*
X19139921Y58565751D01*
X19091150Y58430285D01*
X19088208Y58431344D01*
X19061674Y58382188D01*
X18999526Y58347863D01*
X18928687Y58352586D01*
X18871647Y58394859D01*
X18847063Y58455716D01*
X18843395Y58486023D01*
X18840819Y58507313D01*
X18783027Y58660255D01*
X18774427Y58672768D01*
X18694723Y58788738D01*
X18694722Y58788739D01*
X18690421Y58794997D01*
X18568348Y58903760D01*
X18561638Y58907313D01*
X18430566Y58976712D01*
X18430564Y58976713D01*
X18423855Y58980265D01*
X18363787Y58995353D01*
X18272655Y59018244D01*
X18272651Y59018244D01*
X18265284Y59020095D01*
X18257685Y59020135D01*
X18257683Y59020135D01*
X18189653Y59020491D01*
X18101790Y59020951D01*
X18094410Y59019179D01*
X18094408Y59019179D01*
X17950189Y58984556D01*
X17950185Y58984555D01*
X17942810Y58982784D01*
X17797524Y58907796D01*
X17791802Y58902804D01*
X17791800Y58902803D01*
X17680044Y58805312D01*
X17680041Y58805309D01*
X17674319Y58800317D01*
X17580307Y58666552D01*
X17565687Y58629053D01*
X17543893Y58573155D01*
X17500512Y58516954D01*
X17433633Y58493127D01*
X17364489Y58509241D01*
X17315033Y58560178D01*
X17300500Y58618925D01*
X17300500Y61295532D01*
X17320502Y61363653D01*
X17374158Y61410146D01*
X17444432Y61420250D01*
X17509012Y61390756D01*
X17542823Y61336108D01*
X17544929Y61336942D01*
X17605432Y61184129D01*
X17702037Y61051163D01*
X17828674Y60946400D01*
X17977387Y60876421D01*
X17985170Y60874936D01*
X17985174Y60874935D01*
X18131044Y60847109D01*
X18131046Y60847109D01*
X18138830Y60845624D01*
X18220845Y60850784D01*
X18294949Y60855446D01*
X18294951Y60855446D01*
X18302860Y60855944D01*
X18310396Y60858393D01*
X18310398Y60858393D01*
X18365882Y60876421D01*
X18459171Y60906732D01*
X18597940Y60994798D01*
X18710448Y61114607D01*
X18752720Y61191498D01*
X18785807Y61251684D01*
X18789627Y61258632D01*
X18799102Y61295532D01*
X18828529Y61410146D01*
X18828529Y61410147D01*
X18830500Y61417823D01*
X18830500Y62540925D01*
X18821869Y62609244D01*
X18816065Y62655193D01*
X18816064Y62655196D01*
X18815071Y62663058D01*
X18754568Y62815871D01*
X18657963Y62948837D01*
X18624625Y62976417D01*
X18584888Y63035249D01*
X18583266Y63106227D01*
X18620276Y63166815D01*
X18684166Y63197775D01*
X18704942Y63199500D01*
X26293349Y63199500D01*
X26361470Y63179498D01*
G37*
%TD.AperFunction*%
%TA.AperFunction,Conductor*%
G36*
X19054541Y20729009D02*
G01*
X19101034Y20675353D01*
X19110869Y20603300D01*
X19094508Y20500000D01*
X19096059Y20490207D01*
X19110869Y20396700D01*
X19101769Y20326289D01*
X19056047Y20271975D01*
X18986420Y20250989D01*
X17515032Y20250989D01*
X17490450Y20253410D01*
X17487660Y20253965D01*
X17475489Y20256386D01*
X17463318Y20253965D01*
X17448357Y20250989D01*
X17448356Y20250989D01*
X17367994Y20235004D01*
X17344197Y20219103D01*
X17299867Y20189483D01*
X17299866Y20189482D01*
X17276865Y20174113D01*
X17269974Y20163800D01*
X17268387Y20161425D01*
X17252717Y20142333D01*
X16983156Y19872772D01*
X16964064Y19857102D01*
X16951376Y19848624D01*
X16944485Y19838311D01*
X16936007Y19825623D01*
X16936006Y19825622D01*
X16922492Y19805397D01*
X16899169Y19770491D01*
X16890485Y19757495D01*
X16886011Y19735004D01*
X16869103Y19650000D01*
X16871524Y19637829D01*
X16872079Y19635039D01*
X16874500Y19610457D01*
X16874500Y19255154D01*
X16854498Y19187033D01*
X16799750Y19140048D01*
X16744632Y19115507D01*
X16722408Y19105612D01*
X16717067Y19101732D01*
X16717066Y19101731D01*
X16611513Y19025042D01*
X16544645Y19001183D01*
X16475494Y19017264D01*
X16426013Y19068178D01*
X16413004Y19107266D01*
X16411699Y19115507D01*
X16411696Y19115515D01*
X16410146Y19125304D01*
X16352550Y19238342D01*
X16262842Y19328050D01*
X16227272Y19346174D01*
X16175657Y19394923D01*
X16158591Y19463838D01*
X16181492Y19531039D01*
X16195380Y19547536D01*
X17359950Y20712106D01*
X17422262Y20746132D01*
X17449045Y20749011D01*
X18986420Y20749011D01*
X19054541Y20729009D01*
G37*
%TD.AperFunction*%
%TA.AperFunction,Conductor*%
G36*
X21054541Y20729009D02*
G01*
X21101034Y20675353D01*
X21110869Y20603300D01*
X21094508Y20500000D01*
X21096059Y20490207D01*
X21110869Y20396700D01*
X21101769Y20326289D01*
X21056047Y20271975D01*
X20986420Y20250989D01*
X20013580Y20250989D01*
X19945459Y20270991D01*
X19898966Y20324647D01*
X19889131Y20396700D01*
X19903941Y20490207D01*
X19905492Y20500000D01*
X19889131Y20603300D01*
X19898231Y20673711D01*
X19943953Y20728025D01*
X20013580Y20749011D01*
X20986420Y20749011D01*
X21054541Y20729009D01*
G37*
%TD.AperFunction*%
%TA.AperFunction,Conductor*%
G36*
X23054541Y20729009D02*
G01*
X23101034Y20675353D01*
X23110869Y20603300D01*
X23094508Y20500000D01*
X23096059Y20490207D01*
X23110869Y20396700D01*
X23101769Y20326289D01*
X23056047Y20271975D01*
X22986420Y20250989D01*
X22013580Y20250989D01*
X21945459Y20270991D01*
X21898966Y20324647D01*
X21889131Y20396700D01*
X21903941Y20490207D01*
X21905492Y20500000D01*
X21889131Y20603300D01*
X21898231Y20673711D01*
X21943953Y20728025D01*
X22013580Y20749011D01*
X22986420Y20749011D01*
X23054541Y20729009D01*
G37*
%TD.AperFunction*%
%TA.AperFunction,Conductor*%
G36*
X21244576Y25054498D02*
G01*
X21265550Y25037595D01*
X21562595Y24740550D01*
X21596621Y24678238D01*
X21599500Y24651455D01*
X21599500Y23256992D01*
X21579498Y23188871D01*
X21562595Y23167897D01*
X20931614Y22536916D01*
X20869302Y22502890D01*
X20842519Y22500011D01*
X20542230Y22500011D01*
X20474109Y22520013D01*
X20427616Y22573669D01*
X20417781Y22645722D01*
X20419329Y22655492D01*
X20430181Y22724011D01*
X20411574Y22841493D01*
X20394347Y22875304D01*
X20362073Y22938644D01*
X20357573Y22947476D01*
X20273465Y23031584D01*
X20185053Y23076632D01*
X20176316Y23081084D01*
X20176315Y23081084D01*
X20167482Y23085585D01*
X20050000Y23104192D01*
X19932518Y23085585D01*
X19923685Y23081084D01*
X19923684Y23081084D01*
X19914947Y23076632D01*
X19826535Y23031584D01*
X19757356Y22962405D01*
X19695044Y22928379D01*
X19668261Y22925500D01*
X18416306Y22925500D01*
X18348185Y22945502D01*
X18327211Y22962405D01*
X18248761Y23040855D01*
X18233091Y23059947D01*
X18231504Y23062322D01*
X18224613Y23072635D01*
X18201612Y23088004D01*
X18201611Y23088005D01*
X18173545Y23106758D01*
X18133484Y23133526D01*
X18053122Y23149511D01*
X18038161Y23152487D01*
X18038160Y23152487D01*
X18025989Y23154908D01*
X18013818Y23152487D01*
X18011028Y23151932D01*
X17986446Y23149511D01*
X16413553Y23149511D01*
X16388973Y23151932D01*
X16386183Y23152487D01*
X16374011Y23154908D01*
X16361839Y23152487D01*
X16349431Y23152487D01*
X16349431Y23155978D01*
X16299377Y23160459D01*
X16243312Y23204015D01*
X16219694Y23270968D01*
X16236024Y23340061D01*
X16256419Y23366803D01*
X16577211Y23687595D01*
X16639523Y23721621D01*
X16666306Y23724500D01*
X20004960Y23724500D01*
X20029542Y23722079D01*
X20044503Y23719103D01*
X20071635Y23724500D01*
X20071636Y23724500D01*
X20151998Y23740485D01*
X20193968Y23768529D01*
X20193968Y23768528D01*
X20193971Y23768531D01*
X20220125Y23786006D01*
X20222692Y23782165D01*
X20222693Y23782166D01*
X20220126Y23786007D01*
X20232814Y23794485D01*
X20243127Y23801376D01*
X20251607Y23814066D01*
X20267274Y23833155D01*
X20496689Y24062570D01*
X20566073Y24097924D01*
X20660016Y24112803D01*
X20660018Y24112804D01*
X20669807Y24114354D01*
X20782845Y24171950D01*
X20872553Y24261658D01*
X20930149Y24374696D01*
X20932311Y24388342D01*
X20948444Y24490207D01*
X20949995Y24500000D01*
X20948444Y24509793D01*
X20931700Y24615513D01*
X20931699Y24615515D01*
X20930149Y24625304D01*
X20872553Y24738342D01*
X20782845Y24828050D01*
X20783740Y24828945D01*
X20746461Y24877295D01*
X20740389Y24948032D01*
X20773524Y25010822D01*
X20783547Y25019507D01*
X20788342Y25021950D01*
X20803987Y25037595D01*
X20866299Y25071621D01*
X20893082Y25074500D01*
X21176455Y25074500D01*
X21244576Y25054498D01*
G37*
%TD.AperFunction*%
%TA.AperFunction,Conductor*%
G36*
X24767501Y24354498D02*
G01*
X24788475Y24337595D01*
X25117627Y24008443D01*
X25151653Y23946131D01*
X25146588Y23875316D01*
X25104041Y23818480D01*
X25037521Y23793669D01*
X25028532Y23793348D01*
X23948458Y23793348D01*
X23880337Y23813350D01*
X23859363Y23830253D01*
X23587430Y24102186D01*
X23552076Y24171570D01*
X23543241Y24227350D01*
X23552340Y24297761D01*
X23598062Y24352075D01*
X23665890Y24373048D01*
X23682589Y24371524D01*
X23687829Y24371524D01*
X23700000Y24369103D01*
X23714961Y24372079D01*
X23739543Y24374500D01*
X24699380Y24374500D01*
X24767501Y24354498D01*
G37*
%TD.AperFunction*%
%TA.AperFunction,Conductor*%
G36*
X26820660Y26794334D02*
G01*
X26868105Y26741518D01*
X26879463Y26671436D01*
X26870995Y26643872D01*
X26871920Y26643571D01*
X26868854Y26634137D01*
X26864354Y26625304D01*
X26862804Y26615515D01*
X26862803Y26615513D01*
X26850499Y26537829D01*
X26844508Y26500000D01*
X26846059Y26490207D01*
X26860397Y26399682D01*
X26864354Y26374696D01*
X26921950Y26261658D01*
X27011658Y26171950D01*
X27123367Y26115031D01*
X27124696Y26114354D01*
X27123706Y26112412D01*
X27171458Y26079759D01*
X27199095Y26014362D01*
X27186988Y25944405D01*
X27138981Y25892100D01*
X27124932Y25885683D01*
X27124696Y25885646D01*
X27011658Y25828050D01*
X26921950Y25738342D01*
X26864354Y25625304D01*
X26862803Y25615511D01*
X26862802Y25615508D01*
X26861792Y25609134D01*
X26831378Y25544982D01*
X26771109Y25507457D01*
X26700120Y25508472D01*
X26640949Y25547706D01*
X26617650Y25598730D01*
X26616190Y25598256D01*
X26613125Y25607690D01*
X26611574Y25617482D01*
X26557573Y25723465D01*
X26473465Y25807573D01*
X26367482Y25861574D01*
X26250000Y25880181D01*
X26132518Y25861574D01*
X26026535Y25807573D01*
X25942427Y25723465D01*
X25937927Y25714633D01*
X25937925Y25714630D01*
X25911027Y25661841D01*
X25862279Y25610226D01*
X25793364Y25593161D01*
X25726163Y25616062D01*
X25709666Y25629950D01*
X25280211Y26059405D01*
X25246185Y26121717D01*
X25251250Y26192532D01*
X25293797Y26249368D01*
X25360317Y26274179D01*
X25369306Y26274500D01*
X25710457Y26274500D01*
X25735037Y26272079D01*
X25737827Y26271524D01*
X25737829Y26271524D01*
X25750000Y26269103D01*
X25762171Y26271524D01*
X25764962Y26272079D01*
X25787364Y26276535D01*
X25857495Y26290485D01*
X25948624Y26351376D01*
X25966157Y26377615D01*
X26002620Y26432186D01*
X26009515Y26442505D01*
X26030897Y26550000D01*
X26030657Y26551206D01*
X26048478Y26611898D01*
X26065381Y26632872D01*
X26120104Y26687595D01*
X26182416Y26721621D01*
X26209199Y26724500D01*
X26460457Y26724500D01*
X26485039Y26722079D01*
X26500000Y26719103D01*
X26527132Y26724500D01*
X26527133Y26724500D01*
X26607495Y26740485D01*
X26658219Y26774378D01*
X26675622Y26786006D01*
X26675623Y26786007D01*
X26675665Y26786035D01*
X26684440Y26791898D01*
X26752193Y26813115D01*
X26820660Y26794334D01*
G37*
%TD.AperFunction*%
%TA.AperFunction,Conductor*%
G36*
X18644008Y27416987D02*
G01*
X18700844Y27374440D01*
X18725655Y27307920D01*
X18723555Y27274352D01*
X18718614Y27249511D01*
X18721035Y27237340D01*
X18721590Y27234550D01*
X18724011Y27209968D01*
X18724011Y26492229D01*
X18704009Y26424108D01*
X18650353Y26377615D01*
X18578301Y26367780D01*
X18509793Y26378630D01*
X18500000Y26380181D01*
X18490207Y26378630D01*
X18465368Y26374696D01*
X18382518Y26361574D01*
X18373685Y26357073D01*
X18373684Y26357073D01*
X18316739Y26328058D01*
X18246962Y26314954D01*
X18181177Y26341654D01*
X18140271Y26399682D01*
X18137231Y26470613D01*
X18154771Y26510327D01*
X18203120Y26582686D01*
X18210015Y26593005D01*
X18226000Y26673367D01*
X18226000Y26673368D01*
X18231397Y26700500D01*
X18228421Y26715461D01*
X18226000Y26740043D01*
X18226000Y27050955D01*
X18246002Y27119076D01*
X18262905Y27140050D01*
X18510881Y27388026D01*
X18573193Y27422052D01*
X18644008Y27416987D01*
G37*
%TD.AperFunction*%
%TA.AperFunction,Conductor*%
G36*
X18996833Y51154498D02*
G01*
X19043326Y51100842D01*
X19053430Y51030568D01*
X19023936Y50965988D01*
X18965277Y50927922D01*
X18844590Y50891324D01*
X18844588Y50891323D01*
X18838668Y50889528D01*
X18699604Y50815214D01*
X18641297Y50767372D01*
X18582506Y50719132D01*
X18577710Y50715197D01*
X18477670Y50593322D01*
X18403330Y50454272D01*
X18401533Y50448350D01*
X18367470Y50336096D01*
X18357545Y50303390D01*
X18356938Y50297235D01*
X18356938Y50297234D01*
X18348846Y50215156D01*
X18347774Y50208852D01*
X18346566Y50205825D01*
X18345949Y50199532D01*
X18345949Y50191970D01*
X18345341Y50179607D01*
X18343513Y50161067D01*
X18343226Y50158979D01*
X18343226Y50158155D01*
X18343041Y50156279D01*
X18341312Y50146476D01*
X18343225Y50135622D01*
X18344037Y50131013D01*
X18345949Y50109145D01*
X18345948Y49574007D01*
X18345946Y47683739D01*
X18344034Y47661872D01*
X18341311Y47646419D01*
X18343031Y47636672D01*
X18341677Y47619442D01*
X18339307Y47604468D01*
X18327129Y47566976D01*
X18316928Y47546949D01*
X18316905Y47546904D01*
X18293741Y47515016D01*
X18277817Y47499088D01*
X18245921Y47475910D01*
X18225861Y47465687D01*
X18188372Y47453502D01*
X18173998Y47451224D01*
X18156351Y47449833D01*
X18146418Y47451584D01*
X18133931Y47449381D01*
X18131000Y47448864D01*
X18109109Y47446948D01*
X17146491Y47446947D01*
X16183785Y47446946D01*
X16161893Y47448862D01*
X16161882Y47448864D01*
X16146476Y47451582D01*
X16135623Y47449670D01*
X16134316Y47449670D01*
X16130671Y47449170D01*
X16108066Y47446946D01*
X15995723Y47435892D01*
X15995719Y47435891D01*
X15989558Y47435285D01*
X15899453Y47407961D01*
X15844590Y47391324D01*
X15844588Y47391323D01*
X15838668Y47389528D01*
X15699604Y47315214D01*
X15577710Y47215197D01*
X15477670Y47093322D01*
X15474755Y47087869D01*
X15474753Y47087866D01*
X15469287Y47077642D01*
X15403330Y46954272D01*
X15357545Y46803390D01*
X15356938Y46797229D01*
X15356937Y46797225D01*
X15348847Y46715164D01*
X15347774Y46708855D01*
X15346565Y46705825D01*
X15345948Y46699532D01*
X15345948Y46691960D01*
X15345340Y46679597D01*
X15343513Y46661067D01*
X15343226Y46658979D01*
X15343226Y46658155D01*
X15343041Y46656279D01*
X15341312Y46646476D01*
X15343225Y46635622D01*
X15344036Y46631019D01*
X15345948Y46609151D01*
X15345948Y44340262D01*
X15325946Y44272141D01*
X15272290Y44225648D01*
X15202016Y44215544D01*
X15137722Y44244790D01*
X15122378Y44258005D01*
X15112812Y44253602D01*
X14372022Y43512812D01*
X14364408Y43498868D01*
X14364539Y43497035D01*
X14368790Y43490420D01*
X15110474Y42748736D01*
X15122485Y42742177D01*
X15143459Y42758200D01*
X15209734Y42783658D01*
X15279252Y42769244D01*
X15329942Y42719534D01*
X15345948Y42658073D01*
X15345948Y35683785D01*
X15344032Y35661893D01*
X15341312Y35646476D01*
X15343040Y35636671D01*
X15343225Y35634790D01*
X15343225Y35633969D01*
X15343512Y35631875D01*
X15357519Y35489540D01*
X15403286Y35338633D01*
X15406207Y35333168D01*
X15463239Y35226461D01*
X15477618Y35199557D01*
X15577656Y35077656D01*
X15699557Y34977618D01*
X15705011Y34974703D01*
X15705014Y34974701D01*
X15773475Y34938111D01*
X15838633Y34903286D01*
X15989540Y34857519D01*
X16077750Y34848838D01*
X16084058Y34847766D01*
X16087069Y34846565D01*
X16093362Y34845948D01*
X16100939Y34845948D01*
X16113279Y34845342D01*
X16131874Y34843512D01*
X16133969Y34843225D01*
X16134790Y34843225D01*
X16136671Y34843040D01*
X16146476Y34841312D01*
X16161893Y34844032D01*
X16183785Y34845948D01*
X17146491Y34845947D01*
X18109109Y34845946D01*
X18131001Y34844030D01*
X18146418Y34841310D01*
X18156168Y34843028D01*
X18173401Y34841670D01*
X18188364Y34839299D01*
X18225851Y34827117D01*
X18245917Y34816892D01*
X18277805Y34793722D01*
X18293722Y34777805D01*
X18316892Y34745917D01*
X18327117Y34725851D01*
X18339299Y34688364D01*
X18341670Y34673401D01*
X18343028Y34656168D01*
X18341310Y34646418D01*
X18343225Y34635564D01*
X18344030Y34631000D01*
X18345946Y34609109D01*
X18345948Y32183785D01*
X18344032Y32161893D01*
X18341312Y32146476D01*
X18343040Y32136671D01*
X18343225Y32134790D01*
X18343225Y32133969D01*
X18343512Y32131875D01*
X18357519Y31989540D01*
X18403286Y31838633D01*
X18406207Y31833168D01*
X18450658Y31750000D01*
X18477618Y31699557D01*
X18577656Y31577656D01*
X18699557Y31477618D01*
X18705011Y31474703D01*
X18705014Y31474701D01*
X18761313Y31444611D01*
X18838633Y31403286D01*
X18989540Y31357519D01*
X19042186Y31352338D01*
X19108020Y31325761D01*
X19149034Y31267809D01*
X19152207Y31196884D01*
X19116530Y31135502D01*
X19053332Y31103152D01*
X19029845Y31100944D01*
X13262614Y31100944D01*
X13194493Y31120946D01*
X13173519Y31137849D01*
X10287405Y34023963D01*
X10253379Y34086275D01*
X10250500Y34113058D01*
X10250500Y35695388D01*
X10270502Y35763509D01*
X10301037Y35789967D01*
X10294576Y35793337D01*
X10453044Y35793337D01*
X10459012Y35790612D01*
X10497396Y35730886D01*
X10501083Y35714229D01*
X10525935Y35549903D01*
X10596119Y35359148D01*
X10599479Y35353728D01*
X10599480Y35353727D01*
X10699863Y35191824D01*
X10699866Y35191820D01*
X10703226Y35186401D01*
X10707612Y35181763D01*
X10801547Y35082430D01*
X10842881Y35038720D01*
X11009379Y34922137D01*
X11195919Y34841414D01*
X11220992Y34836176D01*
X11390144Y34800838D01*
X11390149Y34800837D01*
X11394880Y34799849D01*
X11399762Y34799593D01*
X11399871Y34799587D01*
X11399887Y34799587D01*
X11401539Y34799500D01*
X12550800Y34799500D01*
X12598793Y34804375D01*
X12695868Y34814235D01*
X12695870Y34814235D01*
X12702216Y34814880D01*
X12896172Y34875662D01*
X13073944Y34974203D01*
X13084305Y34983083D01*
X13156598Y35045046D01*
X13228271Y35106477D01*
X13352848Y35267081D01*
X13442587Y35449455D01*
X13451486Y35483619D01*
X13492212Y35639966D01*
X13492212Y35639969D01*
X13493822Y35646148D01*
X13501393Y35790612D01*
X13504125Y35842744D01*
X13504125Y35842748D01*
X13504459Y35849126D01*
X13474065Y36050097D01*
X13403881Y36240852D01*
X13360898Y36310177D01*
X13300137Y36408176D01*
X13300134Y36408180D01*
X13296774Y36413599D01*
X13215069Y36500000D01*
X13161508Y36556639D01*
X13161507Y36556640D01*
X13157119Y36561280D01*
X12990621Y36677863D01*
X12804081Y36758586D01*
X12758053Y36768202D01*
X12609856Y36799162D01*
X12609851Y36799163D01*
X12605120Y36800151D01*
X12600238Y36800407D01*
X12600129Y36800413D01*
X12600113Y36800413D01*
X12598461Y36800500D01*
X11449200Y36800500D01*
X11401207Y36795625D01*
X11304132Y36785765D01*
X11304130Y36785765D01*
X11297784Y36785120D01*
X11103828Y36724338D01*
X10926056Y36625797D01*
X10771729Y36493523D01*
X10767822Y36488486D01*
X10767820Y36488484D01*
X10713331Y36418237D01*
X10647152Y36332919D01*
X10557413Y36150545D01*
X10555804Y36144367D01*
X10555803Y36144365D01*
X10508529Y35962876D01*
X10506178Y35953852D01*
X10503118Y35895454D01*
X10502327Y35880366D01*
X10478788Y35813385D01*
X10453044Y35793337D01*
X10294576Y35793337D01*
X10289117Y35796184D01*
X10253912Y35857837D01*
X10250500Y35886960D01*
X10250500Y38514037D01*
X12994757Y38514037D01*
X13011175Y38318517D01*
X13065258Y38129909D01*
X13068076Y38124426D01*
X13152123Y37960887D01*
X13152126Y37960883D01*
X13154944Y37955399D01*
X13276818Y37801631D01*
X13281511Y37797637D01*
X13281512Y37797636D01*
X13373052Y37719730D01*
X13426238Y37674465D01*
X13431616Y37671459D01*
X13431618Y37671458D01*
X13489953Y37638856D01*
X13597513Y37578743D01*
X13784118Y37518111D01*
X13978946Y37494879D01*
X13985081Y37495351D01*
X13985083Y37495351D01*
X14168434Y37509459D01*
X14168438Y37509460D01*
X14174576Y37509932D01*
X14363556Y37562697D01*
X14538689Y37651163D01*
X14568515Y37674465D01*
X14665195Y37750000D01*
X14693303Y37771960D01*
X14697769Y37777133D01*
X14817485Y37915827D01*
X14817485Y37915828D01*
X14821509Y37920489D01*
X14831634Y37938311D01*
X14878048Y38020015D01*
X14918425Y38091091D01*
X14980358Y38277268D01*
X15004949Y38471929D01*
X15005341Y38500000D01*
X14986194Y38695272D01*
X14984413Y38701171D01*
X14984412Y38701176D01*
X14931265Y38877207D01*
X14929484Y38883106D01*
X14837370Y39056347D01*
X14713361Y39208398D01*
X14562180Y39333465D01*
X14389585Y39426787D01*
X14295868Y39455797D01*
X14208039Y39482985D01*
X14208036Y39482986D01*
X14202152Y39484807D01*
X14196027Y39485451D01*
X14196026Y39485451D01*
X14013147Y39504673D01*
X14013146Y39504673D01*
X14007019Y39505317D01*
X13884383Y39494156D01*
X13817759Y39488093D01*
X13817758Y39488093D01*
X13811618Y39487534D01*
X13805704Y39485793D01*
X13805702Y39485793D01*
X13676734Y39447835D01*
X13623393Y39432136D01*
X13617928Y39429279D01*
X13454972Y39344088D01*
X13454968Y39344085D01*
X13449512Y39341233D01*
X13444712Y39337373D01*
X13444711Y39337373D01*
X13410326Y39309727D01*
X13296600Y39218289D01*
X13170480Y39067984D01*
X13167516Y39062592D01*
X13167513Y39062588D01*
X13115747Y38968425D01*
X13075956Y38896046D01*
X13074095Y38890179D01*
X13074094Y38890177D01*
X13063831Y38857825D01*
X13016628Y38709022D01*
X12994757Y38514037D01*
X10250500Y38514037D01*
X10250500Y41014037D01*
X12994757Y41014037D01*
X13011175Y40818517D01*
X13065258Y40629909D01*
X13068687Y40623237D01*
X13152123Y40460887D01*
X13152126Y40460883D01*
X13154944Y40455399D01*
X13276818Y40301631D01*
X13281511Y40297637D01*
X13281512Y40297636D01*
X13373052Y40219730D01*
X13426238Y40174465D01*
X13431616Y40171459D01*
X13431618Y40171458D01*
X13489953Y40138856D01*
X13597513Y40078743D01*
X13784118Y40018111D01*
X13978946Y39994879D01*
X13985081Y39995351D01*
X13985083Y39995351D01*
X14168434Y40009459D01*
X14168438Y40009460D01*
X14174576Y40009932D01*
X14363556Y40062697D01*
X14538689Y40151163D01*
X14568515Y40174465D01*
X14688453Y40268171D01*
X14693303Y40271960D01*
X14723084Y40306461D01*
X14817485Y40415827D01*
X14817485Y40415828D01*
X14821509Y40420489D01*
X14848377Y40467784D01*
X14880407Y40524168D01*
X14918425Y40591091D01*
X14980358Y40777268D01*
X15004949Y40971929D01*
X15005341Y41000000D01*
X14986194Y41195272D01*
X14984413Y41201171D01*
X14984412Y41201176D01*
X14931265Y41377207D01*
X14929484Y41383106D01*
X14837370Y41556347D01*
X14713361Y41708398D01*
X14562180Y41833465D01*
X14389585Y41926787D01*
X14381532Y41929280D01*
X14337936Y41942775D01*
X14278776Y41982026D01*
X14250228Y42047030D01*
X14261356Y42117149D01*
X14308627Y42170121D01*
X14338986Y42183826D01*
X14492255Y42229809D01*
X14501842Y42233567D01*
X14693098Y42327262D01*
X14701944Y42332535D01*
X14749247Y42366277D01*
X14757648Y42376977D01*
X14750660Y42390130D01*
X14012812Y43127978D01*
X13998868Y43135592D01*
X13997035Y43135461D01*
X13990420Y43131210D01*
X13246737Y42387527D01*
X13239977Y42375147D01*
X13245258Y42368093D01*
X13406756Y42273721D01*
X13416042Y42269271D01*
X13615001Y42193297D01*
X13624898Y42190421D01*
X13645834Y42186162D01*
X13708599Y42152980D01*
X13743462Y42091133D01*
X13739353Y42020255D01*
X13697577Y41962851D01*
X13656291Y41941818D01*
X13623393Y41932136D01*
X13617930Y41929280D01*
X13617928Y41929279D01*
X13454972Y41844088D01*
X13454968Y41844085D01*
X13449512Y41841233D01*
X13444712Y41837373D01*
X13444711Y41837373D01*
X13410326Y41809727D01*
X13296600Y41718289D01*
X13170480Y41567984D01*
X13167516Y41562592D01*
X13167513Y41562588D01*
X13119819Y41475832D01*
X13075956Y41396046D01*
X13074095Y41390179D01*
X13074094Y41390177D01*
X13049214Y41311744D01*
X13016628Y41209022D01*
X12994757Y41014037D01*
X10250500Y41014037D01*
X10250500Y43528137D01*
X12638050Y43528137D01*
X12650309Y43315523D01*
X12651745Y43305303D01*
X12698565Y43097554D01*
X12701645Y43087725D01*
X12781770Y42890397D01*
X12786413Y42881206D01*
X12866460Y42750580D01*
X12876916Y42741120D01*
X12885694Y42744904D01*
X13627978Y43487188D01*
X13635592Y43501132D01*
X13635461Y43502965D01*
X13631210Y43509580D01*
X12889849Y44250941D01*
X12878313Y44257241D01*
X12866031Y44247618D01*
X12818089Y44177338D01*
X12813004Y44168387D01*
X12723338Y43975217D01*
X12719775Y43965530D01*
X12662864Y43760319D01*
X12660933Y43750200D01*
X12638302Y43538426D01*
X12638050Y43528137D01*
X10250500Y43528137D01*
X10250500Y44623573D01*
X13241223Y44623573D01*
X13247968Y44611242D01*
X13987188Y43872022D01*
X14001132Y43864408D01*
X14002965Y43864539D01*
X14009580Y43868790D01*
X14753389Y44612599D01*
X14760410Y44625456D01*
X14753611Y44634787D01*
X14749554Y44637482D01*
X14563117Y44740401D01*
X14553705Y44744631D01*
X14352959Y44815720D01*
X14342989Y44818354D01*
X14133327Y44855699D01*
X14123073Y44856669D01*
X13910116Y44859272D01*
X13899832Y44858552D01*
X13689321Y44826339D01*
X13679293Y44823950D01*
X13476868Y44757788D01*
X13467359Y44753791D01*
X13278466Y44655460D01*
X13269734Y44649961D01*
X13249677Y44634901D01*
X13241223Y44623573D01*
X10250500Y44623573D01*
X10250500Y46095388D01*
X10270502Y46163509D01*
X10301037Y46189967D01*
X10294576Y46193337D01*
X10453044Y46193337D01*
X10459012Y46190612D01*
X10497396Y46130886D01*
X10501083Y46114229D01*
X10525935Y45949903D01*
X10596119Y45759148D01*
X10599479Y45753728D01*
X10599480Y45753727D01*
X10699863Y45591824D01*
X10699866Y45591820D01*
X10703226Y45586401D01*
X10707612Y45581763D01*
X10812926Y45470397D01*
X10842881Y45438720D01*
X11009379Y45322137D01*
X11195919Y45241414D01*
X11224419Y45235460D01*
X11390144Y45200838D01*
X11390149Y45200837D01*
X11394880Y45199849D01*
X11399762Y45199593D01*
X11399871Y45199587D01*
X11399887Y45199587D01*
X11401539Y45199500D01*
X12550800Y45199500D01*
X12609437Y45205456D01*
X12695868Y45214235D01*
X12695870Y45214235D01*
X12702216Y45214880D01*
X12896172Y45275662D01*
X13073944Y45374203D01*
X13228271Y45506477D01*
X13352848Y45667081D01*
X13442587Y45849455D01*
X13468752Y45949903D01*
X13492212Y46039966D01*
X13492212Y46039969D01*
X13493822Y46046148D01*
X13501393Y46190612D01*
X13504125Y46242744D01*
X13504125Y46242748D01*
X13504459Y46249126D01*
X13474065Y46450097D01*
X13403881Y46640852D01*
X13391842Y46660269D01*
X13300137Y46808176D01*
X13300134Y46808180D01*
X13296774Y46813599D01*
X13211960Y46903287D01*
X13161508Y46956639D01*
X13161507Y46956640D01*
X13157119Y46961280D01*
X12990621Y47077863D01*
X12804081Y47158586D01*
X12758053Y47168202D01*
X12609856Y47199162D01*
X12609851Y47199163D01*
X12605120Y47200151D01*
X12600238Y47200407D01*
X12600129Y47200413D01*
X12600113Y47200413D01*
X12598461Y47200500D01*
X11449200Y47200500D01*
X11401207Y47195625D01*
X11304132Y47185765D01*
X11304130Y47185765D01*
X11297784Y47185120D01*
X11103828Y47124338D01*
X10926056Y47025797D01*
X10771729Y46893523D01*
X10767822Y46888486D01*
X10767820Y46888484D01*
X10721527Y46828803D01*
X10647152Y46732919D01*
X10557413Y46550545D01*
X10555804Y46544367D01*
X10555803Y46544365D01*
X10529603Y46443780D01*
X10506178Y46353852D01*
X10502673Y46286960D01*
X10502327Y46280366D01*
X10478788Y46213385D01*
X10453044Y46193337D01*
X10294576Y46193337D01*
X10289117Y46196184D01*
X10253912Y46257837D01*
X10250500Y46286960D01*
X10250500Y47011942D01*
X10270502Y47080063D01*
X10287405Y47101037D01*
X13087949Y49901581D01*
X13150261Y49935607D01*
X13221076Y49930542D01*
X13277912Y49887995D01*
X13302354Y49825656D01*
X13312776Y49726495D01*
X13314326Y49711744D01*
X13372821Y49531716D01*
X13467467Y49367784D01*
X13594129Y49227112D01*
X13599468Y49223233D01*
X13735757Y49124214D01*
X13747270Y49115849D01*
X13920197Y49038856D01*
X14016873Y49018307D01*
X14098897Y49000872D01*
X14098901Y49000872D01*
X14105354Y48999500D01*
X14294646Y48999500D01*
X14301099Y49000872D01*
X14301103Y49000872D01*
X14383127Y49018307D01*
X14479803Y49038856D01*
X14652730Y49115849D01*
X14664244Y49124214D01*
X14800532Y49223233D01*
X14805871Y49227112D01*
X14932533Y49367784D01*
X15027179Y49531716D01*
X15085674Y49711744D01*
X15087225Y49726495D01*
X15104770Y49893435D01*
X15105460Y49900000D01*
X15100779Y49944534D01*
X15086364Y50081693D01*
X15086364Y50081695D01*
X15085674Y50088256D01*
X15027179Y50268284D01*
X15022439Y50276495D01*
X14935836Y50426495D01*
X14932533Y50432216D01*
X14805871Y50572888D01*
X14800532Y50576767D01*
X14658072Y50680270D01*
X14658071Y50680271D01*
X14652730Y50684151D01*
X14525251Y50740909D01*
X14471155Y50786889D01*
X14450500Y50856015D01*
X14450500Y51048500D01*
X14470502Y51116621D01*
X14524158Y51163114D01*
X14576500Y51174500D01*
X18928712Y51174500D01*
X18996833Y51154498D01*
G37*
%TD.AperFunction*%
%TD*%
M02*
