%TF.GenerationSoftware,KiCad,Pcbnew,(6.0.7)*%
%TF.CreationDate,2022-11-13T10:41:01-05:00*%
%TF.ProjectId,redshift,72656473-6869-4667-942e-6b696361645f,0.2*%
%TF.SameCoordinates,Original*%
%TF.FileFunction,Legend,Bot*%
%TF.FilePolarity,Positive*%
%FSLAX46Y46*%
G04 Gerber Fmt 4.6, Leading zero omitted, Abs format (unit mm)*
G04 Created by KiCad (PCBNEW (6.0.7)) date 2022-11-13 10:41:01*
%MOMM*%
%LPD*%
G01*
G04 APERTURE LIST*
%ADD10C,0.069999*%
%ADD11C,0.120000*%
%ADD12C,0.150000*%
%ADD13C,0.125000*%
%ADD14C,1.500000*%
%ADD15O,2.700000X1.700000*%
%ADD16C,1.700000*%
%ADD17O,1.050000X2.100000*%
%ADD18O,1.000000X2.000000*%
%ADD19C,0.650000*%
%ADD20O,1.350000X1.350000*%
%ADD21R,1.350000X1.350000*%
%ADD22C,1.400000*%
%ADD23R,1.400000X1.400000*%
G04 APERTURE END LIST*
D10*
G36*
X3420550Y10822418D02*
G01*
X3421961Y10822313D01*
X3423366Y10822141D01*
X3424762Y10821903D01*
X3426147Y10821600D01*
X3427519Y10821235D01*
X3428877Y10820810D01*
X3430217Y10820325D01*
X3432838Y10819186D01*
X3435364Y10817831D01*
X3437779Y10816275D01*
X3440066Y10814530D01*
X3442207Y10812612D01*
X3444186Y10810533D01*
X3445986Y10808308D01*
X3446813Y10807145D01*
X3447588Y10805950D01*
X3448310Y10804726D01*
X3448977Y10803474D01*
X3449586Y10802195D01*
X3450135Y10800892D01*
X3450622Y10799566D01*
X3451045Y10798218D01*
X3451402Y10796852D01*
X3451690Y10795467D01*
X3562164Y10201498D01*
X3562451Y10200103D01*
X3562803Y10198704D01*
X3563693Y10195902D01*
X3564818Y10193112D01*
X3566162Y10190351D01*
X3567709Y10187638D01*
X3569442Y10184992D01*
X3571345Y10182430D01*
X3573402Y10179970D01*
X3575595Y10177632D01*
X3577910Y10175433D01*
X3580329Y10173392D01*
X3582836Y10171527D01*
X3585415Y10169857D01*
X3588049Y10168398D01*
X3590722Y10167171D01*
X3592068Y10166650D01*
X3593418Y10166193D01*
X4056656Y9980768D01*
X4059291Y9979621D01*
X4062082Y9978664D01*
X4065004Y9977896D01*
X4068034Y9977316D01*
X4071147Y9976921D01*
X4074319Y9976710D01*
X4077526Y9976680D01*
X4080744Y9976831D01*
X4083949Y9977160D01*
X4087115Y9977666D01*
X4090220Y9978347D01*
X4093239Y9979201D01*
X4096148Y9980226D01*
X4098922Y9981421D01*
X4101538Y9982784D01*
X4103971Y9984313D01*
X4595641Y10321667D01*
X4596827Y10322436D01*
X4598048Y10323144D01*
X4599301Y10323793D01*
X4600585Y10324383D01*
X4601896Y10324913D01*
X4603232Y10325384D01*
X4605966Y10326151D01*
X4608766Y10326685D01*
X4611611Y10326988D01*
X4614478Y10327062D01*
X4617347Y10326909D01*
X4620196Y10326531D01*
X4623002Y10325931D01*
X4625745Y10325110D01*
X4628402Y10324069D01*
X4630953Y10322812D01*
X4632181Y10322103D01*
X4633375Y10321340D01*
X4634531Y10320525D01*
X4635647Y10319656D01*
X4636720Y10318734D01*
X4637747Y10317760D01*
X5080873Y9874562D01*
X5081843Y9873538D01*
X5082762Y9872469D01*
X5083628Y9871356D01*
X5084441Y9870202D01*
X5085201Y9869011D01*
X5085908Y9867785D01*
X5086561Y9866526D01*
X5087161Y9865238D01*
X5087707Y9863923D01*
X5088198Y9862584D01*
X5089017Y9859843D01*
X5089617Y9857038D01*
X5089994Y9854190D01*
X5090147Y9851321D01*
X5090074Y9848452D01*
X5089773Y9845605D01*
X5089537Y9844197D01*
X5089243Y9842802D01*
X5088890Y9841423D01*
X5088480Y9840064D01*
X5088011Y9838726D01*
X5087483Y9837412D01*
X5086896Y9836126D01*
X5086250Y9834869D01*
X5085545Y9833645D01*
X5084780Y9832456D01*
X4753285Y9349540D01*
X4751780Y9347112D01*
X4750460Y9344511D01*
X4749324Y9341760D01*
X4748375Y9338883D01*
X4747612Y9335905D01*
X4747036Y9332849D01*
X4746647Y9329738D01*
X4746447Y9326598D01*
X4746436Y9323450D01*
X4746614Y9320320D01*
X4746982Y9317232D01*
X4747541Y9314208D01*
X4748291Y9311273D01*
X4749232Y9308450D01*
X4750367Y9305764D01*
X4751694Y9303238D01*
X4865423Y9090249D01*
X4866032Y9088978D01*
X4866567Y9087697D01*
X4867028Y9086407D01*
X4867418Y9085110D01*
X4867736Y9083809D01*
X4867983Y9082505D01*
X4868161Y9081202D01*
X4868270Y9079902D01*
X4868312Y9078606D01*
X4868286Y9077316D01*
X4868193Y9076036D01*
X4868036Y9074768D01*
X4867814Y9073513D01*
X4867528Y9072273D01*
X4867180Y9071052D01*
X4866769Y9069851D01*
X4866297Y9068673D01*
X4865766Y9067520D01*
X4865174Y9066393D01*
X4864525Y9065296D01*
X4863817Y9064231D01*
X4863053Y9063199D01*
X4862233Y9062203D01*
X4861357Y9061246D01*
X4860428Y9060329D01*
X4859445Y9059454D01*
X4858409Y9058625D01*
X4857322Y9057843D01*
X4856184Y9057111D01*
X4854996Y9056430D01*
X4853759Y9055803D01*
X4852474Y9055233D01*
X3791360Y8616014D01*
X3790040Y8615503D01*
X3788699Y8615059D01*
X3787341Y8614683D01*
X3785967Y8614372D01*
X3784581Y8614126D01*
X3783185Y8613945D01*
X3780372Y8613771D01*
X3777549Y8613844D01*
X3774736Y8614157D01*
X3771954Y8614703D01*
X3769222Y8615474D01*
X3766562Y8616465D01*
X3763993Y8617668D01*
X3761537Y8619077D01*
X3759212Y8620685D01*
X3757040Y8622484D01*
X3756017Y8623453D01*
X3755040Y8624468D01*
X3754112Y8625527D01*
X3753234Y8626630D01*
X3752410Y8627776D01*
X3751641Y8628964D01*
X3719013Y8682211D01*
X3716569Y8686059D01*
X3713779Y8690162D01*
X3710704Y8694445D01*
X3707405Y8698832D01*
X3703942Y8703249D01*
X3700377Y8707621D01*
X3696771Y8711871D01*
X3693185Y8715925D01*
X3669033Y8751206D01*
X3642810Y8784879D01*
X3614609Y8816853D01*
X3584520Y8847034D01*
X3552635Y8875331D01*
X3519045Y8901651D01*
X3483840Y8925902D01*
X3447113Y8947992D01*
X3408954Y8967829D01*
X3389366Y8976874D01*
X3369455Y8985320D01*
X3349231Y8993157D01*
X3328706Y9000374D01*
X3307892Y9006957D01*
X3286799Y9012897D01*
X3265440Y9018181D01*
X3243826Y9022798D01*
X3221968Y9026736D01*
X3199877Y9029984D01*
X3177565Y9032530D01*
X3155043Y9034363D01*
X3132324Y9035472D01*
X3109417Y9035844D01*
X3073749Y9034942D01*
X3038549Y9032264D01*
X3003861Y9027856D01*
X2969728Y9021759D01*
X2936194Y9014018D01*
X2903302Y9004676D01*
X2871095Y8993776D01*
X2839619Y8981364D01*
X2808915Y8967481D01*
X2779027Y8952171D01*
X2750000Y8935479D01*
X2721876Y8917448D01*
X2694700Y8898120D01*
X2668514Y8877541D01*
X2643363Y8855753D01*
X2619290Y8832800D01*
X2596338Y8808726D01*
X2574551Y8783574D01*
X2553973Y8757388D01*
X2534646Y8730211D01*
X2516616Y8702087D01*
X2499925Y8673060D01*
X2484617Y8643173D01*
X2470735Y8612470D01*
X2458323Y8580994D01*
X2447425Y8548788D01*
X2438084Y8515898D01*
X2430344Y8482365D01*
X2424247Y8448234D01*
X2419839Y8413548D01*
X2417162Y8378352D01*
X2416260Y8342687D01*
X2417162Y8307023D01*
X2419839Y8271827D01*
X2424247Y8237144D01*
X2430344Y8203015D01*
X2438084Y8169486D01*
X2447425Y8136599D01*
X2458323Y8104398D01*
X2470735Y8072927D01*
X2484617Y8042229D01*
X2499925Y8012347D01*
X2516616Y7983326D01*
X2534646Y7955209D01*
X2553973Y7928038D01*
X2574551Y7901859D01*
X2596338Y7876713D01*
X2619290Y7852646D01*
X2643363Y7829700D01*
X2668514Y7807919D01*
X2694700Y7787346D01*
X2721876Y7768025D01*
X2750000Y7750000D01*
X2779027Y7733314D01*
X2808915Y7718010D01*
X2839619Y7704132D01*
X2871095Y7691725D01*
X2903302Y7680830D01*
X2936194Y7671492D01*
X2969728Y7663754D01*
X3003861Y7657660D01*
X3038549Y7653253D01*
X3073749Y7650577D01*
X3109417Y7649675D01*
X3155043Y7651154D01*
X3199877Y7655530D01*
X3243826Y7662711D01*
X3286799Y7672605D01*
X3328706Y7685121D01*
X3369455Y7700166D01*
X3408954Y7717648D01*
X3447113Y7737476D01*
X3483840Y7759558D01*
X3519045Y7783802D01*
X3552635Y7810116D01*
X3584520Y7838408D01*
X3614609Y7868587D01*
X3642810Y7900560D01*
X3669033Y7934235D01*
X3693185Y7969521D01*
X3696771Y7973553D01*
X3700377Y7977789D01*
X3703942Y7982151D01*
X3707405Y7986564D01*
X3710704Y7990949D01*
X3713779Y7995228D01*
X3716569Y7999325D01*
X3719013Y8003162D01*
X3751641Y8056482D01*
X3752410Y8057663D01*
X3753234Y8058802D01*
X3754112Y8059899D01*
X3755040Y8060952D01*
X3756017Y8061961D01*
X3757040Y8062925D01*
X3758105Y8063843D01*
X3759212Y8064714D01*
X3760356Y8065537D01*
X3761537Y8066312D01*
X3762750Y8067038D01*
X3763993Y8067713D01*
X3765265Y8068337D01*
X3766562Y8068909D01*
X3767882Y8069429D01*
X3769222Y8069894D01*
X3770580Y8070306D01*
X3771954Y8070662D01*
X3773340Y8070962D01*
X3774736Y8071204D01*
X3776140Y8071389D01*
X3777549Y8071515D01*
X3778960Y8071582D01*
X3780372Y8071588D01*
X3781781Y8071533D01*
X3783185Y8071416D01*
X3784581Y8071236D01*
X3785967Y8070992D01*
X3787341Y8070683D01*
X3788699Y8070309D01*
X3790040Y8069868D01*
X3791360Y8069360D01*
X4852546Y7630214D01*
X4853831Y7629643D01*
X4855067Y7629017D01*
X4856253Y7628336D01*
X4857390Y7627604D01*
X4858474Y7626823D01*
X4859507Y7625995D01*
X4860487Y7625122D01*
X4861413Y7624206D01*
X4862285Y7623250D01*
X4863101Y7622255D01*
X4863861Y7621224D01*
X4864564Y7620160D01*
X4865210Y7619064D01*
X4865796Y7617939D01*
X4866324Y7616786D01*
X4866791Y7615609D01*
X4867198Y7614409D01*
X4867542Y7613188D01*
X4867824Y7611950D01*
X4868043Y7610695D01*
X4868197Y7609427D01*
X4868286Y7608146D01*
X4868309Y7606857D01*
X4868266Y7605560D01*
X4868155Y7604259D01*
X4867976Y7602955D01*
X4867728Y7601650D01*
X4867410Y7600347D01*
X4867022Y7599048D01*
X4866562Y7597756D01*
X4866029Y7596472D01*
X4865423Y7595198D01*
X4751694Y7382208D01*
X4750366Y7379676D01*
X4749231Y7376985D01*
X4748288Y7374160D01*
X4747536Y7371223D01*
X4746975Y7368198D01*
X4746604Y7365110D01*
X4746424Y7361981D01*
X4746433Y7358835D01*
X4746632Y7355696D01*
X4747019Y7352588D01*
X4747595Y7349534D01*
X4748359Y7346558D01*
X4749310Y7343684D01*
X4750449Y7340934D01*
X4751774Y7338334D01*
X4753285Y7335906D01*
X5084780Y6852917D01*
X5085545Y6851732D01*
X5086250Y6850511D01*
X5086896Y6849257D01*
X5087483Y6847974D01*
X5088011Y6846663D01*
X5088480Y6845328D01*
X5089243Y6842594D01*
X5089773Y6839795D01*
X5090074Y6836951D01*
X5090147Y6834086D01*
X5089994Y6831220D01*
X5089617Y6828375D01*
X5089017Y6825574D01*
X5088198Y6822837D01*
X5087161Y6820186D01*
X5085908Y6817644D01*
X5085201Y6816420D01*
X5084441Y6815232D01*
X5083628Y6814081D01*
X5082762Y6812971D01*
X5081843Y6811904D01*
X5080873Y6810884D01*
X4637747Y6367614D01*
X4636720Y6366636D01*
X4635647Y6365712D01*
X4634531Y6364842D01*
X4633375Y6364024D01*
X4632181Y6363261D01*
X4630953Y6362551D01*
X4629692Y6361896D01*
X4628402Y6361295D01*
X4627086Y6360749D01*
X4625745Y6360257D01*
X4623002Y6359440D01*
X4620196Y6358845D01*
X4617347Y6358473D01*
X4614478Y6358328D01*
X4611611Y6358410D01*
X4608766Y6358721D01*
X4607359Y6358963D01*
X4605966Y6359263D01*
X4604589Y6359622D01*
X4603232Y6360039D01*
X4601896Y6360514D01*
X4600585Y6361049D01*
X4599301Y6361642D01*
X4598048Y6362295D01*
X4596827Y6363007D01*
X4595641Y6363780D01*
X4103971Y6701206D01*
X4101538Y6702722D01*
X4098922Y6704073D01*
X4096148Y6705258D01*
X4093239Y6706275D01*
X4090220Y6707122D01*
X4087115Y6707797D01*
X4083949Y6708298D01*
X4080744Y6708623D01*
X4077526Y6708771D01*
X4074319Y6708740D01*
X4071147Y6708527D01*
X4068034Y6708131D01*
X4065004Y6707550D01*
X4062082Y6706782D01*
X4059291Y6705826D01*
X4056656Y6704678D01*
X3593491Y6519253D01*
X3592141Y6518793D01*
X3590795Y6518270D01*
X3588121Y6517042D01*
X3585487Y6515586D01*
X3582908Y6513920D01*
X3580401Y6512062D01*
X3577982Y6510029D01*
X3575668Y6507840D01*
X3573474Y6505512D01*
X3571418Y6503063D01*
X3569515Y6500511D01*
X3567781Y6497873D01*
X3566235Y6495167D01*
X3564890Y6492411D01*
X3563765Y6489623D01*
X3563290Y6488222D01*
X3562875Y6486820D01*
X3562523Y6485419D01*
X3562237Y6484020D01*
X3451690Y5890051D01*
X3451402Y5888670D01*
X3451046Y5887306D01*
X3450624Y5885960D01*
X3450138Y5884635D01*
X3449591Y5883331D01*
X3448984Y5882052D01*
X3448319Y5880799D01*
X3447599Y5879573D01*
X3446826Y5878376D01*
X3446002Y5877210D01*
X3445129Y5876077D01*
X3444209Y5874979D01*
X3443244Y5873917D01*
X3442237Y5872893D01*
X3441189Y5871908D01*
X3440102Y5870966D01*
X3438979Y5870067D01*
X3437822Y5869213D01*
X3436633Y5868406D01*
X3435413Y5867648D01*
X3434166Y5866940D01*
X3432893Y5866285D01*
X3431596Y5865683D01*
X3430278Y5865137D01*
X3428940Y5864649D01*
X3427585Y5864221D01*
X3426214Y5863853D01*
X3424831Y5863548D01*
X3423436Y5863308D01*
X3422032Y5863134D01*
X3420622Y5863029D01*
X3419207Y5862993D01*
X2792465Y5862921D01*
X2791046Y5862953D01*
X2789633Y5863054D01*
X2788228Y5863224D01*
X2786831Y5863459D01*
X2785447Y5863759D01*
X2784076Y5864121D01*
X2782720Y5864545D01*
X2781382Y5865027D01*
X2780064Y5865567D01*
X2778767Y5866162D01*
X2776248Y5867513D01*
X2773840Y5869066D01*
X2771561Y5870807D01*
X2769426Y5872722D01*
X2767452Y5874798D01*
X2765655Y5877019D01*
X2764052Y5879373D01*
X2763329Y5880595D01*
X2762660Y5881845D01*
X2762048Y5883121D01*
X2761494Y5884422D01*
X2761001Y5885745D01*
X2760572Y5887090D01*
X2760206Y5888453D01*
X2759908Y5889834D01*
X2646686Y6498779D01*
X2646036Y6501571D01*
X2645141Y6504379D01*
X2644015Y6507184D01*
X2642675Y6509968D01*
X2641136Y6512711D01*
X2639414Y6515395D01*
X2637526Y6518001D01*
X2635487Y6520511D01*
X2633313Y6522906D01*
X2631020Y6525167D01*
X2628623Y6527275D01*
X2626139Y6529213D01*
X2623584Y6530961D01*
X2620973Y6532501D01*
X2618323Y6533813D01*
X2615648Y6534880D01*
X2180192Y6721535D01*
X2177585Y6722744D01*
X2174821Y6723760D01*
X2171925Y6724584D01*
X2168921Y6725218D01*
X2165832Y6725664D01*
X2162682Y6725923D01*
X2159495Y6725997D01*
X2156296Y6725886D01*
X2153107Y6725594D01*
X2149953Y6725121D01*
X2146857Y6724468D01*
X2143844Y6723638D01*
X2140937Y6722631D01*
X2138161Y6721450D01*
X2135538Y6720095D01*
X2133094Y6718569D01*
X1615958Y6363780D01*
X1614772Y6363014D01*
X1613552Y6362307D01*
X1612300Y6361659D01*
X1611017Y6361070D01*
X1609708Y6360539D01*
X1608374Y6360066D01*
X1605645Y6359294D01*
X1602850Y6358754D01*
X1600011Y6358442D01*
X1597150Y6358358D01*
X1594288Y6358501D01*
X1591446Y6358869D01*
X1588646Y6359459D01*
X1585910Y6360272D01*
X1583258Y6361305D01*
X1580712Y6362558D01*
X1579485Y6363265D01*
X1578293Y6364027D01*
X1577138Y6364843D01*
X1576023Y6365713D01*
X1574951Y6366637D01*
X1573924Y6367614D01*
X1130799Y6810812D01*
X1129821Y6811839D01*
X1128897Y6812911D01*
X1128025Y6814026D01*
X1127206Y6815181D01*
X1126441Y6816373D01*
X1125730Y6817599D01*
X1125072Y6818858D01*
X1124469Y6820145D01*
X1123920Y6821459D01*
X1123425Y6822797D01*
X1122602Y6825534D01*
X1122000Y6828334D01*
X1121622Y6831175D01*
X1121470Y6834037D01*
X1121545Y6836898D01*
X1121850Y6839737D01*
X1122089Y6841141D01*
X1122387Y6842532D01*
X1122743Y6843906D01*
X1123158Y6845261D01*
X1123631Y6846595D01*
X1124164Y6847904D01*
X1124756Y6849187D01*
X1125408Y6850439D01*
X1126120Y6851660D01*
X1126892Y6852845D01*
X1487976Y7379025D01*
X1489497Y7381459D01*
X1490852Y7384077D01*
X1492038Y7386854D01*
X1493055Y7389767D01*
X1493899Y7392791D01*
X1494570Y7395900D01*
X1495066Y7399071D01*
X1495385Y7402279D01*
X1495526Y7405500D01*
X1495486Y7408709D01*
X1495265Y7411882D01*
X1494861Y7414993D01*
X1494271Y7418019D01*
X1493495Y7420935D01*
X1492531Y7423717D01*
X1491376Y7426340D01*
X1318539Y7848485D01*
X1318062Y7849827D01*
X1317521Y7851165D01*
X1316919Y7852498D01*
X1316258Y7853822D01*
X1314766Y7856438D01*
X1313066Y7858997D01*
X1311174Y7861485D01*
X1309110Y7863885D01*
X1306890Y7866182D01*
X1304534Y7868359D01*
X1302059Y7870402D01*
X1299484Y7872293D01*
X1296827Y7874018D01*
X1294106Y7875561D01*
X1291339Y7876906D01*
X1288544Y7878037D01*
X1285740Y7878938D01*
X1284340Y7879298D01*
X1282944Y7879594D01*
X653091Y7996796D01*
X651707Y7997087D01*
X650340Y7997446D01*
X648993Y7997871D01*
X647667Y7998359D01*
X646364Y7998908D01*
X645085Y7999517D01*
X643833Y8000182D01*
X642608Y8000903D01*
X641414Y8001676D01*
X640250Y8002501D01*
X639120Y8003374D01*
X638025Y8004294D01*
X636967Y8005258D01*
X635947Y8006265D01*
X634967Y8007313D01*
X634028Y8008398D01*
X633134Y8009520D01*
X632284Y8010676D01*
X631482Y8011865D01*
X630728Y8013083D01*
X630024Y8014329D01*
X629373Y8015601D01*
X628775Y8016896D01*
X628234Y8018214D01*
X627749Y8019550D01*
X627323Y8020905D01*
X626959Y8022274D01*
X626656Y8023657D01*
X626418Y8025051D01*
X626246Y8026454D01*
X626141Y8027865D01*
X626106Y8029280D01*
X626106Y8656022D01*
X626141Y8657434D01*
X626246Y8658841D01*
X626418Y8660242D01*
X626656Y8661634D01*
X626959Y8663015D01*
X627323Y8664383D01*
X627749Y8665736D01*
X628234Y8667072D01*
X628775Y8668389D01*
X629373Y8669684D01*
X630728Y8672202D01*
X632284Y8674610D01*
X634028Y8676889D01*
X635947Y8679025D01*
X638025Y8680998D01*
X640250Y8682794D01*
X641414Y8683619D01*
X642608Y8684394D01*
X643833Y8685115D01*
X645085Y8685782D01*
X646364Y8686391D01*
X647667Y8686941D01*
X648993Y8687430D01*
X650340Y8687855D01*
X651707Y8688214D01*
X653091Y8688506D01*
X1282944Y8805708D01*
X1285740Y8806363D01*
X1288544Y8807263D01*
X1291339Y8808392D01*
X1294106Y8809735D01*
X1296827Y8811276D01*
X1299484Y8812998D01*
X1302059Y8814888D01*
X1304534Y8816928D01*
X1306890Y8819104D01*
X1309110Y8821400D01*
X1311174Y8823800D01*
X1313066Y8826289D01*
X1314766Y8828850D01*
X1316258Y8831469D01*
X1317521Y8834130D01*
X1318539Y8836817D01*
X1491376Y9258962D01*
X1492531Y9261591D01*
X1493495Y9264378D01*
X1494271Y9267299D01*
X1494861Y9270329D01*
X1495265Y9273444D01*
X1495486Y9276619D01*
X1495526Y9279829D01*
X1495385Y9283050D01*
X1495066Y9286258D01*
X1494570Y9289428D01*
X1493899Y9292535D01*
X1493055Y9295555D01*
X1492038Y9298464D01*
X1490852Y9301237D01*
X1489497Y9303849D01*
X1487976Y9306277D01*
X1126892Y9832456D01*
X1126120Y9833645D01*
X1125408Y9834869D01*
X1124756Y9836126D01*
X1124164Y9837412D01*
X1123631Y9838726D01*
X1123158Y9840064D01*
X1122387Y9842802D01*
X1121850Y9845605D01*
X1121545Y9848452D01*
X1121470Y9851321D01*
X1121622Y9854190D01*
X1122000Y9857038D01*
X1122602Y9859843D01*
X1123425Y9862584D01*
X1124469Y9865238D01*
X1125730Y9867785D01*
X1126441Y9869011D01*
X1127206Y9870202D01*
X1128025Y9871356D01*
X1128897Y9872469D01*
X1129821Y9873538D01*
X1130799Y9874562D01*
X1573924Y10317688D01*
X1574951Y10318662D01*
X1576023Y10319584D01*
X1577138Y10320453D01*
X1578293Y10321270D01*
X1579485Y10322033D01*
X1580712Y10322743D01*
X1581970Y10323400D01*
X1583258Y10324002D01*
X1584572Y10324551D01*
X1585910Y10325045D01*
X1588646Y10325868D01*
X1591446Y10326471D01*
X1594288Y10326851D01*
X1597150Y10327005D01*
X1600011Y10326932D01*
X1602850Y10326629D01*
X1604254Y10326391D01*
X1605645Y10326094D01*
X1607019Y10325739D01*
X1608374Y10325326D01*
X1609708Y10324853D01*
X1611017Y10324321D01*
X1612300Y10323729D01*
X1613552Y10323078D01*
X1614772Y10322366D01*
X1615958Y10321595D01*
X2133094Y9966732D01*
X2135538Y9965220D01*
X2138161Y9963878D01*
X2140937Y9962708D01*
X2143844Y9961712D01*
X2146857Y9960891D01*
X2149953Y9960246D01*
X2153107Y9959780D01*
X2156296Y9959493D01*
X2159495Y9959387D01*
X2162682Y9959464D01*
X2165832Y9959724D01*
X2168921Y9960170D01*
X2171925Y9960803D01*
X2174821Y9961625D01*
X2177585Y9962636D01*
X2180192Y9963839D01*
X2615648Y10150566D01*
X2616988Y10151064D01*
X2618323Y10151625D01*
X2620973Y10152929D01*
X2623584Y10154458D01*
X2626139Y10156196D01*
X2628623Y10158123D01*
X2631020Y10160221D01*
X2633313Y10162472D01*
X2635487Y10164858D01*
X2637526Y10167360D01*
X2639414Y10169960D01*
X2641136Y10172640D01*
X2642675Y10175381D01*
X2644015Y10178166D01*
X2645141Y10180975D01*
X2645618Y10182383D01*
X2646036Y10183791D01*
X2646393Y10185196D01*
X2646686Y10186595D01*
X2759908Y10795467D01*
X2760206Y10796855D01*
X2760571Y10798224D01*
X2761001Y10799574D01*
X2761493Y10800902D01*
X2762045Y10802207D01*
X2762657Y10803487D01*
X2763324Y10804741D01*
X2764046Y10805966D01*
X2764821Y10807161D01*
X2765646Y10808325D01*
X2766519Y10809455D01*
X2767439Y10810550D01*
X2768403Y10811608D01*
X2769408Y10812627D01*
X2770455Y10813607D01*
X2771539Y10814544D01*
X2772659Y10815438D01*
X2773813Y10816287D01*
X2774999Y10817088D01*
X2776215Y10817841D01*
X2777459Y10818543D01*
X2778728Y10819193D01*
X2780022Y10819790D01*
X2781337Y10820330D01*
X2782671Y10820814D01*
X2784024Y10821239D01*
X2785392Y10821603D01*
X2786773Y10821904D01*
X2788166Y10822142D01*
X2789568Y10822313D01*
X2790978Y10822418D01*
X2792392Y10822453D01*
X3419134Y10822453D01*
X3420550Y10822418D01*
G37*
X3420550Y10822418D02*
X3421961Y10822313D01*
X3423366Y10822141D01*
X3424762Y10821903D01*
X3426147Y10821600D01*
X3427519Y10821235D01*
X3428877Y10820810D01*
X3430217Y10820325D01*
X3432838Y10819186D01*
X3435364Y10817831D01*
X3437779Y10816275D01*
X3440066Y10814530D01*
X3442207Y10812612D01*
X3444186Y10810533D01*
X3445986Y10808308D01*
X3446813Y10807145D01*
X3447588Y10805950D01*
X3448310Y10804726D01*
X3448977Y10803474D01*
X3449586Y10802195D01*
X3450135Y10800892D01*
X3450622Y10799566D01*
X3451045Y10798218D01*
X3451402Y10796852D01*
X3451690Y10795467D01*
X3562164Y10201498D01*
X3562451Y10200103D01*
X3562803Y10198704D01*
X3563693Y10195902D01*
X3564818Y10193112D01*
X3566162Y10190351D01*
X3567709Y10187638D01*
X3569442Y10184992D01*
X3571345Y10182430D01*
X3573402Y10179970D01*
X3575595Y10177632D01*
X3577910Y10175433D01*
X3580329Y10173392D01*
X3582836Y10171527D01*
X3585415Y10169857D01*
X3588049Y10168398D01*
X3590722Y10167171D01*
X3592068Y10166650D01*
X3593418Y10166193D01*
X4056656Y9980768D01*
X4059291Y9979621D01*
X4062082Y9978664D01*
X4065004Y9977896D01*
X4068034Y9977316D01*
X4071147Y9976921D01*
X4074319Y9976710D01*
X4077526Y9976680D01*
X4080744Y9976831D01*
X4083949Y9977160D01*
X4087115Y9977666D01*
X4090220Y9978347D01*
X4093239Y9979201D01*
X4096148Y9980226D01*
X4098922Y9981421D01*
X4101538Y9982784D01*
X4103971Y9984313D01*
X4595641Y10321667D01*
X4596827Y10322436D01*
X4598048Y10323144D01*
X4599301Y10323793D01*
X4600585Y10324383D01*
X4601896Y10324913D01*
X4603232Y10325384D01*
X4605966Y10326151D01*
X4608766Y10326685D01*
X4611611Y10326988D01*
X4614478Y10327062D01*
X4617347Y10326909D01*
X4620196Y10326531D01*
X4623002Y10325931D01*
X4625745Y10325110D01*
X4628402Y10324069D01*
X4630953Y10322812D01*
X4632181Y10322103D01*
X4633375Y10321340D01*
X4634531Y10320525D01*
X4635647Y10319656D01*
X4636720Y10318734D01*
X4637747Y10317760D01*
X5080873Y9874562D01*
X5081843Y9873538D01*
X5082762Y9872469D01*
X5083628Y9871356D01*
X5084441Y9870202D01*
X5085201Y9869011D01*
X5085908Y9867785D01*
X5086561Y9866526D01*
X5087161Y9865238D01*
X5087707Y9863923D01*
X5088198Y9862584D01*
X5089017Y9859843D01*
X5089617Y9857038D01*
X5089994Y9854190D01*
X5090147Y9851321D01*
X5090074Y9848452D01*
X5089773Y9845605D01*
X5089537Y9844197D01*
X5089243Y9842802D01*
X5088890Y9841423D01*
X5088480Y9840064D01*
X5088011Y9838726D01*
X5087483Y9837412D01*
X5086896Y9836126D01*
X5086250Y9834869D01*
X5085545Y9833645D01*
X5084780Y9832456D01*
X4753285Y9349540D01*
X4751780Y9347112D01*
X4750460Y9344511D01*
X4749324Y9341760D01*
X4748375Y9338883D01*
X4747612Y9335905D01*
X4747036Y9332849D01*
X4746647Y9329738D01*
X4746447Y9326598D01*
X4746436Y9323450D01*
X4746614Y9320320D01*
X4746982Y9317232D01*
X4747541Y9314208D01*
X4748291Y9311273D01*
X4749232Y9308450D01*
X4750367Y9305764D01*
X4751694Y9303238D01*
X4865423Y9090249D01*
X4866032Y9088978D01*
X4866567Y9087697D01*
X4867028Y9086407D01*
X4867418Y9085110D01*
X4867736Y9083809D01*
X4867983Y9082505D01*
X4868161Y9081202D01*
X4868270Y9079902D01*
X4868312Y9078606D01*
X4868286Y9077316D01*
X4868193Y9076036D01*
X4868036Y9074768D01*
X4867814Y9073513D01*
X4867528Y9072273D01*
X4867180Y9071052D01*
X4866769Y9069851D01*
X4866297Y9068673D01*
X4865766Y9067520D01*
X4865174Y9066393D01*
X4864525Y9065296D01*
X4863817Y9064231D01*
X4863053Y9063199D01*
X4862233Y9062203D01*
X4861357Y9061246D01*
X4860428Y9060329D01*
X4859445Y9059454D01*
X4858409Y9058625D01*
X4857322Y9057843D01*
X4856184Y9057111D01*
X4854996Y9056430D01*
X4853759Y9055803D01*
X4852474Y9055233D01*
X3791360Y8616014D01*
X3790040Y8615503D01*
X3788699Y8615059D01*
X3787341Y8614683D01*
X3785967Y8614372D01*
X3784581Y8614126D01*
X3783185Y8613945D01*
X3780372Y8613771D01*
X3777549Y8613844D01*
X3774736Y8614157D01*
X3771954Y8614703D01*
X3769222Y8615474D01*
X3766562Y8616465D01*
X3763993Y8617668D01*
X3761537Y8619077D01*
X3759212Y8620685D01*
X3757040Y8622484D01*
X3756017Y8623453D01*
X3755040Y8624468D01*
X3754112Y8625527D01*
X3753234Y8626630D01*
X3752410Y8627776D01*
X3751641Y8628964D01*
X3719013Y8682211D01*
X3716569Y8686059D01*
X3713779Y8690162D01*
X3710704Y8694445D01*
X3707405Y8698832D01*
X3703942Y8703249D01*
X3700377Y8707621D01*
X3696771Y8711871D01*
X3693185Y8715925D01*
X3669033Y8751206D01*
X3642810Y8784879D01*
X3614609Y8816853D01*
X3584520Y8847034D01*
X3552635Y8875331D01*
X3519045Y8901651D01*
X3483840Y8925902D01*
X3447113Y8947992D01*
X3408954Y8967829D01*
X3389366Y8976874D01*
X3369455Y8985320D01*
X3349231Y8993157D01*
X3328706Y9000374D01*
X3307892Y9006957D01*
X3286799Y9012897D01*
X3265440Y9018181D01*
X3243826Y9022798D01*
X3221968Y9026736D01*
X3199877Y9029984D01*
X3177565Y9032530D01*
X3155043Y9034363D01*
X3132324Y9035472D01*
X3109417Y9035844D01*
X3073749Y9034942D01*
X3038549Y9032264D01*
X3003861Y9027856D01*
X2969728Y9021759D01*
X2936194Y9014018D01*
X2903302Y9004676D01*
X2871095Y8993776D01*
X2839619Y8981364D01*
X2808915Y8967481D01*
X2779027Y8952171D01*
X2750000Y8935479D01*
X2721876Y8917448D01*
X2694700Y8898120D01*
X2668514Y8877541D01*
X2643363Y8855753D01*
X2619290Y8832800D01*
X2596338Y8808726D01*
X2574551Y8783574D01*
X2553973Y8757388D01*
X2534646Y8730211D01*
X2516616Y8702087D01*
X2499925Y8673060D01*
X2484617Y8643173D01*
X2470735Y8612470D01*
X2458323Y8580994D01*
X2447425Y8548788D01*
X2438084Y8515898D01*
X2430344Y8482365D01*
X2424247Y8448234D01*
X2419839Y8413548D01*
X2417162Y8378352D01*
X2416260Y8342687D01*
X2417162Y8307023D01*
X2419839Y8271827D01*
X2424247Y8237144D01*
X2430344Y8203015D01*
X2438084Y8169486D01*
X2447425Y8136599D01*
X2458323Y8104398D01*
X2470735Y8072927D01*
X2484617Y8042229D01*
X2499925Y8012347D01*
X2516616Y7983326D01*
X2534646Y7955209D01*
X2553973Y7928038D01*
X2574551Y7901859D01*
X2596338Y7876713D01*
X2619290Y7852646D01*
X2643363Y7829700D01*
X2668514Y7807919D01*
X2694700Y7787346D01*
X2721876Y7768025D01*
X2750000Y7750000D01*
X2779027Y7733314D01*
X2808915Y7718010D01*
X2839619Y7704132D01*
X2871095Y7691725D01*
X2903302Y7680830D01*
X2936194Y7671492D01*
X2969728Y7663754D01*
X3003861Y7657660D01*
X3038549Y7653253D01*
X3073749Y7650577D01*
X3109417Y7649675D01*
X3155043Y7651154D01*
X3199877Y7655530D01*
X3243826Y7662711D01*
X3286799Y7672605D01*
X3328706Y7685121D01*
X3369455Y7700166D01*
X3408954Y7717648D01*
X3447113Y7737476D01*
X3483840Y7759558D01*
X3519045Y7783802D01*
X3552635Y7810116D01*
X3584520Y7838408D01*
X3614609Y7868587D01*
X3642810Y7900560D01*
X3669033Y7934235D01*
X3693185Y7969521D01*
X3696771Y7973553D01*
X3700377Y7977789D01*
X3703942Y7982151D01*
X3707405Y7986564D01*
X3710704Y7990949D01*
X3713779Y7995228D01*
X3716569Y7999325D01*
X3719013Y8003162D01*
X3751641Y8056482D01*
X3752410Y8057663D01*
X3753234Y8058802D01*
X3754112Y8059899D01*
X3755040Y8060952D01*
X3756017Y8061961D01*
X3757040Y8062925D01*
X3758105Y8063843D01*
X3759212Y8064714D01*
X3760356Y8065537D01*
X3761537Y8066312D01*
X3762750Y8067038D01*
X3763993Y8067713D01*
X3765265Y8068337D01*
X3766562Y8068909D01*
X3767882Y8069429D01*
X3769222Y8069894D01*
X3770580Y8070306D01*
X3771954Y8070662D01*
X3773340Y8070962D01*
X3774736Y8071204D01*
X3776140Y8071389D01*
X3777549Y8071515D01*
X3778960Y8071582D01*
X3780372Y8071588D01*
X3781781Y8071533D01*
X3783185Y8071416D01*
X3784581Y8071236D01*
X3785967Y8070992D01*
X3787341Y8070683D01*
X3788699Y8070309D01*
X3790040Y8069868D01*
X3791360Y8069360D01*
X4852546Y7630214D01*
X4853831Y7629643D01*
X4855067Y7629017D01*
X4856253Y7628336D01*
X4857390Y7627604D01*
X4858474Y7626823D01*
X4859507Y7625995D01*
X4860487Y7625122D01*
X4861413Y7624206D01*
X4862285Y7623250D01*
X4863101Y7622255D01*
X4863861Y7621224D01*
X4864564Y7620160D01*
X4865210Y7619064D01*
X4865796Y7617939D01*
X4866324Y7616786D01*
X4866791Y7615609D01*
X4867198Y7614409D01*
X4867542Y7613188D01*
X4867824Y7611950D01*
X4868043Y7610695D01*
X4868197Y7609427D01*
X4868286Y7608146D01*
X4868309Y7606857D01*
X4868266Y7605560D01*
X4868155Y7604259D01*
X4867976Y7602955D01*
X4867728Y7601650D01*
X4867410Y7600347D01*
X4867022Y7599048D01*
X4866562Y7597756D01*
X4866029Y7596472D01*
X4865423Y7595198D01*
X4751694Y7382208D01*
X4750366Y7379676D01*
X4749231Y7376985D01*
X4748288Y7374160D01*
X4747536Y7371223D01*
X4746975Y7368198D01*
X4746604Y7365110D01*
X4746424Y7361981D01*
X4746433Y7358835D01*
X4746632Y7355696D01*
X4747019Y7352588D01*
X4747595Y7349534D01*
X4748359Y7346558D01*
X4749310Y7343684D01*
X4750449Y7340934D01*
X4751774Y7338334D01*
X4753285Y7335906D01*
X5084780Y6852917D01*
X5085545Y6851732D01*
X5086250Y6850511D01*
X5086896Y6849257D01*
X5087483Y6847974D01*
X5088011Y6846663D01*
X5088480Y6845328D01*
X5089243Y6842594D01*
X5089773Y6839795D01*
X5090074Y6836951D01*
X5090147Y6834086D01*
X5089994Y6831220D01*
X5089617Y6828375D01*
X5089017Y6825574D01*
X5088198Y6822837D01*
X5087161Y6820186D01*
X5085908Y6817644D01*
X5085201Y6816420D01*
X5084441Y6815232D01*
X5083628Y6814081D01*
X5082762Y6812971D01*
X5081843Y6811904D01*
X5080873Y6810884D01*
X4637747Y6367614D01*
X4636720Y6366636D01*
X4635647Y6365712D01*
X4634531Y6364842D01*
X4633375Y6364024D01*
X4632181Y6363261D01*
X4630953Y6362551D01*
X4629692Y6361896D01*
X4628402Y6361295D01*
X4627086Y6360749D01*
X4625745Y6360257D01*
X4623002Y6359440D01*
X4620196Y6358845D01*
X4617347Y6358473D01*
X4614478Y6358328D01*
X4611611Y6358410D01*
X4608766Y6358721D01*
X4607359Y6358963D01*
X4605966Y6359263D01*
X4604589Y6359622D01*
X4603232Y6360039D01*
X4601896Y6360514D01*
X4600585Y6361049D01*
X4599301Y6361642D01*
X4598048Y6362295D01*
X4596827Y6363007D01*
X4595641Y6363780D01*
X4103971Y6701206D01*
X4101538Y6702722D01*
X4098922Y6704073D01*
X4096148Y6705258D01*
X4093239Y6706275D01*
X4090220Y6707122D01*
X4087115Y6707797D01*
X4083949Y6708298D01*
X4080744Y6708623D01*
X4077526Y6708771D01*
X4074319Y6708740D01*
X4071147Y6708527D01*
X4068034Y6708131D01*
X4065004Y6707550D01*
X4062082Y6706782D01*
X4059291Y6705826D01*
X4056656Y6704678D01*
X3593491Y6519253D01*
X3592141Y6518793D01*
X3590795Y6518270D01*
X3588121Y6517042D01*
X3585487Y6515586D01*
X3582908Y6513920D01*
X3580401Y6512062D01*
X3577982Y6510029D01*
X3575668Y6507840D01*
X3573474Y6505512D01*
X3571418Y6503063D01*
X3569515Y6500511D01*
X3567781Y6497873D01*
X3566235Y6495167D01*
X3564890Y6492411D01*
X3563765Y6489623D01*
X3563290Y6488222D01*
X3562875Y6486820D01*
X3562523Y6485419D01*
X3562237Y6484020D01*
X3451690Y5890051D01*
X3451402Y5888670D01*
X3451046Y5887306D01*
X3450624Y5885960D01*
X3450138Y5884635D01*
X3449591Y5883331D01*
X3448984Y5882052D01*
X3448319Y5880799D01*
X3447599Y5879573D01*
X3446826Y5878376D01*
X3446002Y5877210D01*
X3445129Y5876077D01*
X3444209Y5874979D01*
X3443244Y5873917D01*
X3442237Y5872893D01*
X3441189Y5871908D01*
X3440102Y5870966D01*
X3438979Y5870067D01*
X3437822Y5869213D01*
X3436633Y5868406D01*
X3435413Y5867648D01*
X3434166Y5866940D01*
X3432893Y5866285D01*
X3431596Y5865683D01*
X3430278Y5865137D01*
X3428940Y5864649D01*
X3427585Y5864221D01*
X3426214Y5863853D01*
X3424831Y5863548D01*
X3423436Y5863308D01*
X3422032Y5863134D01*
X3420622Y5863029D01*
X3419207Y5862993D01*
X2792465Y5862921D01*
X2791046Y5862953D01*
X2789633Y5863054D01*
X2788228Y5863224D01*
X2786831Y5863459D01*
X2785447Y5863759D01*
X2784076Y5864121D01*
X2782720Y5864545D01*
X2781382Y5865027D01*
X2780064Y5865567D01*
X2778767Y5866162D01*
X2776248Y5867513D01*
X2773840Y5869066D01*
X2771561Y5870807D01*
X2769426Y5872722D01*
X2767452Y5874798D01*
X2765655Y5877019D01*
X2764052Y5879373D01*
X2763329Y5880595D01*
X2762660Y5881845D01*
X2762048Y5883121D01*
X2761494Y5884422D01*
X2761001Y5885745D01*
X2760572Y5887090D01*
X2760206Y5888453D01*
X2759908Y5889834D01*
X2646686Y6498779D01*
X2646036Y6501571D01*
X2645141Y6504379D01*
X2644015Y6507184D01*
X2642675Y6509968D01*
X2641136Y6512711D01*
X2639414Y6515395D01*
X2637526Y6518001D01*
X2635487Y6520511D01*
X2633313Y6522906D01*
X2631020Y6525167D01*
X2628623Y6527275D01*
X2626139Y6529213D01*
X2623584Y6530961D01*
X2620973Y6532501D01*
X2618323Y6533813D01*
X2615648Y6534880D01*
X2180192Y6721535D01*
X2177585Y6722744D01*
X2174821Y6723760D01*
X2171925Y6724584D01*
X2168921Y6725218D01*
X2165832Y6725664D01*
X2162682Y6725923D01*
X2159495Y6725997D01*
X2156296Y6725886D01*
X2153107Y6725594D01*
X2149953Y6725121D01*
X2146857Y6724468D01*
X2143844Y6723638D01*
X2140937Y6722631D01*
X2138161Y6721450D01*
X2135538Y6720095D01*
X2133094Y6718569D01*
X1615958Y6363780D01*
X1614772Y6363014D01*
X1613552Y6362307D01*
X1612300Y6361659D01*
X1611017Y6361070D01*
X1609708Y6360539D01*
X1608374Y6360066D01*
X1605645Y6359294D01*
X1602850Y6358754D01*
X1600011Y6358442D01*
X1597150Y6358358D01*
X1594288Y6358501D01*
X1591446Y6358869D01*
X1588646Y6359459D01*
X1585910Y6360272D01*
X1583258Y6361305D01*
X1580712Y6362558D01*
X1579485Y6363265D01*
X1578293Y6364027D01*
X1577138Y6364843D01*
X1576023Y6365713D01*
X1574951Y6366637D01*
X1573924Y6367614D01*
X1130799Y6810812D01*
X1129821Y6811839D01*
X1128897Y6812911D01*
X1128025Y6814026D01*
X1127206Y6815181D01*
X1126441Y6816373D01*
X1125730Y6817599D01*
X1125072Y6818858D01*
X1124469Y6820145D01*
X1123920Y6821459D01*
X1123425Y6822797D01*
X1122602Y6825534D01*
X1122000Y6828334D01*
X1121622Y6831175D01*
X1121470Y6834037D01*
X1121545Y6836898D01*
X1121850Y6839737D01*
X1122089Y6841141D01*
X1122387Y6842532D01*
X1122743Y6843906D01*
X1123158Y6845261D01*
X1123631Y6846595D01*
X1124164Y6847904D01*
X1124756Y6849187D01*
X1125408Y6850439D01*
X1126120Y6851660D01*
X1126892Y6852845D01*
X1487976Y7379025D01*
X1489497Y7381459D01*
X1490852Y7384077D01*
X1492038Y7386854D01*
X1493055Y7389767D01*
X1493899Y7392791D01*
X1494570Y7395900D01*
X1495066Y7399071D01*
X1495385Y7402279D01*
X1495526Y7405500D01*
X1495486Y7408709D01*
X1495265Y7411882D01*
X1494861Y7414993D01*
X1494271Y7418019D01*
X1493495Y7420935D01*
X1492531Y7423717D01*
X1491376Y7426340D01*
X1318539Y7848485D01*
X1318062Y7849827D01*
X1317521Y7851165D01*
X1316919Y7852498D01*
X1316258Y7853822D01*
X1314766Y7856438D01*
X1313066Y7858997D01*
X1311174Y7861485D01*
X1309110Y7863885D01*
X1306890Y7866182D01*
X1304534Y7868359D01*
X1302059Y7870402D01*
X1299484Y7872293D01*
X1296827Y7874018D01*
X1294106Y7875561D01*
X1291339Y7876906D01*
X1288544Y7878037D01*
X1285740Y7878938D01*
X1284340Y7879298D01*
X1282944Y7879594D01*
X653091Y7996796D01*
X651707Y7997087D01*
X650340Y7997446D01*
X648993Y7997871D01*
X647667Y7998359D01*
X646364Y7998908D01*
X645085Y7999517D01*
X643833Y8000182D01*
X642608Y8000903D01*
X641414Y8001676D01*
X640250Y8002501D01*
X639120Y8003374D01*
X638025Y8004294D01*
X636967Y8005258D01*
X635947Y8006265D01*
X634967Y8007313D01*
X634028Y8008398D01*
X633134Y8009520D01*
X632284Y8010676D01*
X631482Y8011865D01*
X630728Y8013083D01*
X630024Y8014329D01*
X629373Y8015601D01*
X628775Y8016896D01*
X628234Y8018214D01*
X627749Y8019550D01*
X627323Y8020905D01*
X626959Y8022274D01*
X626656Y8023657D01*
X626418Y8025051D01*
X626246Y8026454D01*
X626141Y8027865D01*
X626106Y8029280D01*
X626106Y8656022D01*
X626141Y8657434D01*
X626246Y8658841D01*
X626418Y8660242D01*
X626656Y8661634D01*
X626959Y8663015D01*
X627323Y8664383D01*
X627749Y8665736D01*
X628234Y8667072D01*
X628775Y8668389D01*
X629373Y8669684D01*
X630728Y8672202D01*
X632284Y8674610D01*
X634028Y8676889D01*
X635947Y8679025D01*
X638025Y8680998D01*
X640250Y8682794D01*
X641414Y8683619D01*
X642608Y8684394D01*
X643833Y8685115D01*
X645085Y8685782D01*
X646364Y8686391D01*
X647667Y8686941D01*
X648993Y8687430D01*
X650340Y8687855D01*
X651707Y8688214D01*
X653091Y8688506D01*
X1282944Y8805708D01*
X1285740Y8806363D01*
X1288544Y8807263D01*
X1291339Y8808392D01*
X1294106Y8809735D01*
X1296827Y8811276D01*
X1299484Y8812998D01*
X1302059Y8814888D01*
X1304534Y8816928D01*
X1306890Y8819104D01*
X1309110Y8821400D01*
X1311174Y8823800D01*
X1313066Y8826289D01*
X1314766Y8828850D01*
X1316258Y8831469D01*
X1317521Y8834130D01*
X1318539Y8836817D01*
X1491376Y9258962D01*
X1492531Y9261591D01*
X1493495Y9264378D01*
X1494271Y9267299D01*
X1494861Y9270329D01*
X1495265Y9273444D01*
X1495486Y9276619D01*
X1495526Y9279829D01*
X1495385Y9283050D01*
X1495066Y9286258D01*
X1494570Y9289428D01*
X1493899Y9292535D01*
X1493055Y9295555D01*
X1492038Y9298464D01*
X1490852Y9301237D01*
X1489497Y9303849D01*
X1487976Y9306277D01*
X1126892Y9832456D01*
X1126120Y9833645D01*
X1125408Y9834869D01*
X1124756Y9836126D01*
X1124164Y9837412D01*
X1123631Y9838726D01*
X1123158Y9840064D01*
X1122387Y9842802D01*
X1121850Y9845605D01*
X1121545Y9848452D01*
X1121470Y9851321D01*
X1121622Y9854190D01*
X1122000Y9857038D01*
X1122602Y9859843D01*
X1123425Y9862584D01*
X1124469Y9865238D01*
X1125730Y9867785D01*
X1126441Y9869011D01*
X1127206Y9870202D01*
X1128025Y9871356D01*
X1128897Y9872469D01*
X1129821Y9873538D01*
X1130799Y9874562D01*
X1573924Y10317688D01*
X1574951Y10318662D01*
X1576023Y10319584D01*
X1577138Y10320453D01*
X1578293Y10321270D01*
X1579485Y10322033D01*
X1580712Y10322743D01*
X1581970Y10323400D01*
X1583258Y10324002D01*
X1584572Y10324551D01*
X1585910Y10325045D01*
X1588646Y10325868D01*
X1591446Y10326471D01*
X1594288Y10326851D01*
X1597150Y10327005D01*
X1600011Y10326932D01*
X1602850Y10326629D01*
X1604254Y10326391D01*
X1605645Y10326094D01*
X1607019Y10325739D01*
X1608374Y10325326D01*
X1609708Y10324853D01*
X1611017Y10324321D01*
X1612300Y10323729D01*
X1613552Y10323078D01*
X1614772Y10322366D01*
X1615958Y10321595D01*
X2133094Y9966732D01*
X2135538Y9965220D01*
X2138161Y9963878D01*
X2140937Y9962708D01*
X2143844Y9961712D01*
X2146857Y9960891D01*
X2149953Y9960246D01*
X2153107Y9959780D01*
X2156296Y9959493D01*
X2159495Y9959387D01*
X2162682Y9959464D01*
X2165832Y9959724D01*
X2168921Y9960170D01*
X2171925Y9960803D01*
X2174821Y9961625D01*
X2177585Y9962636D01*
X2180192Y9963839D01*
X2615648Y10150566D01*
X2616988Y10151064D01*
X2618323Y10151625D01*
X2620973Y10152929D01*
X2623584Y10154458D01*
X2626139Y10156196D01*
X2628623Y10158123D01*
X2631020Y10160221D01*
X2633313Y10162472D01*
X2635487Y10164858D01*
X2637526Y10167360D01*
X2639414Y10169960D01*
X2641136Y10172640D01*
X2642675Y10175381D01*
X2644015Y10178166D01*
X2645141Y10180975D01*
X2645618Y10182383D01*
X2646036Y10183791D01*
X2646393Y10185196D01*
X2646686Y10186595D01*
X2759908Y10795467D01*
X2760206Y10796855D01*
X2760571Y10798224D01*
X2761001Y10799574D01*
X2761493Y10800902D01*
X2762045Y10802207D01*
X2762657Y10803487D01*
X2763324Y10804741D01*
X2764046Y10805966D01*
X2764821Y10807161D01*
X2765646Y10808325D01*
X2766519Y10809455D01*
X2767439Y10810550D01*
X2768403Y10811608D01*
X2769408Y10812627D01*
X2770455Y10813607D01*
X2771539Y10814544D01*
X2772659Y10815438D01*
X2773813Y10816287D01*
X2774999Y10817088D01*
X2776215Y10817841D01*
X2777459Y10818543D01*
X2778728Y10819193D01*
X2780022Y10819790D01*
X2781337Y10820330D01*
X2782671Y10820814D01*
X2784024Y10821239D01*
X2785392Y10821603D01*
X2786773Y10821904D01*
X2788166Y10822142D01*
X2789568Y10822313D01*
X2790978Y10822418D01*
X2792392Y10822453D01*
X3419134Y10822453D01*
X3420550Y10822418D01*
D11*
X10500000Y14000000D02*
X5500000Y14000000D01*
X5500000Y14000000D02*
X5500000Y31000000D01*
X5500000Y31000000D02*
X10500000Y31000000D01*
X10500000Y31000000D02*
X10500000Y14000000D01*
G36*
X10500000Y14000000D02*
G01*
X5500000Y14000000D01*
X5500000Y31000000D01*
X10500000Y31000000D01*
X10500000Y14000000D01*
G37*
D12*
X9178571Y41071429D02*
X9035714Y41023810D01*
X8988095Y40976191D01*
X8940476Y40880953D01*
X8940476Y40738096D01*
X8988095Y40642858D01*
X9035714Y40595239D01*
X9130952Y40547620D01*
X9511904Y40547620D01*
X9511904Y41547620D01*
X9178571Y41547620D01*
X9083333Y41500000D01*
X9035714Y41452381D01*
X8988095Y41357143D01*
X8988095Y41261905D01*
X9035714Y41166667D01*
X9083333Y41119048D01*
X9178571Y41071429D01*
X9511904Y41071429D01*
X39190476Y4047620D02*
X38571428Y4047620D01*
X38904761Y3666667D01*
X38761904Y3666667D01*
X38666666Y3619048D01*
X38619047Y3571429D01*
X38571428Y3476191D01*
X38571428Y3238096D01*
X38619047Y3142858D01*
X38666666Y3095239D01*
X38761904Y3047620D01*
X39047619Y3047620D01*
X39142857Y3095239D01*
X39190476Y3142858D01*
X38238095Y3714286D02*
X38000000Y3047620D01*
X37761904Y3714286D01*
X37476190Y4047620D02*
X36857142Y4047620D01*
X37190476Y3666667D01*
X37047619Y3666667D01*
X36952380Y3619048D01*
X36904761Y3571429D01*
X36857142Y3476191D01*
X36857142Y3238096D01*
X36904761Y3142858D01*
X36952380Y3095239D01*
X37047619Y3047620D01*
X37333333Y3047620D01*
X37428571Y3095239D01*
X37476190Y3142858D01*
X15678571Y12660715D02*
X15678571Y13410715D01*
X15428571Y12875000D01*
X15178571Y13410715D01*
X15178571Y12660715D01*
X14821428Y12660715D02*
X14821428Y13410715D01*
X14500000Y12696429D02*
X14392857Y12660715D01*
X14214285Y12660715D01*
X14142857Y12696429D01*
X14107142Y12732143D01*
X14071428Y12803572D01*
X14071428Y12875000D01*
X14107142Y12946429D01*
X14142857Y12982143D01*
X14214285Y13017858D01*
X14357142Y13053572D01*
X14428571Y13089286D01*
X14464285Y13125000D01*
X14500000Y13196429D01*
X14500000Y13267858D01*
X14464285Y13339286D01*
X14428571Y13375000D01*
X14357142Y13410715D01*
X14178571Y13410715D01*
X14071428Y13375000D01*
X13607142Y13410715D02*
X13464285Y13410715D01*
X13392857Y13375000D01*
X13321428Y13303572D01*
X13285714Y13160715D01*
X13285714Y12910715D01*
X13321428Y12767858D01*
X13392857Y12696429D01*
X13464285Y12660715D01*
X13607142Y12660715D01*
X13678571Y12696429D01*
X13750000Y12767858D01*
X13785714Y12910715D01*
X13785714Y13160715D01*
X13750000Y13303572D01*
X13678571Y13375000D01*
X13607142Y13410715D01*
X32892857Y52047620D02*
X33369047Y52047620D01*
X33416666Y51571429D01*
X33369047Y51619048D01*
X33273809Y51666667D01*
X33035714Y51666667D01*
X32940476Y51619048D01*
X32892857Y51571429D01*
X32845238Y51476191D01*
X32845238Y51238096D01*
X32892857Y51142858D01*
X32940476Y51095239D01*
X33035714Y51047620D01*
X33273809Y51047620D01*
X33369047Y51095239D01*
X33416666Y51142858D01*
X32511904Y51714286D02*
X32273809Y51047620D01*
X32035714Y51714286D01*
X9488095Y37833334D02*
X9011904Y37833334D01*
X9583333Y37547620D02*
X9250000Y38547620D01*
X8916666Y37547620D01*
X15214285Y16196429D02*
X15107142Y16160715D01*
X14928571Y16160715D01*
X14857142Y16196429D01*
X14821428Y16232143D01*
X14785714Y16303572D01*
X14785714Y16375000D01*
X14821428Y16446429D01*
X14857142Y16482143D01*
X14928571Y16517858D01*
X15071428Y16553572D01*
X15142857Y16589286D01*
X15178571Y16625000D01*
X15214285Y16696429D01*
X15214285Y16767858D01*
X15178571Y16839286D01*
X15142857Y16875000D01*
X15071428Y16910715D01*
X14892857Y16910715D01*
X14785714Y16875000D01*
X14035714Y16232143D02*
X14071428Y16196429D01*
X14178571Y16160715D01*
X14250000Y16160715D01*
X14357142Y16196429D01*
X14428571Y16267858D01*
X14464285Y16339286D01*
X14500000Y16482143D01*
X14500000Y16589286D01*
X14464285Y16732143D01*
X14428571Y16803572D01*
X14357142Y16875000D01*
X14250000Y16910715D01*
X14178571Y16910715D01*
X14071428Y16875000D01*
X14035714Y16839286D01*
X13714285Y16160715D02*
X13714285Y16910715D01*
X13285714Y16160715D02*
X13607142Y16589286D01*
X13285714Y16910715D02*
X13714285Y16482143D01*
X32321428Y3047620D02*
X32892857Y3047620D01*
X32607142Y3047620D02*
X32607142Y4047620D01*
X32702380Y3904762D01*
X32797619Y3809524D01*
X32892857Y3761905D01*
X31988095Y3714286D02*
X31750000Y3047620D01*
X31511904Y3714286D01*
X31083333Y3047620D02*
X30892857Y3047620D01*
X30797619Y3095239D01*
X30750000Y3142858D01*
X30654761Y3285715D01*
X30607142Y3476191D01*
X30607142Y3857143D01*
X30654761Y3952381D01*
X30702380Y4000000D01*
X30797619Y4047620D01*
X30988095Y4047620D01*
X31083333Y4000000D01*
X31130952Y3952381D01*
X31178571Y3857143D01*
X31178571Y3619048D01*
X31130952Y3523810D01*
X31083333Y3476191D01*
X30988095Y3428572D01*
X30797619Y3428572D01*
X30702380Y3476191D01*
X30654761Y3523810D01*
X30607142Y3619048D01*
X37976190Y9297620D02*
X37976190Y10297620D01*
X37547619Y9345239D02*
X37404761Y9297620D01*
X37166666Y9297620D01*
X37071428Y9345239D01*
X37023809Y9392858D01*
X36976190Y9488096D01*
X36976190Y9583334D01*
X37023809Y9678572D01*
X37071428Y9726191D01*
X37166666Y9773810D01*
X37357142Y9821429D01*
X37452380Y9869048D01*
X37500000Y9916667D01*
X37547619Y10011905D01*
X37547619Y10107143D01*
X37500000Y10202381D01*
X37452380Y10250000D01*
X37357142Y10297620D01*
X37119047Y10297620D01*
X36976190Y10250000D01*
X36547619Y9297620D02*
X36547619Y10297620D01*
X36166666Y10297620D01*
X36071428Y10250000D01*
X36023809Y10202381D01*
X35976190Y10107143D01*
X35976190Y9964286D01*
X36023809Y9869048D01*
X36071428Y9821429D01*
X36166666Y9773810D01*
X36547619Y9773810D01*
X35511904Y4000000D02*
X35607142Y4047620D01*
X35750000Y4047620D01*
X35892857Y4000000D01*
X35988095Y3904762D01*
X36035714Y3809524D01*
X36083333Y3619048D01*
X36083333Y3476191D01*
X36035714Y3285715D01*
X35988095Y3190477D01*
X35892857Y3095239D01*
X35750000Y3047620D01*
X35654761Y3047620D01*
X35511904Y3095239D01*
X35464285Y3142858D01*
X35464285Y3476191D01*
X35654761Y3476191D01*
X35035714Y3047620D02*
X35035714Y4047620D01*
X34464285Y3047620D01*
X34464285Y4047620D01*
X33988095Y3047620D02*
X33988095Y4047620D01*
X33750000Y4047620D01*
X33607142Y4000000D01*
X33511904Y3904762D01*
X33464285Y3809524D01*
X33416666Y3619048D01*
X33416666Y3476191D01*
X33464285Y3285715D01*
X33511904Y3190477D01*
X33607142Y3095239D01*
X33750000Y3047620D01*
X33988095Y3047620D01*
X8130952Y47547620D02*
X8130952Y48547620D01*
X7892857Y48547620D01*
X7750000Y48500000D01*
X7654761Y48404762D01*
X7607142Y48309524D01*
X7559523Y48119048D01*
X7559523Y47976191D01*
X7607142Y47785715D01*
X7654761Y47690477D01*
X7750000Y47595239D01*
X7892857Y47547620D01*
X8130952Y47547620D01*
X7130952Y47928572D02*
X6369047Y47928572D01*
X6750000Y47547620D02*
X6750000Y48309524D01*
X11880952Y47547620D02*
X11880952Y48547620D01*
X11642857Y48547620D01*
X11500000Y48500000D01*
X11404761Y48404762D01*
X11357142Y48309524D01*
X11309523Y48119048D01*
X11309523Y47976191D01*
X11357142Y47785715D01*
X11404761Y47690477D01*
X11500000Y47595239D01*
X11642857Y47547620D01*
X11880952Y47547620D01*
X10880952Y47928572D02*
X10119047Y47928572D01*
D13*
X15678571Y18660715D02*
X15678571Y19410715D01*
X15428571Y18875000D01*
X15178571Y19410715D01*
X15178571Y18660715D01*
X14678571Y19410715D02*
X14535714Y19410715D01*
X14464285Y19375000D01*
X14392857Y19303572D01*
X14357142Y19160715D01*
X14357142Y18910715D01*
X14392857Y18767858D01*
X14464285Y18696429D01*
X14535714Y18660715D01*
X14678571Y18660715D01*
X14750000Y18696429D01*
X14821428Y18767858D01*
X14857142Y18910715D01*
X14857142Y19160715D01*
X14821428Y19303572D01*
X14750000Y19375000D01*
X14678571Y19410715D01*
X14071428Y18696429D02*
X13964285Y18660715D01*
X13785714Y18660715D01*
X13714285Y18696429D01*
X13678571Y18732143D01*
X13642857Y18803572D01*
X13642857Y18875000D01*
X13678571Y18946429D01*
X13714285Y18982143D01*
X13785714Y19017858D01*
X13928571Y19053572D01*
X14000000Y19089286D01*
X14035714Y19125000D01*
X14071428Y19196429D01*
X14071428Y19267858D01*
X14035714Y19339286D01*
X14000000Y19375000D01*
X13928571Y19410715D01*
X13750000Y19410715D01*
X13642857Y19375000D01*
X13321428Y18660715D02*
X13321428Y19410715D01*
D12*
X6353714Y11976191D02*
X6391809Y12014286D01*
X6429904Y12128572D01*
X6429904Y12204762D01*
X6391809Y12319048D01*
X6315619Y12395239D01*
X6239428Y12433334D01*
X6087047Y12471429D01*
X5972761Y12471429D01*
X5820380Y12433334D01*
X5744190Y12395239D01*
X5668000Y12319048D01*
X5629904Y12204762D01*
X5629904Y12128572D01*
X5668000Y12014286D01*
X5706095Y11976191D01*
X6010857Y11633334D02*
X6010857Y11366667D01*
X6429904Y11252381D02*
X6429904Y11633334D01*
X5629904Y11633334D01*
X5629904Y11252381D01*
X6429904Y10452381D02*
X6048952Y10719048D01*
X6429904Y10909524D02*
X5629904Y10909524D01*
X5629904Y10604762D01*
X5668000Y10528572D01*
X5706095Y10490477D01*
X5782285Y10452381D01*
X5896571Y10452381D01*
X5972761Y10490477D01*
X6010857Y10528572D01*
X6048952Y10604762D01*
X6048952Y10909524D01*
X6429904Y10109524D02*
X5629904Y10109524D01*
X6429904Y9652381D01*
X5629904Y9652381D01*
X6125142Y9271429D02*
X6125142Y8661905D01*
X5629904Y8128572D02*
X5629904Y7976191D01*
X5668000Y7900000D01*
X5744190Y7823810D01*
X5896571Y7785715D01*
X6163238Y7785715D01*
X6315619Y7823810D01*
X6391809Y7900000D01*
X6429904Y7976191D01*
X6429904Y8128572D01*
X6391809Y8204762D01*
X6315619Y8280953D01*
X6163238Y8319048D01*
X5896571Y8319048D01*
X5744190Y8280953D01*
X5668000Y8204762D01*
X5629904Y8128572D01*
X6429904Y7442858D02*
X5629904Y7442858D01*
X6010857Y7442858D02*
X6010857Y6985715D01*
X6429904Y6985715D02*
X5629904Y6985715D01*
X6429904Y6223810D02*
X6429904Y6604762D01*
X5629904Y6604762D01*
X6125142Y5957143D02*
X6125142Y5347620D01*
X6429904Y4966667D02*
X5629904Y4966667D01*
X5629904Y4661905D01*
X5668000Y4585715D01*
X5706095Y4547620D01*
X5782285Y4509524D01*
X5896571Y4509524D01*
X5972761Y4547620D01*
X6010857Y4585715D01*
X6048952Y4661905D01*
X6048952Y4966667D01*
X5896571Y3633334D02*
X6429904Y3442858D01*
X5896571Y3252381D01*
X5706095Y2985715D02*
X5668000Y2947620D01*
X5629904Y2871429D01*
X5629904Y2680953D01*
X5668000Y2604762D01*
X5706095Y2566667D01*
X5782285Y2528572D01*
X5858476Y2528572D01*
X5972761Y2566667D01*
X6429904Y3023810D01*
X6429904Y2528572D01*
X8472571Y10261905D02*
X9120190Y10261905D01*
X9196380Y10300000D01*
X9234476Y10338096D01*
X9272571Y10414286D01*
X9272571Y10528572D01*
X9234476Y10604762D01*
X8967809Y10261905D02*
X9005904Y10338096D01*
X9005904Y10490477D01*
X8967809Y10566667D01*
X8929714Y10604762D01*
X8853523Y10642858D01*
X8624952Y10642858D01*
X8548761Y10604762D01*
X8510666Y10566667D01*
X8472571Y10490477D01*
X8472571Y10338096D01*
X8510666Y10261905D01*
X9005904Y9880953D02*
X8472571Y9880953D01*
X8205904Y9880953D02*
X8244000Y9919048D01*
X8282095Y9880953D01*
X8244000Y9842858D01*
X8205904Y9880953D01*
X8282095Y9880953D01*
X8472571Y9614286D02*
X8472571Y9309524D01*
X8205904Y9500000D02*
X8891619Y9500000D01*
X8967809Y9461905D01*
X9005904Y9385715D01*
X9005904Y9309524D01*
X9005904Y9042858D02*
X8205904Y9042858D01*
X9005904Y8700000D02*
X8586857Y8700000D01*
X8510666Y8738096D01*
X8472571Y8814286D01*
X8472571Y8928572D01*
X8510666Y9004762D01*
X8548761Y9042858D01*
X8472571Y7976191D02*
X9005904Y7976191D01*
X8472571Y8319048D02*
X8891619Y8319048D01*
X8967809Y8280953D01*
X9005904Y8204762D01*
X9005904Y8090477D01*
X8967809Y8014286D01*
X8929714Y7976191D01*
X9005904Y7595239D02*
X8205904Y7595239D01*
X8510666Y7595239D02*
X8472571Y7519048D01*
X8472571Y7366667D01*
X8510666Y7290477D01*
X8548761Y7252381D01*
X8624952Y7214286D01*
X8853523Y7214286D01*
X8929714Y7252381D01*
X8967809Y7290477D01*
X9005904Y7366667D01*
X9005904Y7519048D01*
X8967809Y7595239D01*
X8929714Y6871429D02*
X8967809Y6833334D01*
X9005904Y6871429D01*
X8967809Y6909524D01*
X8929714Y6871429D01*
X9005904Y6871429D01*
X8967809Y6147620D02*
X9005904Y6223810D01*
X9005904Y6376191D01*
X8967809Y6452381D01*
X8929714Y6490477D01*
X8853523Y6528572D01*
X8624952Y6528572D01*
X8548761Y6490477D01*
X8510666Y6452381D01*
X8472571Y6376191D01*
X8472571Y6223810D01*
X8510666Y6147620D01*
X9005904Y5690477D02*
X8967809Y5766667D01*
X8929714Y5804762D01*
X8853523Y5842858D01*
X8624952Y5842858D01*
X8548761Y5804762D01*
X8510666Y5766667D01*
X8472571Y5690477D01*
X8472571Y5576191D01*
X8510666Y5500000D01*
X8548761Y5461905D01*
X8624952Y5423810D01*
X8853523Y5423810D01*
X8929714Y5461905D01*
X8967809Y5500000D01*
X9005904Y5576191D01*
X9005904Y5690477D01*
X9005904Y5080953D02*
X8472571Y5080953D01*
X8548761Y5080953D02*
X8510666Y5042858D01*
X8472571Y4966667D01*
X8472571Y4852381D01*
X8510666Y4776191D01*
X8586857Y4738096D01*
X9005904Y4738096D01*
X8586857Y4738096D02*
X8510666Y4700000D01*
X8472571Y4623810D01*
X8472571Y4509524D01*
X8510666Y4433334D01*
X8586857Y4395239D01*
X9005904Y4395239D01*
X10293904Y12833334D02*
X9493904Y12833334D01*
X9493904Y12642858D01*
X9532000Y12528572D01*
X9608190Y12452381D01*
X9684380Y12414286D01*
X9836761Y12376191D01*
X9951047Y12376191D01*
X10103428Y12414286D01*
X10179619Y12452381D01*
X10255809Y12528572D01*
X10293904Y12642858D01*
X10293904Y12833334D01*
X10255809Y11728572D02*
X10293904Y11804762D01*
X10293904Y11957143D01*
X10255809Y12033334D01*
X10179619Y12071429D01*
X9874857Y12071429D01*
X9798666Y12033334D01*
X9760571Y11957143D01*
X9760571Y11804762D01*
X9798666Y11728572D01*
X9874857Y11690477D01*
X9951047Y11690477D01*
X10027238Y12071429D01*
X10293904Y11347620D02*
X9493904Y11347620D01*
X9989142Y11271429D02*
X10293904Y11042858D01*
X9760571Y11042858D02*
X10065333Y11347620D01*
X10293904Y10357143D02*
X9874857Y10357143D01*
X9798666Y10395239D01*
X9760571Y10471429D01*
X9760571Y10623810D01*
X9798666Y10700000D01*
X10255809Y10357143D02*
X10293904Y10433334D01*
X10293904Y10623810D01*
X10255809Y10700000D01*
X10179619Y10738096D01*
X10103428Y10738096D01*
X10027238Y10700000D01*
X9989142Y10623810D01*
X9989142Y10433334D01*
X9951047Y10357143D01*
X9760571Y9976191D02*
X10293904Y9976191D01*
X9836761Y9976191D02*
X9798666Y9938096D01*
X9760571Y9861905D01*
X9760571Y9747620D01*
X9798666Y9671429D01*
X9874857Y9633334D01*
X10293904Y9633334D01*
X10293904Y9138096D02*
X10255809Y9214286D01*
X10217714Y9252381D01*
X10141523Y9290477D01*
X9912952Y9290477D01*
X9836761Y9252381D01*
X9798666Y9214286D01*
X9760571Y9138096D01*
X9760571Y9023810D01*
X9798666Y8947620D01*
X9836761Y8909524D01*
X9912952Y8871429D01*
X10141523Y8871429D01*
X10217714Y8909524D01*
X10255809Y8947620D01*
X10293904Y9023810D01*
X10293904Y9138096D01*
X9760571Y8604762D02*
X10293904Y8414286D01*
X9760571Y8223810D01*
X10293904Y7576191D02*
X9874857Y7576191D01*
X9798666Y7614286D01*
X9760571Y7690477D01*
X9760571Y7842858D01*
X9798666Y7919048D01*
X10255809Y7576191D02*
X10293904Y7652381D01*
X10293904Y7842858D01*
X10255809Y7919048D01*
X10179619Y7957143D01*
X10103428Y7957143D01*
X10027238Y7919048D01*
X9989142Y7842858D01*
X9989142Y7652381D01*
X9951047Y7576191D01*
X9455809Y6623810D02*
X10484380Y7309524D01*
X10293904Y6357143D02*
X9760571Y6357143D01*
X9912952Y6357143D02*
X9836761Y6319048D01*
X9798666Y6280953D01*
X9760571Y6204762D01*
X9760571Y6128572D01*
X10255809Y5557143D02*
X10293904Y5633334D01*
X10293904Y5785715D01*
X10255809Y5861905D01*
X10179619Y5900000D01*
X9874857Y5900000D01*
X9798666Y5861905D01*
X9760571Y5785715D01*
X9760571Y5633334D01*
X9798666Y5557143D01*
X9874857Y5519048D01*
X9951047Y5519048D01*
X10027238Y5900000D01*
X10293904Y4833334D02*
X9493904Y4833334D01*
X10255809Y4833334D02*
X10293904Y4909524D01*
X10293904Y5061905D01*
X10255809Y5138096D01*
X10217714Y5176191D01*
X10141523Y5214286D01*
X9912952Y5214286D01*
X9836761Y5176191D01*
X9798666Y5138096D01*
X9760571Y5061905D01*
X9760571Y4909524D01*
X9798666Y4833334D01*
X10255809Y4490477D02*
X10293904Y4414286D01*
X10293904Y4261905D01*
X10255809Y4185715D01*
X10179619Y4147620D01*
X10141523Y4147620D01*
X10065333Y4185715D01*
X10027238Y4261905D01*
X10027238Y4376191D01*
X9989142Y4452381D01*
X9912952Y4490477D01*
X9874857Y4490477D01*
X9798666Y4452381D01*
X9760571Y4376191D01*
X9760571Y4261905D01*
X9798666Y4185715D01*
X10293904Y3804762D02*
X9493904Y3804762D01*
X10293904Y3461905D02*
X9874857Y3461905D01*
X9798666Y3500000D01*
X9760571Y3576191D01*
X9760571Y3690477D01*
X9798666Y3766667D01*
X9836761Y3804762D01*
X10293904Y3080953D02*
X9760571Y3080953D01*
X9493904Y3080953D02*
X9532000Y3119048D01*
X9570095Y3080953D01*
X9532000Y3042858D01*
X9493904Y3080953D01*
X9570095Y3080953D01*
X9760571Y2814286D02*
X9760571Y2509524D01*
X10293904Y2700000D02*
X9608190Y2700000D01*
X9532000Y2661905D01*
X9493904Y2585715D01*
X9493904Y2509524D01*
X9760571Y2357143D02*
X9760571Y2052381D01*
X9493904Y2242858D02*
X10179619Y2242858D01*
X10255809Y2204762D01*
X10293904Y2128572D01*
X10293904Y2052381D01*
%TO.C,TP9*%
X15461904Y52095620D02*
X14890476Y52095620D01*
X15176190Y51095620D02*
X15176190Y52095620D01*
X14557142Y51095620D02*
X14557142Y52095620D01*
X14176190Y52095620D01*
X14080952Y52048000D01*
X14033333Y52000381D01*
X13985714Y51905143D01*
X13985714Y51762286D01*
X14033333Y51667048D01*
X14080952Y51619429D01*
X14176190Y51571810D01*
X14557142Y51571810D01*
X13509523Y51095620D02*
X13319047Y51095620D01*
X13223809Y51143239D01*
X13176190Y51190858D01*
X13080952Y51333715D01*
X13033333Y51524191D01*
X13033333Y51905143D01*
X13080952Y52000381D01*
X13128571Y52048000D01*
X13223809Y52095620D01*
X13414285Y52095620D01*
X13509523Y52048000D01*
X13557142Y52000381D01*
X13604761Y51905143D01*
X13604761Y51667048D01*
X13557142Y51571810D01*
X13509523Y51524191D01*
X13414285Y51476572D01*
X13223809Y51476572D01*
X13128571Y51524191D01*
X13080952Y51571810D01*
X13033333Y51667048D01*
%TO.C,TP8*%
X10361904Y51395620D02*
X9790476Y51395620D01*
X10076190Y50395620D02*
X10076190Y51395620D01*
X9457142Y50395620D02*
X9457142Y51395620D01*
X9076190Y51395620D01*
X8980952Y51348000D01*
X8933333Y51300381D01*
X8885714Y51205143D01*
X8885714Y51062286D01*
X8933333Y50967048D01*
X8980952Y50919429D01*
X9076190Y50871810D01*
X9457142Y50871810D01*
X8314285Y50967048D02*
X8409523Y51014667D01*
X8457142Y51062286D01*
X8504761Y51157524D01*
X8504761Y51205143D01*
X8457142Y51300381D01*
X8409523Y51348000D01*
X8314285Y51395620D01*
X8123809Y51395620D01*
X8028571Y51348000D01*
X7980952Y51300381D01*
X7933333Y51205143D01*
X7933333Y51157524D01*
X7980952Y51062286D01*
X8028571Y51014667D01*
X8123809Y50967048D01*
X8314285Y50967048D01*
X8409523Y50919429D01*
X8457142Y50871810D01*
X8504761Y50776572D01*
X8504761Y50586096D01*
X8457142Y50490858D01*
X8409523Y50443239D01*
X8314285Y50395620D01*
X8123809Y50395620D01*
X8028571Y50443239D01*
X7980952Y50490858D01*
X7933333Y50586096D01*
X7933333Y50776572D01*
X7980952Y50871810D01*
X8028571Y50919429D01*
X8123809Y50967048D01*
D11*
%TO.C,TP9*%
X15150000Y49900000D02*
G75*
G03*
X15150000Y49900000I-950000J0D01*
G01*
%TO.C,TP8*%
X10050000Y49200000D02*
G75*
G03*
X10050000Y49200000I-950000J0D01*
G01*
%TO.C,TP5*%
X12950000Y13000000D02*
G75*
G03*
X12950000Y13000000I-950000J0D01*
G01*
%TO.C,TP6*%
X42450000Y38500000D02*
G75*
G03*
X42450000Y38500000I-950000J0D01*
G01*
%TO.C,TP7*%
X42450000Y33500000D02*
G75*
G03*
X42450000Y33500000I-950000J0D01*
G01*
%TO.C,kibuzzard-61C38E31*%
G36*
X3370948Y25562960D02*
G01*
X3476616Y25543166D01*
X3567004Y25510175D01*
X3642113Y25463989D01*
X3717078Y25383468D01*
X3762057Y25282661D01*
X3777050Y25161570D01*
X3762057Y25040391D01*
X3717078Y24939320D01*
X3642113Y24858358D01*
X3567004Y24811824D01*
X3476616Y24778586D01*
X3370948Y24758643D01*
X3250000Y24751995D01*
X3129052Y24758643D01*
X3023384Y24778586D01*
X2932996Y24811824D01*
X2857887Y24858358D01*
X2782922Y24939320D01*
X2737943Y25040391D01*
X2722950Y25161570D01*
X2737943Y25282661D01*
X2782922Y25383468D01*
X2857887Y25463989D01*
X2932996Y25510175D01*
X3023384Y25543166D01*
X3129052Y25562960D01*
X3250000Y25569558D01*
X3370948Y25562960D01*
G37*
G36*
X3396050Y27085620D02*
G01*
X2740412Y27314220D01*
X2740412Y27317395D01*
X3396050Y27545995D01*
X3396050Y27085620D01*
G37*
G36*
X3772288Y30411036D02*
G01*
X3777050Y30324120D01*
X3768864Y30207737D01*
X3744308Y30107823D01*
X3703380Y30024380D01*
X3646081Y29957408D01*
X3571221Y29906013D01*
X3477608Y29869302D01*
X3365243Y29847275D01*
X3234125Y29839933D01*
X3111739Y29847325D01*
X3006517Y29869500D01*
X2918461Y29906459D01*
X2847569Y29958202D01*
X2793048Y30025422D01*
X2754105Y30108816D01*
X2730739Y30208382D01*
X2722950Y30324120D01*
X2727712Y30411036D01*
X2742000Y30503508D01*
X3758000Y30503508D01*
X3772288Y30411036D01*
G37*
G36*
X2142057Y21404487D02*
G01*
X2142057Y23000983D01*
X2670562Y23000983D01*
X3829438Y22581883D01*
X3829438Y22667608D01*
X3462725Y22796195D01*
X3462725Y23302608D01*
X3829438Y23431195D01*
X3829438Y23513745D01*
X2670562Y23096233D01*
X2670562Y23000983D01*
X2142057Y23000983D01*
X2142057Y23618520D01*
X2670562Y23618520D01*
X3829438Y24037620D01*
X3829438Y24132870D01*
X2670562Y24550383D01*
X2670562Y24464658D01*
X3753238Y24085245D01*
X3753238Y24082070D01*
X2670562Y23702658D01*
X2670562Y23618520D01*
X2142057Y23618520D01*
X2142057Y25161570D01*
X2654687Y25161570D01*
X2664461Y25052727D01*
X2693780Y24956386D01*
X2742645Y24872546D01*
X2811056Y24801208D01*
X2897129Y24744256D01*
X2998977Y24703577D01*
X3116600Y24679169D01*
X3250000Y24671033D01*
X3383400Y24679169D01*
X3501023Y24703577D01*
X3602871Y24744256D01*
X3688944Y24801208D01*
X3757355Y24872546D01*
X3806220Y24956386D01*
X3835539Y25052727D01*
X3845313Y25161570D01*
X3835589Y25270364D01*
X3806419Y25366556D01*
X3757802Y25450148D01*
X3689738Y25521139D01*
X3603913Y25577743D01*
X3502016Y25618175D01*
X3384045Y25642434D01*
X3250000Y25650520D01*
X3115955Y25642434D01*
X2997984Y25618175D01*
X2896087Y25577743D01*
X2810262Y25521139D01*
X2742198Y25450148D01*
X2693581Y25366556D01*
X2664411Y25270364D01*
X2654687Y25161570D01*
X2142057Y25161570D01*
X2142057Y25858483D01*
X2670562Y25858483D01*
X3829438Y25858483D01*
X3829438Y25948970D01*
X2791212Y26576033D01*
X2791212Y26579208D01*
X3829438Y26579208D01*
X3829438Y26656995D01*
X2670562Y26656995D01*
X2670562Y26564920D01*
X3708788Y25939445D01*
X3708788Y25936270D01*
X2670562Y25936270D01*
X2670562Y25858483D01*
X2142057Y25858483D01*
X2142057Y27268183D01*
X2670562Y27268183D01*
X3829438Y26849083D01*
X3829438Y26934808D01*
X3462725Y27063395D01*
X3462725Y27569808D01*
X3829438Y27698395D01*
X3829438Y27780945D01*
X2670562Y27363433D01*
X2670562Y27268183D01*
X2142057Y27268183D01*
X2142057Y27909533D01*
X2670562Y27909533D01*
X3226187Y28487383D01*
X3829438Y27893658D01*
X3829438Y27993670D01*
X3256350Y28552470D01*
X3256350Y28555645D01*
X3829438Y28555645D01*
X3829438Y28635020D01*
X2670562Y28635020D01*
X2670562Y28555645D01*
X3196025Y28555645D01*
X3196025Y28552470D01*
X2670562Y28011133D01*
X2670562Y27909533D01*
X2142057Y27909533D01*
X2142057Y28898545D01*
X2670562Y28898545D01*
X2738825Y28898545D01*
X2738825Y29474808D01*
X3167450Y29474808D01*
X3167450Y28930295D01*
X3234125Y28930295D01*
X3234125Y29474808D01*
X3761175Y29474808D01*
X3761175Y28898545D01*
X3829438Y28898545D01*
X3829438Y29554183D01*
X2670562Y29554183D01*
X2670562Y28898545D01*
X2142057Y28898545D01*
X2142057Y30324120D01*
X2654687Y30324120D01*
X2661841Y30206175D01*
X2683302Y30102105D01*
X2719069Y30011912D01*
X2769144Y29935594D01*
X2833526Y29873153D01*
X2912215Y29824587D01*
X3005211Y29789897D01*
X3112515Y29769083D01*
X3234125Y29762145D01*
X3362399Y29769083D01*
X3475582Y29789897D01*
X3573674Y29824587D01*
X3656674Y29873153D01*
X3724584Y29935594D01*
X3777403Y30011912D01*
X3815130Y30102105D01*
X3837767Y30206175D01*
X3845313Y30324120D01*
X3838963Y30459455D01*
X3819913Y30582883D01*
X2680087Y30582883D01*
X2661037Y30457867D01*
X2654687Y30324120D01*
X2142057Y30324120D01*
X2142057Y31095513D01*
X4357943Y31095513D01*
X4357943Y22069253D01*
X2142057Y21404487D01*
G37*
G36*
X3396050Y22818420D02*
G01*
X2740412Y23047020D01*
X2740412Y23050195D01*
X3396050Y23278795D01*
X3396050Y22818420D01*
G37*
%TO.C,TP13*%
X8450000Y38000000D02*
G75*
G03*
X8450000Y38000000I-950000J0D01*
G01*
%TO.C,TP3*%
X12950000Y19000000D02*
G75*
G03*
X12950000Y19000000I-950000J0D01*
G01*
%TO.C,TP10*%
X34950000Y41500000D02*
G75*
G03*
X34950000Y41500000I-950000J0D01*
G01*
%TO.C,TP11*%
X34950000Y36500000D02*
G75*
G03*
X34950000Y36500000I-950000J0D01*
G01*
%TO.C,TP2*%
X4950000Y43500000D02*
G75*
G03*
X4950000Y43500000I-950000J0D01*
G01*
%TO.C,TP12*%
X38950000Y1750000D02*
G75*
G03*
X38950000Y1750000I-950000J0D01*
G01*
%TO.C,TP18*%
X37950000Y8000000D02*
G75*
G03*
X37950000Y8000000I-950000J0D01*
G01*
%TO.C,TP17*%
X33700000Y49750000D02*
G75*
G03*
X33700000Y49750000I-950000J0D01*
G01*
%TO.C,kibuzzard-622431C0*%
G36*
X3389830Y20474369D02*
G01*
X3508147Y20454249D01*
X3604952Y20420718D01*
X3680245Y20373773D01*
X3734026Y20313416D01*
X3766294Y20239645D01*
X3777050Y20152463D01*
X3762763Y20052538D01*
X3719900Y19970782D01*
X3648463Y19907194D01*
X3575338Y19871425D01*
X3484553Y19845877D01*
X3376107Y19830547D01*
X3250000Y19825438D01*
X3123893Y19830547D01*
X3015447Y19845877D01*
X2924662Y19871425D01*
X2851537Y19907194D01*
X2780100Y19970782D01*
X2737237Y20052538D01*
X2722950Y20152463D01*
X2733706Y20239645D01*
X2765974Y20313416D01*
X2819755Y20373773D01*
X2895048Y20420718D01*
X2991853Y20454249D01*
X3110170Y20474369D01*
X3250000Y20481075D01*
X3389830Y20474369D01*
G37*
G36*
X4357943Y21737846D02*
G01*
X4357943Y17926920D01*
X2142057Y17262154D01*
X2142057Y18791975D01*
X2654687Y18791975D01*
X2664124Y18691962D01*
X2692435Y18607825D01*
X2739619Y18539562D01*
X2803736Y18489292D01*
X2882847Y18459129D01*
X2976950Y18449075D01*
X3081460Y18462922D01*
X3189675Y18504461D01*
X3301594Y18573694D01*
X3374460Y18631701D01*
X3456534Y18706028D01*
X3547815Y18796674D01*
X3648304Y18903640D01*
X3758000Y19026925D01*
X3761175Y19026925D01*
X3761175Y18439550D01*
X3829438Y18439550D01*
X3829438Y19138050D01*
X3761175Y19138050D01*
X3664338Y19026815D01*
X3574908Y18928059D01*
X3492888Y18841783D01*
X3418275Y18767986D01*
X3351071Y18706669D01*
X3291275Y18657831D01*
X3182267Y18586835D01*
X3079608Y18544237D01*
X2983300Y18530037D01*
X2873564Y18547500D01*
X2792006Y18599887D01*
X2741405Y18684819D01*
X2724537Y18799912D01*
X2734768Y18906804D01*
X2765460Y19011579D01*
X2816612Y19114237D01*
X2737237Y19114237D01*
X2691376Y19010697D01*
X2663860Y18903276D01*
X2654687Y18791975D01*
X2142057Y18791975D01*
X2142057Y19422212D01*
X3634175Y19422212D01*
X3829438Y19422212D01*
X3829438Y19512700D01*
X3634175Y19512700D01*
X3634175Y19422212D01*
X2142057Y19422212D01*
X2142057Y20152463D01*
X2654687Y20152463D01*
X2663989Y20057213D01*
X2691895Y19974663D01*
X2738403Y19904813D01*
X2803516Y19847663D01*
X2887231Y19803213D01*
X2989551Y19771463D01*
X3110474Y19752412D01*
X3250000Y19746063D01*
X3389526Y19752412D01*
X3510449Y19771463D01*
X3612769Y19803213D01*
X3696484Y19847663D01*
X3761597Y19904813D01*
X3808105Y19974663D01*
X3836011Y20057213D01*
X3845313Y20152463D01*
X3836011Y20248085D01*
X3808105Y20330957D01*
X3761597Y20401080D01*
X3696484Y20458453D01*
X3612769Y20503077D01*
X3510449Y20534951D01*
X3389526Y20554075D01*
X3250000Y20560450D01*
X3110474Y20554075D01*
X2989551Y20534951D01*
X2887231Y20503077D01*
X2803516Y20458453D01*
X2738403Y20401080D01*
X2691895Y20330957D01*
X2663989Y20248085D01*
X2654687Y20152463D01*
X2142057Y20152463D01*
X2142057Y21073080D01*
X4357943Y21737846D01*
G37*
%TO.C,TP16*%
X32700000Y1750000D02*
G75*
G03*
X32700000Y1750000I-950000J0D01*
G01*
%TO.C,TP4*%
X4950000Y38500000D02*
G75*
G03*
X4950000Y38500000I-950000J0D01*
G01*
%TO.C,TP14*%
X35700000Y1750000D02*
G75*
G03*
X35700000Y1750000I-950000J0D01*
G01*
%TO.C,TP1*%
X12950000Y16500000D02*
G75*
G03*
X12950000Y16500000I-950000J0D01*
G01*
%TO.C,TP15*%
X8450000Y41000000D02*
G75*
G03*
X8450000Y41000000I-950000J0D01*
G01*
%TD*%
%LPC*%
D14*
%TO.C,TP9*%
X14200000Y49900000D03*
%TD*%
%TO.C,TP8*%
X9100000Y49200000D03*
%TD*%
D15*
%TO.C,ENC1*%
X12000000Y35800000D03*
X12000000Y46200000D03*
D16*
X14000000Y43500000D03*
X14000000Y41000000D03*
X14000000Y38500000D03*
%TD*%
D17*
%TO.C,J1*%
X18180000Y57820000D03*
D18*
X18180000Y62000000D03*
X26820000Y62000000D03*
D17*
X26820000Y57820000D03*
D19*
X25390000Y58320000D03*
X19610000Y58320000D03*
%TD*%
D16*
%TO.C,SW3*%
X34000000Y33920000D03*
X34000000Y39000000D03*
X34000000Y44080000D03*
%TD*%
D20*
%TO.C,J3*%
X42750000Y8500000D03*
X42750000Y10500000D03*
X42750000Y12500000D03*
X42750000Y14500000D03*
X42750000Y16500000D03*
D21*
X42750000Y18500000D03*
%TD*%
D22*
%TO.C,U1*%
X17150000Y5905000D03*
X17150000Y7685000D03*
X17150000Y9465000D03*
X17150000Y11245000D03*
X17150000Y13025000D03*
X17150000Y14805000D03*
X17150000Y16585000D03*
X17150000Y18365000D03*
X27850000Y17475000D03*
X27850000Y15695000D03*
X27850000Y13915000D03*
X27850000Y12135000D03*
X27850000Y10355000D03*
X27850000Y8575000D03*
X27850000Y6795000D03*
D23*
X27850000Y5015000D03*
%TD*%
D16*
%TO.C,SW2*%
X41000000Y35920000D03*
X41000000Y41000000D03*
X41000000Y46080000D03*
%TD*%
%TO.C,SW1*%
X4000000Y35920000D03*
X4000000Y41000000D03*
X4000000Y46080000D03*
%TD*%
D14*
%TO.C,TP5*%
X12000000Y13000000D03*
%TD*%
%TO.C,TP6*%
X41500000Y38500000D03*
%TD*%
%TO.C,TP7*%
X41500000Y33500000D03*
%TD*%
%TO.C,TP13*%
X7500000Y38000000D03*
%TD*%
%TO.C,TP3*%
X12000000Y19000000D03*
%TD*%
%TO.C,TP10*%
X34000000Y41500000D03*
%TD*%
%TO.C,TP11*%
X34000000Y36500000D03*
%TD*%
%TO.C,TP2*%
X4000000Y43500000D03*
%TD*%
%TO.C,TP12*%
X38000000Y1750000D03*
%TD*%
%TO.C,TP18*%
X37000000Y8000000D03*
%TD*%
%TO.C,TP17*%
X32750000Y49750000D03*
%TD*%
%TO.C,TP16*%
X31750000Y1750000D03*
%TD*%
%TO.C,TP4*%
X4000000Y38500000D03*
%TD*%
%TO.C,TP14*%
X34750000Y1750000D03*
%TD*%
%TO.C,TP1*%
X12000000Y16500000D03*
%TD*%
%TO.C,TP15*%
X7500000Y41000000D03*
%TD*%
M02*
