M48
; DRILL file {KiCad (6.0.7)} date Sat Nov 12 21:38:40 2022
; FORMAT={-:-/ absolute / inch / decimal}
; #@! TF.CreationDate,2022-11-12T21:38:40-05:00
; #@! TF.GenerationSoftware,Kicad,Pcbnew,(6.0.7)
; #@! TF.FileFunction,Plated,1,4,PTH
FMAT,2
INCH
; #@! TA.AperFunction,Plated,PTH,ViaDrill
T1C0.0079
; #@! TA.AperFunction,Plated,PTH,ViaDrill
T2C0.0098
; #@! TA.AperFunction,Plated,PTH,ViaDrill
T3C0.0118
; #@! TA.AperFunction,Plated,PTH,ViaDrill
T4C0.0157
; #@! TA.AperFunction,Plated,PTH,ComponentDrill
T5C0.0236
; #@! TA.AperFunction,Plated,PTH,ComponentDrill
T6C0.0276
; #@! TA.AperFunction,Plated,PTH,ComponentDrill
T7C0.0315
; #@! TA.AperFunction,Plated,PTH,ComponentDrill
T8C0.0394
%
G90
G05
T1
X0.5118Y1.1378
X0.7894Y0.8946
X0.8189Y1.1201
X0.8287Y1.0787
X0.937Y1.0827
X0.9449Y0.9921
X1.179Y0.8069
X1.1969Y0.2795
X1.3248Y0.7461
T2
X0.7283Y1.0236
X0.8856Y1.0433
X0.8872Y1.0107
T3
X0.187Y1.2303
X0.3346Y1.25
X0.5118Y0.748
X0.5118Y0.6496
X0.5118Y0.502
X0.5256Y0.5669
X0.5512Y0.7687
X0.561Y0.8957
X0.561Y0.8563
X0.561Y0.8169
X0.5699Y0.6496
X0.5896Y0.502
X0.6024Y1.122
X0.6309Y0.748
X0.6693Y2.1161
X0.6811Y0.8484
X0.7234Y2.2146
X0.7274Y1.063
X0.7283Y0.8071
X0.7382Y1.1024
X0.748Y2.1161
X0.7677Y0.8071
X0.8071Y0.8071
X0.8088Y0.9646
X0.8091Y0.998
X0.8238Y1.0467
X0.8268Y2.313
X0.8366Y2.1457
X0.8406Y0.9646
X0.8465Y0.8071
X0.8524Y1.0994
X0.8602Y0.8563
X0.8819Y0.9642
X0.8858Y0.876
X0.8858Y0.8071
X0.9055Y1.1811
X0.9075Y1.1024
X0.9114Y0.9508
X0.9252Y1.2205
X0.9252Y0.8071
X0.935Y2.1457
X0.9446Y1.0256
X0.9449Y2.313
X0.9449Y2.0374
X0.9449Y1.1122
X0.9627Y0.9465
X0.9665Y0.8484
X0.9673Y1.0807
X0.9748Y2.2242
X0.9843Y2.1689
X0.9941Y0.8169
X1.0118Y2.0866
X1.0125Y2.2133
X1.0138Y1.2205
X1.0335Y1.0433
X1.0335Y1.0039
X1.0335Y0.8169
X1.0473Y1.2205
X1.063Y2.2146
X1.0728Y1.0433
X1.0728Y1.0039
X1.1063Y1.0955
X1.1516Y1.122
X1.1516Y1.0039
X1.1524Y1.0433
X1.1811Y1.3091
X1.1909Y1.122
X1.2039Y0.548
X1.2303Y0.9547
X1.2303Y0.9154
X1.2303Y0.876
X1.2362Y2.0433
X1.25Y1.9094
X1.2515Y0.6688
X1.2697Y0.372
X1.3082Y0.5996
X1.3091Y0.1969
X1.3425Y0.4035
X1.3583Y0.1969
X1.3976Y1.998
X1.4065Y0.5709
X1.4065Y0.5315
X1.4075Y0.2412
X1.4075Y0.1969
X1.4567Y0.3445
X1.5059Y0.1969
X1.5256Y0.4429
X1.5256Y0.4035
X1.561Y0.7992
X1.5846Y0.3829
X1.7323Y0.8957
X1.7323Y0.7874
T4
X0.2264Y1.6142
X0.2494Y1.5446
X1.3681Y0.0295
X1.4961Y0.0295
T6
X0.6752Y0.723
X0.6752Y0.653
X0.6752Y0.5829
X0.6752Y0.5128
X0.6752Y0.4427
X0.6752Y0.3726
X0.6752Y0.3026
X0.6752Y0.2325
X1.0965Y0.688
X1.0965Y0.6179
X1.0965Y0.5478
X1.0965Y0.4778
X1.0965Y0.4077
X1.0965Y0.3376
X1.0965Y0.2675
X1.0965Y0.1974
T7
X1.6831Y0.7283
X1.6831Y0.6496
X1.6831Y0.5709
X1.6831Y0.4921
X1.6831Y0.4134
X1.6831Y0.3346
T8
X0.1575Y1.8142
X0.1575Y1.6142
X0.1575Y1.4142
X0.5512Y1.7126
X0.5512Y1.6142
X0.5512Y1.5157
X1.3386Y1.7354
X1.3386Y1.5354
X1.3386Y1.3354
X1.6142Y1.8142
X1.6142Y1.6142
X1.6142Y1.4142
T5
G00X0.7157Y2.4252
M15
G01X0.7157Y2.4567
M16
G05
G00X0.7157Y2.2547
M15
G01X0.7157Y2.298
M16
G05
G00X1.0559Y2.4252
M15
G01X1.0559Y2.4567
M16
G05
G00X1.0559Y2.2547
M15
G01X1.0559Y2.298
M16
G05
T8
G00X0.4921Y1.8189
M15
G01X0.4528Y1.8189
M16
G05
G00X0.4921Y1.4094
M15
G01X0.4528Y1.4094
M16
G05
T0
M30
