%TF.GenerationSoftware,KiCad,Pcbnew,(6.0.7)*%
%TF.CreationDate,2022-11-12T21:38:40-05:00*%
%TF.ProjectId,redshift,72656473-6869-4667-942e-6b696361645f,0.2*%
%TF.SameCoordinates,Original*%
%TF.FileFunction,Copper,L4,Bot*%
%TF.FilePolarity,Positive*%
%FSLAX46Y46*%
G04 Gerber Fmt 4.6, Leading zero omitted, Abs format (unit mm)*
G04 Created by KiCad (PCBNEW (6.0.7)) date 2022-11-12 21:38:40*
%MOMM*%
%LPD*%
G01*
G04 APERTURE LIST*
%TA.AperFunction,SMDPad,CuDef*%
%ADD10C,1.500000*%
%TD*%
%TA.AperFunction,ComponentPad*%
%ADD11O,2.700000X1.700000*%
%TD*%
%TA.AperFunction,ComponentPad*%
%ADD12C,1.700000*%
%TD*%
%TA.AperFunction,ComponentPad*%
%ADD13O,1.050000X2.100000*%
%TD*%
%TA.AperFunction,ComponentPad*%
%ADD14O,1.000000X2.000000*%
%TD*%
%TA.AperFunction,ComponentPad*%
%ADD15O,1.350000X1.350000*%
%TD*%
%TA.AperFunction,ComponentPad*%
%ADD16R,1.350000X1.350000*%
%TD*%
%TA.AperFunction,ComponentPad*%
%ADD17C,1.400000*%
%TD*%
%TA.AperFunction,ComponentPad*%
%ADD18R,1.400000X1.400000*%
%TD*%
%TA.AperFunction,ViaPad*%
%ADD19C,0.500000*%
%TD*%
%TA.AperFunction,ViaPad*%
%ADD20C,0.450000*%
%TD*%
%TA.AperFunction,ViaPad*%
%ADD21C,0.800000*%
%TD*%
%TA.AperFunction,Conductor*%
%ADD22C,0.200000*%
%TD*%
%TA.AperFunction,Conductor*%
%ADD23C,0.400000*%
%TD*%
%TA.AperFunction,Conductor*%
%ADD24C,0.250000*%
%TD*%
G04 APERTURE END LIST*
D10*
%TO.P,TP9,1,1*%
%TO.N,/USB_D-*%
X14200000Y49900000D03*
%TD*%
%TO.P,TP8,1,1*%
%TO.N,/USB_D+*%
X9100000Y49200000D03*
%TD*%
D11*
%TO.P,ENC1,MP*%
%TO.N,N/C*%
X12000000Y35800000D03*
X12000000Y46200000D03*
D12*
%TO.P,ENC1,C,C*%
%TO.N,GND*%
X14000000Y43500000D03*
%TO.P,ENC1,B,B*%
%TO.N,/ENC_B*%
X14000000Y41000000D03*
%TO.P,ENC1,A,A*%
%TO.N,/ENC_A*%
X14000000Y38500000D03*
%TD*%
D13*
%TO.P,J1,S4,SHIELD*%
%TO.N,/SH*%
X18180000Y57820000D03*
D14*
%TO.P,J1,S3,SHIELD*%
X18180000Y62000000D03*
%TO.P,J1,S2,SHIELD*%
X26820000Y62000000D03*
D13*
%TO.P,J1,S1,SHIELD*%
X26820000Y57820000D03*
%TD*%
D12*
%TO.P,SW3,3,NC*%
%TO.N,/SW3_M_NC*%
X34000000Y33920000D03*
%TO.P,SW3,2,NO*%
%TO.N,/SW3_M_NO*%
X34000000Y39000000D03*
%TO.P,SW3,1,C*%
%TO.N,GND*%
X34000000Y44080000D03*
%TD*%
D15*
%TO.P,J3,6,Pin_6*%
%TO.N,/SWCLK*%
X42750000Y8500000D03*
%TO.P,J3,5,Pin_5*%
%TO.N,/SWO*%
X42750000Y10500000D03*
%TO.P,J3,4,Pin_4*%
%TO.N,/SWDIO*%
X42750000Y12500000D03*
%TO.P,J3,3,Pin_3*%
%TO.N,/RESET*%
X42750000Y14500000D03*
%TO.P,J3,2,Pin_2*%
%TO.N,/DBG_VIN*%
X42750000Y16500000D03*
D16*
%TO.P,J3,1,Pin_1*%
%TO.N,GND*%
X42750000Y18500000D03*
%TD*%
D17*
%TO.P,U1,16*%
%TO.N,N/C*%
X17150000Y5905000D03*
%TO.P,U1,15,LED_P*%
%TO.N,Net-(R7-Pad2)*%
X17150000Y7685000D03*
%TO.P,U1,14,~{RESET}*%
%TO.N,/SNSR_RST*%
X17150000Y9465000D03*
%TO.P,U1,13,~{CS}*%
%TO.N,/FC6_CS1*%
X17150000Y11245000D03*
%TO.P,U1,12,MISO*%
%TO.N,/FC6_MISO*%
X17150000Y13025000D03*
%TO.P,U1,11,MOSI*%
%TO.N,/FC6_MOSI*%
X17150000Y14805000D03*
%TO.P,U1,10,SCLK*%
%TO.N,/FC6_SCK*%
X17150000Y16585000D03*
%TO.P,U1,9,MOTION*%
%TO.N,/SNSR_MTN*%
X17150000Y18365000D03*
%TO.P,U1,8,GND*%
%TO.N,GND*%
X27850000Y17475000D03*
%TO.P,U1,7,VDDIO*%
%TO.N,+3V3*%
X27850000Y15695000D03*
%TO.P,U1,6,GPO*%
%TO.N,unconnected-(U1-Pad6)*%
X27850000Y13915000D03*
%TO.P,U1,5,VDDPIX*%
%TO.N,Net-(C21-Pad1)*%
X27850000Y12135000D03*
%TO.P,U1,4,VDD*%
%TO.N,+1V9*%
X27850000Y10355000D03*
%TO.P,U1,3,GND*%
%TO.N,GND*%
X27850000Y8575000D03*
%TO.P,U1,2*%
%TO.N,N/C*%
X27850000Y6795000D03*
D18*
%TO.P,U1,1*%
X27850000Y5015000D03*
%TD*%
D12*
%TO.P,SW2,3,NC*%
%TO.N,/SW2_R_NC*%
X41000000Y35920000D03*
%TO.P,SW2,2,NO*%
%TO.N,/SW2_R_NO*%
X41000000Y41000000D03*
%TO.P,SW2,1,C*%
%TO.N,GND*%
X41000000Y46080000D03*
%TD*%
%TO.P,SW1,3,NC*%
%TO.N,/SW1_L_NC*%
X4000000Y35920000D03*
%TO.P,SW1,2,NO*%
%TO.N,/SW1_L_NO*%
X4000000Y41000000D03*
%TO.P,SW1,1,C*%
%TO.N,GND*%
X4000000Y46080000D03*
%TD*%
D10*
%TO.P,TP5,1,1*%
%TO.N,/FC6_MISO*%
X12000000Y13000000D03*
%TD*%
%TO.P,TP6,1,1*%
%TO.N,/SW2_R_NO*%
X41500000Y38500000D03*
%TD*%
%TO.P,TP7,1,1*%
%TO.N,/SW2_R_NC*%
X41500000Y33500000D03*
%TD*%
%TO.P,TP13,1,1*%
%TO.N,/ENC_A*%
X7500000Y38000000D03*
%TD*%
%TO.P,TP3,1,1*%
%TO.N,/FC6_MOSI*%
X12000000Y19000000D03*
%TD*%
%TO.P,TP10,1,1*%
%TO.N,/SW3_M_NO*%
X34000000Y41500000D03*
%TD*%
%TO.P,TP11,1,1*%
%TO.N,/SW3_M_NC*%
X34000000Y36500000D03*
%TD*%
%TO.P,TP2,1,1*%
%TO.N,/SW1_L_NO*%
X4000000Y43500000D03*
%TD*%
%TO.P,TP12,1,1*%
%TO.N,+3V3*%
X38000000Y1750000D03*
%TD*%
%TO.P,TP18,1,1*%
%TO.N,/ISP*%
X37000000Y8000000D03*
%TD*%
%TO.P,TP17,1,1*%
%TO.N,+5V*%
X32750000Y49750000D03*
%TD*%
%TO.P,TP16,1,1*%
%TO.N,+1V9*%
X31750000Y1750000D03*
%TD*%
%TO.P,TP4,1,1*%
%TO.N,/SW1_L_NC*%
X4000000Y38500000D03*
%TD*%
%TO.P,TP14,1,1*%
%TO.N,GND*%
X34750000Y1750000D03*
%TD*%
%TO.P,TP1,1,1*%
%TO.N,/FC6_SCK*%
X12000000Y16500000D03*
%TD*%
%TO.P,TP15,1,1*%
%TO.N,/ENC_B*%
X7500000Y41000000D03*
%TD*%
D19*
%TO.N,GND*%
X30400000Y7100000D03*
X13000000Y28900000D03*
D20*
%TO.N,+5V*%
X31750000Y48500000D03*
D19*
X25700000Y53000000D03*
X31786965Y16986965D03*
%TO.N,+3V3*%
X23500000Y31000000D03*
X31250000Y24250000D03*
X15300000Y28500000D03*
X23500000Y20500000D03*
X13350000Y14400000D03*
X27250000Y26500000D03*
X8500000Y31750000D03*
X31400000Y51900000D03*
X19500000Y20500000D03*
X31250000Y23250000D03*
X28100000Y27824500D03*
X21500000Y20500000D03*
X24549011Y21549011D03*
X27250000Y25500000D03*
D21*
X38000000Y750000D03*
D19*
%TO.N,+1V9*%
X32250000Y9450000D03*
%TO.N,/USB_D+*%
X21250000Y54500000D03*
X23050000Y28000000D03*
%TO.N,/USB_D-*%
X23000000Y30000000D03*
X23750000Y54500000D03*
%TO.N,/VBUS_*%
X21000000Y58750000D03*
X44000000Y22750000D03*
X25718767Y56218767D03*
X24000000Y58750000D03*
X24759355Y56495456D03*
%TO.N,/USB1_LED*%
X20924500Y26586598D03*
X4750000Y31250000D03*
D20*
%TO.N,/FC6_CS1*%
X25250000Y20750000D03*
%TO.N,/RESET*%
X23800000Y27500000D03*
D19*
X35725500Y14500000D03*
%TO.N,/FC6_SCK*%
X13000000Y16500000D03*
X14475500Y16500000D03*
X20550000Y25350000D03*
%TO.N,/FC6_MOSI*%
X16024500Y19000000D03*
X13000000Y19000000D03*
%TO.N,/FC6_MISO*%
X22399500Y24490312D03*
X14975500Y12750000D03*
X13000000Y12750000D03*
D20*
%TO.N,/SW1_L_NC*%
X21050000Y27400000D03*
D19*
%TO.N,/SNSR_RST*%
X17300000Y21549011D03*
X14000000Y19524500D03*
X21850000Y21750000D03*
%TO.N,/SW1_L_NO*%
X21650000Y27924500D03*
%TO.N,GND*%
X21350000Y24500000D03*
X29270000Y26500000D03*
X27000000Y56250000D03*
X29250000Y28500000D03*
X31250000Y22250000D03*
X19000000Y53750000D03*
X24451727Y24042359D03*
X35750000Y5000000D03*
X24000000Y51750000D03*
X26600989Y31000000D03*
D21*
X34750000Y750000D03*
D19*
X30000000Y33250000D03*
X18475011Y27000000D03*
X22500000Y20500000D03*
X25750000Y31000000D03*
X38250000Y5000000D03*
X35500000Y50750000D03*
X20500000Y20500000D03*
X34500000Y5000000D03*
X34100000Y10250000D03*
X25000000Y55090500D03*
X30250000Y28500000D03*
X17000000Y53750000D03*
X33229122Y15229122D03*
X30580000Y13920000D03*
X29250000Y25500000D03*
X20800000Y28450000D03*
X18374500Y56250000D03*
D20*
X26250000Y26500000D03*
D19*
X18500000Y20500000D03*
X14250000Y22750000D03*
X39650000Y20300000D03*
%TO.N,/SW4_NC*%
X20544503Y24500000D03*
X14250000Y21750000D03*
D20*
%TO.N,/SW4_NO*%
X20050000Y22724011D03*
D19*
X14250000Y20750000D03*
D20*
%TO.N,/SW2_R_NO*%
X22494503Y26500000D03*
%TO.N,/SW2_R_NC*%
X22535842Y25670558D03*
%TO.N,/SW3_M_NO*%
X24000000Y28250000D03*
%TO.N,/SW3_M_NC*%
X24569819Y27449500D03*
%TO.N,/ENC_B*%
X18500000Y26000000D03*
D21*
X5750000Y41000000D03*
%TO.N,/ENC_A*%
X6334080Y39232867D03*
D20*
X18750000Y28000000D03*
D19*
%TO.N,/SWO*%
X35750000Y6125500D03*
D20*
X23991917Y26050500D03*
D19*
X40250000Y9725500D03*
D20*
%TO.N,/SWCLK*%
X26250000Y25500000D03*
D19*
X38750000Y10250000D03*
%TO.N,/SWDIO*%
X33650000Y18950000D03*
D20*
X24000000Y25200000D03*
D19*
X38750000Y11250000D03*
X29945943Y20495943D03*
%TO.N,/SNSR_MTN*%
X23150000Y24150000D03*
%TO.N,/ISP*%
X26250000Y20750000D03*
X35725500Y13500000D03*
X37000000Y8750000D03*
X22500000Y22250000D03*
%TO.N,/DBG_VIN*%
X44000000Y20000000D03*
X33250000Y5000000D03*
%TD*%
D22*
%TO.N,/USB_D-*%
X14200000Y51509314D02*
X14200000Y49900000D01*
D23*
X14215686Y51525000D02*
X14200000Y51509314D01*
D22*
%TO.N,/USB_D+*%
X9100000Y47540686D02*
X9100000Y49200000D01*
D23*
%TO.N,/USB_D-*%
X14215686Y51525000D02*
X9900000Y47209314D01*
X13065242Y30750444D02*
X21474556Y30750444D01*
X20775000Y51525000D02*
X14215686Y51525000D01*
X23750000Y54500000D02*
X20775000Y51525000D01*
X9900000Y47209314D02*
X9900000Y33915686D01*
X9900000Y33915686D02*
X13065242Y30750444D01*
X21474556Y30750444D02*
X22225000Y30000000D01*
X22225000Y30000000D02*
X23000000Y30000000D01*
%TO.N,/USB_D+*%
X12733870Y29950444D02*
X21099556Y29950444D01*
X9100000Y33584314D02*
X12733870Y29950444D01*
X21099556Y29950444D02*
X23050000Y28000000D01*
X13884314Y52325000D02*
X9100000Y47540686D01*
X9100000Y47540686D02*
X9100000Y33584314D01*
X20443629Y52325000D02*
X13884314Y52325000D01*
X21250000Y53131371D02*
X20443629Y52325000D01*
X21250000Y54500000D02*
X21250000Y53131371D01*
D24*
%TO.N,+5V*%
X32750000Y49500000D02*
X32750000Y49750000D01*
X31750000Y48500000D02*
X32750000Y49500000D01*
%TO.N,+1V9*%
X32250000Y2250000D02*
X31750000Y1750000D01*
X32250000Y9450000D02*
X32250000Y2250000D01*
%TO.N,/USB1_LED*%
X12039014Y24700962D02*
X19037389Y24700961D01*
X19037389Y24700961D02*
X20923026Y26586598D01*
X4750000Y31250000D02*
X5489976Y31250000D01*
X5489976Y31250000D02*
X12039014Y24700962D01*
%TO.N,/FC6_CS1*%
X15500000Y12895000D02*
X17150000Y11245000D01*
X15500000Y19241772D02*
X15500000Y12895000D01*
X24975489Y21024511D02*
X17282739Y21024511D01*
X17282739Y21024511D02*
X15500000Y19241772D01*
X25250000Y20750000D02*
X24975489Y21024511D01*
%TO.N,/RESET*%
X35015686Y14500000D02*
X24865686Y24650000D01*
X23800000Y27500000D02*
X23292463Y27500000D01*
X22241756Y27350000D02*
X21620878Y26729122D01*
X23292463Y27500000D02*
X23142463Y27350000D01*
X23700000Y24650000D02*
X23179442Y25170558D01*
X21620878Y25878415D02*
X21620878Y26729122D01*
X22328735Y25170558D02*
X21620878Y25878415D01*
X35725500Y14500000D02*
X35015686Y14500000D01*
X23179442Y25170558D02*
X22328735Y25170558D01*
X23142463Y27350000D02*
X22241756Y27350000D01*
X24865686Y24650000D02*
X23700000Y24650000D01*
%TO.N,/FC6_SCK*%
X21342761Y25350000D02*
X21875000Y24817761D01*
X13000000Y16500000D02*
X12000000Y16500000D01*
X21875000Y23090686D02*
X21008825Y22224511D01*
X16724011Y22474011D02*
X14524511Y20274511D01*
X14524511Y20274511D02*
X14524511Y16524511D01*
X21008825Y22224511D02*
X17932649Y22224511D01*
X21875000Y24817761D02*
X21875000Y23090686D01*
X14524511Y16524511D02*
X14500000Y16500000D01*
X20550000Y25350000D02*
X21342761Y25350000D01*
X17683148Y22474011D02*
X16724011Y22474011D01*
X17932649Y22224511D02*
X17683148Y22474011D01*
%TO.N,/FC6_MOSI*%
X16000000Y15955000D02*
X17150000Y14805000D01*
X13000000Y19000000D02*
X12000000Y19000000D01*
X16024500Y19000000D02*
X16000000Y18975500D01*
X16000000Y18975500D02*
X16000000Y15955000D01*
%TO.N,/FC6_MISO*%
X12750000Y13000000D02*
X12000000Y13000000D01*
X22399500Y24490312D02*
X22399500Y23049500D01*
X21174511Y21824511D02*
X17766963Y21824511D01*
X13000000Y12750000D02*
X12750000Y13000000D01*
X17766963Y21824511D02*
X17517463Y22074011D01*
X22399500Y23049500D02*
X21174511Y21824511D01*
X15000000Y20028389D02*
X15000000Y12774500D01*
X17045622Y22074011D02*
X15000000Y20028389D01*
X15000000Y12774500D02*
X14975500Y12750000D01*
X17517463Y22074011D02*
X17045622Y22074011D01*
%TO.N,/SW1_L_NC*%
X4850480Y35069520D02*
X4000000Y35920000D01*
X4000000Y35920000D02*
X4000000Y38500000D01*
X19399030Y25803591D02*
X19399030Y25627608D01*
X19399030Y25627608D02*
X18871903Y25100481D01*
X21050000Y27400000D02*
X20995439Y27400000D01*
X12204501Y25100481D02*
X4850480Y32454502D01*
X20995439Y27400000D02*
X19399030Y25803591D01*
X18871903Y25100481D02*
X12204501Y25100481D01*
X4850480Y32454502D02*
X4850480Y35069520D01*
%TO.N,/SNSR_RST*%
X14000000Y19524500D02*
X13950989Y19475489D01*
X14250000Y12365000D02*
X17150000Y9465000D01*
X13950989Y16049011D02*
X14250000Y15750000D01*
X13950989Y19475489D02*
X13950989Y16049011D01*
X14250000Y15750000D02*
X14250000Y12365000D01*
X21524511Y21424511D02*
X17424500Y21424511D01*
X21850000Y21750000D02*
X21524511Y21424511D01*
X17424500Y21424511D02*
X17300000Y21549011D01*
%TO.N,/SW1_L_NO*%
X5250000Y39750000D02*
X4000000Y41000000D01*
X4000000Y41000000D02*
X4000000Y43500000D01*
X18706417Y25500001D02*
X12369987Y25500001D01*
X18999511Y27249511D02*
X18999511Y25793095D01*
X21650000Y27924500D02*
X19674500Y27924500D01*
X12369987Y25500001D02*
X5250000Y32619988D01*
X19674500Y27924500D02*
X18999511Y27249511D01*
X5250000Y32619988D02*
X5250000Y39750000D01*
X18999511Y25793095D02*
X18706417Y25500001D01*
%TO.N,/SW4_NC*%
X20044503Y24000000D02*
X16500000Y24000000D01*
X20544503Y24500000D02*
X20044503Y24000000D01*
X16500000Y24000000D02*
X14250000Y21750000D01*
%TO.N,/SW4_NO*%
X16374011Y22874011D02*
X15550000Y22050000D01*
X15550000Y22050000D02*
X14250000Y20750000D01*
X19975989Y22650000D02*
X18250000Y22650000D01*
X18250000Y22650000D02*
X18025989Y22874011D01*
X20050000Y22724011D02*
X19975989Y22650000D01*
X18025989Y22874011D02*
X16374011Y22874011D01*
%TO.N,/SW2_R_NO*%
X39750000Y37750000D02*
X39750000Y39750000D01*
X25427207Y26950000D02*
X25877208Y27400000D01*
X22944503Y26950000D02*
X25427207Y26950000D01*
X38334514Y29649520D02*
X39750000Y31065006D01*
X26300000Y27400000D02*
X28549520Y29649520D01*
X25877208Y27400000D02*
X26300000Y27400000D01*
X39750000Y31065006D02*
X39750000Y37750000D01*
X39750000Y39750000D02*
X41000000Y41000000D01*
X40500000Y38500000D02*
X41500000Y38500000D01*
X39750000Y37750000D02*
X40500000Y38500000D01*
X22494503Y26500000D02*
X22944503Y26950000D01*
X28549520Y29649520D02*
X38334514Y29649520D01*
%TO.N,/SW2_R_NC*%
X25750000Y26550000D02*
X25750000Y26707107D01*
X28750000Y29250000D02*
X38500000Y29250000D01*
X40149520Y32850480D02*
X40149520Y35069520D01*
X23415284Y26550000D02*
X25750000Y26550000D01*
X38500000Y29250000D02*
X40149520Y30899520D01*
X26500000Y27000000D02*
X28750000Y29250000D01*
X40149520Y35069520D02*
X41000000Y35920000D01*
X26042893Y27000000D02*
X26500000Y27000000D01*
X25750000Y26707107D02*
X26042893Y27000000D01*
X40799040Y33500000D02*
X40149520Y32850480D01*
X40149520Y30899520D02*
X40149520Y32850480D01*
X41500000Y33500000D02*
X40799040Y33500000D01*
X22535842Y25670558D02*
X23415284Y26550000D01*
%TO.N,/SW3_M_NO*%
X32069028Y30449040D02*
X32750000Y31130012D01*
X24000000Y28250000D02*
X25984314Y28250000D01*
X34000000Y39000000D02*
X34000000Y41500000D01*
X25984314Y28250000D02*
X28183355Y30449040D01*
X28183355Y30449040D02*
X32069028Y30449040D01*
X32750000Y31130012D02*
X32750000Y37750000D01*
X32750000Y37750000D02*
X34000000Y39000000D01*
%TO.N,/SW3_M_NC*%
X33149520Y30964526D02*
X33149520Y33069520D01*
X25361022Y27449500D02*
X25711523Y27800000D01*
X25711523Y27800000D02*
X26100000Y27800000D01*
X34000000Y33920000D02*
X34000000Y36500000D01*
X28349040Y30049040D02*
X32234034Y30049040D01*
X33149520Y33069520D02*
X34000000Y33920000D01*
X24569819Y27449500D02*
X25361022Y27449500D01*
X32234034Y30049040D02*
X33149520Y30964526D01*
X26100000Y27800000D02*
X28349040Y30049040D01*
%TO.N,/ENC_B*%
X12535473Y25899521D02*
X18399521Y25899521D01*
X5649520Y40899520D02*
X5649520Y32785474D01*
X5750000Y41000000D02*
X7500000Y41000000D01*
X5649520Y32785474D02*
X12535473Y25899521D01*
X5750000Y41000000D02*
X5649520Y40899520D01*
X18399521Y25899521D02*
X18500000Y26000000D01*
%TO.N,/ENC_A*%
X6049040Y32950960D02*
X6049040Y38947827D01*
X17950500Y27217261D02*
X17950500Y26700500D01*
X6334080Y39232867D02*
X7500000Y38066947D01*
X12700960Y26299040D02*
X6049040Y32950960D01*
X17950500Y26700500D02*
X17549040Y26299040D01*
X17549040Y26299040D02*
X12700960Y26299040D01*
X18750000Y28000000D02*
X18733239Y28000000D01*
X18733239Y28000000D02*
X17950500Y27217261D01*
X6049040Y38947827D02*
X6334080Y39232867D01*
X7500000Y38066947D02*
X7500000Y38000000D01*
%TO.N,/SWO*%
X36250000Y14933642D02*
X36250000Y12000000D01*
X26500000Y24450000D02*
X26733642Y24450000D01*
X38625500Y6125500D02*
X39250000Y6750000D01*
X38524500Y9725500D02*
X40250000Y9725500D01*
X35750000Y6125500D02*
X38625500Y6125500D01*
X26733642Y24450000D02*
X36250000Y14933642D01*
X39250000Y6750000D02*
X39250000Y8725500D01*
X23991917Y26050500D02*
X24899500Y26050500D01*
X36250000Y12000000D02*
X38524500Y9725500D01*
X39250000Y8725500D02*
X40250000Y9725500D01*
X24899500Y26050500D02*
X26500000Y24450000D01*
%TO.N,/SWCLK*%
X26250000Y25500000D02*
X26775000Y24975000D01*
X36649519Y12165487D02*
X38565006Y10250000D01*
X26775000Y24974328D02*
X36649519Y15099809D01*
X26775000Y24975000D02*
X26775000Y24974328D01*
X36649519Y15099809D02*
X36649519Y12165487D01*
X41000000Y10250000D02*
X42750000Y8500000D01*
X38565006Y10250000D02*
X41000000Y10250000D01*
%TO.N,/SWDIO*%
X29804057Y20495943D02*
X29945943Y20495943D01*
X38130012Y11250000D02*
X41500000Y11250000D01*
X24000000Y25200000D02*
X24950000Y25200000D01*
X33650000Y18950000D02*
X33650000Y18665014D01*
X25832152Y24317848D02*
X25982152Y24317848D01*
X37049039Y12330973D02*
X38130012Y11250000D01*
X25982152Y24317848D02*
X29804057Y20495943D01*
X37049039Y15265975D02*
X37049039Y12330973D01*
X24950000Y25200000D02*
X25832152Y24317848D01*
X41500000Y11250000D02*
X42750000Y12500000D01*
X33650000Y18665014D02*
X37049039Y15265975D01*
%TO.N,/SNSR_MTN*%
X17475489Y19975489D02*
X17150000Y19650000D01*
X28250000Y20500000D02*
X27725489Y19975489D01*
X28250000Y20700000D02*
X28250000Y20500000D01*
X23150000Y24150000D02*
X23782152Y23517848D01*
X23782152Y23517848D02*
X25432152Y23517848D01*
X27725489Y19975489D02*
X17475489Y19975489D01*
X17150000Y19650000D02*
X17150000Y18365000D01*
X25432152Y23517848D02*
X28250000Y20700000D01*
%TO.N,/ISP*%
X24725489Y22274511D02*
X22524511Y22274511D01*
X35725500Y11774500D02*
X37000000Y10500000D01*
X22524511Y22274511D02*
X22500000Y22250000D01*
X37000000Y10500000D02*
X37000000Y8750000D01*
X35725500Y13500000D02*
X35725500Y11774500D01*
X26250000Y20750000D02*
X24725489Y22274511D01*
%TD*%
M02*
