%TF.GenerationSoftware,KiCad,Pcbnew,(6.0.7)*%
%TF.CreationDate,2022-11-13T10:53:49-05:00*%
%TF.ProjectId,redshift,72656473-6869-4667-942e-6b696361645f,0.2*%
%TF.SameCoordinates,Original*%
%TF.FileFunction,Paste,Top*%
%TF.FilePolarity,Positive*%
%FSLAX46Y46*%
G04 Gerber Fmt 4.6, Leading zero omitted, Abs format (unit mm)*
G04 Created by KiCad (PCBNEW (6.0.7)) date 2022-11-13 10:53:49*
%MOMM*%
%LPD*%
G01*
G04 APERTURE LIST*
G04 Aperture macros list*
%AMRoundRect*
0 Rectangle with rounded corners*
0 $1 Rounding radius*
0 $2 $3 $4 $5 $6 $7 $8 $9 X,Y pos of 4 corners*
0 Add a 4 corners polygon primitive as box body*
4,1,4,$2,$3,$4,$5,$6,$7,$8,$9,$2,$3,0*
0 Add four circle primitives for the rounded corners*
1,1,$1+$1,$2,$3*
1,1,$1+$1,$4,$5*
1,1,$1+$1,$6,$7*
1,1,$1+$1,$8,$9*
0 Add four rect primitives between the rounded corners*
20,1,$1+$1,$2,$3,$4,$5,0*
20,1,$1+$1,$4,$5,$6,$7,0*
20,1,$1+$1,$6,$7,$8,$9,0*
20,1,$1+$1,$8,$9,$2,$3,0*%
G04 Aperture macros list end*
%ADD10RoundRect,0.150000X-0.150000X0.512500X-0.150000X-0.512500X0.150000X-0.512500X0.150000X0.512500X0*%
%ADD11RoundRect,0.127500X-0.297500X0.347500X-0.297500X-0.347500X0.297500X-0.347500X0.297500X0.347500X0*%
%ADD12RoundRect,0.127500X0.297500X-0.347500X0.297500X0.347500X-0.297500X0.347500X-0.297500X-0.347500X0*%
%ADD13RoundRect,0.150000X-0.512500X-0.150000X0.512500X-0.150000X0.512500X0.150000X-0.512500X0.150000X0*%
%ADD14R,0.900000X1.700000*%
%ADD15RoundRect,0.225000X-0.225000X-0.250000X0.225000X-0.250000X0.225000X0.250000X-0.225000X0.250000X0*%
%ADD16RoundRect,0.225000X-0.250000X0.225000X-0.250000X-0.225000X0.250000X-0.225000X0.250000X0.225000X0*%
%ADD17RoundRect,0.225000X0.225000X0.250000X-0.225000X0.250000X-0.225000X-0.250000X0.225000X-0.250000X0*%
%ADD18RoundRect,0.135000X0.135000X0.185000X-0.135000X0.185000X-0.135000X-0.185000X0.135000X-0.185000X0*%
%ADD19RoundRect,0.147500X0.147500X0.172500X-0.147500X0.172500X-0.147500X-0.172500X0.147500X-0.172500X0*%
%ADD20RoundRect,0.140000X-0.140000X-0.170000X0.140000X-0.170000X0.140000X0.170000X-0.140000X0.170000X0*%
%ADD21RoundRect,0.140000X0.140000X0.170000X-0.140000X0.170000X-0.140000X-0.170000X0.140000X-0.170000X0*%
%ADD22RoundRect,0.140000X-0.170000X0.140000X-0.170000X-0.140000X0.170000X-0.140000X0.170000X0.140000X0*%
%ADD23RoundRect,0.147500X-0.147500X-0.172500X0.147500X-0.172500X0.147500X0.172500X-0.147500X0.172500X0*%
%ADD24R,0.600000X1.150000*%
%ADD25R,0.300000X1.150000*%
%ADD26RoundRect,0.200000X0.275000X-0.200000X0.275000X0.200000X-0.275000X0.200000X-0.275000X-0.200000X0*%
%ADD27RoundRect,0.140000X0.170000X-0.140000X0.170000X0.140000X-0.170000X0.140000X-0.170000X-0.140000X0*%
%ADD28RoundRect,0.135000X-0.135000X-0.185000X0.135000X-0.185000X0.135000X0.185000X-0.135000X0.185000X0*%
%ADD29RoundRect,0.147500X-0.172500X0.147500X-0.172500X-0.147500X0.172500X-0.147500X0.172500X0.147500X0*%
%ADD30RoundRect,0.135000X-0.185000X0.135000X-0.185000X-0.135000X0.185000X-0.135000X0.185000X0.135000X0*%
%ADD31RoundRect,0.135000X0.185000X-0.135000X0.185000X0.135000X-0.185000X0.135000X-0.185000X-0.135000X0*%
%ADD32RoundRect,0.250000X0.650000X-0.350000X0.650000X0.350000X-0.650000X0.350000X-0.650000X-0.350000X0*%
%ADD33RoundRect,0.150000X0.625000X-0.150000X0.625000X0.150000X-0.625000X0.150000X-0.625000X-0.150000X0*%
%ADD34R,0.740000X2.400000*%
%ADD35R,1.168400X0.482600*%
%ADD36R,1.168400X0.889000*%
%ADD37C,0.240000*%
%ADD38RoundRect,0.147500X0.172500X-0.147500X0.172500X0.147500X-0.172500X0.147500X-0.172500X-0.147500X0*%
G04 APERTURE END LIST*
D10*
%TO.C,U3*%
X33850000Y14037500D03*
X32900000Y14037500D03*
X31950000Y14037500D03*
X31950000Y11762500D03*
X33850000Y11762500D03*
%TD*%
D11*
%TO.C,Y1*%
X28975000Y30875000D03*
D12*
X28975000Y32325000D03*
X27825000Y32325000D03*
X27825000Y30875000D03*
%TD*%
D13*
%TO.C,U2*%
X27662500Y53050000D03*
X27662500Y52100000D03*
X27662500Y51150000D03*
X29937500Y51150000D03*
X29937500Y53050000D03*
%TD*%
D14*
%TO.C,SW4*%
X38500000Y18650000D03*
X35100000Y18650000D03*
%TD*%
D15*
%TO.C,C20*%
X31175000Y9600000D03*
X29625000Y9600000D03*
%TD*%
%TO.C,C25*%
X31175000Y8000000D03*
X29625000Y8000000D03*
%TD*%
D16*
%TO.C,C14*%
X14200000Y31225000D03*
X14200000Y32775000D03*
%TD*%
D17*
%TO.C,C11*%
X15525000Y27200000D03*
X17075000Y27200000D03*
%TD*%
D18*
%TO.C,R6*%
X29490000Y23250000D03*
X30510000Y23250000D03*
%TD*%
D19*
%TO.C,FB1*%
X25015000Y53750000D03*
X25985000Y53750000D03*
%TD*%
D20*
%TO.C,C24*%
X28750000Y25500000D03*
X27790000Y25500000D03*
%TD*%
D21*
%TO.C,C13*%
X16520000Y29500000D03*
X17480000Y29500000D03*
%TD*%
D20*
%TO.C,C10*%
X34480000Y51900000D03*
X33520000Y51900000D03*
%TD*%
D22*
%TO.C,C8*%
X25000000Y51790000D03*
X25000000Y52750000D03*
%TD*%
D23*
%TO.C,D3*%
X28490000Y24250000D03*
X27520000Y24250000D03*
%TD*%
D24*
%TO.C,J1*%
X25700000Y57245000D03*
X24900000Y57245000D03*
D25*
X24250000Y57245000D03*
X23250000Y57245000D03*
X21750000Y57245000D03*
X20750000Y57245000D03*
D24*
X20100000Y57245000D03*
X19300000Y57245000D03*
X19300000Y57245000D03*
X20100000Y57245000D03*
D25*
X21250000Y57245000D03*
X22250000Y57245000D03*
X22750000Y57245000D03*
X23750000Y57245000D03*
D24*
X24900000Y57245000D03*
X25700000Y57245000D03*
%TD*%
D26*
%TO.C,L1*%
X15900000Y32825000D03*
X15900000Y31175000D03*
%TD*%
D23*
%TO.C,D4*%
X28485000Y23250000D03*
X27515000Y23250000D03*
%TD*%
D20*
%TO.C,C2*%
X32580000Y16200000D03*
X31620000Y16200000D03*
%TD*%
D21*
%TO.C,C4*%
X20500000Y21000000D03*
X21460000Y21000000D03*
%TD*%
D27*
%TO.C,C15*%
X30250000Y31480000D03*
X30250000Y30520000D03*
%TD*%
D18*
%TO.C,R4*%
X6740000Y31750000D03*
X7760000Y31750000D03*
%TD*%
D22*
%TO.C,C1*%
X18500000Y53770000D03*
X18500000Y54730000D03*
%TD*%
D20*
%TO.C,C23*%
X28500000Y33500000D03*
X27540000Y33500000D03*
%TD*%
%TO.C,C6*%
X28460000Y28500000D03*
X27500000Y28500000D03*
%TD*%
D21*
%TO.C,C12*%
X16520000Y28500000D03*
X17480000Y28500000D03*
%TD*%
D28*
%TO.C,R7*%
X15260000Y7700000D03*
X14240000Y7700000D03*
%TD*%
D20*
%TO.C,C22*%
X30580000Y12750000D03*
X29620000Y12750000D03*
%TD*%
D23*
%TO.C,D2*%
X5735000Y31750000D03*
X4765000Y31750000D03*
%TD*%
D29*
%TO.C,D7*%
X44000000Y20515000D03*
X44000000Y21485000D03*
%TD*%
D20*
%TO.C,C9*%
X24980000Y31000000D03*
X24020000Y31000000D03*
%TD*%
D30*
%TO.C,R1*%
X17500000Y53740000D03*
X17500000Y54760000D03*
%TD*%
D21*
%TO.C,C3*%
X18520000Y21000000D03*
X19480000Y21000000D03*
%TD*%
D31*
%TO.C,R2*%
X25000000Y55760000D03*
X25000000Y54740000D03*
%TD*%
D19*
%TO.C,D6*%
X33515000Y50800000D03*
X34485000Y50800000D03*
%TD*%
D21*
%TO.C,C17*%
X29620000Y16050000D03*
X30580000Y16050000D03*
%TD*%
D20*
%TO.C,C7*%
X33380000Y10300000D03*
X32420000Y10300000D03*
%TD*%
D21*
%TO.C,C5*%
X22500000Y21000000D03*
X23460000Y21000000D03*
%TD*%
D20*
%TO.C,C16*%
X28730000Y26500000D03*
X27770000Y26500000D03*
%TD*%
D28*
%TO.C,R8*%
X15260000Y13500000D03*
X14240000Y13500000D03*
%TD*%
D32*
%TO.C,J2*%
X10550000Y26050000D03*
X10550000Y19450000D03*
D33*
X13075000Y24750000D03*
X13075000Y23750000D03*
X13075000Y22750000D03*
X13075000Y21750000D03*
X13075000Y20750000D03*
%TD*%
D34*
%TO.C,J4*%
X38290000Y7450000D03*
X38290000Y3550000D03*
X37020000Y7450000D03*
X37020000Y3550000D03*
X35750000Y7450000D03*
X35750000Y3550000D03*
X34480000Y7450000D03*
X34480000Y3550000D03*
X33210000Y7450000D03*
X33210000Y3550000D03*
%TD*%
D21*
%TO.C,C18*%
X29620000Y15000000D03*
X30580000Y15000000D03*
%TD*%
D18*
%TO.C,R5*%
X29500000Y24250000D03*
X30520000Y24250000D03*
%TD*%
D35*
%TO.C,D1*%
X21484343Y53049999D03*
X21484343Y54950001D03*
X23516343Y54950000D03*
D36*
X23516343Y53253200D03*
%TD*%
D37*
%TO.C,IC1*%
X19500000Y29000000D03*
X20000000Y29000000D03*
X20500000Y29000000D03*
X21500000Y29000000D03*
X22000000Y29000000D03*
X22500000Y29000000D03*
X23000000Y29000000D03*
X23500000Y29000000D03*
X24500000Y29000000D03*
X25000000Y29000000D03*
X25500000Y29000000D03*
X19500000Y28500000D03*
X20000000Y28500000D03*
X20500000Y28500000D03*
X21500000Y28500000D03*
X22000000Y28500000D03*
X22500000Y28500000D03*
X23000000Y28500000D03*
X23500000Y28500000D03*
X24500000Y28500000D03*
X25000000Y28500000D03*
X25500000Y28500000D03*
X19500000Y28000000D03*
X20000000Y28000000D03*
X22500000Y28000000D03*
X25000000Y28000000D03*
X25500000Y28000000D03*
X19500000Y27000000D03*
X20000000Y27000000D03*
X21500000Y27000000D03*
X22000000Y27000000D03*
X22500000Y27000000D03*
X23000000Y27000000D03*
X23500000Y27000000D03*
X25000000Y27000000D03*
X25500000Y27000000D03*
X19500000Y26500000D03*
X20000000Y26500000D03*
X21500000Y26500000D03*
X22000000Y26500000D03*
X23000000Y26500000D03*
X23500000Y26500000D03*
X25000000Y26500000D03*
X25500000Y26500000D03*
X19500000Y26000000D03*
X20000000Y26000000D03*
X20500000Y26000000D03*
X21500000Y26000000D03*
X22000000Y26000000D03*
X23000000Y26000000D03*
X23500000Y26000000D03*
X24500000Y26000000D03*
X25000000Y26000000D03*
X25500000Y26000000D03*
X19500000Y25500000D03*
X20000000Y25500000D03*
X21500000Y25500000D03*
X22000000Y25500000D03*
X23000000Y25500000D03*
X23500000Y25500000D03*
X25000000Y25500000D03*
X25500000Y25500000D03*
X19500000Y25000000D03*
X20000000Y25000000D03*
X21500000Y25000000D03*
X22000000Y25000000D03*
X22500000Y25000000D03*
X23000000Y25000000D03*
X23500000Y25000000D03*
X25000000Y25000000D03*
X25500000Y25000000D03*
X19500000Y24000000D03*
X20000000Y24000000D03*
X22500000Y24000000D03*
X25000000Y24000000D03*
X25500000Y24000000D03*
X19500000Y23500000D03*
X20000000Y23500000D03*
X20500000Y23500000D03*
X21500000Y23500000D03*
X22000000Y23500000D03*
X22500000Y23500000D03*
X23000000Y23500000D03*
X23500000Y23500000D03*
X24500000Y23500000D03*
X25000000Y23500000D03*
X25500000Y23500000D03*
X19500000Y23000000D03*
X20000000Y23000000D03*
X20500000Y23000000D03*
X21500000Y23000000D03*
X22000000Y23000000D03*
X22500000Y23000000D03*
X23000000Y23000000D03*
X23500000Y23000000D03*
X24500000Y23000000D03*
X25000000Y23000000D03*
X25500000Y23000000D03*
%TD*%
D20*
%TO.C,C19*%
X30580000Y10850000D03*
X29620000Y10850000D03*
%TD*%
D38*
%TO.C,F1*%
X26000000Y55735000D03*
X26000000Y54765000D03*
%TD*%
D28*
%TO.C,R13*%
X32410000Y50800000D03*
X31390000Y50800000D03*
%TD*%
D20*
%TO.C,C21*%
X30580000Y11800000D03*
X29620000Y11800000D03*
%TD*%
D31*
%TO.C,R3*%
X19500000Y54760000D03*
X19500000Y53740000D03*
%TD*%
M02*
