%TF.GenerationSoftware,KiCad,Pcbnew,(6.0.7)*%
%TF.CreationDate,2022-11-12T21:38:40-05:00*%
%TF.ProjectId,redshift,72656473-6869-4667-942e-6b696361645f,0.2*%
%TF.SameCoordinates,Original*%
%TF.FileFunction,Soldermask,Bot*%
%TF.FilePolarity,Negative*%
%FSLAX46Y46*%
G04 Gerber Fmt 4.6, Leading zero omitted, Abs format (unit mm)*
G04 Created by KiCad (PCBNEW (6.0.7)) date 2022-11-12 21:38:40*
%MOMM*%
%LPD*%
G01*
G04 APERTURE LIST*
%ADD10C,1.500000*%
%ADD11O,2.700000X1.700000*%
%ADD12C,1.700000*%
%ADD13O,1.050000X2.100000*%
%ADD14O,1.000000X2.000000*%
%ADD15C,0.650000*%
%ADD16O,1.350000X1.350000*%
%ADD17R,1.350000X1.350000*%
%ADD18C,1.400000*%
%ADD19R,1.400000X1.400000*%
G04 APERTURE END LIST*
D10*
%TO.C,TP9*%
X14200000Y49900000D03*
%TD*%
%TO.C,TP8*%
X9100000Y49200000D03*
%TD*%
D11*
%TO.C,ENC1*%
X12000000Y35800000D03*
X12000000Y46200000D03*
D12*
X14000000Y43500000D03*
X14000000Y41000000D03*
X14000000Y38500000D03*
%TD*%
D13*
%TO.C,J1*%
X18180000Y57820000D03*
D14*
X18180000Y62000000D03*
X26820000Y62000000D03*
D13*
X26820000Y57820000D03*
D15*
X25390000Y58320000D03*
X19610000Y58320000D03*
%TD*%
D12*
%TO.C,SW3*%
X34000000Y33920000D03*
X34000000Y39000000D03*
X34000000Y44080000D03*
%TD*%
D16*
%TO.C,J3*%
X42750000Y8500000D03*
X42750000Y10500000D03*
X42750000Y12500000D03*
X42750000Y14500000D03*
X42750000Y16500000D03*
D17*
X42750000Y18500000D03*
%TD*%
D18*
%TO.C,U1*%
X17150000Y5905000D03*
X17150000Y7685000D03*
X17150000Y9465000D03*
X17150000Y11245000D03*
X17150000Y13025000D03*
X17150000Y14805000D03*
X17150000Y16585000D03*
X17150000Y18365000D03*
X27850000Y17475000D03*
X27850000Y15695000D03*
X27850000Y13915000D03*
X27850000Y12135000D03*
X27850000Y10355000D03*
X27850000Y8575000D03*
X27850000Y6795000D03*
D19*
X27850000Y5015000D03*
%TD*%
D12*
%TO.C,SW2*%
X41000000Y35920000D03*
X41000000Y41000000D03*
X41000000Y46080000D03*
%TD*%
%TO.C,SW1*%
X4000000Y35920000D03*
X4000000Y41000000D03*
X4000000Y46080000D03*
%TD*%
D10*
%TO.C,TP5*%
X12000000Y13000000D03*
%TD*%
%TO.C,TP6*%
X41500000Y38500000D03*
%TD*%
%TO.C,TP7*%
X41500000Y33500000D03*
%TD*%
%TO.C,TP13*%
X7500000Y38000000D03*
%TD*%
%TO.C,TP3*%
X12000000Y19000000D03*
%TD*%
%TO.C,TP10*%
X34000000Y41500000D03*
%TD*%
%TO.C,TP11*%
X34000000Y36500000D03*
%TD*%
%TO.C,TP2*%
X4000000Y43500000D03*
%TD*%
%TO.C,TP12*%
X38000000Y1750000D03*
%TD*%
%TO.C,TP18*%
X37000000Y8000000D03*
%TD*%
%TO.C,TP17*%
X32750000Y49750000D03*
%TD*%
%TO.C,TP16*%
X31750000Y1750000D03*
%TD*%
%TO.C,TP4*%
X4000000Y38500000D03*
%TD*%
%TO.C,TP14*%
X34750000Y1750000D03*
%TD*%
%TO.C,TP1*%
X12000000Y16500000D03*
%TD*%
%TO.C,TP15*%
X7500000Y41000000D03*
%TD*%
M02*
