%TF.GenerationSoftware,KiCad,Pcbnew,(6.0.7)*%
%TF.CreationDate,2022-11-12T21:38:40-05:00*%
%TF.ProjectId,redshift,72656473-6869-4667-942e-6b696361645f,0.2*%
%TF.SameCoordinates,Original*%
%TF.FileFunction,Copper,L1,Top*%
%TF.FilePolarity,Positive*%
%FSLAX46Y46*%
G04 Gerber Fmt 4.6, Leading zero omitted, Abs format (unit mm)*
G04 Created by KiCad (PCBNEW (6.0.7)) date 2022-11-12 21:38:40*
%MOMM*%
%LPD*%
G01*
G04 APERTURE LIST*
G04 Aperture macros list*
%AMRoundRect*
0 Rectangle with rounded corners*
0 $1 Rounding radius*
0 $2 $3 $4 $5 $6 $7 $8 $9 X,Y pos of 4 corners*
0 Add a 4 corners polygon primitive as box body*
4,1,4,$2,$3,$4,$5,$6,$7,$8,$9,$2,$3,0*
0 Add four circle primitives for the rounded corners*
1,1,$1+$1,$2,$3*
1,1,$1+$1,$4,$5*
1,1,$1+$1,$6,$7*
1,1,$1+$1,$8,$9*
0 Add four rect primitives between the rounded corners*
20,1,$1+$1,$2,$3,$4,$5,0*
20,1,$1+$1,$4,$5,$6,$7,0*
20,1,$1+$1,$6,$7,$8,$9,0*
20,1,$1+$1,$8,$9,$2,$3,0*%
G04 Aperture macros list end*
%TA.AperFunction,SMDPad,CuDef*%
%ADD10RoundRect,0.150000X-0.150000X0.512500X-0.150000X-0.512500X0.150000X-0.512500X0.150000X0.512500X0*%
%TD*%
%TA.AperFunction,SMDPad,CuDef*%
%ADD11RoundRect,0.127500X-0.297500X0.347500X-0.297500X-0.347500X0.297500X-0.347500X0.297500X0.347500X0*%
%TD*%
%TA.AperFunction,SMDPad,CuDef*%
%ADD12RoundRect,0.127500X0.297500X-0.347500X0.297500X0.347500X-0.297500X0.347500X-0.297500X-0.347500X0*%
%TD*%
%TA.AperFunction,SMDPad,CuDef*%
%ADD13RoundRect,0.150000X-0.512500X-0.150000X0.512500X-0.150000X0.512500X0.150000X-0.512500X0.150000X0*%
%TD*%
%TA.AperFunction,SMDPad,CuDef*%
%ADD14R,0.900000X1.700000*%
%TD*%
%TA.AperFunction,SMDPad,CuDef*%
%ADD15RoundRect,0.225000X-0.225000X-0.250000X0.225000X-0.250000X0.225000X0.250000X-0.225000X0.250000X0*%
%TD*%
%TA.AperFunction,SMDPad,CuDef*%
%ADD16RoundRect,0.225000X-0.250000X0.225000X-0.250000X-0.225000X0.250000X-0.225000X0.250000X0.225000X0*%
%TD*%
%TA.AperFunction,SMDPad,CuDef*%
%ADD17RoundRect,0.225000X0.225000X0.250000X-0.225000X0.250000X-0.225000X-0.250000X0.225000X-0.250000X0*%
%TD*%
%TA.AperFunction,SMDPad,CuDef*%
%ADD18RoundRect,0.135000X0.135000X0.185000X-0.135000X0.185000X-0.135000X-0.185000X0.135000X-0.185000X0*%
%TD*%
%TA.AperFunction,SMDPad,CuDef*%
%ADD19RoundRect,0.147500X0.147500X0.172500X-0.147500X0.172500X-0.147500X-0.172500X0.147500X-0.172500X0*%
%TD*%
%TA.AperFunction,SMDPad,CuDef*%
%ADD20RoundRect,0.140000X-0.140000X-0.170000X0.140000X-0.170000X0.140000X0.170000X-0.140000X0.170000X0*%
%TD*%
%TA.AperFunction,SMDPad,CuDef*%
%ADD21RoundRect,0.140000X0.140000X0.170000X-0.140000X0.170000X-0.140000X-0.170000X0.140000X-0.170000X0*%
%TD*%
%TA.AperFunction,SMDPad,CuDef*%
%ADD22RoundRect,0.140000X-0.170000X0.140000X-0.170000X-0.140000X0.170000X-0.140000X0.170000X0.140000X0*%
%TD*%
%TA.AperFunction,ComponentPad*%
%ADD23O,2.700000X1.700000*%
%TD*%
%TA.AperFunction,ComponentPad*%
%ADD24C,1.700000*%
%TD*%
%TA.AperFunction,SMDPad,CuDef*%
%ADD25RoundRect,0.147500X-0.147500X-0.172500X0.147500X-0.172500X0.147500X0.172500X-0.147500X0.172500X0*%
%TD*%
%TA.AperFunction,ComponentPad*%
%ADD26O,1.050000X2.100000*%
%TD*%
%TA.AperFunction,ComponentPad*%
%ADD27O,1.000000X2.000000*%
%TD*%
%TA.AperFunction,SMDPad,CuDef*%
%ADD28R,0.600000X1.150000*%
%TD*%
%TA.AperFunction,SMDPad,CuDef*%
%ADD29R,0.300000X1.150000*%
%TD*%
%TA.AperFunction,SMDPad,CuDef*%
%ADD30RoundRect,0.200000X0.275000X-0.200000X0.275000X0.200000X-0.275000X0.200000X-0.275000X-0.200000X0*%
%TD*%
%TA.AperFunction,SMDPad,CuDef*%
%ADD31RoundRect,0.140000X0.170000X-0.140000X0.170000X0.140000X-0.170000X0.140000X-0.170000X-0.140000X0*%
%TD*%
%TA.AperFunction,SMDPad,CuDef*%
%ADD32RoundRect,0.135000X-0.135000X-0.185000X0.135000X-0.185000X0.135000X0.185000X-0.135000X0.185000X0*%
%TD*%
%TA.AperFunction,SMDPad,CuDef*%
%ADD33RoundRect,0.147500X-0.172500X0.147500X-0.172500X-0.147500X0.172500X-0.147500X0.172500X0.147500X0*%
%TD*%
%TA.AperFunction,SMDPad,CuDef*%
%ADD34RoundRect,0.135000X-0.185000X0.135000X-0.185000X-0.135000X0.185000X-0.135000X0.185000X0.135000X0*%
%TD*%
%TA.AperFunction,SMDPad,CuDef*%
%ADD35RoundRect,0.135000X0.185000X-0.135000X0.185000X0.135000X-0.185000X0.135000X-0.185000X-0.135000X0*%
%TD*%
%TA.AperFunction,SMDPad,CuDef*%
%ADD36RoundRect,0.250000X0.650000X-0.350000X0.650000X0.350000X-0.650000X0.350000X-0.650000X-0.350000X0*%
%TD*%
%TA.AperFunction,SMDPad,CuDef*%
%ADD37RoundRect,0.150000X0.625000X-0.150000X0.625000X0.150000X-0.625000X0.150000X-0.625000X-0.150000X0*%
%TD*%
%TA.AperFunction,SMDPad,CuDef*%
%ADD38R,0.740000X2.400000*%
%TD*%
%TA.AperFunction,ComponentPad*%
%ADD39O,1.350000X1.350000*%
%TD*%
%TA.AperFunction,ComponentPad*%
%ADD40R,1.350000X1.350000*%
%TD*%
%TA.AperFunction,SMDPad,CuDef*%
%ADD41R,1.168400X0.482600*%
%TD*%
%TA.AperFunction,SMDPad,CuDef*%
%ADD42R,1.168400X0.889000*%
%TD*%
%TA.AperFunction,ComponentPad*%
%ADD43C,1.400000*%
%TD*%
%TA.AperFunction,ComponentPad*%
%ADD44R,1.400000X1.400000*%
%TD*%
%TA.AperFunction,SMDPad,CuDef*%
%ADD45C,0.240000*%
%TD*%
%TA.AperFunction,SMDPad,CuDef*%
%ADD46RoundRect,0.147500X0.172500X-0.147500X0.172500X0.147500X-0.172500X0.147500X-0.172500X-0.147500X0*%
%TD*%
%TA.AperFunction,ViaPad*%
%ADD47C,0.500000*%
%TD*%
%TA.AperFunction,ViaPad*%
%ADD48C,0.450000*%
%TD*%
%TA.AperFunction,ViaPad*%
%ADD49C,0.800000*%
%TD*%
%TA.AperFunction,Conductor*%
%ADD50C,0.250000*%
%TD*%
%TA.AperFunction,Conductor*%
%ADD51C,0.200000*%
%TD*%
%TA.AperFunction,Conductor*%
%ADD52C,0.450000*%
%TD*%
%TA.AperFunction,Conductor*%
%ADD53C,0.350000*%
%TD*%
G04 APERTURE END LIST*
D10*
%TO.P,U3,1,EN*%
%TO.N,+5V*%
X33850000Y14037500D03*
%TO.P,U3,2,GND*%
%TO.N,GND*%
X32900000Y14037500D03*
%TO.P,U3,3,IN*%
%TO.N,+5V*%
X31950000Y14037500D03*
%TO.P,U3,4,OUT*%
%TO.N,+1V9*%
X31950000Y11762500D03*
%TO.P,U3,5,NC*%
%TO.N,unconnected-(U3-Pad5)*%
X33850000Y11762500D03*
%TD*%
D11*
%TO.P,Y1,1,1*%
%TO.N,/XTAL+*%
X28975000Y30875000D03*
D12*
%TO.P,Y1,2,2*%
%TO.N,unconnected-(Y1-Pad2)*%
X28975000Y32325000D03*
%TO.P,Y1,3,3*%
%TO.N,/XTAL-*%
X27825000Y32325000D03*
%TO.P,Y1,4*%
%TO.N,N/C*%
X27825000Y30875000D03*
%TD*%
D13*
%TO.P,U2,1,VIN*%
%TO.N,+5V*%
X27662500Y53050000D03*
%TO.P,U2,2,GND*%
%TO.N,GND*%
X27662500Y52100000D03*
%TO.P,U2,3,EN*%
%TO.N,+5V*%
X27662500Y51150000D03*
%TO.P,U2,4*%
%TO.N,N/C*%
X29937500Y51150000D03*
%TO.P,U2,5,VOUT*%
%TO.N,+3V3*%
X29937500Y53050000D03*
%TD*%
D14*
%TO.P,SW4,2,2*%
%TO.N,GND*%
X38500000Y18650000D03*
%TO.P,SW4,1,1*%
%TO.N,/ISP*%
X35100000Y18650000D03*
%TD*%
D15*
%TO.P,C20,2*%
%TO.N,GND*%
X31175000Y9600000D03*
%TO.P,C20,1*%
%TO.N,+1V9*%
X29625000Y9600000D03*
%TD*%
%TO.P,C25,2*%
%TO.N,GND*%
X31175000Y8000000D03*
%TO.P,C25,1*%
%TO.N,+1V9*%
X29625000Y8000000D03*
%TD*%
D16*
%TO.P,C14,2*%
%TO.N,GND*%
X14200000Y31225000D03*
%TO.P,C14,1*%
%TO.N,/1v2*%
X14200000Y32775000D03*
%TD*%
D17*
%TO.P,C11,2*%
%TO.N,+3V3*%
X15525000Y27200000D03*
%TO.P,C11,1*%
%TO.N,/PMU*%
X17075000Y27200000D03*
%TD*%
D18*
%TO.P,R6,2*%
%TO.N,Net-(D4-Pad2)*%
X29490000Y23250000D03*
%TO.P,R6,1*%
%TO.N,+3V3*%
X30510000Y23250000D03*
%TD*%
D19*
%TO.P,FB1,2*%
%TO.N,+5V*%
X25015000Y53750000D03*
%TO.P,FB1,1*%
%TO.N,/VBUS_F_*%
X25985000Y53750000D03*
%TD*%
D20*
%TO.P,C24,2*%
%TO.N,GND*%
X28750000Y25500000D03*
%TO.P,C24,1*%
%TO.N,+3V3*%
X27790000Y25500000D03*
%TD*%
D21*
%TO.P,C13,2*%
%TO.N,+3V3*%
X16520000Y29500000D03*
%TO.P,C13,1*%
%TO.N,/PMU*%
X17480000Y29500000D03*
%TD*%
D20*
%TO.P,C10,2*%
%TO.N,GND*%
X34480000Y51900000D03*
%TO.P,C10,1*%
%TO.N,+3V3*%
X33520000Y51900000D03*
%TD*%
D22*
%TO.P,C8,2*%
%TO.N,GND*%
X25000000Y51790000D03*
%TO.P,C8,1*%
%TO.N,+5V*%
X25000000Y52750000D03*
%TD*%
D23*
%TO.P,ENC1,MP*%
%TO.N,N/C*%
X12000000Y35800000D03*
X12000000Y46200000D03*
D24*
%TO.P,ENC1,C,C*%
%TO.N,GND*%
X14000000Y43500000D03*
%TO.P,ENC1,B,B*%
%TO.N,/ENC_B*%
X14000000Y41000000D03*
%TO.P,ENC1,A,A*%
%TO.N,/ENC_A*%
X14000000Y38500000D03*
%TD*%
D25*
%TO.P,D3,2,A*%
%TO.N,Net-(D3-Pad2)*%
X28490000Y24250000D03*
%TO.P,D3,1,K*%
%TO.N,/FAULT_LED*%
X27520000Y24250000D03*
%TD*%
D26*
%TO.P,J1,S4,SHIELD*%
%TO.N,/SH*%
X18180000Y57820000D03*
D27*
%TO.P,J1,S3,SHIELD*%
X18180000Y62000000D03*
%TO.P,J1,S2,SHIELD*%
X26820000Y62000000D03*
D26*
%TO.P,J1,S1,SHIELD*%
X26820000Y57820000D03*
D28*
%TO.P,J1,B12,GND*%
%TO.N,GND*%
X25700000Y57245000D03*
%TO.P,J1,B9,VBUS*%
%TO.N,/VBUS_*%
X24900000Y57245000D03*
D29*
%TO.P,J1,B8,SBU2*%
%TO.N,unconnected-(J1-PadB8)*%
X24250000Y57245000D03*
%TO.P,J1,B7,D-*%
%TO.N,/USB_D-*%
X23250000Y57245000D03*
%TO.P,J1,B6,D+*%
%TO.N,/USB_D+*%
X21750000Y57245000D03*
%TO.P,J1,B5,CC2*%
%TO.N,Net-(J1-PadB5)*%
X20750000Y57245000D03*
D28*
%TO.P,J1,B4,VBUS*%
%TO.N,/VBUS_*%
X20100000Y57245000D03*
%TO.P,J1,B1,GND*%
%TO.N,GND*%
X19300000Y57245000D03*
%TO.P,J1,A12,GND*%
X19300000Y57245000D03*
%TO.P,J1,A9,VBUS*%
%TO.N,/VBUS_*%
X20100000Y57245000D03*
D29*
%TO.P,J1,A8,SBU1*%
%TO.N,unconnected-(J1-PadA8)*%
X21250000Y57245000D03*
%TO.P,J1,A7,D-*%
%TO.N,/USB_D-*%
X22250000Y57245000D03*
%TO.P,J1,A6,D+*%
%TO.N,/USB_D+*%
X22750000Y57245000D03*
%TO.P,J1,A5,CC1*%
%TO.N,Net-(J1-PadA5)*%
X23750000Y57245000D03*
D28*
%TO.P,J1,A4,VBUS*%
%TO.N,/VBUS_*%
X24900000Y57245000D03*
%TO.P,J1,A1,GND*%
%TO.N,GND*%
X25700000Y57245000D03*
%TD*%
D30*
%TO.P,L1,2,2*%
%TO.N,/1v2*%
X15900000Y32825000D03*
%TO.P,L1,1,1*%
%TO.N,/_1v2*%
X15900000Y31175000D03*
%TD*%
D25*
%TO.P,D4,2,A*%
%TO.N,Net-(D4-Pad2)*%
X28485000Y23250000D03*
%TO.P,D4,1,K*%
%TO.N,/USER_LED*%
X27515000Y23250000D03*
%TD*%
D20*
%TO.P,C2,2*%
%TO.N,GND*%
X32580000Y16200000D03*
%TO.P,C2,1*%
%TO.N,+5V*%
X31620000Y16200000D03*
%TD*%
D21*
%TO.P,C4,2*%
%TO.N,GND*%
X20500000Y21000000D03*
%TO.P,C4,1*%
%TO.N,+3V3*%
X21460000Y21000000D03*
%TD*%
D31*
%TO.P,C15,2*%
%TO.N,GND*%
X30250000Y31480000D03*
%TO.P,C15,1*%
%TO.N,/XTAL+*%
X30250000Y30520000D03*
%TD*%
D18*
%TO.P,R4,2*%
%TO.N,Net-(D2-Pad2)*%
X6740000Y31750000D03*
%TO.P,R4,1*%
%TO.N,+3V3*%
X7760000Y31750000D03*
%TD*%
D22*
%TO.P,C1,2*%
%TO.N,GND*%
X18500000Y53770000D03*
%TO.P,C1,1*%
%TO.N,/SH*%
X18500000Y54730000D03*
%TD*%
D20*
%TO.P,C23,2*%
%TO.N,GND*%
X28500000Y33500000D03*
%TO.P,C23,1*%
%TO.N,/XTAL-*%
X27540000Y33500000D03*
%TD*%
%TO.P,C6,2*%
%TO.N,GND*%
X28460000Y28500000D03*
%TO.P,C6,1*%
%TO.N,+3V3*%
X27500000Y28500000D03*
%TD*%
D21*
%TO.P,C12,2*%
%TO.N,+3V3*%
X16520000Y28500000D03*
%TO.P,C12,1*%
%TO.N,/PMU*%
X17480000Y28500000D03*
%TD*%
D32*
%TO.P,R7,2*%
%TO.N,Net-(R7-Pad2)*%
X15260000Y7700000D03*
%TO.P,R7,1*%
%TO.N,+1V9*%
X14240000Y7700000D03*
%TD*%
D20*
%TO.P,C22,2*%
%TO.N,GND*%
X30580000Y12750000D03*
%TO.P,C22,1*%
%TO.N,Net-(C21-Pad1)*%
X29620000Y12750000D03*
%TD*%
D25*
%TO.P,D2,2,A*%
%TO.N,Net-(D2-Pad2)*%
X5735000Y31750000D03*
%TO.P,D2,1,K*%
%TO.N,/USB1_LED*%
X4765000Y31750000D03*
%TD*%
D33*
%TO.P,D7,2,A*%
%TO.N,/DBG_VIN*%
X44000000Y20515000D03*
%TO.P,D7,1,K*%
%TO.N,/VBUS_*%
X44000000Y21485000D03*
%TD*%
D24*
%TO.P,SW3,3,NC*%
%TO.N,/SW3_M_NC*%
X34000000Y33920000D03*
%TO.P,SW3,2,NO*%
%TO.N,/SW3_M_NO*%
X34000000Y39000000D03*
%TO.P,SW3,1,C*%
%TO.N,GND*%
X34000000Y44080000D03*
%TD*%
D20*
%TO.P,C9,2*%
%TO.N,GND*%
X24980000Y31000000D03*
%TO.P,C9,1*%
%TO.N,+3V3*%
X24020000Y31000000D03*
%TD*%
D34*
%TO.P,R1,2*%
%TO.N,GND*%
X17500000Y53740000D03*
%TO.P,R1,1*%
%TO.N,/SH*%
X17500000Y54760000D03*
%TD*%
D21*
%TO.P,C3,2*%
%TO.N,GND*%
X18520000Y21000000D03*
%TO.P,C3,1*%
%TO.N,+3V3*%
X19480000Y21000000D03*
%TD*%
D35*
%TO.P,R2,2*%
%TO.N,Net-(J1-PadA5)*%
X25000000Y55760000D03*
%TO.P,R2,1*%
%TO.N,GND*%
X25000000Y54740000D03*
%TD*%
D19*
%TO.P,D6,2,A*%
%TO.N,Net-(D6-Pad2)*%
X33515000Y50800000D03*
%TO.P,D6,1,K*%
%TO.N,GND*%
X34485000Y50800000D03*
%TD*%
D21*
%TO.P,C17,2*%
%TO.N,+3V3*%
X29620000Y16050000D03*
%TO.P,C17,1*%
%TO.N,GND*%
X30580000Y16050000D03*
%TD*%
D20*
%TO.P,C7,2*%
%TO.N,GND*%
X33380000Y10300000D03*
%TO.P,C7,1*%
%TO.N,+1V9*%
X32420000Y10300000D03*
%TD*%
D21*
%TO.P,C5,2*%
%TO.N,GND*%
X22500000Y21000000D03*
%TO.P,C5,1*%
%TO.N,+3V3*%
X23460000Y21000000D03*
%TD*%
D20*
%TO.P,C16,2*%
%TO.N,GND*%
X28730000Y26500000D03*
%TO.P,C16,1*%
%TO.N,+3V3*%
X27770000Y26500000D03*
%TD*%
D32*
%TO.P,R8,2*%
%TO.N,/FC6_MISO*%
X15260000Y13500000D03*
%TO.P,R8,1*%
%TO.N,+3V3*%
X14240000Y13500000D03*
%TD*%
D36*
%TO.P,J2,MP*%
%TO.N,N/C*%
X10550000Y26050000D03*
X10550000Y19450000D03*
D37*
%TO.P,J2,5,Pin_5*%
%TO.N,/SW5_NO*%
X13075000Y24750000D03*
%TO.P,J2,4,Pin_4*%
%TO.N,/SW5_NC*%
X13075000Y23750000D03*
%TO.P,J2,3,Pin_3*%
%TO.N,GND*%
X13075000Y22750000D03*
%TO.P,J2,2,Pin_2*%
%TO.N,/SW4_NC*%
X13075000Y21750000D03*
%TO.P,J2,1,Pin_1*%
%TO.N,/SW4_NO*%
X13075000Y20750000D03*
%TD*%
D38*
%TO.P,J4,10,~{RESET}*%
%TO.N,/RESET*%
X38290000Y7450000D03*
%TO.P,J4,9,GNDDetect*%
%TO.N,GND*%
X38290000Y3550000D03*
%TO.P,J4,8,NC/TDI*%
%TO.N,/ISP*%
X37020000Y7450000D03*
%TO.P,J4,7,KEY*%
%TO.N,unconnected-(J4-Pad7)*%
X37020000Y3550000D03*
%TO.P,J4,6,SWO/TDO*%
%TO.N,/SWO*%
X35750000Y7450000D03*
%TO.P,J4,5,GND*%
%TO.N,GND*%
X35750000Y3550000D03*
%TO.P,J4,4,SWDCLK/TCK*%
%TO.N,/SWCLK*%
X34480000Y7450000D03*
%TO.P,J4,3,GND*%
%TO.N,GND*%
X34480000Y3550000D03*
%TO.P,J4,2,SWDIO/TMS*%
%TO.N,/SWDIO*%
X33210000Y7450000D03*
%TO.P,J4,1,VTref*%
%TO.N,/DBG_VIN*%
X33210000Y3550000D03*
%TD*%
D39*
%TO.P,J3,6,Pin_6*%
%TO.N,/SWCLK*%
X42750000Y8500000D03*
%TO.P,J3,5,Pin_5*%
%TO.N,/SWO*%
X42750000Y10500000D03*
%TO.P,J3,4,Pin_4*%
%TO.N,/SWDIO*%
X42750000Y12500000D03*
%TO.P,J3,3,Pin_3*%
%TO.N,/RESET*%
X42750000Y14500000D03*
%TO.P,J3,2,Pin_2*%
%TO.N,/DBG_VIN*%
X42750000Y16500000D03*
D40*
%TO.P,J3,1,Pin_1*%
%TO.N,GND*%
X42750000Y18500000D03*
%TD*%
D21*
%TO.P,C18,2*%
%TO.N,+3V3*%
X29620000Y15000000D03*
%TO.P,C18,1*%
%TO.N,GND*%
X30580000Y15000000D03*
%TD*%
D18*
%TO.P,R5,2*%
%TO.N,Net-(D3-Pad2)*%
X29500000Y24250000D03*
%TO.P,R5,1*%
%TO.N,+3V3*%
X30520000Y24250000D03*
%TD*%
D41*
%TO.P,D1,4,VCC*%
%TO.N,+5V*%
X21484343Y53049999D03*
%TO.P,D1,3,I/O2*%
%TO.N,/USB_D+*%
X21484343Y54950001D03*
%TO.P,D1,2,I/O1*%
%TO.N,/USB_D-*%
X23516343Y54950000D03*
D42*
%TO.P,D1,1,GND*%
%TO.N,GND*%
X23516343Y53253200D03*
%TD*%
D43*
%TO.P,U1,16*%
%TO.N,N/C*%
X17150000Y5905000D03*
%TO.P,U1,15,LED_P*%
%TO.N,Net-(R7-Pad2)*%
X17150000Y7685000D03*
%TO.P,U1,14,~{RESET}*%
%TO.N,/SNSR_RST*%
X17150000Y9465000D03*
%TO.P,U1,13,~{CS}*%
%TO.N,/FC6_CS1*%
X17150000Y11245000D03*
%TO.P,U1,12,MISO*%
%TO.N,/FC6_MISO*%
X17150000Y13025000D03*
%TO.P,U1,11,MOSI*%
%TO.N,/FC6_MOSI*%
X17150000Y14805000D03*
%TO.P,U1,10,SCLK*%
%TO.N,/FC6_SCK*%
X17150000Y16585000D03*
%TO.P,U1,9,MOTION*%
%TO.N,/SNSR_MTN*%
X17150000Y18365000D03*
%TO.P,U1,8,GND*%
%TO.N,GND*%
X27850000Y17475000D03*
%TO.P,U1,7,VDDIO*%
%TO.N,+3V3*%
X27850000Y15695000D03*
%TO.P,U1,6,GPO*%
%TO.N,unconnected-(U1-Pad6)*%
X27850000Y13915000D03*
%TO.P,U1,5,VDDPIX*%
%TO.N,Net-(C21-Pad1)*%
X27850000Y12135000D03*
%TO.P,U1,4,VDD*%
%TO.N,+1V9*%
X27850000Y10355000D03*
%TO.P,U1,3,GND*%
%TO.N,GND*%
X27850000Y8575000D03*
%TO.P,U1,2*%
%TO.N,N/C*%
X27850000Y6795000D03*
D44*
%TO.P,U1,1*%
X27850000Y5015000D03*
%TD*%
D45*
%TO.P,IC1,N13,VBAT_DCDC*%
%TO.N,/PMU*%
X19500000Y29000000D03*
%TO.P,IC1,N12,VSS_DCDC_2*%
%TO.N,GND*%
X20000000Y29000000D03*
%TO.P,IC1,N11,LX*%
%TO.N,/_1v2*%
X20500000Y29000000D03*
%TO.P,IC1,N9,FB*%
%TO.N,/1v2*%
X21500000Y29000000D03*
%TO.P,IC1,N8,USB1_VBUS*%
%TO.N,+3V3*%
X22000000Y29000000D03*
%TO.P,IC1,N7,USB1_3V3*%
X22500000Y29000000D03*
%TO.P,IC1,N6,USB1_DM*%
%TO.N,/USB_D-*%
X23000000Y29000000D03*
%TO.P,IC1,N5,USB1_VSS*%
%TO.N,GND*%
X23500000Y29000000D03*
%TO.P,IC1,N3,XTAL32M_P*%
%TO.N,/XTAL+*%
X24500000Y29000000D03*
%TO.P,IC1,N2,PIO0_27*%
%TO.N,unconnected-(IC1-PadN2)*%
X25000000Y29000000D03*
%TO.P,IC1,N1,VSS_4*%
%TO.N,GND*%
X25500000Y29000000D03*
%TO.P,IC1,M13,VBAT__PMU*%
%TO.N,/PMU*%
X19500000Y28500000D03*
%TO.P,IC1,M12,VSS_DCDC_1*%
%TO.N,GND*%
X20000000Y28500000D03*
%TO.P,IC1,M11,VSS_PMU*%
X20500000Y28500000D03*
%TO.P,IC1,M9,VDD_PMU*%
%TO.N,/1v2*%
X21500000Y28500000D03*
%TO.P,IC1,M8,PIO1_22*%
%TO.N,/SW1_L_NO*%
X22000000Y28500000D03*
%TO.P,IC1,M7,PIO1_21*%
%TO.N,unconnected-(IC1-PadM7)*%
X22500000Y28500000D03*
%TO.P,IC1,M6,USB1_DP*%
%TO.N,/USB_D+*%
X23000000Y28500000D03*
%TO.P,IC1,M5,PIO1_5*%
%TO.N,/SW3_M_NO*%
X23500000Y28500000D03*
%TO.P,IC1,M3,XTAL32M_N*%
%TO.N,/XTAL-*%
X24500000Y28500000D03*
%TO.P,IC1,M2,PIO0_8*%
%TO.N,unconnected-(IC1-PadM2)*%
X25000000Y28500000D03*
%TO.P,IC1,M1,VDD_4*%
%TO.N,+3V3*%
X25500000Y28500000D03*
%TO.P,IC1,L13,PIO0_9/ACMP0_B*%
%TO.N,unconnected-(IC1-PadL13)*%
X19500000Y28000000D03*
%TO.P,IC1,L12,PIO0_0/_ACMP0_A*%
%TO.N,unconnected-(IC1-PadL12)*%
X20000000Y28000000D03*
%TO.P,IC1,L7,PIO1_14/ACMP0_D*%
%TO.N,unconnected-(IC1-PadL7)*%
X22500000Y28000000D03*
%TO.P,IC1,L2,PIO0_15/ADC0_2*%
%TO.N,/FC6_CS1*%
X25000000Y28000000D03*
%TO.P,IC1,L1,PIO0_31/ADC0_3*%
%TO.N,unconnected-(IC1-PadL1)*%
X25500000Y28000000D03*
%TO.P,IC1,J13,XTAL32K_P*%
%TO.N,GND*%
X19500000Y27000000D03*
%TO.P,IC1,J12,XTAL32K_N*%
%TO.N,unconnected-(IC1-PadJ12)*%
X20000000Y27000000D03*
%TO.P,IC1,J9,PIO1_17*%
%TO.N,unconnected-(IC1-PadJ9)*%
X21500000Y27000000D03*
%TO.P,IC1,J8,PIO1_23*%
%TO.N,unconnected-(IC1-PadJ8)*%
X22000000Y27000000D03*
%TO.P,IC1,J7,PIO1_10*%
%TO.N,/SW1_L_NC*%
X22500000Y27000000D03*
%TO.P,IC1,J6,RESETN*%
%TO.N,/RESET*%
X23000000Y27000000D03*
%TO.P,IC1,J5,PIO1_7*%
%TO.N,/SW3_M_NC*%
X23500000Y27000000D03*
%TO.P,IC1,J2,PIO0_16/ADC0_8*%
%TO.N,unconnected-(IC1-PadJ2)*%
X25000000Y27000000D03*
%TO.P,IC1,J1,PIO0_23/ADC0_0*%
%TO.N,unconnected-(IC1-PadJ1)*%
X25500000Y27000000D03*
%TO.P,IC1,H13,PIO1_19/ACMPVREF*%
%TO.N,unconnected-(IC1-PadH13)*%
X19500000Y26500000D03*
%TO.P,IC1,H12,PIO0_26*%
%TO.N,unconnected-(IC1-PadH12)*%
X20000000Y26500000D03*
%TO.P,IC1,H9,PIO0_18/ACMP0_C*%
%TO.N,unconnected-(IC1-PadH9)*%
X21500000Y26500000D03*
%TO.P,IC1,H8,PIO0_29*%
%TO.N,unconnected-(IC1-PadH8)*%
X22000000Y26500000D03*
%TO.P,IC1,H6,PIO1_31*%
%TO.N,unconnected-(IC1-PadH6)*%
X23000000Y26500000D03*
%TO.P,IC1,H5,PIO1_6*%
%TO.N,unconnected-(IC1-PadH5)*%
X23500000Y26500000D03*
%TO.P,IC1,H2,VSSA*%
%TO.N,GND*%
X25000000Y26500000D03*
%TO.P,IC1,H1,VREFN*%
X25500000Y26500000D03*
%TO.P,IC1,G13,PIO1_3*%
%TO.N,/ENC_B*%
X19500000Y26000000D03*
%TO.P,IC1,G12,PIO1_2*%
%TO.N,unconnected-(IC1-PadG12)*%
X20000000Y26000000D03*
%TO.P,IC1,G11,PIO1_1/WAKEUP*%
%TO.N,/ENC_A*%
X20500000Y26000000D03*
%TO.P,IC1,G9,PIO1_18/WAKUP*%
%TO.N,unconnected-(IC1-PadG9)*%
X21500000Y26000000D03*
%TO.P,IC1,G8,PIO1_29*%
%TO.N,/SW2_R_NC*%
X22000000Y26000000D03*
%TO.P,IC1,G6,PIO1_11*%
%TO.N,/SW2_R_NO*%
X23000000Y26000000D03*
%TO.P,IC1,G5,PIO0_7*%
%TO.N,unconnected-(IC1-PadG5)*%
X23500000Y26000000D03*
%TO.P,IC1,G3,PIO0_17*%
%TO.N,unconnected-(IC1-PadG3)*%
X24500000Y26000000D03*
%TO.P,IC1,G2,VDDA*%
%TO.N,+3V3*%
X25000000Y26000000D03*
%TO.P,IC1,G1,VREFP*%
X25500000Y26000000D03*
%TO.P,IC1,F13,PIO0_28/WAKEUP*%
%TO.N,unconnected-(IC1-PadF13)*%
X19500000Y25500000D03*
%TO.P,IC1,F12,PIO1_12*%
%TO.N,/FC6_SCK*%
X20000000Y25500000D03*
%TO.P,IC1,F9,PIO1_30/WAKEUP*%
%TO.N,/USB1_LED*%
X21500000Y25500000D03*
%TO.P,IC1,F8,PIO0_3/TCK*%
%TO.N,unconnected-(IC1-PadF8)*%
X22000000Y25500000D03*
%TO.P,IC1,F6,PIO1_24*%
%TO.N,unconnected-(IC1-PadF6)*%
X23000000Y25500000D03*
%TO.P,IC1,F5,PIO0_1*%
%TO.N,unconnected-(IC1-PadF5)*%
X23500000Y25500000D03*
%TO.P,IC1,F2,PIO0_10/ADC0_1*%
%TO.N,/SWO*%
X25000000Y25500000D03*
%TO.P,IC1,F1,PIO0_11/ADC0_9*%
%TO.N,/SWCLK*%
X25500000Y25500000D03*
%TO.P,IC1,E13,PIO1_26*%
%TO.N,unconnected-(IC1-PadE13)*%
X19500000Y25000000D03*
%TO.P,IC1,E12,PIO0_24*%
%TO.N,unconnected-(IC1-PadE12)*%
X20000000Y25000000D03*
%TO.P,IC1,E9,PIO0_22*%
%TO.N,unconnected-(IC1-PadE9)*%
X21500000Y25000000D03*
%TO.P,IC1,E8,PIO1_27*%
%TO.N,unconnected-(IC1-PadE8)*%
X22000000Y25000000D03*
%TO.P,IC1,E7,PIO0_4/TMS*%
%TO.N,unconnected-(IC1-PadE7)*%
X22500000Y25000000D03*
%TO.P,IC1,E6,PIO0_19*%
%TO.N,/SNSR_MTN*%
X23000000Y25000000D03*
%TO.P,IC1,E5,PIO0_30*%
%TO.N,unconnected-(IC1-PadE5)*%
X23500000Y25000000D03*
%TO.P,IC1,E2,PIO0_12/ADC0_10*%
%TO.N,/SWDIO*%
X25000000Y25000000D03*
%TO.P,IC1,E1,PIO1_0/ADC0_11*%
%TO.N,unconnected-(IC1-PadE1)*%
X25500000Y25000000D03*
%TO.P,IC1,C13,PIO0_14*%
%TO.N,/SW5_NC*%
X19500000Y24000000D03*
%TO.P,IC1,C12,PIO0_13*%
%TO.N,/SW5_NO*%
X20000000Y24000000D03*
%TO.P,IC1,C7,PIO1_16*%
%TO.N,/FC6_MISO*%
X22500000Y24000000D03*
%TO.P,IC1,C2,PIO1_20*%
%TO.N,/FAULT_LED*%
X25000000Y24000000D03*
%TO.P,IC1,C1,PIO1_9/ADC0_12*%
%TO.N,/USER_LED*%
X25500000Y24000000D03*
%TO.P,IC1,B13,VSS_3*%
%TO.N,GND*%
X19500000Y23500000D03*
%TO.P,IC1,B12,PIO0_20*%
%TO.N,unconnected-(IC1-PadB12)*%
X20000000Y23500000D03*
%TO.P,IC1,B11,PIO0_2/TRST*%
%TO.N,unconnected-(IC1-PadB11)*%
X20500000Y23500000D03*
%TO.P,IC1,B9,VSS_2*%
%TO.N,GND*%
X21500000Y23500000D03*
%TO.P,IC1,B8,PIO1_25*%
%TO.N,unconnected-(IC1-PadB8)*%
X22000000Y23500000D03*
%TO.P,IC1,B7,PIO0_6/TDO*%
%TO.N,unconnected-(IC1-PadB7)*%
X22500000Y23500000D03*
%TO.P,IC1,B6,PIO1_15*%
%TO.N,unconnected-(IC1-PadB6)*%
X23000000Y23500000D03*
%TO.P,IC1,B5,VSS_1*%
%TO.N,GND*%
X23500000Y23500000D03*
%TO.P,IC1,B3,PIO1_13*%
%TO.N,/FC6_MOSI*%
X24500000Y23500000D03*
%TO.P,IC1,B2,PIO1_4*%
%TO.N,unconnected-(IC1-PadB2)*%
X25000000Y23500000D03*
%TO.P,IC1,B1,USB0_VSS*%
%TO.N,GND*%
X25500000Y23500000D03*
%TO.P,IC1,A13,VDD_3*%
%TO.N,+3V3*%
X19500000Y23000000D03*
%TO.P,IC1,A12,PIO0_21*%
%TO.N,/SW4_NO*%
X20000000Y23000000D03*
%TO.P,IC1,A11,PIO0_25*%
%TO.N,/SW4_NC*%
X20500000Y23000000D03*
%TO.P,IC1,A9,VDD_2*%
%TO.N,+3V3*%
X21500000Y23000000D03*
%TO.P,IC1,A8,PIO1_28*%
%TO.N,unconnected-(IC1-PadA8)*%
X22000000Y23000000D03*
%TO.P,IC1,A7,PIO0_5/TDI*%
%TO.N,/ISP*%
X22500000Y23000000D03*
%TO.P,IC1,A6,PIO1_8/ADC0_4*%
%TO.N,/SNSR_RST*%
X23000000Y23000000D03*
%TO.P,IC1,A5,VDD_1*%
%TO.N,+3V3*%
X23500000Y23000000D03*
%TO.P,IC1,A3,USB0_3V3*%
X24500000Y23000000D03*
%TO.P,IC1,A2,USB0_DP*%
%TO.N,unconnected-(IC1-PadA2)*%
X25000000Y23000000D03*
%TO.P,IC1,A1,USB0_DM*%
%TO.N,unconnected-(IC1-PadA1)*%
X25500000Y23000000D03*
%TD*%
D20*
%TO.P,C19,2*%
%TO.N,GND*%
X30580000Y10850000D03*
%TO.P,C19,1*%
%TO.N,+1V9*%
X29620000Y10850000D03*
%TD*%
D24*
%TO.P,SW2,3,NC*%
%TO.N,/SW2_R_NC*%
X41000000Y35920000D03*
%TO.P,SW2,2,NO*%
%TO.N,/SW2_R_NO*%
X41000000Y41000000D03*
%TO.P,SW2,1,C*%
%TO.N,GND*%
X41000000Y46080000D03*
%TD*%
D46*
%TO.P,F1,2*%
%TO.N,/VBUS_*%
X26000000Y55735000D03*
%TO.P,F1,1*%
%TO.N,/VBUS_F_*%
X26000000Y54765000D03*
%TD*%
D32*
%TO.P,R13,2*%
%TO.N,Net-(D6-Pad2)*%
X32410000Y50800000D03*
%TO.P,R13,1*%
%TO.N,+3V3*%
X31390000Y50800000D03*
%TD*%
D20*
%TO.P,C21,2*%
%TO.N,GND*%
X30580000Y11800000D03*
%TO.P,C21,1*%
%TO.N,Net-(C21-Pad1)*%
X29620000Y11800000D03*
%TD*%
D24*
%TO.P,SW1,3,NC*%
%TO.N,/SW1_L_NC*%
X4000000Y35920000D03*
%TO.P,SW1,2,NO*%
%TO.N,/SW1_L_NO*%
X4000000Y41000000D03*
%TO.P,SW1,1,C*%
%TO.N,GND*%
X4000000Y46080000D03*
%TD*%
D35*
%TO.P,R3,2*%
%TO.N,Net-(J1-PadB5)*%
X19500000Y54760000D03*
%TO.P,R3,1*%
%TO.N,GND*%
X19500000Y53740000D03*
%TD*%
D47*
%TO.N,GND*%
X30400000Y7100000D03*
X13000000Y28900000D03*
D48*
%TO.N,+5V*%
X31750000Y48500000D03*
D47*
X25700000Y53000000D03*
X31786965Y16986965D03*
%TO.N,+3V3*%
X23500000Y31000000D03*
X31250000Y24250000D03*
X15300000Y28500000D03*
X23500000Y20500000D03*
X13350000Y14400000D03*
X27250000Y26500000D03*
X8500000Y31750000D03*
X31400000Y51900000D03*
X19500000Y20500000D03*
X31250000Y23250000D03*
X28100000Y27824500D03*
X21500000Y20500000D03*
X24549011Y21549011D03*
X27250000Y25500000D03*
D49*
X38000000Y750000D03*
D47*
%TO.N,+1V9*%
X32250000Y9450000D03*
%TO.N,/USB_D+*%
X21250000Y54500000D03*
X23050000Y28000000D03*
%TO.N,/USB_D-*%
X23000000Y30000000D03*
X23750000Y54500000D03*
%TO.N,/VBUS_*%
X21000000Y58750000D03*
X44000000Y22750000D03*
X25718767Y56218767D03*
X24000000Y58750000D03*
X24759355Y56495456D03*
%TO.N,/USB1_LED*%
X20924500Y26586598D03*
X4750000Y31250000D03*
D48*
%TO.N,/FC6_CS1*%
X25250000Y20750000D03*
%TO.N,/RESET*%
X23800000Y27500000D03*
D47*
X35725500Y14500000D03*
%TO.N,/FC6_SCK*%
X13000000Y16500000D03*
X14475500Y16500000D03*
X20550000Y25350000D03*
%TO.N,/FC6_MOSI*%
X16024500Y19000000D03*
X13000000Y19000000D03*
%TO.N,/FC6_MISO*%
X22399500Y24490312D03*
X14975500Y12750000D03*
X13000000Y12750000D03*
D48*
%TO.N,/SW1_L_NC*%
X21050000Y27400000D03*
D47*
%TO.N,/SNSR_RST*%
X17300000Y21549011D03*
X14000000Y19524500D03*
X21850000Y21750000D03*
%TO.N,/SW1_L_NO*%
X21650000Y27924500D03*
%TO.N,GND*%
X21350000Y24500000D03*
X29270000Y26500000D03*
X27000000Y56250000D03*
X29250000Y28500000D03*
X31250000Y22250000D03*
X19000000Y53750000D03*
X24451727Y24042359D03*
X35750000Y5000000D03*
X24000000Y51750000D03*
X26600989Y31000000D03*
D49*
X34750000Y750000D03*
D47*
X30000000Y33250000D03*
X18475011Y27000000D03*
X22500000Y20500000D03*
X25750000Y31000000D03*
X38250000Y5000000D03*
X35500000Y50750000D03*
X20500000Y20500000D03*
X34500000Y5000000D03*
X34100000Y10250000D03*
X25000000Y55090500D03*
X30250000Y28500000D03*
X17000000Y53750000D03*
X33229122Y15229122D03*
X30580000Y13920000D03*
X29250000Y25500000D03*
X20800000Y28450000D03*
X18374500Y56250000D03*
D48*
X26250000Y26500000D03*
D47*
X18500000Y20500000D03*
X14250000Y22750000D03*
X39650000Y20300000D03*
%TO.N,/SW4_NC*%
X20544503Y24500000D03*
X14250000Y21750000D03*
D48*
%TO.N,/SW4_NO*%
X20050000Y22724011D03*
D47*
X14250000Y20750000D03*
D48*
%TO.N,/SW2_R_NO*%
X22494503Y26500000D03*
%TO.N,/SW2_R_NC*%
X22535842Y25670558D03*
%TO.N,/SW3_M_NO*%
X24000000Y28250000D03*
%TO.N,/SW3_M_NC*%
X24569819Y27449500D03*
%TO.N,/ENC_B*%
X18500000Y26000000D03*
D49*
X5750000Y41000000D03*
%TO.N,/ENC_A*%
X6334080Y39232867D03*
D48*
X18750000Y28000000D03*
D47*
%TO.N,/SWO*%
X35750000Y6125500D03*
D48*
X23991917Y26050500D03*
D47*
X40250000Y9725500D03*
D48*
%TO.N,/SWCLK*%
X26250000Y25500000D03*
D47*
X38750000Y10250000D03*
%TO.N,/SWDIO*%
X33650000Y18950000D03*
D48*
X24000000Y25200000D03*
D47*
X38750000Y11250000D03*
X29945943Y20495943D03*
%TO.N,/SNSR_MTN*%
X23150000Y24150000D03*
%TO.N,/ISP*%
X26250000Y20750000D03*
X35725500Y13500000D03*
X37000000Y8750000D03*
X22500000Y22250000D03*
%TO.N,/DBG_VIN*%
X44000000Y20000000D03*
X33250000Y5000000D03*
%TD*%
D50*
%TO.N,+1V9*%
X31950000Y10770000D02*
X32420000Y10300000D01*
X31950000Y11762500D02*
X31950000Y10770000D01*
%TO.N,GND*%
X33229122Y15550878D02*
X32580000Y16200000D01*
X33229122Y15229122D02*
X33229122Y15550878D01*
X32900000Y14900000D02*
X33229122Y15229122D01*
X32900000Y14037500D02*
X32900000Y14900000D01*
%TO.N,+5V*%
X33500000Y13000000D02*
X33850000Y13350000D01*
X33850000Y13350000D02*
X33850000Y14037500D01*
X32200000Y13000000D02*
X33500000Y13000000D01*
X31950000Y13250000D02*
X32200000Y13000000D01*
X31950000Y14037500D02*
X31950000Y13250000D01*
X31620000Y15680000D02*
X31950000Y15350000D01*
X31620000Y16200000D02*
X31620000Y15680000D01*
X31950000Y15350000D02*
X31950000Y14037500D01*
X31620000Y16820000D02*
X31786965Y16986965D01*
X31620000Y16200000D02*
X31620000Y16820000D01*
%TO.N,/ISP*%
X35100000Y16000000D02*
X35100000Y18650000D01*
X34725500Y15625500D02*
X35100000Y16000000D01*
X34725500Y14500000D02*
X34725500Y15625500D01*
X29728480Y19970943D02*
X30429057Y19970943D01*
X29420943Y20278480D02*
X29728480Y19970943D01*
X29457537Y20750000D02*
X29420943Y20713406D01*
X29420943Y20713406D02*
X29420943Y20278480D01*
X34725500Y15674500D02*
X34725500Y14500000D01*
X26250000Y20750000D02*
X29457537Y20750000D01*
X30429057Y19970943D02*
X34725500Y15674500D01*
%TO.N,GND*%
X31175000Y7875000D02*
X31175000Y8000000D01*
X30400000Y7100000D02*
X31175000Y7875000D01*
%TO.N,+1V9*%
X29700000Y6500000D02*
X29625000Y6575000D01*
X31700000Y6500000D02*
X29700000Y6500000D01*
X32250000Y7050000D02*
X31700000Y6500000D01*
X32250000Y9450000D02*
X32250000Y7050000D01*
X29625000Y6575000D02*
X29625000Y7175000D01*
%TO.N,/ISP*%
X34725500Y14474500D02*
X35700000Y13500000D01*
X35700000Y13500000D02*
X35725500Y13500000D01*
X34725500Y14500000D02*
X34725500Y14474500D01*
D51*
%TO.N,/XTAL+*%
X28975000Y30825000D02*
X28200489Y30050489D01*
X28975000Y30875000D02*
X28975000Y30825000D01*
X28200489Y30050489D02*
X28150489Y30050489D01*
%TO.N,/XTAL-*%
X27100489Y31600489D02*
X27100489Y31500489D01*
X27825000Y32325000D02*
X27100489Y31600489D01*
%TO.N,/XTAL+*%
X28150489Y30050489D02*
X28300489Y30050489D01*
X27300489Y30050489D02*
X28150489Y30050489D01*
D50*
%TO.N,+3V3*%
X29937500Y53050000D02*
X30250000Y53050000D01*
X30250000Y53050000D02*
X31400000Y51900000D01*
%TO.N,GND*%
X26090000Y51790000D02*
X26400000Y52100000D01*
X25000000Y51790000D02*
X26090000Y51790000D01*
X26400000Y52100000D02*
X27662500Y52100000D01*
%TO.N,+5V*%
X28800000Y51700000D02*
X28250000Y51150000D01*
X28800000Y52500000D02*
X28800000Y51700000D01*
X28250000Y53050000D02*
X28800000Y52500000D01*
X28250000Y51150000D02*
X27662500Y51150000D01*
X27662500Y53050000D02*
X28250000Y53050000D01*
X27612500Y53000000D02*
X27662500Y53050000D01*
X25700000Y53000000D02*
X27612500Y53000000D01*
%TO.N,GND*%
X38500000Y18650000D02*
X38500000Y19150000D01*
X38500000Y19150000D02*
X39650000Y20300000D01*
%TO.N,+3V3*%
X15300000Y27425000D02*
X15525000Y27200000D01*
X15300000Y28500000D02*
X15300000Y27425000D01*
%TO.N,/PMU*%
X18500000Y28500000D02*
X17200000Y27200000D01*
X17200000Y27200000D02*
X17075000Y27200000D01*
%TO.N,GND*%
X33430000Y10250000D02*
X33380000Y10300000D01*
%TO.N,+1V9*%
X32420000Y9620000D02*
X32420000Y10300000D01*
%TO.N,GND*%
X34100000Y10250000D02*
X33430000Y10250000D01*
%TO.N,+1V9*%
X32250000Y9450000D02*
X32420000Y9620000D01*
%TO.N,GND*%
X14200000Y30100000D02*
X13000000Y28900000D01*
X14200000Y31225000D02*
X14200000Y30100000D01*
%TO.N,/1v2*%
X14250000Y32825000D02*
X14200000Y32775000D01*
X15900000Y32825000D02*
X14250000Y32825000D01*
X15900000Y32700000D02*
X15900000Y32825000D01*
X19800000Y30000000D02*
X18600000Y30000000D01*
X18600000Y30000000D02*
X15900000Y32700000D01*
%TO.N,/_1v2*%
X20500000Y29300000D02*
X20500000Y29000000D01*
X18300000Y29600000D02*
X20200000Y29600000D01*
X16725000Y31175000D02*
X18300000Y29600000D01*
X20200000Y29600000D02*
X20500000Y29300000D01*
X15900000Y31175000D02*
X16725000Y31175000D01*
%TO.N,+1V9*%
X29625000Y8000000D02*
X29625000Y9600000D01*
%TO.N,GND*%
X31175000Y10255000D02*
X31175000Y9600000D01*
%TO.N,+1V9*%
X29625000Y9600000D02*
X29400000Y9600000D01*
%TO.N,GND*%
X30580000Y10850000D02*
X31175000Y10255000D01*
%TO.N,+1V9*%
X29400000Y9600000D02*
X28750000Y10250000D01*
%TO.N,GND*%
X31175000Y9600000D02*
X31175000Y8000000D01*
%TO.N,+1V9*%
X29625000Y7175000D02*
X29625000Y8000000D01*
%TO.N,/1v2*%
X19800000Y30000000D02*
X20500000Y30000000D01*
X20500000Y30000000D02*
X21500000Y29000000D01*
%TO.N,+3V3*%
X15300000Y28500000D02*
X16520000Y28500000D01*
X16300000Y29500000D02*
X16520000Y29500000D01*
X15300000Y28500000D02*
X16300000Y29500000D01*
%TO.N,+1V9*%
X29625000Y2775000D02*
X29625000Y7175000D01*
X28050000Y1200000D02*
X29625000Y2775000D01*
%TO.N,/USB_D-*%
X23250000Y57245000D02*
X23250000Y55216343D01*
X23250000Y55216343D02*
X23516343Y54950000D01*
%TO.N,/USB_D+*%
X22750000Y56215658D02*
X22750000Y57245000D01*
X21484343Y54950001D02*
X22750000Y56215658D01*
%TO.N,+5V*%
X24325054Y53972211D02*
X22722211Y53972211D01*
D52*
X25015000Y53750000D02*
X25015000Y52765000D01*
D50*
X24547265Y53750000D02*
X24325054Y53972211D01*
X21799999Y53049999D02*
X21434343Y53049999D01*
D52*
X25015000Y52765000D02*
X25000000Y52750000D01*
D50*
X22722211Y53972211D02*
X21799999Y53049999D01*
X25604236Y53000000D02*
X25700000Y53000000D01*
X25015000Y53750000D02*
X24547265Y53750000D01*
X25354236Y52750000D02*
X25604236Y53000000D01*
%TO.N,+3V3*%
X23500000Y21020000D02*
X23520000Y21000000D01*
X21460000Y21000000D02*
X20750000Y21710000D01*
X27520000Y25750000D02*
X27270000Y26000000D01*
X27250000Y25500000D02*
X27520000Y25500000D01*
X23500000Y20960000D02*
X23460000Y21000000D01*
X24020000Y31000000D02*
X23500000Y31000000D01*
X29250000Y15000000D02*
X28750000Y15500000D01*
X31250000Y23250000D02*
X30510000Y23250000D01*
X14240000Y13510000D02*
X13350000Y14400000D01*
X33520000Y51900000D02*
X31400000Y51900000D01*
X21500000Y20500000D02*
X21500000Y20960000D01*
X23460000Y21000000D02*
X23500000Y21040000D01*
X8500000Y31750000D02*
X7760000Y31750000D01*
X28100000Y27824500D02*
X28100000Y27900000D01*
X21500000Y20960000D02*
X21460000Y21000000D01*
X23500000Y20500000D02*
X23500000Y20960000D01*
X27770000Y26500000D02*
X27270000Y26000000D01*
X22000000Y29000000D02*
X22500000Y29000000D01*
X27270000Y26000000D02*
X25000000Y26000000D01*
X31400000Y51900000D02*
X31400000Y50810000D01*
X28045000Y15500000D02*
X27850000Y15695000D01*
X29620000Y15000000D02*
X29250000Y15000000D01*
X27520000Y25500000D02*
X27520000Y25750000D01*
X20750000Y22091715D02*
X21500000Y22841715D01*
X24549011Y21549011D02*
X24500000Y21598022D01*
X19500000Y21020000D02*
X19520000Y21000000D01*
X21500000Y22841715D02*
X21500000Y23000000D01*
X24500000Y21598022D02*
X24500000Y23000000D01*
X31400000Y50810000D02*
X31390000Y50800000D01*
X29620000Y16050000D02*
X29300000Y16050000D01*
X19500000Y20500000D02*
X19500000Y20980000D01*
X23500000Y21040000D02*
X23500000Y23000000D01*
X19500000Y23000000D02*
X19500000Y21020000D01*
X20750000Y21710000D02*
X20750000Y22091715D01*
X29300000Y16050000D02*
X28750000Y15500000D01*
X14240000Y13500000D02*
X14240000Y13510000D01*
X19500000Y20980000D02*
X19480000Y21000000D01*
X21500000Y21020000D02*
X21520000Y21000000D01*
X31250000Y24250000D02*
X30520000Y24250000D01*
X28750000Y15500000D02*
X28045000Y15500000D01*
X23500000Y31000000D02*
X23258228Y31000000D01*
X22475489Y30217261D02*
X22475489Y29024511D01*
X22475489Y29024511D02*
X22500000Y29000000D01*
X27250000Y26500000D02*
X27770000Y26500000D01*
X23258228Y31000000D02*
X22475489Y30217261D01*
X28100000Y27900000D02*
X27500000Y28500000D01*
X27500000Y28500000D02*
X25500000Y28500000D01*
%TO.N,+1V9*%
X28050000Y1200000D02*
X16600000Y1200000D01*
X14240000Y3560000D02*
X14240000Y7700000D01*
X28750000Y10250000D02*
X27955000Y10250000D01*
X27955000Y10250000D02*
X27850000Y10355000D01*
X29350000Y10850000D02*
X28750000Y10250000D01*
X29620000Y10850000D02*
X29350000Y10850000D01*
X16600000Y1200000D02*
X14240000Y3560000D01*
%TO.N,/PMU*%
X17500000Y29500000D02*
X18500000Y28500000D01*
X17480000Y29500000D02*
X17500000Y29500000D01*
X19500000Y29000000D02*
X19500000Y28500000D01*
X19500000Y28500000D02*
X18500000Y28500000D01*
X18500000Y28500000D02*
X17480000Y28500000D01*
%TO.N,/1v2*%
X21500000Y28500000D02*
X21500000Y29000000D01*
%TO.N,/USB_D+*%
X21750000Y55215658D02*
X21484343Y54950001D01*
X21750000Y55250000D02*
X21750000Y55215658D01*
X21484343Y54950001D02*
X21484343Y54734343D01*
X23050000Y28450000D02*
X23000000Y28500000D01*
X23050000Y28000000D02*
X23050000Y28450000D01*
X21484343Y54734343D02*
X21250000Y54500000D01*
X21750000Y55250000D02*
X21750000Y57245000D01*
%TO.N,/USB_D-*%
X23020000Y58250000D02*
X22480000Y58250000D01*
X23250000Y58020000D02*
X23020000Y58250000D01*
X22480000Y58250000D02*
X22250000Y58020000D01*
X22250000Y58020000D02*
X22250000Y57245000D01*
X23250000Y57245000D02*
X23250000Y58020000D01*
X23516343Y54950000D02*
X23516343Y54733657D01*
X23000000Y29000000D02*
X23000000Y30000000D01*
X23516343Y54733657D02*
X23750000Y54500000D01*
%TO.N,/VBUS_F_*%
X26000000Y53765000D02*
X25985000Y53750000D01*
D52*
X26000000Y54765000D02*
X26000000Y53765000D01*
D50*
%TO.N,/VBUS_*%
X24900000Y56636101D02*
X24900000Y57245000D01*
D52*
X44000000Y22750000D02*
X44000000Y21485000D01*
D50*
X20100000Y57850000D02*
X21000000Y58750000D01*
D52*
X25718767Y56016233D02*
X26000000Y55735000D01*
D50*
X20100000Y57245000D02*
X20100000Y57850000D01*
X24759355Y56495456D02*
X24900000Y56636101D01*
X24900000Y57245000D02*
X24900000Y57850000D01*
X24900000Y57850000D02*
X24000000Y58750000D01*
D52*
X25718767Y56218767D02*
X25718767Y56016233D01*
D50*
%TO.N,/USB1_LED*%
X4750000Y31250000D02*
X4750000Y31735000D01*
X21500000Y25500000D02*
X21441385Y25500000D01*
X4750000Y31735000D02*
X4765000Y31750000D01*
X20924500Y26016885D02*
X20924500Y26586598D01*
X21441385Y25500000D02*
X20924500Y26016885D01*
%TO.N,/FC6_CS1*%
X25308360Y27395000D02*
X25000000Y27703360D01*
X31275000Y21275000D02*
X32000000Y22000000D01*
X32000000Y22000000D02*
X32000000Y26750000D01*
X25775000Y21275000D02*
X31275000Y21275000D01*
X25663615Y27395000D02*
X25308360Y27395000D01*
X31450000Y27300000D02*
X25758615Y27300000D01*
X32000000Y26750000D02*
X31450000Y27300000D01*
X25758615Y27300000D02*
X25663615Y27395000D01*
X25000000Y27703360D02*
X25000000Y28000000D01*
X25250000Y20750000D02*
X25775000Y21275000D01*
%TO.N,/RESET*%
X41250000Y13000000D02*
X41750000Y13500000D01*
X41250000Y11500000D02*
X41250000Y13000000D01*
X38290000Y7450000D02*
X38290000Y8540000D01*
X23000000Y27000000D02*
X23000000Y27169705D01*
X23000000Y27169705D02*
X23330295Y27500000D01*
X35725500Y14500000D02*
X42750000Y14500000D01*
X38290000Y8540000D02*
X41250000Y11500000D01*
X41750000Y13500000D02*
X42750000Y14500000D01*
X23330295Y27500000D02*
X23800000Y27500000D01*
%TO.N,/FC6_SCK*%
X14560500Y16585000D02*
X17150000Y16585000D01*
X20400000Y25500000D02*
X20000000Y25500000D01*
X14475500Y16500000D02*
X13000000Y16500000D01*
X14475500Y16500000D02*
X14560500Y16585000D01*
X20550000Y25350000D02*
X20400000Y25500000D01*
%TO.N,/FC6_MOSI*%
X24024511Y20200978D02*
X24024511Y23321151D01*
X16024500Y19000000D02*
X16944500Y19920000D01*
X16024500Y19000000D02*
X13000000Y19000000D01*
X23743533Y19920000D02*
X24024511Y20200978D01*
X24203360Y23500000D02*
X24500000Y23500000D01*
X24024511Y23321151D02*
X24203360Y23500000D01*
X16944500Y19920000D02*
X23743533Y19920000D01*
%TO.N,/FC6_MISO*%
X14975500Y12750000D02*
X15260000Y13034500D01*
X22500000Y24389812D02*
X22500000Y24000000D01*
X16675000Y13500000D02*
X17150000Y13025000D01*
X15260000Y13034500D02*
X15260000Y13500000D01*
X14975500Y12750000D02*
X13000000Y12750000D01*
X15260000Y13500000D02*
X16675000Y13500000D01*
X22399500Y24490312D02*
X22500000Y24389812D01*
%TO.N,Net-(D2-Pad2)*%
X5735000Y31750000D02*
X6740000Y31750000D01*
%TO.N,Net-(J1-PadB5)*%
X19500000Y55250000D02*
X19500000Y54760000D01*
X20750000Y57245000D02*
X20750000Y56500000D01*
X20750000Y56500000D02*
X19500000Y55250000D01*
%TO.N,Net-(J1-PadA5)*%
X23774511Y56346467D02*
X24360978Y55760000D01*
X24360978Y55760000D02*
X25000000Y55760000D01*
X23750000Y57245000D02*
X23750000Y56741772D01*
X23750000Y56741772D02*
X23774511Y56717261D01*
X23774511Y56717261D02*
X23774511Y56346467D01*
%TO.N,/SW1_L_NC*%
X21050000Y27400000D02*
X22158615Y27400000D01*
X22158615Y27400000D02*
X22500000Y27058615D01*
X22500000Y27058615D02*
X22500000Y27000000D01*
D52*
%TO.N,/SH*%
X18180000Y57820000D02*
X17750000Y57390000D01*
X17750000Y55480000D02*
X18500000Y54730000D01*
X17750000Y57390000D02*
X17750000Y55010000D01*
X17750000Y55010000D02*
X17500000Y54760000D01*
D50*
%TO.N,/SNSR_RST*%
X21850000Y21750000D02*
X21875000Y21725000D01*
X21875000Y21725000D02*
X22717463Y21725000D01*
X22717463Y21725000D02*
X23024511Y22032048D01*
X23024511Y22032048D02*
X23024511Y22975489D01*
X17300000Y21549011D02*
X15275489Y19524500D01*
X15275489Y19524500D02*
X14000000Y19524500D01*
X23024511Y22975489D02*
X23000000Y23000000D01*
%TO.N,/SW1_L_NO*%
X21650000Y27924500D02*
X22000000Y28274500D01*
X22000000Y28274500D02*
X22000000Y28500000D01*
%TO.N,GND*%
X29750000Y33500000D02*
X30000000Y33250000D01*
X25000000Y51790000D02*
X24040000Y51790000D01*
X14250000Y22750000D02*
X13075000Y22750000D01*
X34480000Y3550000D02*
X34480000Y4980000D01*
X25000000Y55090500D02*
X25000000Y54740000D01*
X34485000Y51895000D02*
X34485000Y50800000D01*
X18500000Y23000000D02*
X18500000Y20500000D01*
X30580000Y11800000D02*
X30580000Y12750000D01*
X23991772Y30250000D02*
X23500000Y29758228D01*
X17000000Y53750000D02*
X17010000Y53740000D01*
X29250000Y28500000D02*
X28460000Y28500000D01*
X18980000Y53770000D02*
X18500000Y53770000D01*
X18475011Y27000000D02*
X19500000Y27000000D01*
X25584520Y29084520D02*
X25500000Y29000000D01*
X24040000Y51790000D02*
X24000000Y51750000D01*
X24451727Y24042359D02*
X24042359Y24042359D01*
D53*
X26465481Y56284519D02*
X25700000Y57050000D01*
D50*
X23516343Y52233657D02*
X23516343Y53253200D01*
X30250000Y33000000D02*
X30250000Y31480000D01*
X26250000Y30250000D02*
X23991772Y30250000D01*
X21350000Y24500000D02*
X21500000Y24350000D01*
D53*
X25700000Y57050000D02*
X25700000Y57245000D01*
D50*
X19500000Y23500000D02*
X19000000Y23500000D01*
X24980000Y31000000D02*
X25750000Y31000000D01*
X35500000Y50750000D02*
X34535000Y50750000D01*
X26250000Y26500000D02*
X25000000Y26500000D01*
X29250000Y25500000D02*
X28710000Y25500000D01*
X34480000Y4980000D02*
X34500000Y5000000D01*
X30580000Y15000000D02*
X30580000Y16050000D01*
X28500000Y33500000D02*
X29750000Y33500000D01*
X17010000Y53740000D02*
X17500000Y53740000D01*
X20000000Y28500000D02*
X20000000Y29000000D01*
X34480000Y51900000D02*
X34485000Y51895000D01*
X19000000Y23500000D02*
X18500000Y23000000D01*
X26600989Y30600989D02*
X26250000Y30250000D01*
D53*
X19300000Y56800000D02*
X19300000Y57245000D01*
D50*
X30000000Y33250000D02*
X30250000Y33000000D01*
X20500000Y28500000D02*
X20750000Y28500000D01*
D53*
X18750000Y56250000D02*
X19300000Y56800000D01*
D50*
X20500000Y28500000D02*
X20000000Y28500000D01*
X30580000Y12750000D02*
X30580000Y15000000D01*
X26000000Y23500000D02*
X25500000Y23500000D01*
X23500000Y29758228D02*
X23500000Y29000000D01*
X29270000Y26500000D02*
X28730000Y26500000D01*
D53*
X18374500Y56250000D02*
X18750000Y56250000D01*
D50*
X29665480Y29084520D02*
X25584520Y29084520D01*
X19000000Y53750000D02*
X18980000Y53770000D01*
X26600989Y31000000D02*
X26600989Y30600989D01*
X24042359Y24042359D02*
X23500000Y23500000D01*
X35750000Y3550000D02*
X35750000Y5000000D01*
X24000000Y51750000D02*
X23516343Y52233657D01*
X30250000Y28500000D02*
X29665480Y29084520D01*
X31250000Y22250000D02*
X27250000Y22250000D01*
X34535000Y50750000D02*
X34485000Y50800000D01*
X21500000Y24350000D02*
X21500000Y23500000D01*
X38290000Y3550000D02*
X38290000Y4960000D01*
D53*
X27000000Y56250000D02*
X26965481Y56284519D01*
D50*
X30580000Y10850000D02*
X30580000Y11800000D01*
X38290000Y4960000D02*
X38250000Y5000000D01*
X27250000Y22250000D02*
X26000000Y23500000D01*
D53*
X26965481Y56284519D02*
X26465481Y56284519D01*
D50*
X20750000Y28500000D02*
X20800000Y28450000D01*
%TO.N,Net-(R7-Pad2)*%
X17135000Y7700000D02*
X17150000Y7685000D01*
X15260000Y7700000D02*
X17135000Y7700000D01*
%TO.N,/SW4_NC*%
X21000000Y23330295D02*
X21000000Y24044503D01*
X21000000Y24044503D02*
X20544503Y24500000D01*
X14250000Y21750000D02*
X13075000Y21750000D01*
X20669705Y23000000D02*
X21000000Y23330295D01*
X20500000Y23000000D02*
X20669705Y23000000D01*
%TO.N,/SW4_NO*%
X20000000Y23000000D02*
X20000000Y22774011D01*
X14250000Y20750000D02*
X13075000Y20750000D01*
X20000000Y22774011D02*
X20050000Y22724011D01*
%TO.N,/SW5_NC*%
X19500000Y24000000D02*
X14750000Y24000000D01*
X14500000Y23750000D02*
X13075000Y23750000D01*
X14750000Y24000000D02*
X14500000Y23750000D01*
%TO.N,/SW5_NO*%
X14500000Y24750000D02*
X13075000Y24750000D01*
X14750000Y24500000D02*
X14500000Y24750000D01*
X20000000Y24000000D02*
X20000000Y24250000D01*
X20000000Y24250000D02*
X19750000Y24500000D01*
X19750000Y24500000D02*
X14750000Y24500000D01*
%TO.N,/FAULT_LED*%
X25194940Y24400000D02*
X27370000Y24400000D01*
X25000000Y24205060D02*
X25194940Y24400000D01*
X27370000Y24400000D02*
X27520000Y24250000D01*
X25000000Y24000000D02*
X25000000Y24205060D01*
%TO.N,Net-(D3-Pad2)*%
X28490000Y24250000D02*
X29500000Y24250000D01*
%TO.N,/USER_LED*%
X27515000Y23250000D02*
X26765000Y24000000D01*
X26765000Y24000000D02*
X25500000Y24000000D01*
%TO.N,Net-(D4-Pad2)*%
X28485000Y23250000D02*
X29490000Y23250000D01*
D51*
%TO.N,/SW2_R_NO*%
X22494503Y26482237D02*
X22976740Y26000000D01*
X22976740Y26000000D02*
X23000000Y26000000D01*
X22494503Y26500000D02*
X22494503Y26482237D01*
%TO.N,/SW2_R_NC*%
X22535842Y25670558D02*
X22206400Y26000000D01*
X22206400Y26000000D02*
X22000000Y26000000D01*
D50*
%TO.N,/SW3_M_NO*%
X23750000Y28250000D02*
X23500000Y28500000D01*
X24000000Y28250000D02*
X23750000Y28250000D01*
%TO.N,/SW3_M_NC*%
X24569819Y27449500D02*
X24569819Y27369819D01*
X24200000Y27000000D02*
X23500000Y27000000D01*
X24569819Y27369819D02*
X24200000Y27000000D01*
%TO.N,/ENC_B*%
X5750000Y41000000D02*
X6750000Y40000000D01*
X6750000Y40000000D02*
X13000000Y40000000D01*
X13000000Y40000000D02*
X14000000Y41000000D01*
X18500000Y26000000D02*
X19500000Y26000000D01*
%TO.N,/ENC_A*%
X19987790Y27605489D02*
X20400000Y27193279D01*
X20400000Y26100000D02*
X20500000Y26000000D01*
X13000000Y39500000D02*
X14000000Y38500000D01*
X6334080Y39232867D02*
X6601213Y39500000D01*
X18750000Y28000000D02*
X19144511Y27605489D01*
X6601213Y39500000D02*
X13000000Y39500000D01*
X20400000Y27193279D02*
X20400000Y26100000D01*
X19144511Y27605489D02*
X19987790Y27605489D01*
%TO.N,/SWO*%
X41500000Y10500000D02*
X42750000Y10500000D01*
X23991917Y26050500D02*
X23991917Y25949468D01*
X24441385Y25500000D02*
X25000000Y25500000D01*
X41024500Y10500000D02*
X41500000Y10500000D01*
X23991917Y25949468D02*
X24441385Y25500000D01*
X40250000Y9725500D02*
X41024500Y10500000D01*
%TO.N,/SWCLK*%
X35550480Y9350480D02*
X37850480Y9350480D01*
X26250000Y25500000D02*
X25500000Y25500000D01*
X34480000Y7450000D02*
X34480000Y8480000D01*
X37850480Y9350480D02*
X38750000Y10250000D01*
X34480000Y8280000D02*
X35550480Y9350480D01*
X34480000Y7450000D02*
X34480000Y8280000D01*
%TO.N,/SWDIO*%
X34660978Y9750000D02*
X33210000Y8299022D01*
X37250000Y9750000D02*
X34660978Y9750000D01*
X33650000Y18950000D02*
X32104057Y20495943D01*
X32104057Y20495943D02*
X29945943Y20495943D01*
X33210000Y8299022D02*
X33210000Y7450000D01*
X24200000Y25000000D02*
X25000000Y25000000D01*
X24000000Y25200000D02*
X24200000Y25000000D01*
X38750000Y11250000D02*
X37250000Y9750000D01*
%TO.N,Net-(C21-Pad1)*%
X29250000Y12750000D02*
X28750000Y12250000D01*
X28750000Y12250000D02*
X27965000Y12250000D01*
X29200000Y11800000D02*
X29620000Y11800000D01*
X29620000Y12750000D02*
X29250000Y12750000D01*
X28750000Y12250000D02*
X29200000Y11800000D01*
X27965000Y12250000D02*
X27850000Y12135000D01*
%TO.N,/SNSR_MTN*%
X23150000Y24150000D02*
X23150000Y24750000D01*
X23000000Y24900000D02*
X23000000Y25000000D01*
X23150000Y24750000D02*
X23000000Y24900000D01*
D51*
%TO.N,/XTAL+*%
X24750000Y29500000D02*
X26750000Y29500000D01*
X24500000Y29250000D02*
X24750000Y29500000D01*
X26750000Y29500000D02*
X27300489Y30050489D01*
X24500000Y29000000D02*
X24500000Y29250000D01*
X28300489Y30050489D02*
X29780489Y30050489D01*
X29780489Y30050489D02*
X30250000Y30520000D01*
%TO.N,/XTAL-*%
X24442076Y28500000D02*
X24105489Y28836587D01*
X24105489Y29349785D02*
X24605224Y29849520D01*
X26599520Y29849520D02*
X27100489Y30350489D01*
X24105489Y28836587D02*
X24105489Y29349785D01*
X24605224Y29849520D02*
X26599520Y29849520D01*
X27100489Y30350489D02*
X27100489Y31500489D01*
X24500000Y28500000D02*
X24442076Y28500000D01*
X27100489Y33060489D02*
X27540000Y33500000D01*
X27100489Y31500489D02*
X27100489Y33060489D01*
D50*
%TO.N,/ISP*%
X22500000Y22250000D02*
X22500000Y23000000D01*
%TO.N,Net-(D6-Pad2)*%
X32410000Y50800000D02*
X33515000Y50800000D01*
D52*
%TO.N,/DBG_VIN*%
X33250000Y3590000D02*
X33210000Y3550000D01*
X33250000Y5000000D02*
X33250000Y3590000D01*
%TD*%
M02*
