%TF.GenerationSoftware,KiCad,Pcbnew,6.0.0*%
%TF.CreationDate,2022-01-13T14:08:01-08:00*%
%TF.ProjectId,redshift,72656473-6869-4667-942e-6b696361645f,0.1*%
%TF.SameCoordinates,Original*%
%TF.FileFunction,Legend,Top*%
%TF.FilePolarity,Positive*%
%FSLAX46Y46*%
G04 Gerber Fmt 4.6, Leading zero omitted, Abs format (unit mm)*
G04 Created by KiCad (PCBNEW 6.0.0) date 2022-01-13 14:08:01*
%MOMM*%
%LPD*%
G01*
G04 APERTURE LIST*
%ADD10C,0.150000*%
%ADD11C,0.125000*%
%ADD12C,0.120000*%
%ADD13C,0.100000*%
%ADD14C,0.200000*%
%ADD15C,0.127000*%
G04 APERTURE END LIST*
D10*
%TO.C,R6*%
X144833333Y-97452380D02*
X144500000Y-96976190D01*
X144261904Y-97452380D02*
X144261904Y-96452380D01*
X144642857Y-96452380D01*
X144738095Y-96500000D01*
X144785714Y-96547619D01*
X144833333Y-96642857D01*
X144833333Y-96785714D01*
X144785714Y-96880952D01*
X144738095Y-96928571D01*
X144642857Y-96976190D01*
X144261904Y-96976190D01*
X145690476Y-96452380D02*
X145500000Y-96452380D01*
X145404761Y-96500000D01*
X145357142Y-96547619D01*
X145261904Y-96690476D01*
X145214285Y-96880952D01*
X145214285Y-97261904D01*
X145261904Y-97357142D01*
X145309523Y-97404761D01*
X145404761Y-97452380D01*
X145595238Y-97452380D01*
X145690476Y-97404761D01*
X145738095Y-97357142D01*
X145785714Y-97261904D01*
X145785714Y-97023809D01*
X145738095Y-96928571D01*
X145690476Y-96880952D01*
X145595238Y-96833333D01*
X145404761Y-96833333D01*
X145309523Y-96880952D01*
X145261904Y-96928571D01*
X145214285Y-97023809D01*
%TO.C,C24*%
X145127142Y-92857142D02*
X145079523Y-92904761D01*
X144936666Y-92952380D01*
X144841428Y-92952380D01*
X144698571Y-92904761D01*
X144603333Y-92809523D01*
X144555714Y-92714285D01*
X144508095Y-92523809D01*
X144508095Y-92380952D01*
X144555714Y-92190476D01*
X144603333Y-92095238D01*
X144698571Y-92000000D01*
X144841428Y-91952380D01*
X144936666Y-91952380D01*
X145079523Y-92000000D01*
X145127142Y-92047619D01*
X145508095Y-92047619D02*
X145555714Y-92000000D01*
X145650952Y-91952380D01*
X145889047Y-91952380D01*
X145984285Y-92000000D01*
X146031904Y-92047619D01*
X146079523Y-92142857D01*
X146079523Y-92238095D01*
X146031904Y-92380952D01*
X145460476Y-92952380D01*
X146079523Y-92952380D01*
X146936666Y-92285714D02*
X146936666Y-92952380D01*
X146698571Y-91904761D02*
X146460476Y-92619047D01*
X147079523Y-92619047D01*
D11*
%TO.C,C11*%
X128857142Y-91178571D02*
X128809523Y-91202380D01*
X128666666Y-91226190D01*
X128571428Y-91226190D01*
X128428571Y-91202380D01*
X128333333Y-91154761D01*
X128285714Y-91107142D01*
X128238095Y-91011904D01*
X128238095Y-90940476D01*
X128285714Y-90845238D01*
X128333333Y-90797619D01*
X128428571Y-90750000D01*
X128571428Y-90726190D01*
X128666666Y-90726190D01*
X128809523Y-90750000D01*
X128857142Y-90773809D01*
X129809523Y-91226190D02*
X129238095Y-91226190D01*
X129523809Y-91226190D02*
X129523809Y-90726190D01*
X129428571Y-90797619D01*
X129333333Y-90845238D01*
X129238095Y-90869047D01*
X130761904Y-91226190D02*
X130190476Y-91226190D01*
X130476190Y-91226190D02*
X130476190Y-90726190D01*
X130380952Y-90797619D01*
X130285714Y-90845238D01*
X130190476Y-90869047D01*
%TO.C,C13*%
X128857142Y-89178571D02*
X128809523Y-89202380D01*
X128666666Y-89226190D01*
X128571428Y-89226190D01*
X128428571Y-89202380D01*
X128333333Y-89154761D01*
X128285714Y-89107142D01*
X128238095Y-89011904D01*
X128238095Y-88940476D01*
X128285714Y-88845238D01*
X128333333Y-88797619D01*
X128428571Y-88750000D01*
X128571428Y-88726190D01*
X128666666Y-88726190D01*
X128809523Y-88750000D01*
X128857142Y-88773809D01*
X129809523Y-89226190D02*
X129238095Y-89226190D01*
X129523809Y-89226190D02*
X129523809Y-88726190D01*
X129428571Y-88797619D01*
X129333333Y-88845238D01*
X129238095Y-88869047D01*
X130142857Y-88726190D02*
X130761904Y-88726190D01*
X130428571Y-88916666D01*
X130571428Y-88916666D01*
X130666666Y-88940476D01*
X130714285Y-88964285D01*
X130761904Y-89011904D01*
X130761904Y-89130952D01*
X130714285Y-89178571D01*
X130666666Y-89202380D01*
X130571428Y-89226190D01*
X130285714Y-89226190D01*
X130190476Y-89202380D01*
X130142857Y-89178571D01*
D10*
%TO.C,ENC1*%
X123848571Y-79714285D02*
X123848571Y-79380952D01*
X124372380Y-79238095D02*
X124372380Y-79714285D01*
X123372380Y-79714285D01*
X123372380Y-79238095D01*
X124372380Y-78809523D02*
X123372380Y-78809523D01*
X124372380Y-78238095D01*
X123372380Y-78238095D01*
X124277142Y-77190476D02*
X124324761Y-77238095D01*
X124372380Y-77380952D01*
X124372380Y-77476190D01*
X124324761Y-77619047D01*
X124229523Y-77714285D01*
X124134285Y-77761904D01*
X123943809Y-77809523D01*
X123800952Y-77809523D01*
X123610476Y-77761904D01*
X123515238Y-77714285D01*
X123420000Y-77619047D01*
X123372380Y-77476190D01*
X123372380Y-77380952D01*
X123420000Y-77238095D01*
X123467619Y-77190476D01*
X124372380Y-76238095D02*
X124372380Y-76809523D01*
X124372380Y-76523809D02*
X123372380Y-76523809D01*
X123515238Y-76619047D01*
X123610476Y-76714285D01*
X123658095Y-76809523D01*
%TO.C,C14*%
X130107142Y-87142857D02*
X130154761Y-87190476D01*
X130202380Y-87333333D01*
X130202380Y-87428571D01*
X130154761Y-87571428D01*
X130059523Y-87666666D01*
X129964285Y-87714285D01*
X129773809Y-87761904D01*
X129630952Y-87761904D01*
X129440476Y-87714285D01*
X129345238Y-87666666D01*
X129250000Y-87571428D01*
X129202380Y-87428571D01*
X129202380Y-87333333D01*
X129250000Y-87190476D01*
X129297619Y-87142857D01*
X130202380Y-86190476D02*
X130202380Y-86761904D01*
X130202380Y-86476190D02*
X129202380Y-86476190D01*
X129345238Y-86571428D01*
X129440476Y-86666666D01*
X129488095Y-86761904D01*
X129535714Y-85333333D02*
X130202380Y-85333333D01*
X129154761Y-85571428D02*
X129869047Y-85809523D01*
X129869047Y-85190476D01*
%TO.C,C20*%
X149857142Y-109517857D02*
X149809523Y-109553571D01*
X149666666Y-109589285D01*
X149571428Y-109589285D01*
X149428571Y-109553571D01*
X149333333Y-109482142D01*
X149285714Y-109410714D01*
X149238095Y-109267857D01*
X149238095Y-109160714D01*
X149285714Y-109017857D01*
X149333333Y-108946428D01*
X149428571Y-108875000D01*
X149571428Y-108839285D01*
X149666666Y-108839285D01*
X149809523Y-108875000D01*
X149857142Y-108910714D01*
X150238095Y-108910714D02*
X150285714Y-108875000D01*
X150380952Y-108839285D01*
X150619047Y-108839285D01*
X150714285Y-108875000D01*
X150761904Y-108910714D01*
X150809523Y-108982142D01*
X150809523Y-109053571D01*
X150761904Y-109160714D01*
X150190476Y-109589285D01*
X150809523Y-109589285D01*
X151428571Y-108839285D02*
X151523809Y-108839285D01*
X151619047Y-108875000D01*
X151666666Y-108910714D01*
X151714285Y-108982142D01*
X151761904Y-109125000D01*
X151761904Y-109303571D01*
X151714285Y-109446428D01*
X151666666Y-109517857D01*
X151619047Y-109553571D01*
X151523809Y-109589285D01*
X151428571Y-109589285D01*
X151333333Y-109553571D01*
X151285714Y-109517857D01*
X151238095Y-109446428D01*
X151190476Y-109303571D01*
X151190476Y-109125000D01*
X151238095Y-108982142D01*
X151285714Y-108910714D01*
X151333333Y-108875000D01*
X151428571Y-108839285D01*
%TO.C,D3*%
X144511904Y-94202380D02*
X144511904Y-93202380D01*
X144750000Y-93202380D01*
X144892857Y-93250000D01*
X144988095Y-93345238D01*
X145035714Y-93440476D01*
X145083333Y-93630952D01*
X145083333Y-93773809D01*
X145035714Y-93964285D01*
X144988095Y-94059523D01*
X144892857Y-94154761D01*
X144750000Y-94202380D01*
X144511904Y-94202380D01*
X145416666Y-93202380D02*
X146035714Y-93202380D01*
X145702380Y-93583333D01*
X145845238Y-93583333D01*
X145940476Y-93630952D01*
X145988095Y-93678571D01*
X146035714Y-93773809D01*
X146035714Y-94011904D01*
X145988095Y-94107142D01*
X145940476Y-94154761D01*
X145845238Y-94202380D01*
X145559523Y-94202380D01*
X145464285Y-94154761D01*
X145416666Y-94107142D01*
%TO.C,J1*%
X137166666Y-56452380D02*
X137166666Y-57166666D01*
X137119047Y-57309523D01*
X137023809Y-57404761D01*
X136880952Y-57452380D01*
X136785714Y-57452380D01*
X138166666Y-57452380D02*
X137595238Y-57452380D01*
X137880952Y-57452380D02*
X137880952Y-56452380D01*
X137785714Y-56595238D01*
X137690476Y-56690476D01*
X137595238Y-56738095D01*
%TO.C,L1*%
X132333333Y-85452380D02*
X131857142Y-85452380D01*
X131857142Y-84452380D01*
X133190476Y-85452380D02*
X132619047Y-85452380D01*
X132904761Y-85452380D02*
X132904761Y-84452380D01*
X132809523Y-84595238D01*
X132714285Y-84690476D01*
X132619047Y-84738095D01*
%TO.C,D4*%
X142261904Y-97452380D02*
X142261904Y-96452380D01*
X142500000Y-96452380D01*
X142642857Y-96500000D01*
X142738095Y-96595238D01*
X142785714Y-96690476D01*
X142833333Y-96880952D01*
X142833333Y-97023809D01*
X142785714Y-97214285D01*
X142738095Y-97309523D01*
X142642857Y-97404761D01*
X142500000Y-97452380D01*
X142261904Y-97452380D01*
X143690476Y-96785714D02*
X143690476Y-97452380D01*
X143452380Y-96404761D02*
X143214285Y-97119047D01*
X143833333Y-97119047D01*
D11*
%TO.C,C4*%
X135813333Y-99178571D02*
X135765714Y-99202380D01*
X135622857Y-99226190D01*
X135527619Y-99226190D01*
X135384761Y-99202380D01*
X135289523Y-99154761D01*
X135241904Y-99107142D01*
X135194285Y-99011904D01*
X135194285Y-98940476D01*
X135241904Y-98845238D01*
X135289523Y-98797619D01*
X135384761Y-98750000D01*
X135527619Y-98726190D01*
X135622857Y-98726190D01*
X135765714Y-98750000D01*
X135813333Y-98773809D01*
X136670476Y-98892857D02*
X136670476Y-99226190D01*
X136432380Y-98702380D02*
X136194285Y-99059523D01*
X136813333Y-99059523D01*
D10*
%TO.C,R4*%
X125833333Y-89702380D02*
X125500000Y-89226190D01*
X125261904Y-89702380D02*
X125261904Y-88702380D01*
X125642857Y-88702380D01*
X125738095Y-88750000D01*
X125785714Y-88797619D01*
X125833333Y-88892857D01*
X125833333Y-89035714D01*
X125785714Y-89130952D01*
X125738095Y-89178571D01*
X125642857Y-89226190D01*
X125261904Y-89226190D01*
X126690476Y-89035714D02*
X126690476Y-89702380D01*
X126452380Y-88654761D02*
X126214285Y-89369047D01*
X126833333Y-89369047D01*
%TO.C,C6*%
X142833333Y-89857142D02*
X142785714Y-89904761D01*
X142642857Y-89952380D01*
X142547619Y-89952380D01*
X142404761Y-89904761D01*
X142309523Y-89809523D01*
X142261904Y-89714285D01*
X142214285Y-89523809D01*
X142214285Y-89380952D01*
X142261904Y-89190476D01*
X142309523Y-89095238D01*
X142404761Y-89000000D01*
X142547619Y-88952380D01*
X142642857Y-88952380D01*
X142785714Y-89000000D01*
X142833333Y-89047619D01*
X143690476Y-88952380D02*
X143500000Y-88952380D01*
X143404761Y-89000000D01*
X143357142Y-89047619D01*
X143261904Y-89190476D01*
X143214285Y-89380952D01*
X143214285Y-89761904D01*
X143261904Y-89857142D01*
X143309523Y-89904761D01*
X143404761Y-89952380D01*
X143595238Y-89952380D01*
X143690476Y-89904761D01*
X143738095Y-89857142D01*
X143785714Y-89761904D01*
X143785714Y-89523809D01*
X143738095Y-89428571D01*
X143690476Y-89380952D01*
X143595238Y-89333333D01*
X143404761Y-89333333D01*
X143309523Y-89380952D01*
X143261904Y-89428571D01*
X143214285Y-89523809D01*
%TO.C,D5*%
X128290401Y-110500671D02*
X128290401Y-109500671D01*
X128528497Y-109500671D01*
X128671354Y-109548291D01*
X128766592Y-109643529D01*
X128814211Y-109738767D01*
X128861830Y-109929243D01*
X128861830Y-110072100D01*
X128814211Y-110262576D01*
X128766592Y-110357814D01*
X128671354Y-110453052D01*
X128528497Y-110500671D01*
X128290401Y-110500671D01*
X129766592Y-109500671D02*
X129290401Y-109500671D01*
X129242782Y-109976862D01*
X129290401Y-109929243D01*
X129385639Y-109881624D01*
X129623735Y-109881624D01*
X129718973Y-109929243D01*
X129766592Y-109976862D01*
X129814211Y-110072100D01*
X129814211Y-110310195D01*
X129766592Y-110405433D01*
X129718973Y-110453052D01*
X129623735Y-110500671D01*
X129385639Y-110500671D01*
X129290401Y-110453052D01*
X129242782Y-110405433D01*
D11*
%TO.C,C12*%
X128857142Y-90178571D02*
X128809523Y-90202380D01*
X128666666Y-90226190D01*
X128571428Y-90226190D01*
X128428571Y-90202380D01*
X128333333Y-90154761D01*
X128285714Y-90107142D01*
X128238095Y-90011904D01*
X128238095Y-89940476D01*
X128285714Y-89845238D01*
X128333333Y-89797619D01*
X128428571Y-89750000D01*
X128571428Y-89726190D01*
X128666666Y-89726190D01*
X128809523Y-89750000D01*
X128857142Y-89773809D01*
X129809523Y-90226190D02*
X129238095Y-90226190D01*
X129523809Y-90226190D02*
X129523809Y-89726190D01*
X129428571Y-89797619D01*
X129333333Y-89845238D01*
X129238095Y-89869047D01*
X130190476Y-89773809D02*
X130238095Y-89750000D01*
X130333333Y-89726190D01*
X130571428Y-89726190D01*
X130666666Y-89750000D01*
X130714285Y-89773809D01*
X130761904Y-89821428D01*
X130761904Y-89869047D01*
X130714285Y-89940476D01*
X130142857Y-90226190D01*
X130761904Y-90226190D01*
D10*
%TO.C,C22*%
X149857142Y-106517857D02*
X149809523Y-106553571D01*
X149666666Y-106589285D01*
X149571428Y-106589285D01*
X149428571Y-106553571D01*
X149333333Y-106482142D01*
X149285714Y-106410714D01*
X149238095Y-106267857D01*
X149238095Y-106160714D01*
X149285714Y-106017857D01*
X149333333Y-105946428D01*
X149428571Y-105875000D01*
X149571428Y-105839285D01*
X149666666Y-105839285D01*
X149809523Y-105875000D01*
X149857142Y-105910714D01*
X150238095Y-105910714D02*
X150285714Y-105875000D01*
X150380952Y-105839285D01*
X150619047Y-105839285D01*
X150714285Y-105875000D01*
X150761904Y-105910714D01*
X150809523Y-105982142D01*
X150809523Y-106053571D01*
X150761904Y-106160714D01*
X150190476Y-106589285D01*
X150809523Y-106589285D01*
X151190476Y-105910714D02*
X151238095Y-105875000D01*
X151333333Y-105839285D01*
X151571428Y-105839285D01*
X151666666Y-105875000D01*
X151714285Y-105910714D01*
X151761904Y-105982142D01*
X151761904Y-106053571D01*
X151714285Y-106160714D01*
X151142857Y-106589285D01*
X151761904Y-106589285D01*
%TO.C,D2*%
X123261904Y-89782380D02*
X123261904Y-88782380D01*
X123500000Y-88782380D01*
X123642857Y-88830000D01*
X123738095Y-88925238D01*
X123785714Y-89020476D01*
X123833333Y-89210952D01*
X123833333Y-89353809D01*
X123785714Y-89544285D01*
X123738095Y-89639523D01*
X123642857Y-89734761D01*
X123500000Y-89782380D01*
X123261904Y-89782380D01*
X124214285Y-88877619D02*
X124261904Y-88830000D01*
X124357142Y-88782380D01*
X124595238Y-88782380D01*
X124690476Y-88830000D01*
X124738095Y-88877619D01*
X124785714Y-88972857D01*
X124785714Y-89068095D01*
X124738095Y-89210952D01*
X124166666Y-89782380D01*
X124785714Y-89782380D01*
%TO.C,SW3*%
X147666666Y-88404761D02*
X147809523Y-88452380D01*
X148047619Y-88452380D01*
X148142857Y-88404761D01*
X148190476Y-88357142D01*
X148238095Y-88261904D01*
X148238095Y-88166666D01*
X148190476Y-88071428D01*
X148142857Y-88023809D01*
X148047619Y-87976190D01*
X147857142Y-87928571D01*
X147761904Y-87880952D01*
X147714285Y-87833333D01*
X147666666Y-87738095D01*
X147666666Y-87642857D01*
X147714285Y-87547619D01*
X147761904Y-87500000D01*
X147857142Y-87452380D01*
X148095238Y-87452380D01*
X148238095Y-87500000D01*
X148571428Y-87452380D02*
X148809523Y-88452380D01*
X149000000Y-87738095D01*
X149190476Y-88452380D01*
X149428571Y-87452380D01*
X149714285Y-87452380D02*
X150333333Y-87452380D01*
X150000000Y-87833333D01*
X150142857Y-87833333D01*
X150238095Y-87880952D01*
X150285714Y-87928571D01*
X150333333Y-88023809D01*
X150333333Y-88261904D01*
X150285714Y-88357142D01*
X150238095Y-88404761D01*
X150142857Y-88452380D01*
X149857142Y-88452380D01*
X149761904Y-88404761D01*
X149714285Y-88357142D01*
D11*
%TO.C,C3*%
X133725497Y-99178571D02*
X133677878Y-99202380D01*
X133535021Y-99226190D01*
X133439783Y-99226190D01*
X133296925Y-99202380D01*
X133201687Y-99154761D01*
X133154068Y-99107142D01*
X133106449Y-99011904D01*
X133106449Y-98940476D01*
X133154068Y-98845238D01*
X133201687Y-98797619D01*
X133296925Y-98750000D01*
X133439783Y-98726190D01*
X133535021Y-98726190D01*
X133677878Y-98750000D01*
X133725497Y-98773809D01*
X134058830Y-98726190D02*
X134677878Y-98726190D01*
X134344544Y-98916666D01*
X134487402Y-98916666D01*
X134582640Y-98940476D01*
X134630259Y-98964285D01*
X134677878Y-99011904D01*
X134677878Y-99130952D01*
X134630259Y-99178571D01*
X134582640Y-99202380D01*
X134487402Y-99226190D01*
X134201687Y-99226190D01*
X134106449Y-99202380D01*
X134058830Y-99178571D01*
D10*
%TO.C,R7*%
X126823333Y-110532380D02*
X126490000Y-110056190D01*
X126251904Y-110532380D02*
X126251904Y-109532380D01*
X126632857Y-109532380D01*
X126728095Y-109580000D01*
X126775714Y-109627619D01*
X126823333Y-109722857D01*
X126823333Y-109865714D01*
X126775714Y-109960952D01*
X126728095Y-110008571D01*
X126632857Y-110056190D01*
X126251904Y-110056190D01*
X127156666Y-109532380D02*
X127823333Y-109532380D01*
X127394761Y-110532380D01*
D11*
%TO.C,C17*%
X146857142Y-103267857D02*
X146809523Y-103303571D01*
X146666666Y-103339285D01*
X146571428Y-103339285D01*
X146428571Y-103303571D01*
X146333333Y-103232142D01*
X146285714Y-103160714D01*
X146238095Y-103017857D01*
X146238095Y-102910714D01*
X146285714Y-102767857D01*
X146333333Y-102696428D01*
X146428571Y-102625000D01*
X146571428Y-102589285D01*
X146666666Y-102589285D01*
X146809523Y-102625000D01*
X146857142Y-102660714D01*
X147809523Y-103339285D02*
X147238095Y-103339285D01*
X147523809Y-103339285D02*
X147523809Y-102589285D01*
X147428571Y-102696428D01*
X147333333Y-102767857D01*
X147238095Y-102803571D01*
X148142857Y-102589285D02*
X148809523Y-102589285D01*
X148380952Y-103339285D01*
%TO.C,C5*%
X137813333Y-99178571D02*
X137765714Y-99202380D01*
X137622857Y-99226190D01*
X137527619Y-99226190D01*
X137384761Y-99202380D01*
X137289523Y-99154761D01*
X137241904Y-99107142D01*
X137194285Y-99011904D01*
X137194285Y-98940476D01*
X137241904Y-98845238D01*
X137289523Y-98797619D01*
X137384761Y-98750000D01*
X137527619Y-98726190D01*
X137622857Y-98726190D01*
X137765714Y-98750000D01*
X137813333Y-98773809D01*
X138718095Y-98726190D02*
X138241904Y-98726190D01*
X138194285Y-98964285D01*
X138241904Y-98940476D01*
X138337142Y-98916666D01*
X138575238Y-98916666D01*
X138670476Y-98940476D01*
X138718095Y-98964285D01*
X138765714Y-99011904D01*
X138765714Y-99130952D01*
X138718095Y-99178571D01*
X138670476Y-99202380D01*
X138575238Y-99226190D01*
X138337142Y-99226190D01*
X138241904Y-99202380D01*
X138194285Y-99178571D01*
D10*
%TO.C,C16*%
X145127142Y-91607142D02*
X145079523Y-91654761D01*
X144936666Y-91702380D01*
X144841428Y-91702380D01*
X144698571Y-91654761D01*
X144603333Y-91559523D01*
X144555714Y-91464285D01*
X144508095Y-91273809D01*
X144508095Y-91130952D01*
X144555714Y-90940476D01*
X144603333Y-90845238D01*
X144698571Y-90750000D01*
X144841428Y-90702380D01*
X144936666Y-90702380D01*
X145079523Y-90750000D01*
X145127142Y-90797619D01*
X146079523Y-91702380D02*
X145508095Y-91702380D01*
X145793809Y-91702380D02*
X145793809Y-90702380D01*
X145698571Y-90845238D01*
X145603333Y-90940476D01*
X145508095Y-90988095D01*
X146936666Y-90702380D02*
X146746190Y-90702380D01*
X146650952Y-90750000D01*
X146603333Y-90797619D01*
X146508095Y-90940476D01*
X146460476Y-91130952D01*
X146460476Y-91511904D01*
X146508095Y-91607142D01*
X146555714Y-91654761D01*
X146650952Y-91702380D01*
X146841428Y-91702380D01*
X146936666Y-91654761D01*
X146984285Y-91607142D01*
X147031904Y-91511904D01*
X147031904Y-91273809D01*
X146984285Y-91178571D01*
X146936666Y-91130952D01*
X146841428Y-91083333D01*
X146650952Y-91083333D01*
X146555714Y-91130952D01*
X146508095Y-91178571D01*
X146460476Y-91273809D01*
%TO.C,R8*%
X129583333Y-104782380D02*
X129250000Y-104306190D01*
X129011904Y-104782380D02*
X129011904Y-103782380D01*
X129392857Y-103782380D01*
X129488095Y-103830000D01*
X129535714Y-103877619D01*
X129583333Y-103972857D01*
X129583333Y-104115714D01*
X129535714Y-104210952D01*
X129488095Y-104258571D01*
X129392857Y-104306190D01*
X129011904Y-104306190D01*
X130154761Y-104210952D02*
X130059523Y-104163333D01*
X130011904Y-104115714D01*
X129964285Y-104020476D01*
X129964285Y-103972857D01*
X130011904Y-103877619D01*
X130059523Y-103830000D01*
X130154761Y-103782380D01*
X130345238Y-103782380D01*
X130440476Y-103830000D01*
X130488095Y-103877619D01*
X130535714Y-103972857D01*
X130535714Y-104020476D01*
X130488095Y-104115714D01*
X130440476Y-104163333D01*
X130345238Y-104210952D01*
X130154761Y-104210952D01*
X130059523Y-104258571D01*
X130011904Y-104306190D01*
X129964285Y-104401428D01*
X129964285Y-104591904D01*
X130011904Y-104687142D01*
X130059523Y-104734761D01*
X130154761Y-104782380D01*
X130345238Y-104782380D01*
X130440476Y-104734761D01*
X130488095Y-104687142D01*
X130535714Y-104591904D01*
X130535714Y-104401428D01*
X130488095Y-104306190D01*
X130440476Y-104258571D01*
X130345238Y-104210952D01*
%TO.C,J2*%
X122902380Y-96583333D02*
X123616666Y-96583333D01*
X123759523Y-96630952D01*
X123854761Y-96726190D01*
X123902380Y-96869047D01*
X123902380Y-96964285D01*
X122997619Y-96154761D02*
X122950000Y-96107142D01*
X122902380Y-96011904D01*
X122902380Y-95773809D01*
X122950000Y-95678571D01*
X122997619Y-95630952D01*
X123092857Y-95583333D01*
X123188095Y-95583333D01*
X123330952Y-95630952D01*
X123902380Y-96202380D01*
X123902380Y-95583333D01*
%TO.C,J3*%
X157416666Y-97892380D02*
X157416666Y-98606666D01*
X157369047Y-98749523D01*
X157273809Y-98844761D01*
X157130952Y-98892380D01*
X157035714Y-98892380D01*
X157797619Y-97892380D02*
X158416666Y-97892380D01*
X158083333Y-98273333D01*
X158226190Y-98273333D01*
X158321428Y-98320952D01*
X158369047Y-98368571D01*
X158416666Y-98463809D01*
X158416666Y-98701904D01*
X158369047Y-98797142D01*
X158321428Y-98844761D01*
X158226190Y-98892380D01*
X157940476Y-98892380D01*
X157845238Y-98844761D01*
X157797619Y-98797142D01*
%TO.C,C18*%
X146857142Y-104267857D02*
X146809523Y-104303571D01*
X146666666Y-104339285D01*
X146571428Y-104339285D01*
X146428571Y-104303571D01*
X146333333Y-104232142D01*
X146285714Y-104160714D01*
X146238095Y-104017857D01*
X146238095Y-103910714D01*
X146285714Y-103767857D01*
X146333333Y-103696428D01*
X146428571Y-103625000D01*
X146571428Y-103589285D01*
X146666666Y-103589285D01*
X146809523Y-103625000D01*
X146857142Y-103660714D01*
X147809523Y-104339285D02*
X147238095Y-104339285D01*
X147523809Y-104339285D02*
X147523809Y-103589285D01*
X147428571Y-103696428D01*
X147333333Y-103767857D01*
X147238095Y-103803571D01*
X148380952Y-103910714D02*
X148285714Y-103875000D01*
X148238095Y-103839285D01*
X148190476Y-103767857D01*
X148190476Y-103732142D01*
X148238095Y-103660714D01*
X148285714Y-103625000D01*
X148380952Y-103589285D01*
X148571428Y-103589285D01*
X148666666Y-103625000D01*
X148714285Y-103660714D01*
X148761904Y-103732142D01*
X148761904Y-103767857D01*
X148714285Y-103839285D01*
X148666666Y-103875000D01*
X148571428Y-103910714D01*
X148380952Y-103910714D01*
X148285714Y-103946428D01*
X148238095Y-103982142D01*
X148190476Y-104053571D01*
X148190476Y-104196428D01*
X148238095Y-104267857D01*
X148285714Y-104303571D01*
X148380952Y-104339285D01*
X148571428Y-104339285D01*
X148666666Y-104303571D01*
X148714285Y-104267857D01*
X148761904Y-104196428D01*
X148761904Y-104053571D01*
X148714285Y-103982142D01*
X148666666Y-103946428D01*
X148571428Y-103910714D01*
%TO.C,R5*%
X147083333Y-94202380D02*
X146750000Y-93726190D01*
X146511904Y-94202380D02*
X146511904Y-93202380D01*
X146892857Y-93202380D01*
X146988095Y-93250000D01*
X147035714Y-93297619D01*
X147083333Y-93392857D01*
X147083333Y-93535714D01*
X147035714Y-93630952D01*
X146988095Y-93678571D01*
X146892857Y-93726190D01*
X146511904Y-93726190D01*
X147988095Y-93202380D02*
X147511904Y-93202380D01*
X147464285Y-93678571D01*
X147511904Y-93630952D01*
X147607142Y-93583333D01*
X147845238Y-93583333D01*
X147940476Y-93630952D01*
X147988095Y-93678571D01*
X148035714Y-93773809D01*
X148035714Y-94011904D01*
X147988095Y-94107142D01*
X147940476Y-94154761D01*
X147845238Y-94202380D01*
X147607142Y-94202380D01*
X147511904Y-94154761D01*
X147464285Y-94107142D01*
%TO.C,U1*%
X136738095Y-117247380D02*
X136738095Y-118056904D01*
X136785714Y-118152142D01*
X136833333Y-118199761D01*
X136928571Y-118247380D01*
X137119047Y-118247380D01*
X137214285Y-118199761D01*
X137261904Y-118152142D01*
X137309523Y-118056904D01*
X137309523Y-117247380D01*
X138309523Y-118247380D02*
X137738095Y-118247380D01*
X138023809Y-118247380D02*
X138023809Y-117247380D01*
X137928571Y-117390238D01*
X137833333Y-117485476D01*
X137738095Y-117533095D01*
%TO.C,C19*%
X149857142Y-108517857D02*
X149809523Y-108553571D01*
X149666666Y-108589285D01*
X149571428Y-108589285D01*
X149428571Y-108553571D01*
X149333333Y-108482142D01*
X149285714Y-108410714D01*
X149238095Y-108267857D01*
X149238095Y-108160714D01*
X149285714Y-108017857D01*
X149333333Y-107946428D01*
X149428571Y-107875000D01*
X149571428Y-107839285D01*
X149666666Y-107839285D01*
X149809523Y-107875000D01*
X149857142Y-107910714D01*
X150809523Y-108589285D02*
X150238095Y-108589285D01*
X150523809Y-108589285D02*
X150523809Y-107839285D01*
X150428571Y-107946428D01*
X150333333Y-108017857D01*
X150238095Y-108053571D01*
X151285714Y-108589285D02*
X151476190Y-108589285D01*
X151571428Y-108553571D01*
X151619047Y-108517857D01*
X151714285Y-108410714D01*
X151761904Y-108267857D01*
X151761904Y-107982142D01*
X151714285Y-107910714D01*
X151666666Y-107875000D01*
X151571428Y-107839285D01*
X151380952Y-107839285D01*
X151285714Y-107875000D01*
X151238095Y-107910714D01*
X151190476Y-107982142D01*
X151190476Y-108160714D01*
X151238095Y-108232142D01*
X151285714Y-108267857D01*
X151380952Y-108303571D01*
X151571428Y-108303571D01*
X151666666Y-108267857D01*
X151714285Y-108232142D01*
X151761904Y-108160714D01*
%TO.C,SW2*%
X154666666Y-86404761D02*
X154809523Y-86452380D01*
X155047619Y-86452380D01*
X155142857Y-86404761D01*
X155190476Y-86357142D01*
X155238095Y-86261904D01*
X155238095Y-86166666D01*
X155190476Y-86071428D01*
X155142857Y-86023809D01*
X155047619Y-85976190D01*
X154857142Y-85928571D01*
X154761904Y-85880952D01*
X154714285Y-85833333D01*
X154666666Y-85738095D01*
X154666666Y-85642857D01*
X154714285Y-85547619D01*
X154761904Y-85500000D01*
X154857142Y-85452380D01*
X155095238Y-85452380D01*
X155238095Y-85500000D01*
X155571428Y-85452380D02*
X155809523Y-86452380D01*
X156000000Y-85738095D01*
X156190476Y-86452380D01*
X156428571Y-85452380D01*
X156761904Y-85547619D02*
X156809523Y-85500000D01*
X156904761Y-85452380D01*
X157142857Y-85452380D01*
X157238095Y-85500000D01*
X157285714Y-85547619D01*
X157333333Y-85642857D01*
X157333333Y-85738095D01*
X157285714Y-85880952D01*
X156714285Y-86452380D01*
X157333333Y-86452380D01*
%TO.C,C21*%
X149857142Y-107517857D02*
X149809523Y-107553571D01*
X149666666Y-107589285D01*
X149571428Y-107589285D01*
X149428571Y-107553571D01*
X149333333Y-107482142D01*
X149285714Y-107410714D01*
X149238095Y-107267857D01*
X149238095Y-107160714D01*
X149285714Y-107017857D01*
X149333333Y-106946428D01*
X149428571Y-106875000D01*
X149571428Y-106839285D01*
X149666666Y-106839285D01*
X149809523Y-106875000D01*
X149857142Y-106910714D01*
X150238095Y-106910714D02*
X150285714Y-106875000D01*
X150380952Y-106839285D01*
X150619047Y-106839285D01*
X150714285Y-106875000D01*
X150761904Y-106910714D01*
X150809523Y-106982142D01*
X150809523Y-107053571D01*
X150761904Y-107160714D01*
X150190476Y-107589285D01*
X150809523Y-107589285D01*
X151761904Y-107589285D02*
X151190476Y-107589285D01*
X151476190Y-107589285D02*
X151476190Y-106839285D01*
X151380952Y-106946428D01*
X151285714Y-107017857D01*
X151190476Y-107053571D01*
%TO.C,SW1*%
X117666666Y-86404761D02*
X117809523Y-86452380D01*
X118047619Y-86452380D01*
X118142857Y-86404761D01*
X118190476Y-86357142D01*
X118238095Y-86261904D01*
X118238095Y-86166666D01*
X118190476Y-86071428D01*
X118142857Y-86023809D01*
X118047619Y-85976190D01*
X117857142Y-85928571D01*
X117761904Y-85880952D01*
X117714285Y-85833333D01*
X117666666Y-85738095D01*
X117666666Y-85642857D01*
X117714285Y-85547619D01*
X117761904Y-85500000D01*
X117857142Y-85452380D01*
X118095238Y-85452380D01*
X118238095Y-85500000D01*
X118571428Y-85452380D02*
X118809523Y-86452380D01*
X119000000Y-85738095D01*
X119190476Y-86452380D01*
X119428571Y-85452380D01*
X120333333Y-86452380D02*
X119761904Y-86452380D01*
X120047619Y-86452380D02*
X120047619Y-85452380D01*
X119952380Y-85595238D01*
X119857142Y-85690476D01*
X119761904Y-85738095D01*
D12*
%TO.C,R6*%
X145153641Y-96130000D02*
X144846359Y-96130000D01*
X145153641Y-95370000D02*
X144846359Y-95370000D01*
%TO.C,R12*%
X155403641Y-110120000D02*
X155096359Y-110120000D01*
X155403641Y-110880000D02*
X155096359Y-110880000D01*
%TO.C,C24*%
X143162164Y-93140000D02*
X143377836Y-93140000D01*
X143162164Y-93860000D02*
X143377836Y-93860000D01*
%TO.C,C11*%
X132107836Y-91360000D02*
X131892164Y-91360000D01*
X132107836Y-90640000D02*
X131892164Y-90640000D01*
%TO.C,C13*%
X132107836Y-88640000D02*
X131892164Y-88640000D01*
X132107836Y-89360000D02*
X131892164Y-89360000D01*
%TO.C,C8*%
X139640000Y-66622164D02*
X139640000Y-66837836D01*
X140360000Y-66622164D02*
X140360000Y-66837836D01*
%TO.C,ENC1*%
X124680000Y-83020000D02*
X125480000Y-83020000D01*
X130070000Y-83020000D02*
X130070000Y-82020000D01*
X130070000Y-72980000D02*
X129070000Y-72980000D01*
X124680000Y-72980000D02*
X125480000Y-72980000D01*
X130070000Y-83020000D02*
X129070000Y-83020000D01*
X124680000Y-83020000D02*
X124680000Y-82020000D01*
X124680000Y-72980000D02*
X124680000Y-73980000D01*
X130070000Y-72980000D02*
X130070000Y-73980000D01*
%TO.C,C14*%
X131610000Y-86392164D02*
X131610000Y-86607836D01*
X130890000Y-86392164D02*
X130890000Y-86607836D01*
%TO.C,C20*%
X144642164Y-109610000D02*
X144857836Y-109610000D01*
X144642164Y-108890000D02*
X144857836Y-108890000D01*
D13*
%TO.C,D3*%
X141965000Y-94750000D02*
G75*
G03*
X141965000Y-94750000I-50000J0D01*
G01*
D14*
%TO.C,J1*%
X132710000Y-54400000D02*
X132710000Y-55680000D01*
X142290000Y-54400000D02*
X132710000Y-54400000D01*
X142290000Y-59650000D02*
X142290000Y-58400000D01*
X132710000Y-59650000D02*
X132710000Y-58400000D01*
X142290000Y-55680000D02*
X142290000Y-54400000D01*
D12*
%TO.C,L1*%
X133022500Y-87237258D02*
X133022500Y-86762742D01*
X131977500Y-87237258D02*
X131977500Y-86762742D01*
%TO.C,R11*%
X155403641Y-107120000D02*
X155096359Y-107120000D01*
X155403641Y-107880000D02*
X155096359Y-107880000D01*
D13*
%TO.C,D4*%
X141960000Y-95750000D02*
G75*
G03*
X141960000Y-95750000I-50000J0D01*
G01*
D12*
%TO.C,C2*%
X147622164Y-105590000D02*
X147837836Y-105590000D01*
X147622164Y-104870000D02*
X147837836Y-104870000D01*
%TO.C,U3*%
X147100000Y-106100000D02*
X148650000Y-106100000D01*
X148650000Y-107900000D02*
X147350000Y-107900000D01*
%TO.C,C4*%
X136087836Y-98360000D02*
X135872164Y-98360000D01*
X136087836Y-97640000D02*
X135872164Y-97640000D01*
%TO.C,R4*%
X126153641Y-90880000D02*
X125846359Y-90880000D01*
X126153641Y-90120000D02*
X125846359Y-90120000D01*
%TO.C,Y1*%
X142150000Y-88900000D02*
X144450000Y-88900000D01*
X144450000Y-88900000D02*
X144450000Y-86200000D01*
%TO.C,C1*%
X133140000Y-64642164D02*
X133140000Y-64857836D01*
X133860000Y-64642164D02*
X133860000Y-64857836D01*
%TO.C,C6*%
X142872164Y-90140000D02*
X143087836Y-90140000D01*
X142872164Y-90860000D02*
X143087836Y-90860000D01*
D13*
%TO.C,D5*%
X130140000Y-111250000D02*
G75*
G03*
X130140000Y-111250000I-50000J0D01*
G01*
D12*
%TO.C,C12*%
X132107836Y-89640000D02*
X131892164Y-89640000D01*
X132107836Y-90360000D02*
X131892164Y-90360000D01*
D15*
%TO.C,U4*%
X142625000Y-65930000D02*
X141375000Y-65930000D01*
X142625000Y-67570000D02*
X141375000Y-67570000D01*
D14*
X143575000Y-67150000D02*
G75*
G03*
X143575000Y-67150000I-100000J0D01*
G01*
D12*
%TO.C,C22*%
X144642164Y-105890000D02*
X144857836Y-105890000D01*
X144642164Y-106610000D02*
X144857836Y-106610000D01*
D13*
%TO.C,D2*%
X122960000Y-90500000D02*
G75*
G03*
X122960000Y-90500000I-50000J0D01*
G01*
D12*
%TO.C,SW3*%
X145980000Y-73480000D02*
X146980000Y-73480000D01*
X152020000Y-73480000D02*
X151020000Y-73480000D01*
X145980000Y-73480000D02*
X145980000Y-74480000D01*
X148100000Y-77500000D02*
X149900000Y-77500000D01*
X152020000Y-86520000D02*
X152020000Y-85520000D01*
X152020000Y-86520000D02*
X151020000Y-86520000D01*
X148100000Y-78600000D02*
X149900000Y-78600000D01*
X145980000Y-86520000D02*
X145980000Y-85520000D01*
X145980000Y-86520000D02*
X146980000Y-86520000D01*
X152020000Y-73480000D02*
X152020000Y-74480000D01*
X149900000Y-78600000D02*
G75*
G03*
X149900000Y-77500000I0J550000D01*
G01*
X148100000Y-77500000D02*
G75*
G03*
X148100000Y-78600000I0J-550000D01*
G01*
%TO.C,C9*%
X138642164Y-87640000D02*
X138857836Y-87640000D01*
X138642164Y-88360000D02*
X138857836Y-88360000D01*
%TO.C,R10*%
X155403641Y-106120000D02*
X155096359Y-106120000D01*
X155403641Y-106880000D02*
X155096359Y-106880000D01*
%TO.C,R1*%
X132880000Y-64596359D02*
X132880000Y-64903641D01*
X132120000Y-64596359D02*
X132120000Y-64903641D01*
%TO.C,C3*%
X134107836Y-98360000D02*
X133892164Y-98360000D01*
X134107836Y-97640000D02*
X133892164Y-97640000D01*
%TO.C,R7*%
X126836359Y-111630000D02*
X127143641Y-111630000D01*
X126836359Y-110870000D02*
X127143641Y-110870000D01*
%TO.C,R2*%
X139620000Y-63903641D02*
X139620000Y-63596359D01*
X140380000Y-63903641D02*
X140380000Y-63596359D01*
%TO.C,C17*%
X144857836Y-103360000D02*
X144642164Y-103360000D01*
X144857836Y-102640000D02*
X144642164Y-102640000D01*
%TO.C,C7*%
X147642164Y-109110000D02*
X147857836Y-109110000D01*
X147642164Y-108390000D02*
X147857836Y-108390000D01*
%TO.C,C5*%
X138087836Y-97640000D02*
X137872164Y-97640000D01*
X138087836Y-98360000D02*
X137872164Y-98360000D01*
%TO.C,C16*%
X143142164Y-92140000D02*
X143357836Y-92140000D01*
X143142164Y-92860000D02*
X143357836Y-92860000D01*
%TO.C,R8*%
X129596359Y-105120000D02*
X129903641Y-105120000D01*
X129596359Y-105880000D02*
X129903641Y-105880000D01*
%TO.C,J2*%
X126710000Y-99860000D02*
X127860000Y-99860000D01*
X127860000Y-99860000D02*
X127860000Y-98810000D01*
X124740000Y-98690000D02*
X124740000Y-93810000D01*
X126710000Y-92640000D02*
X127860000Y-92640000D01*
X127860000Y-92640000D02*
X127860000Y-93690000D01*
X127860000Y-98810000D02*
X128850000Y-98810000D01*
%TO.C,J3*%
X158810000Y-101500000D02*
X158810000Y-111560000D01*
X156690000Y-99440000D02*
X157750000Y-99440000D01*
X156690000Y-100500000D02*
X156690000Y-99440000D01*
X156690000Y-101500000D02*
X156690000Y-111560000D01*
X156690000Y-111560000D02*
X158810000Y-111560000D01*
X156690000Y-101500000D02*
X158810000Y-101500000D01*
%TO.C,R9*%
X155393641Y-105120000D02*
X155086359Y-105120000D01*
X155393641Y-105880000D02*
X155086359Y-105880000D01*
%TO.C,C18*%
X144857836Y-103640000D02*
X144642164Y-103640000D01*
X144857836Y-104360000D02*
X144642164Y-104360000D01*
%TO.C,R5*%
X145163641Y-94370000D02*
X144856359Y-94370000D01*
X145163641Y-95130000D02*
X144856359Y-95130000D01*
%TO.C,D1*%
X137196148Y-63501400D02*
X137804540Y-63501400D01*
X136801843Y-65375961D02*
X136801843Y-64624039D01*
X138198843Y-64624040D02*
X138198843Y-64969560D01*
X137804540Y-66498600D02*
X137196148Y-66498600D01*
%TO.C,U1*%
X142150000Y-115235000D02*
X143550000Y-115235000D01*
D14*
%TO.C,IC1*%
X140500000Y-96500000D02*
X134000000Y-96500000D01*
X134000000Y-96500000D02*
X134000000Y-89500000D01*
X141000000Y-96000000D02*
X140500000Y-96500000D01*
X141000000Y-89500000D02*
X141000000Y-96000000D01*
X134000000Y-89500000D02*
X141000000Y-89500000D01*
X141100000Y-96500000D02*
G75*
G03*
X141100000Y-96500000I-100000J0D01*
G01*
D12*
%TO.C,C19*%
X144642164Y-107890000D02*
X144857836Y-107890000D01*
X144642164Y-108610000D02*
X144857836Y-108610000D01*
%TO.C,SW2*%
X159020000Y-71480000D02*
X159020000Y-72480000D01*
X159020000Y-84520000D02*
X158020000Y-84520000D01*
X152980000Y-84520000D02*
X152980000Y-83520000D01*
X152980000Y-71480000D02*
X153980000Y-71480000D01*
X155100000Y-76600000D02*
X156900000Y-76600000D01*
X159020000Y-84520000D02*
X159020000Y-83520000D01*
X152980000Y-84520000D02*
X153980000Y-84520000D01*
X152980000Y-71480000D02*
X152980000Y-72480000D01*
X159020000Y-71480000D02*
X158020000Y-71480000D01*
X155100000Y-75500000D02*
X156900000Y-75500000D01*
X155100000Y-75500000D02*
G75*
G03*
X155100000Y-76600000I0J-550000D01*
G01*
X156900000Y-76600000D02*
G75*
G03*
X156900000Y-75500000I0J550000D01*
G01*
%TO.C,C21*%
X144662164Y-106890000D02*
X144877836Y-106890000D01*
X144662164Y-107610000D02*
X144877836Y-107610000D01*
%TO.C,C10*%
X143390000Y-66877836D02*
X143390000Y-66662164D01*
X144110000Y-66877836D02*
X144110000Y-66662164D01*
%TO.C,SW1*%
X115980000Y-71480000D02*
X116980000Y-71480000D01*
X115980000Y-84520000D02*
X116980000Y-84520000D01*
X115980000Y-84520000D02*
X115980000Y-83520000D01*
X122020000Y-84520000D02*
X122020000Y-83520000D01*
X118100000Y-75500000D02*
X119900000Y-75500000D01*
X115980000Y-71480000D02*
X115980000Y-72480000D01*
X122020000Y-71480000D02*
X122020000Y-72480000D01*
X122020000Y-84520000D02*
X121020000Y-84520000D01*
X118100000Y-76600000D02*
X119900000Y-76600000D01*
X122020000Y-71480000D02*
X121020000Y-71480000D01*
X118100000Y-75500000D02*
G75*
G03*
X118100000Y-76600000I0J-550000D01*
G01*
X119900000Y-76600000D02*
G75*
G03*
X119900000Y-75500000I0J550000D01*
G01*
%TO.C,R3*%
X134620000Y-63903641D02*
X134620000Y-63596359D01*
X135380000Y-63903641D02*
X135380000Y-63596359D01*
%TD*%
M02*
