%TF.GenerationSoftware,KiCad,Pcbnew,6.0.2+dfsg-1*%
%TF.CreationDate,2022-03-12T01:01:00-08:00*%
%TF.ProjectId,redshift,72656473-6869-4667-942e-6b696361645f,0.1*%
%TF.SameCoordinates,Original*%
%TF.FileFunction,Paste,Top*%
%TF.FilePolarity,Positive*%
%FSLAX46Y46*%
G04 Gerber Fmt 4.6, Leading zero omitted, Abs format (unit mm)*
G04 Created by KiCad (PCBNEW 6.0.2+dfsg-1) date 2022-03-12 01:01:00*
%MOMM*%
%LPD*%
G01*
G04 APERTURE LIST*
G04 Aperture macros list*
%AMRoundRect*
0 Rectangle with rounded corners*
0 $1 Rounding radius*
0 $2 $3 $4 $5 $6 $7 $8 $9 X,Y pos of 4 corners*
0 Add a 4 corners polygon primitive as box body*
4,1,4,$2,$3,$4,$5,$6,$7,$8,$9,$2,$3,0*
0 Add four circle primitives for the rounded corners*
1,1,$1+$1,$2,$3*
1,1,$1+$1,$4,$5*
1,1,$1+$1,$6,$7*
1,1,$1+$1,$8,$9*
0 Add four rect primitives between the rounded corners*
20,1,$1+$1,$2,$3,$4,$5,0*
20,1,$1+$1,$4,$5,$6,$7,0*
20,1,$1+$1,$6,$7,$8,$9,0*
20,1,$1+$1,$8,$9,$2,$3,0*%
G04 Aperture macros list end*
%ADD10C,0.010000*%
%ADD11RoundRect,0.135000X0.135000X0.185000X-0.135000X0.185000X-0.135000X-0.185000X0.135000X-0.185000X0*%
%ADD12RoundRect,0.147500X0.147500X0.172500X-0.147500X0.172500X-0.147500X-0.172500X0.147500X-0.172500X0*%
%ADD13RoundRect,0.140000X-0.140000X-0.170000X0.140000X-0.170000X0.140000X0.170000X-0.140000X0.170000X0*%
%ADD14RoundRect,0.140000X0.140000X0.170000X-0.140000X0.170000X-0.140000X-0.170000X0.140000X-0.170000X0*%
%ADD15RoundRect,0.140000X-0.170000X0.140000X-0.170000X-0.140000X0.170000X-0.140000X0.170000X0.140000X0*%
%ADD16RoundRect,0.147500X-0.147500X-0.172500X0.147500X-0.172500X0.147500X0.172500X-0.147500X0.172500X0*%
%ADD17R,0.600000X1.150000*%
%ADD18R,0.300000X1.150000*%
%ADD19RoundRect,0.200000X0.275000X-0.200000X0.275000X0.200000X-0.275000X0.200000X-0.275000X-0.200000X0*%
%ADD20R,0.300000X0.450000*%
%ADD21RoundRect,0.140000X0.170000X-0.140000X0.170000X0.140000X-0.170000X0.140000X-0.170000X-0.140000X0*%
%ADD22R,0.800000X0.900000*%
%ADD23RoundRect,0.006000X0.319000X0.094000X-0.319000X0.094000X-0.319000X-0.094000X0.319000X-0.094000X0*%
%ADD24RoundRect,0.147500X-0.172500X0.147500X-0.172500X-0.147500X0.172500X-0.147500X0.172500X0.147500X0*%
%ADD25RoundRect,0.135000X-0.185000X0.135000X-0.185000X-0.135000X0.185000X-0.135000X0.185000X0.135000X0*%
%ADD26RoundRect,0.135000X-0.135000X-0.185000X0.135000X-0.185000X0.135000X0.185000X-0.135000X0.185000X0*%
%ADD27RoundRect,0.135000X0.185000X-0.135000X0.185000X0.135000X-0.185000X0.135000X-0.185000X-0.135000X0*%
%ADD28RoundRect,0.150000X0.625000X-0.150000X0.625000X0.150000X-0.625000X0.150000X-0.625000X-0.150000X0*%
%ADD29RoundRect,0.250000X0.650000X-0.350000X0.650000X0.350000X-0.650000X0.350000X-0.650000X-0.350000X0*%
%ADD30R,0.740000X2.400000*%
%ADD31R,1.168400X0.889000*%
%ADD32R,1.168400X0.482600*%
%ADD33C,0.240000*%
%ADD34RoundRect,0.147500X0.172500X-0.147500X0.172500X0.147500X-0.172500X0.147500X-0.172500X-0.147500X0*%
G04 APERTURE END LIST*
D10*
%TO.C,U4*%
X142072000Y-67142000D02*
X141928000Y-67142000D01*
X141928000Y-67142000D02*
X141928000Y-66358000D01*
X141928000Y-66358000D02*
X142072000Y-66358000D01*
X142072000Y-66358000D02*
X142072000Y-67142000D01*
G36*
X142072000Y-67142000D02*
G01*
X141928000Y-67142000D01*
X141928000Y-66358000D01*
X142072000Y-66358000D01*
X142072000Y-67142000D01*
G37*
X142072000Y-67142000D02*
X141928000Y-67142000D01*
X141928000Y-66358000D01*
X142072000Y-66358000D01*
X142072000Y-67142000D01*
%TD*%
D11*
%TO.C,R6*%
X145510000Y-95750000D03*
X144490000Y-95750000D03*
%TD*%
D12*
%TO.C,FB1*%
X140985000Y-65250000D03*
X140015000Y-65250000D03*
%TD*%
D13*
%TO.C,C24*%
X142790000Y-93500000D03*
X143750000Y-93500000D03*
%TD*%
D14*
%TO.C,C11*%
X132480000Y-91500000D03*
X131520000Y-91500000D03*
%TD*%
%TO.C,C13*%
X132480000Y-89500000D03*
X131520000Y-89500000D03*
%TD*%
D15*
%TO.C,C8*%
X140000000Y-66250000D03*
X140000000Y-67210000D03*
%TD*%
D13*
%TO.C,C14*%
X135790000Y-88000000D03*
X136750000Y-88000000D03*
%TD*%
%TO.C,C20*%
X144270000Y-109250000D03*
X145230000Y-109250000D03*
%TD*%
D16*
%TO.C,D3*%
X142520000Y-94750000D03*
X143490000Y-94750000D03*
%TD*%
D17*
%TO.C,J1*%
X140700000Y-61755000D03*
X139900000Y-61755000D03*
D18*
X138750000Y-61755000D03*
X137750000Y-61755000D03*
X137250000Y-61755000D03*
X136250000Y-61755000D03*
D17*
X134300000Y-61755000D03*
X135100000Y-61755000D03*
D18*
X135750000Y-61755000D03*
X136750000Y-61755000D03*
X138250000Y-61755000D03*
X139250000Y-61755000D03*
%TD*%
D19*
%TO.C,L1*%
X132500000Y-87825000D03*
X132500000Y-86175000D03*
%TD*%
D16*
%TO.C,D4*%
X142515000Y-95750000D03*
X143485000Y-95750000D03*
%TD*%
D13*
%TO.C,C2*%
X148020000Y-105250000D03*
X148980000Y-105250000D03*
%TD*%
D20*
%TO.C,U3*%
X148500000Y-106300000D03*
X148000000Y-106300000D03*
X147500000Y-106300000D03*
X147500000Y-107700000D03*
X148500000Y-107700000D03*
%TD*%
D14*
%TO.C,C4*%
X136460000Y-98000000D03*
X135500000Y-98000000D03*
%TD*%
D21*
%TO.C,C15*%
X145250000Y-88480000D03*
X145250000Y-87520000D03*
%TD*%
D11*
%TO.C,R4*%
X122760000Y-87250000D03*
X121740000Y-87250000D03*
%TD*%
D22*
%TO.C,Y1*%
X143850000Y-88250000D03*
X143850000Y-86850000D03*
X142750000Y-86850000D03*
X142750000Y-88250000D03*
%TD*%
D15*
%TO.C,C1*%
X133500000Y-64270000D03*
X133500000Y-65230000D03*
%TD*%
D13*
%TO.C,C23*%
X142540000Y-85500000D03*
X143500000Y-85500000D03*
%TD*%
%TO.C,C6*%
X142500000Y-90500000D03*
X143460000Y-90500000D03*
%TD*%
D12*
%TO.C,D5*%
X129485000Y-111250000D03*
X128515000Y-111250000D03*
%TD*%
D14*
%TO.C,C12*%
X132480000Y-90500000D03*
X131520000Y-90500000D03*
%TD*%
D23*
%TO.C,U4*%
X142625000Y-67150000D03*
X142625000Y-66750000D03*
X142625000Y-66350000D03*
X141375000Y-66350000D03*
X141375000Y-66750000D03*
X141375000Y-67150000D03*
%TD*%
D13*
%TO.C,C22*%
X144270000Y-106250000D03*
X145230000Y-106250000D03*
%TD*%
D16*
%TO.C,D2*%
X119765000Y-87250000D03*
X120735000Y-87250000D03*
%TD*%
D24*
%TO.C,D7*%
X159000000Y-97515000D03*
X159000000Y-98485000D03*
%TD*%
D13*
%TO.C,C9*%
X139020000Y-88000000D03*
X139980000Y-88000000D03*
%TD*%
D25*
%TO.C,R1*%
X132500000Y-64240000D03*
X132500000Y-65260000D03*
%TD*%
D14*
%TO.C,C3*%
X134480000Y-98000000D03*
X133520000Y-98000000D03*
%TD*%
D26*
%TO.C,R7*%
X126480000Y-111250000D03*
X127500000Y-111250000D03*
%TD*%
D27*
%TO.C,R2*%
X140000000Y-64260000D03*
X140000000Y-63240000D03*
%TD*%
D12*
%TO.C,D6*%
X149485000Y-68250000D03*
X148515000Y-68250000D03*
%TD*%
D14*
%TO.C,C17*%
X145230000Y-103000000D03*
X144270000Y-103000000D03*
%TD*%
D13*
%TO.C,C7*%
X147270000Y-108750000D03*
X148230000Y-108750000D03*
%TD*%
D14*
%TO.C,C5*%
X138460000Y-98000000D03*
X137500000Y-98000000D03*
%TD*%
D13*
%TO.C,C16*%
X142770000Y-92500000D03*
X143730000Y-92500000D03*
%TD*%
D26*
%TO.C,R8*%
X129240000Y-105500000D03*
X130260000Y-105500000D03*
%TD*%
D28*
%TO.C,J2*%
X128075000Y-98250000D03*
X128075000Y-97250000D03*
X128075000Y-96250000D03*
X128075000Y-95250000D03*
X128075000Y-94250000D03*
D29*
X125550000Y-99550000D03*
X125550000Y-92950000D03*
%TD*%
D30*
%TO.C,J4*%
X148210000Y-115450000D03*
X148210000Y-111550000D03*
X149480000Y-115450000D03*
X149480000Y-111550000D03*
X150750000Y-115450000D03*
X150750000Y-111550000D03*
X152020000Y-115450000D03*
X152020000Y-111550000D03*
X153290000Y-115450000D03*
X153290000Y-111550000D03*
%TD*%
D14*
%TO.C,C18*%
X145230000Y-104000000D03*
X144270000Y-104000000D03*
%TD*%
D11*
%TO.C,R5*%
X145520000Y-94750000D03*
X144500000Y-94750000D03*
%TD*%
D31*
%TO.C,D1*%
X138516343Y-65746800D03*
D32*
X138516343Y-64050000D03*
X136484343Y-64049999D03*
X136484343Y-65950001D03*
%TD*%
D33*
%TO.C,IC1*%
X140500000Y-96000000D03*
X140000000Y-96000000D03*
X139500000Y-96000000D03*
X138500000Y-96000000D03*
X138000000Y-96000000D03*
X137500000Y-96000000D03*
X137000000Y-96000000D03*
X136500000Y-96000000D03*
X135500000Y-96000000D03*
X135000000Y-96000000D03*
X134500000Y-96000000D03*
X140500000Y-95500000D03*
X140000000Y-95500000D03*
X139500000Y-95500000D03*
X138500000Y-95500000D03*
X137000000Y-95500000D03*
X136500000Y-95500000D03*
X135000000Y-95500000D03*
X134500000Y-95500000D03*
X140500000Y-95000000D03*
X140000000Y-95000000D03*
X137500000Y-95000000D03*
X135000000Y-95000000D03*
X134500000Y-95000000D03*
X140000000Y-94000000D03*
X138500000Y-94000000D03*
X138000000Y-94000000D03*
X137500000Y-94000000D03*
X137000000Y-94000000D03*
X136500000Y-94000000D03*
X135000000Y-94000000D03*
X134500000Y-94000000D03*
X140500000Y-93500000D03*
X140000000Y-93500000D03*
X138500000Y-93500000D03*
X137000000Y-93500000D03*
X136500000Y-93500000D03*
X135000000Y-93500000D03*
X134500000Y-93500000D03*
X140500000Y-93000000D03*
X140000000Y-93000000D03*
X139500000Y-93000000D03*
X138500000Y-93000000D03*
X138000000Y-93000000D03*
X137000000Y-93000000D03*
X135500000Y-93000000D03*
X135000000Y-93000000D03*
X134500000Y-93000000D03*
X140500000Y-92500000D03*
X140000000Y-92500000D03*
X138500000Y-92500000D03*
X137000000Y-92500000D03*
X135000000Y-92500000D03*
X134500000Y-92500000D03*
X140500000Y-92000000D03*
X140000000Y-92000000D03*
X138500000Y-92000000D03*
X138000000Y-92000000D03*
X137500000Y-92000000D03*
X135000000Y-92000000D03*
X134500000Y-92000000D03*
X140500000Y-91000000D03*
X140000000Y-91000000D03*
X137500000Y-91000000D03*
X135000000Y-91000000D03*
X134500000Y-91000000D03*
X140500000Y-90500000D03*
X140000000Y-90500000D03*
X139500000Y-90500000D03*
X138500000Y-90500000D03*
X138000000Y-90500000D03*
X137500000Y-90500000D03*
X137000000Y-90500000D03*
X136500000Y-90500000D03*
X135500000Y-90500000D03*
X135000000Y-90500000D03*
X134500000Y-90500000D03*
X140500000Y-90000000D03*
X140000000Y-90000000D03*
X139500000Y-90000000D03*
X138500000Y-90000000D03*
X138000000Y-90000000D03*
X137500000Y-90000000D03*
X136500000Y-90000000D03*
X135500000Y-90000000D03*
X135000000Y-90000000D03*
X134500000Y-90000000D03*
%TD*%
D13*
%TO.C,C19*%
X144270000Y-108250000D03*
X145230000Y-108250000D03*
%TD*%
D34*
%TO.C,F1*%
X141000000Y-64235000D03*
X141000000Y-63265000D03*
%TD*%
D26*
%TO.C,R13*%
X146335000Y-68250000D03*
X147355000Y-68250000D03*
%TD*%
D13*
%TO.C,C21*%
X144290000Y-107250000D03*
X145250000Y-107250000D03*
%TD*%
D21*
%TO.C,C10*%
X144250000Y-67250000D03*
X144250000Y-66290000D03*
%TD*%
D27*
%TO.C,R3*%
X134500000Y-65260000D03*
X134500000Y-64240000D03*
%TD*%
M02*
