%TF.GenerationSoftware,KiCad,Pcbnew,6.0.2+dfsg-1*%
%TF.CreationDate,2022-03-12T01:01:01-08:00*%
%TF.ProjectId,redshift,72656473-6869-4667-942e-6b696361645f,0.1*%
%TF.SameCoordinates,Original*%
%TF.FileFunction,Legend,Top*%
%TF.FilePolarity,Positive*%
%FSLAX46Y46*%
G04 Gerber Fmt 4.6, Leading zero omitted, Abs format (unit mm)*
G04 Created by KiCad (PCBNEW 6.0.2+dfsg-1) date 2022-03-12 01:01:01*
%MOMM*%
%LPD*%
G01*
G04 APERTURE LIST*
G04 Aperture macros list*
%AMRoundRect*
0 Rectangle with rounded corners*
0 $1 Rounding radius*
0 $2 $3 $4 $5 $6 $7 $8 $9 X,Y pos of 4 corners*
0 Add a 4 corners polygon primitive as box body*
4,1,4,$2,$3,$4,$5,$6,$7,$8,$9,$2,$3,0*
0 Add four circle primitives for the rounded corners*
1,1,$1+$1,$2,$3*
1,1,$1+$1,$4,$5*
1,1,$1+$1,$6,$7*
1,1,$1+$1,$8,$9*
0 Add four rect primitives between the rounded corners*
20,1,$1+$1,$2,$3,$4,$5,0*
20,1,$1+$1,$4,$5,$6,$7,0*
20,1,$1+$1,$6,$7,$8,$9,0*
20,1,$1+$1,$8,$9,$2,$3,0*%
G04 Aperture macros list end*
%ADD10C,0.187500*%
%ADD11C,0.150000*%
%ADD12C,0.125000*%
%ADD13C,0.120000*%
%ADD14C,0.100000*%
%ADD15C,0.200000*%
%ADD16C,0.127000*%
%ADD17RoundRect,0.135000X0.135000X0.185000X-0.135000X0.185000X-0.135000X-0.185000X0.135000X-0.185000X0*%
%ADD18RoundRect,0.147500X0.147500X0.172500X-0.147500X0.172500X-0.147500X-0.172500X0.147500X-0.172500X0*%
%ADD19RoundRect,0.140000X-0.140000X-0.170000X0.140000X-0.170000X0.140000X0.170000X-0.140000X0.170000X0*%
%ADD20RoundRect,0.140000X0.140000X0.170000X-0.140000X0.170000X-0.140000X-0.170000X0.140000X-0.170000X0*%
%ADD21C,2.100000*%
%ADD22RoundRect,0.140000X-0.170000X0.140000X-0.170000X-0.140000X0.170000X-0.140000X0.170000X0.140000X0*%
%ADD23C,1.700000*%
%ADD24O,2.700000X1.700000*%
%ADD25RoundRect,0.147500X-0.147500X-0.172500X0.147500X-0.172500X0.147500X0.172500X-0.147500X0.172500X0*%
%ADD26C,0.650000*%
%ADD27R,0.600000X1.150000*%
%ADD28R,0.300000X1.150000*%
%ADD29O,1.050000X2.100000*%
%ADD30O,1.000000X2.000000*%
%ADD31RoundRect,0.200000X0.275000X-0.200000X0.275000X0.200000X-0.275000X0.200000X-0.275000X-0.200000X0*%
%ADD32R,0.300000X0.450000*%
%ADD33RoundRect,0.140000X0.170000X-0.140000X0.170000X0.140000X-0.170000X0.140000X-0.170000X-0.140000X0*%
%ADD34R,0.800000X0.900000*%
%ADD35RoundRect,0.006000X0.319000X0.094000X-0.319000X0.094000X-0.319000X-0.094000X0.319000X-0.094000X0*%
%ADD36R,0.300000X0.940000*%
%ADD37RoundRect,0.147500X-0.172500X0.147500X-0.172500X-0.147500X0.172500X-0.147500X0.172500X0.147500X0*%
%ADD38RoundRect,0.135000X-0.185000X0.135000X-0.185000X-0.135000X0.185000X-0.135000X0.185000X0.135000X0*%
%ADD39RoundRect,0.135000X-0.135000X-0.185000X0.135000X-0.185000X0.135000X0.185000X-0.135000X0.185000X0*%
%ADD40RoundRect,0.135000X0.185000X-0.135000X0.185000X0.135000X-0.185000X0.135000X-0.185000X-0.135000X0*%
%ADD41RoundRect,0.150000X0.625000X-0.150000X0.625000X0.150000X-0.625000X0.150000X-0.625000X-0.150000X0*%
%ADD42RoundRect,0.250000X0.650000X-0.350000X0.650000X0.350000X-0.650000X0.350000X-0.650000X-0.350000X0*%
%ADD43R,0.740000X2.400000*%
%ADD44R,1.350000X1.350000*%
%ADD45O,1.350000X1.350000*%
%ADD46R,1.168400X0.889000*%
%ADD47R,1.168400X0.482600*%
%ADD48R,1.400000X1.400000*%
%ADD49C,1.400000*%
%ADD50C,0.240000*%
%ADD51RoundRect,0.147500X0.172500X-0.147500X0.172500X0.147500X-0.172500X0.147500X-0.172500X-0.147500X0*%
G04 APERTURE END LIST*
D10*
X154628125Y-110767857D02*
X154592410Y-110803571D01*
X154485267Y-110839285D01*
X154413839Y-110839285D01*
X154306696Y-110803571D01*
X154235267Y-110732142D01*
X154199553Y-110660714D01*
X154163839Y-110517857D01*
X154163839Y-110410714D01*
X154199553Y-110267857D01*
X154235267Y-110196428D01*
X154306696Y-110125000D01*
X154413839Y-110089285D01*
X154485267Y-110089285D01*
X154592410Y-110125000D01*
X154628125Y-110160714D01*
X155306696Y-110839285D02*
X154949553Y-110839285D01*
X154949553Y-110089285D01*
X155556696Y-110839285D02*
X155556696Y-110089285D01*
X155985267Y-110839285D02*
X155663839Y-110410714D01*
X155985267Y-110089285D02*
X155556696Y-110517857D01*
X154163839Y-106839285D02*
X154163839Y-106089285D01*
X154342410Y-106089285D01*
X154449553Y-106125000D01*
X154520982Y-106196428D01*
X154556696Y-106267857D01*
X154592410Y-106410714D01*
X154592410Y-106517857D01*
X154556696Y-106660714D01*
X154520982Y-106732142D01*
X154449553Y-106803571D01*
X154342410Y-106839285D01*
X154163839Y-106839285D01*
X154913839Y-106839285D02*
X154913839Y-106089285D01*
X155413839Y-106089285D02*
X155556696Y-106089285D01*
X155628125Y-106125000D01*
X155699553Y-106196428D01*
X155735267Y-106339285D01*
X155735267Y-106589285D01*
X155699553Y-106732142D01*
X155628125Y-106803571D01*
X155556696Y-106839285D01*
X155413839Y-106839285D01*
X155342410Y-106803571D01*
X155270982Y-106732142D01*
X155235267Y-106589285D01*
X155235267Y-106339285D01*
X155270982Y-106196428D01*
X155342410Y-106125000D01*
X155413839Y-106089285D01*
X154163839Y-102089285D02*
X154413839Y-102839285D01*
X154663839Y-102089285D01*
X154913839Y-102839285D02*
X154913839Y-102089285D01*
X155270982Y-102839285D02*
X155270982Y-102089285D01*
X155699553Y-102839285D01*
X155699553Y-102089285D01*
X154413839Y-100125000D02*
X154342410Y-100089285D01*
X154235267Y-100089285D01*
X154128125Y-100125000D01*
X154056696Y-100196428D01*
X154020982Y-100267857D01*
X153985267Y-100410714D01*
X153985267Y-100517857D01*
X154020982Y-100660714D01*
X154056696Y-100732142D01*
X154128125Y-100803571D01*
X154235267Y-100839285D01*
X154306696Y-100839285D01*
X154413839Y-100803571D01*
X154449553Y-100767857D01*
X154449553Y-100517857D01*
X154306696Y-100517857D01*
X154770982Y-100839285D02*
X154770982Y-100089285D01*
X155199553Y-100839285D01*
X155199553Y-100089285D01*
X155556696Y-100839285D02*
X155556696Y-100089285D01*
X155735267Y-100089285D01*
X155842410Y-100125000D01*
X155913839Y-100196428D01*
X155949553Y-100267857D01*
X155985267Y-100410714D01*
X155985267Y-100517857D01*
X155949553Y-100660714D01*
X155913839Y-100732142D01*
X155842410Y-100803571D01*
X155735267Y-100839285D01*
X155556696Y-100839285D01*
X153913839Y-108803571D02*
X154020982Y-108839285D01*
X154199553Y-108839285D01*
X154270982Y-108803571D01*
X154306696Y-108767857D01*
X154342410Y-108696428D01*
X154342410Y-108625000D01*
X154306696Y-108553571D01*
X154270982Y-108517857D01*
X154199553Y-108482142D01*
X154056696Y-108446428D01*
X153985267Y-108410714D01*
X153949553Y-108375000D01*
X153913839Y-108303571D01*
X153913839Y-108232142D01*
X153949553Y-108160714D01*
X153985267Y-108125000D01*
X154056696Y-108089285D01*
X154235267Y-108089285D01*
X154342410Y-108125000D01*
X154592410Y-108089285D02*
X154770982Y-108839285D01*
X154913839Y-108303571D01*
X155056696Y-108839285D01*
X155235267Y-108089285D01*
X155663839Y-108089285D02*
X155806696Y-108089285D01*
X155878125Y-108125000D01*
X155949553Y-108196428D01*
X155985267Y-108339285D01*
X155985267Y-108589285D01*
X155949553Y-108732142D01*
X155878125Y-108803571D01*
X155806696Y-108839285D01*
X155663839Y-108839285D01*
X155592410Y-108803571D01*
X155520982Y-108732142D01*
X155485267Y-108589285D01*
X155485267Y-108339285D01*
X155520982Y-108196428D01*
X155592410Y-108125000D01*
X155663839Y-108089285D01*
X154449553Y-104839285D02*
X154199553Y-104482142D01*
X154020982Y-104839285D02*
X154020982Y-104089285D01*
X154306696Y-104089285D01*
X154378125Y-104125000D01*
X154413839Y-104160714D01*
X154449553Y-104232142D01*
X154449553Y-104339285D01*
X154413839Y-104410714D01*
X154378125Y-104446428D01*
X154306696Y-104482142D01*
X154020982Y-104482142D01*
X154735267Y-104803571D02*
X154842410Y-104839285D01*
X155020982Y-104839285D01*
X155092410Y-104803571D01*
X155128125Y-104767857D01*
X155163839Y-104696428D01*
X155163839Y-104625000D01*
X155128125Y-104553571D01*
X155092410Y-104517857D01*
X155020982Y-104482142D01*
X154878125Y-104446428D01*
X154806696Y-104410714D01*
X154770982Y-104375000D01*
X154735267Y-104303571D01*
X154735267Y-104232142D01*
X154770982Y-104160714D01*
X154806696Y-104125000D01*
X154878125Y-104089285D01*
X155056696Y-104089285D01*
X155163839Y-104125000D01*
X155378125Y-104089285D02*
X155806696Y-104089285D01*
X155592410Y-104839285D02*
X155592410Y-104089285D01*
D11*
%TO.C,R6*%
X144833333Y-97452380D02*
X144500000Y-96976190D01*
X144261904Y-97452380D02*
X144261904Y-96452380D01*
X144642857Y-96452380D01*
X144738095Y-96500000D01*
X144785714Y-96547619D01*
X144833333Y-96642857D01*
X144833333Y-96785714D01*
X144785714Y-96880952D01*
X144738095Y-96928571D01*
X144642857Y-96976190D01*
X144261904Y-96976190D01*
X145690476Y-96452380D02*
X145500000Y-96452380D01*
X145404761Y-96500000D01*
X145357142Y-96547619D01*
X145261904Y-96690476D01*
X145214285Y-96880952D01*
X145214285Y-97261904D01*
X145261904Y-97357142D01*
X145309523Y-97404761D01*
X145404761Y-97452380D01*
X145595238Y-97452380D01*
X145690476Y-97404761D01*
X145738095Y-97357142D01*
X145785714Y-97261904D01*
X145785714Y-97023809D01*
X145738095Y-96928571D01*
X145690476Y-96880952D01*
X145595238Y-96833333D01*
X145404761Y-96833333D01*
X145309523Y-96880952D01*
X145261904Y-96928571D01*
X145214285Y-97023809D01*
%TO.C,C24*%
X145127142Y-92857142D02*
X145079523Y-92904761D01*
X144936666Y-92952380D01*
X144841428Y-92952380D01*
X144698571Y-92904761D01*
X144603333Y-92809523D01*
X144555714Y-92714285D01*
X144508095Y-92523809D01*
X144508095Y-92380952D01*
X144555714Y-92190476D01*
X144603333Y-92095238D01*
X144698571Y-92000000D01*
X144841428Y-91952380D01*
X144936666Y-91952380D01*
X145079523Y-92000000D01*
X145127142Y-92047619D01*
X145508095Y-92047619D02*
X145555714Y-92000000D01*
X145650952Y-91952380D01*
X145889047Y-91952380D01*
X145984285Y-92000000D01*
X146031904Y-92047619D01*
X146079523Y-92142857D01*
X146079523Y-92238095D01*
X146031904Y-92380952D01*
X145460476Y-92952380D01*
X146079523Y-92952380D01*
X146936666Y-92285714D02*
X146936666Y-92952380D01*
X146698571Y-91904761D02*
X146460476Y-92619047D01*
X147079523Y-92619047D01*
D12*
%TO.C,C11*%
X128857142Y-91678571D02*
X128809523Y-91702380D01*
X128666666Y-91726190D01*
X128571428Y-91726190D01*
X128428571Y-91702380D01*
X128333333Y-91654761D01*
X128285714Y-91607142D01*
X128238095Y-91511904D01*
X128238095Y-91440476D01*
X128285714Y-91345238D01*
X128333333Y-91297619D01*
X128428571Y-91250000D01*
X128571428Y-91226190D01*
X128666666Y-91226190D01*
X128809523Y-91250000D01*
X128857142Y-91273809D01*
X129809523Y-91726190D02*
X129238095Y-91726190D01*
X129523809Y-91726190D02*
X129523809Y-91226190D01*
X129428571Y-91297619D01*
X129333333Y-91345238D01*
X129238095Y-91369047D01*
X130761904Y-91726190D02*
X130190476Y-91726190D01*
X130476190Y-91726190D02*
X130476190Y-91226190D01*
X130380952Y-91297619D01*
X130285714Y-91345238D01*
X130190476Y-91369047D01*
%TO.C,C13*%
X128857142Y-89678571D02*
X128809523Y-89702380D01*
X128666666Y-89726190D01*
X128571428Y-89726190D01*
X128428571Y-89702380D01*
X128333333Y-89654761D01*
X128285714Y-89607142D01*
X128238095Y-89511904D01*
X128238095Y-89440476D01*
X128285714Y-89345238D01*
X128333333Y-89297619D01*
X128428571Y-89250000D01*
X128571428Y-89226190D01*
X128666666Y-89226190D01*
X128809523Y-89250000D01*
X128857142Y-89273809D01*
X129809523Y-89726190D02*
X129238095Y-89726190D01*
X129523809Y-89726190D02*
X129523809Y-89226190D01*
X129428571Y-89297619D01*
X129333333Y-89345238D01*
X129238095Y-89369047D01*
X130142857Y-89226190D02*
X130761904Y-89226190D01*
X130428571Y-89416666D01*
X130571428Y-89416666D01*
X130666666Y-89440476D01*
X130714285Y-89464285D01*
X130761904Y-89511904D01*
X130761904Y-89630952D01*
X130714285Y-89678571D01*
X130666666Y-89702380D01*
X130571428Y-89726190D01*
X130285714Y-89726190D01*
X130190476Y-89702380D01*
X130142857Y-89678571D01*
D11*
%TO.C,ENC1*%
X123848571Y-79714285D02*
X123848571Y-79380952D01*
X124372380Y-79238095D02*
X124372380Y-79714285D01*
X123372380Y-79714285D01*
X123372380Y-79238095D01*
X124372380Y-78809523D02*
X123372380Y-78809523D01*
X124372380Y-78238095D01*
X123372380Y-78238095D01*
X124277142Y-77190476D02*
X124324761Y-77238095D01*
X124372380Y-77380952D01*
X124372380Y-77476190D01*
X124324761Y-77619047D01*
X124229523Y-77714285D01*
X124134285Y-77761904D01*
X123943809Y-77809523D01*
X123800952Y-77809523D01*
X123610476Y-77761904D01*
X123515238Y-77714285D01*
X123420000Y-77619047D01*
X123372380Y-77476190D01*
X123372380Y-77380952D01*
X123420000Y-77238095D01*
X123467619Y-77190476D01*
X124372380Y-76238095D02*
X124372380Y-76809523D01*
X124372380Y-76523809D02*
X123372380Y-76523809D01*
X123515238Y-76619047D01*
X123610476Y-76714285D01*
X123658095Y-76809523D01*
%TO.C,C14*%
X135627142Y-86857142D02*
X135579523Y-86904761D01*
X135436666Y-86952380D01*
X135341428Y-86952380D01*
X135198571Y-86904761D01*
X135103333Y-86809523D01*
X135055714Y-86714285D01*
X135008095Y-86523809D01*
X135008095Y-86380952D01*
X135055714Y-86190476D01*
X135103333Y-86095238D01*
X135198571Y-86000000D01*
X135341428Y-85952380D01*
X135436666Y-85952380D01*
X135579523Y-86000000D01*
X135627142Y-86047619D01*
X136579523Y-86952380D02*
X136008095Y-86952380D01*
X136293809Y-86952380D02*
X136293809Y-85952380D01*
X136198571Y-86095238D01*
X136103333Y-86190476D01*
X136008095Y-86238095D01*
X137436666Y-86285714D02*
X137436666Y-86952380D01*
X137198571Y-85904761D02*
X136960476Y-86619047D01*
X137579523Y-86619047D01*
%TO.C,C20*%
X149857142Y-109517857D02*
X149809523Y-109553571D01*
X149666666Y-109589285D01*
X149571428Y-109589285D01*
X149428571Y-109553571D01*
X149333333Y-109482142D01*
X149285714Y-109410714D01*
X149238095Y-109267857D01*
X149238095Y-109160714D01*
X149285714Y-109017857D01*
X149333333Y-108946428D01*
X149428571Y-108875000D01*
X149571428Y-108839285D01*
X149666666Y-108839285D01*
X149809523Y-108875000D01*
X149857142Y-108910714D01*
X150238095Y-108910714D02*
X150285714Y-108875000D01*
X150380952Y-108839285D01*
X150619047Y-108839285D01*
X150714285Y-108875000D01*
X150761904Y-108910714D01*
X150809523Y-108982142D01*
X150809523Y-109053571D01*
X150761904Y-109160714D01*
X150190476Y-109589285D01*
X150809523Y-109589285D01*
X151428571Y-108839285D02*
X151523809Y-108839285D01*
X151619047Y-108875000D01*
X151666666Y-108910714D01*
X151714285Y-108982142D01*
X151761904Y-109125000D01*
X151761904Y-109303571D01*
X151714285Y-109446428D01*
X151666666Y-109517857D01*
X151619047Y-109553571D01*
X151523809Y-109589285D01*
X151428571Y-109589285D01*
X151333333Y-109553571D01*
X151285714Y-109517857D01*
X151238095Y-109446428D01*
X151190476Y-109303571D01*
X151190476Y-109125000D01*
X151238095Y-108982142D01*
X151285714Y-108910714D01*
X151333333Y-108875000D01*
X151428571Y-108839285D01*
%TO.C,D3*%
X144511904Y-94202380D02*
X144511904Y-93202380D01*
X144750000Y-93202380D01*
X144892857Y-93250000D01*
X144988095Y-93345238D01*
X145035714Y-93440476D01*
X145083333Y-93630952D01*
X145083333Y-93773809D01*
X145035714Y-93964285D01*
X144988095Y-94059523D01*
X144892857Y-94154761D01*
X144750000Y-94202380D01*
X144511904Y-94202380D01*
X145416666Y-93202380D02*
X146035714Y-93202380D01*
X145702380Y-93583333D01*
X145845238Y-93583333D01*
X145940476Y-93630952D01*
X145988095Y-93678571D01*
X146035714Y-93773809D01*
X146035714Y-94011904D01*
X145988095Y-94107142D01*
X145940476Y-94154761D01*
X145845238Y-94202380D01*
X145559523Y-94202380D01*
X145464285Y-94154761D01*
X145416666Y-94107142D01*
%TO.C,L1*%
X132333333Y-85452380D02*
X131857142Y-85452380D01*
X131857142Y-84452380D01*
X133190476Y-85452380D02*
X132619047Y-85452380D01*
X132904761Y-85452380D02*
X132904761Y-84452380D01*
X132809523Y-84595238D01*
X132714285Y-84690476D01*
X132619047Y-84738095D01*
%TO.C,D4*%
X142261904Y-97452380D02*
X142261904Y-96452380D01*
X142500000Y-96452380D01*
X142642857Y-96500000D01*
X142738095Y-96595238D01*
X142785714Y-96690476D01*
X142833333Y-96880952D01*
X142833333Y-97023809D01*
X142785714Y-97214285D01*
X142738095Y-97309523D01*
X142642857Y-97404761D01*
X142500000Y-97452380D01*
X142261904Y-97452380D01*
X143690476Y-96785714D02*
X143690476Y-97452380D01*
X143452380Y-96404761D02*
X143214285Y-97119047D01*
X143833333Y-97119047D01*
D12*
%TO.C,C4*%
X135813333Y-99178571D02*
X135765714Y-99202380D01*
X135622857Y-99226190D01*
X135527619Y-99226190D01*
X135384761Y-99202380D01*
X135289523Y-99154761D01*
X135241904Y-99107142D01*
X135194285Y-99011904D01*
X135194285Y-98940476D01*
X135241904Y-98845238D01*
X135289523Y-98797619D01*
X135384761Y-98750000D01*
X135527619Y-98726190D01*
X135622857Y-98726190D01*
X135765714Y-98750000D01*
X135813333Y-98773809D01*
X136670476Y-98892857D02*
X136670476Y-99226190D01*
X136432380Y-98702380D02*
X136194285Y-99059523D01*
X136813333Y-99059523D01*
D11*
%TO.C,C15*%
X146857142Y-88642857D02*
X146904761Y-88690476D01*
X146952380Y-88833333D01*
X146952380Y-88928571D01*
X146904761Y-89071428D01*
X146809523Y-89166666D01*
X146714285Y-89214285D01*
X146523809Y-89261904D01*
X146380952Y-89261904D01*
X146190476Y-89214285D01*
X146095238Y-89166666D01*
X146000000Y-89071428D01*
X145952380Y-88928571D01*
X145952380Y-88833333D01*
X146000000Y-88690476D01*
X146047619Y-88642857D01*
X146952380Y-87690476D02*
X146952380Y-88261904D01*
X146952380Y-87976190D02*
X145952380Y-87976190D01*
X146095238Y-88071428D01*
X146190476Y-88166666D01*
X146238095Y-88261904D01*
X145952380Y-86785714D02*
X145952380Y-87261904D01*
X146428571Y-87309523D01*
X146380952Y-87261904D01*
X146333333Y-87166666D01*
X146333333Y-86928571D01*
X146380952Y-86833333D01*
X146428571Y-86785714D01*
X146523809Y-86738095D01*
X146761904Y-86738095D01*
X146857142Y-86785714D01*
X146904761Y-86833333D01*
X146952380Y-86928571D01*
X146952380Y-87166666D01*
X146904761Y-87261904D01*
X146857142Y-87309523D01*
%TO.C,R4*%
X122083333Y-86452380D02*
X121750000Y-85976190D01*
X121511904Y-86452380D02*
X121511904Y-85452380D01*
X121892857Y-85452380D01*
X121988095Y-85500000D01*
X122035714Y-85547619D01*
X122083333Y-85642857D01*
X122083333Y-85785714D01*
X122035714Y-85880952D01*
X121988095Y-85928571D01*
X121892857Y-85976190D01*
X121511904Y-85976190D01*
X122940476Y-85785714D02*
X122940476Y-86452380D01*
X122702380Y-85404761D02*
X122464285Y-86119047D01*
X123083333Y-86119047D01*
%TO.C,C23*%
X142377142Y-84697142D02*
X142329523Y-84744761D01*
X142186666Y-84792380D01*
X142091428Y-84792380D01*
X141948571Y-84744761D01*
X141853333Y-84649523D01*
X141805714Y-84554285D01*
X141758095Y-84363809D01*
X141758095Y-84220952D01*
X141805714Y-84030476D01*
X141853333Y-83935238D01*
X141948571Y-83840000D01*
X142091428Y-83792380D01*
X142186666Y-83792380D01*
X142329523Y-83840000D01*
X142377142Y-83887619D01*
X142758095Y-83887619D02*
X142805714Y-83840000D01*
X142900952Y-83792380D01*
X143139047Y-83792380D01*
X143234285Y-83840000D01*
X143281904Y-83887619D01*
X143329523Y-83982857D01*
X143329523Y-84078095D01*
X143281904Y-84220952D01*
X142710476Y-84792380D01*
X143329523Y-84792380D01*
X143662857Y-83792380D02*
X144281904Y-83792380D01*
X143948571Y-84173333D01*
X144091428Y-84173333D01*
X144186666Y-84220952D01*
X144234285Y-84268571D01*
X144281904Y-84363809D01*
X144281904Y-84601904D01*
X144234285Y-84697142D01*
X144186666Y-84744761D01*
X144091428Y-84792380D01*
X143805714Y-84792380D01*
X143710476Y-84744761D01*
X143662857Y-84697142D01*
%TO.C,C6*%
X145083333Y-90497142D02*
X145035714Y-90544761D01*
X144892857Y-90592380D01*
X144797619Y-90592380D01*
X144654761Y-90544761D01*
X144559523Y-90449523D01*
X144511904Y-90354285D01*
X144464285Y-90163809D01*
X144464285Y-90020952D01*
X144511904Y-89830476D01*
X144559523Y-89735238D01*
X144654761Y-89640000D01*
X144797619Y-89592380D01*
X144892857Y-89592380D01*
X145035714Y-89640000D01*
X145083333Y-89687619D01*
X145940476Y-89592380D02*
X145750000Y-89592380D01*
X145654761Y-89640000D01*
X145607142Y-89687619D01*
X145511904Y-89830476D01*
X145464285Y-90020952D01*
X145464285Y-90401904D01*
X145511904Y-90497142D01*
X145559523Y-90544761D01*
X145654761Y-90592380D01*
X145845238Y-90592380D01*
X145940476Y-90544761D01*
X145988095Y-90497142D01*
X146035714Y-90401904D01*
X146035714Y-90163809D01*
X145988095Y-90068571D01*
X145940476Y-90020952D01*
X145845238Y-89973333D01*
X145654761Y-89973333D01*
X145559523Y-90020952D01*
X145511904Y-90068571D01*
X145464285Y-90163809D01*
%TO.C,D5*%
X128290401Y-110500671D02*
X128290401Y-109500671D01*
X128528497Y-109500671D01*
X128671354Y-109548291D01*
X128766592Y-109643529D01*
X128814211Y-109738767D01*
X128861830Y-109929243D01*
X128861830Y-110072100D01*
X128814211Y-110262576D01*
X128766592Y-110357814D01*
X128671354Y-110453052D01*
X128528497Y-110500671D01*
X128290401Y-110500671D01*
X129766592Y-109500671D02*
X129290401Y-109500671D01*
X129242782Y-109976862D01*
X129290401Y-109929243D01*
X129385639Y-109881624D01*
X129623735Y-109881624D01*
X129718973Y-109929243D01*
X129766592Y-109976862D01*
X129814211Y-110072100D01*
X129814211Y-110310195D01*
X129766592Y-110405433D01*
X129718973Y-110453052D01*
X129623735Y-110500671D01*
X129385639Y-110500671D01*
X129290401Y-110453052D01*
X129242782Y-110405433D01*
D12*
%TO.C,C12*%
X128857142Y-90678571D02*
X128809523Y-90702380D01*
X128666666Y-90726190D01*
X128571428Y-90726190D01*
X128428571Y-90702380D01*
X128333333Y-90654761D01*
X128285714Y-90607142D01*
X128238095Y-90511904D01*
X128238095Y-90440476D01*
X128285714Y-90345238D01*
X128333333Y-90297619D01*
X128428571Y-90250000D01*
X128571428Y-90226190D01*
X128666666Y-90226190D01*
X128809523Y-90250000D01*
X128857142Y-90273809D01*
X129809523Y-90726190D02*
X129238095Y-90726190D01*
X129523809Y-90726190D02*
X129523809Y-90226190D01*
X129428571Y-90297619D01*
X129333333Y-90345238D01*
X129238095Y-90369047D01*
X130190476Y-90273809D02*
X130238095Y-90250000D01*
X130333333Y-90226190D01*
X130571428Y-90226190D01*
X130666666Y-90250000D01*
X130714285Y-90273809D01*
X130761904Y-90321428D01*
X130761904Y-90369047D01*
X130714285Y-90440476D01*
X130142857Y-90726190D01*
X130761904Y-90726190D01*
D11*
%TO.C,C22*%
X149857142Y-106517857D02*
X149809523Y-106553571D01*
X149666666Y-106589285D01*
X149571428Y-106589285D01*
X149428571Y-106553571D01*
X149333333Y-106482142D01*
X149285714Y-106410714D01*
X149238095Y-106267857D01*
X149238095Y-106160714D01*
X149285714Y-106017857D01*
X149333333Y-105946428D01*
X149428571Y-105875000D01*
X149571428Y-105839285D01*
X149666666Y-105839285D01*
X149809523Y-105875000D01*
X149857142Y-105910714D01*
X150238095Y-105910714D02*
X150285714Y-105875000D01*
X150380952Y-105839285D01*
X150619047Y-105839285D01*
X150714285Y-105875000D01*
X150761904Y-105910714D01*
X150809523Y-105982142D01*
X150809523Y-106053571D01*
X150761904Y-106160714D01*
X150190476Y-106589285D01*
X150809523Y-106589285D01*
X151190476Y-105910714D02*
X151238095Y-105875000D01*
X151333333Y-105839285D01*
X151571428Y-105839285D01*
X151666666Y-105875000D01*
X151714285Y-105910714D01*
X151761904Y-105982142D01*
X151761904Y-106053571D01*
X151714285Y-106160714D01*
X151142857Y-106589285D01*
X151761904Y-106589285D01*
%TO.C,D2*%
X119511904Y-89202380D02*
X119511904Y-88202380D01*
X119750000Y-88202380D01*
X119892857Y-88250000D01*
X119988095Y-88345238D01*
X120035714Y-88440476D01*
X120083333Y-88630952D01*
X120083333Y-88773809D01*
X120035714Y-88964285D01*
X119988095Y-89059523D01*
X119892857Y-89154761D01*
X119750000Y-89202380D01*
X119511904Y-89202380D01*
X120464285Y-88297619D02*
X120511904Y-88250000D01*
X120607142Y-88202380D01*
X120845238Y-88202380D01*
X120940476Y-88250000D01*
X120988095Y-88297619D01*
X121035714Y-88392857D01*
X121035714Y-88488095D01*
X120988095Y-88630952D01*
X120416666Y-89202380D01*
X121035714Y-89202380D01*
%TO.C,D7*%
X159452380Y-95738095D02*
X158452380Y-95738095D01*
X158452380Y-95500000D01*
X158500000Y-95357142D01*
X158595238Y-95261904D01*
X158690476Y-95214285D01*
X158880952Y-95166666D01*
X159023809Y-95166666D01*
X159214285Y-95214285D01*
X159309523Y-95261904D01*
X159404761Y-95357142D01*
X159452380Y-95500000D01*
X159452380Y-95738095D01*
X158452380Y-94833333D02*
X158452380Y-94166666D01*
X159452380Y-94595238D01*
%TO.C,SW3*%
X147666666Y-88404761D02*
X147809523Y-88452380D01*
X148047619Y-88452380D01*
X148142857Y-88404761D01*
X148190476Y-88357142D01*
X148238095Y-88261904D01*
X148238095Y-88166666D01*
X148190476Y-88071428D01*
X148142857Y-88023809D01*
X148047619Y-87976190D01*
X147857142Y-87928571D01*
X147761904Y-87880952D01*
X147714285Y-87833333D01*
X147666666Y-87738095D01*
X147666666Y-87642857D01*
X147714285Y-87547619D01*
X147761904Y-87500000D01*
X147857142Y-87452380D01*
X148095238Y-87452380D01*
X148238095Y-87500000D01*
X148571428Y-87452380D02*
X148809523Y-88452380D01*
X149000000Y-87738095D01*
X149190476Y-88452380D01*
X149428571Y-87452380D01*
X149714285Y-87452380D02*
X150333333Y-87452380D01*
X150000000Y-87833333D01*
X150142857Y-87833333D01*
X150238095Y-87880952D01*
X150285714Y-87928571D01*
X150333333Y-88023809D01*
X150333333Y-88261904D01*
X150285714Y-88357142D01*
X150238095Y-88404761D01*
X150142857Y-88452380D01*
X149857142Y-88452380D01*
X149761904Y-88404761D01*
X149714285Y-88357142D01*
D12*
%TO.C,C3*%
X133725497Y-99178571D02*
X133677878Y-99202380D01*
X133535021Y-99226190D01*
X133439783Y-99226190D01*
X133296925Y-99202380D01*
X133201687Y-99154761D01*
X133154068Y-99107142D01*
X133106449Y-99011904D01*
X133106449Y-98940476D01*
X133154068Y-98845238D01*
X133201687Y-98797619D01*
X133296925Y-98750000D01*
X133439783Y-98726190D01*
X133535021Y-98726190D01*
X133677878Y-98750000D01*
X133725497Y-98773809D01*
X134058830Y-98726190D02*
X134677878Y-98726190D01*
X134344544Y-98916666D01*
X134487402Y-98916666D01*
X134582640Y-98940476D01*
X134630259Y-98964285D01*
X134677878Y-99011904D01*
X134677878Y-99130952D01*
X134630259Y-99178571D01*
X134582640Y-99202380D01*
X134487402Y-99226190D01*
X134201687Y-99226190D01*
X134106449Y-99202380D01*
X134058830Y-99178571D01*
D11*
%TO.C,R7*%
X126823333Y-110532380D02*
X126490000Y-110056190D01*
X126251904Y-110532380D02*
X126251904Y-109532380D01*
X126632857Y-109532380D01*
X126728095Y-109580000D01*
X126775714Y-109627619D01*
X126823333Y-109722857D01*
X126823333Y-109865714D01*
X126775714Y-109960952D01*
X126728095Y-110008571D01*
X126632857Y-110056190D01*
X126251904Y-110056190D01*
X127156666Y-109532380D02*
X127823333Y-109532380D01*
X127394761Y-110532380D01*
%TO.C,D6*%
X148511904Y-69872380D02*
X148511904Y-68872380D01*
X148750000Y-68872380D01*
X148892857Y-68920000D01*
X148988095Y-69015238D01*
X149035714Y-69110476D01*
X149083333Y-69300952D01*
X149083333Y-69443809D01*
X149035714Y-69634285D01*
X148988095Y-69729523D01*
X148892857Y-69824761D01*
X148750000Y-69872380D01*
X148511904Y-69872380D01*
X149940476Y-68872380D02*
X149750000Y-68872380D01*
X149654761Y-68920000D01*
X149607142Y-68967619D01*
X149511904Y-69110476D01*
X149464285Y-69300952D01*
X149464285Y-69681904D01*
X149511904Y-69777142D01*
X149559523Y-69824761D01*
X149654761Y-69872380D01*
X149845238Y-69872380D01*
X149940476Y-69824761D01*
X149988095Y-69777142D01*
X150035714Y-69681904D01*
X150035714Y-69443809D01*
X149988095Y-69348571D01*
X149940476Y-69300952D01*
X149845238Y-69253333D01*
X149654761Y-69253333D01*
X149559523Y-69300952D01*
X149511904Y-69348571D01*
X149464285Y-69443809D01*
D12*
%TO.C,C17*%
X146857142Y-103267857D02*
X146809523Y-103303571D01*
X146666666Y-103339285D01*
X146571428Y-103339285D01*
X146428571Y-103303571D01*
X146333333Y-103232142D01*
X146285714Y-103160714D01*
X146238095Y-103017857D01*
X146238095Y-102910714D01*
X146285714Y-102767857D01*
X146333333Y-102696428D01*
X146428571Y-102625000D01*
X146571428Y-102589285D01*
X146666666Y-102589285D01*
X146809523Y-102625000D01*
X146857142Y-102660714D01*
X147809523Y-103339285D02*
X147238095Y-103339285D01*
X147523809Y-103339285D02*
X147523809Y-102589285D01*
X147428571Y-102696428D01*
X147333333Y-102767857D01*
X147238095Y-102803571D01*
X148142857Y-102589285D02*
X148809523Y-102589285D01*
X148380952Y-103339285D01*
%TO.C,C5*%
X137813333Y-99178571D02*
X137765714Y-99202380D01*
X137622857Y-99226190D01*
X137527619Y-99226190D01*
X137384761Y-99202380D01*
X137289523Y-99154761D01*
X137241904Y-99107142D01*
X137194285Y-99011904D01*
X137194285Y-98940476D01*
X137241904Y-98845238D01*
X137289523Y-98797619D01*
X137384761Y-98750000D01*
X137527619Y-98726190D01*
X137622857Y-98726190D01*
X137765714Y-98750000D01*
X137813333Y-98773809D01*
X138718095Y-98726190D02*
X138241904Y-98726190D01*
X138194285Y-98964285D01*
X138241904Y-98940476D01*
X138337142Y-98916666D01*
X138575238Y-98916666D01*
X138670476Y-98940476D01*
X138718095Y-98964285D01*
X138765714Y-99011904D01*
X138765714Y-99130952D01*
X138718095Y-99178571D01*
X138670476Y-99202380D01*
X138575238Y-99226190D01*
X138337142Y-99226190D01*
X138241904Y-99202380D01*
X138194285Y-99178571D01*
D11*
%TO.C,C16*%
X145127142Y-91607142D02*
X145079523Y-91654761D01*
X144936666Y-91702380D01*
X144841428Y-91702380D01*
X144698571Y-91654761D01*
X144603333Y-91559523D01*
X144555714Y-91464285D01*
X144508095Y-91273809D01*
X144508095Y-91130952D01*
X144555714Y-90940476D01*
X144603333Y-90845238D01*
X144698571Y-90750000D01*
X144841428Y-90702380D01*
X144936666Y-90702380D01*
X145079523Y-90750000D01*
X145127142Y-90797619D01*
X146079523Y-91702380D02*
X145508095Y-91702380D01*
X145793809Y-91702380D02*
X145793809Y-90702380D01*
X145698571Y-90845238D01*
X145603333Y-90940476D01*
X145508095Y-90988095D01*
X146936666Y-90702380D02*
X146746190Y-90702380D01*
X146650952Y-90750000D01*
X146603333Y-90797619D01*
X146508095Y-90940476D01*
X146460476Y-91130952D01*
X146460476Y-91511904D01*
X146508095Y-91607142D01*
X146555714Y-91654761D01*
X146650952Y-91702380D01*
X146841428Y-91702380D01*
X146936666Y-91654761D01*
X146984285Y-91607142D01*
X147031904Y-91511904D01*
X147031904Y-91273809D01*
X146984285Y-91178571D01*
X146936666Y-91130952D01*
X146841428Y-91083333D01*
X146650952Y-91083333D01*
X146555714Y-91130952D01*
X146508095Y-91178571D01*
X146460476Y-91273809D01*
%TO.C,R8*%
X129583333Y-104782380D02*
X129250000Y-104306190D01*
X129011904Y-104782380D02*
X129011904Y-103782380D01*
X129392857Y-103782380D01*
X129488095Y-103830000D01*
X129535714Y-103877619D01*
X129583333Y-103972857D01*
X129583333Y-104115714D01*
X129535714Y-104210952D01*
X129488095Y-104258571D01*
X129392857Y-104306190D01*
X129011904Y-104306190D01*
X130154761Y-104210952D02*
X130059523Y-104163333D01*
X130011904Y-104115714D01*
X129964285Y-104020476D01*
X129964285Y-103972857D01*
X130011904Y-103877619D01*
X130059523Y-103830000D01*
X130154761Y-103782380D01*
X130345238Y-103782380D01*
X130440476Y-103830000D01*
X130488095Y-103877619D01*
X130535714Y-103972857D01*
X130535714Y-104020476D01*
X130488095Y-104115714D01*
X130440476Y-104163333D01*
X130345238Y-104210952D01*
X130154761Y-104210952D01*
X130059523Y-104258571D01*
X130011904Y-104306190D01*
X129964285Y-104401428D01*
X129964285Y-104591904D01*
X130011904Y-104687142D01*
X130059523Y-104734761D01*
X130154761Y-104782380D01*
X130345238Y-104782380D01*
X130440476Y-104734761D01*
X130488095Y-104687142D01*
X130535714Y-104591904D01*
X130535714Y-104401428D01*
X130488095Y-104306190D01*
X130440476Y-104258571D01*
X130345238Y-104210952D01*
%TO.C,J2*%
X122902380Y-96583333D02*
X123616666Y-96583333D01*
X123759523Y-96630952D01*
X123854761Y-96726190D01*
X123902380Y-96869047D01*
X123902380Y-96964285D01*
X122997619Y-96154761D02*
X122950000Y-96107142D01*
X122902380Y-96011904D01*
X122902380Y-95773809D01*
X122950000Y-95678571D01*
X122997619Y-95630952D01*
X123092857Y-95583333D01*
X123188095Y-95583333D01*
X123330952Y-95630952D01*
X123902380Y-96202380D01*
X123902380Y-95583333D01*
%TO.C,J4*%
X145967380Y-113833333D02*
X146681666Y-113833333D01*
X146824523Y-113880952D01*
X146919761Y-113976190D01*
X146967380Y-114119047D01*
X146967380Y-114214285D01*
X146300714Y-112928571D02*
X146967380Y-112928571D01*
X145919761Y-113166666D02*
X146634047Y-113404761D01*
X146634047Y-112785714D01*
%TO.C,J3*%
X157416666Y-97892380D02*
X157416666Y-98606666D01*
X157369047Y-98749523D01*
X157273809Y-98844761D01*
X157130952Y-98892380D01*
X157035714Y-98892380D01*
X157797619Y-97892380D02*
X158416666Y-97892380D01*
X158083333Y-98273333D01*
X158226190Y-98273333D01*
X158321428Y-98320952D01*
X158369047Y-98368571D01*
X158416666Y-98463809D01*
X158416666Y-98701904D01*
X158369047Y-98797142D01*
X158321428Y-98844761D01*
X158226190Y-98892380D01*
X157940476Y-98892380D01*
X157845238Y-98844761D01*
X157797619Y-98797142D01*
%TO.C,C18*%
X146857142Y-104267857D02*
X146809523Y-104303571D01*
X146666666Y-104339285D01*
X146571428Y-104339285D01*
X146428571Y-104303571D01*
X146333333Y-104232142D01*
X146285714Y-104160714D01*
X146238095Y-104017857D01*
X146238095Y-103910714D01*
X146285714Y-103767857D01*
X146333333Y-103696428D01*
X146428571Y-103625000D01*
X146571428Y-103589285D01*
X146666666Y-103589285D01*
X146809523Y-103625000D01*
X146857142Y-103660714D01*
X147809523Y-104339285D02*
X147238095Y-104339285D01*
X147523809Y-104339285D02*
X147523809Y-103589285D01*
X147428571Y-103696428D01*
X147333333Y-103767857D01*
X147238095Y-103803571D01*
X148380952Y-103910714D02*
X148285714Y-103875000D01*
X148238095Y-103839285D01*
X148190476Y-103767857D01*
X148190476Y-103732142D01*
X148238095Y-103660714D01*
X148285714Y-103625000D01*
X148380952Y-103589285D01*
X148571428Y-103589285D01*
X148666666Y-103625000D01*
X148714285Y-103660714D01*
X148761904Y-103732142D01*
X148761904Y-103767857D01*
X148714285Y-103839285D01*
X148666666Y-103875000D01*
X148571428Y-103910714D01*
X148380952Y-103910714D01*
X148285714Y-103946428D01*
X148238095Y-103982142D01*
X148190476Y-104053571D01*
X148190476Y-104196428D01*
X148238095Y-104267857D01*
X148285714Y-104303571D01*
X148380952Y-104339285D01*
X148571428Y-104339285D01*
X148666666Y-104303571D01*
X148714285Y-104267857D01*
X148761904Y-104196428D01*
X148761904Y-104053571D01*
X148714285Y-103982142D01*
X148666666Y-103946428D01*
X148571428Y-103910714D01*
%TO.C,R5*%
X147083333Y-94202380D02*
X146750000Y-93726190D01*
X146511904Y-94202380D02*
X146511904Y-93202380D01*
X146892857Y-93202380D01*
X146988095Y-93250000D01*
X147035714Y-93297619D01*
X147083333Y-93392857D01*
X147083333Y-93535714D01*
X147035714Y-93630952D01*
X146988095Y-93678571D01*
X146892857Y-93726190D01*
X146511904Y-93726190D01*
X147988095Y-93202380D02*
X147511904Y-93202380D01*
X147464285Y-93678571D01*
X147511904Y-93630952D01*
X147607142Y-93583333D01*
X147845238Y-93583333D01*
X147940476Y-93630952D01*
X147988095Y-93678571D01*
X148035714Y-93773809D01*
X148035714Y-94011904D01*
X147988095Y-94107142D01*
X147940476Y-94154761D01*
X147845238Y-94202380D01*
X147607142Y-94202380D01*
X147511904Y-94154761D01*
X147464285Y-94107142D01*
%TO.C,U1*%
X136738095Y-117247380D02*
X136738095Y-118056904D01*
X136785714Y-118152142D01*
X136833333Y-118199761D01*
X136928571Y-118247380D01*
X137119047Y-118247380D01*
X137214285Y-118199761D01*
X137261904Y-118152142D01*
X137309523Y-118056904D01*
X137309523Y-117247380D01*
X138309523Y-118247380D02*
X137738095Y-118247380D01*
X138023809Y-118247380D02*
X138023809Y-117247380D01*
X137928571Y-117390238D01*
X137833333Y-117485476D01*
X137738095Y-117533095D01*
%TO.C,C19*%
X149857142Y-108517857D02*
X149809523Y-108553571D01*
X149666666Y-108589285D01*
X149571428Y-108589285D01*
X149428571Y-108553571D01*
X149333333Y-108482142D01*
X149285714Y-108410714D01*
X149238095Y-108267857D01*
X149238095Y-108160714D01*
X149285714Y-108017857D01*
X149333333Y-107946428D01*
X149428571Y-107875000D01*
X149571428Y-107839285D01*
X149666666Y-107839285D01*
X149809523Y-107875000D01*
X149857142Y-107910714D01*
X150809523Y-108589285D02*
X150238095Y-108589285D01*
X150523809Y-108589285D02*
X150523809Y-107839285D01*
X150428571Y-107946428D01*
X150333333Y-108017857D01*
X150238095Y-108053571D01*
X151285714Y-108589285D02*
X151476190Y-108589285D01*
X151571428Y-108553571D01*
X151619047Y-108517857D01*
X151714285Y-108410714D01*
X151761904Y-108267857D01*
X151761904Y-107982142D01*
X151714285Y-107910714D01*
X151666666Y-107875000D01*
X151571428Y-107839285D01*
X151380952Y-107839285D01*
X151285714Y-107875000D01*
X151238095Y-107910714D01*
X151190476Y-107982142D01*
X151190476Y-108160714D01*
X151238095Y-108232142D01*
X151285714Y-108267857D01*
X151380952Y-108303571D01*
X151571428Y-108303571D01*
X151666666Y-108267857D01*
X151714285Y-108232142D01*
X151761904Y-108160714D01*
%TO.C,SW2*%
X154666666Y-86404761D02*
X154809523Y-86452380D01*
X155047619Y-86452380D01*
X155142857Y-86404761D01*
X155190476Y-86357142D01*
X155238095Y-86261904D01*
X155238095Y-86166666D01*
X155190476Y-86071428D01*
X155142857Y-86023809D01*
X155047619Y-85976190D01*
X154857142Y-85928571D01*
X154761904Y-85880952D01*
X154714285Y-85833333D01*
X154666666Y-85738095D01*
X154666666Y-85642857D01*
X154714285Y-85547619D01*
X154761904Y-85500000D01*
X154857142Y-85452380D01*
X155095238Y-85452380D01*
X155238095Y-85500000D01*
X155571428Y-85452380D02*
X155809523Y-86452380D01*
X156000000Y-85738095D01*
X156190476Y-86452380D01*
X156428571Y-85452380D01*
X156761904Y-85547619D02*
X156809523Y-85500000D01*
X156904761Y-85452380D01*
X157142857Y-85452380D01*
X157238095Y-85500000D01*
X157285714Y-85547619D01*
X157333333Y-85642857D01*
X157333333Y-85738095D01*
X157285714Y-85880952D01*
X156714285Y-86452380D01*
X157333333Y-86452380D01*
%TO.C,R13*%
X146048501Y-69952380D02*
X145715168Y-69476190D01*
X145477073Y-69952380D02*
X145477073Y-68952380D01*
X145858025Y-68952380D01*
X145953263Y-69000000D01*
X146000882Y-69047619D01*
X146048501Y-69142857D01*
X146048501Y-69285714D01*
X146000882Y-69380952D01*
X145953263Y-69428571D01*
X145858025Y-69476190D01*
X145477073Y-69476190D01*
X147000882Y-69952380D02*
X146429454Y-69952380D01*
X146715168Y-69952380D02*
X146715168Y-68952380D01*
X146619930Y-69095238D01*
X146524692Y-69190476D01*
X146429454Y-69238095D01*
X147334216Y-68952380D02*
X147953263Y-68952380D01*
X147619930Y-69333333D01*
X147762787Y-69333333D01*
X147858025Y-69380952D01*
X147905644Y-69428571D01*
X147953263Y-69523809D01*
X147953263Y-69761904D01*
X147905644Y-69857142D01*
X147858025Y-69904761D01*
X147762787Y-69952380D01*
X147477073Y-69952380D01*
X147381835Y-69904761D01*
X147334216Y-69857142D01*
%TO.C,C21*%
X149857142Y-107517857D02*
X149809523Y-107553571D01*
X149666666Y-107589285D01*
X149571428Y-107589285D01*
X149428571Y-107553571D01*
X149333333Y-107482142D01*
X149285714Y-107410714D01*
X149238095Y-107267857D01*
X149238095Y-107160714D01*
X149285714Y-107017857D01*
X149333333Y-106946428D01*
X149428571Y-106875000D01*
X149571428Y-106839285D01*
X149666666Y-106839285D01*
X149809523Y-106875000D01*
X149857142Y-106910714D01*
X150238095Y-106910714D02*
X150285714Y-106875000D01*
X150380952Y-106839285D01*
X150619047Y-106839285D01*
X150714285Y-106875000D01*
X150761904Y-106910714D01*
X150809523Y-106982142D01*
X150809523Y-107053571D01*
X150761904Y-107160714D01*
X150190476Y-107589285D01*
X150809523Y-107589285D01*
X151761904Y-107589285D02*
X151190476Y-107589285D01*
X151476190Y-107589285D02*
X151476190Y-106839285D01*
X151380952Y-106946428D01*
X151285714Y-107017857D01*
X151190476Y-107053571D01*
%TO.C,SW1*%
X117666666Y-86404761D02*
X117809523Y-86452380D01*
X118047619Y-86452380D01*
X118142857Y-86404761D01*
X118190476Y-86357142D01*
X118238095Y-86261904D01*
X118238095Y-86166666D01*
X118190476Y-86071428D01*
X118142857Y-86023809D01*
X118047619Y-85976190D01*
X117857142Y-85928571D01*
X117761904Y-85880952D01*
X117714285Y-85833333D01*
X117666666Y-85738095D01*
X117666666Y-85642857D01*
X117714285Y-85547619D01*
X117761904Y-85500000D01*
X117857142Y-85452380D01*
X118095238Y-85452380D01*
X118238095Y-85500000D01*
X118571428Y-85452380D02*
X118809523Y-86452380D01*
X119000000Y-85738095D01*
X119190476Y-86452380D01*
X119428571Y-85452380D01*
X120333333Y-86452380D02*
X119761904Y-86452380D01*
X120047619Y-86452380D02*
X120047619Y-85452380D01*
X119952380Y-85595238D01*
X119857142Y-85690476D01*
X119761904Y-85738095D01*
D13*
%TO.C,R6*%
X145153641Y-96130000D02*
X144846359Y-96130000D01*
X145153641Y-95370000D02*
X144846359Y-95370000D01*
%TO.C,C24*%
X143162164Y-93140000D02*
X143377836Y-93140000D01*
X143162164Y-93860000D02*
X143377836Y-93860000D01*
%TO.C,C11*%
X132107836Y-91860000D02*
X131892164Y-91860000D01*
X132107836Y-91140000D02*
X131892164Y-91140000D01*
%TO.C,C13*%
X132107836Y-89140000D02*
X131892164Y-89140000D01*
X132107836Y-89860000D02*
X131892164Y-89860000D01*
%TO.C,C8*%
X139640000Y-66622164D02*
X139640000Y-66837836D01*
X140360000Y-66622164D02*
X140360000Y-66837836D01*
%TO.C,ENC1*%
X130070000Y-83020000D02*
X129070000Y-83020000D01*
X130070000Y-72980000D02*
X130070000Y-73980000D01*
X124680000Y-83020000D02*
X125480000Y-83020000D01*
X130070000Y-72980000D02*
X129070000Y-72980000D01*
X130070000Y-83020000D02*
X130070000Y-82020000D01*
X124680000Y-83020000D02*
X124680000Y-82020000D01*
X124680000Y-72980000D02*
X124680000Y-73980000D01*
X124680000Y-72980000D02*
X125480000Y-72980000D01*
%TO.C,C14*%
X136162164Y-87640000D02*
X136377836Y-87640000D01*
X136162164Y-88360000D02*
X136377836Y-88360000D01*
%TO.C,C20*%
X144642164Y-109610000D02*
X144857836Y-109610000D01*
X144642164Y-108890000D02*
X144857836Y-108890000D01*
D14*
%TO.C,D3*%
X141965000Y-94750000D02*
G75*
G03*
X141965000Y-94750000I-50000J0D01*
G01*
D15*
%TO.C,J1*%
X142290000Y-54400000D02*
X132710000Y-54400000D01*
X142290000Y-59650000D02*
X142290000Y-58400000D01*
X142290000Y-55680000D02*
X142290000Y-54400000D01*
X132710000Y-54400000D02*
X132710000Y-55680000D01*
X132710000Y-59650000D02*
X132710000Y-58400000D01*
D13*
%TO.C,L1*%
X133022500Y-87237258D02*
X133022500Y-86762742D01*
X131977500Y-87237258D02*
X131977500Y-86762742D01*
D14*
%TO.C,D4*%
X141960000Y-95750000D02*
G75*
G03*
X141960000Y-95750000I-50000J0D01*
G01*
D13*
%TO.C,C2*%
X148392164Y-105610000D02*
X148607836Y-105610000D01*
X148392164Y-104890000D02*
X148607836Y-104890000D01*
%TO.C,U3*%
X148900000Y-106100000D02*
X148900000Y-107650000D01*
X147100000Y-107650000D02*
X147100000Y-106350000D01*
%TO.C,C4*%
X136087836Y-98360000D02*
X135872164Y-98360000D01*
X136087836Y-97640000D02*
X135872164Y-97640000D01*
%TO.C,C15*%
X145610000Y-88107836D02*
X145610000Y-87892164D01*
X144890000Y-88107836D02*
X144890000Y-87892164D01*
%TO.C,R4*%
X122403641Y-87630000D02*
X122096359Y-87630000D01*
X122403641Y-86870000D02*
X122096359Y-86870000D01*
%TO.C,Y1*%
X144450000Y-88900000D02*
X144450000Y-86200000D01*
X142150000Y-88900000D02*
X144450000Y-88900000D01*
%TO.C,C1*%
X133140000Y-64642164D02*
X133140000Y-64857836D01*
X133860000Y-64642164D02*
X133860000Y-64857836D01*
%TO.C,C23*%
X142912164Y-85860000D02*
X143127836Y-85860000D01*
X142912164Y-85140000D02*
X143127836Y-85140000D01*
%TO.C,C6*%
X142872164Y-90140000D02*
X143087836Y-90140000D01*
X142872164Y-90860000D02*
X143087836Y-90860000D01*
D14*
%TO.C,D5*%
X130140000Y-111250000D02*
G75*
G03*
X130140000Y-111250000I-50000J0D01*
G01*
D13*
%TO.C,C12*%
X132107836Y-90140000D02*
X131892164Y-90140000D01*
X132107836Y-90860000D02*
X131892164Y-90860000D01*
D16*
%TO.C,U4*%
X142625000Y-65930000D02*
X141375000Y-65930000D01*
X142625000Y-67570000D02*
X141375000Y-67570000D01*
D15*
X143575000Y-67150000D02*
G75*
G03*
X143575000Y-67150000I-100000J0D01*
G01*
D13*
%TO.C,C22*%
X144642164Y-105890000D02*
X144857836Y-105890000D01*
X144642164Y-106610000D02*
X144857836Y-106610000D01*
D14*
%TO.C,D2*%
X119210000Y-87250000D02*
G75*
G03*
X119210000Y-87250000I-50000J0D01*
G01*
%TO.C,D7*%
X159050000Y-96910000D02*
G75*
G03*
X159050000Y-96910000I-50000J0D01*
G01*
D13*
%TO.C,SW3*%
X152020000Y-86520000D02*
X151020000Y-86520000D01*
X145980000Y-86520000D02*
X145980000Y-85520000D01*
X152020000Y-73480000D02*
X152020000Y-74480000D01*
X152020000Y-86520000D02*
X152020000Y-85520000D01*
X145980000Y-73480000D02*
X146980000Y-73480000D01*
X152020000Y-73480000D02*
X151020000Y-73480000D01*
X145980000Y-86520000D02*
X146980000Y-86520000D01*
X148100000Y-77500000D02*
X149900000Y-77500000D01*
X148100000Y-78600000D02*
X149900000Y-78600000D01*
X145980000Y-73480000D02*
X145980000Y-74480000D01*
X149900000Y-78600000D02*
G75*
G03*
X149900000Y-77500000I0J550000D01*
G01*
X148100000Y-77500000D02*
G75*
G03*
X148100000Y-78600000I0J-550000D01*
G01*
%TO.C,C9*%
X139392164Y-87640000D02*
X139607836Y-87640000D01*
X139392164Y-88360000D02*
X139607836Y-88360000D01*
%TO.C,R1*%
X132880000Y-64596359D02*
X132880000Y-64903641D01*
X132120000Y-64596359D02*
X132120000Y-64903641D01*
%TO.C,C3*%
X134107836Y-98360000D02*
X133892164Y-98360000D01*
X134107836Y-97640000D02*
X133892164Y-97640000D01*
%TO.C,R7*%
X126836359Y-111630000D02*
X127143641Y-111630000D01*
X126836359Y-110870000D02*
X127143641Y-110870000D01*
%TO.C,R2*%
X139620000Y-63903641D02*
X139620000Y-63596359D01*
X140380000Y-63903641D02*
X140380000Y-63596359D01*
D14*
%TO.C,D6*%
X150140000Y-68250000D02*
G75*
G03*
X150140000Y-68250000I-50000J0D01*
G01*
D13*
%TO.C,C17*%
X144857836Y-103360000D02*
X144642164Y-103360000D01*
X144857836Y-102640000D02*
X144642164Y-102640000D01*
%TO.C,C7*%
X147642164Y-109110000D02*
X147857836Y-109110000D01*
X147642164Y-108390000D02*
X147857836Y-108390000D01*
%TO.C,C5*%
X138087836Y-97640000D02*
X137872164Y-97640000D01*
X138087836Y-98360000D02*
X137872164Y-98360000D01*
%TO.C,C16*%
X143142164Y-92140000D02*
X143357836Y-92140000D01*
X143142164Y-92860000D02*
X143357836Y-92860000D01*
%TO.C,R8*%
X129596359Y-105120000D02*
X129903641Y-105120000D01*
X129596359Y-105880000D02*
X129903641Y-105880000D01*
%TO.C,J2*%
X126710000Y-99860000D02*
X127860000Y-99860000D01*
X127860000Y-99860000D02*
X127860000Y-98810000D01*
X124740000Y-98690000D02*
X124740000Y-93810000D01*
X126710000Y-92640000D02*
X127860000Y-92640000D01*
X127860000Y-92640000D02*
X127860000Y-93690000D01*
X127860000Y-98810000D02*
X128850000Y-98810000D01*
%TO.C,J4*%
X147515000Y-111735000D02*
X147580000Y-111735000D01*
X153920000Y-111735000D02*
X153985000Y-111735000D01*
X153985000Y-115265000D02*
X153985000Y-111735000D01*
X147580000Y-116590000D02*
X147580000Y-115265000D01*
X153920000Y-115265000D02*
X153985000Y-115265000D01*
X147515000Y-115265000D02*
X147580000Y-115265000D01*
X147515000Y-115265000D02*
X147515000Y-111735000D01*
%TO.C,J3*%
X158810000Y-101500000D02*
X158810000Y-111560000D01*
X156690000Y-99440000D02*
X157750000Y-99440000D01*
X156690000Y-100500000D02*
X156690000Y-99440000D01*
X156690000Y-101500000D02*
X156690000Y-111560000D01*
X156690000Y-111560000D02*
X158810000Y-111560000D01*
X156690000Y-101500000D02*
X158810000Y-101500000D01*
%TO.C,C18*%
X144857836Y-103640000D02*
X144642164Y-103640000D01*
X144857836Y-104360000D02*
X144642164Y-104360000D01*
%TO.C,R5*%
X145163641Y-94370000D02*
X144856359Y-94370000D01*
X145163641Y-95130000D02*
X144856359Y-95130000D01*
%TO.C,D1*%
X137196148Y-63501400D02*
X137804540Y-63501400D01*
X136801843Y-65375961D02*
X136801843Y-64624039D01*
X138198843Y-64624040D02*
X138198843Y-64969560D01*
X137804540Y-66498600D02*
X137196148Y-66498600D01*
%TO.C,U1*%
X142150000Y-115235000D02*
X143550000Y-115235000D01*
D16*
%TO.C,IC1*%
X140500000Y-96550000D02*
X141050000Y-96000000D01*
X140500000Y-96550000D02*
X133950000Y-96550000D01*
X133950000Y-96550000D02*
X133950000Y-89450000D01*
X141050000Y-89450000D02*
X141050000Y-96000000D01*
X133950000Y-89450000D02*
X141050000Y-89450000D01*
D15*
X141100000Y-96500000D02*
G75*
G03*
X141100000Y-96500000I-100000J0D01*
G01*
D13*
%TO.C,C19*%
X144642164Y-107890000D02*
X144857836Y-107890000D01*
X144642164Y-108610000D02*
X144857836Y-108610000D01*
%TO.C,SW2*%
X152980000Y-71480000D02*
X153980000Y-71480000D01*
X152980000Y-71480000D02*
X152980000Y-72480000D01*
X152980000Y-84520000D02*
X153980000Y-84520000D01*
X159020000Y-71480000D02*
X159020000Y-72480000D01*
X159020000Y-84520000D02*
X158020000Y-84520000D01*
X155100000Y-75500000D02*
X156900000Y-75500000D01*
X159020000Y-71480000D02*
X158020000Y-71480000D01*
X159020000Y-84520000D02*
X159020000Y-83520000D01*
X155100000Y-76600000D02*
X156900000Y-76600000D01*
X152980000Y-84520000D02*
X152980000Y-83520000D01*
X156900000Y-76600000D02*
G75*
G03*
X156900000Y-75500000I0J550000D01*
G01*
X155100000Y-75500000D02*
G75*
G03*
X155100000Y-76600000I0J-550000D01*
G01*
%TO.C,R13*%
X146691359Y-67870000D02*
X146998641Y-67870000D01*
X146691359Y-68630000D02*
X146998641Y-68630000D01*
%TO.C,C21*%
X144662164Y-106890000D02*
X144877836Y-106890000D01*
X144662164Y-107610000D02*
X144877836Y-107610000D01*
%TO.C,C10*%
X143890000Y-66877836D02*
X143890000Y-66662164D01*
X144610000Y-66877836D02*
X144610000Y-66662164D01*
%TO.C,SW1*%
X118100000Y-75500000D02*
X119900000Y-75500000D01*
X118100000Y-76600000D02*
X119900000Y-76600000D01*
X122020000Y-71480000D02*
X122020000Y-72480000D01*
X122020000Y-84520000D02*
X121020000Y-84520000D01*
X122020000Y-71480000D02*
X121020000Y-71480000D01*
X115980000Y-71480000D02*
X115980000Y-72480000D01*
X115980000Y-71480000D02*
X116980000Y-71480000D01*
X115980000Y-84520000D02*
X115980000Y-83520000D01*
X122020000Y-84520000D02*
X122020000Y-83520000D01*
X115980000Y-84520000D02*
X116980000Y-84520000D01*
X118100000Y-75500000D02*
G75*
G03*
X118100000Y-76600000I0J-550000D01*
G01*
X119900000Y-76600000D02*
G75*
G03*
X119900000Y-75500000I0J550000D01*
G01*
%TO.C,R3*%
X134120000Y-64903641D02*
X134120000Y-64596359D01*
X134880000Y-64903641D02*
X134880000Y-64596359D01*
%TD*%
%LPC*%
D17*
%TO.C,R6*%
X145510000Y-95750000D03*
X144490000Y-95750000D03*
%TD*%
D18*
%TO.C,FB1*%
X140985000Y-65250000D03*
X140015000Y-65250000D03*
%TD*%
D19*
%TO.C,C24*%
X142790000Y-93500000D03*
X143750000Y-93500000D03*
%TD*%
D20*
%TO.C,C11*%
X132480000Y-91500000D03*
X131520000Y-91500000D03*
%TD*%
D21*
%TO.C,REF\u002A\u002A*%
X157000000Y-68000000D03*
%TD*%
D20*
%TO.C,C13*%
X132480000Y-89500000D03*
X131520000Y-89500000D03*
%TD*%
D22*
%TO.C,C8*%
X140000000Y-66250000D03*
X140000000Y-67210000D03*
%TD*%
D23*
%TO.C,ENC1*%
X129000000Y-80500000D03*
X129000000Y-78000000D03*
X129000000Y-75500000D03*
D24*
X127000000Y-72800000D03*
X127000000Y-83200000D03*
%TD*%
D19*
%TO.C,C14*%
X135790000Y-88000000D03*
X136750000Y-88000000D03*
%TD*%
%TO.C,C20*%
X144270000Y-109250000D03*
X145230000Y-109250000D03*
%TD*%
D25*
%TO.C,D3*%
X142520000Y-94750000D03*
X143490000Y-94750000D03*
%TD*%
D21*
%TO.C,REF\u002A\u002A*%
X157000000Y-116000000D03*
%TD*%
D26*
%TO.C,J1*%
X134610000Y-60680000D03*
X140390000Y-60680000D03*
D27*
X140700000Y-61755000D03*
X139900000Y-61755000D03*
D28*
X138750000Y-61755000D03*
X137750000Y-61755000D03*
X137250000Y-61755000D03*
X136250000Y-61755000D03*
D27*
X134300000Y-61755000D03*
X135100000Y-61755000D03*
D28*
X135750000Y-61755000D03*
X136750000Y-61755000D03*
X138250000Y-61755000D03*
X139250000Y-61755000D03*
D29*
X141820000Y-61180000D03*
D30*
X141820000Y-57000000D03*
X133180000Y-57000000D03*
D29*
X133180000Y-61180000D03*
%TD*%
D31*
%TO.C,L1*%
X132500000Y-87825000D03*
X132500000Y-86175000D03*
%TD*%
D25*
%TO.C,D4*%
X142515000Y-95750000D03*
X143485000Y-95750000D03*
%TD*%
D19*
%TO.C,C2*%
X148020000Y-105250000D03*
X148980000Y-105250000D03*
%TD*%
D21*
%TO.C,REF\u002A\u002A*%
X118000000Y-116000000D03*
%TD*%
D32*
%TO.C,U3*%
X148500000Y-106300000D03*
X148000000Y-106300000D03*
X147500000Y-106300000D03*
X147500000Y-107700000D03*
X148500000Y-107700000D03*
%TD*%
D21*
%TO.C,REF\u002A\u002A*%
X118000000Y-68000000D03*
%TD*%
D20*
%TO.C,C4*%
X136460000Y-98000000D03*
X135500000Y-98000000D03*
%TD*%
D33*
%TO.C,C15*%
X145250000Y-88480000D03*
X145250000Y-87520000D03*
%TD*%
D17*
%TO.C,R4*%
X122760000Y-87250000D03*
X121740000Y-87250000D03*
%TD*%
D34*
%TO.C,Y1*%
X143850000Y-88250000D03*
X143850000Y-86850000D03*
X142750000Y-86850000D03*
X142750000Y-88250000D03*
%TD*%
D22*
%TO.C,C1*%
X133500000Y-64270000D03*
X133500000Y-65230000D03*
%TD*%
D19*
%TO.C,C23*%
X142540000Y-85500000D03*
X143500000Y-85500000D03*
%TD*%
%TO.C,C6*%
X142500000Y-90500000D03*
X143460000Y-90500000D03*
%TD*%
D18*
%TO.C,D5*%
X129485000Y-111250000D03*
X128515000Y-111250000D03*
%TD*%
D20*
%TO.C,C12*%
X132480000Y-90500000D03*
X131520000Y-90500000D03*
%TD*%
D35*
%TO.C,U4*%
X142625000Y-67150000D03*
X142625000Y-66750000D03*
X142625000Y-66350000D03*
X141375000Y-66350000D03*
X141375000Y-66750000D03*
X141375000Y-67150000D03*
D36*
X142000000Y-66750000D03*
%TD*%
D19*
%TO.C,C22*%
X144270000Y-106250000D03*
X145230000Y-106250000D03*
%TD*%
D25*
%TO.C,D2*%
X119765000Y-87250000D03*
X120735000Y-87250000D03*
%TD*%
D37*
%TO.C,D7*%
X159000000Y-97515000D03*
X159000000Y-98485000D03*
%TD*%
D23*
%TO.C,SW3*%
X149000000Y-74920000D03*
X149000000Y-80000000D03*
X149000000Y-85080000D03*
%TD*%
D19*
%TO.C,C9*%
X139020000Y-88000000D03*
X139980000Y-88000000D03*
%TD*%
D38*
%TO.C,R1*%
X132500000Y-64240000D03*
X132500000Y-65260000D03*
%TD*%
D20*
%TO.C,C3*%
X134480000Y-98000000D03*
X133520000Y-98000000D03*
%TD*%
D39*
%TO.C,R7*%
X126480000Y-111250000D03*
X127500000Y-111250000D03*
%TD*%
D40*
%TO.C,R2*%
X140000000Y-64260000D03*
X140000000Y-63240000D03*
%TD*%
D18*
%TO.C,D6*%
X149485000Y-68250000D03*
X148515000Y-68250000D03*
%TD*%
D20*
%TO.C,C17*%
X145230000Y-103000000D03*
X144270000Y-103000000D03*
%TD*%
D19*
%TO.C,C7*%
X147270000Y-108750000D03*
X148230000Y-108750000D03*
%TD*%
D20*
%TO.C,C5*%
X138460000Y-98000000D03*
X137500000Y-98000000D03*
%TD*%
D19*
%TO.C,C16*%
X142770000Y-92500000D03*
X143730000Y-92500000D03*
%TD*%
D39*
%TO.C,R8*%
X129240000Y-105500000D03*
X130260000Y-105500000D03*
%TD*%
D41*
%TO.C,J2*%
X128075000Y-98250000D03*
X128075000Y-97250000D03*
X128075000Y-96250000D03*
X128075000Y-95250000D03*
X128075000Y-94250000D03*
D42*
X125550000Y-99550000D03*
X125550000Y-92950000D03*
%TD*%
D43*
%TO.C,J4*%
X148210000Y-115450000D03*
X148210000Y-111550000D03*
X149480000Y-115450000D03*
X149480000Y-111550000D03*
X150750000Y-115450000D03*
X150750000Y-111550000D03*
X152020000Y-115450000D03*
X152020000Y-111550000D03*
X153290000Y-115450000D03*
X153290000Y-111550000D03*
%TD*%
D44*
%TO.C,J3*%
X157750000Y-100500000D03*
D45*
X157750000Y-102500000D03*
X157750000Y-104500000D03*
X157750000Y-106500000D03*
X157750000Y-108500000D03*
X157750000Y-110500000D03*
%TD*%
D20*
%TO.C,C18*%
X145230000Y-104000000D03*
X144270000Y-104000000D03*
%TD*%
D17*
%TO.C,R5*%
X145520000Y-94750000D03*
X144500000Y-94750000D03*
%TD*%
D46*
%TO.C,D1*%
X138516343Y-65746800D03*
D47*
X138516343Y-64050000D03*
X136484343Y-64049999D03*
X136484343Y-65950001D03*
%TD*%
D48*
%TO.C,U1*%
X142850000Y-113985000D03*
D49*
X142850000Y-112205000D03*
X142850000Y-110425000D03*
X142850000Y-108645000D03*
X142850000Y-106865000D03*
X142850000Y-105085000D03*
X142850000Y-103305000D03*
X142850000Y-101525000D03*
X132150000Y-100635000D03*
X132150000Y-102415000D03*
X132150000Y-104195000D03*
X132150000Y-105975000D03*
X132150000Y-107755000D03*
X132150000Y-109535000D03*
X132150000Y-111315000D03*
X132150000Y-113095000D03*
%TD*%
D50*
%TO.C,IC1*%
X140500000Y-96000000D03*
X140000000Y-96000000D03*
X139500000Y-96000000D03*
X138500000Y-96000000D03*
X138000000Y-96000000D03*
X137500000Y-96000000D03*
X137000000Y-96000000D03*
X136500000Y-96000000D03*
X135500000Y-96000000D03*
X135000000Y-96000000D03*
X134500000Y-96000000D03*
X140500000Y-95500000D03*
X140000000Y-95500000D03*
X139500000Y-95500000D03*
X138500000Y-95500000D03*
X137000000Y-95500000D03*
X136500000Y-95500000D03*
X135000000Y-95500000D03*
X134500000Y-95500000D03*
X140500000Y-95000000D03*
X140000000Y-95000000D03*
X137500000Y-95000000D03*
X135000000Y-95000000D03*
X134500000Y-95000000D03*
X140000000Y-94000000D03*
X138500000Y-94000000D03*
X138000000Y-94000000D03*
X137500000Y-94000000D03*
X137000000Y-94000000D03*
X136500000Y-94000000D03*
X135000000Y-94000000D03*
X134500000Y-94000000D03*
X140500000Y-93500000D03*
X140000000Y-93500000D03*
X138500000Y-93500000D03*
X137000000Y-93500000D03*
X136500000Y-93500000D03*
X135000000Y-93500000D03*
X134500000Y-93500000D03*
X140500000Y-93000000D03*
X140000000Y-93000000D03*
X139500000Y-93000000D03*
X138500000Y-93000000D03*
X138000000Y-93000000D03*
X137000000Y-93000000D03*
X135500000Y-93000000D03*
X135000000Y-93000000D03*
X134500000Y-93000000D03*
X140500000Y-92500000D03*
X140000000Y-92500000D03*
X138500000Y-92500000D03*
X137000000Y-92500000D03*
X135000000Y-92500000D03*
X134500000Y-92500000D03*
X140500000Y-92000000D03*
X140000000Y-92000000D03*
X138500000Y-92000000D03*
X138000000Y-92000000D03*
X137500000Y-92000000D03*
X135000000Y-92000000D03*
X134500000Y-92000000D03*
X140500000Y-91000000D03*
X140000000Y-91000000D03*
X137500000Y-91000000D03*
X135000000Y-91000000D03*
X134500000Y-91000000D03*
X140500000Y-90500000D03*
X140000000Y-90500000D03*
X139500000Y-90500000D03*
X138500000Y-90500000D03*
X138000000Y-90500000D03*
X137500000Y-90500000D03*
X137000000Y-90500000D03*
X136500000Y-90500000D03*
X135500000Y-90500000D03*
X135000000Y-90500000D03*
X134500000Y-90500000D03*
X140500000Y-90000000D03*
X140000000Y-90000000D03*
X139500000Y-90000000D03*
X138500000Y-90000000D03*
X138000000Y-90000000D03*
X137500000Y-90000000D03*
X136500000Y-90000000D03*
X135500000Y-90000000D03*
X135000000Y-90000000D03*
X134500000Y-90000000D03*
%TD*%
D19*
%TO.C,C19*%
X144270000Y-108250000D03*
X145230000Y-108250000D03*
%TD*%
D23*
%TO.C,SW2*%
X156000000Y-72920000D03*
X156000000Y-78000000D03*
X156000000Y-83080000D03*
%TD*%
D51*
%TO.C,F1*%
X141000000Y-64235000D03*
X141000000Y-63265000D03*
%TD*%
D39*
%TO.C,R13*%
X146335000Y-68250000D03*
X147355000Y-68250000D03*
%TD*%
D19*
%TO.C,C21*%
X144290000Y-107250000D03*
X145250000Y-107250000D03*
%TD*%
D33*
%TO.C,C10*%
X144250000Y-67250000D03*
X144250000Y-66290000D03*
%TD*%
D23*
%TO.C,SW1*%
X119000000Y-72920000D03*
X119000000Y-78000000D03*
X119000000Y-83080000D03*
%TD*%
D40*
%TO.C,R3*%
X134500000Y-65260000D03*
X134500000Y-64240000D03*
%TD*%
M02*
