%TF.GenerationSoftware,KiCad,Pcbnew,6.0.9+dfsg-1*%
%TF.CreationDate,2023-01-18T23:30:58-08:00*%
%TF.ProjectId,redshift,72656473-6869-4667-942e-6b696361645f,0.2*%
%TF.SameCoordinates,Original*%
%TF.FileFunction,Copper,L3,Inr*%
%TF.FilePolarity,Positive*%
%FSLAX46Y46*%
G04 Gerber Fmt 4.6, Leading zero omitted, Abs format (unit mm)*
G04 Created by KiCad (PCBNEW 6.0.9+dfsg-1) date 2023-01-18 23:30:58*
%MOMM*%
%LPD*%
G01*
G04 APERTURE LIST*
%TA.AperFunction,ComponentPad*%
%ADD10C,1.700000*%
%TD*%
%TA.AperFunction,ComponentPad*%
%ADD11O,2.700000X1.700000*%
%TD*%
%TA.AperFunction,ComponentPad*%
%ADD12O,1.050000X2.100000*%
%TD*%
%TA.AperFunction,ComponentPad*%
%ADD13O,1.000000X2.000000*%
%TD*%
%TA.AperFunction,ComponentPad*%
%ADD14R,1.350000X1.350000*%
%TD*%
%TA.AperFunction,ComponentPad*%
%ADD15O,1.350000X1.350000*%
%TD*%
%TA.AperFunction,ComponentPad*%
%ADD16R,1.400000X1.400000*%
%TD*%
%TA.AperFunction,ComponentPad*%
%ADD17C,1.400000*%
%TD*%
%TA.AperFunction,ViaPad*%
%ADD18C,0.450000*%
%TD*%
%TA.AperFunction,ViaPad*%
%ADD19C,0.500000*%
%TD*%
%TA.AperFunction,ViaPad*%
%ADD20C,0.800000*%
%TD*%
%TA.AperFunction,Conductor*%
%ADD21C,0.250000*%
%TD*%
%TA.AperFunction,Conductor*%
%ADD22C,0.450000*%
%TD*%
G04 APERTURE END LIST*
D10*
%TO.N,/ENC_A*%
%TO.C,ENC1*%
X129000000Y-80500000D03*
%TO.N,/ENC_B*%
X129000000Y-78000000D03*
%TO.N,GND*%
X129000000Y-75500000D03*
D11*
%TO.N,N/C*%
X127000000Y-72800000D03*
X127000000Y-83200000D03*
%TD*%
D12*
%TO.N,/SH*%
%TO.C,J1*%
X141820000Y-61180000D03*
D13*
X141820000Y-57000000D03*
X133180000Y-57000000D03*
D12*
X133180000Y-61180000D03*
%TD*%
D10*
%TO.N,GND*%
%TO.C,SW3*%
X149000000Y-74920000D03*
%TO.N,/SW3_M_NO*%
X149000000Y-80000000D03*
%TO.N,/SW3_M_NC*%
X149000000Y-85080000D03*
%TD*%
D14*
%TO.N,GND*%
%TO.C,J3*%
X157750000Y-100500000D03*
D15*
%TO.N,/DBG_VIN*%
X157750000Y-102500000D03*
%TO.N,/RESET*%
X157750000Y-104500000D03*
%TO.N,/SWDIO*%
X157750000Y-106500000D03*
%TO.N,/SWO*%
X157750000Y-108500000D03*
%TO.N,/SWCLK*%
X157750000Y-110500000D03*
%TD*%
D16*
%TO.N,N/C*%
%TO.C,U1*%
X142850000Y-113985000D03*
D17*
X142850000Y-112205000D03*
%TO.N,GND*%
X142850000Y-110425000D03*
%TO.N,+1V9*%
X142850000Y-108645000D03*
%TO.N,Net-(C21-Pad1)*%
X142850000Y-106865000D03*
%TO.N,unconnected-(U1-Pad6)*%
X142850000Y-105085000D03*
%TO.N,+3V3*%
X142850000Y-103305000D03*
%TO.N,GND*%
X142850000Y-101525000D03*
%TO.N,/SNSR_MTN*%
X132150000Y-100635000D03*
%TO.N,/FC0_SCK*%
X132150000Y-102415000D03*
%TO.N,/FC0_MOSI*%
X132150000Y-104195000D03*
%TO.N,/FC0_MISO*%
X132150000Y-105975000D03*
%TO.N,/FC0_CS1*%
X132150000Y-107755000D03*
%TO.N,/SNSR_RST*%
X132150000Y-109535000D03*
%TO.N,Net-(R7-Pad2)*%
X132150000Y-111315000D03*
%TO.N,N/C*%
X132150000Y-113095000D03*
%TD*%
D10*
%TO.N,GND*%
%TO.C,SW2*%
X156000000Y-72920000D03*
%TO.N,/SW2_R_NO*%
X156000000Y-78000000D03*
%TO.N,/SW2_R_NC*%
X156000000Y-83080000D03*
%TD*%
%TO.N,GND*%
%TO.C,SW1*%
X119000000Y-72920000D03*
%TO.N,/SW1_L_NO*%
X119000000Y-78000000D03*
%TO.N,/SW1_L_NC*%
X119000000Y-83080000D03*
%TD*%
D18*
%TO.N,+5V*%
X146750000Y-70500000D03*
D19*
X140700000Y-66000000D03*
X146000000Y-102000000D03*
%TO.N,+3V3*%
X138800000Y-90325000D03*
X129150000Y-100225000D03*
X122774500Y-85400000D03*
X146400000Y-67100000D03*
X129000000Y-91925000D03*
X123155000Y-100345000D03*
X117025000Y-92400000D03*
X117625000Y-95425000D03*
X128625000Y-105050000D03*
X139750000Y-96575000D03*
D20*
X157475000Y-116175000D03*
D19*
%TO.N,+1V9*%
X147250000Y-109550000D03*
%TO.N,/USB_D+*%
X136250000Y-64500000D03*
X128975000Y-93925000D03*
%TO.N,/USB_D-*%
X138750000Y-64500000D03*
X128600000Y-93175000D03*
%TO.N,/VBUS_*%
X136000000Y-60250000D03*
X159000000Y-95500000D03*
X140718767Y-62781233D03*
X139000000Y-60250000D03*
X139759355Y-62504544D03*
%TO.N,/USB1_LED*%
X137025000Y-93275000D03*
X125500000Y-89250000D03*
%TO.N,/RESET*%
X150550000Y-103900000D03*
X128825000Y-94800000D03*
%TO.N,GND*%
X142000000Y-62750000D03*
X129825000Y-100850000D03*
X134000000Y-65250000D03*
X131525000Y-94350000D03*
X150750000Y-114000000D03*
X139000000Y-67250000D03*
X119025000Y-105825000D03*
D20*
X152750000Y-117875000D03*
D19*
X138250000Y-91275000D03*
X153250000Y-114000000D03*
X150500000Y-68250000D03*
X145400000Y-111900000D03*
X149500000Y-114000000D03*
X149100000Y-108750000D03*
X123195000Y-101305000D03*
X124925000Y-95150000D03*
X140000000Y-63909500D03*
X135128530Y-96137233D03*
X116000000Y-92450000D03*
X132000000Y-65250000D03*
X147750000Y-103750000D03*
X145580000Y-105080000D03*
X123150000Y-83700000D03*
X122325000Y-92250000D03*
X133374500Y-62750000D03*
%TO.N,/FAULT_LED*%
X138625000Y-93250000D03*
X126387171Y-88904057D03*
%TO.N,/USER_LED*%
X125950000Y-90050000D03*
X134875000Y-93650000D03*
%TO.N,/SW2_R_NO*%
X127225000Y-85549500D03*
%TO.N,/SW2_R_NC*%
X128200000Y-86049500D03*
%TO.N,/SW3_M_NO*%
X125650000Y-84800000D03*
%TO.N,/SW3_M_NC*%
X126425000Y-85150000D03*
D20*
%TO.N,/ENC_B*%
X121400000Y-79075000D03*
%TO.N,/ENC_A*%
X122300000Y-79674500D03*
D19*
%TO.N,/SWO*%
X150750000Y-112874500D03*
X126925000Y-97450000D03*
X155250000Y-109274500D03*
%TO.N,/SWCLK*%
X123725000Y-97250000D03*
X154250000Y-108500000D03*
%TO.N,/SWDIO*%
X153500000Y-107500000D03*
X123275000Y-96550000D03*
%TO.N,/SNSR_MTN*%
X122125000Y-93875000D03*
%TO.N,/ISP*%
X149150000Y-103725000D03*
X150000000Y-106500000D03*
X121825000Y-92975000D03*
X152000000Y-110250000D03*
%TO.N,/DBG_VIN*%
X159000000Y-98000000D03*
X148250000Y-114000000D03*
%TO.N,/FC0_MISO*%
X120350000Y-95000000D03*
%TO.N,/FC0_SCK*%
X122450000Y-88725000D03*
%TO.N,/FC0_MOSI*%
X121024260Y-94419223D03*
%TD*%
D21*
%TO.N,+5V*%
X147250000Y-71750000D02*
X146375000Y-70875000D01*
X146750000Y-70500000D02*
X146375000Y-70875000D01*
X141500000Y-66000000D02*
X146375000Y-70875000D01*
X147250000Y-100750000D02*
X147250000Y-71750000D01*
X140700000Y-66000000D02*
X141500000Y-66000000D01*
X146000000Y-102000000D02*
X147250000Y-100750000D01*
D22*
%TO.N,/VBUS_*%
X140718767Y-62781233D02*
X140036044Y-62781233D01*
D21*
X139759355Y-62504544D02*
X139759355Y-61009355D01*
D22*
X140036044Y-62781233D02*
X139759355Y-62504544D01*
D21*
X139759355Y-61009355D02*
X139000000Y-60250000D01*
D22*
X159000000Y-73250000D02*
X151550000Y-65800000D01*
X159000000Y-95500000D02*
X159000000Y-73250000D01*
X151550000Y-65800000D02*
X143737534Y-65800000D01*
X143737534Y-65800000D02*
X140718767Y-62781233D01*
D21*
X139000000Y-60250000D02*
X136000000Y-60250000D01*
D22*
%TO.N,/DBG_VIN*%
X156750000Y-112000000D02*
X158500000Y-112000000D01*
X158500000Y-112000000D02*
X159250000Y-111250000D01*
X159250000Y-111250000D02*
X159250000Y-101750000D01*
X159250000Y-98250000D02*
X159250000Y-101750000D01*
X150000000Y-111500000D02*
X156250000Y-111500000D01*
X148250000Y-113250000D02*
X150000000Y-111500000D01*
X156250000Y-111500000D02*
X156750000Y-112000000D01*
X159250000Y-101750000D02*
X158500000Y-102500000D01*
X159000000Y-98000000D02*
X159250000Y-98250000D01*
X158500000Y-102500000D02*
X157750000Y-102500000D01*
X148250000Y-114000000D02*
X148250000Y-113250000D01*
%TD*%
%TA.AperFunction,Conductor*%
%TO.N,+3V3*%
G36*
X141361470Y-55820502D02*
G01*
X141407963Y-55874158D01*
X141418067Y-55944432D01*
X141385199Y-56012753D01*
X141289552Y-56114607D01*
X141285735Y-56121551D01*
X141285733Y-56121553D01*
X141244506Y-56196545D01*
X141210373Y-56258632D01*
X141208403Y-56266304D01*
X141208402Y-56266307D01*
X141172878Y-56404665D01*
X141169500Y-56417823D01*
X141169500Y-57540925D01*
X141173342Y-57571336D01*
X141181555Y-57636347D01*
X141184929Y-57663058D01*
X141245432Y-57815871D01*
X141342037Y-57948837D01*
X141468674Y-58053600D01*
X141617387Y-58123579D01*
X141625170Y-58125064D01*
X141625174Y-58125065D01*
X141771044Y-58152891D01*
X141771046Y-58152891D01*
X141778830Y-58154376D01*
X141860845Y-58149216D01*
X141934949Y-58144554D01*
X141934951Y-58144554D01*
X141942860Y-58144056D01*
X141950396Y-58141607D01*
X141950398Y-58141607D01*
X142005882Y-58123579D01*
X142099171Y-58093268D01*
X142237940Y-58005202D01*
X142350448Y-57885393D01*
X142392720Y-57808502D01*
X142425807Y-57748316D01*
X142429627Y-57741368D01*
X142451458Y-57656341D01*
X142487773Y-57595335D01*
X142551305Y-57563646D01*
X142621884Y-57571336D01*
X142677101Y-57615963D01*
X142699500Y-57687676D01*
X142699500Y-60381499D01*
X142679498Y-60449620D01*
X142625842Y-60496113D01*
X142555568Y-60506217D01*
X142490988Y-60476723D01*
X142455634Y-60426037D01*
X142425711Y-60346848D01*
X142423027Y-60339745D01*
X142414427Y-60327232D01*
X142334723Y-60211262D01*
X142334722Y-60211261D01*
X142330421Y-60205003D01*
X142208348Y-60096240D01*
X142201638Y-60092687D01*
X142070566Y-60023288D01*
X142070564Y-60023287D01*
X142063855Y-60019735D01*
X142003787Y-60004647D01*
X141912655Y-59981756D01*
X141912651Y-59981756D01*
X141905284Y-59979905D01*
X141897685Y-59979865D01*
X141897683Y-59979865D01*
X141829653Y-59979509D01*
X141741790Y-59979049D01*
X141734410Y-59980821D01*
X141734408Y-59980821D01*
X141590189Y-60015444D01*
X141590185Y-60015445D01*
X141582810Y-60017216D01*
X141437524Y-60092204D01*
X141431802Y-60097196D01*
X141431800Y-60097197D01*
X141320044Y-60194688D01*
X141320041Y-60194691D01*
X141314319Y-60199683D01*
X141220307Y-60333448D01*
X141160917Y-60485776D01*
X141158140Y-60506873D01*
X141151505Y-60557268D01*
X141122783Y-60622195D01*
X141063518Y-60661287D01*
X140992526Y-60662132D01*
X140932347Y-60624462D01*
X140903069Y-60565728D01*
X140892634Y-60513977D01*
X140890936Y-60505556D01*
X140825571Y-60377270D01*
X140728116Y-60271288D01*
X140605750Y-60195418D01*
X140467488Y-60155249D01*
X140460673Y-60154749D01*
X140459596Y-60154669D01*
X140459583Y-60154669D01*
X140457288Y-60154500D01*
X140353930Y-60154500D01*
X140349685Y-60155082D01*
X140349678Y-60155082D01*
X140290769Y-60163152D01*
X140247354Y-60169099D01*
X140239470Y-60172511D01*
X140239469Y-60172511D01*
X140123098Y-60222869D01*
X140123095Y-60222871D01*
X140115217Y-60226280D01*
X140003325Y-60316888D01*
X139919921Y-60434249D01*
X139896167Y-60500227D01*
X139895568Y-60501892D01*
X139853673Y-60559210D01*
X139787441Y-60584779D01*
X139717899Y-60570481D01*
X139687922Y-60548306D01*
X139437430Y-60297814D01*
X139402076Y-60228430D01*
X139387197Y-60134487D01*
X139387196Y-60134485D01*
X139385646Y-60124696D01*
X139328050Y-60011658D01*
X139238342Y-59921950D01*
X139125304Y-59864354D01*
X139115515Y-59862804D01*
X139115513Y-59862803D01*
X139009793Y-59846059D01*
X139000000Y-59844508D01*
X138990207Y-59846059D01*
X138884487Y-59862803D01*
X138884485Y-59862804D01*
X138874696Y-59864354D01*
X138761658Y-59921950D01*
X138746013Y-59937595D01*
X138683701Y-59971621D01*
X138656918Y-59974500D01*
X136343082Y-59974500D01*
X136274961Y-59954498D01*
X136253987Y-59937595D01*
X136238342Y-59921950D01*
X136125304Y-59864354D01*
X136115515Y-59862804D01*
X136115513Y-59862803D01*
X136009793Y-59846059D01*
X136000000Y-59844508D01*
X135990207Y-59846059D01*
X135884487Y-59862803D01*
X135884485Y-59862804D01*
X135874696Y-59864354D01*
X135761658Y-59921950D01*
X135671950Y-60011658D01*
X135614354Y-60124696D01*
X135612804Y-60134485D01*
X135612803Y-60134487D01*
X135609607Y-60154669D01*
X135594508Y-60250000D01*
X135614354Y-60375304D01*
X135671950Y-60488342D01*
X135761658Y-60578050D01*
X135874696Y-60635646D01*
X135884485Y-60637196D01*
X135884487Y-60637197D01*
X135990207Y-60653941D01*
X136000000Y-60655492D01*
X136009793Y-60653941D01*
X136115513Y-60637197D01*
X136115515Y-60637196D01*
X136125304Y-60635646D01*
X136238342Y-60578050D01*
X136253987Y-60562405D01*
X136316299Y-60528379D01*
X136343082Y-60525500D01*
X138656918Y-60525500D01*
X138725039Y-60545502D01*
X138746013Y-60562405D01*
X138761658Y-60578050D01*
X138874696Y-60635646D01*
X138884485Y-60637196D01*
X138884487Y-60637197D01*
X138978430Y-60652076D01*
X139047814Y-60687430D01*
X139446950Y-61086566D01*
X139480976Y-61148878D01*
X139483855Y-61175661D01*
X139483855Y-62161462D01*
X139463853Y-62229583D01*
X139446950Y-62250557D01*
X139431305Y-62266202D01*
X139373709Y-62379240D01*
X139372159Y-62389029D01*
X139372158Y-62389031D01*
X139366944Y-62421950D01*
X139353863Y-62504544D01*
X139355414Y-62514337D01*
X139361336Y-62551724D01*
X139373709Y-62629848D01*
X139431305Y-62742886D01*
X139521013Y-62832594D01*
X139575318Y-62860264D01*
X139607210Y-62883436D01*
X139732696Y-63008922D01*
X139747421Y-63027153D01*
X139748822Y-63028693D01*
X139754472Y-63037443D01*
X139762650Y-63043890D01*
X139780509Y-63057969D01*
X139784876Y-63061850D01*
X139784942Y-63061772D01*
X139788900Y-63065126D01*
X139792582Y-63068808D01*
X139796813Y-63071831D01*
X139796816Y-63071834D01*
X139801635Y-63075277D01*
X139808096Y-63079894D01*
X139812825Y-63083445D01*
X139852644Y-63114836D01*
X139861193Y-63117838D01*
X139868563Y-63123105D01*
X139917122Y-63137627D01*
X139922763Y-63139460D01*
X139939701Y-63145408D01*
X139970592Y-63156256D01*
X139976099Y-63156733D01*
X139978806Y-63156733D01*
X139981378Y-63156844D01*
X139981538Y-63156892D01*
X139981532Y-63157036D01*
X139982150Y-63157075D01*
X139988330Y-63158923D01*
X140041599Y-63156830D01*
X140046545Y-63156733D01*
X140511040Y-63156733D01*
X140579161Y-63176735D01*
X140600135Y-63193638D01*
X143434186Y-66027689D01*
X143448911Y-66045920D01*
X143450312Y-66047460D01*
X143455962Y-66056210D01*
X143464140Y-66062657D01*
X143481999Y-66076736D01*
X143486366Y-66080617D01*
X143486432Y-66080539D01*
X143490390Y-66083893D01*
X143494072Y-66087575D01*
X143498303Y-66090598D01*
X143498306Y-66090601D01*
X143503125Y-66094044D01*
X143509586Y-66098661D01*
X143514315Y-66102212D01*
X143554134Y-66133603D01*
X143562683Y-66136605D01*
X143570053Y-66141872D01*
X143618612Y-66156394D01*
X143624253Y-66158227D01*
X143664598Y-66172395D01*
X143672082Y-66175023D01*
X143677589Y-66175500D01*
X143680296Y-66175500D01*
X143682868Y-66175611D01*
X143683028Y-66175659D01*
X143683022Y-66175803D01*
X143683640Y-66175842D01*
X143689820Y-66177690D01*
X143743089Y-66175597D01*
X143748035Y-66175500D01*
X151342273Y-66175500D01*
X151410394Y-66195502D01*
X151431368Y-66212405D01*
X158587595Y-73368632D01*
X158621621Y-73430944D01*
X158624500Y-73457727D01*
X158624500Y-95328533D01*
X158618467Y-95366623D01*
X158614354Y-95374696D01*
X158599095Y-95471039D01*
X158597985Y-95478050D01*
X158594508Y-95500000D01*
X158614354Y-95625304D01*
X158671950Y-95738342D01*
X158761658Y-95828050D01*
X158874696Y-95885646D01*
X158884485Y-95887196D01*
X158884487Y-95887197D01*
X158990207Y-95903941D01*
X159000000Y-95905492D01*
X159009793Y-95903941D01*
X159115513Y-95887197D01*
X159115515Y-95887196D01*
X159125304Y-95885646D01*
X159238342Y-95828050D01*
X159328050Y-95738342D01*
X159385646Y-95625304D01*
X159405492Y-95500000D01*
X159402016Y-95478050D01*
X159400905Y-95471039D01*
X159385646Y-95374696D01*
X159381533Y-95366623D01*
X159375500Y-95328533D01*
X159375500Y-73303496D01*
X159377979Y-73280199D01*
X159378077Y-73278114D01*
X159380269Y-73267934D01*
X159376373Y-73235016D01*
X159376029Y-73229179D01*
X159375928Y-73229187D01*
X159375500Y-73224008D01*
X159375500Y-73218807D01*
X159372372Y-73200013D01*
X159371535Y-73194137D01*
X159366800Y-73154133D01*
X159365576Y-73143790D01*
X159361654Y-73135623D01*
X159360167Y-73126687D01*
X159355223Y-73117525D01*
X159355222Y-73117521D01*
X159336094Y-73082071D01*
X159333398Y-73076780D01*
X159314897Y-73038251D01*
X159314896Y-73038250D01*
X159311463Y-73031100D01*
X159307906Y-73026869D01*
X159305974Y-73024937D01*
X159304255Y-73023063D01*
X159304181Y-73022926D01*
X159304291Y-73022826D01*
X159303868Y-73022346D01*
X159300806Y-73016671D01*
X159261632Y-72980459D01*
X159258067Y-72977030D01*
X151853348Y-65572311D01*
X151838623Y-65554080D01*
X151837222Y-65552540D01*
X151831572Y-65543790D01*
X151808308Y-65525450D01*
X151767195Y-65467568D01*
X151763901Y-65396648D01*
X151799473Y-65335206D01*
X151862616Y-65302749D01*
X151886314Y-65300500D01*
X156962683Y-65300500D01*
X156984563Y-65302414D01*
X157000000Y-65305136D01*
X157010855Y-65303222D01*
X157021294Y-65303222D01*
X157034509Y-65302438D01*
X157295187Y-65317077D01*
X157309219Y-65318658D01*
X157451471Y-65342828D01*
X157593719Y-65366997D01*
X157607494Y-65370141D01*
X157656076Y-65384137D01*
X157884799Y-65450031D01*
X157898118Y-65454692D01*
X158113449Y-65543885D01*
X158164736Y-65565129D01*
X158177466Y-65571260D01*
X158430020Y-65710841D01*
X158441985Y-65718358D01*
X158677342Y-65885353D01*
X158688389Y-65894163D01*
X158837805Y-66027689D01*
X158896945Y-66080539D01*
X158903559Y-66086450D01*
X158913550Y-66096441D01*
X159105837Y-66311611D01*
X159114647Y-66322658D01*
X159281642Y-66558015D01*
X159289159Y-66569980D01*
X159428740Y-66822534D01*
X159434871Y-66835264D01*
X159446278Y-66862803D01*
X159545308Y-67101882D01*
X159549969Y-67115201D01*
X159585983Y-67240207D01*
X159629859Y-67392506D01*
X159633003Y-67406281D01*
X159675183Y-67654530D01*
X159681341Y-67690776D01*
X159682923Y-67704813D01*
X159695511Y-67928961D01*
X159697562Y-67965488D01*
X159696778Y-67978706D01*
X159696778Y-67989145D01*
X159694864Y-68000000D01*
X159696778Y-68010855D01*
X159697586Y-68015437D01*
X159699500Y-68037317D01*
X159699500Y-97864273D01*
X159679498Y-97932394D01*
X159625842Y-97978887D01*
X159555568Y-97988991D01*
X159490988Y-97959497D01*
X159484405Y-97953368D01*
X159378892Y-97847855D01*
X159355720Y-97815963D01*
X159336402Y-97778050D01*
X159328050Y-97761658D01*
X159238342Y-97671950D01*
X159125304Y-97614354D01*
X159115515Y-97612804D01*
X159115513Y-97612803D01*
X159009793Y-97596059D01*
X159000000Y-97594508D01*
X158990207Y-97596059D01*
X158884487Y-97612803D01*
X158884485Y-97612804D01*
X158874696Y-97614354D01*
X158761658Y-97671950D01*
X158671950Y-97761658D01*
X158614354Y-97874696D01*
X158612804Y-97884485D01*
X158612803Y-97884487D01*
X158601894Y-97953368D01*
X158594508Y-98000000D01*
X158614354Y-98125304D01*
X158671950Y-98238342D01*
X158761658Y-98328050D01*
X158805704Y-98350493D01*
X158857318Y-98399240D01*
X158874500Y-98462759D01*
X158874500Y-101542273D01*
X158854498Y-101610394D01*
X158837595Y-101631368D01*
X158532148Y-101936815D01*
X158469836Y-101970841D01*
X158399021Y-101965776D01*
X158349417Y-101932030D01*
X158309832Y-101888066D01*
X158309831Y-101888065D01*
X158305410Y-101883155D01*
X158215983Y-101818182D01*
X158170366Y-101785039D01*
X158170365Y-101785038D01*
X158165024Y-101781158D01*
X158158996Y-101778474D01*
X158158994Y-101778473D01*
X158012530Y-101713263D01*
X158012529Y-101713263D01*
X158006499Y-101710578D01*
X157912726Y-101690646D01*
X157843221Y-101675872D01*
X157843217Y-101675872D01*
X157836764Y-101674500D01*
X157663236Y-101674500D01*
X157656783Y-101675872D01*
X157656779Y-101675872D01*
X157587274Y-101690646D01*
X157493501Y-101710578D01*
X157487472Y-101713262D01*
X157487470Y-101713263D01*
X157341007Y-101778473D01*
X157341005Y-101778474D01*
X157334977Y-101781158D01*
X157329636Y-101785038D01*
X157329635Y-101785039D01*
X157206233Y-101874696D01*
X157194590Y-101883155D01*
X157190169Y-101888065D01*
X157190168Y-101888066D01*
X157105158Y-101982480D01*
X157078478Y-102012111D01*
X156991714Y-102162389D01*
X156989674Y-102168669D01*
X156940167Y-102321039D01*
X156938092Y-102327424D01*
X156919953Y-102500000D01*
X156938092Y-102672576D01*
X156991714Y-102837611D01*
X157078478Y-102987889D01*
X157194590Y-103116845D01*
X157334976Y-103218842D01*
X157341004Y-103221526D01*
X157341006Y-103221527D01*
X157429592Y-103260968D01*
X157493501Y-103289422D01*
X157561145Y-103303800D01*
X157656779Y-103324128D01*
X157656783Y-103324128D01*
X157663236Y-103325500D01*
X157836764Y-103325500D01*
X157843217Y-103324128D01*
X157843221Y-103324128D01*
X157938855Y-103303800D01*
X158006499Y-103289422D01*
X158070408Y-103260968D01*
X158158994Y-103221527D01*
X158158996Y-103221526D01*
X158165024Y-103218842D01*
X158305410Y-103116845D01*
X158421522Y-102987889D01*
X158451904Y-102935267D01*
X158503288Y-102886274D01*
X158540332Y-102873979D01*
X158550022Y-102872366D01*
X158555863Y-102871535D01*
X158560952Y-102870933D01*
X158606210Y-102865576D01*
X158614377Y-102861654D01*
X158623313Y-102860167D01*
X158632475Y-102855223D01*
X158632479Y-102855222D01*
X158667929Y-102836094D01*
X158673218Y-102833399D01*
X158693957Y-102823440D01*
X158764023Y-102811983D01*
X158829160Y-102840225D01*
X158868689Y-102899200D01*
X158874500Y-102937023D01*
X158874500Y-111042273D01*
X158854498Y-111110394D01*
X158837595Y-111131368D01*
X158381368Y-111587595D01*
X158319056Y-111621621D01*
X158292273Y-111624500D01*
X156957727Y-111624500D01*
X156889606Y-111604498D01*
X156868632Y-111587595D01*
X156553348Y-111272311D01*
X156538623Y-111254080D01*
X156537222Y-111252540D01*
X156531572Y-111243790D01*
X156505535Y-111223264D01*
X156501168Y-111219383D01*
X156501102Y-111219461D01*
X156497144Y-111216107D01*
X156493462Y-111212425D01*
X156489231Y-111209402D01*
X156489228Y-111209399D01*
X156484409Y-111205956D01*
X156477948Y-111201339D01*
X156473212Y-111197783D01*
X156433400Y-111166397D01*
X156424851Y-111163395D01*
X156417481Y-111158128D01*
X156384203Y-111148176D01*
X156368930Y-111143608D01*
X156363286Y-111141774D01*
X156322935Y-111127604D01*
X156322929Y-111127603D01*
X156315452Y-111124977D01*
X156309945Y-111124500D01*
X156307238Y-111124500D01*
X156304665Y-111124389D01*
X156304506Y-111124341D01*
X156304512Y-111124197D01*
X156303892Y-111124158D01*
X156297713Y-111122310D01*
X156244445Y-111124403D01*
X156239498Y-111124500D01*
X150053496Y-111124500D01*
X150030199Y-111122021D01*
X150028114Y-111121923D01*
X150017934Y-111119731D01*
X149985014Y-111123627D01*
X149979179Y-111123971D01*
X149979187Y-111124072D01*
X149974009Y-111124500D01*
X149968807Y-111124500D01*
X149950013Y-111127628D01*
X149944146Y-111128463D01*
X149930668Y-111130058D01*
X149893791Y-111134423D01*
X149885622Y-111138346D01*
X149876687Y-111139833D01*
X149832064Y-111163911D01*
X149826801Y-111166592D01*
X149823707Y-111168078D01*
X149781100Y-111188537D01*
X149776869Y-111192094D01*
X149774937Y-111194026D01*
X149773063Y-111195745D01*
X149772926Y-111195819D01*
X149772826Y-111195709D01*
X149772346Y-111196132D01*
X149766671Y-111199194D01*
X149759602Y-111206841D01*
X149759601Y-111206842D01*
X149730460Y-111238367D01*
X149727030Y-111241933D01*
X148022311Y-112946652D01*
X148004080Y-112961377D01*
X148002540Y-112962778D01*
X147993790Y-112968428D01*
X147987343Y-112976606D01*
X147973264Y-112994465D01*
X147969383Y-112998832D01*
X147969461Y-112998898D01*
X147966107Y-113002856D01*
X147962425Y-113006538D01*
X147951339Y-113022052D01*
X147947788Y-113026781D01*
X147916397Y-113066600D01*
X147913395Y-113075149D01*
X147908128Y-113082519D01*
X147902432Y-113101565D01*
X147893608Y-113131070D01*
X147891774Y-113136714D01*
X147877604Y-113177065D01*
X147877603Y-113177071D01*
X147874977Y-113184548D01*
X147874500Y-113190055D01*
X147874500Y-113192762D01*
X147874389Y-113195335D01*
X147874341Y-113195494D01*
X147874197Y-113195488D01*
X147874158Y-113196108D01*
X147872310Y-113202287D01*
X147872719Y-113212692D01*
X147874403Y-113255555D01*
X147874500Y-113260502D01*
X147874500Y-113828533D01*
X147868467Y-113866623D01*
X147864354Y-113874696D01*
X147844508Y-114000000D01*
X147864354Y-114125304D01*
X147921950Y-114238342D01*
X148011658Y-114328050D01*
X148124696Y-114385646D01*
X148134485Y-114387196D01*
X148134487Y-114387197D01*
X148240207Y-114403941D01*
X148250000Y-114405492D01*
X148259793Y-114403941D01*
X148365513Y-114387197D01*
X148365515Y-114387196D01*
X148375304Y-114385646D01*
X148488342Y-114328050D01*
X148578050Y-114238342D01*
X148635646Y-114125304D01*
X148655492Y-114000000D01*
X149094508Y-114000000D01*
X149114354Y-114125304D01*
X149171950Y-114238342D01*
X149261658Y-114328050D01*
X149374696Y-114385646D01*
X149384485Y-114387196D01*
X149384487Y-114387197D01*
X149490207Y-114403941D01*
X149500000Y-114405492D01*
X149509793Y-114403941D01*
X149615513Y-114387197D01*
X149615515Y-114387196D01*
X149625304Y-114385646D01*
X149738342Y-114328050D01*
X149828050Y-114238342D01*
X149885646Y-114125304D01*
X149905492Y-114000000D01*
X150344508Y-114000000D01*
X150364354Y-114125304D01*
X150421950Y-114238342D01*
X150511658Y-114328050D01*
X150624696Y-114385646D01*
X150634485Y-114387196D01*
X150634487Y-114387197D01*
X150740207Y-114403941D01*
X150750000Y-114405492D01*
X150759793Y-114403941D01*
X150865513Y-114387197D01*
X150865515Y-114387196D01*
X150875304Y-114385646D01*
X150988342Y-114328050D01*
X151078050Y-114238342D01*
X151135646Y-114125304D01*
X151155492Y-114000000D01*
X152844508Y-114000000D01*
X152864354Y-114125304D01*
X152921950Y-114238342D01*
X153011658Y-114328050D01*
X153124696Y-114385646D01*
X153134485Y-114387196D01*
X153134487Y-114387197D01*
X153240207Y-114403941D01*
X153250000Y-114405492D01*
X153259793Y-114403941D01*
X153365513Y-114387197D01*
X153365515Y-114387196D01*
X153375304Y-114385646D01*
X153488342Y-114328050D01*
X153578050Y-114238342D01*
X153635646Y-114125304D01*
X153655492Y-114000000D01*
X153635646Y-113874696D01*
X153578050Y-113761658D01*
X153488342Y-113671950D01*
X153375304Y-113614354D01*
X153365515Y-113612804D01*
X153365513Y-113612803D01*
X153259793Y-113596059D01*
X153250000Y-113594508D01*
X153240207Y-113596059D01*
X153134487Y-113612803D01*
X153134485Y-113612804D01*
X153124696Y-113614354D01*
X153011658Y-113671950D01*
X152921950Y-113761658D01*
X152864354Y-113874696D01*
X152844508Y-114000000D01*
X151155492Y-114000000D01*
X151135646Y-113874696D01*
X151078050Y-113761658D01*
X150988342Y-113671950D01*
X150875304Y-113614354D01*
X150865515Y-113612804D01*
X150865513Y-113612803D01*
X150759793Y-113596059D01*
X150750000Y-113594508D01*
X150740207Y-113596059D01*
X150634487Y-113612803D01*
X150634485Y-113612804D01*
X150624696Y-113614354D01*
X150511658Y-113671950D01*
X150421950Y-113761658D01*
X150364354Y-113874696D01*
X150344508Y-114000000D01*
X149905492Y-114000000D01*
X149885646Y-113874696D01*
X149828050Y-113761658D01*
X149738342Y-113671950D01*
X149625304Y-113614354D01*
X149615515Y-113612804D01*
X149615513Y-113612803D01*
X149509793Y-113596059D01*
X149500000Y-113594508D01*
X149490207Y-113596059D01*
X149384487Y-113612803D01*
X149384485Y-113612804D01*
X149374696Y-113614354D01*
X149261658Y-113671950D01*
X149171950Y-113761658D01*
X149114354Y-113874696D01*
X149094508Y-114000000D01*
X148655492Y-114000000D01*
X148635646Y-113874696D01*
X148631533Y-113866623D01*
X148625500Y-113828533D01*
X148625500Y-113457727D01*
X148645502Y-113389606D01*
X148662405Y-113368632D01*
X149156537Y-112874500D01*
X150344508Y-112874500D01*
X150346059Y-112884293D01*
X150359385Y-112968428D01*
X150364354Y-112999804D01*
X150421950Y-113112842D01*
X150511658Y-113202550D01*
X150624696Y-113260146D01*
X150634485Y-113261696D01*
X150634487Y-113261697D01*
X150740207Y-113278441D01*
X150750000Y-113279992D01*
X150759793Y-113278441D01*
X150865513Y-113261697D01*
X150865515Y-113261696D01*
X150875304Y-113260146D01*
X150988342Y-113202550D01*
X151078050Y-113112842D01*
X151135646Y-112999804D01*
X151140616Y-112968428D01*
X151153941Y-112884293D01*
X151155492Y-112874500D01*
X151153941Y-112864707D01*
X151137197Y-112758987D01*
X151137196Y-112758985D01*
X151135646Y-112749196D01*
X151078050Y-112636158D01*
X150988342Y-112546450D01*
X150875304Y-112488854D01*
X150865515Y-112487304D01*
X150865513Y-112487303D01*
X150759793Y-112470559D01*
X150750000Y-112469008D01*
X150740207Y-112470559D01*
X150634487Y-112487303D01*
X150634485Y-112487304D01*
X150624696Y-112488854D01*
X150511658Y-112546450D01*
X150421950Y-112636158D01*
X150364354Y-112749196D01*
X150362804Y-112758985D01*
X150362803Y-112758987D01*
X150346059Y-112864707D01*
X150344508Y-112874500D01*
X149156537Y-112874500D01*
X150118633Y-111912405D01*
X150180945Y-111878379D01*
X150207728Y-111875500D01*
X156042273Y-111875500D01*
X156110394Y-111895502D01*
X156131368Y-111912405D01*
X156446651Y-112227688D01*
X156461373Y-112245916D01*
X156462780Y-112247462D01*
X156468428Y-112256210D01*
X156476608Y-112262658D01*
X156476610Y-112262661D01*
X156494461Y-112276734D01*
X156498835Y-112280621D01*
X156498901Y-112280543D01*
X156502860Y-112283898D01*
X156506538Y-112287576D01*
X156510762Y-112290595D01*
X156510771Y-112290602D01*
X156522074Y-112298679D01*
X156526820Y-112302243D01*
X156534004Y-112307906D01*
X156566600Y-112333603D01*
X156575148Y-112336605D01*
X156582519Y-112341872D01*
X156592492Y-112344855D01*
X156592495Y-112344856D01*
X156631083Y-112356396D01*
X156636730Y-112358231D01*
X156677064Y-112372395D01*
X156677065Y-112372395D01*
X156684548Y-112375023D01*
X156690055Y-112375500D01*
X156692762Y-112375500D01*
X156695332Y-112375611D01*
X156695494Y-112375659D01*
X156695488Y-112375804D01*
X156696108Y-112375843D01*
X156702287Y-112377691D01*
X156755581Y-112375597D01*
X156760527Y-112375500D01*
X158446504Y-112375500D01*
X158469801Y-112377979D01*
X158471886Y-112378077D01*
X158482066Y-112380269D01*
X158514984Y-112376373D01*
X158520821Y-112376029D01*
X158520813Y-112375928D01*
X158525992Y-112375500D01*
X158531193Y-112375500D01*
X158536321Y-112374646D01*
X158536327Y-112374646D01*
X158549987Y-112372372D01*
X158555863Y-112371535D01*
X158560952Y-112370933D01*
X158606210Y-112365576D01*
X158614377Y-112361654D01*
X158623313Y-112360167D01*
X158632475Y-112355223D01*
X158632479Y-112355222D01*
X158667929Y-112336094D01*
X158673220Y-112333398D01*
X158711749Y-112314897D01*
X158711750Y-112314896D01*
X158718900Y-112311463D01*
X158723131Y-112307906D01*
X158725063Y-112305974D01*
X158726937Y-112304255D01*
X158727074Y-112304181D01*
X158727174Y-112304291D01*
X158727654Y-112303868D01*
X158733329Y-112300806D01*
X158742762Y-112290602D01*
X158769540Y-112261633D01*
X158772970Y-112258067D01*
X159477689Y-111553348D01*
X159498427Y-111536597D01*
X159505149Y-111532257D01*
X159573223Y-111512106D01*
X159641388Y-111531959D01*
X159687998Y-111585512D01*
X159699500Y-111638106D01*
X159699500Y-115962683D01*
X159697586Y-115984563D01*
X159694864Y-116000000D01*
X159696778Y-116010855D01*
X159696778Y-116021294D01*
X159697562Y-116034512D01*
X159682923Y-116295183D01*
X159681342Y-116309219D01*
X159657172Y-116451472D01*
X159633003Y-116593719D01*
X159629859Y-116607494D01*
X159549969Y-116884799D01*
X159545308Y-116898118D01*
X159446547Y-117136548D01*
X159434871Y-117164736D01*
X159428740Y-117177466D01*
X159289159Y-117430020D01*
X159281642Y-117441985D01*
X159114647Y-117677342D01*
X159105837Y-117688389D01*
X158913550Y-117903559D01*
X158903559Y-117913550D01*
X158688389Y-118105837D01*
X158677342Y-118114647D01*
X158441985Y-118281642D01*
X158430020Y-118289159D01*
X158177466Y-118428740D01*
X158164735Y-118434871D01*
X157898118Y-118545308D01*
X157884799Y-118549969D01*
X157693847Y-118604981D01*
X157607494Y-118629859D01*
X157593719Y-118633003D01*
X157451471Y-118657172D01*
X157309219Y-118681342D01*
X157295187Y-118682923D01*
X157034509Y-118697562D01*
X157021294Y-118696778D01*
X157010855Y-118696778D01*
X157000000Y-118694864D01*
X156989145Y-118696778D01*
X156984563Y-118697586D01*
X156962683Y-118699500D01*
X118037317Y-118699500D01*
X118015437Y-118697586D01*
X118010855Y-118696778D01*
X118000000Y-118694864D01*
X117989145Y-118696778D01*
X117978706Y-118696778D01*
X117965491Y-118697562D01*
X117704813Y-118682923D01*
X117690781Y-118681342D01*
X117548529Y-118657172D01*
X117406281Y-118633003D01*
X117392506Y-118629859D01*
X117306153Y-118604981D01*
X117115201Y-118549969D01*
X117101882Y-118545308D01*
X116835265Y-118434871D01*
X116822534Y-118428740D01*
X116569980Y-118289159D01*
X116558015Y-118281642D01*
X116322658Y-118114647D01*
X116311611Y-118105837D01*
X116096441Y-117913550D01*
X116086450Y-117903559D01*
X116060928Y-117875000D01*
X152194750Y-117875000D01*
X152213670Y-118018709D01*
X152269139Y-118152625D01*
X152357379Y-118267621D01*
X152472375Y-118355861D01*
X152606291Y-118411330D01*
X152750000Y-118430250D01*
X152893709Y-118411330D01*
X153027625Y-118355861D01*
X153142621Y-118267621D01*
X153230861Y-118152625D01*
X153286330Y-118018709D01*
X153305250Y-117875000D01*
X153286330Y-117731291D01*
X153230861Y-117597375D01*
X153142621Y-117482379D01*
X153027625Y-117394139D01*
X152893709Y-117338670D01*
X152750000Y-117319750D01*
X152606291Y-117338670D01*
X152472375Y-117394139D01*
X152357379Y-117482379D01*
X152269139Y-117597375D01*
X152213670Y-117731291D01*
X152194750Y-117875000D01*
X116060928Y-117875000D01*
X115894163Y-117688389D01*
X115885353Y-117677342D01*
X115718358Y-117441985D01*
X115710841Y-117430020D01*
X115571260Y-117177466D01*
X115565129Y-117164736D01*
X115553453Y-117136548D01*
X115454692Y-116898118D01*
X115450031Y-116884799D01*
X115370141Y-116607494D01*
X115366997Y-116593719D01*
X115342828Y-116451472D01*
X115318658Y-116309219D01*
X115317077Y-116295183D01*
X115302438Y-116034512D01*
X115303222Y-116021294D01*
X115303222Y-116010855D01*
X115305136Y-116000000D01*
X115302414Y-115984563D01*
X115300500Y-115962683D01*
X115300500Y-113095000D01*
X131294815Y-113095000D01*
X131295505Y-113101565D01*
X131299885Y-113143233D01*
X131313503Y-113272803D01*
X131368750Y-113442835D01*
X131458141Y-113597665D01*
X131462559Y-113602572D01*
X131462560Y-113602573D01*
X131531341Y-113678961D01*
X131577770Y-113730526D01*
X131583109Y-113734405D01*
X131712664Y-113828533D01*
X131722407Y-113835612D01*
X131728435Y-113838296D01*
X131728437Y-113838297D01*
X131832189Y-113884490D01*
X131885733Y-113908329D01*
X131973171Y-113926915D01*
X132054152Y-113944128D01*
X132054156Y-113944128D01*
X132060609Y-113945500D01*
X132239391Y-113945500D01*
X132245844Y-113944128D01*
X132245848Y-113944128D01*
X132326829Y-113926915D01*
X132414267Y-113908329D01*
X132467811Y-113884490D01*
X132571563Y-113838297D01*
X132571565Y-113838296D01*
X132577593Y-113835612D01*
X132587337Y-113828533D01*
X132699439Y-113747085D01*
X132766306Y-113723227D01*
X132835458Y-113739307D01*
X132884938Y-113790220D01*
X132899500Y-113849021D01*
X132899500Y-116712626D01*
X132898935Y-116724183D01*
X132895754Y-116735168D01*
X132896758Y-116746759D01*
X132899030Y-116772994D01*
X132899500Y-116783866D01*
X132899500Y-116792948D01*
X132900562Y-116798649D01*
X132900562Y-116798651D01*
X132900724Y-116799521D01*
X132902384Y-116811720D01*
X132902403Y-116811933D01*
X132905413Y-116846696D01*
X132910520Y-116857145D01*
X132911432Y-116860433D01*
X132912661Y-116863617D01*
X132914791Y-116875053D01*
X132929014Y-116898127D01*
X132933221Y-116904952D01*
X132939160Y-116915734D01*
X132954575Y-116947269D01*
X132963101Y-116955178D01*
X132965134Y-116957916D01*
X132967428Y-116960446D01*
X132973532Y-116970348D01*
X132982788Y-116977387D01*
X132982793Y-116977392D01*
X133001487Y-116991607D01*
X133010908Y-116999526D01*
X133036646Y-117023401D01*
X133047447Y-117027710D01*
X133050324Y-117029529D01*
X133053381Y-117031066D01*
X133062641Y-117038108D01*
X133083348Y-117044104D01*
X133096367Y-117047874D01*
X133108008Y-117051871D01*
X133140622Y-117064883D01*
X133146915Y-117065500D01*
X133149997Y-117065500D01*
X133153067Y-117065650D01*
X133153061Y-117065766D01*
X133159183Y-117066065D01*
X133170168Y-117069246D01*
X133207994Y-117065970D01*
X133218866Y-117065500D01*
X141747626Y-117065500D01*
X141759183Y-117066065D01*
X141770168Y-117069246D01*
X141807994Y-117065970D01*
X141818866Y-117065500D01*
X141827948Y-117065500D01*
X141833649Y-117064438D01*
X141833651Y-117064438D01*
X141834521Y-117064276D01*
X141846720Y-117062616D01*
X141870105Y-117060591D01*
X141870106Y-117060591D01*
X141881696Y-117059587D01*
X141892145Y-117054480D01*
X141895433Y-117053568D01*
X141898617Y-117052339D01*
X141910053Y-117050209D01*
X141939952Y-117031779D01*
X141950734Y-117025840D01*
X141971819Y-117015533D01*
X141982269Y-117010425D01*
X141990178Y-117001899D01*
X141992916Y-116999866D01*
X141995446Y-116997572D01*
X142005348Y-116991468D01*
X142012387Y-116982212D01*
X142012392Y-116982207D01*
X142026607Y-116963513D01*
X142034526Y-116954092D01*
X142050490Y-116936882D01*
X142058401Y-116928354D01*
X142062710Y-116917553D01*
X142064529Y-116914676D01*
X142066066Y-116911619D01*
X142073108Y-116902359D01*
X142082874Y-116868632D01*
X142086873Y-116856986D01*
X142099883Y-116824378D01*
X142100500Y-116818085D01*
X142100500Y-116815003D01*
X142100650Y-116811933D01*
X142100766Y-116811939D01*
X142101065Y-116805817D01*
X142104246Y-116794832D01*
X142100970Y-116757006D01*
X142100500Y-116746134D01*
X142100500Y-114961500D01*
X142120502Y-114893379D01*
X142174158Y-114846886D01*
X142226500Y-114835500D01*
X143564820Y-114835500D01*
X143608722Y-114826767D01*
X143619040Y-114819873D01*
X143619042Y-114819872D01*
X143648185Y-114800399D01*
X143658504Y-114793504D01*
X143665399Y-114783185D01*
X143684872Y-114754042D01*
X143684873Y-114754040D01*
X143691767Y-114743722D01*
X143700500Y-114699820D01*
X143700500Y-113270180D01*
X143691767Y-113226278D01*
X143684873Y-113215960D01*
X143684872Y-113215958D01*
X143665399Y-113186815D01*
X143658504Y-113176496D01*
X143648185Y-113169601D01*
X143619042Y-113150128D01*
X143619040Y-113150127D01*
X143608722Y-113143233D01*
X143564820Y-113134500D01*
X143405398Y-113134500D01*
X143337277Y-113114498D01*
X143290784Y-113060842D01*
X143280680Y-112990568D01*
X143310174Y-112925988D01*
X143331337Y-112906564D01*
X143361991Y-112884293D01*
X143422230Y-112840526D01*
X143495649Y-112758987D01*
X143537440Y-112712573D01*
X143537441Y-112712572D01*
X143541859Y-112707665D01*
X143631250Y-112552835D01*
X143686497Y-112382803D01*
X143697127Y-112281671D01*
X143704495Y-112211565D01*
X143705185Y-112205000D01*
X143697251Y-112129509D01*
X143687187Y-112033761D01*
X143687187Y-112033760D01*
X143686497Y-112027197D01*
X143645168Y-111900000D01*
X144994508Y-111900000D01*
X145014354Y-112025304D01*
X145071950Y-112138342D01*
X145161658Y-112228050D01*
X145274696Y-112285646D01*
X145284485Y-112287196D01*
X145284487Y-112287197D01*
X145390207Y-112303941D01*
X145400000Y-112305492D01*
X145409793Y-112303941D01*
X145515513Y-112287197D01*
X145515515Y-112287196D01*
X145525304Y-112285646D01*
X145638342Y-112228050D01*
X145728050Y-112138342D01*
X145785646Y-112025304D01*
X145805492Y-111900000D01*
X145792452Y-111817665D01*
X145787197Y-111784487D01*
X145787196Y-111784485D01*
X145785646Y-111774696D01*
X145728050Y-111661658D01*
X145638342Y-111571950D01*
X145525304Y-111514354D01*
X145515515Y-111512804D01*
X145515513Y-111512803D01*
X145409793Y-111496059D01*
X145400000Y-111494508D01*
X145390207Y-111496059D01*
X145284487Y-111512803D01*
X145284485Y-111512804D01*
X145274696Y-111514354D01*
X145161658Y-111571950D01*
X145071950Y-111661658D01*
X145014354Y-111774696D01*
X145012804Y-111784485D01*
X145012803Y-111784487D01*
X145007548Y-111817665D01*
X144994508Y-111900000D01*
X143645168Y-111900000D01*
X143631250Y-111857165D01*
X143541859Y-111702335D01*
X143537440Y-111697427D01*
X143426645Y-111574377D01*
X143426643Y-111574376D01*
X143422230Y-111569474D01*
X143317610Y-111493462D01*
X143282935Y-111468269D01*
X143282933Y-111468268D01*
X143277593Y-111464388D01*
X143271567Y-111461705D01*
X143271560Y-111461701D01*
X143200597Y-111430107D01*
X143146501Y-111384127D01*
X143125851Y-111316200D01*
X143145203Y-111247892D01*
X143200597Y-111199893D01*
X143271560Y-111168299D01*
X143271567Y-111168295D01*
X143277593Y-111165612D01*
X143286006Y-111159500D01*
X143416891Y-111064405D01*
X143422230Y-111060526D01*
X143427834Y-111054303D01*
X143537440Y-110932573D01*
X143537441Y-110932572D01*
X143541859Y-110927665D01*
X143631250Y-110772835D01*
X143686497Y-110602803D01*
X143697127Y-110501671D01*
X143704495Y-110431565D01*
X143705185Y-110425000D01*
X143697919Y-110355873D01*
X143687187Y-110253761D01*
X143687187Y-110253760D01*
X143686792Y-110250000D01*
X151594508Y-110250000D01*
X151596059Y-110259793D01*
X151610082Y-110348329D01*
X151614354Y-110375304D01*
X151671950Y-110488342D01*
X151761658Y-110578050D01*
X151874696Y-110635646D01*
X151884485Y-110637196D01*
X151884487Y-110637197D01*
X151990207Y-110653941D01*
X152000000Y-110655492D01*
X152009793Y-110653941D01*
X152115513Y-110637197D01*
X152115515Y-110637196D01*
X152125304Y-110635646D01*
X152238342Y-110578050D01*
X152316392Y-110500000D01*
X156919953Y-110500000D01*
X156938092Y-110672576D01*
X156991714Y-110837611D01*
X157078478Y-110987889D01*
X157082899Y-110992799D01*
X157188782Y-111110394D01*
X157194590Y-111116845D01*
X157265106Y-111168078D01*
X157318460Y-111206842D01*
X157334976Y-111218842D01*
X157341004Y-111221526D01*
X157341006Y-111221527D01*
X157487470Y-111286737D01*
X157493501Y-111289422D01*
X157578368Y-111307461D01*
X157656779Y-111324128D01*
X157656783Y-111324128D01*
X157663236Y-111325500D01*
X157836764Y-111325500D01*
X157843217Y-111324128D01*
X157843221Y-111324128D01*
X157921631Y-111307461D01*
X158006499Y-111289422D01*
X158012530Y-111286737D01*
X158158994Y-111221527D01*
X158158996Y-111221526D01*
X158165024Y-111218842D01*
X158181541Y-111206842D01*
X158234894Y-111168078D01*
X158305410Y-111116845D01*
X158311219Y-111110394D01*
X158417101Y-110992799D01*
X158421522Y-110987889D01*
X158508286Y-110837611D01*
X158561908Y-110672576D01*
X158580047Y-110500000D01*
X158579218Y-110492108D01*
X158567869Y-110384137D01*
X158561908Y-110327424D01*
X158549431Y-110289021D01*
X158516310Y-110187085D01*
X158508286Y-110162389D01*
X158421522Y-110012111D01*
X158305410Y-109883155D01*
X158215983Y-109818182D01*
X158170366Y-109785039D01*
X158170365Y-109785038D01*
X158165024Y-109781158D01*
X158158996Y-109778474D01*
X158158994Y-109778473D01*
X158012530Y-109713263D01*
X158012529Y-109713263D01*
X158006499Y-109710578D01*
X157901543Y-109688269D01*
X157843221Y-109675872D01*
X157843217Y-109675872D01*
X157836764Y-109674500D01*
X157663236Y-109674500D01*
X157656783Y-109675872D01*
X157656779Y-109675872D01*
X157598457Y-109688269D01*
X157493501Y-109710578D01*
X157487472Y-109713262D01*
X157487470Y-109713263D01*
X157341007Y-109778473D01*
X157341005Y-109778474D01*
X157334977Y-109781158D01*
X157329636Y-109785038D01*
X157329635Y-109785039D01*
X157316783Y-109794377D01*
X157194590Y-109883155D01*
X157078478Y-110012111D01*
X156991714Y-110162389D01*
X156983690Y-110187085D01*
X156950570Y-110289021D01*
X156938092Y-110327424D01*
X156932131Y-110384137D01*
X156920783Y-110492108D01*
X156919953Y-110500000D01*
X152316392Y-110500000D01*
X152328050Y-110488342D01*
X152385646Y-110375304D01*
X152389919Y-110348329D01*
X152403941Y-110259793D01*
X152405492Y-110250000D01*
X152402359Y-110230220D01*
X152387197Y-110134487D01*
X152387196Y-110134485D01*
X152385646Y-110124696D01*
X152328050Y-110011658D01*
X152238342Y-109921950D01*
X152125304Y-109864354D01*
X152115515Y-109862804D01*
X152115513Y-109862803D01*
X152009793Y-109846059D01*
X152000000Y-109844508D01*
X151990207Y-109846059D01*
X151884487Y-109862803D01*
X151884485Y-109862804D01*
X151874696Y-109864354D01*
X151761658Y-109921950D01*
X151671950Y-110011658D01*
X151614354Y-110124696D01*
X151612804Y-110134485D01*
X151612803Y-110134487D01*
X151597641Y-110230220D01*
X151594508Y-110250000D01*
X143686792Y-110250000D01*
X143686497Y-110247197D01*
X143631250Y-110077165D01*
X143541859Y-109922335D01*
X143506293Y-109882835D01*
X143426645Y-109794377D01*
X143426643Y-109794376D01*
X143422230Y-109789474D01*
X143317336Y-109713263D01*
X143282935Y-109688269D01*
X143282933Y-109688268D01*
X143277593Y-109684388D01*
X143271567Y-109681705D01*
X143271560Y-109681701D01*
X143200597Y-109650107D01*
X143146501Y-109604127D01*
X143130046Y-109550000D01*
X146844508Y-109550000D01*
X146846059Y-109559793D01*
X146854276Y-109611671D01*
X146864354Y-109675304D01*
X146921950Y-109788342D01*
X147011658Y-109878050D01*
X147124696Y-109935646D01*
X147134485Y-109937196D01*
X147134487Y-109937197D01*
X147240207Y-109953941D01*
X147250000Y-109955492D01*
X147259793Y-109953941D01*
X147365513Y-109937197D01*
X147365515Y-109937196D01*
X147375304Y-109935646D01*
X147488342Y-109878050D01*
X147578050Y-109788342D01*
X147635646Y-109675304D01*
X147645725Y-109611671D01*
X147653941Y-109559793D01*
X147655492Y-109550000D01*
X147652926Y-109533800D01*
X147637197Y-109434487D01*
X147637196Y-109434485D01*
X147635646Y-109424696D01*
X147578050Y-109311658D01*
X147540892Y-109274500D01*
X154844508Y-109274500D01*
X154846059Y-109284293D01*
X154861492Y-109381731D01*
X154864354Y-109399804D01*
X154921950Y-109512842D01*
X155011658Y-109602550D01*
X155124696Y-109660146D01*
X155134485Y-109661696D01*
X155134487Y-109661697D01*
X155240207Y-109678441D01*
X155250000Y-109679992D01*
X155259793Y-109678441D01*
X155365513Y-109661697D01*
X155365515Y-109661696D01*
X155375304Y-109660146D01*
X155488342Y-109602550D01*
X155578050Y-109512842D01*
X155635646Y-109399804D01*
X155638509Y-109381731D01*
X155653941Y-109284293D01*
X155655492Y-109274500D01*
X155653941Y-109264707D01*
X155637197Y-109158987D01*
X155637196Y-109158985D01*
X155635646Y-109149196D01*
X155578050Y-109036158D01*
X155488342Y-108946450D01*
X155375304Y-108888854D01*
X155365515Y-108887304D01*
X155365513Y-108887303D01*
X155259793Y-108870559D01*
X155250000Y-108869008D01*
X155240207Y-108870559D01*
X155134487Y-108887303D01*
X155134485Y-108887304D01*
X155124696Y-108888854D01*
X155011658Y-108946450D01*
X154921950Y-109036158D01*
X154864354Y-109149196D01*
X154862804Y-109158985D01*
X154862803Y-109158987D01*
X154846059Y-109264707D01*
X154844508Y-109274500D01*
X147540892Y-109274500D01*
X147488342Y-109221950D01*
X147375304Y-109164354D01*
X147365515Y-109162804D01*
X147365513Y-109162803D01*
X147259793Y-109146059D01*
X147250000Y-109144508D01*
X147240207Y-109146059D01*
X147134487Y-109162803D01*
X147134485Y-109162804D01*
X147124696Y-109164354D01*
X147011658Y-109221950D01*
X146921950Y-109311658D01*
X146864354Y-109424696D01*
X146862804Y-109434485D01*
X146862803Y-109434487D01*
X146847074Y-109533800D01*
X146844508Y-109550000D01*
X143130046Y-109550000D01*
X143125851Y-109536200D01*
X143145203Y-109467892D01*
X143200597Y-109419893D01*
X143271560Y-109388299D01*
X143271567Y-109388295D01*
X143277593Y-109385612D01*
X143316703Y-109357197D01*
X143416891Y-109284405D01*
X143422230Y-109280526D01*
X143427834Y-109274303D01*
X143537440Y-109152573D01*
X143537441Y-109152572D01*
X143541859Y-109147665D01*
X143605142Y-109038056D01*
X143627946Y-108998558D01*
X143627947Y-108998557D01*
X143631250Y-108992835D01*
X143666965Y-108882915D01*
X143684457Y-108829082D01*
X143684457Y-108829080D01*
X143686497Y-108822803D01*
X143694149Y-108750000D01*
X148694508Y-108750000D01*
X148696059Y-108759793D01*
X148710204Y-108849100D01*
X148714354Y-108875304D01*
X148771950Y-108988342D01*
X148861658Y-109078050D01*
X148974696Y-109135646D01*
X148984485Y-109137196D01*
X148984487Y-109137197D01*
X149090207Y-109153941D01*
X149100000Y-109155492D01*
X149109793Y-109153941D01*
X149215513Y-109137197D01*
X149215515Y-109137196D01*
X149225304Y-109135646D01*
X149338342Y-109078050D01*
X149428050Y-108988342D01*
X149485646Y-108875304D01*
X149489797Y-108849100D01*
X149503941Y-108759793D01*
X149505492Y-108750000D01*
X149495118Y-108684500D01*
X149487197Y-108634487D01*
X149487196Y-108634485D01*
X149485646Y-108624696D01*
X149428050Y-108511658D01*
X149416392Y-108500000D01*
X153844508Y-108500000D01*
X153846059Y-108509793D01*
X153849243Y-108529893D01*
X153864354Y-108625304D01*
X153921950Y-108738342D01*
X154011658Y-108828050D01*
X154124696Y-108885646D01*
X154134485Y-108887196D01*
X154134487Y-108887197D01*
X154240207Y-108903941D01*
X154250000Y-108905492D01*
X154259793Y-108903941D01*
X154365513Y-108887197D01*
X154365515Y-108887196D01*
X154375304Y-108885646D01*
X154488342Y-108828050D01*
X154578050Y-108738342D01*
X154635646Y-108625304D01*
X154650758Y-108529893D01*
X154653941Y-108509793D01*
X154655492Y-108500000D01*
X156919953Y-108500000D01*
X156938092Y-108672576D01*
X156940132Y-108678855D01*
X156940133Y-108678859D01*
X156956590Y-108729509D01*
X156991714Y-108837611D01*
X157078478Y-108987889D01*
X157194590Y-109116845D01*
X157334976Y-109218842D01*
X157341004Y-109221526D01*
X157341006Y-109221527D01*
X157482237Y-109284407D01*
X157493501Y-109289422D01*
X157565130Y-109304647D01*
X157656779Y-109324128D01*
X157656783Y-109324128D01*
X157663236Y-109325500D01*
X157836764Y-109325500D01*
X157843217Y-109324128D01*
X157843221Y-109324128D01*
X157934870Y-109304647D01*
X158006499Y-109289422D01*
X158017763Y-109284407D01*
X158158994Y-109221527D01*
X158158996Y-109221526D01*
X158165024Y-109218842D01*
X158305410Y-109116845D01*
X158421522Y-108987889D01*
X158508286Y-108837611D01*
X158543410Y-108729509D01*
X158559867Y-108678859D01*
X158559868Y-108678855D01*
X158561908Y-108672576D01*
X158580047Y-108500000D01*
X158561908Y-108327424D01*
X158552077Y-108297165D01*
X158535807Y-108247092D01*
X158508286Y-108162389D01*
X158421522Y-108012111D01*
X158305410Y-107883155D01*
X158165024Y-107781158D01*
X158158996Y-107778474D01*
X158158994Y-107778473D01*
X158012530Y-107713263D01*
X158012529Y-107713263D01*
X158006499Y-107710578D01*
X157921631Y-107692539D01*
X157843221Y-107675872D01*
X157843217Y-107675872D01*
X157836764Y-107674500D01*
X157663236Y-107674500D01*
X157656783Y-107675872D01*
X157656779Y-107675872D01*
X157578369Y-107692539D01*
X157493501Y-107710578D01*
X157487472Y-107713262D01*
X157487470Y-107713263D01*
X157341007Y-107778473D01*
X157341005Y-107778474D01*
X157334977Y-107781158D01*
X157329636Y-107785038D01*
X157329635Y-107785039D01*
X157265452Y-107831671D01*
X157194590Y-107883155D01*
X157078478Y-108012111D01*
X156991714Y-108162389D01*
X156964193Y-108247092D01*
X156947924Y-108297165D01*
X156938092Y-108327424D01*
X156919953Y-108500000D01*
X154655492Y-108500000D01*
X154643130Y-108421950D01*
X154637197Y-108384487D01*
X154637196Y-108384485D01*
X154635646Y-108374696D01*
X154578050Y-108261658D01*
X154488342Y-108171950D01*
X154375304Y-108114354D01*
X154365515Y-108112804D01*
X154365513Y-108112803D01*
X154259793Y-108096059D01*
X154250000Y-108094508D01*
X154240207Y-108096059D01*
X154134487Y-108112803D01*
X154134485Y-108112804D01*
X154124696Y-108114354D01*
X154011658Y-108171950D01*
X153921950Y-108261658D01*
X153864354Y-108374696D01*
X153862804Y-108384485D01*
X153862803Y-108384487D01*
X153856870Y-108421950D01*
X153844508Y-108500000D01*
X149416392Y-108500000D01*
X149338342Y-108421950D01*
X149225304Y-108364354D01*
X149215515Y-108362804D01*
X149215513Y-108362803D01*
X149109793Y-108346059D01*
X149100000Y-108344508D01*
X149090207Y-108346059D01*
X148984487Y-108362803D01*
X148984485Y-108362804D01*
X148974696Y-108364354D01*
X148861658Y-108421950D01*
X148771950Y-108511658D01*
X148714354Y-108624696D01*
X148712804Y-108634485D01*
X148712803Y-108634487D01*
X148704882Y-108684500D01*
X148694508Y-108750000D01*
X143694149Y-108750000D01*
X143697127Y-108721671D01*
X143704495Y-108651565D01*
X143705185Y-108645000D01*
X143697919Y-108575873D01*
X143687187Y-108473761D01*
X143687187Y-108473760D01*
X143686497Y-108467197D01*
X143631250Y-108297165D01*
X143541859Y-108142335D01*
X143537440Y-108137427D01*
X143426645Y-108014377D01*
X143426643Y-108014376D01*
X143422230Y-108009474D01*
X143325345Y-107939082D01*
X143282935Y-107908269D01*
X143282933Y-107908268D01*
X143277593Y-107904388D01*
X143271567Y-107901705D01*
X143271560Y-107901701D01*
X143200597Y-107870107D01*
X143146501Y-107824127D01*
X143125851Y-107756200D01*
X143145203Y-107687892D01*
X143200597Y-107639893D01*
X143271560Y-107608299D01*
X143271567Y-107608295D01*
X143277593Y-107605612D01*
X143316703Y-107577197D01*
X143416891Y-107504405D01*
X143422230Y-107500526D01*
X143422704Y-107500000D01*
X153094508Y-107500000D01*
X153096059Y-107509793D01*
X153111661Y-107608299D01*
X153114354Y-107625304D01*
X153171950Y-107738342D01*
X153261658Y-107828050D01*
X153374696Y-107885646D01*
X153384485Y-107887196D01*
X153384487Y-107887197D01*
X153490207Y-107903941D01*
X153500000Y-107905492D01*
X153509793Y-107903941D01*
X153615513Y-107887197D01*
X153615515Y-107887196D01*
X153625304Y-107885646D01*
X153738342Y-107828050D01*
X153828050Y-107738342D01*
X153885646Y-107625304D01*
X153888340Y-107608299D01*
X153903941Y-107509793D01*
X153905492Y-107500000D01*
X153885646Y-107374696D01*
X153828050Y-107261658D01*
X153738342Y-107171950D01*
X153625304Y-107114354D01*
X153615515Y-107112804D01*
X153615513Y-107112803D01*
X153509793Y-107096059D01*
X153500000Y-107094508D01*
X153490207Y-107096059D01*
X153384487Y-107112803D01*
X153384485Y-107112804D01*
X153374696Y-107114354D01*
X153261658Y-107171950D01*
X153171950Y-107261658D01*
X153114354Y-107374696D01*
X153094508Y-107500000D01*
X143422704Y-107500000D01*
X143427834Y-107494303D01*
X143537440Y-107372573D01*
X143537441Y-107372572D01*
X143541859Y-107367665D01*
X143631250Y-107212835D01*
X143686497Y-107042803D01*
X143697127Y-106941671D01*
X143704495Y-106871565D01*
X143705185Y-106865000D01*
X143701033Y-106825500D01*
X143687187Y-106693761D01*
X143687187Y-106693760D01*
X143686497Y-106687197D01*
X143631250Y-106517165D01*
X143621340Y-106500000D01*
X149594508Y-106500000D01*
X149614354Y-106625304D01*
X149671950Y-106738342D01*
X149761658Y-106828050D01*
X149874696Y-106885646D01*
X149884485Y-106887196D01*
X149884487Y-106887197D01*
X149990207Y-106903941D01*
X150000000Y-106905492D01*
X150009793Y-106903941D01*
X150115513Y-106887197D01*
X150115515Y-106887196D01*
X150125304Y-106885646D01*
X150238342Y-106828050D01*
X150328050Y-106738342D01*
X150385646Y-106625304D01*
X150405492Y-106500000D01*
X156919953Y-106500000D01*
X156938092Y-106672576D01*
X156940132Y-106678855D01*
X156940133Y-106678859D01*
X156944975Y-106693761D01*
X156991714Y-106837611D01*
X157078478Y-106987889D01*
X157194590Y-107116845D01*
X157270435Y-107171950D01*
X157318058Y-107206550D01*
X157334976Y-107218842D01*
X157341004Y-107221526D01*
X157341006Y-107221527D01*
X157431142Y-107261658D01*
X157493501Y-107289422D01*
X157578369Y-107307461D01*
X157656779Y-107324128D01*
X157656783Y-107324128D01*
X157663236Y-107325500D01*
X157836764Y-107325500D01*
X157843217Y-107324128D01*
X157843221Y-107324128D01*
X157921632Y-107307461D01*
X158006499Y-107289422D01*
X158068858Y-107261658D01*
X158158994Y-107221527D01*
X158158996Y-107221526D01*
X158165024Y-107218842D01*
X158181943Y-107206550D01*
X158229565Y-107171950D01*
X158305410Y-107116845D01*
X158421522Y-106987889D01*
X158508286Y-106837611D01*
X158555025Y-106693761D01*
X158559867Y-106678859D01*
X158559868Y-106678855D01*
X158561908Y-106672576D01*
X158580047Y-106500000D01*
X158561908Y-106327424D01*
X158508286Y-106162389D01*
X158421522Y-106012111D01*
X158357055Y-105940513D01*
X158309832Y-105888066D01*
X158309831Y-105888065D01*
X158305410Y-105883155D01*
X158187100Y-105797197D01*
X158170366Y-105785039D01*
X158170365Y-105785038D01*
X158165024Y-105781158D01*
X158158996Y-105778474D01*
X158158994Y-105778473D01*
X158012530Y-105713263D01*
X158012529Y-105713263D01*
X158006499Y-105710578D01*
X157921632Y-105692539D01*
X157843221Y-105675872D01*
X157843217Y-105675872D01*
X157836764Y-105674500D01*
X157663236Y-105674500D01*
X157656783Y-105675872D01*
X157656779Y-105675872D01*
X157578368Y-105692539D01*
X157493501Y-105710578D01*
X157487472Y-105713262D01*
X157487470Y-105713263D01*
X157341007Y-105778473D01*
X157341005Y-105778474D01*
X157334977Y-105781158D01*
X157329636Y-105785038D01*
X157329635Y-105785039D01*
X157261155Y-105834793D01*
X157194590Y-105883155D01*
X157190169Y-105888065D01*
X157190168Y-105888066D01*
X157142945Y-105940513D01*
X157078478Y-106012111D01*
X156991714Y-106162389D01*
X156938092Y-106327424D01*
X156919953Y-106500000D01*
X150405492Y-106500000D01*
X150385646Y-106374696D01*
X150328050Y-106261658D01*
X150238342Y-106171950D01*
X150125304Y-106114354D01*
X150115515Y-106112804D01*
X150115513Y-106112803D01*
X150009793Y-106096059D01*
X150000000Y-106094508D01*
X149990207Y-106096059D01*
X149884487Y-106112803D01*
X149884485Y-106112804D01*
X149874696Y-106114354D01*
X149761658Y-106171950D01*
X149671950Y-106261658D01*
X149614354Y-106374696D01*
X149594508Y-106500000D01*
X143621340Y-106500000D01*
X143617550Y-106493435D01*
X143545162Y-106368056D01*
X143541859Y-106362335D01*
X143422230Y-106229474D01*
X143336862Y-106167450D01*
X143282935Y-106128269D01*
X143282933Y-106128268D01*
X143277593Y-106124388D01*
X143271567Y-106121705D01*
X143271560Y-106121701D01*
X143200597Y-106090107D01*
X143146501Y-106044127D01*
X143125851Y-105976200D01*
X143145203Y-105907892D01*
X143200597Y-105859893D01*
X143271560Y-105828299D01*
X143271567Y-105828295D01*
X143277593Y-105825612D01*
X143316703Y-105797197D01*
X143416891Y-105724405D01*
X143422230Y-105720526D01*
X143427834Y-105714303D01*
X143537440Y-105592573D01*
X143537441Y-105592572D01*
X143541859Y-105587665D01*
X143552122Y-105569888D01*
X143627946Y-105438558D01*
X143627947Y-105438557D01*
X143631250Y-105432835D01*
X143686497Y-105262803D01*
X143691526Y-105214961D01*
X143704495Y-105091565D01*
X143705185Y-105085000D01*
X143704659Y-105080000D01*
X145174508Y-105080000D01*
X145176059Y-105089793D01*
X145185929Y-105152108D01*
X145194354Y-105205304D01*
X145251950Y-105318342D01*
X145341658Y-105408050D01*
X145454696Y-105465646D01*
X145464485Y-105467196D01*
X145464487Y-105467197D01*
X145570207Y-105483941D01*
X145580000Y-105485492D01*
X145589793Y-105483941D01*
X145695513Y-105467197D01*
X145695515Y-105467196D01*
X145705304Y-105465646D01*
X145818342Y-105408050D01*
X145908050Y-105318342D01*
X145965646Y-105205304D01*
X145974072Y-105152108D01*
X145983941Y-105089793D01*
X145985492Y-105080000D01*
X145975655Y-105017892D01*
X145967197Y-104964487D01*
X145967196Y-104964485D01*
X145965646Y-104954696D01*
X145908050Y-104841658D01*
X145818342Y-104751950D01*
X145705304Y-104694354D01*
X145695515Y-104692804D01*
X145695513Y-104692803D01*
X145589793Y-104676059D01*
X145580000Y-104674508D01*
X145570207Y-104676059D01*
X145464487Y-104692803D01*
X145464485Y-104692804D01*
X145454696Y-104694354D01*
X145341658Y-104751950D01*
X145251950Y-104841658D01*
X145194354Y-104954696D01*
X145192804Y-104964485D01*
X145192803Y-104964487D01*
X145184345Y-105017892D01*
X145174508Y-105080000D01*
X143704659Y-105080000D01*
X143697919Y-105015873D01*
X143687187Y-104913761D01*
X143687187Y-104913760D01*
X143686497Y-104907197D01*
X143631250Y-104737165D01*
X143595971Y-104676059D01*
X143545162Y-104588056D01*
X143541859Y-104582335D01*
X143478617Y-104512098D01*
X143472811Y-104500000D01*
X156919953Y-104500000D01*
X156938092Y-104672576D01*
X156940132Y-104678855D01*
X156940133Y-104678859D01*
X156963882Y-104751950D01*
X156991714Y-104837611D01*
X157078478Y-104987889D01*
X157194590Y-105116845D01*
X157284017Y-105181818D01*
X157316343Y-105205304D01*
X157334976Y-105218842D01*
X157341004Y-105221526D01*
X157341006Y-105221527D01*
X157487470Y-105286737D01*
X157493501Y-105289422D01*
X157578368Y-105307461D01*
X157656779Y-105324128D01*
X157656783Y-105324128D01*
X157663236Y-105325500D01*
X157836764Y-105325500D01*
X157843217Y-105324128D01*
X157843221Y-105324128D01*
X157921632Y-105307461D01*
X158006499Y-105289422D01*
X158012530Y-105286737D01*
X158158994Y-105221527D01*
X158158996Y-105221526D01*
X158165024Y-105218842D01*
X158183658Y-105205304D01*
X158215983Y-105181818D01*
X158305410Y-105116845D01*
X158421522Y-104987889D01*
X158508286Y-104837611D01*
X158536118Y-104751950D01*
X158559867Y-104678859D01*
X158559868Y-104678855D01*
X158561908Y-104672576D01*
X158580047Y-104500000D01*
X158561908Y-104327424D01*
X158555196Y-104306764D01*
X158521015Y-104201565D01*
X158508286Y-104162389D01*
X158421522Y-104012111D01*
X158361464Y-103945410D01*
X158309832Y-103888066D01*
X158309831Y-103888065D01*
X158305410Y-103883155D01*
X158215983Y-103818182D01*
X158170366Y-103785039D01*
X158170365Y-103785038D01*
X158165024Y-103781158D01*
X158158996Y-103778474D01*
X158158994Y-103778473D01*
X158012530Y-103713263D01*
X158012529Y-103713263D01*
X158006499Y-103710578D01*
X157920672Y-103692335D01*
X157843221Y-103675872D01*
X157843217Y-103675872D01*
X157836764Y-103674500D01*
X157663236Y-103674500D01*
X157656783Y-103675872D01*
X157656779Y-103675872D01*
X157579328Y-103692335D01*
X157493501Y-103710578D01*
X157487472Y-103713262D01*
X157487470Y-103713263D01*
X157341007Y-103778473D01*
X157341005Y-103778474D01*
X157334977Y-103781158D01*
X157329636Y-103785038D01*
X157329635Y-103785039D01*
X157239806Y-103850304D01*
X157194590Y-103883155D01*
X157190169Y-103888065D01*
X157190168Y-103888066D01*
X157138536Y-103945410D01*
X157078478Y-104012111D01*
X156991714Y-104162389D01*
X156978985Y-104201565D01*
X156944805Y-104306764D01*
X156938092Y-104327424D01*
X156919953Y-104500000D01*
X143472811Y-104500000D01*
X143447900Y-104448090D01*
X143456663Y-104377637D01*
X143482054Y-104346532D01*
X143479937Y-104344840D01*
X143499623Y-104320212D01*
X143492554Y-104306764D01*
X142579885Y-103394095D01*
X142545859Y-103331783D01*
X142547694Y-103306132D01*
X143214408Y-103306132D01*
X143214539Y-103307965D01*
X143218790Y-103314580D01*
X143852486Y-103948276D01*
X143864261Y-103954706D01*
X143876276Y-103945410D01*
X143897001Y-103915811D01*
X143902479Y-103906323D01*
X143975372Y-103750000D01*
X147344508Y-103750000D01*
X147346059Y-103759793D01*
X147360893Y-103853450D01*
X147364354Y-103875304D01*
X147421950Y-103988342D01*
X147511658Y-104078050D01*
X147624696Y-104135646D01*
X147634485Y-104137196D01*
X147634487Y-104137197D01*
X147740207Y-104153941D01*
X147750000Y-104155492D01*
X147759793Y-104153941D01*
X147865513Y-104137197D01*
X147865515Y-104137196D01*
X147875304Y-104135646D01*
X147988342Y-104078050D01*
X148078050Y-103988342D01*
X148135646Y-103875304D01*
X148139108Y-103853450D01*
X148153941Y-103759793D01*
X148155492Y-103750000D01*
X148153941Y-103740207D01*
X148151533Y-103725000D01*
X148744508Y-103725000D01*
X148746059Y-103734793D01*
X148748468Y-103750000D01*
X148764354Y-103850304D01*
X148821950Y-103963342D01*
X148911658Y-104053050D01*
X149024696Y-104110646D01*
X149034485Y-104112196D01*
X149034487Y-104112197D01*
X149140207Y-104128941D01*
X149150000Y-104130492D01*
X149159793Y-104128941D01*
X149265513Y-104112197D01*
X149265515Y-104112196D01*
X149275304Y-104110646D01*
X149388342Y-104053050D01*
X149478050Y-103963342D01*
X149510325Y-103900000D01*
X150144508Y-103900000D01*
X150146059Y-103909793D01*
X150162076Y-104010918D01*
X150164354Y-104025304D01*
X150221950Y-104138342D01*
X150311658Y-104228050D01*
X150424696Y-104285646D01*
X150434485Y-104287196D01*
X150434487Y-104287197D01*
X150540207Y-104303941D01*
X150550000Y-104305492D01*
X150559793Y-104303941D01*
X150665513Y-104287197D01*
X150665515Y-104287196D01*
X150675304Y-104285646D01*
X150788342Y-104228050D01*
X150878050Y-104138342D01*
X150935646Y-104025304D01*
X150937925Y-104010918D01*
X150953941Y-103909793D01*
X150955492Y-103900000D01*
X150947124Y-103847165D01*
X150937197Y-103784487D01*
X150937196Y-103784485D01*
X150935646Y-103774696D01*
X150878050Y-103661658D01*
X150788342Y-103571950D01*
X150675304Y-103514354D01*
X150665515Y-103512804D01*
X150665513Y-103512803D01*
X150559793Y-103496059D01*
X150550000Y-103494508D01*
X150540207Y-103496059D01*
X150434487Y-103512803D01*
X150434485Y-103512804D01*
X150424696Y-103514354D01*
X150311658Y-103571950D01*
X150221950Y-103661658D01*
X150164354Y-103774696D01*
X150162804Y-103784485D01*
X150162803Y-103784487D01*
X150152876Y-103847165D01*
X150144508Y-103900000D01*
X149510325Y-103900000D01*
X149535646Y-103850304D01*
X149551533Y-103750000D01*
X149553941Y-103734793D01*
X149555492Y-103725000D01*
X149551225Y-103698056D01*
X149537197Y-103609487D01*
X149537196Y-103609485D01*
X149535646Y-103599696D01*
X149478050Y-103486658D01*
X149388342Y-103396950D01*
X149275304Y-103339354D01*
X149265515Y-103337804D01*
X149265513Y-103337803D01*
X149159793Y-103321059D01*
X149150000Y-103319508D01*
X149140207Y-103321059D01*
X149034487Y-103337803D01*
X149034485Y-103337804D01*
X149024696Y-103339354D01*
X148911658Y-103396950D01*
X148821950Y-103486658D01*
X148764354Y-103599696D01*
X148762804Y-103609485D01*
X148762803Y-103609487D01*
X148748775Y-103698056D01*
X148744508Y-103725000D01*
X148151533Y-103725000D01*
X148137197Y-103634487D01*
X148137196Y-103634485D01*
X148135646Y-103624696D01*
X148078050Y-103511658D01*
X147988342Y-103421950D01*
X147875304Y-103364354D01*
X147865515Y-103362804D01*
X147865513Y-103362803D01*
X147759793Y-103346059D01*
X147750000Y-103344508D01*
X147740207Y-103346059D01*
X147634487Y-103362803D01*
X147634485Y-103362804D01*
X147624696Y-103364354D01*
X147511658Y-103421950D01*
X147421950Y-103511658D01*
X147364354Y-103624696D01*
X147362804Y-103634485D01*
X147362803Y-103634487D01*
X147346059Y-103740207D01*
X147344508Y-103750000D01*
X143975372Y-103750000D01*
X143987159Y-103724723D01*
X143990907Y-103714429D01*
X144042769Y-103520878D01*
X144044671Y-103510091D01*
X144062135Y-103310475D01*
X144062135Y-103299525D01*
X144044671Y-103099909D01*
X144042769Y-103089122D01*
X143990907Y-102895571D01*
X143987159Y-102885277D01*
X143902479Y-102703677D01*
X143897001Y-102694189D01*
X143875689Y-102663752D01*
X143865212Y-102655377D01*
X143851764Y-102662446D01*
X143222022Y-103292188D01*
X143214408Y-103306132D01*
X142547694Y-103306132D01*
X142550924Y-103260968D01*
X142579885Y-103215905D01*
X143493276Y-102302514D01*
X143499706Y-102290739D01*
X143478701Y-102263589D01*
X143481065Y-102261760D01*
X143455651Y-102229962D01*
X143448346Y-102159342D01*
X143478617Y-102097902D01*
X143537440Y-102032573D01*
X143537441Y-102032572D01*
X143541859Y-102027665D01*
X143611278Y-101907427D01*
X143627946Y-101878558D01*
X143627947Y-101878557D01*
X143631250Y-101872835D01*
X143686497Y-101702803D01*
X143695957Y-101612803D01*
X143704495Y-101531565D01*
X143705185Y-101525000D01*
X143697919Y-101455873D01*
X143687187Y-101353761D01*
X143687187Y-101353760D01*
X143686497Y-101347197D01*
X143631250Y-101177165D01*
X143541859Y-101022335D01*
X143490696Y-100965513D01*
X143426645Y-100894377D01*
X143426643Y-100894376D01*
X143422230Y-100889474D01*
X143361461Y-100845322D01*
X143282935Y-100788269D01*
X143282933Y-100788268D01*
X143277593Y-100784388D01*
X143271565Y-100781704D01*
X143271563Y-100781703D01*
X143120298Y-100714356D01*
X143120297Y-100714356D01*
X143114267Y-100711671D01*
X143026829Y-100693085D01*
X142945848Y-100675872D01*
X142945844Y-100675872D01*
X142939391Y-100674500D01*
X142760609Y-100674500D01*
X142754156Y-100675872D01*
X142754152Y-100675872D01*
X142673171Y-100693085D01*
X142585733Y-100711671D01*
X142579703Y-100714356D01*
X142579702Y-100714356D01*
X142428438Y-100781703D01*
X142428436Y-100781704D01*
X142422408Y-100784388D01*
X142417067Y-100788268D01*
X142417066Y-100788269D01*
X142300561Y-100872915D01*
X142233693Y-100896774D01*
X142164542Y-100880693D01*
X142115061Y-100829779D01*
X142100500Y-100770979D01*
X142100500Y-99557374D01*
X142101065Y-99545817D01*
X142104246Y-99534832D01*
X142100970Y-99497006D01*
X142100500Y-99486134D01*
X142100500Y-99477052D01*
X142099276Y-99470479D01*
X142097616Y-99458280D01*
X142095591Y-99434895D01*
X142095591Y-99434894D01*
X142094587Y-99423304D01*
X142089480Y-99412855D01*
X142088568Y-99409567D01*
X142087339Y-99406383D01*
X142085209Y-99394947D01*
X142066779Y-99365048D01*
X142060840Y-99354266D01*
X142050533Y-99333181D01*
X142045425Y-99322731D01*
X142036899Y-99314822D01*
X142034866Y-99312084D01*
X142032572Y-99309554D01*
X142026468Y-99299652D01*
X142017212Y-99292613D01*
X142017207Y-99292608D01*
X141998513Y-99278393D01*
X141989092Y-99270474D01*
X141971882Y-99254510D01*
X141971883Y-99254510D01*
X141963354Y-99246599D01*
X141952553Y-99242290D01*
X141949676Y-99240471D01*
X141946619Y-99238934D01*
X141937359Y-99231892D01*
X141903632Y-99222126D01*
X141891992Y-99218129D01*
X141859378Y-99205117D01*
X141853085Y-99204500D01*
X141850003Y-99204500D01*
X141846933Y-99204350D01*
X141846939Y-99204234D01*
X141840817Y-99203935D01*
X141829832Y-99200754D01*
X141792006Y-99204030D01*
X141781134Y-99204500D01*
X133252374Y-99204500D01*
X133240817Y-99203935D01*
X133229832Y-99200754D01*
X133192006Y-99204030D01*
X133181134Y-99204500D01*
X133172052Y-99204500D01*
X133166351Y-99205562D01*
X133166349Y-99205562D01*
X133165479Y-99205724D01*
X133153280Y-99207384D01*
X133129895Y-99209409D01*
X133129894Y-99209409D01*
X133118304Y-99210413D01*
X133107855Y-99215520D01*
X133104567Y-99216432D01*
X133101383Y-99217661D01*
X133089947Y-99219791D01*
X133070316Y-99231892D01*
X133060048Y-99238221D01*
X133049265Y-99244160D01*
X133017731Y-99259575D01*
X133009822Y-99268101D01*
X133007084Y-99270134D01*
X133004554Y-99272428D01*
X132994652Y-99278532D01*
X132987613Y-99287788D01*
X132987608Y-99287793D01*
X132973393Y-99306487D01*
X132965474Y-99315908D01*
X132941599Y-99341646D01*
X132937290Y-99352447D01*
X132935471Y-99355324D01*
X132933934Y-99358381D01*
X132926892Y-99367641D01*
X132923656Y-99378817D01*
X132917126Y-99401367D01*
X132913129Y-99413008D01*
X132900117Y-99445622D01*
X132899500Y-99451915D01*
X132899500Y-99454997D01*
X132899350Y-99458067D01*
X132899234Y-99458061D01*
X132898935Y-99464183D01*
X132895754Y-99475168D01*
X132896758Y-99486759D01*
X132899030Y-99512994D01*
X132899500Y-99523866D01*
X132899500Y-99880979D01*
X132879498Y-99949100D01*
X132825842Y-99995593D01*
X132755568Y-100005697D01*
X132699439Y-99982915D01*
X132582935Y-99898269D01*
X132582933Y-99898268D01*
X132577593Y-99894388D01*
X132571565Y-99891704D01*
X132571563Y-99891703D01*
X132420298Y-99824356D01*
X132420297Y-99824356D01*
X132414267Y-99821671D01*
X132326829Y-99803085D01*
X132245848Y-99785872D01*
X132245844Y-99785872D01*
X132239391Y-99784500D01*
X132060609Y-99784500D01*
X132054156Y-99785872D01*
X132054152Y-99785872D01*
X131973171Y-99803085D01*
X131885733Y-99821671D01*
X131879703Y-99824356D01*
X131879702Y-99824356D01*
X131728438Y-99891703D01*
X131728436Y-99891704D01*
X131722408Y-99894388D01*
X131577770Y-99999474D01*
X131573357Y-100004376D01*
X131573355Y-100004377D01*
X131462560Y-100127427D01*
X131458141Y-100132335D01*
X131368750Y-100287165D01*
X131313503Y-100457197D01*
X131312813Y-100463760D01*
X131312813Y-100463761D01*
X131298005Y-100604647D01*
X131294815Y-100635000D01*
X131295505Y-100641565D01*
X131304243Y-100724696D01*
X131313503Y-100812803D01*
X131368750Y-100982835D01*
X131458141Y-101137665D01*
X131462559Y-101142572D01*
X131462560Y-101142573D01*
X131562837Y-101253941D01*
X131577770Y-101270526D01*
X131583109Y-101274405D01*
X131683298Y-101347197D01*
X131722407Y-101375612D01*
X131728433Y-101378295D01*
X131728440Y-101378299D01*
X131799403Y-101409893D01*
X131853499Y-101455873D01*
X131874149Y-101523800D01*
X131854797Y-101592108D01*
X131799404Y-101640107D01*
X131728438Y-101671703D01*
X131728436Y-101671704D01*
X131722408Y-101674388D01*
X131577770Y-101779474D01*
X131573357Y-101784376D01*
X131573355Y-101784377D01*
X131479993Y-101888066D01*
X131458141Y-101912335D01*
X131368750Y-102067165D01*
X131313503Y-102237197D01*
X131312813Y-102243760D01*
X131312813Y-102243761D01*
X131298967Y-102375500D01*
X131294815Y-102415000D01*
X131313503Y-102592803D01*
X131315543Y-102599080D01*
X131315543Y-102599082D01*
X131336131Y-102662446D01*
X131368750Y-102762835D01*
X131372053Y-102768557D01*
X131372054Y-102768558D01*
X131426649Y-102863120D01*
X131458141Y-102917665D01*
X131462559Y-102922572D01*
X131462560Y-102922573D01*
X131516223Y-102982171D01*
X131577770Y-103050526D01*
X131722407Y-103155612D01*
X131728433Y-103158295D01*
X131728440Y-103158299D01*
X131799403Y-103189893D01*
X131853499Y-103235873D01*
X131874149Y-103303800D01*
X131854797Y-103372108D01*
X131799404Y-103420107D01*
X131728438Y-103451703D01*
X131728436Y-103451704D01*
X131722408Y-103454388D01*
X131577770Y-103559474D01*
X131573357Y-103564376D01*
X131573355Y-103564377D01*
X131485763Y-103661658D01*
X131458141Y-103692335D01*
X131454838Y-103698056D01*
X131372591Y-103840513D01*
X131368750Y-103847165D01*
X131366708Y-103853450D01*
X131320601Y-103995353D01*
X131313503Y-104017197D01*
X131312813Y-104023760D01*
X131312813Y-104023761D01*
X131295505Y-104188435D01*
X131294815Y-104195000D01*
X131295505Y-104201565D01*
X131302874Y-104271671D01*
X131313503Y-104372803D01*
X131368750Y-104542835D01*
X131458141Y-104697665D01*
X131462559Y-104702572D01*
X131462560Y-104702573D01*
X131507020Y-104751950D01*
X131577770Y-104830526D01*
X131583109Y-104834405D01*
X131683298Y-104907197D01*
X131722407Y-104935612D01*
X131728433Y-104938295D01*
X131728440Y-104938299D01*
X131799403Y-104969893D01*
X131853499Y-105015873D01*
X131874149Y-105083800D01*
X131854797Y-105152108D01*
X131799404Y-105200107D01*
X131728438Y-105231703D01*
X131728436Y-105231704D01*
X131722408Y-105234388D01*
X131577770Y-105339474D01*
X131573357Y-105344376D01*
X131573355Y-105344377D01*
X131464164Y-105465646D01*
X131458141Y-105472335D01*
X131368750Y-105627165D01*
X131313503Y-105797197D01*
X131312813Y-105803760D01*
X131312813Y-105803761D01*
X131302081Y-105905873D01*
X131294815Y-105975000D01*
X131295505Y-105981565D01*
X131302874Y-106051671D01*
X131313503Y-106152803D01*
X131368750Y-106322835D01*
X131458141Y-106477665D01*
X131462559Y-106482572D01*
X131462560Y-106482573D01*
X131478252Y-106500000D01*
X131577770Y-106610526D01*
X131583109Y-106614405D01*
X131683298Y-106687197D01*
X131722407Y-106715612D01*
X131728433Y-106718295D01*
X131728440Y-106718299D01*
X131799403Y-106749893D01*
X131853499Y-106795873D01*
X131874149Y-106863800D01*
X131854797Y-106932108D01*
X131799404Y-106980107D01*
X131728438Y-107011703D01*
X131728436Y-107011704D01*
X131722408Y-107014388D01*
X131577770Y-107119474D01*
X131573357Y-107124376D01*
X131573355Y-107124377D01*
X131534572Y-107167450D01*
X131458141Y-107252335D01*
X131368750Y-107407165D01*
X131313503Y-107577197D01*
X131312813Y-107583760D01*
X131312813Y-107583761D01*
X131302081Y-107685873D01*
X131294815Y-107755000D01*
X131295505Y-107761565D01*
X131308547Y-107885646D01*
X131313503Y-107932803D01*
X131368750Y-108102835D01*
X131372053Y-108108557D01*
X131372054Y-108108558D01*
X131412701Y-108178961D01*
X131458141Y-108257665D01*
X131462559Y-108262572D01*
X131462560Y-108262573D01*
X131563517Y-108374696D01*
X131577770Y-108390526D01*
X131583109Y-108394405D01*
X131714968Y-108490207D01*
X131722407Y-108495612D01*
X131728433Y-108498295D01*
X131728440Y-108498299D01*
X131799403Y-108529893D01*
X131853499Y-108575873D01*
X131874149Y-108643800D01*
X131854797Y-108712108D01*
X131799404Y-108760107D01*
X131728438Y-108791703D01*
X131728436Y-108791704D01*
X131722408Y-108794388D01*
X131717067Y-108798268D01*
X131717066Y-108798269D01*
X131596846Y-108885614D01*
X131577770Y-108899474D01*
X131573357Y-108904376D01*
X131573355Y-108904377D01*
X131493739Y-108992799D01*
X131458141Y-109032335D01*
X131454838Y-109038056D01*
X131385019Y-109158987D01*
X131368750Y-109187165D01*
X131357585Y-109221527D01*
X131325430Y-109320491D01*
X131313503Y-109357197D01*
X131312813Y-109363760D01*
X131312813Y-109363761D01*
X131302081Y-109465873D01*
X131294815Y-109535000D01*
X131295505Y-109541565D01*
X131302874Y-109611671D01*
X131313503Y-109712803D01*
X131368750Y-109882835D01*
X131458141Y-110037665D01*
X131462559Y-110042572D01*
X131462560Y-110042573D01*
X131565298Y-110156674D01*
X131577770Y-110170526D01*
X131583109Y-110174405D01*
X131683298Y-110247197D01*
X131722407Y-110275612D01*
X131728433Y-110278295D01*
X131728440Y-110278299D01*
X131799403Y-110309893D01*
X131853499Y-110355873D01*
X131874149Y-110423800D01*
X131854797Y-110492108D01*
X131799404Y-110540107D01*
X131728438Y-110571703D01*
X131728436Y-110571704D01*
X131722408Y-110574388D01*
X131577770Y-110679474D01*
X131573357Y-110684376D01*
X131573355Y-110684377D01*
X131499366Y-110766550D01*
X131458141Y-110812335D01*
X131368750Y-110967165D01*
X131366708Y-110973450D01*
X131316454Y-111128116D01*
X131313503Y-111137197D01*
X131312813Y-111143760D01*
X131312813Y-111143761D01*
X131302081Y-111245873D01*
X131294815Y-111315000D01*
X131295505Y-111321565D01*
X131311689Y-111475540D01*
X131313503Y-111492803D01*
X131315543Y-111499080D01*
X131315543Y-111499082D01*
X131326323Y-111532258D01*
X131368750Y-111662835D01*
X131458141Y-111817665D01*
X131462559Y-111822572D01*
X131462560Y-111822573D01*
X131543446Y-111912405D01*
X131577770Y-111950526D01*
X131583109Y-111954405D01*
X131683298Y-112027197D01*
X131722407Y-112055612D01*
X131728433Y-112058295D01*
X131728440Y-112058299D01*
X131799403Y-112089893D01*
X131853499Y-112135873D01*
X131874149Y-112203800D01*
X131854797Y-112272108D01*
X131799404Y-112320107D01*
X131728438Y-112351703D01*
X131728436Y-112351704D01*
X131722408Y-112354388D01*
X131717067Y-112358268D01*
X131717066Y-112358269D01*
X131686786Y-112380269D01*
X131577770Y-112459474D01*
X131573357Y-112464376D01*
X131573355Y-112464377D01*
X131551316Y-112488854D01*
X131458141Y-112592335D01*
X131368750Y-112747165D01*
X131313503Y-112917197D01*
X131312813Y-112923760D01*
X131312813Y-112923761D01*
X131302484Y-113022037D01*
X131294815Y-113095000D01*
X115300500Y-113095000D01*
X115300500Y-105825000D01*
X118619508Y-105825000D01*
X118621059Y-105834793D01*
X118632637Y-105907892D01*
X118639354Y-105950304D01*
X118696950Y-106063342D01*
X118786658Y-106153050D01*
X118899696Y-106210646D01*
X118909485Y-106212196D01*
X118909487Y-106212197D01*
X119015207Y-106228941D01*
X119025000Y-106230492D01*
X119034793Y-106228941D01*
X119140513Y-106212197D01*
X119140515Y-106212196D01*
X119150304Y-106210646D01*
X119263342Y-106153050D01*
X119353050Y-106063342D01*
X119410646Y-105950304D01*
X119417364Y-105907892D01*
X119428941Y-105834793D01*
X119430492Y-105825000D01*
X119427128Y-105803761D01*
X119412197Y-105709487D01*
X119412196Y-105709485D01*
X119410646Y-105699696D01*
X119353050Y-105586658D01*
X119263342Y-105496950D01*
X119150304Y-105439354D01*
X119140515Y-105437804D01*
X119140513Y-105437803D01*
X119034793Y-105421059D01*
X119025000Y-105419508D01*
X119015207Y-105421059D01*
X118909487Y-105437803D01*
X118909485Y-105437804D01*
X118899696Y-105439354D01*
X118786658Y-105496950D01*
X118696950Y-105586658D01*
X118639354Y-105699696D01*
X118637804Y-105709485D01*
X118637803Y-105709487D01*
X118622872Y-105803761D01*
X118619508Y-105825000D01*
X115300500Y-105825000D01*
X115300500Y-101305000D01*
X122789508Y-101305000D01*
X122809354Y-101430304D01*
X122866950Y-101543342D01*
X122956658Y-101633050D01*
X123069696Y-101690646D01*
X123079485Y-101692196D01*
X123079487Y-101692197D01*
X123185207Y-101708941D01*
X123195000Y-101710492D01*
X123204793Y-101708941D01*
X123310513Y-101692197D01*
X123310515Y-101692196D01*
X123320304Y-101690646D01*
X123433342Y-101633050D01*
X123523050Y-101543342D01*
X123580646Y-101430304D01*
X123600492Y-101305000D01*
X123598941Y-101295207D01*
X123582197Y-101189487D01*
X123582196Y-101189485D01*
X123580646Y-101179696D01*
X123523050Y-101066658D01*
X123433342Y-100976950D01*
X123320304Y-100919354D01*
X123310515Y-100917804D01*
X123310513Y-100917803D01*
X123204793Y-100901059D01*
X123195000Y-100899508D01*
X123185207Y-100901059D01*
X123079487Y-100917803D01*
X123079485Y-100917804D01*
X123069696Y-100919354D01*
X122956658Y-100976950D01*
X122866950Y-101066658D01*
X122809354Y-101179696D01*
X122807804Y-101189485D01*
X122807803Y-101189487D01*
X122791059Y-101295207D01*
X122789508Y-101305000D01*
X115300500Y-101305000D01*
X115300500Y-100850000D01*
X129419508Y-100850000D01*
X129421059Y-100859793D01*
X129437563Y-100963993D01*
X129439354Y-100975304D01*
X129496950Y-101088342D01*
X129586658Y-101178050D01*
X129699696Y-101235646D01*
X129709485Y-101237196D01*
X129709487Y-101237197D01*
X129815207Y-101253941D01*
X129825000Y-101255492D01*
X129834793Y-101253941D01*
X129940513Y-101237197D01*
X129940515Y-101237196D01*
X129950304Y-101235646D01*
X130063342Y-101178050D01*
X130153050Y-101088342D01*
X130210646Y-100975304D01*
X130212438Y-100963993D01*
X130228941Y-100859793D01*
X130230492Y-100850000D01*
X130218951Y-100777132D01*
X130212197Y-100734487D01*
X130212196Y-100734485D01*
X130210646Y-100724696D01*
X130153050Y-100611658D01*
X130063342Y-100521950D01*
X129950304Y-100464354D01*
X129940515Y-100462804D01*
X129940513Y-100462803D01*
X129834793Y-100446059D01*
X129825000Y-100444508D01*
X129815207Y-100446059D01*
X129709487Y-100462803D01*
X129709485Y-100462804D01*
X129699696Y-100464354D01*
X129586658Y-100521950D01*
X129496950Y-100611658D01*
X129439354Y-100724696D01*
X129437804Y-100734485D01*
X129437803Y-100734487D01*
X129431049Y-100777132D01*
X129419508Y-100850000D01*
X115300500Y-100850000D01*
X115300500Y-96550000D01*
X122869508Y-96550000D01*
X122889354Y-96675304D01*
X122946950Y-96788342D01*
X123036658Y-96878050D01*
X123149696Y-96935646D01*
X123159485Y-96937196D01*
X123159487Y-96937197D01*
X123244332Y-96950635D01*
X123308485Y-96981048D01*
X123346012Y-97041316D01*
X123344453Y-97114022D01*
X123343855Y-97115863D01*
X123339354Y-97124696D01*
X123319508Y-97250000D01*
X123321059Y-97259793D01*
X123331339Y-97324696D01*
X123339354Y-97375304D01*
X123396950Y-97488342D01*
X123486658Y-97578050D01*
X123599696Y-97635646D01*
X123609485Y-97637196D01*
X123609487Y-97637197D01*
X123715207Y-97653941D01*
X123725000Y-97655492D01*
X123734793Y-97653941D01*
X123840513Y-97637197D01*
X123840515Y-97637196D01*
X123850304Y-97635646D01*
X123963342Y-97578050D01*
X124053050Y-97488342D01*
X124072586Y-97450000D01*
X126519508Y-97450000D01*
X126539354Y-97575304D01*
X126596950Y-97688342D01*
X126686658Y-97778050D01*
X126799696Y-97835646D01*
X126809485Y-97837196D01*
X126809487Y-97837197D01*
X126915207Y-97853941D01*
X126925000Y-97855492D01*
X126934793Y-97853941D01*
X127040513Y-97837197D01*
X127040515Y-97837196D01*
X127050304Y-97835646D01*
X127163342Y-97778050D01*
X127253050Y-97688342D01*
X127310646Y-97575304D01*
X127330492Y-97450000D01*
X127328941Y-97440207D01*
X127312197Y-97334487D01*
X127312196Y-97334485D01*
X127310646Y-97324696D01*
X127253050Y-97211658D01*
X127163342Y-97121950D01*
X127050304Y-97064354D01*
X127040515Y-97062804D01*
X127040513Y-97062803D01*
X126934793Y-97046059D01*
X126925000Y-97044508D01*
X126915207Y-97046059D01*
X126809487Y-97062803D01*
X126809485Y-97062804D01*
X126799696Y-97064354D01*
X126686658Y-97121950D01*
X126596950Y-97211658D01*
X126539354Y-97324696D01*
X126537804Y-97334485D01*
X126537803Y-97334487D01*
X126521059Y-97440207D01*
X126519508Y-97450000D01*
X124072586Y-97450000D01*
X124110646Y-97375304D01*
X124118662Y-97324696D01*
X124128941Y-97259793D01*
X124130492Y-97250000D01*
X124110646Y-97124696D01*
X124053050Y-97011658D01*
X123963342Y-96921950D01*
X123850304Y-96864354D01*
X123840515Y-96862804D01*
X123840513Y-96862803D01*
X123755668Y-96849365D01*
X123691515Y-96818952D01*
X123653988Y-96758684D01*
X123655547Y-96685978D01*
X123656145Y-96684137D01*
X123660646Y-96675304D01*
X123680492Y-96550000D01*
X123676442Y-96524430D01*
X123662197Y-96434487D01*
X123662196Y-96434485D01*
X123660646Y-96424696D01*
X123603050Y-96311658D01*
X123513342Y-96221950D01*
X123400304Y-96164354D01*
X123390515Y-96162804D01*
X123390513Y-96162803D01*
X123284793Y-96146059D01*
X123275000Y-96144508D01*
X123265207Y-96146059D01*
X123159487Y-96162803D01*
X123159485Y-96162804D01*
X123149696Y-96164354D01*
X123036658Y-96221950D01*
X122946950Y-96311658D01*
X122889354Y-96424696D01*
X122887804Y-96434485D01*
X122887803Y-96434487D01*
X122873558Y-96524430D01*
X122869508Y-96550000D01*
X115300500Y-96550000D01*
X115300500Y-96137233D01*
X134723038Y-96137233D01*
X134724589Y-96147026D01*
X134727334Y-96164354D01*
X134742884Y-96262537D01*
X134800480Y-96375575D01*
X134890188Y-96465283D01*
X135003226Y-96522879D01*
X135013015Y-96524429D01*
X135013017Y-96524430D01*
X135118737Y-96541174D01*
X135128530Y-96542725D01*
X135138323Y-96541174D01*
X135244043Y-96524430D01*
X135244045Y-96524429D01*
X135253834Y-96522879D01*
X135366872Y-96465283D01*
X135456580Y-96375575D01*
X135514176Y-96262537D01*
X135529727Y-96164354D01*
X135532471Y-96147026D01*
X135534022Y-96137233D01*
X135514176Y-96011929D01*
X135456580Y-95898891D01*
X135366872Y-95809183D01*
X135253834Y-95751587D01*
X135244045Y-95750037D01*
X135244043Y-95750036D01*
X135138323Y-95733292D01*
X135128530Y-95731741D01*
X135118737Y-95733292D01*
X135013017Y-95750036D01*
X135013015Y-95750037D01*
X135003226Y-95751587D01*
X134890188Y-95809183D01*
X134800480Y-95898891D01*
X134742884Y-96011929D01*
X134723038Y-96137233D01*
X115300500Y-96137233D01*
X115300500Y-95000000D01*
X119944508Y-95000000D01*
X119964354Y-95125304D01*
X120021950Y-95238342D01*
X120111658Y-95328050D01*
X120224696Y-95385646D01*
X120234485Y-95387196D01*
X120234487Y-95387197D01*
X120340207Y-95403941D01*
X120350000Y-95405492D01*
X120359793Y-95403941D01*
X120465513Y-95387197D01*
X120465515Y-95387196D01*
X120475304Y-95385646D01*
X120588342Y-95328050D01*
X120678050Y-95238342D01*
X120723063Y-95150000D01*
X124519508Y-95150000D01*
X124539354Y-95275304D01*
X124596950Y-95388342D01*
X124686658Y-95478050D01*
X124799696Y-95535646D01*
X124809485Y-95537196D01*
X124809487Y-95537197D01*
X124915207Y-95553941D01*
X124925000Y-95555492D01*
X124934793Y-95553941D01*
X125040513Y-95537197D01*
X125040515Y-95537196D01*
X125050304Y-95535646D01*
X125163342Y-95478050D01*
X125253050Y-95388342D01*
X125310646Y-95275304D01*
X125330492Y-95150000D01*
X125327728Y-95132550D01*
X125312197Y-95034487D01*
X125312196Y-95034485D01*
X125310646Y-95024696D01*
X125253050Y-94911658D01*
X125163342Y-94821950D01*
X125050304Y-94764354D01*
X125040515Y-94762804D01*
X125040513Y-94762803D01*
X124934793Y-94746059D01*
X124925000Y-94744508D01*
X124915207Y-94746059D01*
X124809487Y-94762803D01*
X124809485Y-94762804D01*
X124799696Y-94764354D01*
X124686658Y-94821950D01*
X124596950Y-94911658D01*
X124539354Y-95024696D01*
X124537804Y-95034485D01*
X124537803Y-95034487D01*
X124522272Y-95132550D01*
X124519508Y-95150000D01*
X120723063Y-95150000D01*
X120735646Y-95125304D01*
X120755492Y-95000000D01*
X120747019Y-94946501D01*
X120756119Y-94876090D01*
X120801841Y-94821776D01*
X120869669Y-94800804D01*
X120898900Y-94805220D01*
X120898956Y-94804869D01*
X121005704Y-94821776D01*
X121024260Y-94824715D01*
X121034053Y-94823164D01*
X121139773Y-94806420D01*
X121139775Y-94806419D01*
X121149564Y-94804869D01*
X121262602Y-94747273D01*
X121352310Y-94657565D01*
X121409906Y-94544527D01*
X121422421Y-94465513D01*
X121428201Y-94429016D01*
X121429752Y-94419223D01*
X121415699Y-94330492D01*
X121411457Y-94303710D01*
X121411456Y-94303708D01*
X121409906Y-94293919D01*
X121352310Y-94180881D01*
X121262602Y-94091173D01*
X121149564Y-94033577D01*
X121139775Y-94032027D01*
X121139773Y-94032026D01*
X121034053Y-94015282D01*
X121024260Y-94013731D01*
X121014467Y-94015282D01*
X120908747Y-94032026D01*
X120908745Y-94032027D01*
X120898956Y-94033577D01*
X120785918Y-94091173D01*
X120696210Y-94180881D01*
X120638614Y-94293919D01*
X120637064Y-94303708D01*
X120637063Y-94303710D01*
X120632821Y-94330492D01*
X120618768Y-94419223D01*
X120620319Y-94429016D01*
X120620319Y-94429017D01*
X120627241Y-94472722D01*
X120618141Y-94543133D01*
X120572419Y-94597447D01*
X120504591Y-94618419D01*
X120475360Y-94614003D01*
X120475304Y-94614354D01*
X120359793Y-94596059D01*
X120350000Y-94594508D01*
X120340207Y-94596059D01*
X120234487Y-94612803D01*
X120234485Y-94612804D01*
X120224696Y-94614354D01*
X120111658Y-94671950D01*
X120021950Y-94761658D01*
X119964354Y-94874696D01*
X119962804Y-94884485D01*
X119962803Y-94884487D01*
X119952981Y-94946501D01*
X119944508Y-95000000D01*
X115300500Y-95000000D01*
X115300500Y-92975000D01*
X121419508Y-92975000D01*
X121421059Y-92984793D01*
X121431339Y-93049696D01*
X121439354Y-93100304D01*
X121496950Y-93213342D01*
X121586658Y-93303050D01*
X121699696Y-93360646D01*
X121709487Y-93362197D01*
X121709488Y-93362197D01*
X121777682Y-93372998D01*
X121841835Y-93403411D01*
X121879362Y-93463679D01*
X121878348Y-93534668D01*
X121847066Y-93586542D01*
X121796950Y-93636658D01*
X121739354Y-93749696D01*
X121719508Y-93875000D01*
X121721059Y-93884793D01*
X121730763Y-93946059D01*
X121739354Y-94000304D01*
X121796950Y-94113342D01*
X121886658Y-94203050D01*
X121999696Y-94260646D01*
X122009485Y-94262196D01*
X122009487Y-94262197D01*
X122115207Y-94278941D01*
X122125000Y-94280492D01*
X122134793Y-94278941D01*
X122240513Y-94262197D01*
X122240515Y-94262196D01*
X122250304Y-94260646D01*
X122363342Y-94203050D01*
X122453050Y-94113342D01*
X122510646Y-94000304D01*
X122519238Y-93946059D01*
X122528941Y-93884793D01*
X122530492Y-93875000D01*
X122510646Y-93749696D01*
X122453050Y-93636658D01*
X122363342Y-93546950D01*
X122250304Y-93489354D01*
X122240513Y-93487803D01*
X122240512Y-93487803D01*
X122172318Y-93477002D01*
X122108165Y-93446589D01*
X122070638Y-93386321D01*
X122071652Y-93315332D01*
X122102934Y-93263458D01*
X122153050Y-93213342D01*
X122172586Y-93175000D01*
X128194508Y-93175000D01*
X128196059Y-93184793D01*
X128205763Y-93246059D01*
X128214354Y-93300304D01*
X128271950Y-93413342D01*
X128361658Y-93503050D01*
X128474696Y-93560646D01*
X128484487Y-93562197D01*
X128484488Y-93562197D01*
X128496654Y-93564124D01*
X128522210Y-93568171D01*
X128586362Y-93598583D01*
X128623889Y-93658850D01*
X128622876Y-93729840D01*
X128614765Y-93749824D01*
X128593855Y-93790861D01*
X128593854Y-93790865D01*
X128589354Y-93799696D01*
X128587804Y-93809485D01*
X128587803Y-93809487D01*
X128571059Y-93915207D01*
X128569508Y-93925000D01*
X128571059Y-93934793D01*
X128587418Y-94038078D01*
X128589354Y-94050304D01*
X128646950Y-94163342D01*
X128708410Y-94224802D01*
X128742436Y-94287114D01*
X128737371Y-94357929D01*
X128694824Y-94414765D01*
X128676519Y-94426163D01*
X128586658Y-94471950D01*
X128496950Y-94561658D01*
X128439354Y-94674696D01*
X128437804Y-94684485D01*
X128437803Y-94684487D01*
X128429455Y-94737197D01*
X128419508Y-94800000D01*
X128421059Y-94809793D01*
X128437193Y-94911658D01*
X128439354Y-94925304D01*
X128496950Y-95038342D01*
X128586658Y-95128050D01*
X128699696Y-95185646D01*
X128709485Y-95187196D01*
X128709487Y-95187197D01*
X128815207Y-95203941D01*
X128825000Y-95205492D01*
X128834793Y-95203941D01*
X128940513Y-95187197D01*
X128940515Y-95187196D01*
X128950304Y-95185646D01*
X129063342Y-95128050D01*
X129153050Y-95038342D01*
X129210646Y-94925304D01*
X129212808Y-94911658D01*
X129228941Y-94809793D01*
X129230492Y-94800000D01*
X129220545Y-94737197D01*
X129212197Y-94684487D01*
X129212196Y-94684485D01*
X129210646Y-94674696D01*
X129153050Y-94561658D01*
X129091590Y-94500198D01*
X129057564Y-94437886D01*
X129062629Y-94367071D01*
X129075408Y-94350000D01*
X131119508Y-94350000D01*
X131121059Y-94359793D01*
X131133428Y-94437886D01*
X131139354Y-94475304D01*
X131196950Y-94588342D01*
X131286658Y-94678050D01*
X131399696Y-94735646D01*
X131409485Y-94737196D01*
X131409487Y-94737197D01*
X131515207Y-94753941D01*
X131525000Y-94755492D01*
X131534793Y-94753941D01*
X131640513Y-94737197D01*
X131640515Y-94737196D01*
X131650304Y-94735646D01*
X131763342Y-94678050D01*
X131853050Y-94588342D01*
X131910646Y-94475304D01*
X131916573Y-94437886D01*
X131928941Y-94359793D01*
X131930492Y-94350000D01*
X131924194Y-94310235D01*
X131912197Y-94234487D01*
X131912196Y-94234485D01*
X131910646Y-94224696D01*
X131853050Y-94111658D01*
X131763342Y-94021950D01*
X131650304Y-93964354D01*
X131640515Y-93962804D01*
X131640513Y-93962803D01*
X131534793Y-93946059D01*
X131525000Y-93944508D01*
X131515207Y-93946059D01*
X131409487Y-93962803D01*
X131409485Y-93962804D01*
X131399696Y-93964354D01*
X131286658Y-94021950D01*
X131196950Y-94111658D01*
X131139354Y-94224696D01*
X131137804Y-94234485D01*
X131137803Y-94234487D01*
X131125806Y-94310235D01*
X131119508Y-94350000D01*
X129075408Y-94350000D01*
X129105176Y-94310235D01*
X129123482Y-94298836D01*
X129204510Y-94257550D01*
X129204509Y-94257550D01*
X129213342Y-94253050D01*
X129303050Y-94163342D01*
X129360646Y-94050304D01*
X129362583Y-94038078D01*
X129378941Y-93934793D01*
X129380492Y-93925000D01*
X129378941Y-93915207D01*
X129362197Y-93809487D01*
X129362196Y-93809485D01*
X129360646Y-93799696D01*
X129303050Y-93686658D01*
X129266392Y-93650000D01*
X134469508Y-93650000D01*
X134471059Y-93659793D01*
X134474204Y-93679647D01*
X134489354Y-93775304D01*
X134546950Y-93888342D01*
X134636658Y-93978050D01*
X134749696Y-94035646D01*
X134759485Y-94037196D01*
X134759487Y-94037197D01*
X134865207Y-94053941D01*
X134875000Y-94055492D01*
X134884793Y-94053941D01*
X134990513Y-94037197D01*
X134990515Y-94037196D01*
X135000304Y-94035646D01*
X135113342Y-93978050D01*
X135203050Y-93888342D01*
X135260646Y-93775304D01*
X135275797Y-93679647D01*
X135278941Y-93659793D01*
X135280492Y-93650000D01*
X135277506Y-93631145D01*
X135262197Y-93534487D01*
X135262196Y-93534485D01*
X135260646Y-93524696D01*
X135203050Y-93411658D01*
X135113342Y-93321950D01*
X135021198Y-93275000D01*
X136619508Y-93275000D01*
X136621059Y-93284793D01*
X136634580Y-93370160D01*
X136639354Y-93400304D01*
X136696950Y-93513342D01*
X136786658Y-93603050D01*
X136899696Y-93660646D01*
X136909485Y-93662196D01*
X136909487Y-93662197D01*
X137015207Y-93678941D01*
X137025000Y-93680492D01*
X137034793Y-93678941D01*
X137140513Y-93662197D01*
X137140515Y-93662196D01*
X137150304Y-93660646D01*
X137263342Y-93603050D01*
X137353050Y-93513342D01*
X137410646Y-93400304D01*
X137415421Y-93370160D01*
X137428941Y-93284793D01*
X137430492Y-93275000D01*
X137428560Y-93262803D01*
X137426532Y-93250000D01*
X138219508Y-93250000D01*
X138221059Y-93259793D01*
X138236320Y-93356145D01*
X138239354Y-93375304D01*
X138296950Y-93488342D01*
X138386658Y-93578050D01*
X138499696Y-93635646D01*
X138509485Y-93637196D01*
X138509487Y-93637197D01*
X138615207Y-93653941D01*
X138625000Y-93655492D01*
X138634793Y-93653941D01*
X138740513Y-93637197D01*
X138740515Y-93637196D01*
X138750304Y-93635646D01*
X138863342Y-93578050D01*
X138953050Y-93488342D01*
X139010646Y-93375304D01*
X139013681Y-93356145D01*
X139028941Y-93259793D01*
X139030492Y-93250000D01*
X139028941Y-93240207D01*
X139012197Y-93134487D01*
X139012196Y-93134485D01*
X139010646Y-93124696D01*
X138953050Y-93011658D01*
X138863342Y-92921950D01*
X138750304Y-92864354D01*
X138740515Y-92862804D01*
X138740513Y-92862803D01*
X138634793Y-92846059D01*
X138625000Y-92844508D01*
X138615207Y-92846059D01*
X138509487Y-92862803D01*
X138509485Y-92862804D01*
X138499696Y-92864354D01*
X138386658Y-92921950D01*
X138296950Y-93011658D01*
X138239354Y-93124696D01*
X138237804Y-93134485D01*
X138237803Y-93134487D01*
X138221059Y-93240207D01*
X138219508Y-93250000D01*
X137426532Y-93250000D01*
X137412197Y-93159487D01*
X137412196Y-93159485D01*
X137410646Y-93149696D01*
X137353050Y-93036658D01*
X137263342Y-92946950D01*
X137150304Y-92889354D01*
X137140515Y-92887804D01*
X137140513Y-92887803D01*
X137034793Y-92871059D01*
X137025000Y-92869508D01*
X137015207Y-92871059D01*
X136909487Y-92887803D01*
X136909485Y-92887804D01*
X136899696Y-92889354D01*
X136786658Y-92946950D01*
X136696950Y-93036658D01*
X136639354Y-93149696D01*
X136637804Y-93159485D01*
X136637803Y-93159487D01*
X136621440Y-93262803D01*
X136619508Y-93275000D01*
X135021198Y-93275000D01*
X135000304Y-93264354D01*
X134990515Y-93262804D01*
X134990513Y-93262803D01*
X134884793Y-93246059D01*
X134875000Y-93244508D01*
X134865207Y-93246059D01*
X134759487Y-93262803D01*
X134759485Y-93262804D01*
X134749696Y-93264354D01*
X134636658Y-93321950D01*
X134546950Y-93411658D01*
X134489354Y-93524696D01*
X134487804Y-93534485D01*
X134487803Y-93534487D01*
X134472494Y-93631145D01*
X134469508Y-93650000D01*
X129266392Y-93650000D01*
X129213342Y-93596950D01*
X129100304Y-93539354D01*
X129090513Y-93537803D01*
X129090512Y-93537803D01*
X129070717Y-93534668D01*
X129052790Y-93531829D01*
X128988638Y-93501417D01*
X128951111Y-93441150D01*
X128952124Y-93370160D01*
X128960235Y-93350176D01*
X128981145Y-93309139D01*
X128981146Y-93309135D01*
X128985646Y-93300304D01*
X128994238Y-93246059D01*
X129003941Y-93184793D01*
X129005492Y-93175000D01*
X129000085Y-93140863D01*
X128987197Y-93059487D01*
X128987196Y-93059485D01*
X128985646Y-93049696D01*
X128928050Y-92936658D01*
X128838342Y-92846950D01*
X128725304Y-92789354D01*
X128715515Y-92787804D01*
X128715513Y-92787803D01*
X128609793Y-92771059D01*
X128600000Y-92769508D01*
X128590207Y-92771059D01*
X128484487Y-92787803D01*
X128484485Y-92787804D01*
X128474696Y-92789354D01*
X128361658Y-92846950D01*
X128271950Y-92936658D01*
X128214354Y-93049696D01*
X128212804Y-93059485D01*
X128212803Y-93059487D01*
X128199915Y-93140863D01*
X128194508Y-93175000D01*
X122172586Y-93175000D01*
X122210646Y-93100304D01*
X122218662Y-93049696D01*
X122228941Y-92984793D01*
X122230492Y-92975000D01*
X122216927Y-92889354D01*
X122212197Y-92859487D01*
X122212196Y-92859485D01*
X122210646Y-92849696D01*
X122204252Y-92837147D01*
X122203312Y-92832144D01*
X122203080Y-92831429D01*
X122203172Y-92831399D01*
X122191146Y-92767370D01*
X122217844Y-92701585D01*
X122275870Y-92660677D01*
X122315877Y-92654047D01*
X122325000Y-92655492D01*
X122334793Y-92653941D01*
X122440513Y-92637197D01*
X122440515Y-92637196D01*
X122450304Y-92635646D01*
X122563342Y-92578050D01*
X122653050Y-92488342D01*
X122710646Y-92375304D01*
X122718662Y-92324696D01*
X122728941Y-92259793D01*
X122730492Y-92250000D01*
X122710646Y-92124696D01*
X122653050Y-92011658D01*
X122563342Y-91921950D01*
X122450304Y-91864354D01*
X122440515Y-91862804D01*
X122440513Y-91862803D01*
X122334793Y-91846059D01*
X122325000Y-91844508D01*
X122315207Y-91846059D01*
X122209487Y-91862803D01*
X122209485Y-91862804D01*
X122199696Y-91864354D01*
X122086658Y-91921950D01*
X121996950Y-92011658D01*
X121939354Y-92124696D01*
X121919508Y-92250000D01*
X121921059Y-92259793D01*
X121931339Y-92324696D01*
X121939354Y-92375304D01*
X121943855Y-92384137D01*
X121943855Y-92384138D01*
X121945748Y-92387853D01*
X121946688Y-92392856D01*
X121946920Y-92393571D01*
X121946828Y-92393601D01*
X121958854Y-92457630D01*
X121932156Y-92523415D01*
X121874130Y-92564323D01*
X121834123Y-92570953D01*
X121825000Y-92569508D01*
X121815207Y-92571059D01*
X121709487Y-92587803D01*
X121709485Y-92587804D01*
X121699696Y-92589354D01*
X121586658Y-92646950D01*
X121496950Y-92736658D01*
X121439354Y-92849696D01*
X121437804Y-92859485D01*
X121437803Y-92859487D01*
X121433073Y-92889354D01*
X121419508Y-92975000D01*
X115300500Y-92975000D01*
X115300500Y-92450000D01*
X115594508Y-92450000D01*
X115596059Y-92459793D01*
X115606136Y-92523415D01*
X115614354Y-92575304D01*
X115671950Y-92688342D01*
X115761658Y-92778050D01*
X115874696Y-92835646D01*
X115884485Y-92837196D01*
X115884487Y-92837197D01*
X115990207Y-92853941D01*
X116000000Y-92855492D01*
X116009793Y-92853941D01*
X116115513Y-92837197D01*
X116115515Y-92837196D01*
X116125304Y-92835646D01*
X116238342Y-92778050D01*
X116328050Y-92688342D01*
X116385646Y-92575304D01*
X116393865Y-92523415D01*
X116403941Y-92459793D01*
X116405492Y-92450000D01*
X116403941Y-92440207D01*
X116387197Y-92334487D01*
X116387196Y-92334485D01*
X116385646Y-92324696D01*
X116328050Y-92211658D01*
X116238342Y-92121950D01*
X116125304Y-92064354D01*
X116115515Y-92062804D01*
X116115513Y-92062803D01*
X116009793Y-92046059D01*
X116000000Y-92044508D01*
X115990207Y-92046059D01*
X115884487Y-92062803D01*
X115884485Y-92062804D01*
X115874696Y-92064354D01*
X115761658Y-92121950D01*
X115671950Y-92211658D01*
X115614354Y-92324696D01*
X115612804Y-92334485D01*
X115612803Y-92334487D01*
X115596059Y-92440207D01*
X115594508Y-92450000D01*
X115300500Y-92450000D01*
X115300500Y-91275000D01*
X137844508Y-91275000D01*
X137864354Y-91400304D01*
X137921950Y-91513342D01*
X138011658Y-91603050D01*
X138124696Y-91660646D01*
X138134485Y-91662196D01*
X138134487Y-91662197D01*
X138240207Y-91678941D01*
X138250000Y-91680492D01*
X138259793Y-91678941D01*
X138365513Y-91662197D01*
X138365515Y-91662196D01*
X138375304Y-91660646D01*
X138488342Y-91603050D01*
X138578050Y-91513342D01*
X138635646Y-91400304D01*
X138655492Y-91275000D01*
X138635646Y-91149696D01*
X138578050Y-91036658D01*
X138488342Y-90946950D01*
X138375304Y-90889354D01*
X138365515Y-90887804D01*
X138365513Y-90887803D01*
X138259793Y-90871059D01*
X138250000Y-90869508D01*
X138240207Y-90871059D01*
X138134487Y-90887803D01*
X138134485Y-90887804D01*
X138124696Y-90889354D01*
X138011658Y-90946950D01*
X137921950Y-91036658D01*
X137864354Y-91149696D01*
X137844508Y-91275000D01*
X115300500Y-91275000D01*
X115300500Y-89250000D01*
X125094508Y-89250000D01*
X125096059Y-89259793D01*
X125103940Y-89309549D01*
X125114354Y-89375304D01*
X125171950Y-89488342D01*
X125261658Y-89578050D01*
X125374696Y-89635646D01*
X125384485Y-89637196D01*
X125384487Y-89637197D01*
X125490207Y-89653941D01*
X125500000Y-89655492D01*
X125501286Y-89655288D01*
X125564818Y-89673943D01*
X125611311Y-89727599D01*
X125621415Y-89797873D01*
X125608964Y-89837144D01*
X125564354Y-89924696D01*
X125544508Y-90050000D01*
X125564354Y-90175304D01*
X125621950Y-90288342D01*
X125711658Y-90378050D01*
X125824696Y-90435646D01*
X125834485Y-90437196D01*
X125834487Y-90437197D01*
X125940207Y-90453941D01*
X125950000Y-90455492D01*
X125959793Y-90453941D01*
X126065513Y-90437197D01*
X126065515Y-90437196D01*
X126075304Y-90435646D01*
X126188342Y-90378050D01*
X126278050Y-90288342D01*
X126335646Y-90175304D01*
X126355492Y-90050000D01*
X126335646Y-89924696D01*
X126278050Y-89811658D01*
X126188342Y-89721950D01*
X126075304Y-89664354D01*
X126065515Y-89662804D01*
X126065513Y-89662803D01*
X125959793Y-89646059D01*
X125950000Y-89644508D01*
X125948714Y-89644712D01*
X125885182Y-89626057D01*
X125838689Y-89572401D01*
X125828585Y-89502127D01*
X125841036Y-89462856D01*
X125881145Y-89384137D01*
X125885646Y-89375304D01*
X125902525Y-89268731D01*
X125932937Y-89204579D01*
X125993205Y-89167051D01*
X126064194Y-89168065D01*
X126116069Y-89199347D01*
X126148829Y-89232107D01*
X126261867Y-89289703D01*
X126271656Y-89291253D01*
X126271658Y-89291254D01*
X126377378Y-89307998D01*
X126387171Y-89309549D01*
X126396964Y-89307998D01*
X126502684Y-89291254D01*
X126502686Y-89291253D01*
X126512475Y-89289703D01*
X126625513Y-89232107D01*
X126715221Y-89142399D01*
X126772817Y-89029361D01*
X126776732Y-89004647D01*
X126791112Y-88913850D01*
X126792663Y-88904057D01*
X126786129Y-88862803D01*
X126774368Y-88788544D01*
X126774367Y-88788542D01*
X126772817Y-88778753D01*
X126715221Y-88665715D01*
X126625513Y-88576007D01*
X126512475Y-88518411D01*
X126502686Y-88516861D01*
X126502684Y-88516860D01*
X126396964Y-88500116D01*
X126387171Y-88498565D01*
X126377378Y-88500116D01*
X126271658Y-88516860D01*
X126271656Y-88516861D01*
X126261867Y-88518411D01*
X126148829Y-88576007D01*
X126059121Y-88665715D01*
X126001525Y-88778753D01*
X125987255Y-88868855D01*
X125984646Y-88885325D01*
X125954234Y-88949478D01*
X125893966Y-88987006D01*
X125822977Y-88985992D01*
X125771102Y-88954710D01*
X125738342Y-88921950D01*
X125625304Y-88864354D01*
X125615515Y-88862804D01*
X125615513Y-88862803D01*
X125509793Y-88846059D01*
X125500000Y-88844508D01*
X125490207Y-88846059D01*
X125384487Y-88862803D01*
X125384485Y-88862804D01*
X125374696Y-88864354D01*
X125261658Y-88921950D01*
X125171950Y-89011658D01*
X125114354Y-89124696D01*
X125112804Y-89134485D01*
X125112803Y-89134487D01*
X125101702Y-89204579D01*
X125094508Y-89250000D01*
X115300500Y-89250000D01*
X115300500Y-88725000D01*
X122044508Y-88725000D01*
X122046059Y-88734793D01*
X122053022Y-88778753D01*
X122064354Y-88850304D01*
X122121950Y-88963342D01*
X122211658Y-89053050D01*
X122324696Y-89110646D01*
X122334485Y-89112196D01*
X122334487Y-89112197D01*
X122440207Y-89128941D01*
X122450000Y-89130492D01*
X122459793Y-89128941D01*
X122565513Y-89112197D01*
X122565515Y-89112196D01*
X122575304Y-89110646D01*
X122688342Y-89053050D01*
X122778050Y-88963342D01*
X122835646Y-88850304D01*
X122846979Y-88778753D01*
X122853941Y-88734793D01*
X122855492Y-88725000D01*
X122835646Y-88599696D01*
X122778050Y-88486658D01*
X122688342Y-88396950D01*
X122575304Y-88339354D01*
X122565515Y-88337804D01*
X122565513Y-88337803D01*
X122459793Y-88321059D01*
X122450000Y-88319508D01*
X122440207Y-88321059D01*
X122334487Y-88337803D01*
X122334485Y-88337804D01*
X122324696Y-88339354D01*
X122211658Y-88396950D01*
X122121950Y-88486658D01*
X122064354Y-88599696D01*
X122044508Y-88725000D01*
X115300500Y-88725000D01*
X115300500Y-86049500D01*
X127794508Y-86049500D01*
X127796059Y-86059293D01*
X127797841Y-86070541D01*
X127814354Y-86174804D01*
X127871950Y-86287842D01*
X127961658Y-86377550D01*
X128074696Y-86435146D01*
X128084485Y-86436696D01*
X128084487Y-86436697D01*
X128190207Y-86453441D01*
X128200000Y-86454992D01*
X128209793Y-86453441D01*
X128315513Y-86436697D01*
X128315515Y-86436696D01*
X128325304Y-86435146D01*
X128438342Y-86377550D01*
X128528050Y-86287842D01*
X128585646Y-86174804D01*
X128602160Y-86070541D01*
X128603941Y-86059293D01*
X128605492Y-86049500D01*
X128587626Y-85936697D01*
X128587197Y-85933987D01*
X128587196Y-85933985D01*
X128585646Y-85924196D01*
X128528050Y-85811158D01*
X128438342Y-85721450D01*
X128325304Y-85663854D01*
X128315515Y-85662304D01*
X128315513Y-85662303D01*
X128209793Y-85645559D01*
X128200000Y-85644008D01*
X128190207Y-85645559D01*
X128084487Y-85662303D01*
X128084485Y-85662304D01*
X128074696Y-85663854D01*
X127961658Y-85721450D01*
X127871950Y-85811158D01*
X127814354Y-85924196D01*
X127812804Y-85933985D01*
X127812803Y-85933987D01*
X127812374Y-85936697D01*
X127794508Y-86049500D01*
X115300500Y-86049500D01*
X115300500Y-84800000D01*
X125244508Y-84800000D01*
X125246059Y-84809793D01*
X125262193Y-84911658D01*
X125264354Y-84925304D01*
X125321950Y-85038342D01*
X125411658Y-85128050D01*
X125524696Y-85185646D01*
X125534485Y-85187196D01*
X125534487Y-85187197D01*
X125640207Y-85203941D01*
X125650000Y-85205492D01*
X125659793Y-85203941D01*
X125765513Y-85187197D01*
X125765515Y-85187196D01*
X125775304Y-85185646D01*
X125784140Y-85181144D01*
X125851975Y-85146581D01*
X125921751Y-85133477D01*
X125987536Y-85160177D01*
X126028442Y-85218205D01*
X126033626Y-85239137D01*
X126039354Y-85275304D01*
X126096950Y-85388342D01*
X126186658Y-85478050D01*
X126299696Y-85535646D01*
X126309485Y-85537196D01*
X126309487Y-85537197D01*
X126415207Y-85553941D01*
X126425000Y-85555492D01*
X126434793Y-85553941D01*
X126540513Y-85537197D01*
X126540515Y-85537196D01*
X126550304Y-85535646D01*
X126642853Y-85488490D01*
X126712628Y-85475386D01*
X126778413Y-85502086D01*
X126819320Y-85560113D01*
X126824504Y-85581046D01*
X126837670Y-85664173D01*
X126839354Y-85674804D01*
X126896950Y-85787842D01*
X126986658Y-85877550D01*
X127099696Y-85935146D01*
X127109485Y-85936696D01*
X127109487Y-85936697D01*
X127215207Y-85953441D01*
X127225000Y-85954992D01*
X127234793Y-85953441D01*
X127340513Y-85936697D01*
X127340515Y-85936696D01*
X127350304Y-85935146D01*
X127463342Y-85877550D01*
X127553050Y-85787842D01*
X127610646Y-85674804D01*
X127612381Y-85663854D01*
X127628941Y-85559293D01*
X127630492Y-85549500D01*
X127627585Y-85531145D01*
X127612197Y-85433987D01*
X127612196Y-85433985D01*
X127610646Y-85424196D01*
X127553050Y-85311158D01*
X127463342Y-85221450D01*
X127350304Y-85163854D01*
X127340515Y-85162304D01*
X127340513Y-85162303D01*
X127234793Y-85145559D01*
X127225000Y-85144008D01*
X127215207Y-85145559D01*
X127109487Y-85162303D01*
X127109485Y-85162304D01*
X127099696Y-85163854D01*
X127007148Y-85211010D01*
X126937372Y-85224114D01*
X126871587Y-85197414D01*
X126830680Y-85139387D01*
X126825496Y-85118454D01*
X126812197Y-85034487D01*
X126812196Y-85034485D01*
X126810646Y-85024696D01*
X126753050Y-84911658D01*
X126663342Y-84821950D01*
X126550304Y-84764354D01*
X126540515Y-84762804D01*
X126540513Y-84762803D01*
X126434793Y-84746059D01*
X126425000Y-84744508D01*
X126415207Y-84746059D01*
X126309487Y-84762803D01*
X126309485Y-84762804D01*
X126299696Y-84764354D01*
X126290861Y-84768856D01*
X126290860Y-84768856D01*
X126223025Y-84803419D01*
X126153249Y-84816523D01*
X126087464Y-84789823D01*
X126046558Y-84731795D01*
X126041374Y-84710862D01*
X126037197Y-84684488D01*
X126037197Y-84684487D01*
X126035646Y-84674696D01*
X125978050Y-84561658D01*
X125888342Y-84471950D01*
X125775304Y-84414354D01*
X125765515Y-84412804D01*
X125765513Y-84412803D01*
X125659793Y-84396059D01*
X125650000Y-84394508D01*
X125640207Y-84396059D01*
X125534487Y-84412803D01*
X125534485Y-84412804D01*
X125524696Y-84414354D01*
X125411658Y-84471950D01*
X125321950Y-84561658D01*
X125264354Y-84674696D01*
X125244508Y-84800000D01*
X115300500Y-84800000D01*
X115300500Y-83065963D01*
X117994757Y-83065963D01*
X118011175Y-83261483D01*
X118065258Y-83450091D01*
X118068076Y-83455574D01*
X118152123Y-83619113D01*
X118152126Y-83619117D01*
X118154944Y-83624601D01*
X118276818Y-83778369D01*
X118281511Y-83782363D01*
X118281512Y-83782364D01*
X118417003Y-83897675D01*
X118426238Y-83905535D01*
X118431616Y-83908541D01*
X118431618Y-83908542D01*
X118472897Y-83931612D01*
X118597513Y-84001257D01*
X118784118Y-84061889D01*
X118978946Y-84085121D01*
X118985081Y-84084649D01*
X118985083Y-84084649D01*
X119168434Y-84070541D01*
X119168438Y-84070540D01*
X119174576Y-84070068D01*
X119363556Y-84017303D01*
X119538689Y-83928837D01*
X119553116Y-83917566D01*
X119683738Y-83815513D01*
X119693303Y-83808040D01*
X119699857Y-83800448D01*
X119786560Y-83700000D01*
X122744508Y-83700000D01*
X122746059Y-83709793D01*
X122761620Y-83808040D01*
X122764354Y-83825304D01*
X122821950Y-83938342D01*
X122911658Y-84028050D01*
X123024696Y-84085646D01*
X123034485Y-84087196D01*
X123034487Y-84087197D01*
X123140207Y-84103941D01*
X123150000Y-84105492D01*
X123159793Y-84103941D01*
X123265513Y-84087197D01*
X123265515Y-84087196D01*
X123275304Y-84085646D01*
X123388342Y-84028050D01*
X123478050Y-83938342D01*
X123535646Y-83825304D01*
X123538381Y-83808040D01*
X123553941Y-83709793D01*
X123555492Y-83700000D01*
X123549079Y-83659511D01*
X123537197Y-83584487D01*
X123537196Y-83584485D01*
X123535646Y-83574696D01*
X123478050Y-83461658D01*
X123388342Y-83371950D01*
X123275304Y-83314354D01*
X123265515Y-83312804D01*
X123265513Y-83312803D01*
X123159793Y-83296059D01*
X123150000Y-83294508D01*
X123140207Y-83296059D01*
X123034487Y-83312803D01*
X123034485Y-83312804D01*
X123024696Y-83314354D01*
X122911658Y-83371950D01*
X122821950Y-83461658D01*
X122764354Y-83574696D01*
X122762804Y-83584485D01*
X122762803Y-83584487D01*
X122750921Y-83659511D01*
X122744508Y-83700000D01*
X119786560Y-83700000D01*
X119817485Y-83664173D01*
X119817485Y-83664172D01*
X119821509Y-83659511D01*
X119918425Y-83488909D01*
X119980358Y-83302732D01*
X119987130Y-83249126D01*
X125495541Y-83249126D01*
X125525935Y-83450097D01*
X125528141Y-83456092D01*
X125528141Y-83456093D01*
X125533564Y-83470832D01*
X125596119Y-83640852D01*
X125599479Y-83646272D01*
X125599480Y-83646273D01*
X125699863Y-83808176D01*
X125699866Y-83808180D01*
X125703226Y-83813599D01*
X125707612Y-83818237D01*
X125827820Y-83945353D01*
X125842881Y-83961280D01*
X126009379Y-84077863D01*
X126195919Y-84158586D01*
X126220992Y-84163824D01*
X126390144Y-84199162D01*
X126390149Y-84199163D01*
X126394880Y-84200151D01*
X126399762Y-84200407D01*
X126399871Y-84200413D01*
X126399887Y-84200413D01*
X126401539Y-84200500D01*
X127550800Y-84200500D01*
X127598793Y-84195625D01*
X127695868Y-84185765D01*
X127695870Y-84185765D01*
X127702216Y-84185120D01*
X127896172Y-84124338D01*
X128073944Y-84025797D01*
X128228271Y-83893523D01*
X128274336Y-83834137D01*
X128312613Y-83784790D01*
X128352848Y-83732919D01*
X128416617Y-83603323D01*
X128439769Y-83556272D01*
X128442587Y-83550545D01*
X128451486Y-83516381D01*
X128492212Y-83360034D01*
X128492212Y-83360031D01*
X128493822Y-83353852D01*
X128493839Y-83353524D01*
X130341312Y-83353524D01*
X130343040Y-83363329D01*
X130343225Y-83365210D01*
X130343225Y-83366031D01*
X130343512Y-83368125D01*
X130357519Y-83510460D01*
X130403286Y-83661367D01*
X130406207Y-83666832D01*
X130463239Y-83773539D01*
X130477618Y-83800443D01*
X130577656Y-83922344D01*
X130699557Y-84022382D01*
X130705011Y-84025297D01*
X130705014Y-84025299D01*
X130773475Y-84061889D01*
X130838633Y-84096714D01*
X130989540Y-84142481D01*
X131073269Y-84150721D01*
X131077750Y-84151162D01*
X131084058Y-84152234D01*
X131087069Y-84153435D01*
X131093362Y-84154052D01*
X131100939Y-84154052D01*
X131113279Y-84154658D01*
X131131874Y-84156488D01*
X131133969Y-84156775D01*
X131134790Y-84156775D01*
X131136671Y-84156960D01*
X131146476Y-84158688D01*
X131161893Y-84155968D01*
X131183785Y-84154052D01*
X132146491Y-84154053D01*
X133109109Y-84154054D01*
X133131001Y-84155970D01*
X133146418Y-84158690D01*
X133156168Y-84156972D01*
X133173401Y-84158330D01*
X133188364Y-84160701D01*
X133225851Y-84172883D01*
X133245917Y-84183108D01*
X133277805Y-84206278D01*
X133293722Y-84222195D01*
X133316892Y-84254083D01*
X133327117Y-84274149D01*
X133339299Y-84311636D01*
X133341670Y-84326599D01*
X133343028Y-84343832D01*
X133341310Y-84353582D01*
X133343225Y-84364436D01*
X133344030Y-84369000D01*
X133345946Y-84390891D01*
X133345948Y-86816215D01*
X133344032Y-86838107D01*
X133341312Y-86853524D01*
X133343040Y-86863329D01*
X133343225Y-86865210D01*
X133343225Y-86866031D01*
X133343512Y-86868125D01*
X133357519Y-87010460D01*
X133403286Y-87161367D01*
X133477618Y-87300443D01*
X133577656Y-87422344D01*
X133699557Y-87522382D01*
X133705011Y-87525297D01*
X133705014Y-87525299D01*
X133803421Y-87577894D01*
X133838633Y-87596714D01*
X133989540Y-87642481D01*
X134077750Y-87651162D01*
X134084058Y-87652234D01*
X134087069Y-87653435D01*
X134093362Y-87654052D01*
X134100939Y-87654052D01*
X134113279Y-87654658D01*
X134131874Y-87656488D01*
X134133969Y-87656775D01*
X134134790Y-87656775D01*
X134136671Y-87656960D01*
X134146476Y-87658688D01*
X134161893Y-87655968D01*
X134183785Y-87654052D01*
X141109151Y-87654052D01*
X141131018Y-87655964D01*
X141146476Y-87658688D01*
X141155070Y-87657172D01*
X141159117Y-87656773D01*
X141159328Y-87656773D01*
X141159858Y-87656700D01*
X141297247Y-87643156D01*
X141297252Y-87643155D01*
X141303409Y-87642548D01*
X141404284Y-87611937D01*
X141448390Y-87598553D01*
X141448391Y-87598552D01*
X141454308Y-87596757D01*
X141593374Y-87522408D01*
X141598155Y-87518484D01*
X141710477Y-87426287D01*
X141710481Y-87426283D01*
X141715264Y-87422357D01*
X141719195Y-87417566D01*
X141811365Y-87305235D01*
X141811369Y-87305230D01*
X141815292Y-87300448D01*
X141889615Y-87161368D01*
X141935377Y-87010460D01*
X141935982Y-87004307D01*
X141935985Y-87004294D01*
X141944058Y-86922241D01*
X141945130Y-86915936D01*
X141946329Y-86912931D01*
X141946946Y-86906638D01*
X141946946Y-86899061D01*
X141947552Y-86886722D01*
X141949382Y-86868125D01*
X141949668Y-86866035D01*
X141949668Y-86865218D01*
X141949854Y-86863327D01*
X141951582Y-86853524D01*
X141948862Y-86838107D01*
X141946946Y-86816215D01*
X141946948Y-84390891D01*
X141948864Y-84369000D01*
X141949669Y-84364436D01*
X141951584Y-84353582D01*
X141949866Y-84343835D01*
X141951224Y-84326606D01*
X141953592Y-84311662D01*
X141965778Y-84274168D01*
X141975991Y-84254129D01*
X141999162Y-84222242D01*
X142015065Y-84206341D01*
X142046963Y-84183170D01*
X142047085Y-84183108D01*
X142067001Y-84172963D01*
X142104491Y-84160785D01*
X142120039Y-84158324D01*
X142136853Y-84157002D01*
X142146418Y-84158690D01*
X142157273Y-84156777D01*
X142157274Y-84156777D01*
X142160871Y-84156143D01*
X142161876Y-84155966D01*
X142183743Y-84154054D01*
X144109151Y-84154052D01*
X144131018Y-84155964D01*
X144146476Y-84158688D01*
X144155070Y-84157172D01*
X144159117Y-84156773D01*
X144159328Y-84156773D01*
X144159858Y-84156700D01*
X144297247Y-84143156D01*
X144297252Y-84143155D01*
X144303409Y-84142548D01*
X144430634Y-84103941D01*
X144448390Y-84098553D01*
X144448391Y-84098552D01*
X144454308Y-84096757D01*
X144593374Y-84022408D01*
X144598155Y-84018484D01*
X144710477Y-83926287D01*
X144710481Y-83926283D01*
X144715264Y-83922357D01*
X144719195Y-83917566D01*
X144811365Y-83805235D01*
X144811369Y-83805230D01*
X144815292Y-83800448D01*
X144823660Y-83784790D01*
X144886699Y-83666825D01*
X144886700Y-83666824D01*
X144889615Y-83661368D01*
X144894193Y-83646273D01*
X144918944Y-83564649D01*
X144935377Y-83510460D01*
X144935982Y-83504307D01*
X144935985Y-83504294D01*
X144944058Y-83422241D01*
X144945130Y-83415936D01*
X144946329Y-83412931D01*
X144946946Y-83406638D01*
X144946946Y-83399061D01*
X144947552Y-83386722D01*
X144949382Y-83368125D01*
X144949668Y-83366035D01*
X144949668Y-83365218D01*
X144949854Y-83363327D01*
X144951582Y-83353524D01*
X144948862Y-83338107D01*
X144946946Y-83316215D01*
X144946946Y-72390849D01*
X144948858Y-72368981D01*
X144949669Y-72364379D01*
X144949669Y-72364378D01*
X144951582Y-72353524D01*
X144949853Y-72343723D01*
X144949667Y-72341837D01*
X144949667Y-72341013D01*
X144949381Y-72338930D01*
X144936319Y-72206430D01*
X144935351Y-72196610D01*
X144889572Y-72045727D01*
X144858641Y-71987864D01*
X144818157Y-71912131D01*
X144818155Y-71912128D01*
X144815239Y-71906673D01*
X144750025Y-71827211D01*
X144719133Y-71789570D01*
X144715210Y-71784790D01*
X144593327Y-71684761D01*
X144587872Y-71681845D01*
X144587869Y-71681843D01*
X144459730Y-71613345D01*
X144459729Y-71613345D01*
X144454273Y-71610428D01*
X144303390Y-71564649D01*
X144297234Y-71564042D01*
X144297228Y-71564041D01*
X144215163Y-71555952D01*
X144208853Y-71554879D01*
X144205825Y-71553671D01*
X144199532Y-71553054D01*
X144191959Y-71553054D01*
X144179603Y-71552446D01*
X144163500Y-71550859D01*
X144161066Y-71550619D01*
X144158984Y-71550333D01*
X144158163Y-71550333D01*
X144156277Y-71550147D01*
X144146476Y-71548418D01*
X144135621Y-71550331D01*
X144131019Y-71551142D01*
X144109151Y-71553054D01*
X143146363Y-71553053D01*
X142183749Y-71553052D01*
X142161883Y-71551140D01*
X142146419Y-71548415D01*
X142136672Y-71550135D01*
X142119445Y-71548781D01*
X142112939Y-71547751D01*
X142104492Y-71546414D01*
X142066994Y-71534233D01*
X142046948Y-71524020D01*
X142015056Y-71500848D01*
X141999153Y-71484945D01*
X141975980Y-71453051D01*
X141965768Y-71433008D01*
X141953587Y-71395514D01*
X141951218Y-71380550D01*
X141949864Y-71363329D01*
X141951584Y-71353582D01*
X141948860Y-71338124D01*
X141946948Y-71316257D01*
X141946945Y-68890849D01*
X141948857Y-68868981D01*
X141949668Y-68864379D01*
X141949668Y-68864378D01*
X141951581Y-68853524D01*
X141949852Y-68843723D01*
X141949666Y-68841837D01*
X141949666Y-68841013D01*
X141949380Y-68838930D01*
X141935957Y-68702771D01*
X141935350Y-68696610D01*
X141889571Y-68545728D01*
X141815239Y-68406674D01*
X141715209Y-68284791D01*
X141593326Y-68184761D01*
X141472448Y-68120145D01*
X141459729Y-68113346D01*
X141459728Y-68113346D01*
X141454272Y-68110429D01*
X141303390Y-68064650D01*
X141250687Y-68059455D01*
X141215168Y-68055953D01*
X141208854Y-68054879D01*
X141205825Y-68053671D01*
X141199532Y-68053054D01*
X141191949Y-68053054D01*
X141179592Y-68052446D01*
X141167887Y-68051293D01*
X141161067Y-68050620D01*
X141158985Y-68050334D01*
X141158163Y-68050334D01*
X141156277Y-68050148D01*
X141146476Y-68048419D01*
X141131023Y-68051142D01*
X141109157Y-68053054D01*
X134183785Y-68053054D01*
X134161893Y-68051138D01*
X134160147Y-68050830D01*
X134146476Y-68048418D01*
X134135623Y-68050330D01*
X134134316Y-68050330D01*
X134130671Y-68050830D01*
X134114245Y-68052446D01*
X133995723Y-68064108D01*
X133995719Y-68064109D01*
X133989558Y-68064715D01*
X133899453Y-68092039D01*
X133844590Y-68108676D01*
X133844588Y-68108677D01*
X133838668Y-68110472D01*
X133699604Y-68184786D01*
X133694822Y-68188710D01*
X133582506Y-68280868D01*
X133577710Y-68284803D01*
X133573785Y-68289585D01*
X133496173Y-68384137D01*
X133477670Y-68406678D01*
X133403330Y-68545728D01*
X133401533Y-68551650D01*
X133367470Y-68663904D01*
X133357545Y-68696610D01*
X133356938Y-68702765D01*
X133356938Y-68702766D01*
X133348846Y-68784844D01*
X133347774Y-68791148D01*
X133346566Y-68794175D01*
X133345949Y-68800468D01*
X133345949Y-68808030D01*
X133345341Y-68820393D01*
X133343513Y-68838933D01*
X133343226Y-68841021D01*
X133343226Y-68841845D01*
X133343041Y-68843721D01*
X133341312Y-68853524D01*
X133343225Y-68864378D01*
X133344037Y-68868987D01*
X133345949Y-68890855D01*
X133345946Y-71316261D01*
X133344034Y-71338128D01*
X133341311Y-71353581D01*
X133343031Y-71363328D01*
X133341677Y-71380558D01*
X133339307Y-71395532D01*
X133327129Y-71433024D01*
X133316928Y-71453051D01*
X133316905Y-71453096D01*
X133293741Y-71484984D01*
X133277817Y-71500912D01*
X133245921Y-71524090D01*
X133225861Y-71534313D01*
X133188372Y-71546498D01*
X133173998Y-71548776D01*
X133156351Y-71550167D01*
X133146418Y-71548416D01*
X133133931Y-71550619D01*
X133131000Y-71551136D01*
X133109109Y-71553052D01*
X132146491Y-71553053D01*
X131183785Y-71553054D01*
X131161893Y-71551138D01*
X131161882Y-71551136D01*
X131146476Y-71548418D01*
X131135623Y-71550330D01*
X131134316Y-71550330D01*
X131130671Y-71550830D01*
X131108066Y-71553054D01*
X130995723Y-71564108D01*
X130995719Y-71564109D01*
X130989558Y-71564715D01*
X130899453Y-71592039D01*
X130844590Y-71608676D01*
X130844588Y-71608677D01*
X130838668Y-71610472D01*
X130699604Y-71684786D01*
X130694822Y-71688710D01*
X130620126Y-71750000D01*
X130577710Y-71784803D01*
X130565381Y-71799823D01*
X130491752Y-71889523D01*
X130477670Y-71906678D01*
X130474755Y-71912131D01*
X130474753Y-71912134D01*
X130469287Y-71922358D01*
X130403330Y-72045728D01*
X130357545Y-72196610D01*
X130356938Y-72202771D01*
X130356937Y-72202775D01*
X130348847Y-72284836D01*
X130347774Y-72291145D01*
X130346565Y-72294175D01*
X130345948Y-72300468D01*
X130345948Y-72308040D01*
X130345340Y-72320403D01*
X130343513Y-72338933D01*
X130343226Y-72341021D01*
X130343226Y-72341845D01*
X130343041Y-72343721D01*
X130341312Y-72353524D01*
X130343225Y-72364378D01*
X130344036Y-72368981D01*
X130345948Y-72390849D01*
X130345948Y-83316215D01*
X130344032Y-83338107D01*
X130341312Y-83353524D01*
X128493839Y-83353524D01*
X128504459Y-83150874D01*
X128474065Y-82949903D01*
X128403881Y-82759148D01*
X128350345Y-82672802D01*
X128300137Y-82591824D01*
X128300134Y-82591820D01*
X128296774Y-82586401D01*
X128157119Y-82438720D01*
X127990621Y-82322137D01*
X127804081Y-82241414D01*
X127758053Y-82231798D01*
X127609856Y-82200838D01*
X127609851Y-82200837D01*
X127605120Y-82199849D01*
X127600238Y-82199593D01*
X127600129Y-82199587D01*
X127600113Y-82199587D01*
X127598461Y-82199500D01*
X126449200Y-82199500D01*
X126401207Y-82204375D01*
X126304132Y-82214235D01*
X126304130Y-82214235D01*
X126297784Y-82214880D01*
X126103828Y-82275662D01*
X125926056Y-82374203D01*
X125771729Y-82506477D01*
X125767822Y-82511514D01*
X125767820Y-82511516D01*
X125713331Y-82581763D01*
X125647152Y-82667081D01*
X125557413Y-82849455D01*
X125555804Y-82855633D01*
X125555803Y-82855635D01*
X125529603Y-82956220D01*
X125506178Y-83046148D01*
X125495541Y-83249126D01*
X119987130Y-83249126D01*
X120004949Y-83108071D01*
X120005341Y-83080000D01*
X119986194Y-82884728D01*
X119984413Y-82878829D01*
X119984412Y-82878824D01*
X119931265Y-82702793D01*
X119929484Y-82696894D01*
X119837370Y-82523653D01*
X119713361Y-82371602D01*
X119562180Y-82246535D01*
X119389585Y-82153213D01*
X119295869Y-82124203D01*
X119208039Y-82097015D01*
X119208036Y-82097014D01*
X119202152Y-82095193D01*
X119196027Y-82094549D01*
X119196026Y-82094549D01*
X119013147Y-82075327D01*
X119013146Y-82075327D01*
X119007019Y-82074683D01*
X118884383Y-82085844D01*
X118817759Y-82091907D01*
X118817758Y-82091907D01*
X118811618Y-82092466D01*
X118805704Y-82094207D01*
X118805702Y-82094207D01*
X118676734Y-82132165D01*
X118623393Y-82147864D01*
X118617928Y-82150721D01*
X118454972Y-82235912D01*
X118454968Y-82235915D01*
X118449512Y-82238767D01*
X118444712Y-82242627D01*
X118444711Y-82242627D01*
X118410326Y-82270273D01*
X118296600Y-82361711D01*
X118170480Y-82512016D01*
X118167516Y-82517408D01*
X118167513Y-82517412D01*
X118132136Y-82581763D01*
X118075956Y-82683954D01*
X118074095Y-82689821D01*
X118074094Y-82689823D01*
X118052103Y-82759148D01*
X118016628Y-82870978D01*
X117994757Y-83065963D01*
X115300500Y-83065963D01*
X115300500Y-80485963D01*
X127994757Y-80485963D01*
X128011175Y-80681483D01*
X128065258Y-80870091D01*
X128068076Y-80875574D01*
X128152123Y-81039113D01*
X128152126Y-81039117D01*
X128154944Y-81044601D01*
X128276818Y-81198369D01*
X128426238Y-81325535D01*
X128431616Y-81328541D01*
X128431618Y-81328542D01*
X128467932Y-81348837D01*
X128597513Y-81421257D01*
X128784118Y-81481889D01*
X128978946Y-81505121D01*
X128985081Y-81504649D01*
X128985083Y-81504649D01*
X129168434Y-81490541D01*
X129168438Y-81490540D01*
X129174576Y-81490068D01*
X129363556Y-81437303D01*
X129538689Y-81348837D01*
X129568515Y-81325535D01*
X129688453Y-81231829D01*
X129693303Y-81228040D01*
X129723084Y-81193539D01*
X129817485Y-81084173D01*
X129817485Y-81084172D01*
X129821509Y-81079511D01*
X129918425Y-80908909D01*
X129980358Y-80722732D01*
X130004949Y-80528071D01*
X130005341Y-80500000D01*
X129986194Y-80304728D01*
X129984413Y-80298829D01*
X129984412Y-80298824D01*
X129931265Y-80122793D01*
X129929484Y-80116894D01*
X129837370Y-79943653D01*
X129713361Y-79791602D01*
X129562180Y-79666535D01*
X129389585Y-79573213D01*
X129278996Y-79538980D01*
X129208039Y-79517015D01*
X129208036Y-79517014D01*
X129202152Y-79515193D01*
X129196027Y-79514549D01*
X129196026Y-79514549D01*
X129013147Y-79495327D01*
X129013146Y-79495327D01*
X129007019Y-79494683D01*
X128884383Y-79505844D01*
X128817759Y-79511907D01*
X128817758Y-79511907D01*
X128811618Y-79512466D01*
X128805704Y-79514207D01*
X128805702Y-79514207D01*
X128775283Y-79523160D01*
X128623393Y-79567864D01*
X128617928Y-79570721D01*
X128454972Y-79655912D01*
X128454968Y-79655915D01*
X128449512Y-79658767D01*
X128444712Y-79662627D01*
X128444711Y-79662627D01*
X128429944Y-79674500D01*
X128296600Y-79781711D01*
X128170480Y-79932016D01*
X128167516Y-79937408D01*
X128167513Y-79937412D01*
X128119611Y-80024546D01*
X128075956Y-80103954D01*
X128074095Y-80109821D01*
X128074094Y-80109823D01*
X128058646Y-80158521D01*
X128016628Y-80290978D01*
X127994757Y-80485963D01*
X115300500Y-80485963D01*
X115300500Y-79075000D01*
X120844750Y-79075000D01*
X120863670Y-79218709D01*
X120919139Y-79352625D01*
X121007379Y-79467621D01*
X121122375Y-79555861D01*
X121256291Y-79611330D01*
X121400000Y-79630250D01*
X121543709Y-79611330D01*
X121574761Y-79598468D01*
X121645351Y-79590879D01*
X121708838Y-79622659D01*
X121745065Y-79683717D01*
X121747900Y-79698425D01*
X121763670Y-79818209D01*
X121819139Y-79952125D01*
X121907379Y-80067121D01*
X122022375Y-80155361D01*
X122156291Y-80210830D01*
X122300000Y-80229750D01*
X122443709Y-80210830D01*
X122577625Y-80155361D01*
X122692621Y-80067121D01*
X122780861Y-79952125D01*
X122836330Y-79818209D01*
X122855250Y-79674500D01*
X122836330Y-79530791D01*
X122780861Y-79396875D01*
X122692621Y-79281879D01*
X122577625Y-79193639D01*
X122443709Y-79138170D01*
X122300000Y-79119250D01*
X122156291Y-79138170D01*
X122148659Y-79141331D01*
X122148660Y-79141331D01*
X122125239Y-79151032D01*
X122054649Y-79158621D01*
X121991162Y-79126841D01*
X121954935Y-79065783D01*
X121952099Y-79051069D01*
X121944761Y-78995327D01*
X121936330Y-78931291D01*
X121880861Y-78797375D01*
X121792621Y-78682379D01*
X121677625Y-78594139D01*
X121543709Y-78538670D01*
X121400000Y-78519750D01*
X121256291Y-78538670D01*
X121122375Y-78594139D01*
X121007379Y-78682379D01*
X120919139Y-78797375D01*
X120863670Y-78931291D01*
X120844750Y-79075000D01*
X115300500Y-79075000D01*
X115300500Y-77985963D01*
X117994757Y-77985963D01*
X118011175Y-78181483D01*
X118065258Y-78370091D01*
X118068076Y-78375574D01*
X118152123Y-78539113D01*
X118152126Y-78539117D01*
X118154944Y-78544601D01*
X118276818Y-78698369D01*
X118426238Y-78825535D01*
X118431616Y-78828541D01*
X118431618Y-78828542D01*
X118467932Y-78848837D01*
X118597513Y-78921257D01*
X118784118Y-78981889D01*
X118978946Y-79005121D01*
X118985081Y-79004649D01*
X118985083Y-79004649D01*
X119168434Y-78990541D01*
X119168438Y-78990540D01*
X119174576Y-78990068D01*
X119363556Y-78937303D01*
X119538689Y-78848837D01*
X119568515Y-78825535D01*
X119688453Y-78731829D01*
X119693303Y-78728040D01*
X119723084Y-78693539D01*
X119817485Y-78584173D01*
X119817485Y-78584172D01*
X119821509Y-78579511D01*
X119845323Y-78537592D01*
X119915378Y-78414272D01*
X119918425Y-78408909D01*
X119980358Y-78222732D01*
X120004949Y-78028071D01*
X120005341Y-78000000D01*
X120003965Y-77985963D01*
X127994757Y-77985963D01*
X128011175Y-78181483D01*
X128065258Y-78370091D01*
X128068076Y-78375574D01*
X128152123Y-78539113D01*
X128152126Y-78539117D01*
X128154944Y-78544601D01*
X128276818Y-78698369D01*
X128426238Y-78825535D01*
X128431616Y-78828541D01*
X128431618Y-78828542D01*
X128467932Y-78848837D01*
X128597513Y-78921257D01*
X128784118Y-78981889D01*
X128978946Y-79005121D01*
X128985081Y-79004649D01*
X128985083Y-79004649D01*
X129168434Y-78990541D01*
X129168438Y-78990540D01*
X129174576Y-78990068D01*
X129363556Y-78937303D01*
X129538689Y-78848837D01*
X129568515Y-78825535D01*
X129688453Y-78731829D01*
X129693303Y-78728040D01*
X129723084Y-78693539D01*
X129817485Y-78584173D01*
X129817485Y-78584172D01*
X129821509Y-78579511D01*
X129845323Y-78537592D01*
X129915378Y-78414272D01*
X129918425Y-78408909D01*
X129980358Y-78222732D01*
X130004949Y-78028071D01*
X130005341Y-78000000D01*
X129986194Y-77804728D01*
X129984413Y-77798829D01*
X129984412Y-77798824D01*
X129931265Y-77622793D01*
X129929484Y-77616894D01*
X129837370Y-77443653D01*
X129713361Y-77291602D01*
X129562180Y-77166535D01*
X129389585Y-77073213D01*
X129295869Y-77044203D01*
X129208039Y-77017015D01*
X129208036Y-77017014D01*
X129202152Y-77015193D01*
X129196027Y-77014549D01*
X129196026Y-77014549D01*
X129013147Y-76995327D01*
X129013146Y-76995327D01*
X129007019Y-76994683D01*
X128884383Y-77005844D01*
X128817759Y-77011907D01*
X128817758Y-77011907D01*
X128811618Y-77012466D01*
X128805704Y-77014207D01*
X128805702Y-77014207D01*
X128676734Y-77052165D01*
X128623393Y-77067864D01*
X128617928Y-77070721D01*
X128454972Y-77155912D01*
X128454968Y-77155915D01*
X128449512Y-77158767D01*
X128444712Y-77162627D01*
X128444711Y-77162627D01*
X128410326Y-77190273D01*
X128296600Y-77281711D01*
X128170480Y-77432016D01*
X128167516Y-77437408D01*
X128167513Y-77437412D01*
X128088813Y-77580567D01*
X128075956Y-77603954D01*
X128016628Y-77790978D01*
X127994757Y-77985963D01*
X120003965Y-77985963D01*
X119986194Y-77804728D01*
X119984413Y-77798829D01*
X119984412Y-77798824D01*
X119931265Y-77622793D01*
X119929484Y-77616894D01*
X119837370Y-77443653D01*
X119713361Y-77291602D01*
X119562180Y-77166535D01*
X119389585Y-77073213D01*
X119295869Y-77044203D01*
X119208039Y-77017015D01*
X119208036Y-77017014D01*
X119202152Y-77015193D01*
X119196027Y-77014549D01*
X119196026Y-77014549D01*
X119013147Y-76995327D01*
X119013146Y-76995327D01*
X119007019Y-76994683D01*
X118884383Y-77005844D01*
X118817759Y-77011907D01*
X118817758Y-77011907D01*
X118811618Y-77012466D01*
X118805704Y-77014207D01*
X118805702Y-77014207D01*
X118676734Y-77052165D01*
X118623393Y-77067864D01*
X118617928Y-77070721D01*
X118454972Y-77155912D01*
X118454968Y-77155915D01*
X118449512Y-77158767D01*
X118444712Y-77162627D01*
X118444711Y-77162627D01*
X118410326Y-77190273D01*
X118296600Y-77281711D01*
X118170480Y-77432016D01*
X118167516Y-77437408D01*
X118167513Y-77437412D01*
X118088813Y-77580567D01*
X118075956Y-77603954D01*
X118016628Y-77790978D01*
X117994757Y-77985963D01*
X115300500Y-77985963D01*
X115300500Y-75485963D01*
X127994757Y-75485963D01*
X128011175Y-75681483D01*
X128065258Y-75870091D01*
X128068076Y-75875574D01*
X128152123Y-76039113D01*
X128152126Y-76039117D01*
X128154944Y-76044601D01*
X128276818Y-76198369D01*
X128426238Y-76325535D01*
X128431616Y-76328541D01*
X128431618Y-76328542D01*
X128467932Y-76348837D01*
X128597513Y-76421257D01*
X128784118Y-76481889D01*
X128978946Y-76505121D01*
X128985081Y-76504649D01*
X128985083Y-76504649D01*
X129168434Y-76490541D01*
X129168438Y-76490540D01*
X129174576Y-76490068D01*
X129363556Y-76437303D01*
X129538689Y-76348837D01*
X129568515Y-76325535D01*
X129688453Y-76231829D01*
X129693303Y-76228040D01*
X129723084Y-76193539D01*
X129817485Y-76084173D01*
X129817485Y-76084172D01*
X129821509Y-76079511D01*
X129918425Y-75908909D01*
X129980358Y-75722732D01*
X130004949Y-75528071D01*
X130005341Y-75500000D01*
X129986194Y-75304728D01*
X129984413Y-75298829D01*
X129984412Y-75298824D01*
X129931265Y-75122793D01*
X129929484Y-75116894D01*
X129837370Y-74943653D01*
X129713361Y-74791602D01*
X129562180Y-74666535D01*
X129389585Y-74573213D01*
X129254677Y-74531452D01*
X129208039Y-74517015D01*
X129208036Y-74517014D01*
X129202152Y-74515193D01*
X129196027Y-74514549D01*
X129196026Y-74514549D01*
X129013147Y-74495327D01*
X129013146Y-74495327D01*
X129007019Y-74494683D01*
X128884383Y-74505844D01*
X128817759Y-74511907D01*
X128817758Y-74511907D01*
X128811618Y-74512466D01*
X128805704Y-74514207D01*
X128805702Y-74514207D01*
X128728619Y-74536894D01*
X128623393Y-74567864D01*
X128617928Y-74570721D01*
X128454972Y-74655912D01*
X128454968Y-74655915D01*
X128449512Y-74658767D01*
X128444712Y-74662627D01*
X128444711Y-74662627D01*
X128410326Y-74690273D01*
X128296600Y-74781711D01*
X128170480Y-74932016D01*
X128167516Y-74937408D01*
X128167513Y-74937412D01*
X128159727Y-74951575D01*
X128075956Y-75103954D01*
X128016628Y-75290978D01*
X127994757Y-75485963D01*
X115300500Y-75485963D01*
X115300500Y-72905963D01*
X117994757Y-72905963D01*
X118011175Y-73101483D01*
X118065258Y-73290091D01*
X118068076Y-73295574D01*
X118152123Y-73459113D01*
X118152126Y-73459117D01*
X118154944Y-73464601D01*
X118276818Y-73618369D01*
X118281511Y-73622363D01*
X118281512Y-73622364D01*
X118401332Y-73724338D01*
X118426238Y-73745535D01*
X118431616Y-73748541D01*
X118431618Y-73748542D01*
X118497067Y-73785120D01*
X118597513Y-73841257D01*
X118784118Y-73901889D01*
X118978946Y-73925121D01*
X118985081Y-73924649D01*
X118985083Y-73924649D01*
X119168434Y-73910541D01*
X119168438Y-73910540D01*
X119174576Y-73910068D01*
X119363556Y-73857303D01*
X119538689Y-73768837D01*
X119568515Y-73745535D01*
X119688453Y-73651829D01*
X119693303Y-73648040D01*
X119723084Y-73613539D01*
X119817485Y-73504173D01*
X119817485Y-73504172D01*
X119821509Y-73499511D01*
X119918425Y-73328909D01*
X119980358Y-73142732D01*
X120004949Y-72948071D01*
X120005341Y-72920000D01*
X119998392Y-72849126D01*
X125495541Y-72849126D01*
X125525935Y-73050097D01*
X125596119Y-73240852D01*
X125599479Y-73246272D01*
X125599480Y-73246273D01*
X125699863Y-73408176D01*
X125699866Y-73408180D01*
X125703226Y-73413599D01*
X125707612Y-73418237D01*
X125788878Y-73504173D01*
X125842881Y-73561280D01*
X126009379Y-73677863D01*
X126195919Y-73758586D01*
X126226851Y-73765048D01*
X126390144Y-73799162D01*
X126390149Y-73799163D01*
X126394880Y-73800151D01*
X126399762Y-73800407D01*
X126399871Y-73800413D01*
X126399887Y-73800413D01*
X126401539Y-73800500D01*
X127550800Y-73800500D01*
X127598793Y-73795625D01*
X127695868Y-73785765D01*
X127695870Y-73785765D01*
X127702216Y-73785120D01*
X127896172Y-73724338D01*
X128073944Y-73625797D01*
X128228271Y-73493523D01*
X128246957Y-73469434D01*
X128348939Y-73337958D01*
X128352848Y-73332919D01*
X128442587Y-73150545D01*
X128445180Y-73140591D01*
X128492212Y-72960034D01*
X128492212Y-72960031D01*
X128493822Y-72953852D01*
X128504459Y-72750874D01*
X128474065Y-72549903D01*
X128403881Y-72359148D01*
X128391842Y-72339731D01*
X128300137Y-72191824D01*
X128300134Y-72191820D01*
X128296774Y-72186401D01*
X128206052Y-72090465D01*
X128161508Y-72043361D01*
X128161507Y-72043360D01*
X128157119Y-72038720D01*
X127990621Y-71922137D01*
X127804081Y-71841414D01*
X127736095Y-71827211D01*
X127609856Y-71800838D01*
X127609851Y-71800837D01*
X127605120Y-71799849D01*
X127600238Y-71799593D01*
X127600129Y-71799587D01*
X127600113Y-71799587D01*
X127598461Y-71799500D01*
X126449200Y-71799500D01*
X126401207Y-71804375D01*
X126304132Y-71814235D01*
X126304130Y-71814235D01*
X126297784Y-71814880D01*
X126103828Y-71875662D01*
X125926056Y-71974203D01*
X125771729Y-72106477D01*
X125767822Y-72111514D01*
X125767820Y-72111516D01*
X125727246Y-72163824D01*
X125647152Y-72267081D01*
X125557413Y-72449455D01*
X125555804Y-72455633D01*
X125555803Y-72455635D01*
X125529603Y-72556220D01*
X125506178Y-72646148D01*
X125495541Y-72849126D01*
X119998392Y-72849126D01*
X119986194Y-72724728D01*
X119984413Y-72718829D01*
X119984412Y-72718824D01*
X119931265Y-72542793D01*
X119929484Y-72536894D01*
X119837370Y-72363653D01*
X119713361Y-72211602D01*
X119562180Y-72086535D01*
X119389585Y-71993213D01*
X119295868Y-71964203D01*
X119208039Y-71937015D01*
X119208036Y-71937014D01*
X119202152Y-71935193D01*
X119196027Y-71934549D01*
X119196026Y-71934549D01*
X119013147Y-71915327D01*
X119013146Y-71915327D01*
X119007019Y-71914683D01*
X118884876Y-71925799D01*
X118817759Y-71931907D01*
X118817758Y-71931907D01*
X118811618Y-71932466D01*
X118805704Y-71934207D01*
X118805702Y-71934207D01*
X118680325Y-71971108D01*
X118623393Y-71987864D01*
X118617928Y-71990721D01*
X118454972Y-72075912D01*
X118454968Y-72075915D01*
X118449512Y-72078767D01*
X118444712Y-72082627D01*
X118444711Y-72082627D01*
X118427192Y-72096713D01*
X118296600Y-72201711D01*
X118170480Y-72352016D01*
X118167516Y-72357408D01*
X118167513Y-72357412D01*
X118155173Y-72379859D01*
X118075956Y-72523954D01*
X118074095Y-72529821D01*
X118074094Y-72529823D01*
X118046292Y-72617466D01*
X118016628Y-72710978D01*
X117994757Y-72905963D01*
X115300500Y-72905963D01*
X115300500Y-68037317D01*
X115302414Y-68015437D01*
X115303222Y-68010855D01*
X115305136Y-68000000D01*
X115303222Y-67989145D01*
X115303222Y-67978706D01*
X115302438Y-67965488D01*
X115304490Y-67928961D01*
X115317077Y-67704813D01*
X115318659Y-67690776D01*
X115324818Y-67654530D01*
X115366997Y-67406281D01*
X115370141Y-67392506D01*
X115411196Y-67250000D01*
X138594508Y-67250000D01*
X138614354Y-67375304D01*
X138671950Y-67488342D01*
X138761658Y-67578050D01*
X138874696Y-67635646D01*
X138884485Y-67637196D01*
X138884487Y-67637197D01*
X138990207Y-67653941D01*
X139000000Y-67655492D01*
X139009793Y-67653941D01*
X139115513Y-67637197D01*
X139115515Y-67637196D01*
X139125304Y-67635646D01*
X139238342Y-67578050D01*
X139328050Y-67488342D01*
X139385646Y-67375304D01*
X139405492Y-67250000D01*
X139385646Y-67124696D01*
X139328050Y-67011658D01*
X139238342Y-66921950D01*
X139125304Y-66864354D01*
X139115515Y-66862804D01*
X139115513Y-66862803D01*
X139009793Y-66846059D01*
X139000000Y-66844508D01*
X138990207Y-66846059D01*
X138884487Y-66862803D01*
X138884485Y-66862804D01*
X138874696Y-66864354D01*
X138761658Y-66921950D01*
X138671950Y-67011658D01*
X138614354Y-67124696D01*
X138594508Y-67250000D01*
X115411196Y-67250000D01*
X115414017Y-67240207D01*
X115450031Y-67115201D01*
X115454692Y-67101882D01*
X115553722Y-66862803D01*
X115565129Y-66835264D01*
X115571260Y-66822534D01*
X115710841Y-66569980D01*
X115718358Y-66558015D01*
X115885353Y-66322658D01*
X115894163Y-66311611D01*
X116086450Y-66096441D01*
X116096441Y-66086450D01*
X116103056Y-66080539D01*
X116162195Y-66027689D01*
X116193179Y-66000000D01*
X140294508Y-66000000D01*
X140296059Y-66009793D01*
X140309783Y-66096441D01*
X140314354Y-66125304D01*
X140371950Y-66238342D01*
X140461658Y-66328050D01*
X140574696Y-66385646D01*
X140584485Y-66387196D01*
X140584487Y-66387197D01*
X140690207Y-66403941D01*
X140700000Y-66405492D01*
X140709793Y-66403941D01*
X140815513Y-66387197D01*
X140815515Y-66387196D01*
X140825304Y-66385646D01*
X140938342Y-66328050D01*
X140953987Y-66312405D01*
X141016299Y-66278379D01*
X141043082Y-66275500D01*
X141333694Y-66275500D01*
X141401815Y-66295502D01*
X141422789Y-66312405D01*
X146152231Y-71041847D01*
X146167900Y-71060938D01*
X146176376Y-71073624D01*
X146189062Y-71082100D01*
X146208153Y-71097769D01*
X146937595Y-71827211D01*
X146971621Y-71889523D01*
X146974500Y-71916306D01*
X146974500Y-100583694D01*
X146954498Y-100651815D01*
X146937595Y-100672789D01*
X146047814Y-101562570D01*
X145978430Y-101597924D01*
X145884487Y-101612803D01*
X145884485Y-101612804D01*
X145874696Y-101614354D01*
X145761658Y-101671950D01*
X145671950Y-101761658D01*
X145614354Y-101874696D01*
X145612804Y-101884485D01*
X145612803Y-101884487D01*
X145605939Y-101927828D01*
X145594508Y-102000000D01*
X145596059Y-102009793D01*
X145597984Y-102021944D01*
X145614354Y-102125304D01*
X145671950Y-102238342D01*
X145761658Y-102328050D01*
X145874696Y-102385646D01*
X145884485Y-102387196D01*
X145884487Y-102387197D01*
X145990207Y-102403941D01*
X146000000Y-102405492D01*
X146009793Y-102403941D01*
X146115513Y-102387197D01*
X146115515Y-102387196D01*
X146125304Y-102385646D01*
X146238342Y-102328050D01*
X146328050Y-102238342D01*
X146385646Y-102125304D01*
X146393859Y-102073450D01*
X146402076Y-102021570D01*
X146437430Y-101952186D01*
X147199796Y-101189820D01*
X156924500Y-101189820D01*
X156933233Y-101233722D01*
X156940127Y-101244040D01*
X156940128Y-101244042D01*
X156947779Y-101255492D01*
X156966496Y-101283504D01*
X156976815Y-101290399D01*
X157005958Y-101309872D01*
X157005960Y-101309873D01*
X157016278Y-101316767D01*
X157060180Y-101325500D01*
X158439820Y-101325500D01*
X158483722Y-101316767D01*
X158494040Y-101309873D01*
X158494042Y-101309872D01*
X158523185Y-101290399D01*
X158533504Y-101283504D01*
X158552221Y-101255492D01*
X158559872Y-101244042D01*
X158559873Y-101244040D01*
X158566767Y-101233722D01*
X158575500Y-101189820D01*
X158575500Y-99810180D01*
X158566767Y-99766278D01*
X158559873Y-99755960D01*
X158559872Y-99755958D01*
X158540399Y-99726815D01*
X158533504Y-99716496D01*
X158523185Y-99709601D01*
X158494042Y-99690128D01*
X158494040Y-99690127D01*
X158483722Y-99683233D01*
X158439820Y-99674500D01*
X157060180Y-99674500D01*
X157016278Y-99683233D01*
X157005960Y-99690127D01*
X157005958Y-99690128D01*
X156976815Y-99709601D01*
X156966496Y-99716496D01*
X156959601Y-99726815D01*
X156940128Y-99755958D01*
X156940127Y-99755960D01*
X156933233Y-99766278D01*
X156924500Y-99810180D01*
X156924500Y-101189820D01*
X147199796Y-101189820D01*
X147416844Y-100972772D01*
X147435936Y-100957102D01*
X147438307Y-100955518D01*
X147438308Y-100955517D01*
X147448624Y-100948624D01*
X147509515Y-100857495D01*
X147525500Y-100777133D01*
X147525500Y-100777132D01*
X147530897Y-100750000D01*
X147527921Y-100735039D01*
X147525500Y-100710457D01*
X147525500Y-85065963D01*
X147994757Y-85065963D01*
X148011175Y-85261483D01*
X148065258Y-85450091D01*
X148068076Y-85455574D01*
X148152123Y-85619113D01*
X148152126Y-85619117D01*
X148154944Y-85624601D01*
X148276818Y-85778369D01*
X148281511Y-85782363D01*
X148281512Y-85782364D01*
X148393356Y-85877550D01*
X148426238Y-85905535D01*
X148431616Y-85908541D01*
X148431618Y-85908542D01*
X148467932Y-85928837D01*
X148597513Y-86001257D01*
X148784118Y-86061889D01*
X148978946Y-86085121D01*
X148985081Y-86084649D01*
X148985083Y-86084649D01*
X149168434Y-86070541D01*
X149168438Y-86070540D01*
X149174576Y-86070068D01*
X149363556Y-86017303D01*
X149538689Y-85928837D01*
X149544630Y-85924196D01*
X149688453Y-85811829D01*
X149693303Y-85808040D01*
X149710738Y-85787842D01*
X149817485Y-85664173D01*
X149817485Y-85664172D01*
X149821509Y-85659511D01*
X149918425Y-85488909D01*
X149980358Y-85302732D01*
X150004949Y-85108071D01*
X150005341Y-85080000D01*
X149986194Y-84884728D01*
X149984413Y-84878829D01*
X149984412Y-84878824D01*
X149931265Y-84702793D01*
X149929484Y-84696894D01*
X149837370Y-84523653D01*
X149713361Y-84371602D01*
X149562180Y-84246535D01*
X149389585Y-84153213D01*
X149286297Y-84121240D01*
X149208039Y-84097015D01*
X149208036Y-84097014D01*
X149202152Y-84095193D01*
X149196027Y-84094549D01*
X149196026Y-84094549D01*
X149013147Y-84075327D01*
X149013146Y-84075327D01*
X149007019Y-84074683D01*
X148886557Y-84085646D01*
X148817759Y-84091907D01*
X148817758Y-84091907D01*
X148811618Y-84092466D01*
X148805704Y-84094207D01*
X148805702Y-84094207D01*
X148713853Y-84121240D01*
X148623393Y-84147864D01*
X148617928Y-84150721D01*
X148454972Y-84235912D01*
X148454968Y-84235915D01*
X148449512Y-84238767D01*
X148444712Y-84242627D01*
X148444711Y-84242627D01*
X148430463Y-84254083D01*
X148296600Y-84361711D01*
X148170480Y-84512016D01*
X148167516Y-84517408D01*
X148167513Y-84517412D01*
X148147043Y-84554647D01*
X148075956Y-84683954D01*
X148016628Y-84870978D01*
X147994757Y-85065963D01*
X147525500Y-85065963D01*
X147525500Y-83065963D01*
X154994757Y-83065963D01*
X155011175Y-83261483D01*
X155065258Y-83450091D01*
X155068076Y-83455574D01*
X155152123Y-83619113D01*
X155152126Y-83619117D01*
X155154944Y-83624601D01*
X155276818Y-83778369D01*
X155281511Y-83782363D01*
X155281512Y-83782364D01*
X155417003Y-83897675D01*
X155426238Y-83905535D01*
X155431616Y-83908541D01*
X155431618Y-83908542D01*
X155472897Y-83931612D01*
X155597513Y-84001257D01*
X155784118Y-84061889D01*
X155978946Y-84085121D01*
X155985081Y-84084649D01*
X155985083Y-84084649D01*
X156168434Y-84070541D01*
X156168438Y-84070540D01*
X156174576Y-84070068D01*
X156363556Y-84017303D01*
X156538689Y-83928837D01*
X156553116Y-83917566D01*
X156683738Y-83815513D01*
X156693303Y-83808040D01*
X156699857Y-83800448D01*
X156817485Y-83664173D01*
X156817485Y-83664172D01*
X156821509Y-83659511D01*
X156918425Y-83488909D01*
X156980358Y-83302732D01*
X157004949Y-83108071D01*
X157005341Y-83080000D01*
X156986194Y-82884728D01*
X156984413Y-82878829D01*
X156984412Y-82878824D01*
X156931265Y-82702793D01*
X156929484Y-82696894D01*
X156837370Y-82523653D01*
X156713361Y-82371602D01*
X156562180Y-82246535D01*
X156389585Y-82153213D01*
X156295869Y-82124203D01*
X156208039Y-82097015D01*
X156208036Y-82097014D01*
X156202152Y-82095193D01*
X156196027Y-82094549D01*
X156196026Y-82094549D01*
X156013147Y-82075327D01*
X156013146Y-82075327D01*
X156007019Y-82074683D01*
X155884383Y-82085844D01*
X155817759Y-82091907D01*
X155817758Y-82091907D01*
X155811618Y-82092466D01*
X155805704Y-82094207D01*
X155805702Y-82094207D01*
X155676734Y-82132165D01*
X155623393Y-82147864D01*
X155617928Y-82150721D01*
X155454972Y-82235912D01*
X155454968Y-82235915D01*
X155449512Y-82238767D01*
X155444712Y-82242627D01*
X155444711Y-82242627D01*
X155410326Y-82270273D01*
X155296600Y-82361711D01*
X155170480Y-82512016D01*
X155167516Y-82517408D01*
X155167513Y-82517412D01*
X155132136Y-82581763D01*
X155075956Y-82683954D01*
X155074095Y-82689821D01*
X155074094Y-82689823D01*
X155052103Y-82759148D01*
X155016628Y-82870978D01*
X154994757Y-83065963D01*
X147525500Y-83065963D01*
X147525500Y-79985963D01*
X147994757Y-79985963D01*
X148011175Y-80181483D01*
X148065258Y-80370091D01*
X148068076Y-80375574D01*
X148152123Y-80539113D01*
X148152126Y-80539117D01*
X148154944Y-80544601D01*
X148276818Y-80698369D01*
X148281511Y-80702363D01*
X148281512Y-80702364D01*
X148312321Y-80728584D01*
X148426238Y-80825535D01*
X148431616Y-80828541D01*
X148431618Y-80828542D01*
X148467932Y-80848837D01*
X148597513Y-80921257D01*
X148784118Y-80981889D01*
X148978946Y-81005121D01*
X148985081Y-81004649D01*
X148985083Y-81004649D01*
X149168434Y-80990541D01*
X149168438Y-80990540D01*
X149174576Y-80990068D01*
X149363556Y-80937303D01*
X149538689Y-80848837D01*
X149568515Y-80825535D01*
X149688453Y-80731829D01*
X149693303Y-80728040D01*
X149703167Y-80716613D01*
X149817485Y-80584173D01*
X149817485Y-80584172D01*
X149821509Y-80579511D01*
X149918425Y-80408909D01*
X149980358Y-80222732D01*
X150004949Y-80028071D01*
X150005341Y-80000000D01*
X149986194Y-79804728D01*
X149984413Y-79798829D01*
X149984412Y-79798824D01*
X149931265Y-79622793D01*
X149929484Y-79616894D01*
X149837370Y-79443653D01*
X149713361Y-79291602D01*
X149562180Y-79166535D01*
X149389585Y-79073213D01*
X149295869Y-79044203D01*
X149208039Y-79017015D01*
X149208036Y-79017014D01*
X149202152Y-79015193D01*
X149196027Y-79014549D01*
X149196026Y-79014549D01*
X149013147Y-78995327D01*
X149013146Y-78995327D01*
X149007019Y-78994683D01*
X148884383Y-79005844D01*
X148817759Y-79011907D01*
X148817758Y-79011907D01*
X148811618Y-79012466D01*
X148805704Y-79014207D01*
X148805702Y-79014207D01*
X148680457Y-79051069D01*
X148623393Y-79067864D01*
X148617928Y-79070721D01*
X148454972Y-79155912D01*
X148454968Y-79155915D01*
X148449512Y-79158767D01*
X148444712Y-79162627D01*
X148444711Y-79162627D01*
X148410326Y-79190273D01*
X148296600Y-79281711D01*
X148170480Y-79432016D01*
X148167516Y-79437408D01*
X148167513Y-79437412D01*
X148136028Y-79494683D01*
X148075956Y-79603954D01*
X148016628Y-79790978D01*
X147994757Y-79985963D01*
X147525500Y-79985963D01*
X147525500Y-77985963D01*
X154994757Y-77985963D01*
X155011175Y-78181483D01*
X155065258Y-78370091D01*
X155068076Y-78375574D01*
X155152123Y-78539113D01*
X155152126Y-78539117D01*
X155154944Y-78544601D01*
X155276818Y-78698369D01*
X155426238Y-78825535D01*
X155431616Y-78828541D01*
X155431618Y-78828542D01*
X155467932Y-78848837D01*
X155597513Y-78921257D01*
X155784118Y-78981889D01*
X155978946Y-79005121D01*
X155985081Y-79004649D01*
X155985083Y-79004649D01*
X156168434Y-78990541D01*
X156168438Y-78990540D01*
X156174576Y-78990068D01*
X156363556Y-78937303D01*
X156538689Y-78848837D01*
X156568515Y-78825535D01*
X156688453Y-78731829D01*
X156693303Y-78728040D01*
X156723084Y-78693539D01*
X156817485Y-78584173D01*
X156817485Y-78584172D01*
X156821509Y-78579511D01*
X156845323Y-78537592D01*
X156915378Y-78414272D01*
X156918425Y-78408909D01*
X156980358Y-78222732D01*
X157004949Y-78028071D01*
X157005341Y-78000000D01*
X156986194Y-77804728D01*
X156984413Y-77798829D01*
X156984412Y-77798824D01*
X156931265Y-77622793D01*
X156929484Y-77616894D01*
X156837370Y-77443653D01*
X156713361Y-77291602D01*
X156562180Y-77166535D01*
X156389585Y-77073213D01*
X156295869Y-77044203D01*
X156208039Y-77017015D01*
X156208036Y-77017014D01*
X156202152Y-77015193D01*
X156196027Y-77014549D01*
X156196026Y-77014549D01*
X156013147Y-76995327D01*
X156013146Y-76995327D01*
X156007019Y-76994683D01*
X155884383Y-77005844D01*
X155817759Y-77011907D01*
X155817758Y-77011907D01*
X155811618Y-77012466D01*
X155805704Y-77014207D01*
X155805702Y-77014207D01*
X155676734Y-77052165D01*
X155623393Y-77067864D01*
X155617928Y-77070721D01*
X155454972Y-77155912D01*
X155454968Y-77155915D01*
X155449512Y-77158767D01*
X155444712Y-77162627D01*
X155444711Y-77162627D01*
X155410326Y-77190273D01*
X155296600Y-77281711D01*
X155170480Y-77432016D01*
X155167516Y-77437408D01*
X155167513Y-77437412D01*
X155088813Y-77580567D01*
X155075956Y-77603954D01*
X155016628Y-77790978D01*
X154994757Y-77985963D01*
X147525500Y-77985963D01*
X147525500Y-74905963D01*
X147994757Y-74905963D01*
X148011175Y-75101483D01*
X148065258Y-75290091D01*
X148068076Y-75295574D01*
X148152123Y-75459113D01*
X148152126Y-75459117D01*
X148154944Y-75464601D01*
X148276818Y-75618369D01*
X148281511Y-75622363D01*
X148281512Y-75622364D01*
X148406321Y-75728584D01*
X148426238Y-75745535D01*
X148431616Y-75748541D01*
X148431618Y-75748542D01*
X148467932Y-75768837D01*
X148597513Y-75841257D01*
X148784118Y-75901889D01*
X148978946Y-75925121D01*
X148985081Y-75924649D01*
X148985083Y-75924649D01*
X149168434Y-75910541D01*
X149168438Y-75910540D01*
X149174576Y-75910068D01*
X149363556Y-75857303D01*
X149538689Y-75768837D01*
X149568515Y-75745535D01*
X149688453Y-75651829D01*
X149693303Y-75648040D01*
X149723084Y-75613539D01*
X149817485Y-75504173D01*
X149817485Y-75504172D01*
X149821509Y-75499511D01*
X149829206Y-75485963D01*
X149915378Y-75334272D01*
X149918425Y-75328909D01*
X149980358Y-75142732D01*
X150004949Y-74948071D01*
X150005341Y-74920000D01*
X149986194Y-74724728D01*
X149984413Y-74718829D01*
X149984412Y-74718824D01*
X149931265Y-74542793D01*
X149929484Y-74536894D01*
X149837370Y-74363653D01*
X149713361Y-74211602D01*
X149562180Y-74086535D01*
X149389585Y-73993213D01*
X149295869Y-73964203D01*
X149208039Y-73937015D01*
X149208036Y-73937014D01*
X149202152Y-73935193D01*
X149196027Y-73934549D01*
X149196026Y-73934549D01*
X149013147Y-73915327D01*
X149013146Y-73915327D01*
X149007019Y-73914683D01*
X148884383Y-73925844D01*
X148817759Y-73931907D01*
X148817758Y-73931907D01*
X148811618Y-73932466D01*
X148805704Y-73934207D01*
X148805702Y-73934207D01*
X148676734Y-73972165D01*
X148623393Y-73987864D01*
X148617928Y-73990721D01*
X148454972Y-74075912D01*
X148454968Y-74075915D01*
X148449512Y-74078767D01*
X148444712Y-74082627D01*
X148444711Y-74082627D01*
X148410326Y-74110273D01*
X148296600Y-74201711D01*
X148170480Y-74352016D01*
X148167516Y-74357408D01*
X148167513Y-74357412D01*
X148092048Y-74494683D01*
X148075956Y-74523954D01*
X148074095Y-74529821D01*
X148074094Y-74529823D01*
X148046292Y-74617466D01*
X148016628Y-74710978D01*
X147994757Y-74905963D01*
X147525500Y-74905963D01*
X147525500Y-72905963D01*
X154994757Y-72905963D01*
X155011175Y-73101483D01*
X155065258Y-73290091D01*
X155068076Y-73295574D01*
X155152123Y-73459113D01*
X155152126Y-73459117D01*
X155154944Y-73464601D01*
X155276818Y-73618369D01*
X155281511Y-73622363D01*
X155281512Y-73622364D01*
X155401332Y-73724338D01*
X155426238Y-73745535D01*
X155431616Y-73748541D01*
X155431618Y-73748542D01*
X155497067Y-73785120D01*
X155597513Y-73841257D01*
X155784118Y-73901889D01*
X155978946Y-73925121D01*
X155985081Y-73924649D01*
X155985083Y-73924649D01*
X156168434Y-73910541D01*
X156168438Y-73910540D01*
X156174576Y-73910068D01*
X156363556Y-73857303D01*
X156538689Y-73768837D01*
X156568515Y-73745535D01*
X156688453Y-73651829D01*
X156693303Y-73648040D01*
X156723084Y-73613539D01*
X156817485Y-73504173D01*
X156817485Y-73504172D01*
X156821509Y-73499511D01*
X156918425Y-73328909D01*
X156980358Y-73142732D01*
X157004949Y-72948071D01*
X157005341Y-72920000D01*
X156986194Y-72724728D01*
X156984413Y-72718829D01*
X156984412Y-72718824D01*
X156931265Y-72542793D01*
X156929484Y-72536894D01*
X156837370Y-72363653D01*
X156713361Y-72211602D01*
X156562180Y-72086535D01*
X156389585Y-71993213D01*
X156295868Y-71964203D01*
X156208039Y-71937015D01*
X156208036Y-71937014D01*
X156202152Y-71935193D01*
X156196027Y-71934549D01*
X156196026Y-71934549D01*
X156013147Y-71915327D01*
X156013146Y-71915327D01*
X156007019Y-71914683D01*
X155884876Y-71925799D01*
X155817759Y-71931907D01*
X155817758Y-71931907D01*
X155811618Y-71932466D01*
X155805704Y-71934207D01*
X155805702Y-71934207D01*
X155680325Y-71971108D01*
X155623393Y-71987864D01*
X155617928Y-71990721D01*
X155454972Y-72075912D01*
X155454968Y-72075915D01*
X155449512Y-72078767D01*
X155444712Y-72082627D01*
X155444711Y-72082627D01*
X155427192Y-72096713D01*
X155296600Y-72201711D01*
X155170480Y-72352016D01*
X155167516Y-72357408D01*
X155167513Y-72357412D01*
X155155173Y-72379859D01*
X155075956Y-72523954D01*
X155074095Y-72529821D01*
X155074094Y-72529823D01*
X155046292Y-72617466D01*
X155016628Y-72710978D01*
X154994757Y-72905963D01*
X147525500Y-72905963D01*
X147525500Y-71789543D01*
X147527921Y-71764961D01*
X147528476Y-71762171D01*
X147530897Y-71750000D01*
X147524172Y-71716193D01*
X147518706Y-71688710D01*
X147511936Y-71654678D01*
X147509515Y-71642505D01*
X147448624Y-71551376D01*
X147435936Y-71542898D01*
X147416844Y-71527228D01*
X146913073Y-71023457D01*
X146879047Y-70961145D01*
X146884112Y-70890330D01*
X146926659Y-70833494D01*
X146944964Y-70822096D01*
X146964630Y-70812076D01*
X146964636Y-70812071D01*
X146973465Y-70807573D01*
X147057573Y-70723465D01*
X147111574Y-70617482D01*
X147130181Y-70500000D01*
X147111574Y-70382518D01*
X147057573Y-70276535D01*
X146973465Y-70192427D01*
X146867482Y-70138426D01*
X146750000Y-70119819D01*
X146632518Y-70138426D01*
X146526535Y-70192427D01*
X146442427Y-70276535D01*
X146437929Y-70285364D01*
X146437924Y-70285370D01*
X146427904Y-70305036D01*
X146379155Y-70356651D01*
X146310240Y-70373716D01*
X146243039Y-70350814D01*
X146226543Y-70336927D01*
X144139616Y-68250000D01*
X150094508Y-68250000D01*
X150096059Y-68259793D01*
X150100778Y-68289585D01*
X150114354Y-68375304D01*
X150171950Y-68488342D01*
X150261658Y-68578050D01*
X150374696Y-68635646D01*
X150384485Y-68637196D01*
X150384487Y-68637197D01*
X150490207Y-68653941D01*
X150500000Y-68655492D01*
X150509793Y-68653941D01*
X150615513Y-68637197D01*
X150615515Y-68637196D01*
X150625304Y-68635646D01*
X150738342Y-68578050D01*
X150828050Y-68488342D01*
X150885646Y-68375304D01*
X150899223Y-68289585D01*
X150903941Y-68259793D01*
X150905492Y-68250000D01*
X150895159Y-68184761D01*
X150887197Y-68134487D01*
X150887196Y-68134485D01*
X150885646Y-68124696D01*
X150828050Y-68011658D01*
X150738342Y-67921950D01*
X150625304Y-67864354D01*
X150615515Y-67862804D01*
X150615513Y-67862803D01*
X150509793Y-67846059D01*
X150500000Y-67844508D01*
X150490207Y-67846059D01*
X150384487Y-67862803D01*
X150384485Y-67862804D01*
X150374696Y-67864354D01*
X150261658Y-67921950D01*
X150171950Y-68011658D01*
X150114354Y-68124696D01*
X150112804Y-68134485D01*
X150112803Y-68134487D01*
X150104841Y-68184761D01*
X150094508Y-68250000D01*
X144139616Y-68250000D01*
X141722772Y-65833156D01*
X141707102Y-65814064D01*
X141705515Y-65811689D01*
X141698624Y-65801376D01*
X141675623Y-65786007D01*
X141675621Y-65786005D01*
X141639183Y-65761658D01*
X141639182Y-65761658D01*
X141607495Y-65740485D01*
X141595326Y-65738064D01*
X141595325Y-65738064D01*
X141527133Y-65724500D01*
X141512172Y-65721524D01*
X141512171Y-65721524D01*
X141500000Y-65719103D01*
X141487829Y-65721524D01*
X141485039Y-65722079D01*
X141460457Y-65724500D01*
X141043082Y-65724500D01*
X140974961Y-65704498D01*
X140953987Y-65687595D01*
X140938342Y-65671950D01*
X140825304Y-65614354D01*
X140815515Y-65612804D01*
X140815513Y-65612803D01*
X140709793Y-65596059D01*
X140700000Y-65594508D01*
X140690207Y-65596059D01*
X140584487Y-65612803D01*
X140584485Y-65612804D01*
X140574696Y-65614354D01*
X140461658Y-65671950D01*
X140371950Y-65761658D01*
X140314354Y-65874696D01*
X140294508Y-66000000D01*
X116193179Y-66000000D01*
X116311611Y-65894163D01*
X116322658Y-65885353D01*
X116558015Y-65718358D01*
X116569980Y-65710841D01*
X116822534Y-65571260D01*
X116835264Y-65565129D01*
X116886551Y-65543885D01*
X117101882Y-65454692D01*
X117115201Y-65450031D01*
X117343924Y-65384137D01*
X117392506Y-65370141D01*
X117406281Y-65366997D01*
X117548529Y-65342828D01*
X117690781Y-65318658D01*
X117704813Y-65317077D01*
X117965491Y-65302438D01*
X117978706Y-65303222D01*
X117989145Y-65303222D01*
X118000000Y-65305136D01*
X118015437Y-65302414D01*
X118037317Y-65300500D01*
X129962683Y-65300500D01*
X129984563Y-65302414D01*
X129989145Y-65303222D01*
X130000000Y-65305136D01*
X130003721Y-65304480D01*
X130013530Y-65303887D01*
X130013531Y-65303887D01*
X130274004Y-65288131D01*
X130274009Y-65288130D01*
X130277801Y-65287901D01*
X130484619Y-65250000D01*
X131594508Y-65250000D01*
X131596059Y-65259793D01*
X131610778Y-65352723D01*
X131614354Y-65375304D01*
X131671950Y-65488342D01*
X131761658Y-65578050D01*
X131874696Y-65635646D01*
X131884485Y-65637196D01*
X131884487Y-65637197D01*
X131990207Y-65653941D01*
X132000000Y-65655492D01*
X132009793Y-65653941D01*
X132115513Y-65637197D01*
X132115515Y-65637196D01*
X132125304Y-65635646D01*
X132238342Y-65578050D01*
X132328050Y-65488342D01*
X132385646Y-65375304D01*
X132389223Y-65352723D01*
X132403941Y-65259793D01*
X132405492Y-65250000D01*
X133594508Y-65250000D01*
X133596059Y-65259793D01*
X133610778Y-65352723D01*
X133614354Y-65375304D01*
X133671950Y-65488342D01*
X133761658Y-65578050D01*
X133874696Y-65635646D01*
X133884485Y-65637196D01*
X133884487Y-65637197D01*
X133990207Y-65653941D01*
X134000000Y-65655492D01*
X134009793Y-65653941D01*
X134115513Y-65637197D01*
X134115515Y-65637196D01*
X134125304Y-65635646D01*
X134238342Y-65578050D01*
X134328050Y-65488342D01*
X134385646Y-65375304D01*
X134389223Y-65352723D01*
X134403941Y-65259793D01*
X134405492Y-65250000D01*
X134390188Y-65153373D01*
X134387197Y-65134487D01*
X134387196Y-65134485D01*
X134385646Y-65124696D01*
X134328050Y-65011658D01*
X134238342Y-64921950D01*
X134125304Y-64864354D01*
X134115515Y-64862804D01*
X134115513Y-64862803D01*
X134009793Y-64846059D01*
X134000000Y-64844508D01*
X133990207Y-64846059D01*
X133884487Y-64862803D01*
X133884485Y-64862804D01*
X133874696Y-64864354D01*
X133761658Y-64921950D01*
X133671950Y-65011658D01*
X133614354Y-65124696D01*
X133612804Y-65134485D01*
X133612803Y-65134487D01*
X133609812Y-65153373D01*
X133594508Y-65250000D01*
X132405492Y-65250000D01*
X132390188Y-65153373D01*
X132387197Y-65134487D01*
X132387196Y-65134485D01*
X132385646Y-65124696D01*
X132328050Y-65011658D01*
X132238342Y-64921950D01*
X132125304Y-64864354D01*
X132115515Y-64862804D01*
X132115513Y-64862803D01*
X132009793Y-64846059D01*
X132000000Y-64844508D01*
X131990207Y-64846059D01*
X131884487Y-64862803D01*
X131884485Y-64862804D01*
X131874696Y-64864354D01*
X131761658Y-64921950D01*
X131671950Y-65011658D01*
X131614354Y-65124696D01*
X131612804Y-65134485D01*
X131612803Y-65134487D01*
X131609812Y-65153373D01*
X131594508Y-65250000D01*
X130484619Y-65250000D01*
X130551552Y-65237734D01*
X130742590Y-65178205D01*
X130813624Y-65156070D01*
X130817260Y-65154937D01*
X130820730Y-65153375D01*
X130820736Y-65153373D01*
X131004475Y-65070678D01*
X131071050Y-65040715D01*
X131074307Y-65038746D01*
X131074311Y-65038744D01*
X131305968Y-64898702D01*
X131309222Y-64896735D01*
X131321397Y-64887197D01*
X131525299Y-64727449D01*
X131525302Y-64727447D01*
X131528302Y-64725096D01*
X131725096Y-64528302D01*
X131739597Y-64509793D01*
X131747269Y-64500000D01*
X135844508Y-64500000D01*
X135846059Y-64509793D01*
X135849419Y-64531004D01*
X135864354Y-64625304D01*
X135921950Y-64738342D01*
X136011658Y-64828050D01*
X136124696Y-64885646D01*
X136134485Y-64887196D01*
X136134487Y-64887197D01*
X136240207Y-64903941D01*
X136250000Y-64905492D01*
X136259793Y-64903941D01*
X136365513Y-64887197D01*
X136365515Y-64887196D01*
X136375304Y-64885646D01*
X136488342Y-64828050D01*
X136578050Y-64738342D01*
X136635646Y-64625304D01*
X136650582Y-64531004D01*
X136653941Y-64509793D01*
X136655492Y-64500000D01*
X138344508Y-64500000D01*
X138346059Y-64509793D01*
X138349419Y-64531004D01*
X138364354Y-64625304D01*
X138421950Y-64738342D01*
X138511658Y-64828050D01*
X138624696Y-64885646D01*
X138634485Y-64887196D01*
X138634487Y-64887197D01*
X138740207Y-64903941D01*
X138750000Y-64905492D01*
X138759793Y-64903941D01*
X138865513Y-64887197D01*
X138865515Y-64887196D01*
X138875304Y-64885646D01*
X138988342Y-64828050D01*
X139078050Y-64738342D01*
X139135646Y-64625304D01*
X139150582Y-64531004D01*
X139153941Y-64509793D01*
X139155492Y-64500000D01*
X139143669Y-64425352D01*
X139137197Y-64384487D01*
X139137196Y-64384485D01*
X139135646Y-64374696D01*
X139078050Y-64261658D01*
X138988342Y-64171950D01*
X138875304Y-64114354D01*
X138865515Y-64112804D01*
X138865513Y-64112803D01*
X138759793Y-64096059D01*
X138750000Y-64094508D01*
X138740207Y-64096059D01*
X138634487Y-64112803D01*
X138634485Y-64112804D01*
X138624696Y-64114354D01*
X138511658Y-64171950D01*
X138421950Y-64261658D01*
X138364354Y-64374696D01*
X138362804Y-64384485D01*
X138362803Y-64384487D01*
X138356331Y-64425352D01*
X138344508Y-64500000D01*
X136655492Y-64500000D01*
X136643669Y-64425352D01*
X136637197Y-64384487D01*
X136637196Y-64384485D01*
X136635646Y-64374696D01*
X136578050Y-64261658D01*
X136488342Y-64171950D01*
X136375304Y-64114354D01*
X136365515Y-64112804D01*
X136365513Y-64112803D01*
X136259793Y-64096059D01*
X136250000Y-64094508D01*
X136240207Y-64096059D01*
X136134487Y-64112803D01*
X136134485Y-64112804D01*
X136124696Y-64114354D01*
X136011658Y-64171950D01*
X135921950Y-64261658D01*
X135864354Y-64374696D01*
X135862804Y-64384485D01*
X135862803Y-64384487D01*
X135856331Y-64425352D01*
X135844508Y-64500000D01*
X131747269Y-64500000D01*
X131894392Y-64312213D01*
X131894394Y-64312210D01*
X131896735Y-64309222D01*
X131982439Y-64167450D01*
X132038744Y-64074311D01*
X132038746Y-64074307D01*
X132040715Y-64071050D01*
X132113423Y-63909500D01*
X139594508Y-63909500D01*
X139614354Y-64034804D01*
X139671950Y-64147842D01*
X139761658Y-64237550D01*
X139874696Y-64295146D01*
X139884485Y-64296696D01*
X139884487Y-64296697D01*
X139990207Y-64313441D01*
X140000000Y-64314992D01*
X140009793Y-64313441D01*
X140115513Y-64296697D01*
X140115515Y-64296696D01*
X140125304Y-64295146D01*
X140238342Y-64237550D01*
X140328050Y-64147842D01*
X140385646Y-64034804D01*
X140405492Y-63909500D01*
X140403941Y-63899707D01*
X140387197Y-63793987D01*
X140387196Y-63793985D01*
X140385646Y-63784196D01*
X140328050Y-63671158D01*
X140238342Y-63581450D01*
X140125304Y-63523854D01*
X140115515Y-63522304D01*
X140115513Y-63522303D01*
X140009793Y-63505559D01*
X140000000Y-63504008D01*
X139990207Y-63505559D01*
X139884487Y-63522303D01*
X139884485Y-63522304D01*
X139874696Y-63523854D01*
X139761658Y-63581450D01*
X139671950Y-63671158D01*
X139614354Y-63784196D01*
X139612804Y-63793985D01*
X139612803Y-63793987D01*
X139596059Y-63899707D01*
X139594508Y-63909500D01*
X132113423Y-63909500D01*
X132153373Y-63820736D01*
X132153375Y-63820730D01*
X132154937Y-63817260D01*
X132237734Y-63551552D01*
X132287901Y-63277801D01*
X132294015Y-63176735D01*
X132303827Y-63014516D01*
X132304480Y-63003721D01*
X132305136Y-63000000D01*
X132302414Y-62984563D01*
X132300500Y-62962683D01*
X132300500Y-61978501D01*
X132320502Y-61910380D01*
X132374158Y-61863887D01*
X132444432Y-61853783D01*
X132509012Y-61883277D01*
X132544366Y-61933963D01*
X132576973Y-62020255D01*
X132669579Y-62154997D01*
X132675249Y-62160048D01*
X132675250Y-62160050D01*
X132706896Y-62188245D01*
X132791652Y-62263760D01*
X132798361Y-62267312D01*
X132798362Y-62267313D01*
X132929434Y-62336712D01*
X132929436Y-62336713D01*
X132936145Y-62340265D01*
X132945143Y-62342525D01*
X132957998Y-62345754D01*
X133019194Y-62381748D01*
X133051215Y-62445114D01*
X133043895Y-62515732D01*
X133039571Y-62525158D01*
X132988854Y-62624696D01*
X132969008Y-62750000D01*
X132970559Y-62759793D01*
X132979093Y-62813672D01*
X132988854Y-62875304D01*
X133046450Y-62988342D01*
X133136158Y-63078050D01*
X133249196Y-63135646D01*
X133258985Y-63137196D01*
X133258987Y-63137197D01*
X133364707Y-63153941D01*
X133374500Y-63155492D01*
X133384293Y-63153941D01*
X133490013Y-63137197D01*
X133490015Y-63137196D01*
X133499804Y-63135646D01*
X133612842Y-63078050D01*
X133702550Y-62988342D01*
X133760146Y-62875304D01*
X133769908Y-62813672D01*
X133778441Y-62759793D01*
X133779992Y-62750000D01*
X133760146Y-62624696D01*
X133702550Y-62511658D01*
X133612842Y-62421950D01*
X133612456Y-62421753D01*
X133572317Y-62369700D01*
X133566243Y-62298964D01*
X133599376Y-62236173D01*
X133606894Y-62229048D01*
X133685681Y-62160317D01*
X133779693Y-62026552D01*
X133839083Y-61874224D01*
X133855500Y-61749527D01*
X133855500Y-60859263D01*
X133875502Y-60791142D01*
X133929158Y-60744649D01*
X133999432Y-60734545D01*
X134064012Y-60764039D01*
X134102396Y-60823765D01*
X134105014Y-60834358D01*
X134109064Y-60854444D01*
X134174429Y-60982730D01*
X134271884Y-61088712D01*
X134394250Y-61164582D01*
X134532512Y-61204751D01*
X134539327Y-61205251D01*
X134540404Y-61205331D01*
X134540417Y-61205331D01*
X134542712Y-61205500D01*
X134646070Y-61205500D01*
X134650315Y-61204918D01*
X134650322Y-61204918D01*
X134709231Y-61196848D01*
X134752646Y-61190901D01*
X134760531Y-61187489D01*
X134876902Y-61137131D01*
X134876905Y-61137129D01*
X134884783Y-61133720D01*
X134996675Y-61043112D01*
X135080079Y-60925751D01*
X135112983Y-60834358D01*
X135125942Y-60798363D01*
X135125942Y-60798361D01*
X135128850Y-60790285D01*
X135130778Y-60764039D01*
X135138765Y-60655256D01*
X135139394Y-60646693D01*
X135110936Y-60505556D01*
X135045571Y-60377270D01*
X134948116Y-60271288D01*
X134825750Y-60195418D01*
X134687488Y-60155249D01*
X134680673Y-60154749D01*
X134679596Y-60154669D01*
X134679583Y-60154669D01*
X134677288Y-60154500D01*
X134573930Y-60154500D01*
X134569685Y-60155082D01*
X134569678Y-60155082D01*
X134510769Y-60163152D01*
X134467354Y-60169099D01*
X134459470Y-60172511D01*
X134459469Y-60172511D01*
X134343098Y-60222869D01*
X134343095Y-60222871D01*
X134335217Y-60226280D01*
X134223325Y-60316888D01*
X134139921Y-60434249D01*
X134091150Y-60569715D01*
X134088208Y-60568656D01*
X134061674Y-60617812D01*
X133999526Y-60652137D01*
X133928687Y-60647414D01*
X133871647Y-60605141D01*
X133847063Y-60544284D01*
X133843395Y-60513977D01*
X133840819Y-60492687D01*
X133783027Y-60339745D01*
X133774427Y-60327232D01*
X133694723Y-60211262D01*
X133694722Y-60211261D01*
X133690421Y-60205003D01*
X133568348Y-60096240D01*
X133561638Y-60092687D01*
X133430566Y-60023288D01*
X133430564Y-60023287D01*
X133423855Y-60019735D01*
X133363787Y-60004647D01*
X133272655Y-59981756D01*
X133272651Y-59981756D01*
X133265284Y-59979905D01*
X133257685Y-59979865D01*
X133257683Y-59979865D01*
X133189653Y-59979509D01*
X133101790Y-59979049D01*
X133094410Y-59980821D01*
X133094408Y-59980821D01*
X132950189Y-60015444D01*
X132950185Y-60015445D01*
X132942810Y-60017216D01*
X132797524Y-60092204D01*
X132791802Y-60097196D01*
X132791800Y-60097197D01*
X132680044Y-60194688D01*
X132680041Y-60194691D01*
X132674319Y-60199683D01*
X132580307Y-60333448D01*
X132565687Y-60370947D01*
X132543893Y-60426845D01*
X132500512Y-60483046D01*
X132433633Y-60506873D01*
X132364489Y-60490759D01*
X132315033Y-60439822D01*
X132300500Y-60381075D01*
X132300500Y-57704468D01*
X132320502Y-57636347D01*
X132374158Y-57589854D01*
X132444432Y-57579750D01*
X132509012Y-57609244D01*
X132542823Y-57663892D01*
X132544929Y-57663058D01*
X132605432Y-57815871D01*
X132702037Y-57948837D01*
X132828674Y-58053600D01*
X132977387Y-58123579D01*
X132985170Y-58125064D01*
X132985174Y-58125065D01*
X133131044Y-58152891D01*
X133131046Y-58152891D01*
X133138830Y-58154376D01*
X133220845Y-58149216D01*
X133294949Y-58144554D01*
X133294951Y-58144554D01*
X133302860Y-58144056D01*
X133310396Y-58141607D01*
X133310398Y-58141607D01*
X133365882Y-58123579D01*
X133459171Y-58093268D01*
X133597940Y-58005202D01*
X133710448Y-57885393D01*
X133752720Y-57808502D01*
X133785807Y-57748316D01*
X133789627Y-57741368D01*
X133799102Y-57704468D01*
X133828529Y-57589854D01*
X133828529Y-57589853D01*
X133830500Y-57582177D01*
X133830500Y-56459075D01*
X133821869Y-56390756D01*
X133816065Y-56344807D01*
X133816064Y-56344804D01*
X133815071Y-56336942D01*
X133754568Y-56184129D01*
X133657963Y-56051163D01*
X133624625Y-56023583D01*
X133584888Y-55964751D01*
X133583266Y-55893773D01*
X133620276Y-55833185D01*
X133684166Y-55802225D01*
X133704942Y-55800500D01*
X141293349Y-55800500D01*
X141361470Y-55820502D01*
G37*
%TD.AperFunction*%
%TD*%
M02*
