%FSLAX45Y45*%
G04 Gerber Fmt 4.5, Leading zero omitted, Abs format (unit mm)*
G04 Created by KiCad (PCBNEW 6.0.0-rc1-unknown-rc1+486+g97c2627de6) date 2021-12-22 22:09:30*
%MOMM*%
%LPD*%
G01*
G04 APERTURE LIST*
%TA.AperFunction,Profile*%
%ADD10C,0.100000*%
%TD*%
%ADD11C,0.200000*%
%ADD12C,0.065000*%
%ADD13C,0.210000*%
G04 APERTURE END LIST*
D10*
X13314645Y-7185355D02*
G75*
G03*
X13364645Y-7135355I0J50000D01*
G01*
X14464645Y-8335355D02*
X14464645Y-7235355D01*
X14214645Y-8385355D02*
X14414645Y-8385355D01*
X13364645Y-8685355D02*
G75*
G03*
X13414645Y-8735355I50000J0D01*
G01*
X14164644Y-6885355D02*
G75*
G03*
X14114645Y-6835355I-50000J0D01*
G01*
X13200000Y-5550000D02*
X14300000Y-5550000D01*
X14114645Y-8735355D02*
G75*
G03*
X14164645Y-8685355I0J50000D01*
G01*
X14464645Y-7235355D02*
G75*
G03*
X14414645Y-7185355I-50000J0D01*
G01*
X15700000Y-11900000D02*
G75*
G03*
X16000000Y-11600000I0J300000D01*
G01*
X16000000Y-6800000D02*
X16000000Y-11600000D01*
X13114645Y-7185355D02*
G75*
G03*
X13064645Y-7235355I0J-50000D01*
G01*
X13064645Y-8335355D02*
G75*
G03*
X13114645Y-8385355I50000J0D01*
G01*
X13414645Y-6835355D02*
G75*
G03*
X13364645Y-6885355I0J-50000D01*
G01*
X13200000Y-5550000D02*
X13200000Y-6300000D01*
X14164644Y-6885355D02*
X14164645Y-7135355D01*
X14164645Y-7135355D02*
G75*
G03*
X14214645Y-7185355I50000J0D01*
G01*
X14214645Y-7185355D02*
X14414645Y-7185355D01*
X14300000Y-6300000D02*
G75*
G03*
X14500000Y-6500000I200000J0D01*
G01*
X13364645Y-8435355D02*
G75*
G03*
X13314645Y-8385355I-50000J0D01*
G01*
X14500000Y-6500000D02*
X15700000Y-6500000D01*
X16000000Y-6800000D02*
G75*
G03*
X15700000Y-6500000I-300000J0D01*
G01*
X14414645Y-8385355D02*
G75*
G03*
X14464645Y-8335355I0J50000D01*
G01*
X14114645Y-6835355D02*
X13414645Y-6835355D01*
X14164645Y-8435355D02*
X14164645Y-8685355D01*
X11800000Y-11900000D02*
X15700000Y-11900000D01*
X14214645Y-8385355D02*
G75*
G03*
X14164645Y-8435355I0J-50000D01*
G01*
X11800000Y-6500000D02*
G75*
G03*
X11500000Y-6800000I0J-300000D01*
G01*
X13314645Y-7185355D02*
X13114645Y-7185355D01*
X13364645Y-7135355D02*
X13364645Y-6885355D01*
X13314645Y-8385355D02*
X13114645Y-8385355D01*
X13364645Y-8685355D02*
X13364645Y-8435355D01*
X13414645Y-8735355D02*
X14114645Y-8735355D01*
X11500000Y-11600000D02*
X11500000Y-6800000D01*
X14300000Y-6300000D02*
X14300000Y-5550000D01*
X13000000Y-6500000D02*
G75*
G03*
X13200000Y-6300000I0J200000D01*
G01*
X11500000Y-11600000D02*
G75*
G03*
X11800000Y-11900000I300000J0D01*
G01*
X13064645Y-8335355D02*
X13064645Y-7235355D01*
X11800000Y-6500000D02*
X13000000Y-6500000D01*
D11*
D12*
X13428500Y-6035500D02*
X13493500Y-6100500D01*
X13493500Y-6035500D02*
X13428500Y-6100500D01*
X14006500Y-6035500D02*
X14071500Y-6100500D01*
X14071500Y-6035500D02*
X14006500Y-6100500D01*
D13*
X11905000Y-6800000D02*
G75*
G03*
X11905000Y-6800000I-105000J0D01*
G01*
X11905000Y-11600000D02*
G75*
G03*
X11905000Y-11600000I-105000J0D01*
G01*
X15805000Y-6800000D02*
G75*
G03*
X15805000Y-6800000I-105000J0D01*
G01*
X15805000Y-11600000D02*
G75*
G03*
X15805000Y-11600000I-105000J0D01*
G01*
D11*
X11752619Y-12215476D02*
X11752619Y-12015476D01*
X11800238Y-12015476D01*
X11828809Y-12025000D01*
X11847857Y-12044048D01*
X11857381Y-12063095D01*
X11866905Y-12101190D01*
X11866905Y-12129762D01*
X11857381Y-12167857D01*
X11847857Y-12186905D01*
X11828809Y-12205952D01*
X11800238Y-12215476D01*
X11752619Y-12215476D01*
X11952619Y-12215476D02*
X11952619Y-12082143D01*
X11952619Y-12120238D02*
X11962143Y-12101190D01*
X11971667Y-12091667D01*
X11990714Y-12082143D01*
X12009762Y-12082143D01*
X12076428Y-12215476D02*
X12076428Y-12082143D01*
X12076428Y-12015476D02*
X12066905Y-12025000D01*
X12076428Y-12034524D01*
X12085952Y-12025000D01*
X12076428Y-12015476D01*
X12076428Y-12034524D01*
X12200238Y-12215476D02*
X12181190Y-12205952D01*
X12171667Y-12186905D01*
X12171667Y-12015476D01*
X12305000Y-12215476D02*
X12285952Y-12205952D01*
X12276428Y-12186905D01*
X12276428Y-12015476D01*
X12533571Y-12215476D02*
X12533571Y-12015476D01*
X12600238Y-12158333D01*
X12666905Y-12015476D01*
X12666905Y-12215476D01*
X12847857Y-12215476D02*
X12847857Y-12110714D01*
X12838333Y-12091667D01*
X12819286Y-12082143D01*
X12781190Y-12082143D01*
X12762143Y-12091667D01*
X12847857Y-12205952D02*
X12828809Y-12215476D01*
X12781190Y-12215476D01*
X12762143Y-12205952D01*
X12752619Y-12186905D01*
X12752619Y-12167857D01*
X12762143Y-12148809D01*
X12781190Y-12139286D01*
X12828809Y-12139286D01*
X12847857Y-12129762D01*
X12943095Y-12082143D02*
X12943095Y-12282143D01*
X12943095Y-12091667D02*
X12962143Y-12082143D01*
X13000238Y-12082143D01*
X13019286Y-12091667D01*
X13028809Y-12101190D01*
X13038333Y-12120238D01*
X13038333Y-12177381D01*
X13028809Y-12196428D01*
X13019286Y-12205952D01*
X13000238Y-12215476D01*
X12962143Y-12215476D01*
X12943095Y-12205952D01*
X13124048Y-12196428D02*
X13133571Y-12205952D01*
X13124048Y-12215476D01*
X13114524Y-12205952D01*
X13124048Y-12196428D01*
X13124048Y-12215476D01*
X13124048Y-12091667D02*
X13133571Y-12101190D01*
X13124048Y-12110714D01*
X13114524Y-12101190D01*
X13124048Y-12091667D01*
X13124048Y-12110714D01*
D12*
X11430000Y-12512500D02*
X11495000Y-12577500D01*
X11495000Y-12512500D02*
X11430000Y-12577500D01*
D11*
X11790714Y-12435476D02*
X11809762Y-12435476D01*
X11828809Y-12445000D01*
X11838333Y-12454524D01*
X11847857Y-12473571D01*
X11857381Y-12511667D01*
X11857381Y-12559286D01*
X11847857Y-12597381D01*
X11838333Y-12616428D01*
X11828809Y-12625952D01*
X11809762Y-12635476D01*
X11790714Y-12635476D01*
X11771667Y-12625952D01*
X11762143Y-12616428D01*
X11752619Y-12597381D01*
X11743095Y-12559286D01*
X11743095Y-12511667D01*
X11752619Y-12473571D01*
X11762143Y-12454524D01*
X11771667Y-12445000D01*
X11790714Y-12435476D01*
X11943095Y-12616428D02*
X11952619Y-12625952D01*
X11943095Y-12635476D01*
X11933571Y-12625952D01*
X11943095Y-12616428D01*
X11943095Y-12635476D01*
X12124048Y-12435476D02*
X12085952Y-12435476D01*
X12066905Y-12445000D01*
X12057381Y-12454524D01*
X12038333Y-12483095D01*
X12028809Y-12521190D01*
X12028809Y-12597381D01*
X12038333Y-12616428D01*
X12047857Y-12625952D01*
X12066905Y-12635476D01*
X12105000Y-12635476D01*
X12124048Y-12625952D01*
X12133571Y-12616428D01*
X12143095Y-12597381D01*
X12143095Y-12549762D01*
X12133571Y-12530714D01*
X12124048Y-12521190D01*
X12105000Y-12511667D01*
X12066905Y-12511667D01*
X12047857Y-12521190D01*
X12038333Y-12530714D01*
X12028809Y-12549762D01*
X12324048Y-12435476D02*
X12228809Y-12435476D01*
X12219286Y-12530714D01*
X12228809Y-12521190D01*
X12247857Y-12511667D01*
X12295476Y-12511667D01*
X12314524Y-12521190D01*
X12324048Y-12530714D01*
X12333571Y-12549762D01*
X12333571Y-12597381D01*
X12324048Y-12616428D01*
X12314524Y-12625952D01*
X12295476Y-12635476D01*
X12247857Y-12635476D01*
X12228809Y-12625952D01*
X12219286Y-12616428D01*
X12457381Y-12435476D02*
X12476428Y-12435476D01*
X12495476Y-12445000D01*
X12505000Y-12454524D01*
X12514524Y-12473571D01*
X12524048Y-12511667D01*
X12524048Y-12559286D01*
X12514524Y-12597381D01*
X12505000Y-12616428D01*
X12495476Y-12625952D01*
X12476428Y-12635476D01*
X12457381Y-12635476D01*
X12438333Y-12625952D01*
X12428809Y-12616428D01*
X12419286Y-12597381D01*
X12409762Y-12559286D01*
X12409762Y-12511667D01*
X12419286Y-12473571D01*
X12428809Y-12454524D01*
X12438333Y-12445000D01*
X12457381Y-12435476D01*
X12609762Y-12635476D02*
X12609762Y-12502143D01*
X12609762Y-12521190D02*
X12619286Y-12511667D01*
X12638333Y-12502143D01*
X12666905Y-12502143D01*
X12685952Y-12511667D01*
X12695476Y-12530714D01*
X12695476Y-12635476D01*
X12695476Y-12530714D02*
X12705000Y-12511667D01*
X12724048Y-12502143D01*
X12752619Y-12502143D01*
X12771667Y-12511667D01*
X12781190Y-12530714D01*
X12781190Y-12635476D01*
X12876428Y-12635476D02*
X12876428Y-12502143D01*
X12876428Y-12521190D02*
X12885952Y-12511667D01*
X12905000Y-12502143D01*
X12933571Y-12502143D01*
X12952619Y-12511667D01*
X12962143Y-12530714D01*
X12962143Y-12635476D01*
X12962143Y-12530714D02*
X12971667Y-12511667D01*
X12990714Y-12502143D01*
X13019286Y-12502143D01*
X13038333Y-12511667D01*
X13047857Y-12530714D01*
X13047857Y-12635476D01*
X13438333Y-12425952D02*
X13266905Y-12683095D01*
X13695476Y-12435476D02*
X13714524Y-12435476D01*
X13733571Y-12445000D01*
X13743095Y-12454524D01*
X13752619Y-12473571D01*
X13762143Y-12511667D01*
X13762143Y-12559286D01*
X13752619Y-12597381D01*
X13743095Y-12616428D01*
X13733571Y-12625952D01*
X13714524Y-12635476D01*
X13695476Y-12635476D01*
X13676428Y-12625952D01*
X13666905Y-12616428D01*
X13657381Y-12597381D01*
X13647857Y-12559286D01*
X13647857Y-12511667D01*
X13657381Y-12473571D01*
X13666905Y-12454524D01*
X13676428Y-12445000D01*
X13695476Y-12435476D01*
X13847857Y-12616428D02*
X13857381Y-12625952D01*
X13847857Y-12635476D01*
X13838333Y-12625952D01*
X13847857Y-12616428D01*
X13847857Y-12635476D01*
X13981190Y-12435476D02*
X14000238Y-12435476D01*
X14019286Y-12445000D01*
X14028809Y-12454524D01*
X14038333Y-12473571D01*
X14047857Y-12511667D01*
X14047857Y-12559286D01*
X14038333Y-12597381D01*
X14028809Y-12616428D01*
X14019286Y-12625952D01*
X14000238Y-12635476D01*
X13981190Y-12635476D01*
X13962143Y-12625952D01*
X13952619Y-12616428D01*
X13943095Y-12597381D01*
X13933571Y-12559286D01*
X13933571Y-12511667D01*
X13943095Y-12473571D01*
X13952619Y-12454524D01*
X13962143Y-12445000D01*
X13981190Y-12435476D01*
X14124048Y-12454524D02*
X14133571Y-12445000D01*
X14152619Y-12435476D01*
X14200238Y-12435476D01*
X14219286Y-12445000D01*
X14228809Y-12454524D01*
X14238333Y-12473571D01*
X14238333Y-12492619D01*
X14228809Y-12521190D01*
X14114524Y-12635476D01*
X14238333Y-12635476D01*
X14419286Y-12435476D02*
X14324048Y-12435476D01*
X14314524Y-12530714D01*
X14324048Y-12521190D01*
X14343095Y-12511667D01*
X14390714Y-12511667D01*
X14409762Y-12521190D01*
X14419286Y-12530714D01*
X14428809Y-12549762D01*
X14428809Y-12597381D01*
X14419286Y-12616428D01*
X14409762Y-12625952D01*
X14390714Y-12635476D01*
X14343095Y-12635476D01*
X14324048Y-12625952D01*
X14314524Y-12616428D01*
X14600238Y-12435476D02*
X14562143Y-12435476D01*
X14543095Y-12445000D01*
X14533571Y-12454524D01*
X14514524Y-12483095D01*
X14505000Y-12521190D01*
X14505000Y-12597381D01*
X14514524Y-12616428D01*
X14524048Y-12625952D01*
X14543095Y-12635476D01*
X14581190Y-12635476D01*
X14600238Y-12625952D01*
X14609762Y-12616428D01*
X14619286Y-12597381D01*
X14619286Y-12549762D01*
X14609762Y-12530714D01*
X14600238Y-12521190D01*
X14581190Y-12511667D01*
X14543095Y-12511667D01*
X14524048Y-12521190D01*
X14514524Y-12530714D01*
X14505000Y-12549762D01*
X14695476Y-12435476D02*
X14695476Y-12473571D01*
X14771667Y-12435476D02*
X14771667Y-12473571D01*
X15066905Y-12711667D02*
X15057381Y-12702143D01*
X15038333Y-12673571D01*
X15028809Y-12654524D01*
X15019286Y-12625952D01*
X15009762Y-12578333D01*
X15009762Y-12540238D01*
X15019286Y-12492619D01*
X15028809Y-12464048D01*
X15038333Y-12445000D01*
X15057381Y-12416428D01*
X15066905Y-12406905D01*
X15133571Y-12454524D02*
X15143095Y-12445000D01*
X15162143Y-12435476D01*
X15209762Y-12435476D01*
X15228809Y-12445000D01*
X15238333Y-12454524D01*
X15247857Y-12473571D01*
X15247857Y-12492619D01*
X15238333Y-12521190D01*
X15124048Y-12635476D01*
X15247857Y-12635476D01*
X15485952Y-12635476D02*
X15485952Y-12435476D01*
X15571667Y-12635476D02*
X15571667Y-12530714D01*
X15562143Y-12511667D01*
X15543095Y-12502143D01*
X15514524Y-12502143D01*
X15495476Y-12511667D01*
X15485952Y-12521190D01*
X15695476Y-12635476D02*
X15676428Y-12625952D01*
X15666905Y-12616428D01*
X15657381Y-12597381D01*
X15657381Y-12540238D01*
X15666905Y-12521190D01*
X15676428Y-12511667D01*
X15695476Y-12502143D01*
X15724048Y-12502143D01*
X15743095Y-12511667D01*
X15752619Y-12521190D01*
X15762143Y-12540238D01*
X15762143Y-12597381D01*
X15752619Y-12616428D01*
X15743095Y-12625952D01*
X15724048Y-12635476D01*
X15695476Y-12635476D01*
X15876428Y-12635476D02*
X15857381Y-12625952D01*
X15847857Y-12606905D01*
X15847857Y-12435476D01*
X16028809Y-12625952D02*
X16009762Y-12635476D01*
X15971667Y-12635476D01*
X15952619Y-12625952D01*
X15943095Y-12606905D01*
X15943095Y-12530714D01*
X15952619Y-12511667D01*
X15971667Y-12502143D01*
X16009762Y-12502143D01*
X16028809Y-12511667D01*
X16038333Y-12530714D01*
X16038333Y-12549762D01*
X15943095Y-12568809D01*
X16114524Y-12625952D02*
X16133571Y-12635476D01*
X16171667Y-12635476D01*
X16190714Y-12625952D01*
X16200238Y-12606905D01*
X16200238Y-12597381D01*
X16190714Y-12578333D01*
X16171667Y-12568809D01*
X16143095Y-12568809D01*
X16124048Y-12559286D01*
X16114524Y-12540238D01*
X16114524Y-12530714D01*
X16124048Y-12511667D01*
X16143095Y-12502143D01*
X16171667Y-12502143D01*
X16190714Y-12511667D01*
X16266905Y-12711667D02*
X16276428Y-12702143D01*
X16295476Y-12673571D01*
X16305000Y-12654524D01*
X16314524Y-12625952D01*
X16324048Y-12578333D01*
X16324048Y-12540238D01*
X16314524Y-12492619D01*
X16305000Y-12464048D01*
X16295476Y-12445000D01*
X16276428Y-12416428D01*
X16266905Y-12406905D01*
X16628809Y-12711667D02*
X16619286Y-12702143D01*
X16600238Y-12673571D01*
X16590714Y-12654524D01*
X16581190Y-12625952D01*
X16571667Y-12578333D01*
X16571667Y-12540238D01*
X16581190Y-12492619D01*
X16590714Y-12464048D01*
X16600238Y-12445000D01*
X16619286Y-12416428D01*
X16628809Y-12406905D01*
X16705000Y-12502143D02*
X16705000Y-12635476D01*
X16705000Y-12521190D02*
X16714524Y-12511667D01*
X16733571Y-12502143D01*
X16762143Y-12502143D01*
X16781190Y-12511667D01*
X16790714Y-12530714D01*
X16790714Y-12635476D01*
X16914524Y-12635476D02*
X16895476Y-12625952D01*
X16885952Y-12616428D01*
X16876429Y-12597381D01*
X16876429Y-12540238D01*
X16885952Y-12521190D01*
X16895476Y-12511667D01*
X16914524Y-12502143D01*
X16943095Y-12502143D01*
X16962143Y-12511667D01*
X16971667Y-12521190D01*
X16981190Y-12540238D01*
X16981190Y-12597381D01*
X16971667Y-12616428D01*
X16962143Y-12625952D01*
X16943095Y-12635476D01*
X16914524Y-12635476D01*
X17038333Y-12502143D02*
X17114524Y-12502143D01*
X17066905Y-12435476D02*
X17066905Y-12606905D01*
X17076429Y-12625952D01*
X17095476Y-12635476D01*
X17114524Y-12635476D01*
X17333571Y-12502143D02*
X17333571Y-12702143D01*
X17333571Y-12511667D02*
X17352619Y-12502143D01*
X17390714Y-12502143D01*
X17409762Y-12511667D01*
X17419286Y-12521190D01*
X17428810Y-12540238D01*
X17428810Y-12597381D01*
X17419286Y-12616428D01*
X17409762Y-12625952D01*
X17390714Y-12635476D01*
X17352619Y-12635476D01*
X17333571Y-12625952D01*
X17543095Y-12635476D02*
X17524048Y-12625952D01*
X17514524Y-12606905D01*
X17514524Y-12435476D01*
X17705000Y-12635476D02*
X17705000Y-12530714D01*
X17695476Y-12511667D01*
X17676429Y-12502143D01*
X17638333Y-12502143D01*
X17619286Y-12511667D01*
X17705000Y-12625952D02*
X17685952Y-12635476D01*
X17638333Y-12635476D01*
X17619286Y-12625952D01*
X17609762Y-12606905D01*
X17609762Y-12587857D01*
X17619286Y-12568809D01*
X17638333Y-12559286D01*
X17685952Y-12559286D01*
X17705000Y-12549762D01*
X17771667Y-12502143D02*
X17847857Y-12502143D01*
X17800238Y-12435476D02*
X17800238Y-12606905D01*
X17809762Y-12625952D01*
X17828810Y-12635476D01*
X17847857Y-12635476D01*
X17990714Y-12625952D02*
X17971667Y-12635476D01*
X17933571Y-12635476D01*
X17914524Y-12625952D01*
X17905000Y-12606905D01*
X17905000Y-12530714D01*
X17914524Y-12511667D01*
X17933571Y-12502143D01*
X17971667Y-12502143D01*
X17990714Y-12511667D01*
X18000238Y-12530714D01*
X18000238Y-12549762D01*
X17905000Y-12568809D01*
X18171667Y-12635476D02*
X18171667Y-12435476D01*
X18171667Y-12625952D02*
X18152619Y-12635476D01*
X18114524Y-12635476D01*
X18095476Y-12625952D01*
X18085952Y-12616428D01*
X18076429Y-12597381D01*
X18076429Y-12540238D01*
X18085952Y-12521190D01*
X18095476Y-12511667D01*
X18114524Y-12502143D01*
X18152619Y-12502143D01*
X18171667Y-12511667D01*
X18247857Y-12711667D02*
X18257381Y-12702143D01*
X18276429Y-12673571D01*
X18285952Y-12654524D01*
X18295476Y-12625952D01*
X18305000Y-12578333D01*
X18305000Y-12540238D01*
X18295476Y-12492619D01*
X18285952Y-12464048D01*
X18276429Y-12445000D01*
X18257381Y-12416428D01*
X18247857Y-12406905D01*
X11495000Y-12809000D02*
G75*
G03*
X11495000Y-12809000I-100000J0D01*
G01*
X11743095Y-12718524D02*
X11752619Y-12709000D01*
X11771667Y-12699476D01*
X11819286Y-12699476D01*
X11838333Y-12709000D01*
X11847857Y-12718524D01*
X11857381Y-12737571D01*
X11857381Y-12756619D01*
X11847857Y-12785190D01*
X11733571Y-12899476D01*
X11857381Y-12899476D01*
X11943095Y-12880428D02*
X11952619Y-12889952D01*
X11943095Y-12899476D01*
X11933571Y-12889952D01*
X11943095Y-12880428D01*
X11943095Y-12899476D01*
X12143095Y-12899476D02*
X12028809Y-12899476D01*
X12085952Y-12899476D02*
X12085952Y-12699476D01*
X12066905Y-12728048D01*
X12047857Y-12747095D01*
X12028809Y-12756619D01*
X12266905Y-12699476D02*
X12285952Y-12699476D01*
X12305000Y-12709000D01*
X12314524Y-12718524D01*
X12324048Y-12737571D01*
X12333571Y-12775667D01*
X12333571Y-12823286D01*
X12324048Y-12861381D01*
X12314524Y-12880428D01*
X12305000Y-12889952D01*
X12285952Y-12899476D01*
X12266905Y-12899476D01*
X12247857Y-12889952D01*
X12238333Y-12880428D01*
X12228809Y-12861381D01*
X12219286Y-12823286D01*
X12219286Y-12775667D01*
X12228809Y-12737571D01*
X12238333Y-12718524D01*
X12247857Y-12709000D01*
X12266905Y-12699476D01*
X12457381Y-12699476D02*
X12476428Y-12699476D01*
X12495476Y-12709000D01*
X12505000Y-12718524D01*
X12514524Y-12737571D01*
X12524048Y-12775667D01*
X12524048Y-12823286D01*
X12514524Y-12861381D01*
X12505000Y-12880428D01*
X12495476Y-12889952D01*
X12476428Y-12899476D01*
X12457381Y-12899476D01*
X12438333Y-12889952D01*
X12428809Y-12880428D01*
X12419286Y-12861381D01*
X12409762Y-12823286D01*
X12409762Y-12775667D01*
X12419286Y-12737571D01*
X12428809Y-12718524D01*
X12438333Y-12709000D01*
X12457381Y-12699476D01*
X12609762Y-12899476D02*
X12609762Y-12766143D01*
X12609762Y-12785190D02*
X12619286Y-12775667D01*
X12638333Y-12766143D01*
X12666905Y-12766143D01*
X12685952Y-12775667D01*
X12695476Y-12794714D01*
X12695476Y-12899476D01*
X12695476Y-12794714D02*
X12705000Y-12775667D01*
X12724048Y-12766143D01*
X12752619Y-12766143D01*
X12771667Y-12775667D01*
X12781190Y-12794714D01*
X12781190Y-12899476D01*
X12876428Y-12899476D02*
X12876428Y-12766143D01*
X12876428Y-12785190D02*
X12885952Y-12775667D01*
X12905000Y-12766143D01*
X12933571Y-12766143D01*
X12952619Y-12775667D01*
X12962143Y-12794714D01*
X12962143Y-12899476D01*
X12962143Y-12794714D02*
X12971667Y-12775667D01*
X12990714Y-12766143D01*
X13019286Y-12766143D01*
X13038333Y-12775667D01*
X13047857Y-12794714D01*
X13047857Y-12899476D01*
X13438333Y-12689952D02*
X13266905Y-12947095D01*
X13695476Y-12699476D02*
X13714524Y-12699476D01*
X13733571Y-12709000D01*
X13743095Y-12718524D01*
X13752619Y-12737571D01*
X13762143Y-12775667D01*
X13762143Y-12823286D01*
X13752619Y-12861381D01*
X13743095Y-12880428D01*
X13733571Y-12889952D01*
X13714524Y-12899476D01*
X13695476Y-12899476D01*
X13676428Y-12889952D01*
X13666905Y-12880428D01*
X13657381Y-12861381D01*
X13647857Y-12823286D01*
X13647857Y-12775667D01*
X13657381Y-12737571D01*
X13666905Y-12718524D01*
X13676428Y-12709000D01*
X13695476Y-12699476D01*
X13847857Y-12880428D02*
X13857381Y-12889952D01*
X13847857Y-12899476D01*
X13838333Y-12889952D01*
X13847857Y-12880428D01*
X13847857Y-12899476D01*
X13981190Y-12699476D02*
X14000238Y-12699476D01*
X14019286Y-12709000D01*
X14028809Y-12718524D01*
X14038333Y-12737571D01*
X14047857Y-12775667D01*
X14047857Y-12823286D01*
X14038333Y-12861381D01*
X14028809Y-12880428D01*
X14019286Y-12889952D01*
X14000238Y-12899476D01*
X13981190Y-12899476D01*
X13962143Y-12889952D01*
X13952619Y-12880428D01*
X13943095Y-12861381D01*
X13933571Y-12823286D01*
X13933571Y-12775667D01*
X13943095Y-12737571D01*
X13952619Y-12718524D01*
X13962143Y-12709000D01*
X13981190Y-12699476D01*
X14162143Y-12785190D02*
X14143095Y-12775667D01*
X14133571Y-12766143D01*
X14124048Y-12747095D01*
X14124048Y-12737571D01*
X14133571Y-12718524D01*
X14143095Y-12709000D01*
X14162143Y-12699476D01*
X14200238Y-12699476D01*
X14219286Y-12709000D01*
X14228809Y-12718524D01*
X14238333Y-12737571D01*
X14238333Y-12747095D01*
X14228809Y-12766143D01*
X14219286Y-12775667D01*
X14200238Y-12785190D01*
X14162143Y-12785190D01*
X14143095Y-12794714D01*
X14133571Y-12804238D01*
X14124048Y-12823286D01*
X14124048Y-12861381D01*
X14133571Y-12880428D01*
X14143095Y-12889952D01*
X14162143Y-12899476D01*
X14200238Y-12899476D01*
X14219286Y-12889952D01*
X14228809Y-12880428D01*
X14238333Y-12861381D01*
X14238333Y-12823286D01*
X14228809Y-12804238D01*
X14219286Y-12794714D01*
X14200238Y-12785190D01*
X14314524Y-12718524D02*
X14324048Y-12709000D01*
X14343095Y-12699476D01*
X14390714Y-12699476D01*
X14409762Y-12709000D01*
X14419286Y-12718524D01*
X14428809Y-12737571D01*
X14428809Y-12756619D01*
X14419286Y-12785190D01*
X14305000Y-12899476D01*
X14428809Y-12899476D01*
X14495476Y-12699476D02*
X14628809Y-12699476D01*
X14543095Y-12899476D01*
X14695476Y-12699476D02*
X14695476Y-12737571D01*
X14771667Y-12699476D02*
X14771667Y-12737571D01*
X15066905Y-12975667D02*
X15057381Y-12966143D01*
X15038333Y-12937571D01*
X15028809Y-12918524D01*
X15019286Y-12889952D01*
X15009762Y-12842333D01*
X15009762Y-12804238D01*
X15019286Y-12756619D01*
X15028809Y-12728048D01*
X15038333Y-12709000D01*
X15057381Y-12680428D01*
X15066905Y-12670905D01*
X15228809Y-12766143D02*
X15228809Y-12899476D01*
X15181190Y-12689952D02*
X15133571Y-12832809D01*
X15257381Y-12832809D01*
X15485952Y-12899476D02*
X15485952Y-12699476D01*
X15571667Y-12899476D02*
X15571667Y-12794714D01*
X15562143Y-12775667D01*
X15543095Y-12766143D01*
X15514524Y-12766143D01*
X15495476Y-12775667D01*
X15485952Y-12785190D01*
X15695476Y-12899476D02*
X15676428Y-12889952D01*
X15666905Y-12880428D01*
X15657381Y-12861381D01*
X15657381Y-12804238D01*
X15666905Y-12785190D01*
X15676428Y-12775667D01*
X15695476Y-12766143D01*
X15724048Y-12766143D01*
X15743095Y-12775667D01*
X15752619Y-12785190D01*
X15762143Y-12804238D01*
X15762143Y-12861381D01*
X15752619Y-12880428D01*
X15743095Y-12889952D01*
X15724048Y-12899476D01*
X15695476Y-12899476D01*
X15876428Y-12899476D02*
X15857381Y-12889952D01*
X15847857Y-12870905D01*
X15847857Y-12699476D01*
X16028809Y-12889952D02*
X16009762Y-12899476D01*
X15971667Y-12899476D01*
X15952619Y-12889952D01*
X15943095Y-12870905D01*
X15943095Y-12794714D01*
X15952619Y-12775667D01*
X15971667Y-12766143D01*
X16009762Y-12766143D01*
X16028809Y-12775667D01*
X16038333Y-12794714D01*
X16038333Y-12813762D01*
X15943095Y-12832809D01*
X16114524Y-12889952D02*
X16133571Y-12899476D01*
X16171667Y-12899476D01*
X16190714Y-12889952D01*
X16200238Y-12870905D01*
X16200238Y-12861381D01*
X16190714Y-12842333D01*
X16171667Y-12832809D01*
X16143095Y-12832809D01*
X16124048Y-12823286D01*
X16114524Y-12804238D01*
X16114524Y-12794714D01*
X16124048Y-12775667D01*
X16143095Y-12766143D01*
X16171667Y-12766143D01*
X16190714Y-12775667D01*
X16266905Y-12975667D02*
X16276428Y-12966143D01*
X16295476Y-12937571D01*
X16305000Y-12918524D01*
X16314524Y-12889952D01*
X16324048Y-12842333D01*
X16324048Y-12804238D01*
X16314524Y-12756619D01*
X16305000Y-12728048D01*
X16295476Y-12709000D01*
X16276428Y-12680428D01*
X16266905Y-12670905D01*
X16628809Y-12975667D02*
X16619286Y-12966143D01*
X16600238Y-12937571D01*
X16590714Y-12918524D01*
X16581190Y-12889952D01*
X16571667Y-12842333D01*
X16571667Y-12804238D01*
X16581190Y-12756619D01*
X16590714Y-12728048D01*
X16600238Y-12709000D01*
X16619286Y-12680428D01*
X16628809Y-12670905D01*
X16705000Y-12766143D02*
X16705000Y-12899476D01*
X16705000Y-12785190D02*
X16714524Y-12775667D01*
X16733571Y-12766143D01*
X16762143Y-12766143D01*
X16781190Y-12775667D01*
X16790714Y-12794714D01*
X16790714Y-12899476D01*
X16914524Y-12899476D02*
X16895476Y-12889952D01*
X16885952Y-12880428D01*
X16876429Y-12861381D01*
X16876429Y-12804238D01*
X16885952Y-12785190D01*
X16895476Y-12775667D01*
X16914524Y-12766143D01*
X16943095Y-12766143D01*
X16962143Y-12775667D01*
X16971667Y-12785190D01*
X16981190Y-12804238D01*
X16981190Y-12861381D01*
X16971667Y-12880428D01*
X16962143Y-12889952D01*
X16943095Y-12899476D01*
X16914524Y-12899476D01*
X17038333Y-12766143D02*
X17114524Y-12766143D01*
X17066905Y-12699476D02*
X17066905Y-12870905D01*
X17076429Y-12889952D01*
X17095476Y-12899476D01*
X17114524Y-12899476D01*
X17333571Y-12766143D02*
X17333571Y-12966143D01*
X17333571Y-12775667D02*
X17352619Y-12766143D01*
X17390714Y-12766143D01*
X17409762Y-12775667D01*
X17419286Y-12785190D01*
X17428810Y-12804238D01*
X17428810Y-12861381D01*
X17419286Y-12880428D01*
X17409762Y-12889952D01*
X17390714Y-12899476D01*
X17352619Y-12899476D01*
X17333571Y-12889952D01*
X17543095Y-12899476D02*
X17524048Y-12889952D01*
X17514524Y-12870905D01*
X17514524Y-12699476D01*
X17705000Y-12899476D02*
X17705000Y-12794714D01*
X17695476Y-12775667D01*
X17676429Y-12766143D01*
X17638333Y-12766143D01*
X17619286Y-12775667D01*
X17705000Y-12889952D02*
X17685952Y-12899476D01*
X17638333Y-12899476D01*
X17619286Y-12889952D01*
X17609762Y-12870905D01*
X17609762Y-12851857D01*
X17619286Y-12832809D01*
X17638333Y-12823286D01*
X17685952Y-12823286D01*
X17705000Y-12813762D01*
X17771667Y-12766143D02*
X17847857Y-12766143D01*
X17800238Y-12699476D02*
X17800238Y-12870905D01*
X17809762Y-12889952D01*
X17828810Y-12899476D01*
X17847857Y-12899476D01*
X17990714Y-12889952D02*
X17971667Y-12899476D01*
X17933571Y-12899476D01*
X17914524Y-12889952D01*
X17905000Y-12870905D01*
X17905000Y-12794714D01*
X17914524Y-12775667D01*
X17933571Y-12766143D01*
X17971667Y-12766143D01*
X17990714Y-12775667D01*
X18000238Y-12794714D01*
X18000238Y-12813762D01*
X17905000Y-12832809D01*
X18171667Y-12899476D02*
X18171667Y-12699476D01*
X18171667Y-12889952D02*
X18152619Y-12899476D01*
X18114524Y-12899476D01*
X18095476Y-12889952D01*
X18085952Y-12880428D01*
X18076429Y-12861381D01*
X18076429Y-12804238D01*
X18085952Y-12785190D01*
X18095476Y-12775667D01*
X18114524Y-12766143D01*
X18152619Y-12766143D01*
X18171667Y-12775667D01*
X18247857Y-12975667D02*
X18257381Y-12966143D01*
X18276429Y-12937571D01*
X18285952Y-12918524D01*
X18295476Y-12889952D01*
X18305000Y-12842333D01*
X18305000Y-12804238D01*
X18295476Y-12756619D01*
X18285952Y-12728048D01*
X18276429Y-12709000D01*
X18257381Y-12680428D01*
X18247857Y-12670905D01*
M02*
