M48
; DRILL file {KiCad 6.0.0-rc1-unknown-rc1+486+g97c2627de6} date Wed 22 Dec 2021 10:09:19 PM PST
; FORMAT={-:-/ absolute / metric / decimal}
; #@! TF.CreationDate,2021-12-22T22:09:19-08:00
; #@! TF.GenerationSoftware,Kicad,Pcbnew,6.0.0-rc1-unknown-rc1+486+g97c2627de6
; #@! TF.FileFunction,Plated,1,4,PTH
FMAT,2
METRIC
; #@! TA.AperFunction,Plated,PTH,ViaDrill
T1C0.250
; #@! TA.AperFunction,Plated,PTH,ViaDrill
T2C0.300
; #@! TA.AperFunction,Plated,PTH,ViaDrill
T3C0.400
; #@! TA.AperFunction,Plated,PTH,ComponentDrill
T4C0.600
; #@! TA.AperFunction,Plated,PTH,ComponentDrill
T5C0.700
; #@! TA.AperFunction,Plated,PTH,ComponentDrill
T6C0.800
; #@! TA.AperFunction,Plated,PTH,ComponentDrill
T7C0.900
; #@! TA.AperFunction,Plated,PTH,ComponentDrill
T8C1.000
%
G90
G05
T1
X133.5Y-93.0
X137.75Y-92.52
X137.75Y-93.5
T2
X123.5Y-91.5
X125.75Y-111.25
X127.25Y-90.5
X128.0Y-100.0
X128.0Y-102.5
X128.0Y-106.25
X128.5Y-105.5
X129.25Y-96.25
X129.25Y-97.25
X129.25Y-98.25
X129.475Y-102.5
X129.975Y-106.25
X131.0Y-89.0
X131.0Y-90.0
X131.0Y-91.0
X131.024Y-100.0
X131.75Y-87.0
X132.0Y-65.25
X132.25Y-92.0
X133.25Y-91.5
X133.374Y-62.75
X133.5Y-95.0
X133.5Y-98.5
X134.0Y-65.25
X134.5Y-64.0
X134.5Y-98.5
X134.925Y-89.524
X135.5Y-98.5
X135.519Y-91.02
X135.545Y-94.5
X135.75Y-93.5
X135.944Y-95.5
X136.0Y-60.25
X136.143Y-92.413
X136.5Y-89.0
X136.5Y-98.5
X136.621Y-91.129
X136.701Y-94.75
X137.0Y-64.5
X137.024Y-96.652
X137.5Y-98.5
X137.528Y-87.972
X137.75Y-95.5
X138.0Y-64.475
X138.0Y-66.5
X138.0Y-89.0
X138.043Y-91.207
X138.397Y-94.75
X138.5Y-98.5
X139.0Y-60.25
X139.0Y-66.5
X139.0Y-91.25
X139.042Y-93.548
X139.25Y-92.101
X139.452Y-94.958
X139.5Y-64.5
X139.524Y-98.0
X139.759Y-62.505
X140.0Y-67.75
X140.0Y-88.0
X140.651Y-66.547
X141.0Y-88.0
X141.25Y-92.5
X141.25Y-93.5
X141.75Y-65.5
X142.0Y-62.75
X142.0Y-64.0
X142.25Y-92.5
X142.25Y-93.5
X142.75Y-64.75
X142.75Y-91.0
X144.25Y-90.5
X144.25Y-93.5
X144.27Y-92.5
X144.5Y-66.275
X144.5Y-67.25
X145.0Y-85.75
X145.0Y-94.0
X145.25Y-90.5
X145.5Y-67.25
X145.75Y-103.0
X145.75Y-104.0
X145.75Y-106.25
X145.75Y-107.25
X146.25Y-94.75
X146.25Y-95.75
X146.75Y-70.5
X147.25Y-104.5
X147.25Y-111.0
X148.0Y-107.5
X148.75Y-105.25
X148.75Y-108.75
X150.5Y-104.5
X154.25Y-105.5
X154.25Y-106.5
X154.25Y-107.5
X154.25Y-110.5
X155.25Y-109.274
T3
X120.853Y-78.948
X121.334Y-79.767
X149.0Y-115.5
X152.5Y-115.5
T5
X132.15Y-100.635
X132.15Y-102.415
X132.15Y-104.195
X132.15Y-105.975
X132.15Y-107.755
X132.15Y-109.535
X132.15Y-111.315
X132.15Y-113.095
X142.85Y-101.525
X142.85Y-103.305
X142.85Y-105.085
X142.85Y-106.865
X142.85Y-108.645
X142.85Y-110.425
X142.85Y-112.205
X142.85Y-113.985
T6
X157.75Y-100.5
X157.75Y-102.5
X157.75Y-104.5
X157.75Y-106.5
X157.75Y-108.5
X157.75Y-110.5
T8
X119.0Y-72.92
X119.0Y-78.0
X119.0Y-83.08
X129.0Y-75.5
X129.0Y-78.0
X129.0Y-80.5
X149.0Y-74.92
X149.0Y-80.0
X149.0Y-85.08
X156.0Y-72.92
X156.0Y-78.0
X156.0Y-83.08
T4
G00X133.18Y-57.4
M15
G01X133.18Y-56.6
M16
G05
G00X133.18Y-61.73
M15
G01X133.18Y-60.63
M16
G05
G00X141.82Y-57.4
M15
G01X141.82Y-56.6
M16
G05
G00X141.82Y-61.73
M15
G01X141.82Y-60.63
M16
G05
T7
G00X127.55Y-72.9
M15
G01X126.45Y-72.9
M16
G05
G00X127.55Y-83.1
M15
G01X126.45Y-83.1
M16
G05
T0
M30
