%TF.GenerationSoftware,KiCad,Pcbnew,6.0.0*%
%TF.CreationDate,2022-01-13T14:08:01-08:00*%
%TF.ProjectId,redshift,72656473-6869-4667-942e-6b696361645f,0.1*%
%TF.SameCoordinates,Original*%
%TF.FileFunction,Legend,Bot*%
%TF.FilePolarity,Positive*%
%FSLAX46Y46*%
G04 Gerber Fmt 4.6, Leading zero omitted, Abs format (unit mm)*
G04 Created by KiCad (PCBNEW 6.0.0) date 2022-01-13 14:08:01*
%MOMM*%
%LPD*%
G01*
G04 APERTURE LIST*
%ADD10C,0.069999*%
%ADD11C,0.120000*%
%ADD12C,0.150000*%
G04 APERTURE END LIST*
D10*
X120647331Y-114628405D02*
X120647366Y-114626993D01*
X120647366Y-114626993D02*
X120647471Y-114625586D01*
X120647471Y-114625586D02*
X120647643Y-114624185D01*
X120647643Y-114624185D02*
X120647881Y-114622793D01*
X120647881Y-114622793D02*
X120648184Y-114621412D01*
X120648184Y-114621412D02*
X120648548Y-114620044D01*
X120648548Y-114620044D02*
X120648974Y-114618691D01*
X120648974Y-114618691D02*
X120649459Y-114617355D01*
X120649459Y-114617355D02*
X120650000Y-114616038D01*
X120650000Y-114616038D02*
X120650598Y-114614743D01*
X120650598Y-114614743D02*
X120651953Y-114612225D01*
X120651953Y-114612225D02*
X120653509Y-114609817D01*
X120653509Y-114609817D02*
X120655253Y-114607538D01*
X120655253Y-114607538D02*
X120657172Y-114605402D01*
X120657172Y-114605402D02*
X120659250Y-114603429D01*
X120659250Y-114603429D02*
X120661475Y-114601633D01*
X120661475Y-114601633D02*
X120662639Y-114600808D01*
X120662639Y-114600808D02*
X120663833Y-114600033D01*
X120663833Y-114600033D02*
X120665058Y-114599312D01*
X120665058Y-114599312D02*
X120666310Y-114598645D01*
X120666310Y-114598645D02*
X120667589Y-114598036D01*
X120667589Y-114598036D02*
X120668892Y-114597486D01*
X120668892Y-114597486D02*
X120670218Y-114596997D01*
X120670218Y-114596997D02*
X120671565Y-114596572D01*
X120671565Y-114596572D02*
X120672932Y-114596213D01*
X120672932Y-114596213D02*
X120674316Y-114595921D01*
X120674316Y-114595921D02*
X121304169Y-114478719D01*
X121304169Y-114478719D02*
X121306965Y-114478064D01*
X121306965Y-114478064D02*
X121309769Y-114477164D01*
X121309769Y-114477164D02*
X121312564Y-114476035D01*
X121312564Y-114476035D02*
X121315331Y-114474692D01*
X121315331Y-114474692D02*
X121318052Y-114473151D01*
X121318052Y-114473151D02*
X121320709Y-114471429D01*
X121320709Y-114471429D02*
X121323284Y-114469539D01*
X121323284Y-114469539D02*
X121325759Y-114467499D01*
X121325759Y-114467499D02*
X121328115Y-114465323D01*
X121328115Y-114465323D02*
X121330335Y-114463027D01*
X121330335Y-114463027D02*
X121332399Y-114460627D01*
X121332399Y-114460627D02*
X121334291Y-114458138D01*
X121334291Y-114458138D02*
X121335991Y-114455577D01*
X121335991Y-114455577D02*
X121337483Y-114452958D01*
X121337483Y-114452958D02*
X121338746Y-114450297D01*
X121338746Y-114450297D02*
X121339764Y-114447610D01*
X121339764Y-114447610D02*
X121512601Y-114025465D01*
X121512601Y-114025465D02*
X121513756Y-114022836D01*
X121513756Y-114022836D02*
X121514720Y-114020049D01*
X121514720Y-114020049D02*
X121515496Y-114017128D01*
X121515496Y-114017128D02*
X121516086Y-114014098D01*
X121516086Y-114014098D02*
X121516490Y-114010983D01*
X121516490Y-114010983D02*
X121516711Y-114007808D01*
X121516711Y-114007808D02*
X121516751Y-114004598D01*
X121516751Y-114004598D02*
X121516610Y-114001377D01*
X121516610Y-114001377D02*
X121516291Y-113998169D01*
X121516291Y-113998169D02*
X121515795Y-113994999D01*
X121515795Y-113994999D02*
X121515124Y-113991892D01*
X121515124Y-113991892D02*
X121514280Y-113988872D01*
X121514280Y-113988872D02*
X121513263Y-113985963D01*
X121513263Y-113985963D02*
X121512077Y-113983190D01*
X121512077Y-113983190D02*
X121510722Y-113980578D01*
X121510722Y-113980578D02*
X121509201Y-113978150D01*
X121509201Y-113978150D02*
X121148117Y-113451971D01*
X121148117Y-113451971D02*
X121147345Y-113450782D01*
X121147345Y-113450782D02*
X121146633Y-113449558D01*
X121146633Y-113449558D02*
X121145981Y-113448301D01*
X121145981Y-113448301D02*
X121145389Y-113447015D01*
X121145389Y-113447015D02*
X121144856Y-113445701D01*
X121144856Y-113445701D02*
X121144383Y-113444363D01*
X121144383Y-113444363D02*
X121143612Y-113441625D01*
X121143612Y-113441625D02*
X121143075Y-113438822D01*
X121143075Y-113438822D02*
X121142770Y-113435975D01*
X121142770Y-113435975D02*
X121142695Y-113433106D01*
X121142695Y-113433106D02*
X121142847Y-113430237D01*
X121142847Y-113430237D02*
X121143225Y-113427389D01*
X121143225Y-113427389D02*
X121143827Y-113424584D01*
X121143827Y-113424584D02*
X121144650Y-113421843D01*
X121144650Y-113421843D02*
X121145694Y-113419189D01*
X121145694Y-113419189D02*
X121146955Y-113416642D01*
X121146955Y-113416642D02*
X121147666Y-113415416D01*
X121147666Y-113415416D02*
X121148431Y-113414225D01*
X121148431Y-113414225D02*
X121149250Y-113413071D01*
X121149250Y-113413071D02*
X121150122Y-113411958D01*
X121150122Y-113411958D02*
X121151046Y-113410889D01*
X121151046Y-113410889D02*
X121152024Y-113409865D01*
X121152024Y-113409865D02*
X121595149Y-112966739D01*
X121595149Y-112966739D02*
X121596176Y-112965765D01*
X121596176Y-112965765D02*
X121597248Y-112964843D01*
X121597248Y-112964843D02*
X121598363Y-112963974D01*
X121598363Y-112963974D02*
X121599518Y-112963157D01*
X121599518Y-112963157D02*
X121600710Y-112962394D01*
X121600710Y-112962394D02*
X121601937Y-112961684D01*
X121601937Y-112961684D02*
X121603195Y-112961027D01*
X121603195Y-112961027D02*
X121604483Y-112960425D01*
X121604483Y-112960425D02*
X121605797Y-112959876D01*
X121605797Y-112959876D02*
X121607135Y-112959382D01*
X121607135Y-112959382D02*
X121609871Y-112958559D01*
X121609871Y-112958559D02*
X121612671Y-112957956D01*
X121612671Y-112957956D02*
X121615513Y-112957576D01*
X121615513Y-112957576D02*
X121618375Y-112957422D01*
X121618375Y-112957422D02*
X121621236Y-112957495D01*
X121621236Y-112957495D02*
X121624075Y-112957798D01*
X121624075Y-112957798D02*
X121625479Y-112958036D01*
X121625479Y-112958036D02*
X121626870Y-112958333D01*
X121626870Y-112958333D02*
X121628244Y-112958688D01*
X121628244Y-112958688D02*
X121629599Y-112959101D01*
X121629599Y-112959101D02*
X121630933Y-112959574D01*
X121630933Y-112959574D02*
X121632242Y-112960106D01*
X121632242Y-112960106D02*
X121633525Y-112960698D01*
X121633525Y-112960698D02*
X121634777Y-112961349D01*
X121634777Y-112961349D02*
X121635997Y-112962061D01*
X121635997Y-112962061D02*
X121637183Y-112962832D01*
X121637183Y-112962832D02*
X122154319Y-113317695D01*
X122154319Y-113317695D02*
X122156763Y-113319207D01*
X122156763Y-113319207D02*
X122159386Y-113320549D01*
X122159386Y-113320549D02*
X122162162Y-113321719D01*
X122162162Y-113321719D02*
X122165069Y-113322715D01*
X122165069Y-113322715D02*
X122168082Y-113323536D01*
X122168082Y-113323536D02*
X122171178Y-113324181D01*
X122171178Y-113324181D02*
X122174332Y-113324647D01*
X122174332Y-113324647D02*
X122177521Y-113324934D01*
X122177521Y-113324934D02*
X122180720Y-113325040D01*
X122180720Y-113325040D02*
X122183907Y-113324963D01*
X122183907Y-113324963D02*
X122187057Y-113324703D01*
X122187057Y-113324703D02*
X122190146Y-113324257D01*
X122190146Y-113324257D02*
X122193150Y-113323624D01*
X122193150Y-113323624D02*
X122196046Y-113322802D01*
X122196046Y-113322802D02*
X122198810Y-113321791D01*
X122198810Y-113321791D02*
X122201417Y-113320588D01*
X122201417Y-113320588D02*
X122636873Y-113133861D01*
X122636873Y-113133861D02*
X122638213Y-113133363D01*
X122638213Y-113133363D02*
X122639548Y-113132802D01*
X122639548Y-113132802D02*
X122642198Y-113131498D01*
X122642198Y-113131498D02*
X122644809Y-113129969D01*
X122644809Y-113129969D02*
X122647364Y-113128231D01*
X122647364Y-113128231D02*
X122649848Y-113126304D01*
X122649848Y-113126304D02*
X122652245Y-113124206D01*
X122652245Y-113124206D02*
X122654538Y-113121955D01*
X122654538Y-113121955D02*
X122656712Y-113119569D01*
X122656712Y-113119569D02*
X122658751Y-113117067D01*
X122658751Y-113117067D02*
X122660639Y-113114467D01*
X122660639Y-113114467D02*
X122662361Y-113111787D01*
X122662361Y-113111787D02*
X122663900Y-113109046D01*
X122663900Y-113109046D02*
X122665240Y-113106261D01*
X122665240Y-113106261D02*
X122666366Y-113103452D01*
X122666366Y-113103452D02*
X122666843Y-113102044D01*
X122666843Y-113102044D02*
X122667261Y-113100636D01*
X122667261Y-113100636D02*
X122667618Y-113099231D01*
X122667618Y-113099231D02*
X122667911Y-113097832D01*
X122667911Y-113097832D02*
X122781133Y-112488960D01*
X122781133Y-112488960D02*
X122781431Y-112487572D01*
X122781431Y-112487572D02*
X122781796Y-112486203D01*
X122781796Y-112486203D02*
X122782226Y-112484853D01*
X122782226Y-112484853D02*
X122782718Y-112483525D01*
X122782718Y-112483525D02*
X122783270Y-112482220D01*
X122783270Y-112482220D02*
X122783882Y-112480940D01*
X122783882Y-112480940D02*
X122784549Y-112479686D01*
X122784549Y-112479686D02*
X122785271Y-112478461D01*
X122785271Y-112478461D02*
X122786046Y-112477266D01*
X122786046Y-112477266D02*
X122786871Y-112476102D01*
X122786871Y-112476102D02*
X122787744Y-112474972D01*
X122787744Y-112474972D02*
X122788664Y-112473877D01*
X122788664Y-112473877D02*
X122789628Y-112472819D01*
X122789628Y-112472819D02*
X122790633Y-112471800D01*
X122790633Y-112471800D02*
X122791680Y-112470820D01*
X122791680Y-112470820D02*
X122792764Y-112469883D01*
X122792764Y-112469883D02*
X122793884Y-112468989D01*
X122793884Y-112468989D02*
X122795038Y-112468140D01*
X122795038Y-112468140D02*
X122796224Y-112467339D01*
X122796224Y-112467339D02*
X122797440Y-112466586D01*
X122797440Y-112466586D02*
X122798684Y-112465884D01*
X122798684Y-112465884D02*
X122799953Y-112465234D01*
X122799953Y-112465234D02*
X122801247Y-112464637D01*
X122801247Y-112464637D02*
X122802562Y-112464097D01*
X122802562Y-112464097D02*
X122803896Y-112463613D01*
X122803896Y-112463613D02*
X122805249Y-112463188D01*
X122805249Y-112463188D02*
X122806617Y-112462824D01*
X122806617Y-112462824D02*
X122807998Y-112462523D01*
X122807998Y-112462523D02*
X122809391Y-112462285D01*
X122809391Y-112462285D02*
X122810793Y-112462114D01*
X122810793Y-112462114D02*
X122812203Y-112462009D01*
X122812203Y-112462009D02*
X122813617Y-112461974D01*
X122813617Y-112461974D02*
X123440359Y-112461974D01*
X123440359Y-112461974D02*
X123441775Y-112462009D01*
X123441775Y-112462009D02*
X123443186Y-112462114D01*
X123443186Y-112462114D02*
X123444591Y-112462286D01*
X123444591Y-112462286D02*
X123445987Y-112462524D01*
X123445987Y-112462524D02*
X123447372Y-112462827D01*
X123447372Y-112462827D02*
X123448744Y-112463192D01*
X123448744Y-112463192D02*
X123450102Y-112463617D01*
X123450102Y-112463617D02*
X123451442Y-112464102D01*
X123451442Y-112464102D02*
X123454063Y-112465241D01*
X123454063Y-112465241D02*
X123456589Y-112466596D01*
X123456589Y-112466596D02*
X123459004Y-112468152D01*
X123459004Y-112468152D02*
X123461291Y-112469897D01*
X123461291Y-112469897D02*
X123463432Y-112471815D01*
X123463432Y-112471815D02*
X123465411Y-112473894D01*
X123465411Y-112473894D02*
X123467211Y-112476119D01*
X123467211Y-112476119D02*
X123468038Y-112477282D01*
X123468038Y-112477282D02*
X123468813Y-112478477D01*
X123468813Y-112478477D02*
X123469535Y-112479701D01*
X123469535Y-112479701D02*
X123470202Y-112480953D01*
X123470202Y-112480953D02*
X123470811Y-112482232D01*
X123470811Y-112482232D02*
X123471360Y-112483535D01*
X123471360Y-112483535D02*
X123471847Y-112484861D01*
X123471847Y-112484861D02*
X123472270Y-112486209D01*
X123472270Y-112486209D02*
X123472627Y-112487575D01*
X123472627Y-112487575D02*
X123472915Y-112488960D01*
X123472915Y-112488960D02*
X123583389Y-113082929D01*
X123583389Y-113082929D02*
X123583676Y-113084324D01*
X123583676Y-113084324D02*
X123584028Y-113085723D01*
X123584028Y-113085723D02*
X123584918Y-113088525D01*
X123584918Y-113088525D02*
X123586043Y-113091315D01*
X123586043Y-113091315D02*
X123587387Y-113094076D01*
X123587387Y-113094076D02*
X123588934Y-113096789D01*
X123588934Y-113096789D02*
X123590667Y-113099435D01*
X123590667Y-113099435D02*
X123592570Y-113101997D01*
X123592570Y-113101997D02*
X123594627Y-113104457D01*
X123594627Y-113104457D02*
X123596820Y-113106795D01*
X123596820Y-113106795D02*
X123599135Y-113108994D01*
X123599135Y-113108994D02*
X123601554Y-113111035D01*
X123601554Y-113111035D02*
X123604061Y-113112900D01*
X123604061Y-113112900D02*
X123606640Y-113114570D01*
X123606640Y-113114570D02*
X123609274Y-113116029D01*
X123609274Y-113116029D02*
X123611947Y-113117256D01*
X123611947Y-113117256D02*
X123613293Y-113117777D01*
X123613293Y-113117777D02*
X123614643Y-113118234D01*
X123614643Y-113118234D02*
X124077881Y-113303659D01*
X124077881Y-113303659D02*
X124080516Y-113304806D01*
X124080516Y-113304806D02*
X124083307Y-113305763D01*
X124083307Y-113305763D02*
X124086229Y-113306531D01*
X124086229Y-113306531D02*
X124089259Y-113307111D01*
X124089259Y-113307111D02*
X124092372Y-113307506D01*
X124092372Y-113307506D02*
X124095544Y-113307717D01*
X124095544Y-113307717D02*
X124098751Y-113307747D01*
X124098751Y-113307747D02*
X124101969Y-113307596D01*
X124101969Y-113307596D02*
X124105174Y-113307267D01*
X124105174Y-113307267D02*
X124108340Y-113306761D01*
X124108340Y-113306761D02*
X124111445Y-113306080D01*
X124111445Y-113306080D02*
X124114464Y-113305226D01*
X124114464Y-113305226D02*
X124117373Y-113304201D01*
X124117373Y-113304201D02*
X124120147Y-113303006D01*
X124120147Y-113303006D02*
X124122763Y-113301643D01*
X124122763Y-113301643D02*
X124125196Y-113300114D01*
X124125196Y-113300114D02*
X124616866Y-112962760D01*
X124616866Y-112962760D02*
X124618052Y-112961991D01*
X124618052Y-112961991D02*
X124619273Y-112961283D01*
X124619273Y-112961283D02*
X124620526Y-112960634D01*
X124620526Y-112960634D02*
X124621810Y-112960044D01*
X124621810Y-112960044D02*
X124623121Y-112959514D01*
X124623121Y-112959514D02*
X124624457Y-112959043D01*
X124624457Y-112959043D02*
X124627191Y-112958276D01*
X124627191Y-112958276D02*
X124629991Y-112957742D01*
X124629991Y-112957742D02*
X124632836Y-112957439D01*
X124632836Y-112957439D02*
X124635703Y-112957365D01*
X124635703Y-112957365D02*
X124638572Y-112957518D01*
X124638572Y-112957518D02*
X124641421Y-112957896D01*
X124641421Y-112957896D02*
X124644227Y-112958496D01*
X124644227Y-112958496D02*
X124646970Y-112959317D01*
X124646970Y-112959317D02*
X124649627Y-112960358D01*
X124649627Y-112960358D02*
X124652178Y-112961615D01*
X124652178Y-112961615D02*
X124653406Y-112962324D01*
X124653406Y-112962324D02*
X124654600Y-112963087D01*
X124654600Y-112963087D02*
X124655756Y-112963902D01*
X124655756Y-112963902D02*
X124656872Y-112964771D01*
X124656872Y-112964771D02*
X124657945Y-112965693D01*
X124657945Y-112965693D02*
X124658972Y-112966667D01*
X124658972Y-112966667D02*
X125102098Y-113409865D01*
X125102098Y-113409865D02*
X125103068Y-113410889D01*
X125103068Y-113410889D02*
X125103987Y-113411958D01*
X125103987Y-113411958D02*
X125104853Y-113413071D01*
X125104853Y-113413071D02*
X125105666Y-113414225D01*
X125105666Y-113414225D02*
X125106426Y-113415416D01*
X125106426Y-113415416D02*
X125107133Y-113416642D01*
X125107133Y-113416642D02*
X125107786Y-113417901D01*
X125107786Y-113417901D02*
X125108386Y-113419189D01*
X125108386Y-113419189D02*
X125108932Y-113420504D01*
X125108932Y-113420504D02*
X125109423Y-113421843D01*
X125109423Y-113421843D02*
X125110242Y-113424584D01*
X125110242Y-113424584D02*
X125110842Y-113427389D01*
X125110842Y-113427389D02*
X125111219Y-113430237D01*
X125111219Y-113430237D02*
X125111372Y-113433106D01*
X125111372Y-113433106D02*
X125111299Y-113435975D01*
X125111299Y-113435975D02*
X125110998Y-113438822D01*
X125110998Y-113438822D02*
X125110762Y-113440230D01*
X125110762Y-113440230D02*
X125110468Y-113441625D01*
X125110468Y-113441625D02*
X125110115Y-113443004D01*
X125110115Y-113443004D02*
X125109705Y-113444363D01*
X125109705Y-113444363D02*
X125109236Y-113445701D01*
X125109236Y-113445701D02*
X125108708Y-113447015D01*
X125108708Y-113447015D02*
X125108121Y-113448301D01*
X125108121Y-113448301D02*
X125107475Y-113449558D01*
X125107475Y-113449558D02*
X125106770Y-113450782D01*
X125106770Y-113450782D02*
X125106005Y-113451971D01*
X125106005Y-113451971D02*
X124774510Y-113934887D01*
X124774510Y-113934887D02*
X124773005Y-113937315D01*
X124773005Y-113937315D02*
X124771685Y-113939916D01*
X124771685Y-113939916D02*
X124770549Y-113942667D01*
X124770549Y-113942667D02*
X124769600Y-113945544D01*
X124769600Y-113945544D02*
X124768837Y-113948522D01*
X124768837Y-113948522D02*
X124768261Y-113951578D01*
X124768261Y-113951578D02*
X124767872Y-113954689D01*
X124767872Y-113954689D02*
X124767672Y-113957829D01*
X124767672Y-113957829D02*
X124767661Y-113960977D01*
X124767661Y-113960977D02*
X124767839Y-113964107D01*
X124767839Y-113964107D02*
X124768207Y-113967195D01*
X124768207Y-113967195D02*
X124768766Y-113970219D01*
X124768766Y-113970219D02*
X124769516Y-113973154D01*
X124769516Y-113973154D02*
X124770457Y-113975977D01*
X124770457Y-113975977D02*
X124771592Y-113978663D01*
X124771592Y-113978663D02*
X124772919Y-113981189D01*
X124772919Y-113981189D02*
X124886648Y-114194178D01*
X124886648Y-114194178D02*
X124887257Y-114195449D01*
X124887257Y-114195449D02*
X124887792Y-114196730D01*
X124887792Y-114196730D02*
X124888253Y-114198020D01*
X124888253Y-114198020D02*
X124888643Y-114199317D01*
X124888643Y-114199317D02*
X124888961Y-114200618D01*
X124888961Y-114200618D02*
X124889208Y-114201922D01*
X124889208Y-114201922D02*
X124889386Y-114203225D01*
X124889386Y-114203225D02*
X124889495Y-114204525D01*
X124889495Y-114204525D02*
X124889537Y-114205821D01*
X124889537Y-114205821D02*
X124889511Y-114207111D01*
X124889511Y-114207111D02*
X124889418Y-114208391D01*
X124889418Y-114208391D02*
X124889261Y-114209659D01*
X124889261Y-114209659D02*
X124889039Y-114210914D01*
X124889039Y-114210914D02*
X124888753Y-114212154D01*
X124888753Y-114212154D02*
X124888405Y-114213375D01*
X124888405Y-114213375D02*
X124887994Y-114214576D01*
X124887994Y-114214576D02*
X124887522Y-114215754D01*
X124887522Y-114215754D02*
X124886991Y-114216907D01*
X124886991Y-114216907D02*
X124886399Y-114218034D01*
X124886399Y-114218034D02*
X124885750Y-114219131D01*
X124885750Y-114219131D02*
X124885042Y-114220196D01*
X124885042Y-114220196D02*
X124884278Y-114221228D01*
X124884278Y-114221228D02*
X124883458Y-114222224D01*
X124883458Y-114222224D02*
X124882582Y-114223181D01*
X124882582Y-114223181D02*
X124881653Y-114224098D01*
X124881653Y-114224098D02*
X124880670Y-114224973D01*
X124880670Y-114224973D02*
X124879634Y-114225802D01*
X124879634Y-114225802D02*
X124878547Y-114226584D01*
X124878547Y-114226584D02*
X124877409Y-114227316D01*
X124877409Y-114227316D02*
X124876221Y-114227997D01*
X124876221Y-114227997D02*
X124874984Y-114228624D01*
X124874984Y-114228624D02*
X124873699Y-114229194D01*
X124873699Y-114229194D02*
X123812585Y-114668413D01*
X123812585Y-114668413D02*
X123811265Y-114668924D01*
X123811265Y-114668924D02*
X123809924Y-114669368D01*
X123809924Y-114669368D02*
X123808566Y-114669744D01*
X123808566Y-114669744D02*
X123807192Y-114670055D01*
X123807192Y-114670055D02*
X123805806Y-114670301D01*
X123805806Y-114670301D02*
X123804410Y-114670482D01*
X123804410Y-114670482D02*
X123801597Y-114670656D01*
X123801597Y-114670656D02*
X123798774Y-114670583D01*
X123798774Y-114670583D02*
X123795961Y-114670270D01*
X123795961Y-114670270D02*
X123793179Y-114669724D01*
X123793179Y-114669724D02*
X123790447Y-114668953D01*
X123790447Y-114668953D02*
X123787787Y-114667962D01*
X123787787Y-114667962D02*
X123785218Y-114666759D01*
X123785218Y-114666759D02*
X123782762Y-114665350D01*
X123782762Y-114665350D02*
X123780437Y-114663742D01*
X123780437Y-114663742D02*
X123778265Y-114661943D01*
X123778265Y-114661943D02*
X123777242Y-114660974D01*
X123777242Y-114660974D02*
X123776265Y-114659959D01*
X123776265Y-114659959D02*
X123775337Y-114658900D01*
X123775337Y-114658900D02*
X123774459Y-114657797D01*
X123774459Y-114657797D02*
X123773635Y-114656651D01*
X123773635Y-114656651D02*
X123772866Y-114655463D01*
X123772866Y-114655463D02*
X123740238Y-114602216D01*
X123740238Y-114602216D02*
X123737794Y-114598368D01*
X123737794Y-114598368D02*
X123735004Y-114594265D01*
X123735004Y-114594265D02*
X123731929Y-114589982D01*
X123731929Y-114589982D02*
X123728630Y-114585595D01*
X123728630Y-114585595D02*
X123725167Y-114581178D01*
X123725167Y-114581178D02*
X123721602Y-114576806D01*
X123721602Y-114576806D02*
X123717996Y-114572556D01*
X123717996Y-114572556D02*
X123714410Y-114568502D01*
X123714410Y-114568502D02*
X123690258Y-114533221D01*
X123690258Y-114533221D02*
X123664035Y-114499548D01*
X123664035Y-114499548D02*
X123635834Y-114467574D01*
X123635834Y-114467574D02*
X123605745Y-114437393D01*
X123605745Y-114437393D02*
X123573860Y-114409096D01*
X123573860Y-114409096D02*
X123540270Y-114382776D01*
X123540270Y-114382776D02*
X123505065Y-114358525D01*
X123505065Y-114358525D02*
X123468338Y-114336435D01*
X123468338Y-114336435D02*
X123430179Y-114316598D01*
X123430179Y-114316598D02*
X123410591Y-114307553D01*
X123410591Y-114307553D02*
X123390680Y-114299107D01*
X123390680Y-114299107D02*
X123370456Y-114291270D01*
X123370456Y-114291270D02*
X123349931Y-114284053D01*
X123349931Y-114284053D02*
X123329117Y-114277470D01*
X123329117Y-114277470D02*
X123308024Y-114271530D01*
X123308024Y-114271530D02*
X123286665Y-114266246D01*
X123286665Y-114266246D02*
X123265051Y-114261629D01*
X123265051Y-114261629D02*
X123243193Y-114257691D01*
X123243193Y-114257691D02*
X123221102Y-114254443D01*
X123221102Y-114254443D02*
X123198790Y-114251897D01*
X123198790Y-114251897D02*
X123176268Y-114250064D01*
X123176268Y-114250064D02*
X123153549Y-114248955D01*
X123153549Y-114248955D02*
X123130642Y-114248583D01*
X123130642Y-114248583D02*
X123094974Y-114249485D01*
X123094974Y-114249485D02*
X123059774Y-114252163D01*
X123059774Y-114252163D02*
X123025086Y-114256571D01*
X123025086Y-114256571D02*
X122990953Y-114262668D01*
X122990953Y-114262668D02*
X122957419Y-114270409D01*
X122957419Y-114270409D02*
X122924527Y-114279751D01*
X122924527Y-114279751D02*
X122892320Y-114290651D01*
X122892320Y-114290651D02*
X122860844Y-114303063D01*
X122860844Y-114303063D02*
X122830140Y-114316946D01*
X122830140Y-114316946D02*
X122800252Y-114332256D01*
X122800252Y-114332256D02*
X122771225Y-114348948D01*
X122771225Y-114348948D02*
X122743101Y-114366979D01*
X122743101Y-114366979D02*
X122715925Y-114386307D01*
X122715925Y-114386307D02*
X122689739Y-114406886D01*
X122689739Y-114406886D02*
X122664588Y-114428674D01*
X122664588Y-114428674D02*
X122640515Y-114451627D01*
X122640515Y-114451627D02*
X122617563Y-114475701D01*
X122617563Y-114475701D02*
X122595776Y-114500853D01*
X122595776Y-114500853D02*
X122575198Y-114527039D01*
X122575198Y-114527039D02*
X122555871Y-114554216D01*
X122555871Y-114554216D02*
X122537841Y-114582340D01*
X122537841Y-114582340D02*
X122521150Y-114611367D01*
X122521150Y-114611367D02*
X122505842Y-114641254D01*
X122505842Y-114641254D02*
X122491960Y-114671957D01*
X122491960Y-114671957D02*
X122479548Y-114703433D01*
X122479548Y-114703433D02*
X122468650Y-114735639D01*
X122468650Y-114735639D02*
X122459309Y-114768529D01*
X122459309Y-114768529D02*
X122451569Y-114802062D01*
X122451569Y-114802062D02*
X122445472Y-114836193D01*
X122445472Y-114836193D02*
X122441064Y-114870879D01*
X122441064Y-114870879D02*
X122438387Y-114906075D01*
X122438387Y-114906075D02*
X122437485Y-114941740D01*
X122437485Y-114941740D02*
X122438387Y-114977404D01*
X122438387Y-114977404D02*
X122441064Y-115012600D01*
X122441064Y-115012600D02*
X122445472Y-115047283D01*
X122445472Y-115047283D02*
X122451569Y-115081412D01*
X122451569Y-115081412D02*
X122459309Y-115114941D01*
X122459309Y-115114941D02*
X122468650Y-115147828D01*
X122468650Y-115147828D02*
X122479548Y-115180029D01*
X122479548Y-115180029D02*
X122491960Y-115211500D01*
X122491960Y-115211500D02*
X122505842Y-115242198D01*
X122505842Y-115242198D02*
X122521150Y-115272080D01*
X122521150Y-115272080D02*
X122537841Y-115301101D01*
X122537841Y-115301101D02*
X122555871Y-115329218D01*
X122555871Y-115329218D02*
X122575198Y-115356389D01*
X122575198Y-115356389D02*
X122595776Y-115382568D01*
X122595776Y-115382568D02*
X122617563Y-115407714D01*
X122617563Y-115407714D02*
X122640515Y-115431781D01*
X122640515Y-115431781D02*
X122664588Y-115454727D01*
X122664588Y-115454727D02*
X122689739Y-115476508D01*
X122689739Y-115476508D02*
X122715925Y-115497081D01*
X122715925Y-115497081D02*
X122743101Y-115516402D01*
X122743101Y-115516402D02*
X122771225Y-115534427D01*
X122771225Y-115534427D02*
X122800252Y-115551113D01*
X122800252Y-115551113D02*
X122830140Y-115566417D01*
X122830140Y-115566417D02*
X122860844Y-115580295D01*
X122860844Y-115580295D02*
X122892320Y-115592702D01*
X122892320Y-115592702D02*
X122924527Y-115603597D01*
X122924527Y-115603597D02*
X122957419Y-115612935D01*
X122957419Y-115612935D02*
X122990953Y-115620673D01*
X122990953Y-115620673D02*
X123025086Y-115626767D01*
X123025086Y-115626767D02*
X123059774Y-115631174D01*
X123059774Y-115631174D02*
X123094974Y-115633850D01*
X123094974Y-115633850D02*
X123130642Y-115634752D01*
X123130642Y-115634752D02*
X123176268Y-115633273D01*
X123176268Y-115633273D02*
X123221102Y-115628897D01*
X123221102Y-115628897D02*
X123265051Y-115621716D01*
X123265051Y-115621716D02*
X123308024Y-115611822D01*
X123308024Y-115611822D02*
X123349931Y-115599306D01*
X123349931Y-115599306D02*
X123390680Y-115584261D01*
X123390680Y-115584261D02*
X123430179Y-115566779D01*
X123430179Y-115566779D02*
X123468338Y-115546951D01*
X123468338Y-115546951D02*
X123505065Y-115524869D01*
X123505065Y-115524869D02*
X123540270Y-115500625D01*
X123540270Y-115500625D02*
X123573860Y-115474311D01*
X123573860Y-115474311D02*
X123605745Y-115446019D01*
X123605745Y-115446019D02*
X123635834Y-115415840D01*
X123635834Y-115415840D02*
X123664035Y-115383867D01*
X123664035Y-115383867D02*
X123690258Y-115350192D01*
X123690258Y-115350192D02*
X123714410Y-115314906D01*
X123714410Y-115314906D02*
X123717996Y-115310874D01*
X123717996Y-115310874D02*
X123721602Y-115306638D01*
X123721602Y-115306638D02*
X123725167Y-115302276D01*
X123725167Y-115302276D02*
X123728630Y-115297863D01*
X123728630Y-115297863D02*
X123731929Y-115293478D01*
X123731929Y-115293478D02*
X123735004Y-115289199D01*
X123735004Y-115289199D02*
X123737794Y-115285102D01*
X123737794Y-115285102D02*
X123740238Y-115281265D01*
X123740238Y-115281265D02*
X123772866Y-115227945D01*
X123772866Y-115227945D02*
X123773635Y-115226764D01*
X123773635Y-115226764D02*
X123774459Y-115225625D01*
X123774459Y-115225625D02*
X123775337Y-115224528D01*
X123775337Y-115224528D02*
X123776265Y-115223475D01*
X123776265Y-115223475D02*
X123777242Y-115222466D01*
X123777242Y-115222466D02*
X123778265Y-115221502D01*
X123778265Y-115221502D02*
X123779330Y-115220584D01*
X123779330Y-115220584D02*
X123780437Y-115219713D01*
X123780437Y-115219713D02*
X123781581Y-115218890D01*
X123781581Y-115218890D02*
X123782762Y-115218115D01*
X123782762Y-115218115D02*
X123783975Y-115217389D01*
X123783975Y-115217389D02*
X123785218Y-115216714D01*
X123785218Y-115216714D02*
X123786490Y-115216090D01*
X123786490Y-115216090D02*
X123787787Y-115215518D01*
X123787787Y-115215518D02*
X123789107Y-115214998D01*
X123789107Y-115214998D02*
X123790447Y-115214533D01*
X123790447Y-115214533D02*
X123791805Y-115214121D01*
X123791805Y-115214121D02*
X123793179Y-115213765D01*
X123793179Y-115213765D02*
X123794565Y-115213465D01*
X123794565Y-115213465D02*
X123795961Y-115213223D01*
X123795961Y-115213223D02*
X123797365Y-115213038D01*
X123797365Y-115213038D02*
X123798774Y-115212912D01*
X123798774Y-115212912D02*
X123800185Y-115212845D01*
X123800185Y-115212845D02*
X123801597Y-115212839D01*
X123801597Y-115212839D02*
X123803006Y-115212894D01*
X123803006Y-115212894D02*
X123804410Y-115213011D01*
X123804410Y-115213011D02*
X123805806Y-115213191D01*
X123805806Y-115213191D02*
X123807192Y-115213435D01*
X123807192Y-115213435D02*
X123808566Y-115213744D01*
X123808566Y-115213744D02*
X123809924Y-115214118D01*
X123809924Y-115214118D02*
X123811265Y-115214559D01*
X123811265Y-115214559D02*
X123812585Y-115215067D01*
X123812585Y-115215067D02*
X124873771Y-115654213D01*
X124873771Y-115654213D02*
X124875056Y-115654784D01*
X124875056Y-115654784D02*
X124876292Y-115655410D01*
X124876292Y-115655410D02*
X124877478Y-115656091D01*
X124877478Y-115656091D02*
X124878615Y-115656823D01*
X124878615Y-115656823D02*
X124879699Y-115657604D01*
X124879699Y-115657604D02*
X124880732Y-115658432D01*
X124880732Y-115658432D02*
X124881712Y-115659305D01*
X124881712Y-115659305D02*
X124882638Y-115660221D01*
X124882638Y-115660221D02*
X124883510Y-115661177D01*
X124883510Y-115661177D02*
X124884326Y-115662172D01*
X124884326Y-115662172D02*
X124885086Y-115663203D01*
X124885086Y-115663203D02*
X124885789Y-115664267D01*
X124885789Y-115664267D02*
X124886435Y-115665363D01*
X124886435Y-115665363D02*
X124887021Y-115666488D01*
X124887021Y-115666488D02*
X124887549Y-115667641D01*
X124887549Y-115667641D02*
X124888016Y-115668818D01*
X124888016Y-115668818D02*
X124888423Y-115670018D01*
X124888423Y-115670018D02*
X124888767Y-115671239D01*
X124888767Y-115671239D02*
X124889049Y-115672477D01*
X124889049Y-115672477D02*
X124889268Y-115673732D01*
X124889268Y-115673732D02*
X124889422Y-115675000D01*
X124889422Y-115675000D02*
X124889511Y-115676281D01*
X124889511Y-115676281D02*
X124889534Y-115677570D01*
X124889534Y-115677570D02*
X124889491Y-115678867D01*
X124889491Y-115678867D02*
X124889380Y-115680168D01*
X124889380Y-115680168D02*
X124889201Y-115681472D01*
X124889201Y-115681472D02*
X124888953Y-115682777D01*
X124888953Y-115682777D02*
X124888635Y-115684080D01*
X124888635Y-115684080D02*
X124888247Y-115685379D01*
X124888247Y-115685379D02*
X124887787Y-115686671D01*
X124887787Y-115686671D02*
X124887254Y-115687955D01*
X124887254Y-115687955D02*
X124886648Y-115689229D01*
X124886648Y-115689229D02*
X124772919Y-115902219D01*
X124772919Y-115902219D02*
X124771591Y-115904751D01*
X124771591Y-115904751D02*
X124770456Y-115907442D01*
X124770456Y-115907442D02*
X124769513Y-115910267D01*
X124769513Y-115910267D02*
X124768761Y-115913204D01*
X124768761Y-115913204D02*
X124768200Y-115916229D01*
X124768200Y-115916229D02*
X124767829Y-115919317D01*
X124767829Y-115919317D02*
X124767649Y-115922446D01*
X124767649Y-115922446D02*
X124767658Y-115925592D01*
X124767658Y-115925592D02*
X124767857Y-115928731D01*
X124767857Y-115928731D02*
X124768244Y-115931839D01*
X124768244Y-115931839D02*
X124768820Y-115934893D01*
X124768820Y-115934893D02*
X124769584Y-115937869D01*
X124769584Y-115937869D02*
X124770535Y-115940743D01*
X124770535Y-115940743D02*
X124771674Y-115943493D01*
X124771674Y-115943493D02*
X124772999Y-115946093D01*
X124772999Y-115946093D02*
X124774510Y-115948521D01*
X124774510Y-115948521D02*
X125106005Y-116431510D01*
X125106005Y-116431510D02*
X125106770Y-116432695D01*
X125106770Y-116432695D02*
X125107475Y-116433916D01*
X125107475Y-116433916D02*
X125108121Y-116435170D01*
X125108121Y-116435170D02*
X125108708Y-116436453D01*
X125108708Y-116436453D02*
X125109236Y-116437764D01*
X125109236Y-116437764D02*
X125109705Y-116439099D01*
X125109705Y-116439099D02*
X125110468Y-116441833D01*
X125110468Y-116441833D02*
X125110998Y-116444632D01*
X125110998Y-116444632D02*
X125111299Y-116447476D01*
X125111299Y-116447476D02*
X125111372Y-116450341D01*
X125111372Y-116450341D02*
X125111219Y-116453207D01*
X125111219Y-116453207D02*
X125110842Y-116456052D01*
X125110842Y-116456052D02*
X125110242Y-116458853D01*
X125110242Y-116458853D02*
X125109423Y-116461590D01*
X125109423Y-116461590D02*
X125108386Y-116464241D01*
X125108386Y-116464241D02*
X125107133Y-116466783D01*
X125107133Y-116466783D02*
X125106426Y-116468007D01*
X125106426Y-116468007D02*
X125105666Y-116469195D01*
X125105666Y-116469195D02*
X125104853Y-116470346D01*
X125104853Y-116470346D02*
X125103987Y-116471456D01*
X125103987Y-116471456D02*
X125103068Y-116472523D01*
X125103068Y-116472523D02*
X125102098Y-116473543D01*
X125102098Y-116473543D02*
X124658972Y-116916813D01*
X124658972Y-116916813D02*
X124657945Y-116917791D01*
X124657945Y-116917791D02*
X124656872Y-116918715D01*
X124656872Y-116918715D02*
X124655756Y-116919585D01*
X124655756Y-116919585D02*
X124654600Y-116920403D01*
X124654600Y-116920403D02*
X124653406Y-116921166D01*
X124653406Y-116921166D02*
X124652178Y-116921876D01*
X124652178Y-116921876D02*
X124650917Y-116922531D01*
X124650917Y-116922531D02*
X124649627Y-116923132D01*
X124649627Y-116923132D02*
X124648311Y-116923678D01*
X124648311Y-116923678D02*
X124646970Y-116924170D01*
X124646970Y-116924170D02*
X124644227Y-116924987D01*
X124644227Y-116924987D02*
X124641421Y-116925582D01*
X124641421Y-116925582D02*
X124638572Y-116925954D01*
X124638572Y-116925954D02*
X124635703Y-116926099D01*
X124635703Y-116926099D02*
X124632836Y-116926017D01*
X124632836Y-116926017D02*
X124629991Y-116925706D01*
X124629991Y-116925706D02*
X124628584Y-116925464D01*
X124628584Y-116925464D02*
X124627191Y-116925164D01*
X124627191Y-116925164D02*
X124625814Y-116924805D01*
X124625814Y-116924805D02*
X124624457Y-116924388D01*
X124624457Y-116924388D02*
X124623121Y-116923913D01*
X124623121Y-116923913D02*
X124621810Y-116923378D01*
X124621810Y-116923378D02*
X124620526Y-116922785D01*
X124620526Y-116922785D02*
X124619273Y-116922132D01*
X124619273Y-116922132D02*
X124618052Y-116921420D01*
X124618052Y-116921420D02*
X124616866Y-116920647D01*
X124616866Y-116920647D02*
X124125196Y-116583221D01*
X124125196Y-116583221D02*
X124122763Y-116581705D01*
X124122763Y-116581705D02*
X124120147Y-116580354D01*
X124120147Y-116580354D02*
X124117373Y-116579169D01*
X124117373Y-116579169D02*
X124114464Y-116578152D01*
X124114464Y-116578152D02*
X124111445Y-116577305D01*
X124111445Y-116577305D02*
X124108340Y-116576630D01*
X124108340Y-116576630D02*
X124105174Y-116576129D01*
X124105174Y-116576129D02*
X124101969Y-116575804D01*
X124101969Y-116575804D02*
X124098751Y-116575656D01*
X124098751Y-116575656D02*
X124095544Y-116575687D01*
X124095544Y-116575687D02*
X124092372Y-116575900D01*
X124092372Y-116575900D02*
X124089259Y-116576296D01*
X124089259Y-116576296D02*
X124086229Y-116576877D01*
X124086229Y-116576877D02*
X124083307Y-116577645D01*
X124083307Y-116577645D02*
X124080516Y-116578601D01*
X124080516Y-116578601D02*
X124077881Y-116579749D01*
X124077881Y-116579749D02*
X123614716Y-116765174D01*
X123614716Y-116765174D02*
X123613366Y-116765634D01*
X123613366Y-116765634D02*
X123612020Y-116766157D01*
X123612020Y-116766157D02*
X123609346Y-116767385D01*
X123609346Y-116767385D02*
X123606712Y-116768841D01*
X123606712Y-116768841D02*
X123604133Y-116770507D01*
X123604133Y-116770507D02*
X123601626Y-116772365D01*
X123601626Y-116772365D02*
X123599207Y-116774398D01*
X123599207Y-116774398D02*
X123596893Y-116776587D01*
X123596893Y-116776587D02*
X123594699Y-116778915D01*
X123594699Y-116778915D02*
X123592643Y-116781364D01*
X123592643Y-116781364D02*
X123590740Y-116783916D01*
X123590740Y-116783916D02*
X123589006Y-116786554D01*
X123589006Y-116786554D02*
X123587460Y-116789260D01*
X123587460Y-116789260D02*
X123586115Y-116792016D01*
X123586115Y-116792016D02*
X123584990Y-116794804D01*
X123584990Y-116794804D02*
X123584515Y-116796205D01*
X123584515Y-116796205D02*
X123584100Y-116797607D01*
X123584100Y-116797607D02*
X123583748Y-116799008D01*
X123583748Y-116799008D02*
X123583462Y-116800407D01*
X123583462Y-116800407D02*
X123472915Y-117394376D01*
X123472915Y-117394376D02*
X123472627Y-117395757D01*
X123472627Y-117395757D02*
X123472271Y-117397121D01*
X123472271Y-117397121D02*
X123471849Y-117398467D01*
X123471849Y-117398467D02*
X123471363Y-117399792D01*
X123471363Y-117399792D02*
X123470816Y-117401096D01*
X123470816Y-117401096D02*
X123470209Y-117402375D01*
X123470209Y-117402375D02*
X123469544Y-117403628D01*
X123469544Y-117403628D02*
X123468824Y-117404854D01*
X123468824Y-117404854D02*
X123468051Y-117406051D01*
X123468051Y-117406051D02*
X123467227Y-117407217D01*
X123467227Y-117407217D02*
X123466354Y-117408350D01*
X123466354Y-117408350D02*
X123465434Y-117409448D01*
X123465434Y-117409448D02*
X123464469Y-117410510D01*
X123464469Y-117410510D02*
X123463462Y-117411534D01*
X123463462Y-117411534D02*
X123462414Y-117412519D01*
X123462414Y-117412519D02*
X123461327Y-117413461D01*
X123461327Y-117413461D02*
X123460204Y-117414360D01*
X123460204Y-117414360D02*
X123459047Y-117415214D01*
X123459047Y-117415214D02*
X123457858Y-117416021D01*
X123457858Y-117416021D02*
X123456638Y-117416779D01*
X123456638Y-117416779D02*
X123455391Y-117417487D01*
X123455391Y-117417487D02*
X123454118Y-117418142D01*
X123454118Y-117418142D02*
X123452821Y-117418744D01*
X123452821Y-117418744D02*
X123451503Y-117419290D01*
X123451503Y-117419290D02*
X123450165Y-117419778D01*
X123450165Y-117419778D02*
X123448810Y-117420206D01*
X123448810Y-117420206D02*
X123447439Y-117420574D01*
X123447439Y-117420574D02*
X123446056Y-117420879D01*
X123446056Y-117420879D02*
X123444661Y-117421119D01*
X123444661Y-117421119D02*
X123443257Y-117421293D01*
X123443257Y-117421293D02*
X123441847Y-117421398D01*
X123441847Y-117421398D02*
X123440432Y-117421434D01*
X123440432Y-117421434D02*
X122813690Y-117421506D01*
X122813690Y-117421506D02*
X122812271Y-117421474D01*
X122812271Y-117421474D02*
X122810858Y-117421373D01*
X122810858Y-117421373D02*
X122809453Y-117421203D01*
X122809453Y-117421203D02*
X122808056Y-117420968D01*
X122808056Y-117420968D02*
X122806672Y-117420668D01*
X122806672Y-117420668D02*
X122805301Y-117420306D01*
X122805301Y-117420306D02*
X122803945Y-117419882D01*
X122803945Y-117419882D02*
X122802607Y-117419400D01*
X122802607Y-117419400D02*
X122801289Y-117418860D01*
X122801289Y-117418860D02*
X122799992Y-117418265D01*
X122799992Y-117418265D02*
X122797473Y-117416914D01*
X122797473Y-117416914D02*
X122795065Y-117415361D01*
X122795065Y-117415361D02*
X122792786Y-117413620D01*
X122792786Y-117413620D02*
X122790651Y-117411705D01*
X122790651Y-117411705D02*
X122788677Y-117409629D01*
X122788677Y-117409629D02*
X122786880Y-117407408D01*
X122786880Y-117407408D02*
X122785277Y-117405054D01*
X122785277Y-117405054D02*
X122784554Y-117403832D01*
X122784554Y-117403832D02*
X122783885Y-117402582D01*
X122783885Y-117402582D02*
X122783273Y-117401306D01*
X122783273Y-117401306D02*
X122782719Y-117400005D01*
X122782719Y-117400005D02*
X122782226Y-117398682D01*
X122782226Y-117398682D02*
X122781797Y-117397337D01*
X122781797Y-117397337D02*
X122781431Y-117395974D01*
X122781431Y-117395974D02*
X122781133Y-117394593D01*
X122781133Y-117394593D02*
X122667911Y-116785648D01*
X122667911Y-116785648D02*
X122667261Y-116782856D01*
X122667261Y-116782856D02*
X122666366Y-116780048D01*
X122666366Y-116780048D02*
X122665240Y-116777243D01*
X122665240Y-116777243D02*
X122663900Y-116774459D01*
X122663900Y-116774459D02*
X122662361Y-116771716D01*
X122662361Y-116771716D02*
X122660639Y-116769032D01*
X122660639Y-116769032D02*
X122658751Y-116766426D01*
X122658751Y-116766426D02*
X122656712Y-116763916D01*
X122656712Y-116763916D02*
X122654538Y-116761521D01*
X122654538Y-116761521D02*
X122652245Y-116759260D01*
X122652245Y-116759260D02*
X122649848Y-116757152D01*
X122649848Y-116757152D02*
X122647364Y-116755214D01*
X122647364Y-116755214D02*
X122644809Y-116753466D01*
X122644809Y-116753466D02*
X122642198Y-116751926D01*
X122642198Y-116751926D02*
X122639548Y-116750614D01*
X122639548Y-116750614D02*
X122636873Y-116749547D01*
X122636873Y-116749547D02*
X122201417Y-116562892D01*
X122201417Y-116562892D02*
X122198810Y-116561683D01*
X122198810Y-116561683D02*
X122196046Y-116560667D01*
X122196046Y-116560667D02*
X122193150Y-116559843D01*
X122193150Y-116559843D02*
X122190146Y-116559209D01*
X122190146Y-116559209D02*
X122187057Y-116558763D01*
X122187057Y-116558763D02*
X122183907Y-116558504D01*
X122183907Y-116558504D02*
X122180720Y-116558430D01*
X122180720Y-116558430D02*
X122177521Y-116558541D01*
X122177521Y-116558541D02*
X122174332Y-116558833D01*
X122174332Y-116558833D02*
X122171178Y-116559306D01*
X122171178Y-116559306D02*
X122168082Y-116559959D01*
X122168082Y-116559959D02*
X122165069Y-116560789D01*
X122165069Y-116560789D02*
X122162162Y-116561796D01*
X122162162Y-116561796D02*
X122159386Y-116562977D01*
X122159386Y-116562977D02*
X122156763Y-116564332D01*
X122156763Y-116564332D02*
X122154319Y-116565858D01*
X122154319Y-116565858D02*
X121637183Y-116920647D01*
X121637183Y-116920647D02*
X121635997Y-116921413D01*
X121635997Y-116921413D02*
X121634777Y-116922120D01*
X121634777Y-116922120D02*
X121633525Y-116922768D01*
X121633525Y-116922768D02*
X121632242Y-116923357D01*
X121632242Y-116923357D02*
X121630933Y-116923888D01*
X121630933Y-116923888D02*
X121629599Y-116924361D01*
X121629599Y-116924361D02*
X121626870Y-116925133D01*
X121626870Y-116925133D02*
X121624075Y-116925673D01*
X121624075Y-116925673D02*
X121621236Y-116925985D01*
X121621236Y-116925985D02*
X121618375Y-116926069D01*
X121618375Y-116926069D02*
X121615513Y-116925926D01*
X121615513Y-116925926D02*
X121612671Y-116925558D01*
X121612671Y-116925558D02*
X121609871Y-116924968D01*
X121609871Y-116924968D02*
X121607135Y-116924155D01*
X121607135Y-116924155D02*
X121604483Y-116923122D01*
X121604483Y-116923122D02*
X121601937Y-116921869D01*
X121601937Y-116921869D02*
X121600710Y-116921162D01*
X121600710Y-116921162D02*
X121599518Y-116920400D01*
X121599518Y-116920400D02*
X121598363Y-116919584D01*
X121598363Y-116919584D02*
X121597248Y-116918714D01*
X121597248Y-116918714D02*
X121596176Y-116917790D01*
X121596176Y-116917790D02*
X121595149Y-116916813D01*
X121595149Y-116916813D02*
X121152024Y-116473615D01*
X121152024Y-116473615D02*
X121151046Y-116472588D01*
X121151046Y-116472588D02*
X121150122Y-116471516D01*
X121150122Y-116471516D02*
X121149250Y-116470401D01*
X121149250Y-116470401D02*
X121148431Y-116469246D01*
X121148431Y-116469246D02*
X121147666Y-116468054D01*
X121147666Y-116468054D02*
X121146955Y-116466828D01*
X121146955Y-116466828D02*
X121146297Y-116465569D01*
X121146297Y-116465569D02*
X121145694Y-116464282D01*
X121145694Y-116464282D02*
X121145145Y-116462968D01*
X121145145Y-116462968D02*
X121144650Y-116461630D01*
X121144650Y-116461630D02*
X121143827Y-116458893D01*
X121143827Y-116458893D02*
X121143225Y-116456093D01*
X121143225Y-116456093D02*
X121142847Y-116453252D01*
X121142847Y-116453252D02*
X121142695Y-116450390D01*
X121142695Y-116450390D02*
X121142770Y-116447529D01*
X121142770Y-116447529D02*
X121143075Y-116444690D01*
X121143075Y-116444690D02*
X121143314Y-116443286D01*
X121143314Y-116443286D02*
X121143612Y-116441895D01*
X121143612Y-116441895D02*
X121143968Y-116440521D01*
X121143968Y-116440521D02*
X121144383Y-116439166D01*
X121144383Y-116439166D02*
X121144856Y-116437832D01*
X121144856Y-116437832D02*
X121145389Y-116436523D01*
X121145389Y-116436523D02*
X121145981Y-116435240D01*
X121145981Y-116435240D02*
X121146633Y-116433988D01*
X121146633Y-116433988D02*
X121147345Y-116432767D01*
X121147345Y-116432767D02*
X121148117Y-116431582D01*
X121148117Y-116431582D02*
X121509201Y-115905402D01*
X121509201Y-115905402D02*
X121510722Y-115902968D01*
X121510722Y-115902968D02*
X121512077Y-115900350D01*
X121512077Y-115900350D02*
X121513263Y-115897573D01*
X121513263Y-115897573D02*
X121514280Y-115894660D01*
X121514280Y-115894660D02*
X121515124Y-115891636D01*
X121515124Y-115891636D02*
X121515795Y-115888527D01*
X121515795Y-115888527D02*
X121516291Y-115885356D01*
X121516291Y-115885356D02*
X121516610Y-115882148D01*
X121516610Y-115882148D02*
X121516751Y-115878927D01*
X121516751Y-115878927D02*
X121516711Y-115875718D01*
X121516711Y-115875718D02*
X121516490Y-115872545D01*
X121516490Y-115872545D02*
X121516086Y-115869434D01*
X121516086Y-115869434D02*
X121515496Y-115866408D01*
X121515496Y-115866408D02*
X121514720Y-115863492D01*
X121514720Y-115863492D02*
X121513756Y-115860710D01*
X121513756Y-115860710D02*
X121512601Y-115858087D01*
X121512601Y-115858087D02*
X121339764Y-115435942D01*
X121339764Y-115435942D02*
X121339287Y-115434600D01*
X121339287Y-115434600D02*
X121338746Y-115433262D01*
X121338746Y-115433262D02*
X121338144Y-115431929D01*
X121338144Y-115431929D02*
X121337483Y-115430605D01*
X121337483Y-115430605D02*
X121335991Y-115427989D01*
X121335991Y-115427989D02*
X121334291Y-115425430D01*
X121334291Y-115425430D02*
X121332399Y-115422942D01*
X121332399Y-115422942D02*
X121330335Y-115420542D01*
X121330335Y-115420542D02*
X121328115Y-115418245D01*
X121328115Y-115418245D02*
X121325759Y-115416068D01*
X121325759Y-115416068D02*
X121323284Y-115414025D01*
X121323284Y-115414025D02*
X121320709Y-115412134D01*
X121320709Y-115412134D02*
X121318052Y-115410409D01*
X121318052Y-115410409D02*
X121315331Y-115408866D01*
X121315331Y-115408866D02*
X121312564Y-115407521D01*
X121312564Y-115407521D02*
X121309769Y-115406390D01*
X121309769Y-115406390D02*
X121306965Y-115405489D01*
X121306965Y-115405489D02*
X121305565Y-115405129D01*
X121305565Y-115405129D02*
X121304169Y-115404833D01*
X121304169Y-115404833D02*
X120674316Y-115287631D01*
X120674316Y-115287631D02*
X120672932Y-115287340D01*
X120672932Y-115287340D02*
X120671565Y-115286981D01*
X120671565Y-115286981D02*
X120670218Y-115286556D01*
X120670218Y-115286556D02*
X120668892Y-115286068D01*
X120668892Y-115286068D02*
X120667589Y-115285519D01*
X120667589Y-115285519D02*
X120666310Y-115284910D01*
X120666310Y-115284910D02*
X120665058Y-115284245D01*
X120665058Y-115284245D02*
X120663833Y-115283524D01*
X120663833Y-115283524D02*
X120662639Y-115282751D01*
X120662639Y-115282751D02*
X120661475Y-115281926D01*
X120661475Y-115281926D02*
X120660345Y-115281053D01*
X120660345Y-115281053D02*
X120659250Y-115280133D01*
X120659250Y-115280133D02*
X120658192Y-115279169D01*
X120658192Y-115279169D02*
X120657172Y-115278162D01*
X120657172Y-115278162D02*
X120656192Y-115277114D01*
X120656192Y-115277114D02*
X120655253Y-115276029D01*
X120655253Y-115276029D02*
X120654359Y-115274907D01*
X120654359Y-115274907D02*
X120653509Y-115273751D01*
X120653509Y-115273751D02*
X120652707Y-115272562D01*
X120652707Y-115272562D02*
X120651953Y-115271344D01*
X120651953Y-115271344D02*
X120651249Y-115270098D01*
X120651249Y-115270098D02*
X120650598Y-115268826D01*
X120650598Y-115268826D02*
X120650000Y-115267531D01*
X120650000Y-115267531D02*
X120649459Y-115266213D01*
X120649459Y-115266213D02*
X120648974Y-115264877D01*
X120648974Y-115264877D02*
X120648548Y-115263522D01*
X120648548Y-115263522D02*
X120648184Y-115262153D01*
X120648184Y-115262153D02*
X120647881Y-115260770D01*
X120647881Y-115260770D02*
X120647643Y-115259376D01*
X120647643Y-115259376D02*
X120647471Y-115257973D01*
X120647471Y-115257973D02*
X120647366Y-115256562D01*
X120647366Y-115256562D02*
X120647331Y-115255147D01*
X120647331Y-115255147D02*
X120647331Y-114628405D01*
X120647331Y-114628405D02*
X120647331Y-114628405D01*
G36*
X123441775Y-112462009D02*
G01*
X123443186Y-112462114D01*
X123444591Y-112462286D01*
X123445987Y-112462524D01*
X123447372Y-112462827D01*
X123448744Y-112463192D01*
X123450102Y-112463617D01*
X123451442Y-112464102D01*
X123454063Y-112465241D01*
X123456589Y-112466596D01*
X123459004Y-112468152D01*
X123461291Y-112469897D01*
X123463432Y-112471815D01*
X123465411Y-112473894D01*
X123467211Y-112476119D01*
X123468038Y-112477282D01*
X123468813Y-112478477D01*
X123469535Y-112479701D01*
X123470202Y-112480953D01*
X123470811Y-112482232D01*
X123471360Y-112483535D01*
X123471847Y-112484861D01*
X123472270Y-112486209D01*
X123472627Y-112487575D01*
X123472915Y-112488960D01*
X123583389Y-113082929D01*
X123583676Y-113084324D01*
X123584028Y-113085723D01*
X123584918Y-113088525D01*
X123586043Y-113091315D01*
X123587387Y-113094076D01*
X123588934Y-113096789D01*
X123590667Y-113099435D01*
X123592570Y-113101997D01*
X123594627Y-113104457D01*
X123596820Y-113106795D01*
X123599135Y-113108994D01*
X123601554Y-113111035D01*
X123604061Y-113112900D01*
X123606640Y-113114570D01*
X123609274Y-113116029D01*
X123611947Y-113117256D01*
X123613293Y-113117777D01*
X123614643Y-113118234D01*
X124077881Y-113303659D01*
X124080516Y-113304806D01*
X124083307Y-113305763D01*
X124086229Y-113306531D01*
X124089259Y-113307111D01*
X124092372Y-113307506D01*
X124095544Y-113307717D01*
X124098751Y-113307747D01*
X124101969Y-113307596D01*
X124105174Y-113307267D01*
X124108340Y-113306761D01*
X124111445Y-113306080D01*
X124114464Y-113305226D01*
X124117373Y-113304201D01*
X124120147Y-113303006D01*
X124122763Y-113301643D01*
X124125196Y-113300114D01*
X124616866Y-112962760D01*
X124618052Y-112961991D01*
X124619273Y-112961283D01*
X124620526Y-112960634D01*
X124621810Y-112960044D01*
X124623121Y-112959514D01*
X124624457Y-112959043D01*
X124627191Y-112958276D01*
X124629991Y-112957742D01*
X124632836Y-112957439D01*
X124635703Y-112957365D01*
X124638572Y-112957518D01*
X124641421Y-112957896D01*
X124644227Y-112958496D01*
X124646970Y-112959317D01*
X124649627Y-112960358D01*
X124652178Y-112961615D01*
X124653406Y-112962324D01*
X124654600Y-112963087D01*
X124655756Y-112963902D01*
X124656872Y-112964771D01*
X124657945Y-112965693D01*
X124658972Y-112966667D01*
X125102098Y-113409865D01*
X125103068Y-113410889D01*
X125103987Y-113411958D01*
X125104853Y-113413071D01*
X125105666Y-113414225D01*
X125106426Y-113415416D01*
X125107133Y-113416642D01*
X125107786Y-113417901D01*
X125108386Y-113419189D01*
X125108932Y-113420504D01*
X125109423Y-113421843D01*
X125110242Y-113424584D01*
X125110842Y-113427389D01*
X125111219Y-113430237D01*
X125111372Y-113433106D01*
X125111299Y-113435975D01*
X125110998Y-113438822D01*
X125110762Y-113440230D01*
X125110468Y-113441625D01*
X125110115Y-113443004D01*
X125109705Y-113444363D01*
X125109236Y-113445701D01*
X125108708Y-113447015D01*
X125108121Y-113448301D01*
X125107475Y-113449558D01*
X125106770Y-113450782D01*
X125106005Y-113451971D01*
X124774510Y-113934887D01*
X124773005Y-113937315D01*
X124771685Y-113939916D01*
X124770549Y-113942667D01*
X124769600Y-113945544D01*
X124768837Y-113948522D01*
X124768261Y-113951578D01*
X124767872Y-113954689D01*
X124767672Y-113957829D01*
X124767661Y-113960977D01*
X124767839Y-113964107D01*
X124768207Y-113967195D01*
X124768766Y-113970219D01*
X124769516Y-113973154D01*
X124770457Y-113975977D01*
X124771592Y-113978663D01*
X124772919Y-113981189D01*
X124886648Y-114194178D01*
X124887257Y-114195449D01*
X124887792Y-114196730D01*
X124888253Y-114198020D01*
X124888643Y-114199317D01*
X124888961Y-114200618D01*
X124889208Y-114201922D01*
X124889386Y-114203225D01*
X124889495Y-114204525D01*
X124889537Y-114205821D01*
X124889511Y-114207111D01*
X124889418Y-114208391D01*
X124889261Y-114209659D01*
X124889039Y-114210914D01*
X124888753Y-114212154D01*
X124888405Y-114213375D01*
X124887994Y-114214576D01*
X124887522Y-114215754D01*
X124886991Y-114216907D01*
X124886399Y-114218034D01*
X124885750Y-114219131D01*
X124885042Y-114220196D01*
X124884278Y-114221228D01*
X124883458Y-114222224D01*
X124882582Y-114223181D01*
X124881653Y-114224098D01*
X124880670Y-114224973D01*
X124879634Y-114225802D01*
X124878547Y-114226584D01*
X124877409Y-114227316D01*
X124876221Y-114227997D01*
X124874984Y-114228624D01*
X124873699Y-114229194D01*
X123812585Y-114668413D01*
X123811265Y-114668924D01*
X123809924Y-114669368D01*
X123808566Y-114669744D01*
X123807192Y-114670055D01*
X123805806Y-114670301D01*
X123804410Y-114670482D01*
X123801597Y-114670656D01*
X123798774Y-114670583D01*
X123795961Y-114670270D01*
X123793179Y-114669724D01*
X123790447Y-114668953D01*
X123787787Y-114667962D01*
X123785218Y-114666759D01*
X123782762Y-114665350D01*
X123780437Y-114663742D01*
X123778265Y-114661943D01*
X123777242Y-114660974D01*
X123776265Y-114659959D01*
X123775337Y-114658900D01*
X123774459Y-114657797D01*
X123773635Y-114656651D01*
X123772866Y-114655463D01*
X123740238Y-114602216D01*
X123737794Y-114598368D01*
X123735004Y-114594265D01*
X123731929Y-114589982D01*
X123728630Y-114585595D01*
X123725167Y-114581178D01*
X123721602Y-114576806D01*
X123717996Y-114572556D01*
X123714410Y-114568502D01*
X123690258Y-114533221D01*
X123664035Y-114499548D01*
X123635834Y-114467574D01*
X123605745Y-114437393D01*
X123573860Y-114409096D01*
X123540270Y-114382776D01*
X123505065Y-114358525D01*
X123468338Y-114336435D01*
X123430179Y-114316598D01*
X123410591Y-114307553D01*
X123390680Y-114299107D01*
X123370456Y-114291270D01*
X123349931Y-114284053D01*
X123329117Y-114277470D01*
X123308024Y-114271530D01*
X123286665Y-114266246D01*
X123265051Y-114261629D01*
X123243193Y-114257691D01*
X123221102Y-114254443D01*
X123198790Y-114251897D01*
X123176268Y-114250064D01*
X123153549Y-114248955D01*
X123130642Y-114248583D01*
X123094974Y-114249485D01*
X123059774Y-114252163D01*
X123025086Y-114256571D01*
X122990953Y-114262668D01*
X122957419Y-114270409D01*
X122924527Y-114279751D01*
X122892320Y-114290651D01*
X122860844Y-114303063D01*
X122830140Y-114316946D01*
X122800252Y-114332256D01*
X122771225Y-114348948D01*
X122743101Y-114366979D01*
X122715925Y-114386307D01*
X122689739Y-114406886D01*
X122664588Y-114428674D01*
X122640515Y-114451627D01*
X122617563Y-114475701D01*
X122595776Y-114500853D01*
X122575198Y-114527039D01*
X122555871Y-114554216D01*
X122537841Y-114582340D01*
X122521150Y-114611367D01*
X122505842Y-114641254D01*
X122491960Y-114671957D01*
X122479548Y-114703433D01*
X122468650Y-114735639D01*
X122459309Y-114768529D01*
X122451569Y-114802062D01*
X122445472Y-114836193D01*
X122441064Y-114870879D01*
X122438387Y-114906075D01*
X122437485Y-114941740D01*
X122438387Y-114977404D01*
X122441064Y-115012600D01*
X122445472Y-115047283D01*
X122451569Y-115081412D01*
X122459309Y-115114941D01*
X122468650Y-115147828D01*
X122479548Y-115180029D01*
X122491960Y-115211500D01*
X122505842Y-115242198D01*
X122521150Y-115272080D01*
X122537841Y-115301101D01*
X122555871Y-115329218D01*
X122575198Y-115356389D01*
X122595776Y-115382568D01*
X122617563Y-115407714D01*
X122640515Y-115431781D01*
X122664588Y-115454727D01*
X122689739Y-115476508D01*
X122715925Y-115497081D01*
X122743101Y-115516402D01*
X122771225Y-115534427D01*
X122800252Y-115551113D01*
X122830140Y-115566417D01*
X122860844Y-115580295D01*
X122892320Y-115592702D01*
X122924527Y-115603597D01*
X122957419Y-115612935D01*
X122990953Y-115620673D01*
X123025086Y-115626767D01*
X123059774Y-115631174D01*
X123094974Y-115633850D01*
X123130642Y-115634752D01*
X123176268Y-115633273D01*
X123221102Y-115628897D01*
X123265051Y-115621716D01*
X123308024Y-115611822D01*
X123349931Y-115599306D01*
X123390680Y-115584261D01*
X123430179Y-115566779D01*
X123468338Y-115546951D01*
X123505065Y-115524869D01*
X123540270Y-115500625D01*
X123573860Y-115474311D01*
X123605745Y-115446019D01*
X123635834Y-115415840D01*
X123664035Y-115383867D01*
X123690258Y-115350192D01*
X123714410Y-115314906D01*
X123717996Y-115310874D01*
X123721602Y-115306638D01*
X123725167Y-115302276D01*
X123728630Y-115297863D01*
X123731929Y-115293478D01*
X123735004Y-115289199D01*
X123737794Y-115285102D01*
X123740238Y-115281265D01*
X123772866Y-115227945D01*
X123773635Y-115226764D01*
X123774459Y-115225625D01*
X123775337Y-115224528D01*
X123776265Y-115223475D01*
X123777242Y-115222466D01*
X123778265Y-115221502D01*
X123779330Y-115220584D01*
X123780437Y-115219713D01*
X123781581Y-115218890D01*
X123782762Y-115218115D01*
X123783975Y-115217389D01*
X123785218Y-115216714D01*
X123786490Y-115216090D01*
X123787787Y-115215518D01*
X123789107Y-115214998D01*
X123790447Y-115214533D01*
X123791805Y-115214121D01*
X123793179Y-115213765D01*
X123794565Y-115213465D01*
X123795961Y-115213223D01*
X123797365Y-115213038D01*
X123798774Y-115212912D01*
X123800185Y-115212845D01*
X123801597Y-115212839D01*
X123803006Y-115212894D01*
X123804410Y-115213011D01*
X123805806Y-115213191D01*
X123807192Y-115213435D01*
X123808566Y-115213744D01*
X123809924Y-115214118D01*
X123811265Y-115214559D01*
X123812585Y-115215067D01*
X124873771Y-115654213D01*
X124875056Y-115654784D01*
X124876292Y-115655410D01*
X124877478Y-115656091D01*
X124878615Y-115656823D01*
X124879699Y-115657604D01*
X124880732Y-115658432D01*
X124881712Y-115659305D01*
X124882638Y-115660221D01*
X124883510Y-115661177D01*
X124884326Y-115662172D01*
X124885086Y-115663203D01*
X124885789Y-115664267D01*
X124886435Y-115665363D01*
X124887021Y-115666488D01*
X124887549Y-115667641D01*
X124888016Y-115668818D01*
X124888423Y-115670018D01*
X124888767Y-115671239D01*
X124889049Y-115672477D01*
X124889268Y-115673732D01*
X124889422Y-115675000D01*
X124889511Y-115676281D01*
X124889534Y-115677570D01*
X124889491Y-115678867D01*
X124889380Y-115680168D01*
X124889201Y-115681472D01*
X124888953Y-115682777D01*
X124888635Y-115684080D01*
X124888247Y-115685379D01*
X124887787Y-115686671D01*
X124887254Y-115687955D01*
X124886648Y-115689229D01*
X124772919Y-115902219D01*
X124771591Y-115904751D01*
X124770456Y-115907442D01*
X124769513Y-115910267D01*
X124768761Y-115913204D01*
X124768200Y-115916229D01*
X124767829Y-115919317D01*
X124767649Y-115922446D01*
X124767658Y-115925592D01*
X124767857Y-115928731D01*
X124768244Y-115931839D01*
X124768820Y-115934893D01*
X124769584Y-115937869D01*
X124770535Y-115940743D01*
X124771674Y-115943493D01*
X124772999Y-115946093D01*
X124774510Y-115948521D01*
X125106005Y-116431510D01*
X125106770Y-116432695D01*
X125107475Y-116433916D01*
X125108121Y-116435170D01*
X125108708Y-116436453D01*
X125109236Y-116437764D01*
X125109705Y-116439099D01*
X125110468Y-116441833D01*
X125110998Y-116444632D01*
X125111299Y-116447476D01*
X125111372Y-116450341D01*
X125111219Y-116453207D01*
X125110842Y-116456052D01*
X125110242Y-116458853D01*
X125109423Y-116461590D01*
X125108386Y-116464241D01*
X125107133Y-116466783D01*
X125106426Y-116468007D01*
X125105666Y-116469195D01*
X125104853Y-116470346D01*
X125103987Y-116471456D01*
X125103068Y-116472523D01*
X125102098Y-116473543D01*
X124658972Y-116916813D01*
X124657945Y-116917791D01*
X124656872Y-116918715D01*
X124655756Y-116919585D01*
X124654600Y-116920403D01*
X124653406Y-116921166D01*
X124652178Y-116921876D01*
X124650917Y-116922531D01*
X124649627Y-116923132D01*
X124648311Y-116923678D01*
X124646970Y-116924170D01*
X124644227Y-116924987D01*
X124641421Y-116925582D01*
X124638572Y-116925954D01*
X124635703Y-116926099D01*
X124632836Y-116926017D01*
X124629991Y-116925706D01*
X124628584Y-116925464D01*
X124627191Y-116925164D01*
X124625814Y-116924805D01*
X124624457Y-116924388D01*
X124623121Y-116923913D01*
X124621810Y-116923378D01*
X124620526Y-116922785D01*
X124619273Y-116922132D01*
X124618052Y-116921420D01*
X124616866Y-116920647D01*
X124125196Y-116583221D01*
X124122763Y-116581705D01*
X124120147Y-116580354D01*
X124117373Y-116579169D01*
X124114464Y-116578152D01*
X124111445Y-116577305D01*
X124108340Y-116576630D01*
X124105174Y-116576129D01*
X124101969Y-116575804D01*
X124098751Y-116575656D01*
X124095544Y-116575687D01*
X124092372Y-116575900D01*
X124089259Y-116576296D01*
X124086229Y-116576877D01*
X124083307Y-116577645D01*
X124080516Y-116578601D01*
X124077881Y-116579749D01*
X123614716Y-116765174D01*
X123613366Y-116765634D01*
X123612020Y-116766157D01*
X123609346Y-116767385D01*
X123606712Y-116768841D01*
X123604133Y-116770507D01*
X123601626Y-116772365D01*
X123599207Y-116774398D01*
X123596893Y-116776587D01*
X123594699Y-116778915D01*
X123592643Y-116781364D01*
X123590740Y-116783916D01*
X123589006Y-116786554D01*
X123587460Y-116789260D01*
X123586115Y-116792016D01*
X123584990Y-116794804D01*
X123584515Y-116796205D01*
X123584100Y-116797607D01*
X123583748Y-116799008D01*
X123583462Y-116800407D01*
X123472915Y-117394376D01*
X123472627Y-117395757D01*
X123472271Y-117397121D01*
X123471849Y-117398467D01*
X123471363Y-117399792D01*
X123470816Y-117401096D01*
X123470209Y-117402375D01*
X123469544Y-117403628D01*
X123468824Y-117404854D01*
X123468051Y-117406051D01*
X123467227Y-117407217D01*
X123466354Y-117408350D01*
X123465434Y-117409448D01*
X123464469Y-117410510D01*
X123463462Y-117411534D01*
X123462414Y-117412519D01*
X123461327Y-117413461D01*
X123460204Y-117414360D01*
X123459047Y-117415214D01*
X123457858Y-117416021D01*
X123456638Y-117416779D01*
X123455391Y-117417487D01*
X123454118Y-117418142D01*
X123452821Y-117418744D01*
X123451503Y-117419290D01*
X123450165Y-117419778D01*
X123448810Y-117420206D01*
X123447439Y-117420574D01*
X123446056Y-117420879D01*
X123444661Y-117421119D01*
X123443257Y-117421293D01*
X123441847Y-117421398D01*
X123440432Y-117421434D01*
X122813690Y-117421506D01*
X122812271Y-117421474D01*
X122810858Y-117421373D01*
X122809453Y-117421203D01*
X122808056Y-117420968D01*
X122806672Y-117420668D01*
X122805301Y-117420306D01*
X122803945Y-117419882D01*
X122802607Y-117419400D01*
X122801289Y-117418860D01*
X122799992Y-117418265D01*
X122797473Y-117416914D01*
X122795065Y-117415361D01*
X122792786Y-117413620D01*
X122790651Y-117411705D01*
X122788677Y-117409629D01*
X122786880Y-117407408D01*
X122785277Y-117405054D01*
X122784554Y-117403832D01*
X122783885Y-117402582D01*
X122783273Y-117401306D01*
X122782719Y-117400005D01*
X122782226Y-117398682D01*
X122781797Y-117397337D01*
X122781431Y-117395974D01*
X122781133Y-117394593D01*
X122667911Y-116785648D01*
X122667261Y-116782856D01*
X122666366Y-116780048D01*
X122665240Y-116777243D01*
X122663900Y-116774459D01*
X122662361Y-116771716D01*
X122660639Y-116769032D01*
X122658751Y-116766426D01*
X122656712Y-116763916D01*
X122654538Y-116761521D01*
X122652245Y-116759260D01*
X122649848Y-116757152D01*
X122647364Y-116755214D01*
X122644809Y-116753466D01*
X122642198Y-116751926D01*
X122639548Y-116750614D01*
X122636873Y-116749547D01*
X122201417Y-116562892D01*
X122198810Y-116561683D01*
X122196046Y-116560667D01*
X122193150Y-116559843D01*
X122190146Y-116559209D01*
X122187057Y-116558763D01*
X122183907Y-116558504D01*
X122180720Y-116558430D01*
X122177521Y-116558541D01*
X122174332Y-116558833D01*
X122171178Y-116559306D01*
X122168082Y-116559959D01*
X122165069Y-116560789D01*
X122162162Y-116561796D01*
X122159386Y-116562977D01*
X122156763Y-116564332D01*
X122154319Y-116565858D01*
X121637183Y-116920647D01*
X121635997Y-116921413D01*
X121634777Y-116922120D01*
X121633525Y-116922768D01*
X121632242Y-116923357D01*
X121630933Y-116923888D01*
X121629599Y-116924361D01*
X121626870Y-116925133D01*
X121624075Y-116925673D01*
X121621236Y-116925985D01*
X121618375Y-116926069D01*
X121615513Y-116925926D01*
X121612671Y-116925558D01*
X121609871Y-116924968D01*
X121607135Y-116924155D01*
X121604483Y-116923122D01*
X121601937Y-116921869D01*
X121600710Y-116921162D01*
X121599518Y-116920400D01*
X121598363Y-116919584D01*
X121597248Y-116918714D01*
X121596176Y-116917790D01*
X121595149Y-116916813D01*
X121152024Y-116473615D01*
X121151046Y-116472588D01*
X121150122Y-116471516D01*
X121149250Y-116470401D01*
X121148431Y-116469246D01*
X121147666Y-116468054D01*
X121146955Y-116466828D01*
X121146297Y-116465569D01*
X121145694Y-116464282D01*
X121145145Y-116462968D01*
X121144650Y-116461630D01*
X121143827Y-116458893D01*
X121143225Y-116456093D01*
X121142847Y-116453252D01*
X121142695Y-116450390D01*
X121142770Y-116447529D01*
X121143075Y-116444690D01*
X121143314Y-116443286D01*
X121143612Y-116441895D01*
X121143968Y-116440521D01*
X121144383Y-116439166D01*
X121144856Y-116437832D01*
X121145389Y-116436523D01*
X121145981Y-116435240D01*
X121146633Y-116433988D01*
X121147345Y-116432767D01*
X121148117Y-116431582D01*
X121509201Y-115905402D01*
X121510722Y-115902968D01*
X121512077Y-115900350D01*
X121513263Y-115897573D01*
X121514280Y-115894660D01*
X121515124Y-115891636D01*
X121515795Y-115888527D01*
X121516291Y-115885356D01*
X121516610Y-115882148D01*
X121516751Y-115878927D01*
X121516711Y-115875718D01*
X121516490Y-115872545D01*
X121516086Y-115869434D01*
X121515496Y-115866408D01*
X121514720Y-115863492D01*
X121513756Y-115860710D01*
X121512601Y-115858087D01*
X121339764Y-115435942D01*
X121339287Y-115434600D01*
X121338746Y-115433262D01*
X121338144Y-115431929D01*
X121337483Y-115430605D01*
X121335991Y-115427989D01*
X121334291Y-115425430D01*
X121332399Y-115422942D01*
X121330335Y-115420542D01*
X121328115Y-115418245D01*
X121325759Y-115416068D01*
X121323284Y-115414025D01*
X121320709Y-115412134D01*
X121318052Y-115410409D01*
X121315331Y-115408866D01*
X121312564Y-115407521D01*
X121309769Y-115406390D01*
X121306965Y-115405489D01*
X121305565Y-115405129D01*
X121304169Y-115404833D01*
X120674316Y-115287631D01*
X120672932Y-115287340D01*
X120671565Y-115286981D01*
X120670218Y-115286556D01*
X120668892Y-115286068D01*
X120667589Y-115285519D01*
X120666310Y-115284910D01*
X120665058Y-115284245D01*
X120663833Y-115283524D01*
X120662639Y-115282751D01*
X120661475Y-115281926D01*
X120660345Y-115281053D01*
X120659250Y-115280133D01*
X120658192Y-115279169D01*
X120657172Y-115278162D01*
X120656192Y-115277114D01*
X120655253Y-115276029D01*
X120654359Y-115274907D01*
X120653509Y-115273751D01*
X120652707Y-115272562D01*
X120651953Y-115271344D01*
X120651249Y-115270098D01*
X120650598Y-115268826D01*
X120650000Y-115267531D01*
X120649459Y-115266213D01*
X120648974Y-115264877D01*
X120648548Y-115263522D01*
X120648184Y-115262153D01*
X120647881Y-115260770D01*
X120647643Y-115259376D01*
X120647471Y-115257973D01*
X120647366Y-115256562D01*
X120647331Y-115255147D01*
X120647331Y-114628405D01*
X120647366Y-114626993D01*
X120647471Y-114625586D01*
X120647643Y-114624185D01*
X120647881Y-114622793D01*
X120648184Y-114621412D01*
X120648548Y-114620044D01*
X120648974Y-114618691D01*
X120649459Y-114617355D01*
X120650000Y-114616038D01*
X120650598Y-114614743D01*
X120651953Y-114612225D01*
X120653509Y-114609817D01*
X120655253Y-114607538D01*
X120657172Y-114605402D01*
X120659250Y-114603429D01*
X120661475Y-114601633D01*
X120662639Y-114600808D01*
X120663833Y-114600033D01*
X120665058Y-114599312D01*
X120666310Y-114598645D01*
X120667589Y-114598036D01*
X120668892Y-114597486D01*
X120670218Y-114596997D01*
X120671565Y-114596572D01*
X120672932Y-114596213D01*
X120674316Y-114595921D01*
X121304169Y-114478719D01*
X121306965Y-114478064D01*
X121309769Y-114477164D01*
X121312564Y-114476035D01*
X121315331Y-114474692D01*
X121318052Y-114473151D01*
X121320709Y-114471429D01*
X121323284Y-114469539D01*
X121325759Y-114467499D01*
X121328115Y-114465323D01*
X121330335Y-114463027D01*
X121332399Y-114460627D01*
X121334291Y-114458138D01*
X121335991Y-114455577D01*
X121337483Y-114452958D01*
X121338746Y-114450297D01*
X121339764Y-114447610D01*
X121512601Y-114025465D01*
X121513756Y-114022836D01*
X121514720Y-114020049D01*
X121515496Y-114017128D01*
X121516086Y-114014098D01*
X121516490Y-114010983D01*
X121516711Y-114007808D01*
X121516751Y-114004598D01*
X121516610Y-114001377D01*
X121516291Y-113998169D01*
X121515795Y-113994999D01*
X121515124Y-113991892D01*
X121514280Y-113988872D01*
X121513263Y-113985963D01*
X121512077Y-113983190D01*
X121510722Y-113980578D01*
X121509201Y-113978150D01*
X121148117Y-113451971D01*
X121147345Y-113450782D01*
X121146633Y-113449558D01*
X121145981Y-113448301D01*
X121145389Y-113447015D01*
X121144856Y-113445701D01*
X121144383Y-113444363D01*
X121143612Y-113441625D01*
X121143075Y-113438822D01*
X121142770Y-113435975D01*
X121142695Y-113433106D01*
X121142847Y-113430237D01*
X121143225Y-113427389D01*
X121143827Y-113424584D01*
X121144650Y-113421843D01*
X121145694Y-113419189D01*
X121146955Y-113416642D01*
X121147666Y-113415416D01*
X121148431Y-113414225D01*
X121149250Y-113413071D01*
X121150122Y-113411958D01*
X121151046Y-113410889D01*
X121152024Y-113409865D01*
X121595149Y-112966739D01*
X121596176Y-112965765D01*
X121597248Y-112964843D01*
X121598363Y-112963974D01*
X121599518Y-112963157D01*
X121600710Y-112962394D01*
X121601937Y-112961684D01*
X121603195Y-112961027D01*
X121604483Y-112960425D01*
X121605797Y-112959876D01*
X121607135Y-112959382D01*
X121609871Y-112958559D01*
X121612671Y-112957956D01*
X121615513Y-112957576D01*
X121618375Y-112957422D01*
X121621236Y-112957495D01*
X121624075Y-112957798D01*
X121625479Y-112958036D01*
X121626870Y-112958333D01*
X121628244Y-112958688D01*
X121629599Y-112959101D01*
X121630933Y-112959574D01*
X121632242Y-112960106D01*
X121633525Y-112960698D01*
X121634777Y-112961349D01*
X121635997Y-112962061D01*
X121637183Y-112962832D01*
X122154319Y-113317695D01*
X122156763Y-113319207D01*
X122159386Y-113320549D01*
X122162162Y-113321719D01*
X122165069Y-113322715D01*
X122168082Y-113323536D01*
X122171178Y-113324181D01*
X122174332Y-113324647D01*
X122177521Y-113324934D01*
X122180720Y-113325040D01*
X122183907Y-113324963D01*
X122187057Y-113324703D01*
X122190146Y-113324257D01*
X122193150Y-113323624D01*
X122196046Y-113322802D01*
X122198810Y-113321791D01*
X122201417Y-113320588D01*
X122636873Y-113133861D01*
X122638213Y-113133363D01*
X122639548Y-113132802D01*
X122642198Y-113131498D01*
X122644809Y-113129969D01*
X122647364Y-113128231D01*
X122649848Y-113126304D01*
X122652245Y-113124206D01*
X122654538Y-113121955D01*
X122656712Y-113119569D01*
X122658751Y-113117067D01*
X122660639Y-113114467D01*
X122662361Y-113111787D01*
X122663900Y-113109046D01*
X122665240Y-113106261D01*
X122666366Y-113103452D01*
X122666843Y-113102044D01*
X122667261Y-113100636D01*
X122667618Y-113099231D01*
X122667911Y-113097832D01*
X122781133Y-112488960D01*
X122781431Y-112487572D01*
X122781796Y-112486203D01*
X122782226Y-112484853D01*
X122782718Y-112483525D01*
X122783270Y-112482220D01*
X122783882Y-112480940D01*
X122784549Y-112479686D01*
X122785271Y-112478461D01*
X122786046Y-112477266D01*
X122786871Y-112476102D01*
X122787744Y-112474972D01*
X122788664Y-112473877D01*
X122789628Y-112472819D01*
X122790633Y-112471800D01*
X122791680Y-112470820D01*
X122792764Y-112469883D01*
X122793884Y-112468989D01*
X122795038Y-112468140D01*
X122796224Y-112467339D01*
X122797440Y-112466586D01*
X122798684Y-112465884D01*
X122799953Y-112465234D01*
X122801247Y-112464637D01*
X122802562Y-112464097D01*
X122803896Y-112463613D01*
X122805249Y-112463188D01*
X122806617Y-112462824D01*
X122807998Y-112462523D01*
X122809391Y-112462285D01*
X122810793Y-112462114D01*
X122812203Y-112462009D01*
X122813617Y-112461974D01*
X123440359Y-112461974D01*
X123441775Y-112462009D01*
G37*
X123441775Y-112462009D02*
X123443186Y-112462114D01*
X123444591Y-112462286D01*
X123445987Y-112462524D01*
X123447372Y-112462827D01*
X123448744Y-112463192D01*
X123450102Y-112463617D01*
X123451442Y-112464102D01*
X123454063Y-112465241D01*
X123456589Y-112466596D01*
X123459004Y-112468152D01*
X123461291Y-112469897D01*
X123463432Y-112471815D01*
X123465411Y-112473894D01*
X123467211Y-112476119D01*
X123468038Y-112477282D01*
X123468813Y-112478477D01*
X123469535Y-112479701D01*
X123470202Y-112480953D01*
X123470811Y-112482232D01*
X123471360Y-112483535D01*
X123471847Y-112484861D01*
X123472270Y-112486209D01*
X123472627Y-112487575D01*
X123472915Y-112488960D01*
X123583389Y-113082929D01*
X123583676Y-113084324D01*
X123584028Y-113085723D01*
X123584918Y-113088525D01*
X123586043Y-113091315D01*
X123587387Y-113094076D01*
X123588934Y-113096789D01*
X123590667Y-113099435D01*
X123592570Y-113101997D01*
X123594627Y-113104457D01*
X123596820Y-113106795D01*
X123599135Y-113108994D01*
X123601554Y-113111035D01*
X123604061Y-113112900D01*
X123606640Y-113114570D01*
X123609274Y-113116029D01*
X123611947Y-113117256D01*
X123613293Y-113117777D01*
X123614643Y-113118234D01*
X124077881Y-113303659D01*
X124080516Y-113304806D01*
X124083307Y-113305763D01*
X124086229Y-113306531D01*
X124089259Y-113307111D01*
X124092372Y-113307506D01*
X124095544Y-113307717D01*
X124098751Y-113307747D01*
X124101969Y-113307596D01*
X124105174Y-113307267D01*
X124108340Y-113306761D01*
X124111445Y-113306080D01*
X124114464Y-113305226D01*
X124117373Y-113304201D01*
X124120147Y-113303006D01*
X124122763Y-113301643D01*
X124125196Y-113300114D01*
X124616866Y-112962760D01*
X124618052Y-112961991D01*
X124619273Y-112961283D01*
X124620526Y-112960634D01*
X124621810Y-112960044D01*
X124623121Y-112959514D01*
X124624457Y-112959043D01*
X124627191Y-112958276D01*
X124629991Y-112957742D01*
X124632836Y-112957439D01*
X124635703Y-112957365D01*
X124638572Y-112957518D01*
X124641421Y-112957896D01*
X124644227Y-112958496D01*
X124646970Y-112959317D01*
X124649627Y-112960358D01*
X124652178Y-112961615D01*
X124653406Y-112962324D01*
X124654600Y-112963087D01*
X124655756Y-112963902D01*
X124656872Y-112964771D01*
X124657945Y-112965693D01*
X124658972Y-112966667D01*
X125102098Y-113409865D01*
X125103068Y-113410889D01*
X125103987Y-113411958D01*
X125104853Y-113413071D01*
X125105666Y-113414225D01*
X125106426Y-113415416D01*
X125107133Y-113416642D01*
X125107786Y-113417901D01*
X125108386Y-113419189D01*
X125108932Y-113420504D01*
X125109423Y-113421843D01*
X125110242Y-113424584D01*
X125110842Y-113427389D01*
X125111219Y-113430237D01*
X125111372Y-113433106D01*
X125111299Y-113435975D01*
X125110998Y-113438822D01*
X125110762Y-113440230D01*
X125110468Y-113441625D01*
X125110115Y-113443004D01*
X125109705Y-113444363D01*
X125109236Y-113445701D01*
X125108708Y-113447015D01*
X125108121Y-113448301D01*
X125107475Y-113449558D01*
X125106770Y-113450782D01*
X125106005Y-113451971D01*
X124774510Y-113934887D01*
X124773005Y-113937315D01*
X124771685Y-113939916D01*
X124770549Y-113942667D01*
X124769600Y-113945544D01*
X124768837Y-113948522D01*
X124768261Y-113951578D01*
X124767872Y-113954689D01*
X124767672Y-113957829D01*
X124767661Y-113960977D01*
X124767839Y-113964107D01*
X124768207Y-113967195D01*
X124768766Y-113970219D01*
X124769516Y-113973154D01*
X124770457Y-113975977D01*
X124771592Y-113978663D01*
X124772919Y-113981189D01*
X124886648Y-114194178D01*
X124887257Y-114195449D01*
X124887792Y-114196730D01*
X124888253Y-114198020D01*
X124888643Y-114199317D01*
X124888961Y-114200618D01*
X124889208Y-114201922D01*
X124889386Y-114203225D01*
X124889495Y-114204525D01*
X124889537Y-114205821D01*
X124889511Y-114207111D01*
X124889418Y-114208391D01*
X124889261Y-114209659D01*
X124889039Y-114210914D01*
X124888753Y-114212154D01*
X124888405Y-114213375D01*
X124887994Y-114214576D01*
X124887522Y-114215754D01*
X124886991Y-114216907D01*
X124886399Y-114218034D01*
X124885750Y-114219131D01*
X124885042Y-114220196D01*
X124884278Y-114221228D01*
X124883458Y-114222224D01*
X124882582Y-114223181D01*
X124881653Y-114224098D01*
X124880670Y-114224973D01*
X124879634Y-114225802D01*
X124878547Y-114226584D01*
X124877409Y-114227316D01*
X124876221Y-114227997D01*
X124874984Y-114228624D01*
X124873699Y-114229194D01*
X123812585Y-114668413D01*
X123811265Y-114668924D01*
X123809924Y-114669368D01*
X123808566Y-114669744D01*
X123807192Y-114670055D01*
X123805806Y-114670301D01*
X123804410Y-114670482D01*
X123801597Y-114670656D01*
X123798774Y-114670583D01*
X123795961Y-114670270D01*
X123793179Y-114669724D01*
X123790447Y-114668953D01*
X123787787Y-114667962D01*
X123785218Y-114666759D01*
X123782762Y-114665350D01*
X123780437Y-114663742D01*
X123778265Y-114661943D01*
X123777242Y-114660974D01*
X123776265Y-114659959D01*
X123775337Y-114658900D01*
X123774459Y-114657797D01*
X123773635Y-114656651D01*
X123772866Y-114655463D01*
X123740238Y-114602216D01*
X123737794Y-114598368D01*
X123735004Y-114594265D01*
X123731929Y-114589982D01*
X123728630Y-114585595D01*
X123725167Y-114581178D01*
X123721602Y-114576806D01*
X123717996Y-114572556D01*
X123714410Y-114568502D01*
X123690258Y-114533221D01*
X123664035Y-114499548D01*
X123635834Y-114467574D01*
X123605745Y-114437393D01*
X123573860Y-114409096D01*
X123540270Y-114382776D01*
X123505065Y-114358525D01*
X123468338Y-114336435D01*
X123430179Y-114316598D01*
X123410591Y-114307553D01*
X123390680Y-114299107D01*
X123370456Y-114291270D01*
X123349931Y-114284053D01*
X123329117Y-114277470D01*
X123308024Y-114271530D01*
X123286665Y-114266246D01*
X123265051Y-114261629D01*
X123243193Y-114257691D01*
X123221102Y-114254443D01*
X123198790Y-114251897D01*
X123176268Y-114250064D01*
X123153549Y-114248955D01*
X123130642Y-114248583D01*
X123094974Y-114249485D01*
X123059774Y-114252163D01*
X123025086Y-114256571D01*
X122990953Y-114262668D01*
X122957419Y-114270409D01*
X122924527Y-114279751D01*
X122892320Y-114290651D01*
X122860844Y-114303063D01*
X122830140Y-114316946D01*
X122800252Y-114332256D01*
X122771225Y-114348948D01*
X122743101Y-114366979D01*
X122715925Y-114386307D01*
X122689739Y-114406886D01*
X122664588Y-114428674D01*
X122640515Y-114451627D01*
X122617563Y-114475701D01*
X122595776Y-114500853D01*
X122575198Y-114527039D01*
X122555871Y-114554216D01*
X122537841Y-114582340D01*
X122521150Y-114611367D01*
X122505842Y-114641254D01*
X122491960Y-114671957D01*
X122479548Y-114703433D01*
X122468650Y-114735639D01*
X122459309Y-114768529D01*
X122451569Y-114802062D01*
X122445472Y-114836193D01*
X122441064Y-114870879D01*
X122438387Y-114906075D01*
X122437485Y-114941740D01*
X122438387Y-114977404D01*
X122441064Y-115012600D01*
X122445472Y-115047283D01*
X122451569Y-115081412D01*
X122459309Y-115114941D01*
X122468650Y-115147828D01*
X122479548Y-115180029D01*
X122491960Y-115211500D01*
X122505842Y-115242198D01*
X122521150Y-115272080D01*
X122537841Y-115301101D01*
X122555871Y-115329218D01*
X122575198Y-115356389D01*
X122595776Y-115382568D01*
X122617563Y-115407714D01*
X122640515Y-115431781D01*
X122664588Y-115454727D01*
X122689739Y-115476508D01*
X122715925Y-115497081D01*
X122743101Y-115516402D01*
X122771225Y-115534427D01*
X122800252Y-115551113D01*
X122830140Y-115566417D01*
X122860844Y-115580295D01*
X122892320Y-115592702D01*
X122924527Y-115603597D01*
X122957419Y-115612935D01*
X122990953Y-115620673D01*
X123025086Y-115626767D01*
X123059774Y-115631174D01*
X123094974Y-115633850D01*
X123130642Y-115634752D01*
X123176268Y-115633273D01*
X123221102Y-115628897D01*
X123265051Y-115621716D01*
X123308024Y-115611822D01*
X123349931Y-115599306D01*
X123390680Y-115584261D01*
X123430179Y-115566779D01*
X123468338Y-115546951D01*
X123505065Y-115524869D01*
X123540270Y-115500625D01*
X123573860Y-115474311D01*
X123605745Y-115446019D01*
X123635834Y-115415840D01*
X123664035Y-115383867D01*
X123690258Y-115350192D01*
X123714410Y-115314906D01*
X123717996Y-115310874D01*
X123721602Y-115306638D01*
X123725167Y-115302276D01*
X123728630Y-115297863D01*
X123731929Y-115293478D01*
X123735004Y-115289199D01*
X123737794Y-115285102D01*
X123740238Y-115281265D01*
X123772866Y-115227945D01*
X123773635Y-115226764D01*
X123774459Y-115225625D01*
X123775337Y-115224528D01*
X123776265Y-115223475D01*
X123777242Y-115222466D01*
X123778265Y-115221502D01*
X123779330Y-115220584D01*
X123780437Y-115219713D01*
X123781581Y-115218890D01*
X123782762Y-115218115D01*
X123783975Y-115217389D01*
X123785218Y-115216714D01*
X123786490Y-115216090D01*
X123787787Y-115215518D01*
X123789107Y-115214998D01*
X123790447Y-115214533D01*
X123791805Y-115214121D01*
X123793179Y-115213765D01*
X123794565Y-115213465D01*
X123795961Y-115213223D01*
X123797365Y-115213038D01*
X123798774Y-115212912D01*
X123800185Y-115212845D01*
X123801597Y-115212839D01*
X123803006Y-115212894D01*
X123804410Y-115213011D01*
X123805806Y-115213191D01*
X123807192Y-115213435D01*
X123808566Y-115213744D01*
X123809924Y-115214118D01*
X123811265Y-115214559D01*
X123812585Y-115215067D01*
X124873771Y-115654213D01*
X124875056Y-115654784D01*
X124876292Y-115655410D01*
X124877478Y-115656091D01*
X124878615Y-115656823D01*
X124879699Y-115657604D01*
X124880732Y-115658432D01*
X124881712Y-115659305D01*
X124882638Y-115660221D01*
X124883510Y-115661177D01*
X124884326Y-115662172D01*
X124885086Y-115663203D01*
X124885789Y-115664267D01*
X124886435Y-115665363D01*
X124887021Y-115666488D01*
X124887549Y-115667641D01*
X124888016Y-115668818D01*
X124888423Y-115670018D01*
X124888767Y-115671239D01*
X124889049Y-115672477D01*
X124889268Y-115673732D01*
X124889422Y-115675000D01*
X124889511Y-115676281D01*
X124889534Y-115677570D01*
X124889491Y-115678867D01*
X124889380Y-115680168D01*
X124889201Y-115681472D01*
X124888953Y-115682777D01*
X124888635Y-115684080D01*
X124888247Y-115685379D01*
X124887787Y-115686671D01*
X124887254Y-115687955D01*
X124886648Y-115689229D01*
X124772919Y-115902219D01*
X124771591Y-115904751D01*
X124770456Y-115907442D01*
X124769513Y-115910267D01*
X124768761Y-115913204D01*
X124768200Y-115916229D01*
X124767829Y-115919317D01*
X124767649Y-115922446D01*
X124767658Y-115925592D01*
X124767857Y-115928731D01*
X124768244Y-115931839D01*
X124768820Y-115934893D01*
X124769584Y-115937869D01*
X124770535Y-115940743D01*
X124771674Y-115943493D01*
X124772999Y-115946093D01*
X124774510Y-115948521D01*
X125106005Y-116431510D01*
X125106770Y-116432695D01*
X125107475Y-116433916D01*
X125108121Y-116435170D01*
X125108708Y-116436453D01*
X125109236Y-116437764D01*
X125109705Y-116439099D01*
X125110468Y-116441833D01*
X125110998Y-116444632D01*
X125111299Y-116447476D01*
X125111372Y-116450341D01*
X125111219Y-116453207D01*
X125110842Y-116456052D01*
X125110242Y-116458853D01*
X125109423Y-116461590D01*
X125108386Y-116464241D01*
X125107133Y-116466783D01*
X125106426Y-116468007D01*
X125105666Y-116469195D01*
X125104853Y-116470346D01*
X125103987Y-116471456D01*
X125103068Y-116472523D01*
X125102098Y-116473543D01*
X124658972Y-116916813D01*
X124657945Y-116917791D01*
X124656872Y-116918715D01*
X124655756Y-116919585D01*
X124654600Y-116920403D01*
X124653406Y-116921166D01*
X124652178Y-116921876D01*
X124650917Y-116922531D01*
X124649627Y-116923132D01*
X124648311Y-116923678D01*
X124646970Y-116924170D01*
X124644227Y-116924987D01*
X124641421Y-116925582D01*
X124638572Y-116925954D01*
X124635703Y-116926099D01*
X124632836Y-116926017D01*
X124629991Y-116925706D01*
X124628584Y-116925464D01*
X124627191Y-116925164D01*
X124625814Y-116924805D01*
X124624457Y-116924388D01*
X124623121Y-116923913D01*
X124621810Y-116923378D01*
X124620526Y-116922785D01*
X124619273Y-116922132D01*
X124618052Y-116921420D01*
X124616866Y-116920647D01*
X124125196Y-116583221D01*
X124122763Y-116581705D01*
X124120147Y-116580354D01*
X124117373Y-116579169D01*
X124114464Y-116578152D01*
X124111445Y-116577305D01*
X124108340Y-116576630D01*
X124105174Y-116576129D01*
X124101969Y-116575804D01*
X124098751Y-116575656D01*
X124095544Y-116575687D01*
X124092372Y-116575900D01*
X124089259Y-116576296D01*
X124086229Y-116576877D01*
X124083307Y-116577645D01*
X124080516Y-116578601D01*
X124077881Y-116579749D01*
X123614716Y-116765174D01*
X123613366Y-116765634D01*
X123612020Y-116766157D01*
X123609346Y-116767385D01*
X123606712Y-116768841D01*
X123604133Y-116770507D01*
X123601626Y-116772365D01*
X123599207Y-116774398D01*
X123596893Y-116776587D01*
X123594699Y-116778915D01*
X123592643Y-116781364D01*
X123590740Y-116783916D01*
X123589006Y-116786554D01*
X123587460Y-116789260D01*
X123586115Y-116792016D01*
X123584990Y-116794804D01*
X123584515Y-116796205D01*
X123584100Y-116797607D01*
X123583748Y-116799008D01*
X123583462Y-116800407D01*
X123472915Y-117394376D01*
X123472627Y-117395757D01*
X123472271Y-117397121D01*
X123471849Y-117398467D01*
X123471363Y-117399792D01*
X123470816Y-117401096D01*
X123470209Y-117402375D01*
X123469544Y-117403628D01*
X123468824Y-117404854D01*
X123468051Y-117406051D01*
X123467227Y-117407217D01*
X123466354Y-117408350D01*
X123465434Y-117409448D01*
X123464469Y-117410510D01*
X123463462Y-117411534D01*
X123462414Y-117412519D01*
X123461327Y-117413461D01*
X123460204Y-117414360D01*
X123459047Y-117415214D01*
X123457858Y-117416021D01*
X123456638Y-117416779D01*
X123455391Y-117417487D01*
X123454118Y-117418142D01*
X123452821Y-117418744D01*
X123451503Y-117419290D01*
X123450165Y-117419778D01*
X123448810Y-117420206D01*
X123447439Y-117420574D01*
X123446056Y-117420879D01*
X123444661Y-117421119D01*
X123443257Y-117421293D01*
X123441847Y-117421398D01*
X123440432Y-117421434D01*
X122813690Y-117421506D01*
X122812271Y-117421474D01*
X122810858Y-117421373D01*
X122809453Y-117421203D01*
X122808056Y-117420968D01*
X122806672Y-117420668D01*
X122805301Y-117420306D01*
X122803945Y-117419882D01*
X122802607Y-117419400D01*
X122801289Y-117418860D01*
X122799992Y-117418265D01*
X122797473Y-117416914D01*
X122795065Y-117415361D01*
X122792786Y-117413620D01*
X122790651Y-117411705D01*
X122788677Y-117409629D01*
X122786880Y-117407408D01*
X122785277Y-117405054D01*
X122784554Y-117403832D01*
X122783885Y-117402582D01*
X122783273Y-117401306D01*
X122782719Y-117400005D01*
X122782226Y-117398682D01*
X122781797Y-117397337D01*
X122781431Y-117395974D01*
X122781133Y-117394593D01*
X122667911Y-116785648D01*
X122667261Y-116782856D01*
X122666366Y-116780048D01*
X122665240Y-116777243D01*
X122663900Y-116774459D01*
X122662361Y-116771716D01*
X122660639Y-116769032D01*
X122658751Y-116766426D01*
X122656712Y-116763916D01*
X122654538Y-116761521D01*
X122652245Y-116759260D01*
X122649848Y-116757152D01*
X122647364Y-116755214D01*
X122644809Y-116753466D01*
X122642198Y-116751926D01*
X122639548Y-116750614D01*
X122636873Y-116749547D01*
X122201417Y-116562892D01*
X122198810Y-116561683D01*
X122196046Y-116560667D01*
X122193150Y-116559843D01*
X122190146Y-116559209D01*
X122187057Y-116558763D01*
X122183907Y-116558504D01*
X122180720Y-116558430D01*
X122177521Y-116558541D01*
X122174332Y-116558833D01*
X122171178Y-116559306D01*
X122168082Y-116559959D01*
X122165069Y-116560789D01*
X122162162Y-116561796D01*
X122159386Y-116562977D01*
X122156763Y-116564332D01*
X122154319Y-116565858D01*
X121637183Y-116920647D01*
X121635997Y-116921413D01*
X121634777Y-116922120D01*
X121633525Y-116922768D01*
X121632242Y-116923357D01*
X121630933Y-116923888D01*
X121629599Y-116924361D01*
X121626870Y-116925133D01*
X121624075Y-116925673D01*
X121621236Y-116925985D01*
X121618375Y-116926069D01*
X121615513Y-116925926D01*
X121612671Y-116925558D01*
X121609871Y-116924968D01*
X121607135Y-116924155D01*
X121604483Y-116923122D01*
X121601937Y-116921869D01*
X121600710Y-116921162D01*
X121599518Y-116920400D01*
X121598363Y-116919584D01*
X121597248Y-116918714D01*
X121596176Y-116917790D01*
X121595149Y-116916813D01*
X121152024Y-116473615D01*
X121151046Y-116472588D01*
X121150122Y-116471516D01*
X121149250Y-116470401D01*
X121148431Y-116469246D01*
X121147666Y-116468054D01*
X121146955Y-116466828D01*
X121146297Y-116465569D01*
X121145694Y-116464282D01*
X121145145Y-116462968D01*
X121144650Y-116461630D01*
X121143827Y-116458893D01*
X121143225Y-116456093D01*
X121142847Y-116453252D01*
X121142695Y-116450390D01*
X121142770Y-116447529D01*
X121143075Y-116444690D01*
X121143314Y-116443286D01*
X121143612Y-116441895D01*
X121143968Y-116440521D01*
X121144383Y-116439166D01*
X121144856Y-116437832D01*
X121145389Y-116436523D01*
X121145981Y-116435240D01*
X121146633Y-116433988D01*
X121147345Y-116432767D01*
X121148117Y-116431582D01*
X121509201Y-115905402D01*
X121510722Y-115902968D01*
X121512077Y-115900350D01*
X121513263Y-115897573D01*
X121514280Y-115894660D01*
X121515124Y-115891636D01*
X121515795Y-115888527D01*
X121516291Y-115885356D01*
X121516610Y-115882148D01*
X121516751Y-115878927D01*
X121516711Y-115875718D01*
X121516490Y-115872545D01*
X121516086Y-115869434D01*
X121515496Y-115866408D01*
X121514720Y-115863492D01*
X121513756Y-115860710D01*
X121512601Y-115858087D01*
X121339764Y-115435942D01*
X121339287Y-115434600D01*
X121338746Y-115433262D01*
X121338144Y-115431929D01*
X121337483Y-115430605D01*
X121335991Y-115427989D01*
X121334291Y-115425430D01*
X121332399Y-115422942D01*
X121330335Y-115420542D01*
X121328115Y-115418245D01*
X121325759Y-115416068D01*
X121323284Y-115414025D01*
X121320709Y-115412134D01*
X121318052Y-115410409D01*
X121315331Y-115408866D01*
X121312564Y-115407521D01*
X121309769Y-115406390D01*
X121306965Y-115405489D01*
X121305565Y-115405129D01*
X121304169Y-115404833D01*
X120674316Y-115287631D01*
X120672932Y-115287340D01*
X120671565Y-115286981D01*
X120670218Y-115286556D01*
X120668892Y-115286068D01*
X120667589Y-115285519D01*
X120666310Y-115284910D01*
X120665058Y-115284245D01*
X120663833Y-115283524D01*
X120662639Y-115282751D01*
X120661475Y-115281926D01*
X120660345Y-115281053D01*
X120659250Y-115280133D01*
X120658192Y-115279169D01*
X120657172Y-115278162D01*
X120656192Y-115277114D01*
X120655253Y-115276029D01*
X120654359Y-115274907D01*
X120653509Y-115273751D01*
X120652707Y-115272562D01*
X120651953Y-115271344D01*
X120651249Y-115270098D01*
X120650598Y-115268826D01*
X120650000Y-115267531D01*
X120649459Y-115266213D01*
X120648974Y-115264877D01*
X120648548Y-115263522D01*
X120648184Y-115262153D01*
X120647881Y-115260770D01*
X120647643Y-115259376D01*
X120647471Y-115257973D01*
X120647366Y-115256562D01*
X120647331Y-115255147D01*
X120647331Y-114628405D01*
X120647366Y-114626993D01*
X120647471Y-114625586D01*
X120647643Y-114624185D01*
X120647881Y-114622793D01*
X120648184Y-114621412D01*
X120648548Y-114620044D01*
X120648974Y-114618691D01*
X120649459Y-114617355D01*
X120650000Y-114616038D01*
X120650598Y-114614743D01*
X120651953Y-114612225D01*
X120653509Y-114609817D01*
X120655253Y-114607538D01*
X120657172Y-114605402D01*
X120659250Y-114603429D01*
X120661475Y-114601633D01*
X120662639Y-114600808D01*
X120663833Y-114600033D01*
X120665058Y-114599312D01*
X120666310Y-114598645D01*
X120667589Y-114598036D01*
X120668892Y-114597486D01*
X120670218Y-114596997D01*
X120671565Y-114596572D01*
X120672932Y-114596213D01*
X120674316Y-114595921D01*
X121304169Y-114478719D01*
X121306965Y-114478064D01*
X121309769Y-114477164D01*
X121312564Y-114476035D01*
X121315331Y-114474692D01*
X121318052Y-114473151D01*
X121320709Y-114471429D01*
X121323284Y-114469539D01*
X121325759Y-114467499D01*
X121328115Y-114465323D01*
X121330335Y-114463027D01*
X121332399Y-114460627D01*
X121334291Y-114458138D01*
X121335991Y-114455577D01*
X121337483Y-114452958D01*
X121338746Y-114450297D01*
X121339764Y-114447610D01*
X121512601Y-114025465D01*
X121513756Y-114022836D01*
X121514720Y-114020049D01*
X121515496Y-114017128D01*
X121516086Y-114014098D01*
X121516490Y-114010983D01*
X121516711Y-114007808D01*
X121516751Y-114004598D01*
X121516610Y-114001377D01*
X121516291Y-113998169D01*
X121515795Y-113994999D01*
X121515124Y-113991892D01*
X121514280Y-113988872D01*
X121513263Y-113985963D01*
X121512077Y-113983190D01*
X121510722Y-113980578D01*
X121509201Y-113978150D01*
X121148117Y-113451971D01*
X121147345Y-113450782D01*
X121146633Y-113449558D01*
X121145981Y-113448301D01*
X121145389Y-113447015D01*
X121144856Y-113445701D01*
X121144383Y-113444363D01*
X121143612Y-113441625D01*
X121143075Y-113438822D01*
X121142770Y-113435975D01*
X121142695Y-113433106D01*
X121142847Y-113430237D01*
X121143225Y-113427389D01*
X121143827Y-113424584D01*
X121144650Y-113421843D01*
X121145694Y-113419189D01*
X121146955Y-113416642D01*
X121147666Y-113415416D01*
X121148431Y-113414225D01*
X121149250Y-113413071D01*
X121150122Y-113411958D01*
X121151046Y-113410889D01*
X121152024Y-113409865D01*
X121595149Y-112966739D01*
X121596176Y-112965765D01*
X121597248Y-112964843D01*
X121598363Y-112963974D01*
X121599518Y-112963157D01*
X121600710Y-112962394D01*
X121601937Y-112961684D01*
X121603195Y-112961027D01*
X121604483Y-112960425D01*
X121605797Y-112959876D01*
X121607135Y-112959382D01*
X121609871Y-112958559D01*
X121612671Y-112957956D01*
X121615513Y-112957576D01*
X121618375Y-112957422D01*
X121621236Y-112957495D01*
X121624075Y-112957798D01*
X121625479Y-112958036D01*
X121626870Y-112958333D01*
X121628244Y-112958688D01*
X121629599Y-112959101D01*
X121630933Y-112959574D01*
X121632242Y-112960106D01*
X121633525Y-112960698D01*
X121634777Y-112961349D01*
X121635997Y-112962061D01*
X121637183Y-112962832D01*
X122154319Y-113317695D01*
X122156763Y-113319207D01*
X122159386Y-113320549D01*
X122162162Y-113321719D01*
X122165069Y-113322715D01*
X122168082Y-113323536D01*
X122171178Y-113324181D01*
X122174332Y-113324647D01*
X122177521Y-113324934D01*
X122180720Y-113325040D01*
X122183907Y-113324963D01*
X122187057Y-113324703D01*
X122190146Y-113324257D01*
X122193150Y-113323624D01*
X122196046Y-113322802D01*
X122198810Y-113321791D01*
X122201417Y-113320588D01*
X122636873Y-113133861D01*
X122638213Y-113133363D01*
X122639548Y-113132802D01*
X122642198Y-113131498D01*
X122644809Y-113129969D01*
X122647364Y-113128231D01*
X122649848Y-113126304D01*
X122652245Y-113124206D01*
X122654538Y-113121955D01*
X122656712Y-113119569D01*
X122658751Y-113117067D01*
X122660639Y-113114467D01*
X122662361Y-113111787D01*
X122663900Y-113109046D01*
X122665240Y-113106261D01*
X122666366Y-113103452D01*
X122666843Y-113102044D01*
X122667261Y-113100636D01*
X122667618Y-113099231D01*
X122667911Y-113097832D01*
X122781133Y-112488960D01*
X122781431Y-112487572D01*
X122781796Y-112486203D01*
X122782226Y-112484853D01*
X122782718Y-112483525D01*
X122783270Y-112482220D01*
X122783882Y-112480940D01*
X122784549Y-112479686D01*
X122785271Y-112478461D01*
X122786046Y-112477266D01*
X122786871Y-112476102D01*
X122787744Y-112474972D01*
X122788664Y-112473877D01*
X122789628Y-112472819D01*
X122790633Y-112471800D01*
X122791680Y-112470820D01*
X122792764Y-112469883D01*
X122793884Y-112468989D01*
X122795038Y-112468140D01*
X122796224Y-112467339D01*
X122797440Y-112466586D01*
X122798684Y-112465884D01*
X122799953Y-112465234D01*
X122801247Y-112464637D01*
X122802562Y-112464097D01*
X122803896Y-112463613D01*
X122805249Y-112463188D01*
X122806617Y-112462824D01*
X122807998Y-112462523D01*
X122809391Y-112462285D01*
X122810793Y-112462114D01*
X122812203Y-112462009D01*
X122813617Y-112461974D01*
X123440359Y-112461974D01*
X123441775Y-112462009D01*
D11*
X155750000Y-103750000D02*
X152750000Y-103750000D01*
X152750000Y-103750000D02*
X152750000Y-90750000D01*
X152750000Y-90750000D02*
X155750000Y-90750000D01*
X155750000Y-90750000D02*
X155750000Y-103750000D01*
G36*
X155750000Y-103750000D02*
G01*
X152750000Y-103750000D01*
X152750000Y-90750000D01*
X155750000Y-90750000D01*
X155750000Y-103750000D01*
G37*
D12*
X120853714Y-101773809D02*
X120891809Y-101735714D01*
X120929904Y-101621428D01*
X120929904Y-101545238D01*
X120891809Y-101430952D01*
X120815619Y-101354761D01*
X120739428Y-101316666D01*
X120587047Y-101278571D01*
X120472761Y-101278571D01*
X120320380Y-101316666D01*
X120244190Y-101354761D01*
X120168000Y-101430952D01*
X120129904Y-101545238D01*
X120129904Y-101621428D01*
X120168000Y-101735714D01*
X120206095Y-101773809D01*
X120510857Y-102116666D02*
X120510857Y-102383333D01*
X120929904Y-102497619D02*
X120929904Y-102116666D01*
X120129904Y-102116666D01*
X120129904Y-102497619D01*
X120929904Y-103297619D02*
X120548952Y-103030952D01*
X120929904Y-102840476D02*
X120129904Y-102840476D01*
X120129904Y-103145238D01*
X120168000Y-103221428D01*
X120206095Y-103259523D01*
X120282285Y-103297619D01*
X120396571Y-103297619D01*
X120472761Y-103259523D01*
X120510857Y-103221428D01*
X120548952Y-103145238D01*
X120548952Y-102840476D01*
X120929904Y-103640476D02*
X120129904Y-103640476D01*
X120929904Y-104097619D01*
X120129904Y-104097619D01*
X120625142Y-104478571D02*
X120625142Y-105088095D01*
X120129904Y-105621428D02*
X120129904Y-105773809D01*
X120168000Y-105850000D01*
X120244190Y-105926190D01*
X120396571Y-105964285D01*
X120663238Y-105964285D01*
X120815619Y-105926190D01*
X120891809Y-105850000D01*
X120929904Y-105773809D01*
X120929904Y-105621428D01*
X120891809Y-105545238D01*
X120815619Y-105469047D01*
X120663238Y-105430952D01*
X120396571Y-105430952D01*
X120244190Y-105469047D01*
X120168000Y-105545238D01*
X120129904Y-105621428D01*
X120929904Y-106307142D02*
X120129904Y-106307142D01*
X120510857Y-106307142D02*
X120510857Y-106764285D01*
X120929904Y-106764285D02*
X120129904Y-106764285D01*
X120929904Y-107526190D02*
X120929904Y-107145238D01*
X120129904Y-107145238D01*
X120625142Y-107792857D02*
X120625142Y-108402380D01*
X120929904Y-108783333D02*
X120129904Y-108783333D01*
X120129904Y-109088095D01*
X120168000Y-109164285D01*
X120206095Y-109202380D01*
X120282285Y-109240476D01*
X120396571Y-109240476D01*
X120472761Y-109202380D01*
X120510857Y-109164285D01*
X120548952Y-109088095D01*
X120548952Y-108783333D01*
X120396571Y-110116666D02*
X120929904Y-110307142D01*
X120396571Y-110497619D01*
X120206095Y-110764285D02*
X120168000Y-110802380D01*
X120129904Y-110878571D01*
X120129904Y-111069047D01*
X120168000Y-111145238D01*
X120206095Y-111183333D01*
X120282285Y-111221428D01*
X120358476Y-111221428D01*
X120472761Y-111183333D01*
X120929904Y-110726190D01*
X120929904Y-111221428D01*
X122972571Y-103488095D02*
X123620190Y-103488095D01*
X123696380Y-103450000D01*
X123734476Y-103411904D01*
X123772571Y-103335714D01*
X123772571Y-103221428D01*
X123734476Y-103145238D01*
X123467809Y-103488095D02*
X123505904Y-103411904D01*
X123505904Y-103259523D01*
X123467809Y-103183333D01*
X123429714Y-103145238D01*
X123353523Y-103107142D01*
X123124952Y-103107142D01*
X123048761Y-103145238D01*
X123010666Y-103183333D01*
X122972571Y-103259523D01*
X122972571Y-103411904D01*
X123010666Y-103488095D01*
X123505904Y-103869047D02*
X122972571Y-103869047D01*
X122705904Y-103869047D02*
X122744000Y-103830952D01*
X122782095Y-103869047D01*
X122744000Y-103907142D01*
X122705904Y-103869047D01*
X122782095Y-103869047D01*
X122972571Y-104135714D02*
X122972571Y-104440476D01*
X122705904Y-104250000D02*
X123391619Y-104250000D01*
X123467809Y-104288095D01*
X123505904Y-104364285D01*
X123505904Y-104440476D01*
X123505904Y-104707142D02*
X122705904Y-104707142D01*
X123505904Y-105050000D02*
X123086857Y-105050000D01*
X123010666Y-105011904D01*
X122972571Y-104935714D01*
X122972571Y-104821428D01*
X123010666Y-104745238D01*
X123048761Y-104707142D01*
X122972571Y-105773809D02*
X123505904Y-105773809D01*
X122972571Y-105430952D02*
X123391619Y-105430952D01*
X123467809Y-105469047D01*
X123505904Y-105545238D01*
X123505904Y-105659523D01*
X123467809Y-105735714D01*
X123429714Y-105773809D01*
X123505904Y-106154761D02*
X122705904Y-106154761D01*
X123010666Y-106154761D02*
X122972571Y-106230952D01*
X122972571Y-106383333D01*
X123010666Y-106459523D01*
X123048761Y-106497619D01*
X123124952Y-106535714D01*
X123353523Y-106535714D01*
X123429714Y-106497619D01*
X123467809Y-106459523D01*
X123505904Y-106383333D01*
X123505904Y-106230952D01*
X123467809Y-106154761D01*
X123429714Y-106878571D02*
X123467809Y-106916666D01*
X123505904Y-106878571D01*
X123467809Y-106840476D01*
X123429714Y-106878571D01*
X123505904Y-106878571D01*
X123467809Y-107602380D02*
X123505904Y-107526190D01*
X123505904Y-107373809D01*
X123467809Y-107297619D01*
X123429714Y-107259523D01*
X123353523Y-107221428D01*
X123124952Y-107221428D01*
X123048761Y-107259523D01*
X123010666Y-107297619D01*
X122972571Y-107373809D01*
X122972571Y-107526190D01*
X123010666Y-107602380D01*
X123505904Y-108059523D02*
X123467809Y-107983333D01*
X123429714Y-107945238D01*
X123353523Y-107907142D01*
X123124952Y-107907142D01*
X123048761Y-107945238D01*
X123010666Y-107983333D01*
X122972571Y-108059523D01*
X122972571Y-108173809D01*
X123010666Y-108250000D01*
X123048761Y-108288095D01*
X123124952Y-108326190D01*
X123353523Y-108326190D01*
X123429714Y-108288095D01*
X123467809Y-108250000D01*
X123505904Y-108173809D01*
X123505904Y-108059523D01*
X123505904Y-108669047D02*
X122972571Y-108669047D01*
X123048761Y-108669047D02*
X123010666Y-108707142D01*
X122972571Y-108783333D01*
X122972571Y-108897619D01*
X123010666Y-108973809D01*
X123086857Y-109011904D01*
X123505904Y-109011904D01*
X123086857Y-109011904D02*
X123010666Y-109050000D01*
X122972571Y-109126190D01*
X122972571Y-109240476D01*
X123010666Y-109316666D01*
X123086857Y-109354761D01*
X123505904Y-109354761D01*
X124793904Y-100916666D02*
X123993904Y-100916666D01*
X123993904Y-101107142D01*
X124032000Y-101221428D01*
X124108190Y-101297619D01*
X124184380Y-101335714D01*
X124336761Y-101373809D01*
X124451047Y-101373809D01*
X124603428Y-101335714D01*
X124679619Y-101297619D01*
X124755809Y-101221428D01*
X124793904Y-101107142D01*
X124793904Y-100916666D01*
X124755809Y-102021428D02*
X124793904Y-101945238D01*
X124793904Y-101792857D01*
X124755809Y-101716666D01*
X124679619Y-101678571D01*
X124374857Y-101678571D01*
X124298666Y-101716666D01*
X124260571Y-101792857D01*
X124260571Y-101945238D01*
X124298666Y-102021428D01*
X124374857Y-102059523D01*
X124451047Y-102059523D01*
X124527238Y-101678571D01*
X124793904Y-102402380D02*
X123993904Y-102402380D01*
X124489142Y-102478571D02*
X124793904Y-102707142D01*
X124260571Y-102707142D02*
X124565333Y-102402380D01*
X124793904Y-103392857D02*
X124374857Y-103392857D01*
X124298666Y-103354761D01*
X124260571Y-103278571D01*
X124260571Y-103126190D01*
X124298666Y-103050000D01*
X124755809Y-103392857D02*
X124793904Y-103316666D01*
X124793904Y-103126190D01*
X124755809Y-103050000D01*
X124679619Y-103011904D01*
X124603428Y-103011904D01*
X124527238Y-103050000D01*
X124489142Y-103126190D01*
X124489142Y-103316666D01*
X124451047Y-103392857D01*
X124260571Y-103773809D02*
X124793904Y-103773809D01*
X124336761Y-103773809D02*
X124298666Y-103811904D01*
X124260571Y-103888095D01*
X124260571Y-104002380D01*
X124298666Y-104078571D01*
X124374857Y-104116666D01*
X124793904Y-104116666D01*
X124793904Y-104611904D02*
X124755809Y-104535714D01*
X124717714Y-104497619D01*
X124641523Y-104459523D01*
X124412952Y-104459523D01*
X124336761Y-104497619D01*
X124298666Y-104535714D01*
X124260571Y-104611904D01*
X124260571Y-104726190D01*
X124298666Y-104802380D01*
X124336761Y-104840476D01*
X124412952Y-104878571D01*
X124641523Y-104878571D01*
X124717714Y-104840476D01*
X124755809Y-104802380D01*
X124793904Y-104726190D01*
X124793904Y-104611904D01*
X124260571Y-105145238D02*
X124793904Y-105335714D01*
X124260571Y-105526190D01*
X124793904Y-106173809D02*
X124374857Y-106173809D01*
X124298666Y-106135714D01*
X124260571Y-106059523D01*
X124260571Y-105907142D01*
X124298666Y-105830952D01*
X124755809Y-106173809D02*
X124793904Y-106097619D01*
X124793904Y-105907142D01*
X124755809Y-105830952D01*
X124679619Y-105792857D01*
X124603428Y-105792857D01*
X124527238Y-105830952D01*
X124489142Y-105907142D01*
X124489142Y-106097619D01*
X124451047Y-106173809D01*
X123955809Y-107126190D02*
X124984380Y-106440476D01*
X124793904Y-107392857D02*
X124260571Y-107392857D01*
X124412952Y-107392857D02*
X124336761Y-107430952D01*
X124298666Y-107469047D01*
X124260571Y-107545238D01*
X124260571Y-107621428D01*
X124755809Y-108192857D02*
X124793904Y-108116666D01*
X124793904Y-107964285D01*
X124755809Y-107888095D01*
X124679619Y-107850000D01*
X124374857Y-107850000D01*
X124298666Y-107888095D01*
X124260571Y-107964285D01*
X124260571Y-108116666D01*
X124298666Y-108192857D01*
X124374857Y-108230952D01*
X124451047Y-108230952D01*
X124527238Y-107850000D01*
X124793904Y-108916666D02*
X123993904Y-108916666D01*
X124755809Y-108916666D02*
X124793904Y-108840476D01*
X124793904Y-108688095D01*
X124755809Y-108611904D01*
X124717714Y-108573809D01*
X124641523Y-108535714D01*
X124412952Y-108535714D01*
X124336761Y-108573809D01*
X124298666Y-108611904D01*
X124260571Y-108688095D01*
X124260571Y-108840476D01*
X124298666Y-108916666D01*
X124755809Y-109259523D02*
X124793904Y-109335714D01*
X124793904Y-109488095D01*
X124755809Y-109564285D01*
X124679619Y-109602380D01*
X124641523Y-109602380D01*
X124565333Y-109564285D01*
X124527238Y-109488095D01*
X124527238Y-109373809D01*
X124489142Y-109297619D01*
X124412952Y-109259523D01*
X124374857Y-109259523D01*
X124298666Y-109297619D01*
X124260571Y-109373809D01*
X124260571Y-109488095D01*
X124298666Y-109564285D01*
X124793904Y-109945238D02*
X123993904Y-109945238D01*
X124793904Y-110288095D02*
X124374857Y-110288095D01*
X124298666Y-110250000D01*
X124260571Y-110173809D01*
X124260571Y-110059523D01*
X124298666Y-109983333D01*
X124336761Y-109945238D01*
X124793904Y-110669047D02*
X124260571Y-110669047D01*
X123993904Y-110669047D02*
X124032000Y-110630952D01*
X124070095Y-110669047D01*
X124032000Y-110707142D01*
X123993904Y-110669047D01*
X124070095Y-110669047D01*
X124260571Y-110935714D02*
X124260571Y-111240476D01*
X124793904Y-111050000D02*
X124108190Y-111050000D01*
X124032000Y-111088095D01*
X123993904Y-111164285D01*
X123993904Y-111240476D01*
X124260571Y-111392857D02*
X124260571Y-111697619D01*
X123993904Y-111507142D02*
X124679619Y-111507142D01*
X124755809Y-111545238D01*
X124793904Y-111621428D01*
X124793904Y-111697619D01*
%TO.C,TP5*%
X128100380Y-104738095D02*
X128100380Y-105309523D01*
X129100380Y-105023809D02*
X128100380Y-105023809D01*
X129100380Y-105642857D02*
X128100380Y-105642857D01*
X128100380Y-106023809D01*
X128148000Y-106119047D01*
X128195619Y-106166666D01*
X128290857Y-106214285D01*
X128433714Y-106214285D01*
X128528952Y-106166666D01*
X128576571Y-106119047D01*
X128624190Y-106023809D01*
X128624190Y-105642857D01*
X128100380Y-107119047D02*
X128100380Y-106642857D01*
X128576571Y-106595238D01*
X128528952Y-106642857D01*
X128481333Y-106738095D01*
X128481333Y-106976190D01*
X128528952Y-107071428D01*
X128576571Y-107119047D01*
X128671809Y-107166666D01*
X128909904Y-107166666D01*
X129005142Y-107119047D01*
X129052761Y-107071428D01*
X129100380Y-106976190D01*
X129100380Y-106738095D01*
X129052761Y-106642857D01*
X129005142Y-106595238D01*
%TO.C,TP6*%
X157600380Y-79238095D02*
X157600380Y-79809523D01*
X158600380Y-79523809D02*
X157600380Y-79523809D01*
X158600380Y-80142857D02*
X157600380Y-80142857D01*
X157600380Y-80523809D01*
X157648000Y-80619047D01*
X157695619Y-80666666D01*
X157790857Y-80714285D01*
X157933714Y-80714285D01*
X158028952Y-80666666D01*
X158076571Y-80619047D01*
X158124190Y-80523809D01*
X158124190Y-80142857D01*
X157600380Y-81571428D02*
X157600380Y-81380952D01*
X157648000Y-81285714D01*
X157695619Y-81238095D01*
X157838476Y-81142857D01*
X158028952Y-81095238D01*
X158409904Y-81095238D01*
X158505142Y-81142857D01*
X158552761Y-81190476D01*
X158600380Y-81285714D01*
X158600380Y-81476190D01*
X158552761Y-81571428D01*
X158505142Y-81619047D01*
X158409904Y-81666666D01*
X158171809Y-81666666D01*
X158076571Y-81619047D01*
X158028952Y-81571428D01*
X157981333Y-81476190D01*
X157981333Y-81285714D01*
X158028952Y-81190476D01*
X158076571Y-81142857D01*
X158171809Y-81095238D01*
%TO.C,TP9*%
X125452380Y-76488095D02*
X125452380Y-77059523D01*
X126452380Y-76773809D02*
X125452380Y-76773809D01*
X126452380Y-77392857D02*
X125452380Y-77392857D01*
X125452380Y-77773809D01*
X125500000Y-77869047D01*
X125547619Y-77916666D01*
X125642857Y-77964285D01*
X125785714Y-77964285D01*
X125880952Y-77916666D01*
X125928571Y-77869047D01*
X125976190Y-77773809D01*
X125976190Y-77392857D01*
X126452380Y-78440476D02*
X126452380Y-78630952D01*
X126404761Y-78726190D01*
X126357142Y-78773809D01*
X126214285Y-78869047D01*
X126023809Y-78916666D01*
X125642857Y-78916666D01*
X125547619Y-78869047D01*
X125500000Y-78821428D01*
X125452380Y-78726190D01*
X125452380Y-78535714D01*
X125500000Y-78440476D01*
X125547619Y-78392857D01*
X125642857Y-78345238D01*
X125880952Y-78345238D01*
X125976190Y-78392857D01*
X126023809Y-78440476D01*
X126071428Y-78535714D01*
X126071428Y-78726190D01*
X126023809Y-78821428D01*
X125976190Y-78869047D01*
X125880952Y-78916666D01*
%TO.C,TP7*%
X157600380Y-84238095D02*
X157600380Y-84809523D01*
X158600380Y-84523809D02*
X157600380Y-84523809D01*
X158600380Y-85142857D02*
X157600380Y-85142857D01*
X157600380Y-85523809D01*
X157648000Y-85619047D01*
X157695619Y-85666666D01*
X157790857Y-85714285D01*
X157933714Y-85714285D01*
X158028952Y-85666666D01*
X158076571Y-85619047D01*
X158124190Y-85523809D01*
X158124190Y-85142857D01*
X157600380Y-86047619D02*
X157600380Y-86714285D01*
X158600380Y-86285714D01*
%TO.C,TP13*%
X123702380Y-80261904D02*
X123702380Y-80833333D01*
X124702380Y-80547619D02*
X123702380Y-80547619D01*
X124702380Y-81166666D02*
X123702380Y-81166666D01*
X123702380Y-81547619D01*
X123750000Y-81642857D01*
X123797619Y-81690476D01*
X123892857Y-81738095D01*
X124035714Y-81738095D01*
X124130952Y-81690476D01*
X124178571Y-81642857D01*
X124226190Y-81547619D01*
X124226190Y-81166666D01*
X124702380Y-82690476D02*
X124702380Y-82119047D01*
X124702380Y-82404761D02*
X123702380Y-82404761D01*
X123845238Y-82309523D01*
X123940476Y-82214285D01*
X123988095Y-82119047D01*
X123702380Y-83023809D02*
X123702380Y-83642857D01*
X124083333Y-83309523D01*
X124083333Y-83452380D01*
X124130952Y-83547619D01*
X124178571Y-83595238D01*
X124273809Y-83642857D01*
X124511904Y-83642857D01*
X124607142Y-83595238D01*
X124654761Y-83547619D01*
X124702380Y-83452380D01*
X124702380Y-83166666D01*
X124654761Y-83071428D01*
X124607142Y-83023809D01*
%TO.C,TP3*%
X128100380Y-98238095D02*
X128100380Y-98809523D01*
X129100380Y-98523809D02*
X128100380Y-98523809D01*
X129100380Y-99142857D02*
X128100380Y-99142857D01*
X128100380Y-99523809D01*
X128148000Y-99619047D01*
X128195619Y-99666666D01*
X128290857Y-99714285D01*
X128433714Y-99714285D01*
X128528952Y-99666666D01*
X128576571Y-99619047D01*
X128624190Y-99523809D01*
X128624190Y-99142857D01*
X128100380Y-100047619D02*
X128100380Y-100666666D01*
X128481333Y-100333333D01*
X128481333Y-100476190D01*
X128528952Y-100571428D01*
X128576571Y-100619047D01*
X128671809Y-100666666D01*
X128909904Y-100666666D01*
X129005142Y-100619047D01*
X129052761Y-100571428D01*
X129100380Y-100476190D01*
X129100380Y-100190476D01*
X129052761Y-100095238D01*
X129005142Y-100047619D01*
%TO.C,TP10*%
X150600380Y-75761904D02*
X150600380Y-76333333D01*
X151600380Y-76047619D02*
X150600380Y-76047619D01*
X151600380Y-76666666D02*
X150600380Y-76666666D01*
X150600380Y-77047619D01*
X150648000Y-77142857D01*
X150695619Y-77190476D01*
X150790857Y-77238095D01*
X150933714Y-77238095D01*
X151028952Y-77190476D01*
X151076571Y-77142857D01*
X151124190Y-77047619D01*
X151124190Y-76666666D01*
X151600380Y-78190476D02*
X151600380Y-77619047D01*
X151600380Y-77904761D02*
X150600380Y-77904761D01*
X150743238Y-77809523D01*
X150838476Y-77714285D01*
X150886095Y-77619047D01*
X150600380Y-78809523D02*
X150600380Y-78904761D01*
X150648000Y-79000000D01*
X150695619Y-79047619D01*
X150790857Y-79095238D01*
X150981333Y-79142857D01*
X151219428Y-79142857D01*
X151409904Y-79095238D01*
X151505142Y-79047619D01*
X151552761Y-79000000D01*
X151600380Y-78904761D01*
X151600380Y-78809523D01*
X151552761Y-78714285D01*
X151505142Y-78666666D01*
X151409904Y-78619047D01*
X151219428Y-78571428D01*
X150981333Y-78571428D01*
X150790857Y-78619047D01*
X150695619Y-78666666D01*
X150648000Y-78714285D01*
X150600380Y-78809523D01*
%TO.C,TP11*%
X150600380Y-80761904D02*
X150600380Y-81333333D01*
X151600380Y-81047619D02*
X150600380Y-81047619D01*
X151600380Y-81666666D02*
X150600380Y-81666666D01*
X150600380Y-82047619D01*
X150648000Y-82142857D01*
X150695619Y-82190476D01*
X150790857Y-82238095D01*
X150933714Y-82238095D01*
X151028952Y-82190476D01*
X151076571Y-82142857D01*
X151124190Y-82047619D01*
X151124190Y-81666666D01*
X151600380Y-83190476D02*
X151600380Y-82619047D01*
X151600380Y-82904761D02*
X150600380Y-82904761D01*
X150743238Y-82809523D01*
X150838476Y-82714285D01*
X150886095Y-82619047D01*
X151600380Y-84142857D02*
X151600380Y-83571428D01*
X151600380Y-83857142D02*
X150600380Y-83857142D01*
X150743238Y-83761904D01*
X150838476Y-83666666D01*
X150886095Y-83571428D01*
%TO.C,TP2*%
X120100380Y-74238095D02*
X120100380Y-74809523D01*
X121100380Y-74523809D02*
X120100380Y-74523809D01*
X121100380Y-75142857D02*
X120100380Y-75142857D01*
X120100380Y-75523809D01*
X120148000Y-75619047D01*
X120195619Y-75666666D01*
X120290857Y-75714285D01*
X120433714Y-75714285D01*
X120528952Y-75666666D01*
X120576571Y-75619047D01*
X120624190Y-75523809D01*
X120624190Y-75142857D01*
X120195619Y-76095238D02*
X120148000Y-76142857D01*
X120100380Y-76238095D01*
X120100380Y-76476190D01*
X120148000Y-76571428D01*
X120195619Y-76619047D01*
X120290857Y-76666666D01*
X120386095Y-76666666D01*
X120528952Y-76619047D01*
X121100380Y-76047619D01*
X121100380Y-76666666D01*
%TO.C,TP8*%
X123600380Y-73238095D02*
X123600380Y-73809523D01*
X124600380Y-73523809D02*
X123600380Y-73523809D01*
X124600380Y-74142857D02*
X123600380Y-74142857D01*
X123600380Y-74523809D01*
X123648000Y-74619047D01*
X123695619Y-74666666D01*
X123790857Y-74714285D01*
X123933714Y-74714285D01*
X124028952Y-74666666D01*
X124076571Y-74619047D01*
X124124190Y-74523809D01*
X124124190Y-74142857D01*
X124028952Y-75285714D02*
X123981333Y-75190476D01*
X123933714Y-75142857D01*
X123838476Y-75095238D01*
X123790857Y-75095238D01*
X123695619Y-75142857D01*
X123648000Y-75190476D01*
X123600380Y-75285714D01*
X123600380Y-75476190D01*
X123648000Y-75571428D01*
X123695619Y-75619047D01*
X123790857Y-75666666D01*
X123838476Y-75666666D01*
X123933714Y-75619047D01*
X123981333Y-75571428D01*
X124028952Y-75476190D01*
X124028952Y-75285714D01*
X124076571Y-75190476D01*
X124124190Y-75142857D01*
X124219428Y-75095238D01*
X124409904Y-75095238D01*
X124505142Y-75142857D01*
X124552761Y-75190476D01*
X124600380Y-75285714D01*
X124600380Y-75476190D01*
X124552761Y-75571428D01*
X124505142Y-75619047D01*
X124409904Y-75666666D01*
X124219428Y-75666666D01*
X124124190Y-75619047D01*
X124076571Y-75571428D01*
X124028952Y-75476190D01*
%TO.C,TP12*%
X150100380Y-112761904D02*
X150100380Y-113333333D01*
X151100380Y-113047619D02*
X150100380Y-113047619D01*
X151100380Y-113666666D02*
X150100380Y-113666666D01*
X150100380Y-114047619D01*
X150148000Y-114142857D01*
X150195619Y-114190476D01*
X150290857Y-114238095D01*
X150433714Y-114238095D01*
X150528952Y-114190476D01*
X150576571Y-114142857D01*
X150624190Y-114047619D01*
X150624190Y-113666666D01*
X151100380Y-115190476D02*
X151100380Y-114619047D01*
X151100380Y-114904761D02*
X150100380Y-114904761D01*
X150243238Y-114809523D01*
X150338476Y-114714285D01*
X150386095Y-114619047D01*
X150195619Y-115571428D02*
X150148000Y-115619047D01*
X150100380Y-115714285D01*
X150100380Y-115952380D01*
X150148000Y-116047619D01*
X150195619Y-116095238D01*
X150290857Y-116142857D01*
X150386095Y-116142857D01*
X150528952Y-116095238D01*
X151100380Y-115523809D01*
X151100380Y-116142857D01*
%TO.C,TP17*%
X149452380Y-67511904D02*
X149452380Y-68083333D01*
X150452380Y-67797619D02*
X149452380Y-67797619D01*
X150452380Y-68416666D02*
X149452380Y-68416666D01*
X149452380Y-68797619D01*
X149500000Y-68892857D01*
X149547619Y-68940476D01*
X149642857Y-68988095D01*
X149785714Y-68988095D01*
X149880952Y-68940476D01*
X149928571Y-68892857D01*
X149976190Y-68797619D01*
X149976190Y-68416666D01*
X150452380Y-69940476D02*
X150452380Y-69369047D01*
X150452380Y-69654761D02*
X149452380Y-69654761D01*
X149595238Y-69559523D01*
X149690476Y-69464285D01*
X149738095Y-69369047D01*
X149452380Y-70273809D02*
X149452380Y-70940476D01*
X150452380Y-70511904D01*
%TO.C,TP16*%
X153600380Y-109261904D02*
X153600380Y-109833333D01*
X154600380Y-109547619D02*
X153600380Y-109547619D01*
X154600380Y-110166666D02*
X153600380Y-110166666D01*
X153600380Y-110547619D01*
X153648000Y-110642857D01*
X153695619Y-110690476D01*
X153790857Y-110738095D01*
X153933714Y-110738095D01*
X154028952Y-110690476D01*
X154076571Y-110642857D01*
X154124190Y-110547619D01*
X154124190Y-110166666D01*
X154600380Y-111690476D02*
X154600380Y-111119047D01*
X154600380Y-111404761D02*
X153600380Y-111404761D01*
X153743238Y-111309523D01*
X153838476Y-111214285D01*
X153886095Y-111119047D01*
X153600380Y-112547619D02*
X153600380Y-112357142D01*
X153648000Y-112261904D01*
X153695619Y-112214285D01*
X153838476Y-112119047D01*
X154028952Y-112071428D01*
X154409904Y-112071428D01*
X154505142Y-112119047D01*
X154552761Y-112166666D01*
X154600380Y-112261904D01*
X154600380Y-112452380D01*
X154552761Y-112547619D01*
X154505142Y-112595238D01*
X154409904Y-112642857D01*
X154171809Y-112642857D01*
X154076571Y-112595238D01*
X154028952Y-112547619D01*
X153981333Y-112452380D01*
X153981333Y-112261904D01*
X154028952Y-112166666D01*
X154076571Y-112119047D01*
X154171809Y-112071428D01*
%TO.C,TP4*%
X120100380Y-79238095D02*
X120100380Y-79809523D01*
X121100380Y-79523809D02*
X120100380Y-79523809D01*
X121100380Y-80142857D02*
X120100380Y-80142857D01*
X120100380Y-80523809D01*
X120148000Y-80619047D01*
X120195619Y-80666666D01*
X120290857Y-80714285D01*
X120433714Y-80714285D01*
X120528952Y-80666666D01*
X120576571Y-80619047D01*
X120624190Y-80523809D01*
X120624190Y-80142857D01*
X120433714Y-81571428D02*
X121100380Y-81571428D01*
X120052761Y-81333333D02*
X120767047Y-81095238D01*
X120767047Y-81714285D01*
%TO.C,TP14*%
X153600380Y-112761904D02*
X153600380Y-113333333D01*
X154600380Y-113047619D02*
X153600380Y-113047619D01*
X154600380Y-113666666D02*
X153600380Y-113666666D01*
X153600380Y-114047619D01*
X153648000Y-114142857D01*
X153695619Y-114190476D01*
X153790857Y-114238095D01*
X153933714Y-114238095D01*
X154028952Y-114190476D01*
X154076571Y-114142857D01*
X154124190Y-114047619D01*
X154124190Y-113666666D01*
X154600380Y-115190476D02*
X154600380Y-114619047D01*
X154600380Y-114904761D02*
X153600380Y-114904761D01*
X153743238Y-114809523D01*
X153838476Y-114714285D01*
X153886095Y-114619047D01*
X153933714Y-116047619D02*
X154600380Y-116047619D01*
X153552761Y-115809523D02*
X154267047Y-115571428D01*
X154267047Y-116190476D01*
%TO.C,TP1*%
X128100380Y-101488095D02*
X128100380Y-102059523D01*
X129100380Y-101773809D02*
X128100380Y-101773809D01*
X129100380Y-102392857D02*
X128100380Y-102392857D01*
X128100380Y-102773809D01*
X128148000Y-102869047D01*
X128195619Y-102916666D01*
X128290857Y-102964285D01*
X128433714Y-102964285D01*
X128528952Y-102916666D01*
X128576571Y-102869047D01*
X128624190Y-102773809D01*
X128624190Y-102392857D01*
X129100380Y-103916666D02*
X129100380Y-103345238D01*
X129100380Y-103630952D02*
X128100380Y-103630952D01*
X128243238Y-103535714D01*
X128338476Y-103440476D01*
X128386095Y-103345238D01*
%TO.C,TP15*%
X123600380Y-76261904D02*
X123600380Y-76833333D01*
X124600380Y-76547619D02*
X123600380Y-76547619D01*
X124600380Y-77166666D02*
X123600380Y-77166666D01*
X123600380Y-77547619D01*
X123648000Y-77642857D01*
X123695619Y-77690476D01*
X123790857Y-77738095D01*
X123933714Y-77738095D01*
X124028952Y-77690476D01*
X124076571Y-77642857D01*
X124124190Y-77547619D01*
X124124190Y-77166666D01*
X124600380Y-78690476D02*
X124600380Y-78119047D01*
X124600380Y-78404761D02*
X123600380Y-78404761D01*
X123743238Y-78309523D01*
X123838476Y-78214285D01*
X123886095Y-78119047D01*
X123600380Y-79595238D02*
X123600380Y-79119047D01*
X124076571Y-79071428D01*
X124028952Y-79119047D01*
X123981333Y-79214285D01*
X123981333Y-79452380D01*
X124028952Y-79547619D01*
X124076571Y-79595238D01*
X124171809Y-79642857D01*
X124409904Y-79642857D01*
X124505142Y-79595238D01*
X124552761Y-79547619D01*
X124600380Y-79452380D01*
X124600380Y-79214285D01*
X124552761Y-79119047D01*
X124505142Y-79071428D01*
D11*
%TO.C,TP5*%
X127950000Y-106000000D02*
G75*
G03*
X127950000Y-106000000I-950000J0D01*
G01*
%TO.C,TP6*%
X157450000Y-80500000D02*
G75*
G03*
X157450000Y-80500000I-950000J0D01*
G01*
%TO.C,TP9*%
X126950000Y-75250000D02*
G75*
G03*
X126950000Y-75250000I-950000J0D01*
G01*
%TO.C,TP7*%
X157450000Y-85500000D02*
G75*
G03*
X157450000Y-85500000I-950000J0D01*
G01*
%TO.C,kibuzzard-61C38E31*%
G36*
X150896050Y-98931580D02*
G01*
X150240412Y-98702980D01*
X150240412Y-98699805D01*
X150896050Y-98471205D01*
X150896050Y-98931580D01*
G37*
G36*
X149642057Y-100345513D02*
G01*
X149642057Y-98749017D01*
X150170562Y-98749017D01*
X151329438Y-99168117D01*
X151329438Y-99082392D01*
X150962725Y-98953805D01*
X150962725Y-98447392D01*
X151329438Y-98318805D01*
X151329438Y-98236255D01*
X150170562Y-98653767D01*
X150170562Y-98749017D01*
X149642057Y-98749017D01*
X149642057Y-98131480D01*
X150170562Y-98131480D01*
X151329438Y-97712380D01*
X151329438Y-97617130D01*
X150170562Y-97199617D01*
X150170562Y-97285342D01*
X151253238Y-97664755D01*
X151253238Y-97667930D01*
X150170562Y-98047342D01*
X150170562Y-98131480D01*
X149642057Y-98131480D01*
X149642057Y-96588430D01*
X150154687Y-96588430D01*
X150164461Y-96697273D01*
X150193780Y-96793614D01*
X150242645Y-96877454D01*
X150311056Y-96948792D01*
X150397129Y-97005744D01*
X150498977Y-97046423D01*
X150616600Y-97070831D01*
X150750000Y-97078967D01*
X150883400Y-97070831D01*
X151001023Y-97046423D01*
X151102871Y-97005744D01*
X151188944Y-96948792D01*
X151257355Y-96877454D01*
X151306220Y-96793614D01*
X151335539Y-96697273D01*
X151345313Y-96588430D01*
X151335589Y-96479636D01*
X151306419Y-96383444D01*
X151257802Y-96299852D01*
X151189738Y-96228861D01*
X151103913Y-96172257D01*
X151002016Y-96131825D01*
X150884045Y-96107566D01*
X150750000Y-96099480D01*
X150615955Y-96107566D01*
X150497984Y-96131825D01*
X150396087Y-96172257D01*
X150310262Y-96228861D01*
X150242198Y-96299852D01*
X150193581Y-96383444D01*
X150164411Y-96479636D01*
X150154687Y-96588430D01*
X149642057Y-96588430D01*
X149642057Y-95891517D01*
X150170562Y-95891517D01*
X151329438Y-95891517D01*
X151329438Y-95801030D01*
X150291212Y-95173967D01*
X150291212Y-95170792D01*
X151329438Y-95170792D01*
X151329438Y-95093005D01*
X150170562Y-95093005D01*
X150170562Y-95185080D01*
X151208788Y-95810555D01*
X151208788Y-95813730D01*
X150170562Y-95813730D01*
X150170562Y-95891517D01*
X149642057Y-95891517D01*
X149642057Y-94481817D01*
X150170562Y-94481817D01*
X151329438Y-94900917D01*
X151329438Y-94815192D01*
X150962725Y-94686605D01*
X150962725Y-94180192D01*
X151329438Y-94051605D01*
X151329438Y-93969055D01*
X150170562Y-94386567D01*
X150170562Y-94481817D01*
X149642057Y-94481817D01*
X149642057Y-93840467D01*
X150170562Y-93840467D01*
X150726187Y-93262617D01*
X151329438Y-93856342D01*
X151329438Y-93756330D01*
X150756350Y-93197530D01*
X150756350Y-93194355D01*
X151329438Y-93194355D01*
X151329438Y-93114980D01*
X150170562Y-93114980D01*
X150170562Y-93194355D01*
X150696025Y-93194355D01*
X150696025Y-93197530D01*
X150170562Y-93738867D01*
X150170562Y-93840467D01*
X149642057Y-93840467D01*
X149642057Y-92851455D01*
X150170562Y-92851455D01*
X150238825Y-92851455D01*
X150238825Y-92275192D01*
X150667450Y-92275192D01*
X150667450Y-92819705D01*
X150734125Y-92819705D01*
X150734125Y-92275192D01*
X151261175Y-92275192D01*
X151261175Y-92851455D01*
X151329438Y-92851455D01*
X151329438Y-92195817D01*
X150170562Y-92195817D01*
X150170562Y-92851455D01*
X149642057Y-92851455D01*
X149642057Y-91425880D01*
X150154687Y-91425880D01*
X150161841Y-91543825D01*
X150183302Y-91647895D01*
X150219069Y-91738088D01*
X150269144Y-91814406D01*
X150333526Y-91876847D01*
X150412215Y-91925413D01*
X150505211Y-91960103D01*
X150612515Y-91980917D01*
X150734125Y-91987855D01*
X150862399Y-91980917D01*
X150975582Y-91960103D01*
X151073674Y-91925413D01*
X151156674Y-91876847D01*
X151224584Y-91814406D01*
X151277403Y-91738088D01*
X151315130Y-91647895D01*
X151337767Y-91543825D01*
X151345313Y-91425880D01*
X151338963Y-91290545D01*
X151319913Y-91167117D01*
X150180087Y-91167117D01*
X150161037Y-91292133D01*
X150154687Y-91425880D01*
X149642057Y-91425880D01*
X149642057Y-90654487D01*
X151857943Y-90654487D01*
X151857943Y-99680747D01*
X149642057Y-100345513D01*
G37*
G36*
X151272288Y-91338964D02*
G01*
X151277050Y-91425880D01*
X151268864Y-91542263D01*
X151244308Y-91642177D01*
X151203380Y-91725620D01*
X151146081Y-91792592D01*
X151071221Y-91843987D01*
X150977608Y-91880698D01*
X150865243Y-91902725D01*
X150734125Y-91910067D01*
X150611739Y-91902675D01*
X150506517Y-91880500D01*
X150418461Y-91843541D01*
X150347569Y-91791798D01*
X150293048Y-91724578D01*
X150254105Y-91641184D01*
X150230739Y-91541618D01*
X150222950Y-91425880D01*
X150227712Y-91338964D01*
X150242000Y-91246492D01*
X151258000Y-91246492D01*
X151272288Y-91338964D01*
G37*
G36*
X150896050Y-94664380D02*
G01*
X150240412Y-94435780D01*
X150240412Y-94432605D01*
X150896050Y-94204005D01*
X150896050Y-94664380D01*
G37*
G36*
X150870948Y-96187040D02*
G01*
X150976616Y-96206834D01*
X151067004Y-96239825D01*
X151142113Y-96286011D01*
X151217078Y-96366532D01*
X151262057Y-96467339D01*
X151277050Y-96588430D01*
X151262057Y-96709609D01*
X151217078Y-96810680D01*
X151142113Y-96891642D01*
X151067004Y-96938176D01*
X150976616Y-96971414D01*
X150870948Y-96991357D01*
X150750000Y-96998005D01*
X150629052Y-96991357D01*
X150523384Y-96971414D01*
X150432996Y-96938176D01*
X150357887Y-96891642D01*
X150282922Y-96810680D01*
X150237943Y-96709609D01*
X150222950Y-96588430D01*
X150237943Y-96467339D01*
X150282922Y-96366532D01*
X150357887Y-96286011D01*
X150432996Y-96239825D01*
X150523384Y-96206834D01*
X150629052Y-96187040D01*
X150750000Y-96180442D01*
X150870948Y-96187040D01*
G37*
%TO.C,TP13*%
X123450000Y-81000000D02*
G75*
G03*
X123450000Y-81000000I-950000J0D01*
G01*
%TO.C,TP3*%
X127950000Y-100000000D02*
G75*
G03*
X127950000Y-100000000I-950000J0D01*
G01*
%TO.C,TP10*%
X150450000Y-77500000D02*
G75*
G03*
X150450000Y-77500000I-950000J0D01*
G01*
%TO.C,TP11*%
X150450000Y-82500000D02*
G75*
G03*
X150450000Y-82500000I-950000J0D01*
G01*
%TO.C,TP2*%
X119950000Y-75500000D02*
G75*
G03*
X119950000Y-75500000I-950000J0D01*
G01*
%TO.C,TP8*%
X123450000Y-75250000D02*
G75*
G03*
X123450000Y-75250000I-950000J0D01*
G01*
%TO.C,TP12*%
X149950000Y-114500000D02*
G75*
G03*
X149950000Y-114500000I-950000J0D01*
G01*
%TO.C,TP17*%
X148700000Y-69250000D02*
G75*
G03*
X148700000Y-69250000I-950000J0D01*
G01*
%TO.C,TP16*%
X153450000Y-111000000D02*
G75*
G03*
X153450000Y-111000000I-950000J0D01*
G01*
%TO.C,TP4*%
X119950000Y-80500000D02*
G75*
G03*
X119950000Y-80500000I-950000J0D01*
G01*
%TO.C,TP14*%
X153450000Y-114500000D02*
G75*
G03*
X153450000Y-114500000I-950000J0D01*
G01*
%TO.C,kibuzzard-61C38F6A*%
G36*
X151857943Y-99879629D02*
G01*
X151857943Y-103455605D01*
X149642057Y-104120371D01*
X149642057Y-102942975D01*
X150170562Y-102942975D01*
X151329438Y-102942975D01*
X151329438Y-102863600D01*
X150262637Y-102863600D01*
X150262637Y-102860425D01*
X150537275Y-102525463D01*
X150445200Y-102525463D01*
X150170562Y-102863600D01*
X150170562Y-102942975D01*
X149642057Y-102942975D01*
X149642057Y-102195263D01*
X151134175Y-102195263D01*
X151329438Y-102195263D01*
X151329438Y-102104775D01*
X151134175Y-102104775D01*
X151134175Y-102195263D01*
X149642057Y-102195263D01*
X149642057Y-101465012D01*
X150154687Y-101465012D01*
X150163989Y-101560262D01*
X150191895Y-101642812D01*
X150238403Y-101712662D01*
X150303516Y-101769812D01*
X150387231Y-101814262D01*
X150489551Y-101846012D01*
X150610474Y-101865062D01*
X150750000Y-101871412D01*
X150889526Y-101865062D01*
X151010449Y-101846012D01*
X151112769Y-101814262D01*
X151196484Y-101769812D01*
X151261597Y-101712662D01*
X151308105Y-101642812D01*
X151336011Y-101560262D01*
X151345313Y-101465012D01*
X151336011Y-101369390D01*
X151308105Y-101286518D01*
X151261597Y-101216395D01*
X151196484Y-101159022D01*
X151112769Y-101114398D01*
X151010449Y-101082524D01*
X150889526Y-101063400D01*
X150750000Y-101057025D01*
X150610474Y-101063400D01*
X150489551Y-101082524D01*
X150387231Y-101114398D01*
X150303516Y-101159022D01*
X150238403Y-101216395D01*
X150191895Y-101286518D01*
X150163989Y-101369390D01*
X150154687Y-101465012D01*
X149642057Y-101465012D01*
X149642057Y-100544395D01*
X151857943Y-99879629D01*
G37*
G36*
X150889830Y-101143106D02*
G01*
X151008147Y-101163226D01*
X151104952Y-101196757D01*
X151180245Y-101243702D01*
X151234026Y-101304059D01*
X151266294Y-101377830D01*
X151277050Y-101465012D01*
X151262763Y-101564937D01*
X151219900Y-101646693D01*
X151148463Y-101710281D01*
X151075338Y-101746050D01*
X150984553Y-101771598D01*
X150876107Y-101786928D01*
X150750000Y-101792037D01*
X150623893Y-101786928D01*
X150515447Y-101771598D01*
X150424662Y-101746050D01*
X150351537Y-101710281D01*
X150280100Y-101646693D01*
X150237237Y-101564937D01*
X150222950Y-101465012D01*
X150233706Y-101377830D01*
X150265974Y-101304059D01*
X150319755Y-101243702D01*
X150395048Y-101196757D01*
X150491853Y-101163226D01*
X150610170Y-101143106D01*
X150750000Y-101136400D01*
X150889830Y-101143106D01*
G37*
%TO.C,TP1*%
X127950000Y-102500000D02*
G75*
G03*
X127950000Y-102500000I-950000J0D01*
G01*
%TO.C,TP15*%
X123450000Y-78000000D02*
G75*
G03*
X123450000Y-78000000I-950000J0D01*
G01*
%TD*%
M02*
