%TF.GenerationSoftware,KiCad,Pcbnew,6.0.0*%
%TF.CreationDate,2022-01-13T14:08:01-08:00*%
%TF.ProjectId,redshift,72656473-6869-4667-942e-6b696361645f,0.1*%
%TF.SameCoordinates,Original*%
%TF.FileFunction,Soldermask,Top*%
%TF.FilePolarity,Negative*%
%FSLAX46Y46*%
G04 Gerber Fmt 4.6, Leading zero omitted, Abs format (unit mm)*
G04 Created by KiCad (PCBNEW 6.0.0) date 2022-01-13 14:08:01*
%MOMM*%
%LPD*%
G01*
G04 APERTURE LIST*
G04 Aperture macros list*
%AMRoundRect*
0 Rectangle with rounded corners*
0 $1 Rounding radius*
0 $2 $3 $4 $5 $6 $7 $8 $9 X,Y pos of 4 corners*
0 Add a 4 corners polygon primitive as box body*
4,1,4,$2,$3,$4,$5,$6,$7,$8,$9,$2,$3,0*
0 Add four circle primitives for the rounded corners*
1,1,$1+$1,$2,$3*
1,1,$1+$1,$4,$5*
1,1,$1+$1,$6,$7*
1,1,$1+$1,$8,$9*
0 Add four rect primitives between the rounded corners*
20,1,$1+$1,$2,$3,$4,$5,0*
20,1,$1+$1,$4,$5,$6,$7,0*
20,1,$1+$1,$6,$7,$8,$9,0*
20,1,$1+$1,$8,$9,$2,$3,0*%
G04 Aperture macros list end*
%ADD10RoundRect,0.135000X0.135000X0.185000X-0.135000X0.185000X-0.135000X-0.185000X0.135000X-0.185000X0*%
%ADD11RoundRect,0.147500X0.147500X0.172500X-0.147500X0.172500X-0.147500X-0.172500X0.147500X-0.172500X0*%
%ADD12RoundRect,0.140000X-0.140000X-0.170000X0.140000X-0.170000X0.140000X0.170000X-0.140000X0.170000X0*%
%ADD13RoundRect,0.140000X0.140000X0.170000X-0.140000X0.170000X-0.140000X-0.170000X0.140000X-0.170000X0*%
%ADD14C,2.100000*%
%ADD15RoundRect,0.140000X-0.170000X0.140000X-0.170000X-0.140000X0.170000X-0.140000X0.170000X0.140000X0*%
%ADD16C,1.700000*%
%ADD17O,2.700000X1.600000*%
%ADD18RoundRect,0.147500X-0.147500X-0.172500X0.147500X-0.172500X0.147500X0.172500X-0.147500X0.172500X0*%
%ADD19C,0.650000*%
%ADD20R,0.600000X1.150000*%
%ADD21R,0.300000X1.150000*%
%ADD22O,1.050000X2.100000*%
%ADD23O,1.000000X2.000000*%
%ADD24RoundRect,0.200000X0.275000X-0.200000X0.275000X0.200000X-0.275000X0.200000X-0.275000X-0.200000X0*%
%ADD25R,0.450000X0.300000*%
%ADD26RoundRect,0.100000X0.100000X-0.130000X0.100000X0.130000X-0.100000X0.130000X-0.100000X-0.130000X0*%
%ADD27R,0.800000X0.900000*%
%ADD28RoundRect,0.100000X-0.130000X-0.100000X0.130000X-0.100000X0.130000X0.100000X-0.130000X0.100000X0*%
%ADD29RoundRect,0.006000X0.319000X0.094000X-0.319000X0.094000X-0.319000X-0.094000X0.319000X-0.094000X0*%
%ADD30R,0.300000X0.940000*%
%ADD31RoundRect,0.135000X-0.185000X0.135000X-0.185000X-0.135000X0.185000X-0.135000X0.185000X0.135000X0*%
%ADD32RoundRect,0.135000X-0.135000X-0.185000X0.135000X-0.185000X0.135000X0.185000X-0.135000X0.185000X0*%
%ADD33RoundRect,0.135000X0.185000X-0.135000X0.185000X0.135000X-0.185000X0.135000X-0.185000X-0.135000X0*%
%ADD34RoundRect,0.150000X0.625000X-0.150000X0.625000X0.150000X-0.625000X0.150000X-0.625000X-0.150000X0*%
%ADD35RoundRect,0.250000X0.650000X-0.350000X0.650000X0.350000X-0.650000X0.350000X-0.650000X-0.350000X0*%
%ADD36R,1.350000X1.350000*%
%ADD37O,1.350000X1.350000*%
%ADD38R,1.168400X0.889000*%
%ADD39R,1.168400X0.482600*%
%ADD40R,1.400000X1.400000*%
%ADD41C,1.400000*%
%ADD42C,0.290000*%
%ADD43RoundRect,0.147500X0.172500X-0.147500X0.172500X0.147500X-0.172500X0.147500X-0.172500X-0.147500X0*%
%ADD44RoundRect,0.140000X0.170000X-0.140000X0.170000X0.140000X-0.170000X0.140000X-0.170000X-0.140000X0*%
G04 APERTURE END LIST*
D10*
%TO.C,R6*%
X145510000Y-95750000D03*
X144490000Y-95750000D03*
%TD*%
D11*
%TO.C,FB1*%
X140985000Y-65250000D03*
X140015000Y-65250000D03*
%TD*%
D10*
%TO.C,R12*%
X155760000Y-110500000D03*
X154740000Y-110500000D03*
%TD*%
D12*
%TO.C,C24*%
X142790000Y-93500000D03*
X143750000Y-93500000D03*
%TD*%
D13*
%TO.C,C11*%
X132480000Y-91000000D03*
X131520000Y-91000000D03*
%TD*%
D14*
%TO.C,REF\u002A\u002A*%
X157000000Y-68000000D03*
%TD*%
D13*
%TO.C,C13*%
X132480000Y-89000000D03*
X131520000Y-89000000D03*
%TD*%
D15*
%TO.C,C8*%
X140000000Y-66250000D03*
X140000000Y-67210000D03*
%TD*%
D16*
%TO.C,ENC1*%
X129000000Y-80500000D03*
X129000000Y-78000000D03*
X129000000Y-75500000D03*
D17*
X127000000Y-83100000D03*
X127000000Y-72900000D03*
%TD*%
D15*
%TO.C,C14*%
X131250000Y-86020000D03*
X131250000Y-86980000D03*
%TD*%
D12*
%TO.C,C20*%
X144270000Y-109250000D03*
X145230000Y-109250000D03*
%TD*%
D18*
%TO.C,D3*%
X142520000Y-94750000D03*
X143490000Y-94750000D03*
%TD*%
D14*
%TO.C,REF\u002A\u002A*%
X157000000Y-116000000D03*
%TD*%
D19*
%TO.C,J1*%
X134610000Y-60680000D03*
X140390000Y-60680000D03*
D20*
X140700000Y-61755000D03*
X139900000Y-61755000D03*
D21*
X138750000Y-61755000D03*
X137750000Y-61755000D03*
X137250000Y-61755000D03*
X136250000Y-61755000D03*
D20*
X134300000Y-61755000D03*
X135100000Y-61755000D03*
D21*
X135750000Y-61755000D03*
X136750000Y-61755000D03*
X138250000Y-61755000D03*
X139250000Y-61755000D03*
D22*
X141820000Y-61180000D03*
D23*
X141820000Y-57000000D03*
X133180000Y-57000000D03*
D22*
X133180000Y-61180000D03*
%TD*%
D24*
%TO.C,L1*%
X132500000Y-87825000D03*
X132500000Y-86175000D03*
%TD*%
D10*
%TO.C,R11*%
X155760000Y-107500000D03*
X154740000Y-107500000D03*
%TD*%
D18*
%TO.C,D4*%
X142515000Y-95750000D03*
X143485000Y-95750000D03*
%TD*%
D12*
%TO.C,C2*%
X147250000Y-105230000D03*
X148210000Y-105230000D03*
%TD*%
D14*
%TO.C,REF\u002A\u002A*%
X118000000Y-116000000D03*
%TD*%
D25*
%TO.C,U3*%
X147300000Y-106500000D03*
X147300000Y-107000000D03*
X147300000Y-107500000D03*
X148700000Y-107500000D03*
X148700000Y-106500000D03*
%TD*%
D14*
%TO.C,REF\u002A\u002A*%
X118000000Y-68000000D03*
%TD*%
D13*
%TO.C,C4*%
X136460000Y-98000000D03*
X135500000Y-98000000D03*
%TD*%
D26*
%TO.C,C15*%
X145000000Y-88570000D03*
X145000000Y-87930000D03*
%TD*%
D10*
%TO.C,R4*%
X126510000Y-90500000D03*
X125490000Y-90500000D03*
%TD*%
D27*
%TO.C,Y1*%
X143850000Y-88250000D03*
X143850000Y-86850000D03*
X142750000Y-86850000D03*
X142750000Y-88250000D03*
%TD*%
D15*
%TO.C,C1*%
X133500000Y-64270000D03*
X133500000Y-65230000D03*
%TD*%
D28*
%TO.C,C23*%
X142430000Y-85750000D03*
X143070000Y-85750000D03*
%TD*%
D12*
%TO.C,C6*%
X142500000Y-90500000D03*
X143460000Y-90500000D03*
%TD*%
D11*
%TO.C,D5*%
X129485000Y-111250000D03*
X128515000Y-111250000D03*
%TD*%
D13*
%TO.C,C12*%
X132480000Y-90000000D03*
X131520000Y-90000000D03*
%TD*%
D29*
%TO.C,U4*%
X142625000Y-67150000D03*
X142625000Y-66750000D03*
X142625000Y-66350000D03*
X141375000Y-66350000D03*
X141375000Y-66750000D03*
X141375000Y-67150000D03*
D30*
X142000000Y-66750000D03*
%TD*%
D12*
%TO.C,C22*%
X144270000Y-106250000D03*
X145230000Y-106250000D03*
%TD*%
D18*
%TO.C,D2*%
X123515000Y-90500000D03*
X124485000Y-90500000D03*
%TD*%
D16*
%TO.C,SW3*%
X149000000Y-74920000D03*
X149000000Y-80000000D03*
X149000000Y-85080000D03*
%TD*%
D12*
%TO.C,C9*%
X138270000Y-88000000D03*
X139230000Y-88000000D03*
%TD*%
D10*
%TO.C,R10*%
X155760000Y-106500000D03*
X154740000Y-106500000D03*
%TD*%
D31*
%TO.C,R1*%
X132500000Y-64240000D03*
X132500000Y-65260000D03*
%TD*%
D13*
%TO.C,C3*%
X134480000Y-98000000D03*
X133520000Y-98000000D03*
%TD*%
D32*
%TO.C,R7*%
X126480000Y-111250000D03*
X127500000Y-111250000D03*
%TD*%
D33*
%TO.C,R2*%
X140000000Y-64260000D03*
X140000000Y-63240000D03*
%TD*%
D13*
%TO.C,C17*%
X145230000Y-103000000D03*
X144270000Y-103000000D03*
%TD*%
D12*
%TO.C,C7*%
X147270000Y-108750000D03*
X148230000Y-108750000D03*
%TD*%
D13*
%TO.C,C5*%
X138460000Y-98000000D03*
X137500000Y-98000000D03*
%TD*%
D12*
%TO.C,C16*%
X142770000Y-92500000D03*
X143730000Y-92500000D03*
%TD*%
D32*
%TO.C,R8*%
X129240000Y-105500000D03*
X130260000Y-105500000D03*
%TD*%
D34*
%TO.C,J2*%
X128075000Y-98250000D03*
X128075000Y-97250000D03*
X128075000Y-96250000D03*
X128075000Y-95250000D03*
X128075000Y-94250000D03*
D35*
X125550000Y-99550000D03*
X125550000Y-92950000D03*
%TD*%
D36*
%TO.C,J3*%
X157750000Y-100500000D03*
D37*
X157750000Y-102500000D03*
X157750000Y-104500000D03*
X157750000Y-106500000D03*
X157750000Y-108500000D03*
X157750000Y-110500000D03*
%TD*%
D10*
%TO.C,R9*%
X155750000Y-105500000D03*
X154730000Y-105500000D03*
%TD*%
D13*
%TO.C,C18*%
X145230000Y-104000000D03*
X144270000Y-104000000D03*
%TD*%
D10*
%TO.C,R5*%
X145520000Y-94750000D03*
X144500000Y-94750000D03*
%TD*%
D38*
%TO.C,D1*%
X138516343Y-65746800D03*
D39*
X138516343Y-64050000D03*
X136484343Y-64049999D03*
X136484343Y-65950001D03*
%TD*%
D40*
%TO.C,U1*%
X142850000Y-113985000D03*
D41*
X142850000Y-112205000D03*
X142850000Y-110425000D03*
X142850000Y-108645000D03*
X142850000Y-106865000D03*
X142850000Y-105085000D03*
X142850000Y-103305000D03*
X142850000Y-101525000D03*
X132150000Y-100635000D03*
X132150000Y-102415000D03*
X132150000Y-104195000D03*
X132150000Y-105975000D03*
X132150000Y-107755000D03*
X132150000Y-109535000D03*
X132150000Y-111315000D03*
X132150000Y-113095000D03*
%TD*%
D42*
%TO.C,IC1*%
X140500000Y-96000000D03*
X140000000Y-96000000D03*
X139500000Y-96000000D03*
X138500000Y-96000000D03*
X138000000Y-96000000D03*
X137500000Y-96000000D03*
X137000000Y-96000000D03*
X136500000Y-96000000D03*
X135500000Y-96000000D03*
X135000000Y-96000000D03*
X134500000Y-96000000D03*
X140500000Y-95500000D03*
X140000000Y-95500000D03*
X139500000Y-95500000D03*
X138500000Y-95500000D03*
X137000000Y-95500000D03*
X136500000Y-95500000D03*
X135000000Y-95500000D03*
X134500000Y-95500000D03*
X140500000Y-95000000D03*
X140000000Y-95000000D03*
X137500000Y-95000000D03*
X135000000Y-95000000D03*
X134500000Y-95000000D03*
X140000000Y-94000000D03*
X138500000Y-94000000D03*
X138000000Y-94000000D03*
X137500000Y-94000000D03*
X137000000Y-94000000D03*
X136500000Y-94000000D03*
X134500000Y-94000000D03*
X140500000Y-93500000D03*
X140000000Y-93500000D03*
X138500000Y-93500000D03*
X136500000Y-93500000D03*
X135000000Y-93500000D03*
X134500000Y-93500000D03*
X140500000Y-93000000D03*
X140000000Y-93000000D03*
X139500000Y-93000000D03*
X138500000Y-93000000D03*
X138000000Y-93000000D03*
X137000000Y-93000000D03*
X135500000Y-93000000D03*
X135000000Y-93000000D03*
X134500000Y-93000000D03*
X140500000Y-92500000D03*
X140000000Y-92500000D03*
X138500000Y-92500000D03*
X135000000Y-92500000D03*
X134500000Y-92500000D03*
X140500000Y-92000000D03*
X140000000Y-92000000D03*
X138500000Y-92000000D03*
X138000000Y-92000000D03*
X137500000Y-92000000D03*
X135000000Y-92000000D03*
X134500000Y-92000000D03*
X140500000Y-91000000D03*
X140000000Y-91000000D03*
X137500000Y-91000000D03*
X135000000Y-91000000D03*
X134500000Y-91000000D03*
X140500000Y-90500000D03*
X140000000Y-90500000D03*
X139500000Y-90500000D03*
X138500000Y-90500000D03*
X138000000Y-90500000D03*
X137500000Y-90500000D03*
X137000000Y-90500000D03*
X136500000Y-90500000D03*
X135500000Y-90500000D03*
X135000000Y-90500000D03*
X134500000Y-90500000D03*
X140500000Y-90000000D03*
X140000000Y-90000000D03*
X139500000Y-90000000D03*
X138500000Y-90000000D03*
X138000000Y-90000000D03*
X137500000Y-90000000D03*
X136500000Y-90000000D03*
X135500000Y-90000000D03*
X135000000Y-90000000D03*
X134500000Y-90000000D03*
%TD*%
D12*
%TO.C,C19*%
X144270000Y-108250000D03*
X145230000Y-108250000D03*
%TD*%
D16*
%TO.C,SW2*%
X156000000Y-72920000D03*
X156000000Y-78000000D03*
X156000000Y-83080000D03*
%TD*%
D43*
%TO.C,F1*%
X141000000Y-64235000D03*
X141000000Y-63265000D03*
%TD*%
D12*
%TO.C,C21*%
X144290000Y-107250000D03*
X145250000Y-107250000D03*
%TD*%
D44*
%TO.C,C10*%
X143750000Y-67250000D03*
X143750000Y-66290000D03*
%TD*%
D16*
%TO.C,SW1*%
X119000000Y-72920000D03*
X119000000Y-78000000D03*
X119000000Y-83080000D03*
%TD*%
D33*
%TO.C,R3*%
X135000000Y-64260000D03*
X135000000Y-63240000D03*
%TD*%
M02*
