%TF.GenerationSoftware,KiCad,Pcbnew,6.0.9+dfsg-1*%
%TF.CreationDate,2023-01-18T23:30:58-08:00*%
%TF.ProjectId,redshift,72656473-6869-4667-942e-6b696361645f,0.2*%
%TF.SameCoordinates,Original*%
%TF.FileFunction,Profile,NP*%
%FSLAX46Y46*%
G04 Gerber Fmt 4.6, Leading zero omitted, Abs format (unit mm)*
G04 Created by KiCad (PCBNEW 6.0.9+dfsg-1) date 2023-01-18 23:30:58*
%MOMM*%
%LPD*%
G01*
G04 APERTURE LIST*
%TA.AperFunction,Profile*%
%ADD10C,0.100000*%
%TD*%
%TA.AperFunction,Profile*%
%ADD11C,0.050000*%
%TD*%
G04 APERTURE END LIST*
D10*
X133146447Y-71853647D02*
G75*
G03*
X133646447Y-71353552I-47J500047D01*
G01*
X144646446Y-83353553D02*
X144646446Y-72353553D01*
X142146447Y-83853554D02*
X144146447Y-83853552D01*
X133646448Y-86853553D02*
G75*
G03*
X134146447Y-87353552I499952J-47D01*
G01*
X141646445Y-68853553D02*
G75*
G03*
X141146447Y-68353555I-500045J-47D01*
G01*
X132000000Y-55500000D02*
X143000000Y-55500000D01*
X141146447Y-87353646D02*
G75*
G03*
X141646446Y-86853553I-47J500046D01*
G01*
X144646446Y-72353553D02*
G75*
G03*
X144146447Y-71853554I-500046J-47D01*
G01*
X157000000Y-119000000D02*
G75*
G03*
X160000000Y-116000000I0J3000000D01*
G01*
X160000000Y-68000000D02*
X160000000Y-116000000D01*
X131146447Y-71853648D02*
G75*
G03*
X130646448Y-72353553I-47J-499952D01*
G01*
X130646448Y-83353553D02*
G75*
G03*
X131146447Y-83853552I499952J-47D01*
G01*
X134146447Y-68353648D02*
G75*
G03*
X133646448Y-68853553I-47J-499952D01*
G01*
X132000000Y-55500000D02*
X132000000Y-63000000D01*
X141646445Y-68853553D02*
X141646448Y-71353553D01*
X141646449Y-71353553D02*
G75*
G03*
X142146448Y-71853551I499951J-47D01*
G01*
X142146447Y-71853552D02*
X144146447Y-71853554D01*
X143000000Y-63000000D02*
G75*
G03*
X145000000Y-65000000I2000000J0D01*
G01*
X133646446Y-84353553D02*
G75*
G03*
X133146447Y-83853554I-500046J-47D01*
G01*
X145000000Y-65000000D02*
X157000000Y-65000000D01*
X160000000Y-68000000D02*
G75*
G03*
X157000000Y-65000000I-3000000J0D01*
G01*
X144146447Y-83853646D02*
G75*
G03*
X144646446Y-83353553I-47J500046D01*
G01*
X141146447Y-68353554D02*
X134146447Y-68353554D01*
X141646448Y-84353553D02*
X141646446Y-86853553D01*
X118000000Y-119000000D02*
X157000000Y-119000000D01*
X142146447Y-83853648D02*
G75*
G03*
X141646448Y-84353553I-47J-499952D01*
G01*
X118000000Y-65000000D02*
G75*
G03*
X115000000Y-68000000I0J-3000000D01*
G01*
X133146447Y-71853552D02*
X131146447Y-71853554D01*
X133646446Y-71353553D02*
X133646449Y-68853553D01*
X133146447Y-83853554D02*
X131146447Y-83853552D01*
X133646448Y-86853553D02*
X133646446Y-84353553D01*
X134146447Y-87353552D02*
X141146447Y-87353552D01*
X115000000Y-116000000D02*
X115000000Y-68000000D01*
X143000000Y-63000000D02*
X143000000Y-55500000D01*
X130000000Y-65000000D02*
G75*
G03*
X132000000Y-63000000I0J2000000D01*
G01*
X115000000Y-116000000D02*
G75*
G03*
X118000000Y-119000000I3000000J0D01*
G01*
X130646448Y-83353553D02*
X130646448Y-72353553D01*
X118000000Y-65000000D02*
X130000000Y-65000000D01*
D11*
%TO.C,U1*%
X133200000Y-116765000D02*
X133200000Y-99505000D01*
X141800000Y-99505000D02*
X141800000Y-116765000D01*
X141800000Y-99505000D02*
X133200000Y-99505000D01*
X141800000Y-116765000D02*
X133200000Y-116765000D01*
%TD*%
M02*
