%TF.GenerationSoftware,KiCad,Pcbnew,6.0.9+dfsg-1*%
%TF.CreationDate,2023-01-18T23:30:58-08:00*%
%TF.ProjectId,redshift,72656473-6869-4667-942e-6b696361645f,0.2*%
%TF.SameCoordinates,Original*%
%TF.FileFunction,Legend,Bot*%
%TF.FilePolarity,Positive*%
%FSLAX46Y46*%
G04 Gerber Fmt 4.6, Leading zero omitted, Abs format (unit mm)*
G04 Created by KiCad (PCBNEW 6.0.9+dfsg-1) date 2023-01-18 23:30:58*
%MOMM*%
%LPD*%
G01*
G04 APERTURE LIST*
%ADD10C,0.069999*%
%ADD11C,0.120000*%
%ADD12C,0.150000*%
%ADD13C,0.125000*%
G04 APERTURE END LIST*
D10*
G36*
X118420550Y-108177582D02*
G01*
X118421961Y-108177687D01*
X118423366Y-108177859D01*
X118424762Y-108178097D01*
X118426147Y-108178400D01*
X118427519Y-108178765D01*
X118428877Y-108179190D01*
X118430217Y-108179675D01*
X118432838Y-108180814D01*
X118435364Y-108182169D01*
X118437779Y-108183725D01*
X118440066Y-108185470D01*
X118442207Y-108187388D01*
X118444186Y-108189467D01*
X118445986Y-108191692D01*
X118446813Y-108192855D01*
X118447588Y-108194050D01*
X118448310Y-108195274D01*
X118448977Y-108196526D01*
X118449586Y-108197805D01*
X118450135Y-108199108D01*
X118450622Y-108200434D01*
X118451045Y-108201782D01*
X118451402Y-108203148D01*
X118451690Y-108204533D01*
X118562164Y-108798502D01*
X118562451Y-108799897D01*
X118562803Y-108801296D01*
X118563693Y-108804098D01*
X118564818Y-108806888D01*
X118566162Y-108809649D01*
X118567709Y-108812362D01*
X118569442Y-108815008D01*
X118571345Y-108817570D01*
X118573402Y-108820030D01*
X118575595Y-108822368D01*
X118577910Y-108824567D01*
X118580329Y-108826608D01*
X118582836Y-108828473D01*
X118585415Y-108830143D01*
X118588049Y-108831602D01*
X118590722Y-108832829D01*
X118592068Y-108833350D01*
X118593418Y-108833807D01*
X119056656Y-109019232D01*
X119059291Y-109020379D01*
X119062082Y-109021336D01*
X119065004Y-109022104D01*
X119068034Y-109022684D01*
X119071147Y-109023079D01*
X119074319Y-109023290D01*
X119077526Y-109023320D01*
X119080744Y-109023169D01*
X119083949Y-109022840D01*
X119087115Y-109022334D01*
X119090220Y-109021653D01*
X119093239Y-109020799D01*
X119096148Y-109019774D01*
X119098922Y-109018579D01*
X119101538Y-109017216D01*
X119103971Y-109015687D01*
X119595641Y-108678333D01*
X119596827Y-108677564D01*
X119598048Y-108676856D01*
X119599301Y-108676207D01*
X119600585Y-108675617D01*
X119601896Y-108675087D01*
X119603232Y-108674616D01*
X119605966Y-108673849D01*
X119608766Y-108673315D01*
X119611611Y-108673012D01*
X119614478Y-108672938D01*
X119617347Y-108673091D01*
X119620196Y-108673469D01*
X119623002Y-108674069D01*
X119625745Y-108674890D01*
X119628402Y-108675931D01*
X119630953Y-108677188D01*
X119632181Y-108677897D01*
X119633375Y-108678660D01*
X119634531Y-108679475D01*
X119635647Y-108680344D01*
X119636720Y-108681266D01*
X119637747Y-108682240D01*
X120080873Y-109125438D01*
X120081843Y-109126462D01*
X120082762Y-109127531D01*
X120083628Y-109128644D01*
X120084441Y-109129798D01*
X120085201Y-109130989D01*
X120085908Y-109132215D01*
X120086561Y-109133474D01*
X120087161Y-109134762D01*
X120087707Y-109136077D01*
X120088198Y-109137416D01*
X120089017Y-109140157D01*
X120089617Y-109142962D01*
X120089994Y-109145810D01*
X120090147Y-109148679D01*
X120090074Y-109151548D01*
X120089773Y-109154395D01*
X120089537Y-109155803D01*
X120089243Y-109157198D01*
X120088890Y-109158577D01*
X120088480Y-109159936D01*
X120088011Y-109161274D01*
X120087483Y-109162588D01*
X120086896Y-109163874D01*
X120086250Y-109165131D01*
X120085545Y-109166355D01*
X120084780Y-109167544D01*
X119753285Y-109650460D01*
X119751780Y-109652888D01*
X119750460Y-109655489D01*
X119749324Y-109658240D01*
X119748375Y-109661117D01*
X119747612Y-109664095D01*
X119747036Y-109667151D01*
X119746647Y-109670262D01*
X119746447Y-109673402D01*
X119746436Y-109676550D01*
X119746614Y-109679680D01*
X119746982Y-109682768D01*
X119747541Y-109685792D01*
X119748291Y-109688727D01*
X119749232Y-109691550D01*
X119750367Y-109694236D01*
X119751694Y-109696762D01*
X119865423Y-109909751D01*
X119866032Y-109911022D01*
X119866567Y-109912303D01*
X119867028Y-109913593D01*
X119867418Y-109914890D01*
X119867736Y-109916191D01*
X119867983Y-109917495D01*
X119868161Y-109918798D01*
X119868270Y-109920098D01*
X119868312Y-109921394D01*
X119868286Y-109922684D01*
X119868193Y-109923964D01*
X119868036Y-109925232D01*
X119867814Y-109926487D01*
X119867528Y-109927727D01*
X119867180Y-109928948D01*
X119866769Y-109930149D01*
X119866297Y-109931327D01*
X119865766Y-109932480D01*
X119865174Y-109933607D01*
X119864525Y-109934704D01*
X119863817Y-109935769D01*
X119863053Y-109936801D01*
X119862233Y-109937797D01*
X119861357Y-109938754D01*
X119860428Y-109939671D01*
X119859445Y-109940546D01*
X119858409Y-109941375D01*
X119857322Y-109942157D01*
X119856184Y-109942889D01*
X119854996Y-109943570D01*
X119853759Y-109944197D01*
X119852474Y-109944767D01*
X118791360Y-110383986D01*
X118790040Y-110384497D01*
X118788699Y-110384941D01*
X118787341Y-110385317D01*
X118785967Y-110385628D01*
X118784581Y-110385874D01*
X118783185Y-110386055D01*
X118780372Y-110386229D01*
X118777549Y-110386156D01*
X118774736Y-110385843D01*
X118771954Y-110385297D01*
X118769222Y-110384526D01*
X118766562Y-110383535D01*
X118763993Y-110382332D01*
X118761537Y-110380923D01*
X118759212Y-110379315D01*
X118757040Y-110377516D01*
X118756017Y-110376547D01*
X118755040Y-110375532D01*
X118754112Y-110374473D01*
X118753234Y-110373370D01*
X118752410Y-110372224D01*
X118751641Y-110371036D01*
X118719013Y-110317789D01*
X118716569Y-110313941D01*
X118713779Y-110309838D01*
X118710704Y-110305555D01*
X118707405Y-110301168D01*
X118703942Y-110296751D01*
X118700377Y-110292379D01*
X118696771Y-110288129D01*
X118693185Y-110284075D01*
X118669033Y-110248794D01*
X118642810Y-110215121D01*
X118614609Y-110183147D01*
X118584520Y-110152966D01*
X118552635Y-110124669D01*
X118519045Y-110098349D01*
X118483840Y-110074098D01*
X118447113Y-110052008D01*
X118408954Y-110032171D01*
X118389366Y-110023126D01*
X118369455Y-110014680D01*
X118349231Y-110006843D01*
X118328706Y-109999626D01*
X118307892Y-109993043D01*
X118286799Y-109987103D01*
X118265440Y-109981819D01*
X118243826Y-109977202D01*
X118221968Y-109973264D01*
X118199877Y-109970016D01*
X118177565Y-109967470D01*
X118155043Y-109965637D01*
X118132324Y-109964528D01*
X118109417Y-109964156D01*
X118073749Y-109965058D01*
X118038549Y-109967736D01*
X118003861Y-109972144D01*
X117969728Y-109978241D01*
X117936194Y-109985982D01*
X117903302Y-109995324D01*
X117871095Y-110006224D01*
X117839619Y-110018636D01*
X117808915Y-110032519D01*
X117779027Y-110047829D01*
X117750000Y-110064521D01*
X117721876Y-110082552D01*
X117694700Y-110101880D01*
X117668514Y-110122459D01*
X117643363Y-110144247D01*
X117619290Y-110167200D01*
X117596338Y-110191274D01*
X117574551Y-110216426D01*
X117553973Y-110242612D01*
X117534646Y-110269789D01*
X117516616Y-110297913D01*
X117499925Y-110326940D01*
X117484617Y-110356827D01*
X117470735Y-110387530D01*
X117458323Y-110419006D01*
X117447425Y-110451212D01*
X117438084Y-110484102D01*
X117430344Y-110517635D01*
X117424247Y-110551766D01*
X117419839Y-110586452D01*
X117417162Y-110621648D01*
X117416260Y-110657313D01*
X117417162Y-110692977D01*
X117419839Y-110728173D01*
X117424247Y-110762856D01*
X117430344Y-110796985D01*
X117438084Y-110830514D01*
X117447425Y-110863401D01*
X117458323Y-110895602D01*
X117470735Y-110927073D01*
X117484617Y-110957771D01*
X117499925Y-110987653D01*
X117516616Y-111016674D01*
X117534646Y-111044791D01*
X117553973Y-111071962D01*
X117574551Y-111098141D01*
X117596338Y-111123287D01*
X117619290Y-111147354D01*
X117643363Y-111170300D01*
X117668514Y-111192081D01*
X117694700Y-111212654D01*
X117721876Y-111231975D01*
X117750000Y-111250000D01*
X117779027Y-111266686D01*
X117808915Y-111281990D01*
X117839619Y-111295868D01*
X117871095Y-111308275D01*
X117903302Y-111319170D01*
X117936194Y-111328508D01*
X117969728Y-111336246D01*
X118003861Y-111342340D01*
X118038549Y-111346747D01*
X118073749Y-111349423D01*
X118109417Y-111350325D01*
X118155043Y-111348846D01*
X118199877Y-111344470D01*
X118243826Y-111337289D01*
X118286799Y-111327395D01*
X118328706Y-111314879D01*
X118369455Y-111299834D01*
X118408954Y-111282352D01*
X118447113Y-111262524D01*
X118483840Y-111240442D01*
X118519045Y-111216198D01*
X118552635Y-111189884D01*
X118584520Y-111161592D01*
X118614609Y-111131413D01*
X118642810Y-111099440D01*
X118669033Y-111065765D01*
X118693185Y-111030479D01*
X118696771Y-111026447D01*
X118700377Y-111022211D01*
X118703942Y-111017849D01*
X118707405Y-111013436D01*
X118710704Y-111009051D01*
X118713779Y-111004772D01*
X118716569Y-111000675D01*
X118719013Y-110996838D01*
X118751641Y-110943518D01*
X118752410Y-110942337D01*
X118753234Y-110941198D01*
X118754112Y-110940101D01*
X118755040Y-110939048D01*
X118756017Y-110938039D01*
X118757040Y-110937075D01*
X118758105Y-110936157D01*
X118759212Y-110935286D01*
X118760356Y-110934463D01*
X118761537Y-110933688D01*
X118762750Y-110932962D01*
X118763993Y-110932287D01*
X118765265Y-110931663D01*
X118766562Y-110931091D01*
X118767882Y-110930571D01*
X118769222Y-110930106D01*
X118770580Y-110929694D01*
X118771954Y-110929338D01*
X118773340Y-110929038D01*
X118774736Y-110928796D01*
X118776140Y-110928611D01*
X118777549Y-110928485D01*
X118778960Y-110928418D01*
X118780372Y-110928412D01*
X118781781Y-110928467D01*
X118783185Y-110928584D01*
X118784581Y-110928764D01*
X118785967Y-110929008D01*
X118787341Y-110929317D01*
X118788699Y-110929691D01*
X118790040Y-110930132D01*
X118791360Y-110930640D01*
X119852546Y-111369786D01*
X119853831Y-111370357D01*
X119855067Y-111370983D01*
X119856253Y-111371664D01*
X119857390Y-111372396D01*
X119858474Y-111373177D01*
X119859507Y-111374005D01*
X119860487Y-111374878D01*
X119861413Y-111375794D01*
X119862285Y-111376750D01*
X119863101Y-111377745D01*
X119863861Y-111378776D01*
X119864564Y-111379840D01*
X119865210Y-111380936D01*
X119865796Y-111382061D01*
X119866324Y-111383214D01*
X119866791Y-111384391D01*
X119867198Y-111385591D01*
X119867542Y-111386812D01*
X119867824Y-111388050D01*
X119868043Y-111389305D01*
X119868197Y-111390573D01*
X119868286Y-111391854D01*
X119868309Y-111393143D01*
X119868266Y-111394440D01*
X119868155Y-111395741D01*
X119867976Y-111397045D01*
X119867728Y-111398350D01*
X119867410Y-111399653D01*
X119867022Y-111400952D01*
X119866562Y-111402244D01*
X119866029Y-111403528D01*
X119865423Y-111404802D01*
X119751694Y-111617792D01*
X119750366Y-111620324D01*
X119749231Y-111623015D01*
X119748288Y-111625840D01*
X119747536Y-111628777D01*
X119746975Y-111631802D01*
X119746604Y-111634890D01*
X119746424Y-111638019D01*
X119746433Y-111641165D01*
X119746632Y-111644304D01*
X119747019Y-111647412D01*
X119747595Y-111650466D01*
X119748359Y-111653442D01*
X119749310Y-111656316D01*
X119750449Y-111659066D01*
X119751774Y-111661666D01*
X119753285Y-111664094D01*
X120084780Y-112147083D01*
X120085545Y-112148268D01*
X120086250Y-112149489D01*
X120086896Y-112150743D01*
X120087483Y-112152026D01*
X120088011Y-112153337D01*
X120088480Y-112154672D01*
X120089243Y-112157406D01*
X120089773Y-112160205D01*
X120090074Y-112163049D01*
X120090147Y-112165914D01*
X120089994Y-112168780D01*
X120089617Y-112171625D01*
X120089017Y-112174426D01*
X120088198Y-112177163D01*
X120087161Y-112179814D01*
X120085908Y-112182356D01*
X120085201Y-112183580D01*
X120084441Y-112184768D01*
X120083628Y-112185919D01*
X120082762Y-112187029D01*
X120081843Y-112188096D01*
X120080873Y-112189116D01*
X119637747Y-112632386D01*
X119636720Y-112633364D01*
X119635647Y-112634288D01*
X119634531Y-112635158D01*
X119633375Y-112635976D01*
X119632181Y-112636739D01*
X119630953Y-112637449D01*
X119629692Y-112638104D01*
X119628402Y-112638705D01*
X119627086Y-112639251D01*
X119625745Y-112639743D01*
X119623002Y-112640560D01*
X119620196Y-112641155D01*
X119617347Y-112641527D01*
X119614478Y-112641672D01*
X119611611Y-112641590D01*
X119608766Y-112641279D01*
X119607359Y-112641037D01*
X119605966Y-112640737D01*
X119604589Y-112640378D01*
X119603232Y-112639961D01*
X119601896Y-112639486D01*
X119600585Y-112638951D01*
X119599301Y-112638358D01*
X119598048Y-112637705D01*
X119596827Y-112636993D01*
X119595641Y-112636220D01*
X119103971Y-112298794D01*
X119101538Y-112297278D01*
X119098922Y-112295927D01*
X119096148Y-112294742D01*
X119093239Y-112293725D01*
X119090220Y-112292878D01*
X119087115Y-112292203D01*
X119083949Y-112291702D01*
X119080744Y-112291377D01*
X119077526Y-112291229D01*
X119074319Y-112291260D01*
X119071147Y-112291473D01*
X119068034Y-112291869D01*
X119065004Y-112292450D01*
X119062082Y-112293218D01*
X119059291Y-112294174D01*
X119056656Y-112295322D01*
X118593491Y-112480747D01*
X118592141Y-112481207D01*
X118590795Y-112481730D01*
X118588121Y-112482958D01*
X118585487Y-112484414D01*
X118582908Y-112486080D01*
X118580401Y-112487938D01*
X118577982Y-112489971D01*
X118575668Y-112492160D01*
X118573474Y-112494488D01*
X118571418Y-112496937D01*
X118569515Y-112499489D01*
X118567781Y-112502127D01*
X118566235Y-112504833D01*
X118564890Y-112507589D01*
X118563765Y-112510377D01*
X118563290Y-112511778D01*
X118562875Y-112513180D01*
X118562523Y-112514581D01*
X118562237Y-112515980D01*
X118451690Y-113109949D01*
X118451402Y-113111330D01*
X118451046Y-113112694D01*
X118450624Y-113114040D01*
X118450138Y-113115365D01*
X118449591Y-113116669D01*
X118448984Y-113117948D01*
X118448319Y-113119201D01*
X118447599Y-113120427D01*
X118446826Y-113121624D01*
X118446002Y-113122790D01*
X118445129Y-113123923D01*
X118444209Y-113125021D01*
X118443244Y-113126083D01*
X118442237Y-113127107D01*
X118441189Y-113128092D01*
X118440102Y-113129034D01*
X118438979Y-113129933D01*
X118437822Y-113130787D01*
X118436633Y-113131594D01*
X118435413Y-113132352D01*
X118434166Y-113133060D01*
X118432893Y-113133715D01*
X118431596Y-113134317D01*
X118430278Y-113134863D01*
X118428940Y-113135351D01*
X118427585Y-113135779D01*
X118426214Y-113136147D01*
X118424831Y-113136452D01*
X118423436Y-113136692D01*
X118422032Y-113136866D01*
X118420622Y-113136971D01*
X118419207Y-113137007D01*
X117792465Y-113137079D01*
X117791046Y-113137047D01*
X117789633Y-113136946D01*
X117788228Y-113136776D01*
X117786831Y-113136541D01*
X117785447Y-113136241D01*
X117784076Y-113135879D01*
X117782720Y-113135455D01*
X117781382Y-113134973D01*
X117780064Y-113134433D01*
X117778767Y-113133838D01*
X117776248Y-113132487D01*
X117773840Y-113130934D01*
X117771561Y-113129193D01*
X117769426Y-113127278D01*
X117767452Y-113125202D01*
X117765655Y-113122981D01*
X117764052Y-113120627D01*
X117763329Y-113119405D01*
X117762660Y-113118155D01*
X117762048Y-113116879D01*
X117761494Y-113115578D01*
X117761001Y-113114255D01*
X117760572Y-113112910D01*
X117760206Y-113111547D01*
X117759908Y-113110166D01*
X117646686Y-112501221D01*
X117646036Y-112498429D01*
X117645141Y-112495621D01*
X117644015Y-112492816D01*
X117642675Y-112490032D01*
X117641136Y-112487289D01*
X117639414Y-112484605D01*
X117637526Y-112481999D01*
X117635487Y-112479489D01*
X117633313Y-112477094D01*
X117631020Y-112474833D01*
X117628623Y-112472725D01*
X117626139Y-112470787D01*
X117623584Y-112469039D01*
X117620973Y-112467499D01*
X117618323Y-112466187D01*
X117615648Y-112465120D01*
X117180192Y-112278465D01*
X117177585Y-112277256D01*
X117174821Y-112276240D01*
X117171925Y-112275416D01*
X117168921Y-112274782D01*
X117165832Y-112274336D01*
X117162682Y-112274077D01*
X117159495Y-112274003D01*
X117156296Y-112274114D01*
X117153107Y-112274406D01*
X117149953Y-112274879D01*
X117146857Y-112275532D01*
X117143844Y-112276362D01*
X117140937Y-112277369D01*
X117138161Y-112278550D01*
X117135538Y-112279905D01*
X117133094Y-112281431D01*
X116615958Y-112636220D01*
X116614772Y-112636986D01*
X116613552Y-112637693D01*
X116612300Y-112638341D01*
X116611017Y-112638930D01*
X116609708Y-112639461D01*
X116608374Y-112639934D01*
X116605645Y-112640706D01*
X116602850Y-112641246D01*
X116600011Y-112641558D01*
X116597150Y-112641642D01*
X116594288Y-112641499D01*
X116591446Y-112641131D01*
X116588646Y-112640541D01*
X116585910Y-112639728D01*
X116583258Y-112638695D01*
X116580712Y-112637442D01*
X116579485Y-112636735D01*
X116578293Y-112635973D01*
X116577138Y-112635157D01*
X116576023Y-112634287D01*
X116574951Y-112633363D01*
X116573924Y-112632386D01*
X116130799Y-112189188D01*
X116129821Y-112188161D01*
X116128897Y-112187089D01*
X116128025Y-112185974D01*
X116127206Y-112184819D01*
X116126441Y-112183627D01*
X116125730Y-112182401D01*
X116125072Y-112181142D01*
X116124469Y-112179855D01*
X116123920Y-112178541D01*
X116123425Y-112177203D01*
X116122602Y-112174466D01*
X116122000Y-112171666D01*
X116121622Y-112168825D01*
X116121470Y-112165963D01*
X116121545Y-112163102D01*
X116121850Y-112160263D01*
X116122089Y-112158859D01*
X116122387Y-112157468D01*
X116122743Y-112156094D01*
X116123158Y-112154739D01*
X116123631Y-112153405D01*
X116124164Y-112152096D01*
X116124756Y-112150813D01*
X116125408Y-112149561D01*
X116126120Y-112148340D01*
X116126892Y-112147155D01*
X116487976Y-111620975D01*
X116489497Y-111618541D01*
X116490852Y-111615923D01*
X116492038Y-111613146D01*
X116493055Y-111610233D01*
X116493899Y-111607209D01*
X116494570Y-111604100D01*
X116495066Y-111600929D01*
X116495385Y-111597721D01*
X116495526Y-111594500D01*
X116495486Y-111591291D01*
X116495265Y-111588118D01*
X116494861Y-111585007D01*
X116494271Y-111581981D01*
X116493495Y-111579065D01*
X116492531Y-111576283D01*
X116491376Y-111573660D01*
X116318539Y-111151515D01*
X116318062Y-111150173D01*
X116317521Y-111148835D01*
X116316919Y-111147502D01*
X116316258Y-111146178D01*
X116314766Y-111143562D01*
X116313066Y-111141003D01*
X116311174Y-111138515D01*
X116309110Y-111136115D01*
X116306890Y-111133818D01*
X116304534Y-111131641D01*
X116302059Y-111129598D01*
X116299484Y-111127707D01*
X116296827Y-111125982D01*
X116294106Y-111124439D01*
X116291339Y-111123094D01*
X116288544Y-111121963D01*
X116285740Y-111121062D01*
X116284340Y-111120702D01*
X116282944Y-111120406D01*
X115653091Y-111003204D01*
X115651707Y-111002913D01*
X115650340Y-111002554D01*
X115648993Y-111002129D01*
X115647667Y-111001641D01*
X115646364Y-111001092D01*
X115645085Y-111000483D01*
X115643833Y-110999818D01*
X115642608Y-110999097D01*
X115641414Y-110998324D01*
X115640250Y-110997499D01*
X115639120Y-110996626D01*
X115638025Y-110995706D01*
X115636967Y-110994742D01*
X115635947Y-110993735D01*
X115634967Y-110992687D01*
X115634028Y-110991602D01*
X115633134Y-110990480D01*
X115632284Y-110989324D01*
X115631482Y-110988135D01*
X115630728Y-110986917D01*
X115630024Y-110985671D01*
X115629373Y-110984399D01*
X115628775Y-110983104D01*
X115628234Y-110981786D01*
X115627749Y-110980450D01*
X115627323Y-110979095D01*
X115626959Y-110977726D01*
X115626656Y-110976343D01*
X115626418Y-110974949D01*
X115626246Y-110973546D01*
X115626141Y-110972135D01*
X115626106Y-110970720D01*
X115626106Y-110343978D01*
X115626141Y-110342566D01*
X115626246Y-110341159D01*
X115626418Y-110339758D01*
X115626656Y-110338366D01*
X115626959Y-110336985D01*
X115627323Y-110335617D01*
X115627749Y-110334264D01*
X115628234Y-110332928D01*
X115628775Y-110331611D01*
X115629373Y-110330316D01*
X115630728Y-110327798D01*
X115632284Y-110325390D01*
X115634028Y-110323111D01*
X115635947Y-110320975D01*
X115638025Y-110319002D01*
X115640250Y-110317206D01*
X115641414Y-110316381D01*
X115642608Y-110315606D01*
X115643833Y-110314885D01*
X115645085Y-110314218D01*
X115646364Y-110313609D01*
X115647667Y-110313059D01*
X115648993Y-110312570D01*
X115650340Y-110312145D01*
X115651707Y-110311786D01*
X115653091Y-110311494D01*
X116282944Y-110194292D01*
X116285740Y-110193637D01*
X116288544Y-110192737D01*
X116291339Y-110191608D01*
X116294106Y-110190265D01*
X116296827Y-110188724D01*
X116299484Y-110187002D01*
X116302059Y-110185112D01*
X116304534Y-110183072D01*
X116306890Y-110180896D01*
X116309110Y-110178600D01*
X116311174Y-110176200D01*
X116313066Y-110173711D01*
X116314766Y-110171150D01*
X116316258Y-110168531D01*
X116317521Y-110165870D01*
X116318539Y-110163183D01*
X116491376Y-109741038D01*
X116492531Y-109738409D01*
X116493495Y-109735622D01*
X116494271Y-109732701D01*
X116494861Y-109729671D01*
X116495265Y-109726556D01*
X116495486Y-109723381D01*
X116495526Y-109720171D01*
X116495385Y-109716950D01*
X116495066Y-109713742D01*
X116494570Y-109710572D01*
X116493899Y-109707465D01*
X116493055Y-109704445D01*
X116492038Y-109701536D01*
X116490852Y-109698763D01*
X116489497Y-109696151D01*
X116487976Y-109693723D01*
X116126892Y-109167544D01*
X116126120Y-109166355D01*
X116125408Y-109165131D01*
X116124756Y-109163874D01*
X116124164Y-109162588D01*
X116123631Y-109161274D01*
X116123158Y-109159936D01*
X116122387Y-109157198D01*
X116121850Y-109154395D01*
X116121545Y-109151548D01*
X116121470Y-109148679D01*
X116121622Y-109145810D01*
X116122000Y-109142962D01*
X116122602Y-109140157D01*
X116123425Y-109137416D01*
X116124469Y-109134762D01*
X116125730Y-109132215D01*
X116126441Y-109130989D01*
X116127206Y-109129798D01*
X116128025Y-109128644D01*
X116128897Y-109127531D01*
X116129821Y-109126462D01*
X116130799Y-109125438D01*
X116573924Y-108682312D01*
X116574951Y-108681338D01*
X116576023Y-108680416D01*
X116577138Y-108679547D01*
X116578293Y-108678730D01*
X116579485Y-108677967D01*
X116580712Y-108677257D01*
X116581970Y-108676600D01*
X116583258Y-108675998D01*
X116584572Y-108675449D01*
X116585910Y-108674955D01*
X116588646Y-108674132D01*
X116591446Y-108673529D01*
X116594288Y-108673149D01*
X116597150Y-108672995D01*
X116600011Y-108673068D01*
X116602850Y-108673371D01*
X116604254Y-108673609D01*
X116605645Y-108673906D01*
X116607019Y-108674261D01*
X116608374Y-108674674D01*
X116609708Y-108675147D01*
X116611017Y-108675679D01*
X116612300Y-108676271D01*
X116613552Y-108676922D01*
X116614772Y-108677634D01*
X116615958Y-108678405D01*
X117133094Y-109033268D01*
X117135538Y-109034780D01*
X117138161Y-109036122D01*
X117140937Y-109037292D01*
X117143844Y-109038288D01*
X117146857Y-109039109D01*
X117149953Y-109039754D01*
X117153107Y-109040220D01*
X117156296Y-109040507D01*
X117159495Y-109040613D01*
X117162682Y-109040536D01*
X117165832Y-109040276D01*
X117168921Y-109039830D01*
X117171925Y-109039197D01*
X117174821Y-109038375D01*
X117177585Y-109037364D01*
X117180192Y-109036161D01*
X117615648Y-108849434D01*
X117616988Y-108848936D01*
X117618323Y-108848375D01*
X117620973Y-108847071D01*
X117623584Y-108845542D01*
X117626139Y-108843804D01*
X117628623Y-108841877D01*
X117631020Y-108839779D01*
X117633313Y-108837528D01*
X117635487Y-108835142D01*
X117637526Y-108832640D01*
X117639414Y-108830040D01*
X117641136Y-108827360D01*
X117642675Y-108824619D01*
X117644015Y-108821834D01*
X117645141Y-108819025D01*
X117645618Y-108817617D01*
X117646036Y-108816209D01*
X117646393Y-108814804D01*
X117646686Y-108813405D01*
X117759908Y-108204533D01*
X117760206Y-108203145D01*
X117760571Y-108201776D01*
X117761001Y-108200426D01*
X117761493Y-108199098D01*
X117762045Y-108197793D01*
X117762657Y-108196513D01*
X117763324Y-108195259D01*
X117764046Y-108194034D01*
X117764821Y-108192839D01*
X117765646Y-108191675D01*
X117766519Y-108190545D01*
X117767439Y-108189450D01*
X117768403Y-108188392D01*
X117769408Y-108187373D01*
X117770455Y-108186393D01*
X117771539Y-108185456D01*
X117772659Y-108184562D01*
X117773813Y-108183713D01*
X117774999Y-108182912D01*
X117776215Y-108182159D01*
X117777459Y-108181457D01*
X117778728Y-108180807D01*
X117780022Y-108180210D01*
X117781337Y-108179670D01*
X117782671Y-108179186D01*
X117784024Y-108178761D01*
X117785392Y-108178397D01*
X117786773Y-108178096D01*
X117788166Y-108177858D01*
X117789568Y-108177687D01*
X117790978Y-108177582D01*
X117792392Y-108177547D01*
X118419134Y-108177547D01*
X118420550Y-108177582D01*
G37*
X118420550Y-108177582D02*
X118421961Y-108177687D01*
X118423366Y-108177859D01*
X118424762Y-108178097D01*
X118426147Y-108178400D01*
X118427519Y-108178765D01*
X118428877Y-108179190D01*
X118430217Y-108179675D01*
X118432838Y-108180814D01*
X118435364Y-108182169D01*
X118437779Y-108183725D01*
X118440066Y-108185470D01*
X118442207Y-108187388D01*
X118444186Y-108189467D01*
X118445986Y-108191692D01*
X118446813Y-108192855D01*
X118447588Y-108194050D01*
X118448310Y-108195274D01*
X118448977Y-108196526D01*
X118449586Y-108197805D01*
X118450135Y-108199108D01*
X118450622Y-108200434D01*
X118451045Y-108201782D01*
X118451402Y-108203148D01*
X118451690Y-108204533D01*
X118562164Y-108798502D01*
X118562451Y-108799897D01*
X118562803Y-108801296D01*
X118563693Y-108804098D01*
X118564818Y-108806888D01*
X118566162Y-108809649D01*
X118567709Y-108812362D01*
X118569442Y-108815008D01*
X118571345Y-108817570D01*
X118573402Y-108820030D01*
X118575595Y-108822368D01*
X118577910Y-108824567D01*
X118580329Y-108826608D01*
X118582836Y-108828473D01*
X118585415Y-108830143D01*
X118588049Y-108831602D01*
X118590722Y-108832829D01*
X118592068Y-108833350D01*
X118593418Y-108833807D01*
X119056656Y-109019232D01*
X119059291Y-109020379D01*
X119062082Y-109021336D01*
X119065004Y-109022104D01*
X119068034Y-109022684D01*
X119071147Y-109023079D01*
X119074319Y-109023290D01*
X119077526Y-109023320D01*
X119080744Y-109023169D01*
X119083949Y-109022840D01*
X119087115Y-109022334D01*
X119090220Y-109021653D01*
X119093239Y-109020799D01*
X119096148Y-109019774D01*
X119098922Y-109018579D01*
X119101538Y-109017216D01*
X119103971Y-109015687D01*
X119595641Y-108678333D01*
X119596827Y-108677564D01*
X119598048Y-108676856D01*
X119599301Y-108676207D01*
X119600585Y-108675617D01*
X119601896Y-108675087D01*
X119603232Y-108674616D01*
X119605966Y-108673849D01*
X119608766Y-108673315D01*
X119611611Y-108673012D01*
X119614478Y-108672938D01*
X119617347Y-108673091D01*
X119620196Y-108673469D01*
X119623002Y-108674069D01*
X119625745Y-108674890D01*
X119628402Y-108675931D01*
X119630953Y-108677188D01*
X119632181Y-108677897D01*
X119633375Y-108678660D01*
X119634531Y-108679475D01*
X119635647Y-108680344D01*
X119636720Y-108681266D01*
X119637747Y-108682240D01*
X120080873Y-109125438D01*
X120081843Y-109126462D01*
X120082762Y-109127531D01*
X120083628Y-109128644D01*
X120084441Y-109129798D01*
X120085201Y-109130989D01*
X120085908Y-109132215D01*
X120086561Y-109133474D01*
X120087161Y-109134762D01*
X120087707Y-109136077D01*
X120088198Y-109137416D01*
X120089017Y-109140157D01*
X120089617Y-109142962D01*
X120089994Y-109145810D01*
X120090147Y-109148679D01*
X120090074Y-109151548D01*
X120089773Y-109154395D01*
X120089537Y-109155803D01*
X120089243Y-109157198D01*
X120088890Y-109158577D01*
X120088480Y-109159936D01*
X120088011Y-109161274D01*
X120087483Y-109162588D01*
X120086896Y-109163874D01*
X120086250Y-109165131D01*
X120085545Y-109166355D01*
X120084780Y-109167544D01*
X119753285Y-109650460D01*
X119751780Y-109652888D01*
X119750460Y-109655489D01*
X119749324Y-109658240D01*
X119748375Y-109661117D01*
X119747612Y-109664095D01*
X119747036Y-109667151D01*
X119746647Y-109670262D01*
X119746447Y-109673402D01*
X119746436Y-109676550D01*
X119746614Y-109679680D01*
X119746982Y-109682768D01*
X119747541Y-109685792D01*
X119748291Y-109688727D01*
X119749232Y-109691550D01*
X119750367Y-109694236D01*
X119751694Y-109696762D01*
X119865423Y-109909751D01*
X119866032Y-109911022D01*
X119866567Y-109912303D01*
X119867028Y-109913593D01*
X119867418Y-109914890D01*
X119867736Y-109916191D01*
X119867983Y-109917495D01*
X119868161Y-109918798D01*
X119868270Y-109920098D01*
X119868312Y-109921394D01*
X119868286Y-109922684D01*
X119868193Y-109923964D01*
X119868036Y-109925232D01*
X119867814Y-109926487D01*
X119867528Y-109927727D01*
X119867180Y-109928948D01*
X119866769Y-109930149D01*
X119866297Y-109931327D01*
X119865766Y-109932480D01*
X119865174Y-109933607D01*
X119864525Y-109934704D01*
X119863817Y-109935769D01*
X119863053Y-109936801D01*
X119862233Y-109937797D01*
X119861357Y-109938754D01*
X119860428Y-109939671D01*
X119859445Y-109940546D01*
X119858409Y-109941375D01*
X119857322Y-109942157D01*
X119856184Y-109942889D01*
X119854996Y-109943570D01*
X119853759Y-109944197D01*
X119852474Y-109944767D01*
X118791360Y-110383986D01*
X118790040Y-110384497D01*
X118788699Y-110384941D01*
X118787341Y-110385317D01*
X118785967Y-110385628D01*
X118784581Y-110385874D01*
X118783185Y-110386055D01*
X118780372Y-110386229D01*
X118777549Y-110386156D01*
X118774736Y-110385843D01*
X118771954Y-110385297D01*
X118769222Y-110384526D01*
X118766562Y-110383535D01*
X118763993Y-110382332D01*
X118761537Y-110380923D01*
X118759212Y-110379315D01*
X118757040Y-110377516D01*
X118756017Y-110376547D01*
X118755040Y-110375532D01*
X118754112Y-110374473D01*
X118753234Y-110373370D01*
X118752410Y-110372224D01*
X118751641Y-110371036D01*
X118719013Y-110317789D01*
X118716569Y-110313941D01*
X118713779Y-110309838D01*
X118710704Y-110305555D01*
X118707405Y-110301168D01*
X118703942Y-110296751D01*
X118700377Y-110292379D01*
X118696771Y-110288129D01*
X118693185Y-110284075D01*
X118669033Y-110248794D01*
X118642810Y-110215121D01*
X118614609Y-110183147D01*
X118584520Y-110152966D01*
X118552635Y-110124669D01*
X118519045Y-110098349D01*
X118483840Y-110074098D01*
X118447113Y-110052008D01*
X118408954Y-110032171D01*
X118389366Y-110023126D01*
X118369455Y-110014680D01*
X118349231Y-110006843D01*
X118328706Y-109999626D01*
X118307892Y-109993043D01*
X118286799Y-109987103D01*
X118265440Y-109981819D01*
X118243826Y-109977202D01*
X118221968Y-109973264D01*
X118199877Y-109970016D01*
X118177565Y-109967470D01*
X118155043Y-109965637D01*
X118132324Y-109964528D01*
X118109417Y-109964156D01*
X118073749Y-109965058D01*
X118038549Y-109967736D01*
X118003861Y-109972144D01*
X117969728Y-109978241D01*
X117936194Y-109985982D01*
X117903302Y-109995324D01*
X117871095Y-110006224D01*
X117839619Y-110018636D01*
X117808915Y-110032519D01*
X117779027Y-110047829D01*
X117750000Y-110064521D01*
X117721876Y-110082552D01*
X117694700Y-110101880D01*
X117668514Y-110122459D01*
X117643363Y-110144247D01*
X117619290Y-110167200D01*
X117596338Y-110191274D01*
X117574551Y-110216426D01*
X117553973Y-110242612D01*
X117534646Y-110269789D01*
X117516616Y-110297913D01*
X117499925Y-110326940D01*
X117484617Y-110356827D01*
X117470735Y-110387530D01*
X117458323Y-110419006D01*
X117447425Y-110451212D01*
X117438084Y-110484102D01*
X117430344Y-110517635D01*
X117424247Y-110551766D01*
X117419839Y-110586452D01*
X117417162Y-110621648D01*
X117416260Y-110657313D01*
X117417162Y-110692977D01*
X117419839Y-110728173D01*
X117424247Y-110762856D01*
X117430344Y-110796985D01*
X117438084Y-110830514D01*
X117447425Y-110863401D01*
X117458323Y-110895602D01*
X117470735Y-110927073D01*
X117484617Y-110957771D01*
X117499925Y-110987653D01*
X117516616Y-111016674D01*
X117534646Y-111044791D01*
X117553973Y-111071962D01*
X117574551Y-111098141D01*
X117596338Y-111123287D01*
X117619290Y-111147354D01*
X117643363Y-111170300D01*
X117668514Y-111192081D01*
X117694700Y-111212654D01*
X117721876Y-111231975D01*
X117750000Y-111250000D01*
X117779027Y-111266686D01*
X117808915Y-111281990D01*
X117839619Y-111295868D01*
X117871095Y-111308275D01*
X117903302Y-111319170D01*
X117936194Y-111328508D01*
X117969728Y-111336246D01*
X118003861Y-111342340D01*
X118038549Y-111346747D01*
X118073749Y-111349423D01*
X118109417Y-111350325D01*
X118155043Y-111348846D01*
X118199877Y-111344470D01*
X118243826Y-111337289D01*
X118286799Y-111327395D01*
X118328706Y-111314879D01*
X118369455Y-111299834D01*
X118408954Y-111282352D01*
X118447113Y-111262524D01*
X118483840Y-111240442D01*
X118519045Y-111216198D01*
X118552635Y-111189884D01*
X118584520Y-111161592D01*
X118614609Y-111131413D01*
X118642810Y-111099440D01*
X118669033Y-111065765D01*
X118693185Y-111030479D01*
X118696771Y-111026447D01*
X118700377Y-111022211D01*
X118703942Y-111017849D01*
X118707405Y-111013436D01*
X118710704Y-111009051D01*
X118713779Y-111004772D01*
X118716569Y-111000675D01*
X118719013Y-110996838D01*
X118751641Y-110943518D01*
X118752410Y-110942337D01*
X118753234Y-110941198D01*
X118754112Y-110940101D01*
X118755040Y-110939048D01*
X118756017Y-110938039D01*
X118757040Y-110937075D01*
X118758105Y-110936157D01*
X118759212Y-110935286D01*
X118760356Y-110934463D01*
X118761537Y-110933688D01*
X118762750Y-110932962D01*
X118763993Y-110932287D01*
X118765265Y-110931663D01*
X118766562Y-110931091D01*
X118767882Y-110930571D01*
X118769222Y-110930106D01*
X118770580Y-110929694D01*
X118771954Y-110929338D01*
X118773340Y-110929038D01*
X118774736Y-110928796D01*
X118776140Y-110928611D01*
X118777549Y-110928485D01*
X118778960Y-110928418D01*
X118780372Y-110928412D01*
X118781781Y-110928467D01*
X118783185Y-110928584D01*
X118784581Y-110928764D01*
X118785967Y-110929008D01*
X118787341Y-110929317D01*
X118788699Y-110929691D01*
X118790040Y-110930132D01*
X118791360Y-110930640D01*
X119852546Y-111369786D01*
X119853831Y-111370357D01*
X119855067Y-111370983D01*
X119856253Y-111371664D01*
X119857390Y-111372396D01*
X119858474Y-111373177D01*
X119859507Y-111374005D01*
X119860487Y-111374878D01*
X119861413Y-111375794D01*
X119862285Y-111376750D01*
X119863101Y-111377745D01*
X119863861Y-111378776D01*
X119864564Y-111379840D01*
X119865210Y-111380936D01*
X119865796Y-111382061D01*
X119866324Y-111383214D01*
X119866791Y-111384391D01*
X119867198Y-111385591D01*
X119867542Y-111386812D01*
X119867824Y-111388050D01*
X119868043Y-111389305D01*
X119868197Y-111390573D01*
X119868286Y-111391854D01*
X119868309Y-111393143D01*
X119868266Y-111394440D01*
X119868155Y-111395741D01*
X119867976Y-111397045D01*
X119867728Y-111398350D01*
X119867410Y-111399653D01*
X119867022Y-111400952D01*
X119866562Y-111402244D01*
X119866029Y-111403528D01*
X119865423Y-111404802D01*
X119751694Y-111617792D01*
X119750366Y-111620324D01*
X119749231Y-111623015D01*
X119748288Y-111625840D01*
X119747536Y-111628777D01*
X119746975Y-111631802D01*
X119746604Y-111634890D01*
X119746424Y-111638019D01*
X119746433Y-111641165D01*
X119746632Y-111644304D01*
X119747019Y-111647412D01*
X119747595Y-111650466D01*
X119748359Y-111653442D01*
X119749310Y-111656316D01*
X119750449Y-111659066D01*
X119751774Y-111661666D01*
X119753285Y-111664094D01*
X120084780Y-112147083D01*
X120085545Y-112148268D01*
X120086250Y-112149489D01*
X120086896Y-112150743D01*
X120087483Y-112152026D01*
X120088011Y-112153337D01*
X120088480Y-112154672D01*
X120089243Y-112157406D01*
X120089773Y-112160205D01*
X120090074Y-112163049D01*
X120090147Y-112165914D01*
X120089994Y-112168780D01*
X120089617Y-112171625D01*
X120089017Y-112174426D01*
X120088198Y-112177163D01*
X120087161Y-112179814D01*
X120085908Y-112182356D01*
X120085201Y-112183580D01*
X120084441Y-112184768D01*
X120083628Y-112185919D01*
X120082762Y-112187029D01*
X120081843Y-112188096D01*
X120080873Y-112189116D01*
X119637747Y-112632386D01*
X119636720Y-112633364D01*
X119635647Y-112634288D01*
X119634531Y-112635158D01*
X119633375Y-112635976D01*
X119632181Y-112636739D01*
X119630953Y-112637449D01*
X119629692Y-112638104D01*
X119628402Y-112638705D01*
X119627086Y-112639251D01*
X119625745Y-112639743D01*
X119623002Y-112640560D01*
X119620196Y-112641155D01*
X119617347Y-112641527D01*
X119614478Y-112641672D01*
X119611611Y-112641590D01*
X119608766Y-112641279D01*
X119607359Y-112641037D01*
X119605966Y-112640737D01*
X119604589Y-112640378D01*
X119603232Y-112639961D01*
X119601896Y-112639486D01*
X119600585Y-112638951D01*
X119599301Y-112638358D01*
X119598048Y-112637705D01*
X119596827Y-112636993D01*
X119595641Y-112636220D01*
X119103971Y-112298794D01*
X119101538Y-112297278D01*
X119098922Y-112295927D01*
X119096148Y-112294742D01*
X119093239Y-112293725D01*
X119090220Y-112292878D01*
X119087115Y-112292203D01*
X119083949Y-112291702D01*
X119080744Y-112291377D01*
X119077526Y-112291229D01*
X119074319Y-112291260D01*
X119071147Y-112291473D01*
X119068034Y-112291869D01*
X119065004Y-112292450D01*
X119062082Y-112293218D01*
X119059291Y-112294174D01*
X119056656Y-112295322D01*
X118593491Y-112480747D01*
X118592141Y-112481207D01*
X118590795Y-112481730D01*
X118588121Y-112482958D01*
X118585487Y-112484414D01*
X118582908Y-112486080D01*
X118580401Y-112487938D01*
X118577982Y-112489971D01*
X118575668Y-112492160D01*
X118573474Y-112494488D01*
X118571418Y-112496937D01*
X118569515Y-112499489D01*
X118567781Y-112502127D01*
X118566235Y-112504833D01*
X118564890Y-112507589D01*
X118563765Y-112510377D01*
X118563290Y-112511778D01*
X118562875Y-112513180D01*
X118562523Y-112514581D01*
X118562237Y-112515980D01*
X118451690Y-113109949D01*
X118451402Y-113111330D01*
X118451046Y-113112694D01*
X118450624Y-113114040D01*
X118450138Y-113115365D01*
X118449591Y-113116669D01*
X118448984Y-113117948D01*
X118448319Y-113119201D01*
X118447599Y-113120427D01*
X118446826Y-113121624D01*
X118446002Y-113122790D01*
X118445129Y-113123923D01*
X118444209Y-113125021D01*
X118443244Y-113126083D01*
X118442237Y-113127107D01*
X118441189Y-113128092D01*
X118440102Y-113129034D01*
X118438979Y-113129933D01*
X118437822Y-113130787D01*
X118436633Y-113131594D01*
X118435413Y-113132352D01*
X118434166Y-113133060D01*
X118432893Y-113133715D01*
X118431596Y-113134317D01*
X118430278Y-113134863D01*
X118428940Y-113135351D01*
X118427585Y-113135779D01*
X118426214Y-113136147D01*
X118424831Y-113136452D01*
X118423436Y-113136692D01*
X118422032Y-113136866D01*
X118420622Y-113136971D01*
X118419207Y-113137007D01*
X117792465Y-113137079D01*
X117791046Y-113137047D01*
X117789633Y-113136946D01*
X117788228Y-113136776D01*
X117786831Y-113136541D01*
X117785447Y-113136241D01*
X117784076Y-113135879D01*
X117782720Y-113135455D01*
X117781382Y-113134973D01*
X117780064Y-113134433D01*
X117778767Y-113133838D01*
X117776248Y-113132487D01*
X117773840Y-113130934D01*
X117771561Y-113129193D01*
X117769426Y-113127278D01*
X117767452Y-113125202D01*
X117765655Y-113122981D01*
X117764052Y-113120627D01*
X117763329Y-113119405D01*
X117762660Y-113118155D01*
X117762048Y-113116879D01*
X117761494Y-113115578D01*
X117761001Y-113114255D01*
X117760572Y-113112910D01*
X117760206Y-113111547D01*
X117759908Y-113110166D01*
X117646686Y-112501221D01*
X117646036Y-112498429D01*
X117645141Y-112495621D01*
X117644015Y-112492816D01*
X117642675Y-112490032D01*
X117641136Y-112487289D01*
X117639414Y-112484605D01*
X117637526Y-112481999D01*
X117635487Y-112479489D01*
X117633313Y-112477094D01*
X117631020Y-112474833D01*
X117628623Y-112472725D01*
X117626139Y-112470787D01*
X117623584Y-112469039D01*
X117620973Y-112467499D01*
X117618323Y-112466187D01*
X117615648Y-112465120D01*
X117180192Y-112278465D01*
X117177585Y-112277256D01*
X117174821Y-112276240D01*
X117171925Y-112275416D01*
X117168921Y-112274782D01*
X117165832Y-112274336D01*
X117162682Y-112274077D01*
X117159495Y-112274003D01*
X117156296Y-112274114D01*
X117153107Y-112274406D01*
X117149953Y-112274879D01*
X117146857Y-112275532D01*
X117143844Y-112276362D01*
X117140937Y-112277369D01*
X117138161Y-112278550D01*
X117135538Y-112279905D01*
X117133094Y-112281431D01*
X116615958Y-112636220D01*
X116614772Y-112636986D01*
X116613552Y-112637693D01*
X116612300Y-112638341D01*
X116611017Y-112638930D01*
X116609708Y-112639461D01*
X116608374Y-112639934D01*
X116605645Y-112640706D01*
X116602850Y-112641246D01*
X116600011Y-112641558D01*
X116597150Y-112641642D01*
X116594288Y-112641499D01*
X116591446Y-112641131D01*
X116588646Y-112640541D01*
X116585910Y-112639728D01*
X116583258Y-112638695D01*
X116580712Y-112637442D01*
X116579485Y-112636735D01*
X116578293Y-112635973D01*
X116577138Y-112635157D01*
X116576023Y-112634287D01*
X116574951Y-112633363D01*
X116573924Y-112632386D01*
X116130799Y-112189188D01*
X116129821Y-112188161D01*
X116128897Y-112187089D01*
X116128025Y-112185974D01*
X116127206Y-112184819D01*
X116126441Y-112183627D01*
X116125730Y-112182401D01*
X116125072Y-112181142D01*
X116124469Y-112179855D01*
X116123920Y-112178541D01*
X116123425Y-112177203D01*
X116122602Y-112174466D01*
X116122000Y-112171666D01*
X116121622Y-112168825D01*
X116121470Y-112165963D01*
X116121545Y-112163102D01*
X116121850Y-112160263D01*
X116122089Y-112158859D01*
X116122387Y-112157468D01*
X116122743Y-112156094D01*
X116123158Y-112154739D01*
X116123631Y-112153405D01*
X116124164Y-112152096D01*
X116124756Y-112150813D01*
X116125408Y-112149561D01*
X116126120Y-112148340D01*
X116126892Y-112147155D01*
X116487976Y-111620975D01*
X116489497Y-111618541D01*
X116490852Y-111615923D01*
X116492038Y-111613146D01*
X116493055Y-111610233D01*
X116493899Y-111607209D01*
X116494570Y-111604100D01*
X116495066Y-111600929D01*
X116495385Y-111597721D01*
X116495526Y-111594500D01*
X116495486Y-111591291D01*
X116495265Y-111588118D01*
X116494861Y-111585007D01*
X116494271Y-111581981D01*
X116493495Y-111579065D01*
X116492531Y-111576283D01*
X116491376Y-111573660D01*
X116318539Y-111151515D01*
X116318062Y-111150173D01*
X116317521Y-111148835D01*
X116316919Y-111147502D01*
X116316258Y-111146178D01*
X116314766Y-111143562D01*
X116313066Y-111141003D01*
X116311174Y-111138515D01*
X116309110Y-111136115D01*
X116306890Y-111133818D01*
X116304534Y-111131641D01*
X116302059Y-111129598D01*
X116299484Y-111127707D01*
X116296827Y-111125982D01*
X116294106Y-111124439D01*
X116291339Y-111123094D01*
X116288544Y-111121963D01*
X116285740Y-111121062D01*
X116284340Y-111120702D01*
X116282944Y-111120406D01*
X115653091Y-111003204D01*
X115651707Y-111002913D01*
X115650340Y-111002554D01*
X115648993Y-111002129D01*
X115647667Y-111001641D01*
X115646364Y-111001092D01*
X115645085Y-111000483D01*
X115643833Y-110999818D01*
X115642608Y-110999097D01*
X115641414Y-110998324D01*
X115640250Y-110997499D01*
X115639120Y-110996626D01*
X115638025Y-110995706D01*
X115636967Y-110994742D01*
X115635947Y-110993735D01*
X115634967Y-110992687D01*
X115634028Y-110991602D01*
X115633134Y-110990480D01*
X115632284Y-110989324D01*
X115631482Y-110988135D01*
X115630728Y-110986917D01*
X115630024Y-110985671D01*
X115629373Y-110984399D01*
X115628775Y-110983104D01*
X115628234Y-110981786D01*
X115627749Y-110980450D01*
X115627323Y-110979095D01*
X115626959Y-110977726D01*
X115626656Y-110976343D01*
X115626418Y-110974949D01*
X115626246Y-110973546D01*
X115626141Y-110972135D01*
X115626106Y-110970720D01*
X115626106Y-110343978D01*
X115626141Y-110342566D01*
X115626246Y-110341159D01*
X115626418Y-110339758D01*
X115626656Y-110338366D01*
X115626959Y-110336985D01*
X115627323Y-110335617D01*
X115627749Y-110334264D01*
X115628234Y-110332928D01*
X115628775Y-110331611D01*
X115629373Y-110330316D01*
X115630728Y-110327798D01*
X115632284Y-110325390D01*
X115634028Y-110323111D01*
X115635947Y-110320975D01*
X115638025Y-110319002D01*
X115640250Y-110317206D01*
X115641414Y-110316381D01*
X115642608Y-110315606D01*
X115643833Y-110314885D01*
X115645085Y-110314218D01*
X115646364Y-110313609D01*
X115647667Y-110313059D01*
X115648993Y-110312570D01*
X115650340Y-110312145D01*
X115651707Y-110311786D01*
X115653091Y-110311494D01*
X116282944Y-110194292D01*
X116285740Y-110193637D01*
X116288544Y-110192737D01*
X116291339Y-110191608D01*
X116294106Y-110190265D01*
X116296827Y-110188724D01*
X116299484Y-110187002D01*
X116302059Y-110185112D01*
X116304534Y-110183072D01*
X116306890Y-110180896D01*
X116309110Y-110178600D01*
X116311174Y-110176200D01*
X116313066Y-110173711D01*
X116314766Y-110171150D01*
X116316258Y-110168531D01*
X116317521Y-110165870D01*
X116318539Y-110163183D01*
X116491376Y-109741038D01*
X116492531Y-109738409D01*
X116493495Y-109735622D01*
X116494271Y-109732701D01*
X116494861Y-109729671D01*
X116495265Y-109726556D01*
X116495486Y-109723381D01*
X116495526Y-109720171D01*
X116495385Y-109716950D01*
X116495066Y-109713742D01*
X116494570Y-109710572D01*
X116493899Y-109707465D01*
X116493055Y-109704445D01*
X116492038Y-109701536D01*
X116490852Y-109698763D01*
X116489497Y-109696151D01*
X116487976Y-109693723D01*
X116126892Y-109167544D01*
X116126120Y-109166355D01*
X116125408Y-109165131D01*
X116124756Y-109163874D01*
X116124164Y-109162588D01*
X116123631Y-109161274D01*
X116123158Y-109159936D01*
X116122387Y-109157198D01*
X116121850Y-109154395D01*
X116121545Y-109151548D01*
X116121470Y-109148679D01*
X116121622Y-109145810D01*
X116122000Y-109142962D01*
X116122602Y-109140157D01*
X116123425Y-109137416D01*
X116124469Y-109134762D01*
X116125730Y-109132215D01*
X116126441Y-109130989D01*
X116127206Y-109129798D01*
X116128025Y-109128644D01*
X116128897Y-109127531D01*
X116129821Y-109126462D01*
X116130799Y-109125438D01*
X116573924Y-108682312D01*
X116574951Y-108681338D01*
X116576023Y-108680416D01*
X116577138Y-108679547D01*
X116578293Y-108678730D01*
X116579485Y-108677967D01*
X116580712Y-108677257D01*
X116581970Y-108676600D01*
X116583258Y-108675998D01*
X116584572Y-108675449D01*
X116585910Y-108674955D01*
X116588646Y-108674132D01*
X116591446Y-108673529D01*
X116594288Y-108673149D01*
X116597150Y-108672995D01*
X116600011Y-108673068D01*
X116602850Y-108673371D01*
X116604254Y-108673609D01*
X116605645Y-108673906D01*
X116607019Y-108674261D01*
X116608374Y-108674674D01*
X116609708Y-108675147D01*
X116611017Y-108675679D01*
X116612300Y-108676271D01*
X116613552Y-108676922D01*
X116614772Y-108677634D01*
X116615958Y-108678405D01*
X117133094Y-109033268D01*
X117135538Y-109034780D01*
X117138161Y-109036122D01*
X117140937Y-109037292D01*
X117143844Y-109038288D01*
X117146857Y-109039109D01*
X117149953Y-109039754D01*
X117153107Y-109040220D01*
X117156296Y-109040507D01*
X117159495Y-109040613D01*
X117162682Y-109040536D01*
X117165832Y-109040276D01*
X117168921Y-109039830D01*
X117171925Y-109039197D01*
X117174821Y-109038375D01*
X117177585Y-109037364D01*
X117180192Y-109036161D01*
X117615648Y-108849434D01*
X117616988Y-108848936D01*
X117618323Y-108848375D01*
X117620973Y-108847071D01*
X117623584Y-108845542D01*
X117626139Y-108843804D01*
X117628623Y-108841877D01*
X117631020Y-108839779D01*
X117633313Y-108837528D01*
X117635487Y-108835142D01*
X117637526Y-108832640D01*
X117639414Y-108830040D01*
X117641136Y-108827360D01*
X117642675Y-108824619D01*
X117644015Y-108821834D01*
X117645141Y-108819025D01*
X117645618Y-108817617D01*
X117646036Y-108816209D01*
X117646393Y-108814804D01*
X117646686Y-108813405D01*
X117759908Y-108204533D01*
X117760206Y-108203145D01*
X117760571Y-108201776D01*
X117761001Y-108200426D01*
X117761493Y-108199098D01*
X117762045Y-108197793D01*
X117762657Y-108196513D01*
X117763324Y-108195259D01*
X117764046Y-108194034D01*
X117764821Y-108192839D01*
X117765646Y-108191675D01*
X117766519Y-108190545D01*
X117767439Y-108189450D01*
X117768403Y-108188392D01*
X117769408Y-108187373D01*
X117770455Y-108186393D01*
X117771539Y-108185456D01*
X117772659Y-108184562D01*
X117773813Y-108183713D01*
X117774999Y-108182912D01*
X117776215Y-108182159D01*
X117777459Y-108181457D01*
X117778728Y-108180807D01*
X117780022Y-108180210D01*
X117781337Y-108179670D01*
X117782671Y-108179186D01*
X117784024Y-108178761D01*
X117785392Y-108178397D01*
X117786773Y-108178096D01*
X117788166Y-108177858D01*
X117789568Y-108177687D01*
X117790978Y-108177582D01*
X117792392Y-108177547D01*
X118419134Y-108177547D01*
X118420550Y-108177582D01*
D11*
X125025000Y-104975000D02*
X120025000Y-104975000D01*
X120025000Y-104975000D02*
X120025000Y-87975000D01*
X120025000Y-87975000D02*
X125025000Y-87975000D01*
X125025000Y-87975000D02*
X125025000Y-104975000D01*
G36*
X125025000Y-104975000D02*
G01*
X120025000Y-104975000D01*
X120025000Y-87975000D01*
X125025000Y-87975000D01*
X125025000Y-104975000D01*
G37*
D12*
X124178571Y-77928571D02*
X124035714Y-77976190D01*
X123988095Y-78023809D01*
X123940476Y-78119047D01*
X123940476Y-78261904D01*
X123988095Y-78357142D01*
X124035714Y-78404761D01*
X124130952Y-78452380D01*
X124511904Y-78452380D01*
X124511904Y-77452380D01*
X124178571Y-77452380D01*
X124083333Y-77500000D01*
X124035714Y-77547619D01*
X123988095Y-77642857D01*
X123988095Y-77738095D01*
X124035714Y-77833333D01*
X124083333Y-77880952D01*
X124178571Y-77928571D01*
X124511904Y-77928571D01*
X158640476Y-112802380D02*
X158021428Y-112802380D01*
X158354761Y-113183333D01*
X158211904Y-113183333D01*
X158116666Y-113230952D01*
X158069047Y-113278571D01*
X158021428Y-113373809D01*
X158021428Y-113611904D01*
X158069047Y-113707142D01*
X158116666Y-113754761D01*
X158211904Y-113802380D01*
X158497619Y-113802380D01*
X158592857Y-113754761D01*
X158640476Y-113707142D01*
X157688095Y-113135714D02*
X157450000Y-113802380D01*
X157211904Y-113135714D01*
X156926190Y-112802380D02*
X156307142Y-112802380D01*
X156640476Y-113183333D01*
X156497619Y-113183333D01*
X156402380Y-113230952D01*
X156354761Y-113278571D01*
X156307142Y-113373809D01*
X156307142Y-113611904D01*
X156354761Y-113707142D01*
X156402380Y-113754761D01*
X156497619Y-113802380D01*
X156783333Y-113802380D01*
X156878571Y-113754761D01*
X156926190Y-113707142D01*
X130678571Y-106339285D02*
X130678571Y-105589285D01*
X130428571Y-106125000D01*
X130178571Y-105589285D01*
X130178571Y-106339285D01*
X129821428Y-106339285D02*
X129821428Y-105589285D01*
X129500000Y-106303571D02*
X129392857Y-106339285D01*
X129214285Y-106339285D01*
X129142857Y-106303571D01*
X129107142Y-106267857D01*
X129071428Y-106196428D01*
X129071428Y-106125000D01*
X129107142Y-106053571D01*
X129142857Y-106017857D01*
X129214285Y-105982142D01*
X129357142Y-105946428D01*
X129428571Y-105910714D01*
X129464285Y-105875000D01*
X129500000Y-105803571D01*
X129500000Y-105732142D01*
X129464285Y-105660714D01*
X129428571Y-105625000D01*
X129357142Y-105589285D01*
X129178571Y-105589285D01*
X129071428Y-105625000D01*
X128607142Y-105589285D02*
X128464285Y-105589285D01*
X128392857Y-105625000D01*
X128321428Y-105696428D01*
X128285714Y-105839285D01*
X128285714Y-106089285D01*
X128321428Y-106232142D01*
X128392857Y-106303571D01*
X128464285Y-106339285D01*
X128607142Y-106339285D01*
X128678571Y-106303571D01*
X128750000Y-106232142D01*
X128785714Y-106089285D01*
X128785714Y-105839285D01*
X128750000Y-105696428D01*
X128678571Y-105625000D01*
X128607142Y-105589285D01*
X147892857Y-66952380D02*
X148369047Y-66952380D01*
X148416666Y-67428571D01*
X148369047Y-67380952D01*
X148273809Y-67333333D01*
X148035714Y-67333333D01*
X147940476Y-67380952D01*
X147892857Y-67428571D01*
X147845238Y-67523809D01*
X147845238Y-67761904D01*
X147892857Y-67857142D01*
X147940476Y-67904761D01*
X148035714Y-67952380D01*
X148273809Y-67952380D01*
X148369047Y-67904761D01*
X148416666Y-67857142D01*
X147511904Y-67285714D02*
X147273809Y-67952380D01*
X147035714Y-67285714D01*
X124488095Y-81166666D02*
X124011904Y-81166666D01*
X124583333Y-81452380D02*
X124250000Y-80452380D01*
X123916666Y-81452380D01*
X130214285Y-102803571D02*
X130107142Y-102839285D01*
X129928571Y-102839285D01*
X129857142Y-102803571D01*
X129821428Y-102767857D01*
X129785714Y-102696428D01*
X129785714Y-102625000D01*
X129821428Y-102553571D01*
X129857142Y-102517857D01*
X129928571Y-102482142D01*
X130071428Y-102446428D01*
X130142857Y-102410714D01*
X130178571Y-102375000D01*
X130214285Y-102303571D01*
X130214285Y-102232142D01*
X130178571Y-102160714D01*
X130142857Y-102125000D01*
X130071428Y-102089285D01*
X129892857Y-102089285D01*
X129785714Y-102125000D01*
X129035714Y-102767857D02*
X129071428Y-102803571D01*
X129178571Y-102839285D01*
X129250000Y-102839285D01*
X129357142Y-102803571D01*
X129428571Y-102732142D01*
X129464285Y-102660714D01*
X129500000Y-102517857D01*
X129500000Y-102410714D01*
X129464285Y-102267857D01*
X129428571Y-102196428D01*
X129357142Y-102125000D01*
X129250000Y-102089285D01*
X129178571Y-102089285D01*
X129071428Y-102125000D01*
X129035714Y-102160714D01*
X128714285Y-102839285D02*
X128714285Y-102089285D01*
X128285714Y-102839285D02*
X128607142Y-102410714D01*
X128285714Y-102089285D02*
X128714285Y-102517857D01*
X147821428Y-115952380D02*
X148392857Y-115952380D01*
X148107142Y-115952380D02*
X148107142Y-114952380D01*
X148202380Y-115095238D01*
X148297619Y-115190476D01*
X148392857Y-115238095D01*
X147488095Y-115285714D02*
X147250000Y-115952380D01*
X147011904Y-115285714D01*
X146583333Y-115952380D02*
X146392857Y-115952380D01*
X146297619Y-115904761D01*
X146250000Y-115857142D01*
X146154761Y-115714285D01*
X146107142Y-115523809D01*
X146107142Y-115142857D01*
X146154761Y-115047619D01*
X146202380Y-115000000D01*
X146297619Y-114952380D01*
X146488095Y-114952380D01*
X146583333Y-115000000D01*
X146630952Y-115047619D01*
X146678571Y-115142857D01*
X146678571Y-115380952D01*
X146630952Y-115476190D01*
X146583333Y-115523809D01*
X146488095Y-115571428D01*
X146297619Y-115571428D01*
X146202380Y-115523809D01*
X146154761Y-115476190D01*
X146107142Y-115380952D01*
X152976190Y-109702380D02*
X152976190Y-108702380D01*
X152547619Y-109654761D02*
X152404761Y-109702380D01*
X152166666Y-109702380D01*
X152071428Y-109654761D01*
X152023809Y-109607142D01*
X151976190Y-109511904D01*
X151976190Y-109416666D01*
X152023809Y-109321428D01*
X152071428Y-109273809D01*
X152166666Y-109226190D01*
X152357142Y-109178571D01*
X152452380Y-109130952D01*
X152500000Y-109083333D01*
X152547619Y-108988095D01*
X152547619Y-108892857D01*
X152500000Y-108797619D01*
X152452380Y-108750000D01*
X152357142Y-108702380D01*
X152119047Y-108702380D01*
X151976190Y-108750000D01*
X151547619Y-109702380D02*
X151547619Y-108702380D01*
X151166666Y-108702380D01*
X151071428Y-108750000D01*
X151023809Y-108797619D01*
X150976190Y-108892857D01*
X150976190Y-109035714D01*
X151023809Y-109130952D01*
X151071428Y-109178571D01*
X151166666Y-109226190D01*
X151547619Y-109226190D01*
X153536904Y-114700000D02*
X153632142Y-114652380D01*
X153775000Y-114652380D01*
X153917857Y-114700000D01*
X154013095Y-114795238D01*
X154060714Y-114890476D01*
X154108333Y-115080952D01*
X154108333Y-115223809D01*
X154060714Y-115414285D01*
X154013095Y-115509523D01*
X153917857Y-115604761D01*
X153775000Y-115652380D01*
X153679761Y-115652380D01*
X153536904Y-115604761D01*
X153489285Y-115557142D01*
X153489285Y-115223809D01*
X153679761Y-115223809D01*
X153060714Y-115652380D02*
X153060714Y-114652380D01*
X152489285Y-115652380D01*
X152489285Y-114652380D01*
X152013095Y-115652380D02*
X152013095Y-114652380D01*
X151775000Y-114652380D01*
X151632142Y-114700000D01*
X151536904Y-114795238D01*
X151489285Y-114890476D01*
X151441666Y-115080952D01*
X151441666Y-115223809D01*
X151489285Y-115414285D01*
X151536904Y-115509523D01*
X151632142Y-115604761D01*
X151775000Y-115652380D01*
X152013095Y-115652380D01*
D13*
X130678571Y-100339285D02*
X130678571Y-99589285D01*
X130428571Y-100125000D01*
X130178571Y-99589285D01*
X130178571Y-100339285D01*
X129678571Y-99589285D02*
X129535714Y-99589285D01*
X129464285Y-99625000D01*
X129392857Y-99696428D01*
X129357142Y-99839285D01*
X129357142Y-100089285D01*
X129392857Y-100232142D01*
X129464285Y-100303571D01*
X129535714Y-100339285D01*
X129678571Y-100339285D01*
X129750000Y-100303571D01*
X129821428Y-100232142D01*
X129857142Y-100089285D01*
X129857142Y-99839285D01*
X129821428Y-99696428D01*
X129750000Y-99625000D01*
X129678571Y-99589285D01*
X129071428Y-100303571D02*
X128964285Y-100339285D01*
X128785714Y-100339285D01*
X128714285Y-100303571D01*
X128678571Y-100267857D01*
X128642857Y-100196428D01*
X128642857Y-100125000D01*
X128678571Y-100053571D01*
X128714285Y-100017857D01*
X128785714Y-99982142D01*
X128928571Y-99946428D01*
X129000000Y-99910714D01*
X129035714Y-99875000D01*
X129071428Y-99803571D01*
X129071428Y-99732142D01*
X129035714Y-99660714D01*
X129000000Y-99625000D01*
X128928571Y-99589285D01*
X128750000Y-99589285D01*
X128642857Y-99625000D01*
X128321428Y-100339285D02*
X128321428Y-99589285D01*
D12*
X121353714Y-107023809D02*
X121391809Y-106985714D01*
X121429904Y-106871428D01*
X121429904Y-106795238D01*
X121391809Y-106680952D01*
X121315619Y-106604761D01*
X121239428Y-106566666D01*
X121087047Y-106528571D01*
X120972761Y-106528571D01*
X120820380Y-106566666D01*
X120744190Y-106604761D01*
X120668000Y-106680952D01*
X120629904Y-106795238D01*
X120629904Y-106871428D01*
X120668000Y-106985714D01*
X120706095Y-107023809D01*
X121010857Y-107366666D02*
X121010857Y-107633333D01*
X121429904Y-107747619D02*
X121429904Y-107366666D01*
X120629904Y-107366666D01*
X120629904Y-107747619D01*
X121429904Y-108547619D02*
X121048952Y-108280952D01*
X121429904Y-108090476D02*
X120629904Y-108090476D01*
X120629904Y-108395238D01*
X120668000Y-108471428D01*
X120706095Y-108509523D01*
X120782285Y-108547619D01*
X120896571Y-108547619D01*
X120972761Y-108509523D01*
X121010857Y-108471428D01*
X121048952Y-108395238D01*
X121048952Y-108090476D01*
X121429904Y-108890476D02*
X120629904Y-108890476D01*
X121429904Y-109347619D01*
X120629904Y-109347619D01*
X121125142Y-109728571D02*
X121125142Y-110338095D01*
X120629904Y-110871428D02*
X120629904Y-111023809D01*
X120668000Y-111100000D01*
X120744190Y-111176190D01*
X120896571Y-111214285D01*
X121163238Y-111214285D01*
X121315619Y-111176190D01*
X121391809Y-111100000D01*
X121429904Y-111023809D01*
X121429904Y-110871428D01*
X121391809Y-110795238D01*
X121315619Y-110719047D01*
X121163238Y-110680952D01*
X120896571Y-110680952D01*
X120744190Y-110719047D01*
X120668000Y-110795238D01*
X120629904Y-110871428D01*
X121429904Y-111557142D02*
X120629904Y-111557142D01*
X121010857Y-111557142D02*
X121010857Y-112014285D01*
X121429904Y-112014285D02*
X120629904Y-112014285D01*
X121429904Y-112776190D02*
X121429904Y-112395238D01*
X120629904Y-112395238D01*
X121125142Y-113042857D02*
X121125142Y-113652380D01*
X121429904Y-114033333D02*
X120629904Y-114033333D01*
X120629904Y-114338095D01*
X120668000Y-114414285D01*
X120706095Y-114452380D01*
X120782285Y-114490476D01*
X120896571Y-114490476D01*
X120972761Y-114452380D01*
X121010857Y-114414285D01*
X121048952Y-114338095D01*
X121048952Y-114033333D01*
X120896571Y-115366666D02*
X121429904Y-115557142D01*
X120896571Y-115747619D01*
X120706095Y-116014285D02*
X120668000Y-116052380D01*
X120629904Y-116128571D01*
X120629904Y-116319047D01*
X120668000Y-116395238D01*
X120706095Y-116433333D01*
X120782285Y-116471428D01*
X120858476Y-116471428D01*
X120972761Y-116433333D01*
X121429904Y-115976190D01*
X121429904Y-116471428D01*
X123472571Y-108738095D02*
X124120190Y-108738095D01*
X124196380Y-108700000D01*
X124234476Y-108661904D01*
X124272571Y-108585714D01*
X124272571Y-108471428D01*
X124234476Y-108395238D01*
X123967809Y-108738095D02*
X124005904Y-108661904D01*
X124005904Y-108509523D01*
X123967809Y-108433333D01*
X123929714Y-108395238D01*
X123853523Y-108357142D01*
X123624952Y-108357142D01*
X123548761Y-108395238D01*
X123510666Y-108433333D01*
X123472571Y-108509523D01*
X123472571Y-108661904D01*
X123510666Y-108738095D01*
X124005904Y-109119047D02*
X123472571Y-109119047D01*
X123205904Y-109119047D02*
X123244000Y-109080952D01*
X123282095Y-109119047D01*
X123244000Y-109157142D01*
X123205904Y-109119047D01*
X123282095Y-109119047D01*
X123472571Y-109385714D02*
X123472571Y-109690476D01*
X123205904Y-109500000D02*
X123891619Y-109500000D01*
X123967809Y-109538095D01*
X124005904Y-109614285D01*
X124005904Y-109690476D01*
X124005904Y-109957142D02*
X123205904Y-109957142D01*
X124005904Y-110300000D02*
X123586857Y-110300000D01*
X123510666Y-110261904D01*
X123472571Y-110185714D01*
X123472571Y-110071428D01*
X123510666Y-109995238D01*
X123548761Y-109957142D01*
X123472571Y-111023809D02*
X124005904Y-111023809D01*
X123472571Y-110680952D02*
X123891619Y-110680952D01*
X123967809Y-110719047D01*
X124005904Y-110795238D01*
X124005904Y-110909523D01*
X123967809Y-110985714D01*
X123929714Y-111023809D01*
X124005904Y-111404761D02*
X123205904Y-111404761D01*
X123510666Y-111404761D02*
X123472571Y-111480952D01*
X123472571Y-111633333D01*
X123510666Y-111709523D01*
X123548761Y-111747619D01*
X123624952Y-111785714D01*
X123853523Y-111785714D01*
X123929714Y-111747619D01*
X123967809Y-111709523D01*
X124005904Y-111633333D01*
X124005904Y-111480952D01*
X123967809Y-111404761D01*
X123929714Y-112128571D02*
X123967809Y-112166666D01*
X124005904Y-112128571D01*
X123967809Y-112090476D01*
X123929714Y-112128571D01*
X124005904Y-112128571D01*
X123967809Y-112852380D02*
X124005904Y-112776190D01*
X124005904Y-112623809D01*
X123967809Y-112547619D01*
X123929714Y-112509523D01*
X123853523Y-112471428D01*
X123624952Y-112471428D01*
X123548761Y-112509523D01*
X123510666Y-112547619D01*
X123472571Y-112623809D01*
X123472571Y-112776190D01*
X123510666Y-112852380D01*
X124005904Y-113309523D02*
X123967809Y-113233333D01*
X123929714Y-113195238D01*
X123853523Y-113157142D01*
X123624952Y-113157142D01*
X123548761Y-113195238D01*
X123510666Y-113233333D01*
X123472571Y-113309523D01*
X123472571Y-113423809D01*
X123510666Y-113500000D01*
X123548761Y-113538095D01*
X123624952Y-113576190D01*
X123853523Y-113576190D01*
X123929714Y-113538095D01*
X123967809Y-113500000D01*
X124005904Y-113423809D01*
X124005904Y-113309523D01*
X124005904Y-113919047D02*
X123472571Y-113919047D01*
X123548761Y-113919047D02*
X123510666Y-113957142D01*
X123472571Y-114033333D01*
X123472571Y-114147619D01*
X123510666Y-114223809D01*
X123586857Y-114261904D01*
X124005904Y-114261904D01*
X123586857Y-114261904D02*
X123510666Y-114300000D01*
X123472571Y-114376190D01*
X123472571Y-114490476D01*
X123510666Y-114566666D01*
X123586857Y-114604761D01*
X124005904Y-114604761D01*
X125293904Y-106166666D02*
X124493904Y-106166666D01*
X124493904Y-106357142D01*
X124532000Y-106471428D01*
X124608190Y-106547619D01*
X124684380Y-106585714D01*
X124836761Y-106623809D01*
X124951047Y-106623809D01*
X125103428Y-106585714D01*
X125179619Y-106547619D01*
X125255809Y-106471428D01*
X125293904Y-106357142D01*
X125293904Y-106166666D01*
X125255809Y-107271428D02*
X125293904Y-107195238D01*
X125293904Y-107042857D01*
X125255809Y-106966666D01*
X125179619Y-106928571D01*
X124874857Y-106928571D01*
X124798666Y-106966666D01*
X124760571Y-107042857D01*
X124760571Y-107195238D01*
X124798666Y-107271428D01*
X124874857Y-107309523D01*
X124951047Y-107309523D01*
X125027238Y-106928571D01*
X125293904Y-107652380D02*
X124493904Y-107652380D01*
X124989142Y-107728571D02*
X125293904Y-107957142D01*
X124760571Y-107957142D02*
X125065333Y-107652380D01*
X125293904Y-108642857D02*
X124874857Y-108642857D01*
X124798666Y-108604761D01*
X124760571Y-108528571D01*
X124760571Y-108376190D01*
X124798666Y-108300000D01*
X125255809Y-108642857D02*
X125293904Y-108566666D01*
X125293904Y-108376190D01*
X125255809Y-108300000D01*
X125179619Y-108261904D01*
X125103428Y-108261904D01*
X125027238Y-108300000D01*
X124989142Y-108376190D01*
X124989142Y-108566666D01*
X124951047Y-108642857D01*
X124760571Y-109023809D02*
X125293904Y-109023809D01*
X124836761Y-109023809D02*
X124798666Y-109061904D01*
X124760571Y-109138095D01*
X124760571Y-109252380D01*
X124798666Y-109328571D01*
X124874857Y-109366666D01*
X125293904Y-109366666D01*
X125293904Y-109861904D02*
X125255809Y-109785714D01*
X125217714Y-109747619D01*
X125141523Y-109709523D01*
X124912952Y-109709523D01*
X124836761Y-109747619D01*
X124798666Y-109785714D01*
X124760571Y-109861904D01*
X124760571Y-109976190D01*
X124798666Y-110052380D01*
X124836761Y-110090476D01*
X124912952Y-110128571D01*
X125141523Y-110128571D01*
X125217714Y-110090476D01*
X125255809Y-110052380D01*
X125293904Y-109976190D01*
X125293904Y-109861904D01*
X124760571Y-110395238D02*
X125293904Y-110585714D01*
X124760571Y-110776190D01*
X125293904Y-111423809D02*
X124874857Y-111423809D01*
X124798666Y-111385714D01*
X124760571Y-111309523D01*
X124760571Y-111157142D01*
X124798666Y-111080952D01*
X125255809Y-111423809D02*
X125293904Y-111347619D01*
X125293904Y-111157142D01*
X125255809Y-111080952D01*
X125179619Y-111042857D01*
X125103428Y-111042857D01*
X125027238Y-111080952D01*
X124989142Y-111157142D01*
X124989142Y-111347619D01*
X124951047Y-111423809D01*
X124455809Y-112376190D02*
X125484380Y-111690476D01*
X125293904Y-112642857D02*
X124760571Y-112642857D01*
X124912952Y-112642857D02*
X124836761Y-112680952D01*
X124798666Y-112719047D01*
X124760571Y-112795238D01*
X124760571Y-112871428D01*
X125255809Y-113442857D02*
X125293904Y-113366666D01*
X125293904Y-113214285D01*
X125255809Y-113138095D01*
X125179619Y-113100000D01*
X124874857Y-113100000D01*
X124798666Y-113138095D01*
X124760571Y-113214285D01*
X124760571Y-113366666D01*
X124798666Y-113442857D01*
X124874857Y-113480952D01*
X124951047Y-113480952D01*
X125027238Y-113100000D01*
X125293904Y-114166666D02*
X124493904Y-114166666D01*
X125255809Y-114166666D02*
X125293904Y-114090476D01*
X125293904Y-113938095D01*
X125255809Y-113861904D01*
X125217714Y-113823809D01*
X125141523Y-113785714D01*
X124912952Y-113785714D01*
X124836761Y-113823809D01*
X124798666Y-113861904D01*
X124760571Y-113938095D01*
X124760571Y-114090476D01*
X124798666Y-114166666D01*
X125255809Y-114509523D02*
X125293904Y-114585714D01*
X125293904Y-114738095D01*
X125255809Y-114814285D01*
X125179619Y-114852380D01*
X125141523Y-114852380D01*
X125065333Y-114814285D01*
X125027238Y-114738095D01*
X125027238Y-114623809D01*
X124989142Y-114547619D01*
X124912952Y-114509523D01*
X124874857Y-114509523D01*
X124798666Y-114547619D01*
X124760571Y-114623809D01*
X124760571Y-114738095D01*
X124798666Y-114814285D01*
X125293904Y-115195238D02*
X124493904Y-115195238D01*
X125293904Y-115538095D02*
X124874857Y-115538095D01*
X124798666Y-115500000D01*
X124760571Y-115423809D01*
X124760571Y-115309523D01*
X124798666Y-115233333D01*
X124836761Y-115195238D01*
X125293904Y-115919047D02*
X124760571Y-115919047D01*
X124493904Y-115919047D02*
X124532000Y-115880952D01*
X124570095Y-115919047D01*
X124532000Y-115957142D01*
X124493904Y-115919047D01*
X124570095Y-115919047D01*
X124760571Y-116185714D02*
X124760571Y-116490476D01*
X125293904Y-116300000D02*
X124608190Y-116300000D01*
X124532000Y-116338095D01*
X124493904Y-116414285D01*
X124493904Y-116490476D01*
X124760571Y-116642857D02*
X124760571Y-116947619D01*
X124493904Y-116757142D02*
X125179619Y-116757142D01*
X125255809Y-116795238D01*
X125293904Y-116871428D01*
X125293904Y-116947619D01*
%TO.C,TP9*%
X127630952Y-68547619D02*
X127630952Y-69547619D01*
X127392857Y-69547619D01*
X127250000Y-69500000D01*
X127154761Y-69404761D01*
X127107142Y-69309523D01*
X127059523Y-69119047D01*
X127059523Y-68976190D01*
X127107142Y-68785714D01*
X127154761Y-68690476D01*
X127250000Y-68595238D01*
X127392857Y-68547619D01*
X127630952Y-68547619D01*
X126630952Y-68928571D02*
X125869047Y-68928571D01*
%TO.C,TP8*%
X122630952Y-69297619D02*
X122630952Y-70297619D01*
X122392857Y-70297619D01*
X122250000Y-70250000D01*
X122154761Y-70154761D01*
X122107142Y-70059523D01*
X122059523Y-69869047D01*
X122059523Y-69726190D01*
X122107142Y-69535714D01*
X122154761Y-69440476D01*
X122250000Y-69345238D01*
X122392857Y-69297619D01*
X122630952Y-69297619D01*
X121630952Y-69678571D02*
X120869047Y-69678571D01*
X121250000Y-69297619D02*
X121250000Y-70059523D01*
%TO.C,kibuzzard-63C8EA46*%
G36*
X119225393Y-95515590D02*
G01*
X119225393Y-100269174D01*
X117174607Y-100884410D01*
X117174607Y-99650181D01*
X117709462Y-99650181D01*
X118300013Y-99650181D01*
X118300013Y-99756544D01*
X118460350Y-99756544D01*
X118460350Y-99650181D01*
X118692125Y-99650181D01*
X118692125Y-99454919D01*
X118460350Y-99454919D01*
X118460350Y-99045344D01*
X118317475Y-99045344D01*
X118251395Y-99079872D01*
X118176981Y-99123131D01*
X118097408Y-99173138D01*
X118015850Y-99227906D01*
X117933895Y-99286644D01*
X117853131Y-99348556D01*
X117777130Y-99412056D01*
X117709462Y-99475556D01*
X117709462Y-99650181D01*
X117174607Y-99650181D01*
X117174607Y-98607194D01*
X118427013Y-98607194D01*
X118463525Y-98705619D01*
X118566713Y-98748481D01*
X118673075Y-98705619D01*
X118709588Y-98607194D01*
X118700062Y-98553219D01*
X118672281Y-98507975D01*
X118627831Y-98476225D01*
X118566713Y-98464319D01*
X118507181Y-98476225D01*
X118463525Y-98507975D01*
X118436538Y-98553219D01*
X118427013Y-98607194D01*
X117174607Y-98607194D01*
X117174607Y-97811856D01*
X117687237Y-97811856D01*
X117701260Y-97914162D01*
X117743329Y-97998828D01*
X117813444Y-98065856D01*
X117884832Y-98104055D01*
X117972789Y-98131341D01*
X118077316Y-98147712D01*
X118198412Y-98153169D01*
X118320253Y-98147712D01*
X118425425Y-98131341D01*
X118513928Y-98104055D01*
X118585763Y-98065856D01*
X118656318Y-97998828D01*
X118698651Y-97914162D01*
X118712763Y-97811856D01*
X118698651Y-97709551D01*
X118656318Y-97624884D01*
X118585763Y-97557856D01*
X118513928Y-97519657D01*
X118425425Y-97492372D01*
X118320253Y-97476001D01*
X118198412Y-97470544D01*
X118077961Y-97476100D01*
X117973781Y-97492769D01*
X117885873Y-97520550D01*
X117814237Y-97559444D01*
X117743682Y-97627001D01*
X117701349Y-97711138D01*
X117687237Y-97811856D01*
X117174607Y-97811856D01*
X117174607Y-96848244D01*
X117946000Y-96848244D01*
X118008309Y-96863920D01*
X118074587Y-96882375D01*
X118143048Y-96902814D01*
X118211906Y-96924444D01*
X118279970Y-96946867D01*
X118346050Y-96969687D01*
X118465113Y-97013344D01*
X118346050Y-97059381D01*
X118279970Y-97084583D01*
X118211906Y-97109387D01*
X118143048Y-97133597D01*
X118074587Y-97157012D01*
X118008309Y-97177848D01*
X117946000Y-97194319D01*
X117946000Y-97392756D01*
X118056480Y-97358526D01*
X118162495Y-97322509D01*
X118264046Y-97284707D01*
X118361131Y-97245119D01*
X118482222Y-97192202D01*
X118592553Y-97141402D01*
X118692125Y-97092719D01*
X118692125Y-96929206D01*
X118592553Y-96881317D01*
X118482222Y-96832898D01*
X118361131Y-96783950D01*
X118264046Y-96747487D01*
X118162495Y-96711917D01*
X118056480Y-96677240D01*
X117946000Y-96643456D01*
X117946000Y-96848244D01*
X117174607Y-96848244D01*
X117174607Y-96130826D01*
X119225393Y-95515590D01*
G37*
G36*
X118009676Y-97958259D02*
G01*
X117942031Y-97934887D01*
X117875952Y-97883095D01*
X117854416Y-97813444D01*
X118076175Y-97813444D01*
X118107925Y-97876150D01*
X118182537Y-97900756D01*
X118256356Y-97876150D01*
X118287313Y-97813444D01*
X118256356Y-97748356D01*
X118182537Y-97724544D01*
X118107925Y-97748356D01*
X118076175Y-97813444D01*
X117854416Y-97813444D01*
X117853925Y-97811856D01*
X117875952Y-97741609D01*
X117942031Y-97689619D01*
X118009676Y-97665806D01*
X118095137Y-97651519D01*
X118198412Y-97646756D01*
X118302570Y-97651519D01*
X118388560Y-97665806D01*
X118456381Y-97689619D01*
X118522461Y-97741609D01*
X118544488Y-97811856D01*
X118522461Y-97883095D01*
X118456381Y-97934887D01*
X118388560Y-97958259D01*
X118302570Y-97972282D01*
X118198412Y-97976956D01*
X118095137Y-97972282D01*
X118009676Y-97958259D01*
G37*
G36*
X118300013Y-99454919D02*
G01*
X117953937Y-99454919D01*
X118031725Y-99396181D01*
X118118244Y-99336650D01*
X118209525Y-99280294D01*
X118300013Y-99232669D01*
X118300013Y-99454919D01*
G37*
D11*
%TO.C,TP5*%
X127725000Y-108000000D02*
G75*
G03*
X127725000Y-108000000I-950000J0D01*
G01*
%TO.C,TP6*%
X157450000Y-80500000D02*
G75*
G03*
X157450000Y-80500000I-950000J0D01*
G01*
%TO.C,TP7*%
X157450000Y-85500000D02*
G75*
G03*
X157450000Y-85500000I-950000J0D01*
G01*
%TO.C,TP13*%
X123450000Y-81000000D02*
G75*
G03*
X123450000Y-81000000I-950000J0D01*
G01*
%TO.C,TP3*%
X127100000Y-103125000D02*
G75*
G03*
X127100000Y-103125000I-950000J0D01*
G01*
%TO.C,TP9*%
X130150000Y-69100000D02*
G75*
G03*
X130150000Y-69100000I-950000J0D01*
G01*
%TO.C,TP10*%
X149950000Y-77500000D02*
G75*
G03*
X149950000Y-77500000I-950000J0D01*
G01*
%TO.C,TP11*%
X149950000Y-82500000D02*
G75*
G03*
X149950000Y-82500000I-950000J0D01*
G01*
%TO.C,TP2*%
X119950000Y-75500000D02*
G75*
G03*
X119950000Y-75500000I-950000J0D01*
G01*
%TO.C,TP12*%
X158375000Y-115100000D02*
G75*
G03*
X158375000Y-115100000I-950000J0D01*
G01*
%TO.C,TP18*%
X152950000Y-111000000D02*
G75*
G03*
X152950000Y-111000000I-950000J0D01*
G01*
%TO.C,TP17*%
X148700000Y-69250000D02*
G75*
G03*
X148700000Y-69250000I-950000J0D01*
G01*
%TO.C,TP8*%
X125050000Y-69800000D02*
G75*
G03*
X125050000Y-69800000I-950000J0D01*
G01*
%TO.C,TP16*%
X148200000Y-117175000D02*
G75*
G03*
X148200000Y-117175000I-950000J0D01*
G01*
%TO.C,TP4*%
X119950000Y-80500000D02*
G75*
G03*
X119950000Y-80500000I-950000J0D01*
G01*
%TO.C,kibuzzard-637894B3*%
G36*
X118534963Y-90380313D02*
G01*
X118534963Y-90397776D01*
X118509563Y-90509695D01*
X118439713Y-90582720D01*
X118334144Y-90622407D01*
X118270048Y-90631337D01*
X118200000Y-90634313D01*
X118076175Y-90624788D01*
X117969812Y-90591451D01*
X117895994Y-90526363D01*
X117868212Y-90420001D01*
X117869006Y-90391426D01*
X117872975Y-90362851D01*
X118533375Y-90362851D01*
X118534963Y-90380313D01*
G37*
G36*
X118168250Y-88818213D02*
G01*
X118158527Y-88904335D01*
X118129356Y-88962676D01*
X118019025Y-89007126D01*
X117951556Y-88995220D01*
X117904725Y-88959501D01*
X117877341Y-88904335D01*
X117868212Y-88834088D01*
X117869006Y-88807101D01*
X117872975Y-88775351D01*
X118168250Y-88775351D01*
X118168250Y-88818213D01*
G37*
G36*
X117174607Y-95932542D02*
G01*
X117174607Y-94804676D01*
X117709462Y-94804676D01*
X117871387Y-94804676D01*
X117871387Y-94545913D01*
X118692125Y-94545913D01*
X118692125Y-94349063D01*
X117871387Y-94349063D01*
X117871387Y-94090301D01*
X117709462Y-94090301D01*
X117709462Y-94804676D01*
X117174607Y-94804676D01*
X117174607Y-93356876D01*
X117709462Y-93356876D01*
X117709462Y-93958538D01*
X117871387Y-93958538D01*
X117871387Y-93552138D01*
X118109512Y-93552138D01*
X118109512Y-93907738D01*
X118271438Y-93907738D01*
X118271438Y-93552138D01*
X118692125Y-93552138D01*
X118692125Y-93356876D01*
X117709462Y-93356876D01*
X117174607Y-93356876D01*
X117174607Y-93172726D01*
X117709462Y-93172726D01*
X117871387Y-93172726D01*
X117871387Y-92960001D01*
X118530200Y-92960001D01*
X118530200Y-93172726D01*
X118692125Y-93172726D01*
X118692125Y-92548838D01*
X118530200Y-92548838D01*
X118530200Y-92763151D01*
X117871387Y-92763151D01*
X117871387Y-92548838D01*
X117709462Y-92548838D01*
X117709462Y-93172726D01*
X117174607Y-93172726D01*
X117174607Y-92391676D01*
X117709462Y-92391676D01*
X118692125Y-92391676D01*
X118692125Y-92196413D01*
X118258738Y-92196413D01*
X118258738Y-91936063D01*
X118692125Y-91936063D01*
X118692125Y-91740801D01*
X117709462Y-91740801D01*
X117709462Y-91936063D01*
X118096812Y-91936063D01*
X118096812Y-92196413D01*
X117709462Y-92196413D01*
X117709462Y-92391676D01*
X117174607Y-92391676D01*
X117174607Y-91289951D01*
X117687237Y-91289951D01*
X117692397Y-91374684D01*
X117707875Y-91447907D01*
X117753912Y-91561413D01*
X117904725Y-91504263D01*
X117866625Y-91416157D01*
X117850750Y-91304238D01*
X117863274Y-91217808D01*
X117900844Y-91165950D01*
X117963462Y-91148663D01*
X118013469Y-91164538D01*
X118051569Y-91205020D01*
X118080937Y-91260582D01*
X118104750Y-91321701D01*
X118143644Y-91417745D01*
X118200794Y-91509820D01*
X118289694Y-91578876D01*
X118349820Y-91599117D01*
X118423838Y-91605863D01*
X118546273Y-91583440D01*
X118637356Y-91516170D01*
X118679249Y-91446055D01*
X118704384Y-91355303D01*
X118712763Y-91243913D01*
X118706214Y-91133979D01*
X118686569Y-91048651D01*
X118638150Y-90939113D01*
X118479400Y-90996263D01*
X118527025Y-91098657D01*
X118543694Y-91164737D01*
X118549250Y-91243913D01*
X118538931Y-91325670D01*
X118510356Y-91377263D01*
X118469081Y-91403457D01*
X118422250Y-91410601D01*
X118368275Y-91393138D01*
X118326206Y-91348688D01*
X118292869Y-91288363D01*
X118265088Y-91221688D01*
X118228575Y-91129613D01*
X118176187Y-91043095D01*
X118097606Y-90978801D01*
X117980925Y-90953401D01*
X117857894Y-90975824D01*
X117765025Y-91043095D01*
X117721810Y-91110387D01*
X117695881Y-91192672D01*
X117687237Y-91289951D01*
X117174607Y-91289951D01*
X117174607Y-90402538D01*
X117698350Y-90402538D01*
X117705494Y-90495209D01*
X117726925Y-90579545D01*
X117763636Y-90653562D01*
X117816619Y-90715276D01*
X117886072Y-90764687D01*
X117972194Y-90801795D01*
X118076373Y-90825012D01*
X118200000Y-90832751D01*
X118326405Y-90824218D01*
X118432569Y-90798620D01*
X118519683Y-90757940D01*
X118588938Y-90704163D01*
X118641127Y-90638084D01*
X118677044Y-90560495D01*
X118697880Y-90472984D01*
X118704825Y-90377138D01*
X118699269Y-90274745D01*
X118681013Y-90167588D01*
X117722162Y-90167588D01*
X117703112Y-90293001D01*
X117698350Y-90402538D01*
X117174607Y-90402538D01*
X117174607Y-89983438D01*
X117709462Y-89983438D01*
X117871387Y-89983438D01*
X117871387Y-89583388D01*
X118092050Y-89583388D01*
X118092050Y-89931051D01*
X118253975Y-89931051D01*
X118253975Y-89583388D01*
X118530200Y-89583388D01*
X118530200Y-90018363D01*
X118692125Y-90018363D01*
X118692125Y-89388126D01*
X117709462Y-89388126D01*
X117709462Y-89983438D01*
X117174607Y-89983438D01*
X117174607Y-88834088D01*
X117698350Y-88834088D01*
X117703112Y-88914257D01*
X117717400Y-88986488D01*
X117741609Y-89049988D01*
X117776137Y-89103963D01*
X117876944Y-89179370D01*
X117943420Y-89199015D01*
X118020612Y-89205563D01*
X118102369Y-89196832D01*
X118176187Y-89170638D01*
X118237703Y-89124204D01*
X118282550Y-89054751D01*
X118373831Y-89111901D01*
X118478606Y-89170638D01*
X118588144Y-89225407D01*
X118692125Y-89270651D01*
X118692125Y-89065863D01*
X118598661Y-89026374D01*
X118508769Y-88980932D01*
X118420067Y-88930727D01*
X118330175Y-88876951D01*
X118330175Y-88775351D01*
X118692125Y-88775351D01*
X118692125Y-88580088D01*
X117723750Y-88580088D01*
X117711844Y-88642795D01*
X117703906Y-88711851D01*
X117699938Y-88778526D01*
X117698350Y-88834088D01*
X117174607Y-88834088D01*
X117174607Y-88067458D01*
X119225393Y-88067458D01*
X119225393Y-95317306D01*
X117174607Y-95932542D01*
G37*
%TO.C,TP14*%
X153700000Y-116950000D02*
G75*
G03*
X153700000Y-116950000I-950000J0D01*
G01*
%TO.C,TP1*%
X127100000Y-100600000D02*
G75*
G03*
X127100000Y-100600000I-950000J0D01*
G01*
%TO.C,TP15*%
X123450000Y-78000000D02*
G75*
G03*
X123450000Y-78000000I-950000J0D01*
G01*
%TD*%
M02*
