%TF.GenerationSoftware,KiCad,Pcbnew,6.0.0*%
%TF.CreationDate,2022-01-13T14:08:00-08:00*%
%TF.ProjectId,redshift,72656473-6869-4667-942e-6b696361645f,0.1*%
%TF.SameCoordinates,Original*%
%TF.FileFunction,Copper,L1,Top*%
%TF.FilePolarity,Positive*%
%FSLAX46Y46*%
G04 Gerber Fmt 4.6, Leading zero omitted, Abs format (unit mm)*
G04 Created by KiCad (PCBNEW 6.0.0) date 2022-01-13 14:08:00*
%MOMM*%
%LPD*%
G01*
G04 APERTURE LIST*
G04 Aperture macros list*
%AMRoundRect*
0 Rectangle with rounded corners*
0 $1 Rounding radius*
0 $2 $3 $4 $5 $6 $7 $8 $9 X,Y pos of 4 corners*
0 Add a 4 corners polygon primitive as box body*
4,1,4,$2,$3,$4,$5,$6,$7,$8,$9,$2,$3,0*
0 Add four circle primitives for the rounded corners*
1,1,$1+$1,$2,$3*
1,1,$1+$1,$4,$5*
1,1,$1+$1,$6,$7*
1,1,$1+$1,$8,$9*
0 Add four rect primitives between the rounded corners*
20,1,$1+$1,$2,$3,$4,$5,0*
20,1,$1+$1,$4,$5,$6,$7,0*
20,1,$1+$1,$6,$7,$8,$9,0*
20,1,$1+$1,$8,$9,$2,$3,0*%
G04 Aperture macros list end*
%TA.AperFunction,SMDPad,CuDef*%
%ADD10RoundRect,0.135000X0.135000X0.185000X-0.135000X0.185000X-0.135000X-0.185000X0.135000X-0.185000X0*%
%TD*%
%TA.AperFunction,SMDPad,CuDef*%
%ADD11RoundRect,0.147500X0.147500X0.172500X-0.147500X0.172500X-0.147500X-0.172500X0.147500X-0.172500X0*%
%TD*%
%TA.AperFunction,SMDPad,CuDef*%
%ADD12RoundRect,0.140000X-0.140000X-0.170000X0.140000X-0.170000X0.140000X0.170000X-0.140000X0.170000X0*%
%TD*%
%TA.AperFunction,SMDPad,CuDef*%
%ADD13RoundRect,0.140000X0.140000X0.170000X-0.140000X0.170000X-0.140000X-0.170000X0.140000X-0.170000X0*%
%TD*%
%TA.AperFunction,SMDPad,CuDef*%
%ADD14RoundRect,0.140000X-0.170000X0.140000X-0.170000X-0.140000X0.170000X-0.140000X0.170000X0.140000X0*%
%TD*%
%TA.AperFunction,ComponentPad*%
%ADD15C,1.700000*%
%TD*%
%TA.AperFunction,ComponentPad*%
%ADD16O,2.700000X1.600000*%
%TD*%
%TA.AperFunction,SMDPad,CuDef*%
%ADD17RoundRect,0.147500X-0.147500X-0.172500X0.147500X-0.172500X0.147500X0.172500X-0.147500X0.172500X0*%
%TD*%
%TA.AperFunction,SMDPad,CuDef*%
%ADD18R,0.600000X1.150000*%
%TD*%
%TA.AperFunction,SMDPad,CuDef*%
%ADD19R,0.300000X1.150000*%
%TD*%
%TA.AperFunction,ComponentPad*%
%ADD20O,1.050000X2.100000*%
%TD*%
%TA.AperFunction,ComponentPad*%
%ADD21O,1.000000X2.000000*%
%TD*%
%TA.AperFunction,SMDPad,CuDef*%
%ADD22RoundRect,0.200000X0.275000X-0.200000X0.275000X0.200000X-0.275000X0.200000X-0.275000X-0.200000X0*%
%TD*%
%TA.AperFunction,SMDPad,CuDef*%
%ADD23R,0.450000X0.300000*%
%TD*%
%TA.AperFunction,SMDPad,CuDef*%
%ADD24RoundRect,0.100000X0.100000X-0.130000X0.100000X0.130000X-0.100000X0.130000X-0.100000X-0.130000X0*%
%TD*%
%TA.AperFunction,SMDPad,CuDef*%
%ADD25R,0.800000X0.900000*%
%TD*%
%TA.AperFunction,SMDPad,CuDef*%
%ADD26RoundRect,0.100000X-0.130000X-0.100000X0.130000X-0.100000X0.130000X0.100000X-0.130000X0.100000X0*%
%TD*%
%TA.AperFunction,SMDPad,CuDef*%
%ADD27RoundRect,0.006000X0.319000X0.094000X-0.319000X0.094000X-0.319000X-0.094000X0.319000X-0.094000X0*%
%TD*%
%TA.AperFunction,SMDPad,CuDef*%
%ADD28R,0.300000X0.940000*%
%TD*%
%TA.AperFunction,SMDPad,CuDef*%
%ADD29RoundRect,0.135000X-0.185000X0.135000X-0.185000X-0.135000X0.185000X-0.135000X0.185000X0.135000X0*%
%TD*%
%TA.AperFunction,SMDPad,CuDef*%
%ADD30RoundRect,0.135000X-0.135000X-0.185000X0.135000X-0.185000X0.135000X0.185000X-0.135000X0.185000X0*%
%TD*%
%TA.AperFunction,SMDPad,CuDef*%
%ADD31RoundRect,0.135000X0.185000X-0.135000X0.185000X0.135000X-0.185000X0.135000X-0.185000X-0.135000X0*%
%TD*%
%TA.AperFunction,SMDPad,CuDef*%
%ADD32RoundRect,0.150000X0.625000X-0.150000X0.625000X0.150000X-0.625000X0.150000X-0.625000X-0.150000X0*%
%TD*%
%TA.AperFunction,SMDPad,CuDef*%
%ADD33RoundRect,0.250000X0.650000X-0.350000X0.650000X0.350000X-0.650000X0.350000X-0.650000X-0.350000X0*%
%TD*%
%TA.AperFunction,ComponentPad*%
%ADD34R,1.350000X1.350000*%
%TD*%
%TA.AperFunction,ComponentPad*%
%ADD35O,1.350000X1.350000*%
%TD*%
%TA.AperFunction,SMDPad,CuDef*%
%ADD36R,1.168400X0.889000*%
%TD*%
%TA.AperFunction,SMDPad,CuDef*%
%ADD37R,1.168400X0.482600*%
%TD*%
%TA.AperFunction,ComponentPad*%
%ADD38R,1.400000X1.400000*%
%TD*%
%TA.AperFunction,ComponentPad*%
%ADD39C,1.400000*%
%TD*%
%TA.AperFunction,SMDPad,CuDef*%
%ADD40C,0.290000*%
%TD*%
%TA.AperFunction,SMDPad,CuDef*%
%ADD41RoundRect,0.147500X0.172500X-0.147500X0.172500X0.147500X-0.172500X0.147500X-0.172500X-0.147500X0*%
%TD*%
%TA.AperFunction,SMDPad,CuDef*%
%ADD42RoundRect,0.140000X0.170000X-0.140000X0.170000X0.140000X-0.170000X0.140000X-0.170000X-0.140000X0*%
%TD*%
%TA.AperFunction,ViaPad*%
%ADD43C,0.450000*%
%TD*%
%TA.AperFunction,ViaPad*%
%ADD44C,0.500000*%
%TD*%
%TA.AperFunction,ViaPad*%
%ADD45C,0.800000*%
%TD*%
%TA.AperFunction,Conductor*%
%ADD46C,0.250000*%
%TD*%
%TA.AperFunction,Conductor*%
%ADD47C,0.200000*%
%TD*%
%TA.AperFunction,Conductor*%
%ADD48C,0.450000*%
%TD*%
%TA.AperFunction,Conductor*%
%ADD49C,0.400000*%
%TD*%
%TA.AperFunction,Conductor*%
%ADD50C,0.350000*%
%TD*%
G04 APERTURE END LIST*
D10*
%TO.P,R6,1*%
%TO.N,+3V3*%
X145510000Y-95750000D03*
%TO.P,R6,2*%
%TO.N,Net-(D4-Pad2)*%
X144490000Y-95750000D03*
%TD*%
D11*
%TO.P,FB1,1*%
%TO.N,/VBUS_F_*%
X140985000Y-65250000D03*
%TO.P,FB1,2*%
%TO.N,+5V*%
X140015000Y-65250000D03*
%TD*%
D10*
%TO.P,R12,1*%
%TO.N,/SWCLK*%
X155760000Y-110500000D03*
%TO.P,R12,2*%
%TO.N,GND*%
X154740000Y-110500000D03*
%TD*%
D12*
%TO.P,C24,1*%
%TO.N,+3V3*%
X142790000Y-93500000D03*
%TO.P,C24,2*%
%TO.N,GND*%
X143750000Y-93500000D03*
%TD*%
D13*
%TO.P,C11,1*%
%TO.N,/PMU*%
X132480000Y-91000000D03*
%TO.P,C11,2*%
%TO.N,+3V3*%
X131520000Y-91000000D03*
%TD*%
%TO.P,C13,1*%
%TO.N,/PMU*%
X132480000Y-89000000D03*
%TO.P,C13,2*%
%TO.N,+3V3*%
X131520000Y-89000000D03*
%TD*%
D14*
%TO.P,C8,1*%
%TO.N,+5V*%
X140000000Y-66250000D03*
%TO.P,C8,2*%
%TO.N,GND*%
X140000000Y-67210000D03*
%TD*%
D15*
%TO.P,ENC1,A,A*%
%TO.N,/ENC_A*%
X129000000Y-80500000D03*
%TO.P,ENC1,B,B*%
%TO.N,/ENC_B*%
X129000000Y-78000000D03*
%TO.P,ENC1,C,C*%
%TO.N,GND*%
X129000000Y-75500000D03*
D16*
%TO.P,ENC1,MP*%
%TO.N,N/C*%
X127000000Y-83100000D03*
X127000000Y-72900000D03*
%TD*%
D14*
%TO.P,C14,1*%
%TO.N,/1v2*%
X131250000Y-86020000D03*
%TO.P,C14,2*%
%TO.N,GND*%
X131250000Y-86980000D03*
%TD*%
D12*
%TO.P,C20,1*%
%TO.N,Net-(C19-Pad1)*%
X144270000Y-109250000D03*
%TO.P,C20,2*%
%TO.N,+1V8*%
X145230000Y-109250000D03*
%TD*%
D17*
%TO.P,D3,1,K*%
%TO.N,/FAULT_LED*%
X142520000Y-94750000D03*
%TO.P,D3,2,A*%
%TO.N,Net-(D3-Pad2)*%
X143490000Y-94750000D03*
%TD*%
D18*
%TO.P,J1,A1,GND*%
%TO.N,GND*%
X140700000Y-61755000D03*
%TO.P,J1,A4,VBUS*%
%TO.N,/VBUS_*%
X139900000Y-61755000D03*
D19*
%TO.P,J1,A5,CC1*%
%TO.N,Net-(J1-PadA5)*%
X138750000Y-61755000D03*
%TO.P,J1,A6,D+*%
%TO.N,/USB_D+*%
X137750000Y-61755000D03*
%TO.P,J1,A7,D-*%
%TO.N,/USB_D-*%
X137250000Y-61755000D03*
%TO.P,J1,A8,SBU1*%
%TO.N,unconnected-(J1-PadA8)*%
X136250000Y-61755000D03*
D18*
%TO.P,J1,B1,GND*%
%TO.N,GND*%
X134300000Y-61755000D03*
%TO.P,J1,B4,VBUS*%
%TO.N,/VBUS_*%
X135100000Y-61755000D03*
D19*
%TO.P,J1,B5,CC2*%
%TO.N,Net-(J1-PadB5)*%
X135750000Y-61755000D03*
%TO.P,J1,B6,D+*%
%TO.N,/USB_D+*%
X136750000Y-61755000D03*
%TO.P,J1,B7,D-*%
%TO.N,/USB_D-*%
X138250000Y-61755000D03*
%TO.P,J1,B8,SBU2*%
%TO.N,unconnected-(J1-PadB8)*%
X139250000Y-61755000D03*
D20*
%TO.P,J1,S1,SHIELD*%
%TO.N,/SH*%
X141820000Y-61180000D03*
D21*
X141820000Y-57000000D03*
X133180000Y-57000000D03*
D20*
X133180000Y-61180000D03*
%TD*%
D22*
%TO.P,L1,1,1*%
%TO.N,/_1v2*%
X132500000Y-87825000D03*
%TO.P,L1,2,2*%
%TO.N,/1v2*%
X132500000Y-86175000D03*
%TD*%
D10*
%TO.P,R11,1*%
%TO.N,/SWO*%
X155760000Y-107500000D03*
%TO.P,R11,2*%
%TO.N,+3V3*%
X154740000Y-107500000D03*
%TD*%
D17*
%TO.P,D4,1,K*%
%TO.N,/USER_LED*%
X142515000Y-95750000D03*
%TO.P,D4,2,A*%
%TO.N,Net-(D4-Pad2)*%
X143485000Y-95750000D03*
%TD*%
D12*
%TO.P,C2,1*%
%TO.N,+5V*%
X147250000Y-105230000D03*
%TO.P,C2,2*%
%TO.N,GND*%
X148210000Y-105230000D03*
%TD*%
D23*
%TO.P,U3,1,EN*%
%TO.N,+5V*%
X147300000Y-106500000D03*
%TO.P,U3,2,GND*%
%TO.N,GND*%
X147300000Y-107000000D03*
%TO.P,U3,3,OUT*%
%TO.N,+1V8*%
X147300000Y-107500000D03*
%TO.P,U3,4,IN*%
%TO.N,+5V*%
X148700000Y-107500000D03*
%TO.P,U3,5*%
%TO.N,N/C*%
X148700000Y-106500000D03*
%TD*%
D13*
%TO.P,C4,1*%
%TO.N,+3V3*%
X136460000Y-98000000D03*
%TO.P,C4,2*%
%TO.N,GND*%
X135500000Y-98000000D03*
%TD*%
D24*
%TO.P,C15,1*%
%TO.N,/XTAL+*%
X145000000Y-88570000D03*
%TO.P,C15,2*%
%TO.N,GND*%
X145000000Y-87930000D03*
%TD*%
D10*
%TO.P,R4,1*%
%TO.N,+3V3*%
X126510000Y-90500000D03*
%TO.P,R4,2*%
%TO.N,Net-(D2-Pad2)*%
X125490000Y-90500000D03*
%TD*%
D25*
%TO.P,Y1,1,1*%
%TO.N,/XTAL+*%
X143850000Y-88250000D03*
%TO.P,Y1,2,2*%
%TO.N,unconnected-(Y1-Pad2)*%
X143850000Y-86850000D03*
%TO.P,Y1,3,3*%
%TO.N,/XTAL-*%
X142750000Y-86850000D03*
%TO.P,Y1,4*%
%TO.N,N/C*%
X142750000Y-88250000D03*
%TD*%
D14*
%TO.P,C1,1*%
%TO.N,/SH*%
X133500000Y-64270000D03*
%TO.P,C1,2*%
%TO.N,GND*%
X133500000Y-65230000D03*
%TD*%
D26*
%TO.P,C23,1*%
%TO.N,/XTAL-*%
X142430000Y-85750000D03*
%TO.P,C23,2*%
%TO.N,GND*%
X143070000Y-85750000D03*
%TD*%
D12*
%TO.P,C6,1*%
%TO.N,+3V3*%
X142500000Y-90500000D03*
%TO.P,C6,2*%
%TO.N,GND*%
X143460000Y-90500000D03*
%TD*%
D11*
%TO.P,D5,1,K*%
%TO.N,/SNSR_LED*%
X129485000Y-111250000D03*
%TO.P,D5,2,A*%
%TO.N,Net-(D5-Pad2)*%
X128515000Y-111250000D03*
%TD*%
D13*
%TO.P,C12,1*%
%TO.N,/PMU*%
X132480000Y-90000000D03*
%TO.P,C12,2*%
%TO.N,+3V3*%
X131520000Y-90000000D03*
%TD*%
D27*
%TO.P,U4,1,VOUT*%
%TO.N,+3V3*%
X142625000Y-67150000D03*
%TO.P,U4,2,VOUT*%
X142625000Y-66750000D03*
%TO.P,U4,3,GND*%
%TO.N,GND*%
X142625000Y-66350000D03*
%TO.P,U4,4,EN*%
%TO.N,+5V*%
X141375000Y-66350000D03*
%TO.P,U4,5,NC*%
%TO.N,unconnected-(U4-Pad5)*%
X141375000Y-66750000D03*
%TO.P,U4,6,VIN*%
%TO.N,+5V*%
X141375000Y-67150000D03*
D28*
%TO.P,U4,7*%
%TO.N,N/C*%
X142000000Y-66750000D03*
%TD*%
D12*
%TO.P,C22,1*%
%TO.N,Net-(C21-Pad1)*%
X144270000Y-106250000D03*
%TO.P,C22,2*%
%TO.N,GND*%
X145230000Y-106250000D03*
%TD*%
D17*
%TO.P,D2,1,K*%
%TO.N,/USB1_LED*%
X123515000Y-90500000D03*
%TO.P,D2,2,A*%
%TO.N,Net-(D2-Pad2)*%
X124485000Y-90500000D03*
%TD*%
D15*
%TO.P,SW3,1,C*%
%TO.N,GND*%
X149000000Y-74920000D03*
%TO.P,SW3,2,NO*%
%TO.N,/SW3_M_NO*%
X149000000Y-80000000D03*
%TO.P,SW3,3,NC*%
%TO.N,/SW3_M_NC*%
X149000000Y-85080000D03*
%TD*%
D12*
%TO.P,C9,1*%
%TO.N,+3V3*%
X138270000Y-88000000D03*
%TO.P,C9,2*%
%TO.N,GND*%
X139230000Y-88000000D03*
%TD*%
D10*
%TO.P,R10,1*%
%TO.N,/SWDIO*%
X155760000Y-106500000D03*
%TO.P,R10,2*%
%TO.N,+3V3*%
X154740000Y-106500000D03*
%TD*%
D29*
%TO.P,R1,1*%
%TO.N,/SH*%
X132500000Y-64240000D03*
%TO.P,R1,2*%
%TO.N,GND*%
X132500000Y-65260000D03*
%TD*%
D13*
%TO.P,C3,1*%
%TO.N,+3V3*%
X134480000Y-98000000D03*
%TO.P,C3,2*%
%TO.N,GND*%
X133520000Y-98000000D03*
%TD*%
D30*
%TO.P,R7,1*%
%TO.N,+3V3*%
X126480000Y-111250000D03*
%TO.P,R7,2*%
%TO.N,Net-(D5-Pad2)*%
X127500000Y-111250000D03*
%TD*%
D31*
%TO.P,R2,1*%
%TO.N,GND*%
X140000000Y-64260000D03*
%TO.P,R2,2*%
%TO.N,Net-(J1-PadA5)*%
X140000000Y-63240000D03*
%TD*%
D13*
%TO.P,C17,1*%
%TO.N,+3V3*%
X145230000Y-103000000D03*
%TO.P,C17,2*%
%TO.N,Net-(C17-Pad2)*%
X144270000Y-103000000D03*
%TD*%
D12*
%TO.P,C7,1*%
%TO.N,+1V8*%
X147270000Y-108750000D03*
%TO.P,C7,2*%
%TO.N,GND*%
X148230000Y-108750000D03*
%TD*%
D13*
%TO.P,C5,1*%
%TO.N,+3V3*%
X138460000Y-98000000D03*
%TO.P,C5,2*%
%TO.N,GND*%
X137500000Y-98000000D03*
%TD*%
D12*
%TO.P,C16,1*%
%TO.N,+3V3*%
X142770000Y-92500000D03*
%TO.P,C16,2*%
%TO.N,GND*%
X143730000Y-92500000D03*
%TD*%
D30*
%TO.P,R8,1*%
%TO.N,GND*%
X129240000Y-105500000D03*
%TO.P,R8,2*%
%TO.N,/FC6_MISO*%
X130260000Y-105500000D03*
%TD*%
D32*
%TO.P,J2,1,Pin_1*%
%TO.N,/SW4_NO*%
X128075000Y-98250000D03*
%TO.P,J2,2,Pin_2*%
%TO.N,/SW4_NC*%
X128075000Y-97250000D03*
%TO.P,J2,3,Pin_3*%
%TO.N,GND*%
X128075000Y-96250000D03*
%TO.P,J2,4,Pin_4*%
%TO.N,/SW5_NC*%
X128075000Y-95250000D03*
%TO.P,J2,5,Pin_5*%
%TO.N,/SW5_NO*%
X128075000Y-94250000D03*
D33*
%TO.P,J2,MP*%
%TO.N,N/C*%
X125550000Y-99550000D03*
X125550000Y-92950000D03*
%TD*%
D34*
%TO.P,J3,1,Pin_1*%
%TO.N,GND*%
X157750000Y-100500000D03*
D35*
%TO.P,J3,2,Pin_2*%
%TO.N,/VBUS_*%
X157750000Y-102500000D03*
%TO.P,J3,3,Pin_3*%
%TO.N,/RESET*%
X157750000Y-104500000D03*
%TO.P,J3,4,Pin_4*%
%TO.N,/SWDIO*%
X157750000Y-106500000D03*
%TO.P,J3,5,Pin_5*%
%TO.N,/SWO*%
X157750000Y-108500000D03*
%TO.P,J3,6,Pin_6*%
%TO.N,/SWCLK*%
X157750000Y-110500000D03*
%TD*%
D10*
%TO.P,R9,1*%
%TO.N,/RESET*%
X155750000Y-105500000D03*
%TO.P,R9,2*%
%TO.N,+3V3*%
X154730000Y-105500000D03*
%TD*%
D13*
%TO.P,C18,1*%
%TO.N,+3V3*%
X145230000Y-104000000D03*
%TO.P,C18,2*%
%TO.N,Net-(C17-Pad2)*%
X144270000Y-104000000D03*
%TD*%
D10*
%TO.P,R5,1*%
%TO.N,+3V3*%
X145520000Y-94750000D03*
%TO.P,R5,2*%
%TO.N,Net-(D3-Pad2)*%
X144500000Y-94750000D03*
%TD*%
D36*
%TO.P,D1,1,GND*%
%TO.N,GND*%
X138516343Y-65746800D03*
D37*
%TO.P,D1,2,I/O1*%
%TO.N,/USB_D-*%
X138516343Y-64050000D03*
%TO.P,D1,3,I/O2*%
%TO.N,/USB_D+*%
X136484343Y-64049999D03*
%TO.P,D1,4,VCC*%
%TO.N,+5V*%
X136484343Y-65950001D03*
%TD*%
D38*
%TO.P,U1,1*%
%TO.N,N/C*%
X142850000Y-113985000D03*
D39*
%TO.P,U1,2*%
X142850000Y-112205000D03*
%TO.P,U1,3,GND*%
%TO.N,GND*%
X142850000Y-110425000D03*
%TO.P,U1,4,VDD*%
%TO.N,Net-(C19-Pad1)*%
X142850000Y-108645000D03*
%TO.P,U1,5,VDDPIX*%
%TO.N,Net-(C21-Pad1)*%
X142850000Y-106865000D03*
%TO.P,U1,6,GPO*%
%TO.N,unconnected-(U1-Pad6)*%
X142850000Y-105085000D03*
%TO.P,U1,7,VDDIO*%
%TO.N,Net-(C17-Pad2)*%
X142850000Y-103305000D03*
%TO.P,U1,8,GND*%
%TO.N,GND*%
X142850000Y-101525000D03*
%TO.P,U1,9,MOTION*%
%TO.N,/SNSR_MTN*%
X132150000Y-100635000D03*
%TO.P,U1,10,SCLK*%
%TO.N,/FC6_SCK*%
X132150000Y-102415000D03*
%TO.P,U1,11,MOSI*%
%TO.N,/FC6_MOSI*%
X132150000Y-104195000D03*
%TO.P,U1,12,MISO*%
%TO.N,/FC6_MISO*%
X132150000Y-105975000D03*
%TO.P,U1,13,~{CS}*%
%TO.N,/FC6_CS1*%
X132150000Y-107755000D03*
%TO.P,U1,14,~{RESET}*%
%TO.N,/SNSR_RST*%
X132150000Y-109535000D03*
%TO.P,U1,15,LED_P*%
%TO.N,/SNSR_LED*%
X132150000Y-111315000D03*
%TO.P,U1,16*%
%TO.N,N/C*%
X132150000Y-113095000D03*
%TD*%
D40*
%TO.P,IC1,A1,USB0_DM*%
%TO.N,unconnected-(IC1-PadA1)*%
X140500000Y-96000000D03*
%TO.P,IC1,A2,USB0_DP*%
%TO.N,unconnected-(IC1-PadA2)*%
X140000000Y-96000000D03*
%TO.P,IC1,A3,USB0_3V3*%
%TO.N,unconnected-(IC1-PadA3)*%
X139500000Y-96000000D03*
%TO.P,IC1,A5,VDD_1*%
%TO.N,+3V3*%
X138500000Y-96000000D03*
%TO.P,IC1,A6,PIO1_8/ADC0_4*%
%TO.N,/SNSR_RST*%
X138000000Y-96000000D03*
%TO.P,IC1,A7,PIO0_5/TDI*%
%TO.N,unconnected-(IC1-PadA7)*%
X137500000Y-96000000D03*
%TO.P,IC1,A8,PIO1_28*%
%TO.N,unconnected-(IC1-PadA8)*%
X137000000Y-96000000D03*
%TO.P,IC1,A9,VDD_2*%
%TO.N,+3V3*%
X136500000Y-96000000D03*
%TO.P,IC1,A11,PIO0_25*%
%TO.N,/SW4_NC*%
X135500000Y-96000000D03*
%TO.P,IC1,A12,PIO0_21*%
%TO.N,/SW4_NO*%
X135000000Y-96000000D03*
%TO.P,IC1,A13,VDD_3*%
%TO.N,+3V3*%
X134500000Y-96000000D03*
%TO.P,IC1,B1,USB0_VSS*%
%TO.N,unconnected-(IC1-PadB1)*%
X140500000Y-95500000D03*
%TO.P,IC1,B2,PIO1_4*%
%TO.N,unconnected-(IC1-PadB2)*%
X140000000Y-95500000D03*
%TO.P,IC1,B3,PIO1_13*%
%TO.N,/FC6_MOSI*%
X139500000Y-95500000D03*
%TO.P,IC1,B5,VSS_1*%
%TO.N,GND*%
X138500000Y-95500000D03*
%TO.P,IC1,B8,PIO1_25*%
%TO.N,unconnected-(IC1-PadB8)*%
X137000000Y-95500000D03*
%TO.P,IC1,B9,VSS_2*%
%TO.N,GND*%
X136500000Y-95500000D03*
%TO.P,IC1,B12,PIO0_20*%
%TO.N,unconnected-(IC1-PadB12)*%
X135000000Y-95500000D03*
%TO.P,IC1,B13,VSS_3*%
%TO.N,GND*%
X134500000Y-95500000D03*
%TO.P,IC1,C1,PIO1_9/ADC0_12*%
%TO.N,/USER_LED*%
X140500000Y-95000000D03*
%TO.P,IC1,C2,PIO1_20*%
%TO.N,/FAULT_LED*%
X140000000Y-95000000D03*
%TO.P,IC1,C7,PIO1_16*%
%TO.N,/FC6_MISO*%
X137500000Y-95000000D03*
%TO.P,IC1,C12,PIO0_13*%
%TO.N,/SW5_NO*%
X135000000Y-95000000D03*
%TO.P,IC1,C13,PIO0_14*%
%TO.N,/SW5_NC*%
X134500000Y-95000000D03*
%TO.P,IC1,E2,PIO0_12/ADC0_10*%
%TO.N,/SWDIO*%
X140000000Y-94000000D03*
%TO.P,IC1,E5,PIO0_30*%
%TO.N,unconnected-(IC1-PadE5)*%
X138500000Y-94000000D03*
%TO.P,IC1,E6,PIO0_19*%
%TO.N,/SNSR_MTN*%
X138000000Y-94000000D03*
%TO.P,IC1,E7,PIO0_4/TMS*%
%TO.N,unconnected-(IC1-PadE7)*%
X137500000Y-94000000D03*
%TO.P,IC1,E8,PIO1_27*%
%TO.N,unconnected-(IC1-PadE8)*%
X137000000Y-94000000D03*
%TO.P,IC1,E9,PIO0_22*%
%TO.N,unconnected-(IC1-PadE9)*%
X136500000Y-94000000D03*
%TO.P,IC1,E13,PIO1_26*%
%TO.N,unconnected-(IC1-PadE13)*%
X134500000Y-94000000D03*
%TO.P,IC1,F1,PIO0_11/ADC0_9*%
%TO.N,/SWCLK*%
X140500000Y-93500000D03*
%TO.P,IC1,F2,PIO0_10/ADC0_1*%
%TO.N,/SWO*%
X140000000Y-93500000D03*
%TO.P,IC1,F5,PIO0_1*%
%TO.N,unconnected-(IC1-PadF5)*%
X138500000Y-93500000D03*
%TO.P,IC1,F9,PIO1_30/WAKEUP*%
%TO.N,/USB1_LED*%
X136500000Y-93500000D03*
%TO.P,IC1,F12,PIO1_12*%
%TO.N,/FC6_SCK*%
X135000000Y-93500000D03*
%TO.P,IC1,F13,PIO0_28/WAKEUP*%
%TO.N,unconnected-(IC1-PadF13)*%
X134500000Y-93500000D03*
%TO.P,IC1,G1,VREFP*%
%TO.N,+3V3*%
X140500000Y-93000000D03*
%TO.P,IC1,G2,VDDA*%
X140000000Y-93000000D03*
%TO.P,IC1,G3,PIO0_17*%
%TO.N,unconnected-(IC1-PadG3)*%
X139500000Y-93000000D03*
%TO.P,IC1,G5,PIO0_7*%
%TO.N,unconnected-(IC1-PadG5)*%
X138500000Y-93000000D03*
%TO.P,IC1,G6,PIO1_11*%
%TO.N,/SW2_R_NO*%
X138000000Y-93000000D03*
%TO.P,IC1,G8,PIO1_29*%
%TO.N,/SW2_R_NC*%
X137000000Y-93000000D03*
%TO.P,IC1,G11,PIO1_1/WAKEUP*%
%TO.N,/ENC_A*%
X135500000Y-93000000D03*
%TO.P,IC1,G12,PIO1_2*%
%TO.N,unconnected-(IC1-PadG12)*%
X135000000Y-93000000D03*
%TO.P,IC1,G13,PIO1_3*%
%TO.N,/ENC_B*%
X134500000Y-93000000D03*
%TO.P,IC1,H1,VREFN*%
%TO.N,GND*%
X140500000Y-92500000D03*
%TO.P,IC1,H2,VSSA*%
X140000000Y-92500000D03*
%TO.P,IC1,H5,PIO1_6*%
%TO.N,unconnected-(IC1-PadH5)*%
X138500000Y-92500000D03*
%TO.P,IC1,H12,PIO0_26*%
%TO.N,unconnected-(IC1-PadH12)*%
X135000000Y-92500000D03*
%TO.P,IC1,H13,PIO1_19/ACMPVREF*%
%TO.N,unconnected-(IC1-PadH13)*%
X134500000Y-92500000D03*
%TO.P,IC1,J1,PIO0_23/ADC0_0*%
%TO.N,unconnected-(IC1-PadJ1)*%
X140500000Y-92000000D03*
%TO.P,IC1,J2,PIO0_16/ADC0_8*%
%TO.N,unconnected-(IC1-PadJ2)*%
X140000000Y-92000000D03*
%TO.P,IC1,J5,PIO1_7*%
%TO.N,/SW3_M_NC*%
X138500000Y-92000000D03*
%TO.P,IC1,J6,RESETN*%
%TO.N,/RESET*%
X138000000Y-92000000D03*
%TO.P,IC1,J7,PIO1_10*%
%TO.N,/SW1_L_NC*%
X137500000Y-92000000D03*
%TO.P,IC1,J12,XTAL32K_N*%
%TO.N,unconnected-(IC1-PadJ12)*%
X135000000Y-92000000D03*
%TO.P,IC1,J13,XTAL32K_P*%
%TO.N,GND*%
X134500000Y-92000000D03*
%TO.P,IC1,L1,PIO0_31/ADC0_3*%
%TO.N,unconnected-(IC1-PadL1)*%
X140500000Y-91000000D03*
%TO.P,IC1,L2,PIO0_15/ADC0_2*%
%TO.N,/FC6_CS1*%
X140000000Y-91000000D03*
%TO.P,IC1,L7,PIO1_14/ACMP0_D*%
%TO.N,unconnected-(IC1-PadL7)*%
X137500000Y-91000000D03*
%TO.P,IC1,L12,PIO0_0/ACMP0_A*%
%TO.N,unconnected-(IC1-PadL12)*%
X135000000Y-91000000D03*
%TO.P,IC1,L13,PIO0_9/ACMP0_B*%
%TO.N,unconnected-(IC1-PadL13)*%
X134500000Y-91000000D03*
%TO.P,IC1,M1,VDD_4*%
%TO.N,+3V3*%
X140500000Y-90500000D03*
%TO.P,IC1,M2,PIO0_8*%
%TO.N,unconnected-(IC1-PadM2)*%
X140000000Y-90500000D03*
%TO.P,IC1,M3,XTAL32M_N*%
%TO.N,/XTAL-*%
X139500000Y-90500000D03*
%TO.P,IC1,M5,PIO1_5*%
%TO.N,/SW3_M_NO*%
X138500000Y-90500000D03*
%TO.P,IC1,M6,USB1_DP*%
%TO.N,/USB_D+*%
X138000000Y-90500000D03*
%TO.P,IC1,M7,PIO1_21*%
%TO.N,unconnected-(IC1-PadM7)*%
X137500000Y-90500000D03*
%TO.P,IC1,M8,PIO1_22*%
%TO.N,/SW1_L_NO*%
X137000000Y-90500000D03*
%TO.P,IC1,M9,VDD_PMU*%
%TO.N,/1v2*%
X136500000Y-90500000D03*
%TO.P,IC1,M11,VSS_PMU*%
%TO.N,GND*%
X135500000Y-90500000D03*
%TO.P,IC1,M12,VSS_DCDC_1*%
X135000000Y-90500000D03*
%TO.P,IC1,M13,VBAT__PMU*%
%TO.N,/PMU*%
X134500000Y-90500000D03*
%TO.P,IC1,N1,VSS_4*%
%TO.N,GND*%
X140500000Y-90000000D03*
%TO.P,IC1,N2,PIO0_27*%
%TO.N,unconnected-(IC1-PadN2)*%
X140000000Y-90000000D03*
%TO.P,IC1,N3,XTAL32M_P*%
%TO.N,/XTAL+*%
X139500000Y-90000000D03*
%TO.P,IC1,N5,USB1_VSS*%
%TO.N,GND*%
X138500000Y-90000000D03*
%TO.P,IC1,N6,USB1_DM*%
%TO.N,/USB_D-*%
X138000000Y-90000000D03*
%TO.P,IC1,N7,USB1_3V3*%
%TO.N,+3V3*%
X137500000Y-90000000D03*
%TO.P,IC1,N9,FB*%
%TO.N,/1v2*%
X136500000Y-90000000D03*
%TO.P,IC1,N11,LX*%
%TO.N,/_1v2*%
X135500000Y-90000000D03*
%TO.P,IC1,N12,VSS_DCDC_2*%
%TO.N,GND*%
X135000000Y-90000000D03*
%TO.P,IC1,N13,VBAT_DCDC*%
%TO.N,/PMU*%
X134500000Y-90000000D03*
%TD*%
D12*
%TO.P,C19,1*%
%TO.N,Net-(C19-Pad1)*%
X144270000Y-108250000D03*
%TO.P,C19,2*%
%TO.N,+1V8*%
X145230000Y-108250000D03*
%TD*%
D15*
%TO.P,SW2,1,C*%
%TO.N,GND*%
X156000000Y-72920000D03*
%TO.P,SW2,2,NO*%
%TO.N,/SW2_R_NO*%
X156000000Y-78000000D03*
%TO.P,SW2,3,NC*%
%TO.N,/SW2_R_NC*%
X156000000Y-83080000D03*
%TD*%
D41*
%TO.P,F1,1*%
%TO.N,/VBUS_F_*%
X141000000Y-64235000D03*
%TO.P,F1,2*%
%TO.N,/VBUS_*%
X141000000Y-63265000D03*
%TD*%
D12*
%TO.P,C21,1*%
%TO.N,Net-(C21-Pad1)*%
X144290000Y-107250000D03*
%TO.P,C21,2*%
%TO.N,GND*%
X145250000Y-107250000D03*
%TD*%
D42*
%TO.P,C10,1*%
%TO.N,+3V3*%
X143750000Y-67250000D03*
%TO.P,C10,2*%
%TO.N,GND*%
X143750000Y-66290000D03*
%TD*%
D15*
%TO.P,SW1,1,C*%
%TO.N,GND*%
X119000000Y-72920000D03*
%TO.P,SW1,2,NO*%
%TO.N,/SW1_L_NO*%
X119000000Y-78000000D03*
%TO.P,SW1,3,NC*%
%TO.N,/SW1_L_NC*%
X119000000Y-83080000D03*
%TD*%
D31*
%TO.P,R3,1*%
%TO.N,GND*%
X135000000Y-64260000D03*
%TO.P,R3,2*%
%TO.N,Net-(J1-PadB5)*%
X135000000Y-63240000D03*
%TD*%
D43*
%TO.N,+5V*%
X146750000Y-70500000D03*
D44*
X140650975Y-66546739D03*
X147250000Y-104500000D03*
%TO.N,+3V3*%
X137528381Y-87971619D03*
X146250000Y-94750000D03*
X131000000Y-89000000D03*
X145750000Y-104000000D03*
X138500000Y-98500000D03*
X154250000Y-106500000D03*
X145750000Y-103000000D03*
X142250000Y-92500000D03*
X127250000Y-90500000D03*
X134500000Y-98500000D03*
X146250000Y-95750000D03*
X154250000Y-107500000D03*
X142750000Y-91000000D03*
X131000000Y-91000000D03*
X145500000Y-67250000D03*
X136500000Y-98500000D03*
X125750000Y-111250000D03*
X144500000Y-67250000D03*
X142250000Y-93500000D03*
X154250000Y-105500000D03*
D45*
X149000000Y-115500000D03*
D44*
X131000000Y-90000000D03*
%TO.N,+1V8*%
X147250000Y-111000000D03*
%TO.N,/USB_D+*%
X137000000Y-64500000D03*
X138042518Y-91207482D03*
%TO.N,/USB_D-*%
X138000000Y-89000000D03*
X138000000Y-64475500D03*
%TO.N,/VBUS_*%
X136000000Y-60250000D03*
X142000000Y-64000000D03*
X139000000Y-60250000D03*
X142750000Y-64750000D03*
X139759355Y-62504544D03*
%TO.N,/USB1_LED*%
X136143360Y-92413402D03*
X123500000Y-91000000D03*
D43*
%TO.N,/FC6_CS1*%
X139524011Y-98000000D03*
D44*
%TO.N,/RESET*%
X136620878Y-91129122D03*
X150500000Y-104500000D03*
%TO.N,/FC6_SCK*%
X128000000Y-102500000D03*
X129475500Y-102500000D03*
X135750000Y-93500000D03*
%TO.N,/FC6_MOSI*%
X131024500Y-100000000D03*
X128000000Y-100000000D03*
%TO.N,/FC6_MISO*%
X137750000Y-95500000D03*
X129975500Y-106250000D03*
X128000000Y-106250000D03*
D43*
%TO.N,/SW1_L_NC*%
X135519107Y-91020248D03*
D44*
%TO.N,/SNSR_RST*%
X137024500Y-96651949D03*
%TO.N,/SW1_L_NO*%
X136500000Y-89000000D03*
%TO.N,GND*%
X136700989Y-94750000D03*
X144270000Y-92500000D03*
X142000000Y-62750000D03*
X145750000Y-107250000D03*
X144250000Y-90500000D03*
X128500000Y-105500000D03*
X140000000Y-67750000D03*
X134000000Y-65250000D03*
X139451727Y-94957641D03*
X134925500Y-89524020D03*
X138000000Y-66500000D03*
X141000000Y-88000000D03*
D45*
X152500000Y-115500000D03*
D44*
X145000000Y-85750000D03*
X144500000Y-66274989D03*
X132250000Y-92000000D03*
X137500000Y-98500000D03*
X148000000Y-107500000D03*
X140000000Y-88000000D03*
X135500000Y-98500000D03*
X139000000Y-66500000D03*
X154250000Y-110500000D03*
X148750000Y-108750000D03*
X133500000Y-95000000D03*
X139500000Y-64500000D03*
X145750000Y-106250000D03*
X145250000Y-90500000D03*
X141750000Y-65500000D03*
X132000000Y-65250000D03*
X148750000Y-105250000D03*
X134500000Y-64000000D03*
X131750000Y-87000000D03*
X144250000Y-93500000D03*
X133374500Y-62750000D03*
D43*
X141250000Y-92500000D03*
D44*
X133500000Y-98500000D03*
X129250000Y-96250000D03*
%TO.N,/SW4_NC*%
X135544503Y-94500000D03*
X129250000Y-97250000D03*
%TO.N,/SW4_NO*%
X135944011Y-95500000D03*
X129250000Y-98250000D03*
D43*
%TO.N,/SW2_R_NO*%
X137750000Y-92519503D03*
%TO.N,/SW2_R_NC*%
X137750000Y-93500000D03*
%TO.N,/SW3_M_NO*%
X139000000Y-91250000D03*
%TO.N,/SW3_M_NC*%
X139250000Y-92100980D03*
%TO.N,/ENC_B*%
X133500000Y-93000000D03*
D45*
X120750000Y-78000000D03*
%TO.N,/ENC_A*%
X121334080Y-79767133D03*
D43*
X133250000Y-91500000D03*
D44*
%TO.N,/SWO*%
X139250000Y-93548273D03*
X155250000Y-109274500D03*
D43*
%TO.N,/SWCLK*%
X141250000Y-93500000D03*
D44*
%TO.N,/SWDIO*%
X145000000Y-94000000D03*
%TO.N,/SNSR_MTN*%
X138397276Y-94749989D03*
%TD*%
D46*
%TO.N,/SWO*%
X139250000Y-93548273D02*
X139298273Y-93500000D01*
X139298273Y-93500000D02*
X140000000Y-93500000D01*
%TO.N,/SW1_L_NC*%
X135519107Y-91020248D02*
X135770248Y-91020248D01*
X137319031Y-91819031D02*
X137500000Y-92000000D01*
X135770248Y-91020248D02*
X136569031Y-91819031D01*
X136569031Y-91819031D02*
X137319031Y-91819031D01*
D47*
%TO.N,/SW2_R_NO*%
X137750000Y-92519503D02*
X138000000Y-92769503D01*
X138000000Y-92769503D02*
X138000000Y-93000000D01*
%TO.N,/SW2_R_NC*%
X137750000Y-93500000D02*
X137250000Y-93000000D01*
X137250000Y-93000000D02*
X137000000Y-93000000D01*
D46*
%TO.N,+5V*%
X136799999Y-65950001D02*
X136434343Y-65950001D01*
X148700000Y-107500000D02*
X148700000Y-107350000D01*
X140900000Y-67150000D02*
X140000000Y-66250000D01*
D48*
X140015000Y-65250000D02*
X140015000Y-66235000D01*
D46*
X147250000Y-105230000D02*
X147250000Y-104500000D01*
X147250000Y-105230000D02*
X147250000Y-106450000D01*
X139325054Y-65027789D02*
X137722211Y-65027789D01*
X140354236Y-66250000D02*
X140650975Y-66546739D01*
X148700000Y-107350000D02*
X147850000Y-106500000D01*
X147850000Y-106500000D02*
X147300000Y-106500000D01*
D48*
X140015000Y-66235000D02*
X140000000Y-66250000D01*
D46*
X137722211Y-65027789D02*
X136799999Y-65950001D01*
X147250000Y-106450000D02*
X147300000Y-106500000D01*
X141375000Y-67150000D02*
X140900000Y-67150000D01*
X140000000Y-66250000D02*
X141275000Y-66250000D01*
X139547265Y-65250000D02*
X139325054Y-65027789D01*
X140015000Y-65250000D02*
X139547265Y-65250000D01*
X141275000Y-66250000D02*
X141375000Y-66350000D01*
%TO.N,+3V3*%
X138500000Y-97980000D02*
X138520000Y-98000000D01*
X142520000Y-93250000D02*
X142270000Y-93000000D01*
X137556762Y-88000000D02*
X137528381Y-87971619D01*
X142250000Y-93500000D02*
X142520000Y-93500000D01*
X142625000Y-66750000D02*
X143250000Y-66750000D01*
X138500000Y-98040000D02*
X138460000Y-98000000D01*
X145230000Y-104000000D02*
X145750000Y-104000000D01*
X146250000Y-95750000D02*
X145510000Y-95750000D01*
X136500000Y-98500000D02*
X136500000Y-98040000D01*
X127250000Y-90500000D02*
X126510000Y-90500000D01*
X131000000Y-91000000D02*
X131520000Y-91000000D01*
X136500000Y-97960000D02*
X136500000Y-96000000D01*
X143750000Y-67250000D02*
X145500000Y-67250000D01*
X136500000Y-98040000D02*
X136460000Y-98000000D01*
X138500000Y-98500000D02*
X138500000Y-98040000D01*
X142770000Y-92500000D02*
X142270000Y-93000000D01*
X138500000Y-97960000D02*
X138500000Y-96000000D01*
X142750000Y-91000000D02*
X142750000Y-90750000D01*
X142270000Y-93000000D02*
X140000000Y-93000000D01*
X143250000Y-66750000D02*
X143750000Y-67250000D01*
X136460000Y-98000000D02*
X136500000Y-97960000D01*
X154250000Y-106500000D02*
X154740000Y-106500000D01*
X137528381Y-87971619D02*
X137475489Y-88024511D01*
X142520000Y-93500000D02*
X142520000Y-93250000D01*
X125750000Y-111250000D02*
X126480000Y-111250000D01*
X134500000Y-97980000D02*
X134520000Y-98000000D01*
X154250000Y-105500000D02*
X154730000Y-105500000D01*
X138460000Y-98000000D02*
X138500000Y-97960000D01*
X134500000Y-98500000D02*
X134500000Y-98020000D01*
X154250000Y-107500000D02*
X154740000Y-107500000D01*
X134500000Y-96000000D02*
X134500000Y-97980000D01*
X143650000Y-67150000D02*
X142625000Y-67150000D01*
X134500000Y-98020000D02*
X134480000Y-98000000D01*
X136500000Y-97980000D02*
X136520000Y-98000000D01*
X146250000Y-94750000D02*
X145520000Y-94750000D01*
X131000000Y-89000000D02*
X131520000Y-89000000D01*
X145750000Y-103000000D02*
X145230000Y-103000000D01*
X142750000Y-90750000D02*
X142500000Y-90500000D01*
X131000000Y-90000000D02*
X131520000Y-90000000D01*
X142250000Y-92500000D02*
X142770000Y-92500000D01*
X138270000Y-88000000D02*
X137556762Y-88000000D01*
X137475489Y-88024511D02*
X137475489Y-89975489D01*
X137475489Y-89975489D02*
X137500000Y-90000000D01*
X142500000Y-90500000D02*
X140500000Y-90500000D01*
%TO.N,+1V8*%
X147300000Y-107500000D02*
X147300000Y-108720000D01*
X147300000Y-108720000D02*
X147270000Y-108750000D01*
X145230000Y-109250000D02*
X146770000Y-109250000D01*
X146770000Y-108250000D02*
X147270000Y-108750000D01*
X147270000Y-108750000D02*
X147270000Y-110980000D01*
X145230000Y-108250000D02*
X146770000Y-108250000D01*
X146770000Y-109250000D02*
X147270000Y-108750000D01*
X147270000Y-110980000D02*
X147250000Y-111000000D01*
%TO.N,/PMU*%
X132480000Y-89000000D02*
X133480000Y-90000000D01*
X132480000Y-90000000D02*
X133480000Y-90000000D01*
X132480000Y-91000000D02*
X133480000Y-90000000D01*
X133480000Y-90000000D02*
X134500000Y-90000000D01*
X134500000Y-90000000D02*
X134500000Y-90500000D01*
%TO.N,/1v2*%
X131250000Y-86020000D02*
X132345000Y-86020000D01*
X132345000Y-86020000D02*
X132500000Y-86175000D01*
X136500000Y-90500000D02*
X136500000Y-90000000D01*
X135899520Y-89649520D02*
X135899520Y-89084514D01*
X135365006Y-88550000D02*
X133659183Y-88550000D01*
X133299520Y-88190337D02*
X133299520Y-86974520D01*
X136250000Y-90000000D02*
X135899520Y-89649520D01*
X133659183Y-88550000D02*
X133299520Y-88190337D01*
X133299520Y-86974520D02*
X132500000Y-86175000D01*
X135899520Y-89084514D02*
X135365006Y-88550000D01*
X136500000Y-90000000D02*
X136250000Y-90000000D01*
D47*
%TO.N,/USB_D+*%
X136750000Y-63784342D02*
X136484343Y-64049999D01*
D46*
X137750000Y-62764511D02*
X137750000Y-61755000D01*
D47*
X138042518Y-90542518D02*
X138000000Y-90500000D01*
X136750000Y-63750000D02*
X136750000Y-63784342D01*
D46*
X137000000Y-63000000D02*
X137514511Y-63000000D01*
X137514511Y-63000000D02*
X137750000Y-62764511D01*
D47*
X136549999Y-64049999D02*
X137000000Y-64500000D01*
D46*
X136750000Y-63250000D02*
X137000000Y-63000000D01*
D47*
X138042518Y-91207482D02*
X138042518Y-90542518D01*
X136484343Y-64049999D02*
X136549999Y-64049999D01*
D46*
X136750000Y-63750000D02*
X136750000Y-61755000D01*
D47*
%TO.N,/USB_D-*%
X138020000Y-60750000D02*
X137480000Y-60750000D01*
X138425500Y-64050000D02*
X138000000Y-64475500D01*
X138250000Y-60980000D02*
X138020000Y-60750000D01*
X138250000Y-63720349D02*
X138516343Y-63986692D01*
X137480000Y-60750000D02*
X137250000Y-60980000D01*
X138516343Y-64050000D02*
X138425500Y-64050000D01*
X137250000Y-60980000D02*
X137250000Y-61755000D01*
X138250000Y-61755000D02*
X138250000Y-60980000D01*
X138000000Y-90000000D02*
X138000000Y-89000000D01*
X138516343Y-63986692D02*
X138516343Y-64050000D01*
X138250000Y-61755000D02*
X138250000Y-63720349D01*
D46*
%TO.N,/VBUS_F_*%
X141000000Y-65235000D02*
X140985000Y-65250000D01*
D48*
X141000000Y-64235000D02*
X141000000Y-65235000D01*
%TO.N,/VBUS_*%
X139900000Y-62363899D02*
X139759355Y-62504544D01*
D49*
X139000000Y-60250000D02*
X139749511Y-60999511D01*
X135250489Y-61755000D02*
X135100000Y-61755000D01*
X139749511Y-60999511D02*
X139749511Y-61604511D01*
D48*
X142000000Y-64000000D02*
X141265000Y-63265000D01*
X142750000Y-64750000D02*
X142000000Y-64000000D01*
X139900000Y-61755000D02*
X139900000Y-62363899D01*
D49*
X139749511Y-61604511D02*
X139900000Y-61755000D01*
D48*
X141265000Y-63265000D02*
X141000000Y-63265000D01*
D49*
X135250489Y-60999511D02*
X135250489Y-61755000D01*
X136000000Y-60250000D02*
X135250489Y-60999511D01*
D46*
%TO.N,/USB1_LED*%
X136143360Y-92413402D02*
X136500000Y-92770042D01*
X123500000Y-90515000D02*
X123515000Y-90500000D01*
X123500000Y-91000000D02*
X123500000Y-90515000D01*
X136500000Y-92770042D02*
X136500000Y-93500000D01*
%TO.N,/FC6_CS1*%
X147000000Y-92250000D02*
X146274511Y-91524511D01*
X147000000Y-97000000D02*
X147000000Y-92250000D01*
X140227871Y-91524511D02*
X140000000Y-91296640D01*
X140000000Y-91296640D02*
X140000000Y-91000000D01*
X146274511Y-91524511D02*
X140227871Y-91524511D01*
X146000000Y-98000000D02*
X147000000Y-97000000D01*
X139524011Y-98000000D02*
X146000000Y-98000000D01*
%TO.N,/RESET*%
X156750000Y-105500000D02*
X157750000Y-104500000D01*
X136620878Y-91129122D02*
X136911267Y-91419511D01*
X155750000Y-105500000D02*
X156750000Y-105500000D01*
X150500000Y-104500000D02*
X157750000Y-104500000D01*
X136911267Y-91419511D02*
X137512790Y-91419511D01*
X137512790Y-91419511D02*
X138000000Y-91906721D01*
X138000000Y-91906721D02*
X138000000Y-92000000D01*
%TO.N,/FC6_SCK*%
X129560500Y-102415000D02*
X132150000Y-102415000D01*
X135750000Y-93500000D02*
X135000000Y-93500000D01*
X129475500Y-102500000D02*
X128000000Y-102500000D01*
X129475500Y-102500000D02*
X129560500Y-102415000D01*
%TO.N,/FC6_MOSI*%
X139024511Y-95882210D02*
X139406721Y-95500000D01*
X131024500Y-100000000D02*
X128000000Y-100000000D01*
X131024500Y-100000000D02*
X131999989Y-99024511D01*
X131999989Y-99024511D02*
X138799022Y-99024511D01*
X139024511Y-98799022D02*
X139024511Y-95882210D01*
X139406721Y-95500000D02*
X139500000Y-95500000D01*
X138799022Y-99024511D02*
X139024511Y-98799022D01*
%TO.N,/FC6_MISO*%
X137750000Y-95250000D02*
X137500000Y-95000000D01*
X129975500Y-106250000D02*
X130260000Y-105965500D01*
X131675000Y-105500000D02*
X132150000Y-105975000D01*
X130260000Y-105965500D02*
X130260000Y-105500000D01*
X129975500Y-106250000D02*
X128000000Y-106250000D01*
X137750000Y-95500000D02*
X137750000Y-95250000D01*
X130260000Y-105500000D02*
X131675000Y-105500000D01*
%TO.N,Net-(D2-Pad2)*%
X124485000Y-90500000D02*
X125490000Y-90500000D01*
%TO.N,Net-(J1-PadB5)*%
X135750000Y-62490000D02*
X135750000Y-61755000D01*
X135000000Y-63240000D02*
X135750000Y-62490000D01*
%TO.N,Net-(J1-PadA5)*%
X138774511Y-62653533D02*
X139360978Y-63240000D01*
X139360978Y-63240000D02*
X140000000Y-63240000D01*
X138750000Y-61755000D02*
X138750000Y-62258228D01*
X138750000Y-62258228D02*
X138774511Y-62282739D01*
X138774511Y-62282739D02*
X138774511Y-62653533D01*
D48*
%TO.N,/SH*%
X133180000Y-61180000D02*
X132750000Y-61610000D01*
X132750000Y-63520000D02*
X133500000Y-64270000D01*
X132750000Y-61610000D02*
X132750000Y-63990000D01*
X132750000Y-63990000D02*
X132500000Y-64240000D01*
D46*
%TO.N,/SNSR_RST*%
X138000000Y-96093279D02*
X137441330Y-96651949D01*
X138000000Y-96000000D02*
X138000000Y-96093279D01*
X137441330Y-96651949D02*
X137024500Y-96651949D01*
%TO.N,/SW1_L_NO*%
X137000000Y-89500000D02*
X137000000Y-90500000D01*
X136500000Y-89000000D02*
X137000000Y-89500000D01*
%TO.N,/_1v2*%
X132500000Y-87825000D02*
X132500000Y-88026535D01*
X135199520Y-88949520D02*
X135500000Y-89250000D01*
X132500000Y-88026535D02*
X133422985Y-88949520D01*
X135500000Y-89250000D02*
X135500000Y-90000000D01*
X133422985Y-88949520D02*
X135199520Y-88949520D01*
%TO.N,GND*%
X140250000Y-88750000D02*
X138991772Y-88750000D01*
X132250000Y-92000000D02*
X134500000Y-92000000D01*
X129250000Y-96250000D02*
X128075000Y-96250000D01*
X134500000Y-64000000D02*
X134690000Y-64190000D01*
X133500000Y-95000000D02*
X134000000Y-95500000D01*
X147724022Y-107000000D02*
X148000000Y-107275978D01*
X134000000Y-95500000D02*
X134500000Y-95500000D01*
X138000000Y-66213143D02*
X138000000Y-66500000D01*
X141750000Y-65500000D02*
X141775000Y-65500000D01*
X131750000Y-87000000D02*
X131270000Y-87000000D01*
X148750000Y-105250000D02*
X148230000Y-105250000D01*
X132000000Y-65250000D02*
X132010000Y-65260000D01*
X144250000Y-90500000D02*
X143460000Y-90500000D01*
X133980000Y-65230000D02*
X133500000Y-65230000D01*
X134925500Y-89524020D02*
X135000000Y-89598520D01*
X140584520Y-89915480D02*
X140500000Y-90000000D01*
X144500000Y-66274989D02*
X143765011Y-66274989D01*
X139000000Y-66500000D02*
X139000000Y-66280457D01*
D50*
X141465481Y-62715481D02*
X140700000Y-61950000D01*
D46*
X138500000Y-89241772D02*
X138500000Y-90000000D01*
X148750000Y-108750000D02*
X148230000Y-108750000D01*
X145000000Y-85750000D02*
X143070000Y-85750000D01*
X141000000Y-88000000D02*
X140250000Y-88750000D01*
X128500000Y-105500000D02*
X129240000Y-105500000D01*
X134690000Y-64190000D02*
X135000000Y-64190000D01*
X138466343Y-65746800D02*
X138000000Y-66213143D01*
D50*
X140700000Y-61950000D02*
X140700000Y-61755000D01*
D46*
X139042359Y-94957641D02*
X138500000Y-95500000D01*
X139230000Y-88000000D02*
X140000000Y-88000000D01*
X141250000Y-92500000D02*
X140000000Y-92500000D01*
X144250000Y-93500000D02*
X143710000Y-93500000D01*
X135000000Y-89598520D02*
X135000000Y-90000000D01*
X139000000Y-66280457D02*
X138466343Y-65746800D01*
X147300000Y-107000000D02*
X147724022Y-107000000D01*
X132010000Y-65260000D02*
X132500000Y-65260000D01*
X135000000Y-90500000D02*
X135000000Y-90000000D01*
X139451727Y-94957641D02*
X139042359Y-94957641D01*
X148000000Y-107275978D02*
X148000000Y-107500000D01*
X136500000Y-94950989D02*
X136500000Y-95500000D01*
X148230000Y-105250000D02*
X148210000Y-105230000D01*
D50*
X134300000Y-62200000D02*
X134300000Y-61755000D01*
X133750000Y-62750000D02*
X134300000Y-62200000D01*
D46*
X135500000Y-90500000D02*
X135000000Y-90500000D01*
X154250000Y-110500000D02*
X154740000Y-110500000D01*
X138991772Y-88750000D02*
X138500000Y-89241772D01*
X144270000Y-92500000D02*
X143730000Y-92500000D01*
D50*
X133374500Y-62750000D02*
X133750000Y-62750000D01*
D46*
X144665480Y-89915480D02*
X140584520Y-89915480D01*
X134000000Y-65250000D02*
X133980000Y-65230000D01*
X140000000Y-67750000D02*
X140000000Y-67210000D01*
X131270000Y-87000000D02*
X131250000Y-86980000D01*
X143765011Y-66274989D02*
X143750000Y-66290000D01*
X145250000Y-90500000D02*
X144665480Y-89915480D01*
X139740000Y-64260000D02*
X139500000Y-64500000D01*
D50*
X142000000Y-62750000D02*
X141965481Y-62715481D01*
D46*
X141775000Y-65500000D02*
X142625000Y-66350000D01*
X145000000Y-85750000D02*
X145000000Y-87930000D01*
X136700989Y-94750000D02*
X136500000Y-94950989D01*
X140000000Y-64260000D02*
X139740000Y-64260000D01*
D50*
X141965481Y-62715481D02*
X141465481Y-62715481D01*
D46*
%TO.N,Net-(C17-Pad2)*%
X144250000Y-103000000D02*
X143750000Y-103500000D01*
X144250000Y-104000000D02*
X143750000Y-103500000D01*
X143045000Y-103500000D02*
X142850000Y-103305000D01*
X144270000Y-103000000D02*
X144250000Y-103000000D01*
X143750000Y-103500000D02*
X143045000Y-103500000D01*
X144270000Y-104000000D02*
X144250000Y-104000000D01*
%TO.N,/SNSR_LED*%
X129550000Y-111315000D02*
X129485000Y-111250000D01*
X132150000Y-111315000D02*
X129550000Y-111315000D01*
%TO.N,/SW4_NC*%
X135419511Y-94624992D02*
X135419511Y-95919511D01*
X135544503Y-94500000D02*
X135419511Y-94624992D01*
X129250000Y-97250000D02*
X128075000Y-97250000D01*
X135419511Y-95919511D02*
X135500000Y-96000000D01*
%TO.N,/SW4_NO*%
X135000000Y-96093279D02*
X135000000Y-96000000D01*
X135326232Y-96419511D02*
X135000000Y-96093279D01*
X135944011Y-95500000D02*
X135944011Y-96149268D01*
X129250000Y-98250000D02*
X128075000Y-98250000D01*
X135673768Y-96419511D02*
X135326232Y-96419511D01*
X135944011Y-96149268D02*
X135673768Y-96419511D01*
%TO.N,/SW5_NC*%
X134341715Y-95000000D02*
X133741235Y-94399520D01*
X133741235Y-94399520D02*
X129850480Y-94399520D01*
X134500000Y-95000000D02*
X134341715Y-95000000D01*
X129000000Y-95250000D02*
X128075000Y-95250000D01*
X129850480Y-94399520D02*
X129000000Y-95250000D01*
%TO.N,/SW5_NO*%
X135000000Y-95000000D02*
X135000000Y-94750000D01*
X134326232Y-94419511D02*
X133906721Y-94000000D01*
X135000000Y-94750000D02*
X134669511Y-94419511D01*
X134669511Y-94419511D02*
X134326232Y-94419511D01*
X128325000Y-94000000D02*
X128075000Y-94250000D01*
X133906721Y-94000000D02*
X128325000Y-94000000D01*
%TO.N,/FAULT_LED*%
X140000000Y-95000000D02*
X140000000Y-94794940D01*
X140000000Y-94794940D02*
X140294940Y-94500000D01*
X140294940Y-94500000D02*
X142270000Y-94500000D01*
X142270000Y-94500000D02*
X142520000Y-94750000D01*
%TO.N,Net-(D3-Pad2)*%
X143490000Y-94750000D02*
X144500000Y-94750000D01*
%TO.N,/USER_LED*%
X142515000Y-95750000D02*
X141765000Y-95000000D01*
X141765000Y-95000000D02*
X140500000Y-95000000D01*
%TO.N,Net-(D4-Pad2)*%
X143485000Y-95750000D02*
X144490000Y-95750000D01*
%TO.N,/SW3_M_NO*%
X139000000Y-91250000D02*
X139000000Y-91000000D01*
X139000000Y-91000000D02*
X138500000Y-90500000D01*
%TO.N,/SW3_M_NC*%
X139149020Y-92000000D02*
X138500000Y-92000000D01*
X139250000Y-92100980D02*
X139149020Y-92000000D01*
%TO.N,/ENC_B*%
X120750000Y-78000000D02*
X121750000Y-79000000D01*
X121750000Y-79000000D02*
X128000000Y-79000000D01*
X128000000Y-79000000D02*
X129000000Y-78000000D01*
X133500000Y-93000000D02*
X134500000Y-93000000D01*
%TO.N,/ENC_A*%
X135093279Y-91500000D02*
X135500000Y-91906721D01*
X133250000Y-91500000D02*
X135093279Y-91500000D01*
X128000000Y-79500000D02*
X129000000Y-80500000D01*
X135500000Y-91906721D02*
X135500000Y-93000000D01*
X121334080Y-79767133D02*
X121601213Y-79500000D01*
X121601213Y-79500000D02*
X128000000Y-79500000D01*
%TO.N,/SWO*%
X156500000Y-108500000D02*
X157750000Y-108500000D01*
X156500000Y-108500000D02*
X155760000Y-107760000D01*
X156024500Y-108500000D02*
X156500000Y-108500000D01*
X155760000Y-107760000D02*
X155760000Y-107500000D01*
X155250000Y-109274500D02*
X156024500Y-108500000D01*
%TO.N,/SWCLK*%
X141250000Y-93500000D02*
X140593279Y-93500000D01*
X155760000Y-110500000D02*
X157750000Y-110500000D01*
%TO.N,/SWDIO*%
X145000000Y-94000000D02*
X144915480Y-94084520D01*
X155760000Y-106500000D02*
X157750000Y-106500000D01*
X144915480Y-94084520D02*
X140084520Y-94084520D01*
X140084520Y-94084520D02*
X140000000Y-94000000D01*
%TO.N,Net-(D5-Pad2)*%
X128515000Y-111250000D02*
X127500000Y-111250000D01*
%TO.N,Net-(C19-Pad1)*%
X144250000Y-109250000D02*
X144270000Y-109250000D01*
X143750000Y-108750000D02*
X142955000Y-108750000D01*
X144250000Y-108250000D02*
X143750000Y-108750000D01*
X143750000Y-108750000D02*
X144250000Y-109250000D01*
X142955000Y-108750000D02*
X142850000Y-108645000D01*
X144270000Y-108250000D02*
X144250000Y-108250000D01*
%TO.N,Net-(C21-Pad1)*%
X144270000Y-106250000D02*
X144250000Y-106250000D01*
X143750000Y-106750000D02*
X142965000Y-106750000D01*
X144250000Y-107250000D02*
X144290000Y-107250000D01*
X142965000Y-106750000D02*
X142850000Y-106865000D01*
X144250000Y-106250000D02*
X143750000Y-106750000D01*
X143750000Y-106750000D02*
X144250000Y-107250000D01*
%TO.N,/SNSR_MTN*%
X138000000Y-94302731D02*
X138000000Y-94000000D01*
X138397276Y-94700007D02*
X138000000Y-94302731D01*
X138397276Y-94749989D02*
X138397276Y-94700007D01*
D47*
%TO.N,/XTAL+*%
X143850000Y-88250000D02*
X143850000Y-88499022D01*
X143850000Y-88400000D02*
X143300489Y-88949511D01*
X139750000Y-89500000D02*
X141750000Y-89500000D01*
X139500000Y-89750000D02*
X139750000Y-89500000D01*
X143300489Y-88949511D02*
X144620489Y-88949511D01*
X144620489Y-88949511D02*
X145000000Y-88570000D01*
X141750000Y-89500000D02*
X142300489Y-88949511D01*
X142300489Y-88949511D02*
X143300489Y-88949511D01*
X139500000Y-90000000D02*
X139500000Y-89750000D01*
X143850000Y-88250000D02*
X143850000Y-88400000D01*
%TO.N,/XTAL-*%
X139442076Y-90500000D02*
X139105489Y-90163413D01*
X139105489Y-89650215D02*
X139605224Y-89150480D01*
X142100489Y-87499511D02*
X142100489Y-86079511D01*
X141599520Y-89150480D02*
X142100489Y-88649511D01*
X139105489Y-90163413D02*
X139105489Y-89650215D01*
X139605224Y-89150480D02*
X141599520Y-89150480D01*
X142100489Y-88649511D02*
X142100489Y-87499511D01*
X139500000Y-90500000D02*
X139442076Y-90500000D01*
X142100489Y-87499511D02*
X142750000Y-86850000D01*
X142100489Y-86079511D02*
X142430000Y-85750000D01*
%TD*%
M02*
