%TF.GenerationSoftware,KiCad,Pcbnew,6.0.9+dfsg-1*%
%TF.CreationDate,2023-01-18T23:30:58-08:00*%
%TF.ProjectId,redshift,72656473-6869-4667-942e-6b696361645f,0.2*%
%TF.SameCoordinates,Original*%
%TF.FileFunction,Soldermask,Bot*%
%TF.FilePolarity,Negative*%
%FSLAX46Y46*%
G04 Gerber Fmt 4.6, Leading zero omitted, Abs format (unit mm)*
G04 Created by KiCad (PCBNEW 6.0.9+dfsg-1) date 2023-01-18 23:30:58*
%MOMM*%
%LPD*%
G01*
G04 APERTURE LIST*
%ADD10C,1.700000*%
%ADD11O,2.700000X1.700000*%
%ADD12C,0.650000*%
%ADD13O,1.050000X2.100000*%
%ADD14O,1.000000X2.000000*%
%ADD15R,1.350000X1.350000*%
%ADD16O,1.350000X1.350000*%
%ADD17R,1.400000X1.400000*%
%ADD18C,1.400000*%
%ADD19C,1.500000*%
G04 APERTURE END LIST*
D10*
%TO.C,ENC1*%
X129000000Y-80500000D03*
X129000000Y-78000000D03*
X129000000Y-75500000D03*
D11*
X127000000Y-72800000D03*
X127000000Y-83200000D03*
%TD*%
D12*
%TO.C,J1*%
X134610000Y-60680000D03*
X140390000Y-60680000D03*
D13*
X141820000Y-61180000D03*
D14*
X141820000Y-57000000D03*
X133180000Y-57000000D03*
D13*
X133180000Y-61180000D03*
%TD*%
D10*
%TO.C,SW3*%
X149000000Y-74920000D03*
X149000000Y-80000000D03*
X149000000Y-85080000D03*
%TD*%
D15*
%TO.C,J3*%
X157750000Y-100500000D03*
D16*
X157750000Y-102500000D03*
X157750000Y-104500000D03*
X157750000Y-106500000D03*
X157750000Y-108500000D03*
X157750000Y-110500000D03*
%TD*%
D17*
%TO.C,U1*%
X142850000Y-113985000D03*
D18*
X142850000Y-112205000D03*
X142850000Y-110425000D03*
X142850000Y-108645000D03*
X142850000Y-106865000D03*
X142850000Y-105085000D03*
X142850000Y-103305000D03*
X142850000Y-101525000D03*
X132150000Y-100635000D03*
X132150000Y-102415000D03*
X132150000Y-104195000D03*
X132150000Y-105975000D03*
X132150000Y-107755000D03*
X132150000Y-109535000D03*
X132150000Y-111315000D03*
X132150000Y-113095000D03*
%TD*%
D10*
%TO.C,SW2*%
X156000000Y-72920000D03*
X156000000Y-78000000D03*
X156000000Y-83080000D03*
%TD*%
%TO.C,SW1*%
X119000000Y-72920000D03*
X119000000Y-78000000D03*
X119000000Y-83080000D03*
%TD*%
D19*
%TO.C,TP5*%
X126775000Y-108000000D03*
%TD*%
%TO.C,TP6*%
X156500000Y-80500000D03*
%TD*%
%TO.C,TP7*%
X156500000Y-85500000D03*
%TD*%
%TO.C,TP13*%
X122500000Y-81000000D03*
%TD*%
%TO.C,TP3*%
X126150000Y-103125000D03*
%TD*%
%TO.C,TP9*%
X129200000Y-69100000D03*
%TD*%
%TO.C,TP10*%
X149000000Y-77500000D03*
%TD*%
%TO.C,TP11*%
X149000000Y-82500000D03*
%TD*%
%TO.C,TP2*%
X119000000Y-75500000D03*
%TD*%
%TO.C,TP12*%
X157425000Y-115100000D03*
%TD*%
%TO.C,TP18*%
X152000000Y-111000000D03*
%TD*%
%TO.C,TP17*%
X147750000Y-69250000D03*
%TD*%
%TO.C,TP8*%
X124100000Y-69800000D03*
%TD*%
%TO.C,TP16*%
X147250000Y-117175000D03*
%TD*%
%TO.C,TP4*%
X119000000Y-80500000D03*
%TD*%
%TO.C,TP14*%
X152750000Y-116950000D03*
%TD*%
%TO.C,TP1*%
X126150000Y-100600000D03*
%TD*%
%TO.C,TP15*%
X122500000Y-78000000D03*
%TD*%
M02*
