%TF.GenerationSoftware,KiCad,Pcbnew,6.0.0*%
%TF.CreationDate,2022-01-13T14:08:01-08:00*%
%TF.ProjectId,redshift,72656473-6869-4667-942e-6b696361645f,0.1*%
%TF.SameCoordinates,Original*%
%TF.FileFunction,Copper,L2,Inr*%
%TF.FilePolarity,Positive*%
%FSLAX46Y46*%
G04 Gerber Fmt 4.6, Leading zero omitted, Abs format (unit mm)*
G04 Created by KiCad (PCBNEW 6.0.0) date 2022-01-13 14:08:01*
%MOMM*%
%LPD*%
G01*
G04 APERTURE LIST*
%TA.AperFunction,ComponentPad*%
%ADD10C,1.700000*%
%TD*%
%TA.AperFunction,ComponentPad*%
%ADD11O,2.700000X1.600000*%
%TD*%
%TA.AperFunction,ComponentPad*%
%ADD12O,1.050000X2.100000*%
%TD*%
%TA.AperFunction,ComponentPad*%
%ADD13O,1.000000X2.000000*%
%TD*%
%TA.AperFunction,ComponentPad*%
%ADD14R,1.350000X1.350000*%
%TD*%
%TA.AperFunction,ComponentPad*%
%ADD15O,1.350000X1.350000*%
%TD*%
%TA.AperFunction,ComponentPad*%
%ADD16R,1.400000X1.400000*%
%TD*%
%TA.AperFunction,ComponentPad*%
%ADD17C,1.400000*%
%TD*%
%TA.AperFunction,ViaPad*%
%ADD18C,0.450000*%
%TD*%
%TA.AperFunction,ViaPad*%
%ADD19C,0.500000*%
%TD*%
%TA.AperFunction,ViaPad*%
%ADD20C,0.800000*%
%TD*%
%TA.AperFunction,Conductor*%
%ADD21C,0.450000*%
%TD*%
G04 APERTURE END LIST*
D10*
%TO.N,/ENC_A*%
%TO.C,ENC1*%
X129000000Y-80500000D03*
%TO.N,/ENC_B*%
X129000000Y-78000000D03*
%TO.N,GND*%
X129000000Y-75500000D03*
D11*
%TO.N,N/C*%
X127000000Y-83100000D03*
X127000000Y-72900000D03*
%TD*%
D12*
%TO.N,/SH*%
%TO.C,J1*%
X141820000Y-61180000D03*
D13*
X141820000Y-57000000D03*
X133180000Y-57000000D03*
D12*
X133180000Y-61180000D03*
%TD*%
D10*
%TO.N,GND*%
%TO.C,SW3*%
X149000000Y-74920000D03*
%TO.N,/SW3_M_NO*%
X149000000Y-80000000D03*
%TO.N,/SW3_M_NC*%
X149000000Y-85080000D03*
%TD*%
D14*
%TO.N,GND*%
%TO.C,J3*%
X157750000Y-100500000D03*
D15*
%TO.N,/VBUS_*%
X157750000Y-102500000D03*
%TO.N,/RESET*%
X157750000Y-104500000D03*
%TO.N,/SWDIO*%
X157750000Y-106500000D03*
%TO.N,/SWO*%
X157750000Y-108500000D03*
%TO.N,/SWCLK*%
X157750000Y-110500000D03*
%TD*%
D16*
%TO.N,N/C*%
%TO.C,U1*%
X142850000Y-113985000D03*
D17*
X142850000Y-112205000D03*
%TO.N,GND*%
X142850000Y-110425000D03*
%TO.N,Net-(C19-Pad1)*%
X142850000Y-108645000D03*
%TO.N,Net-(C21-Pad1)*%
X142850000Y-106865000D03*
%TO.N,unconnected-(U1-Pad6)*%
X142850000Y-105085000D03*
%TO.N,Net-(C17-Pad2)*%
X142850000Y-103305000D03*
%TO.N,GND*%
X142850000Y-101525000D03*
%TO.N,/SNSR_MTN*%
X132150000Y-100635000D03*
%TO.N,/FC6_SCK*%
X132150000Y-102415000D03*
%TO.N,/FC6_MOSI*%
X132150000Y-104195000D03*
%TO.N,/FC6_MISO*%
X132150000Y-105975000D03*
%TO.N,/FC6_CS1*%
X132150000Y-107755000D03*
%TO.N,/SNSR_RST*%
X132150000Y-109535000D03*
%TO.N,/SNSR_LED*%
X132150000Y-111315000D03*
%TO.N,N/C*%
X132150000Y-113095000D03*
%TD*%
D10*
%TO.N,GND*%
%TO.C,SW2*%
X156000000Y-72920000D03*
%TO.N,/SW2_R_NO*%
X156000000Y-78000000D03*
%TO.N,/SW2_R_NC*%
X156000000Y-83080000D03*
%TD*%
%TO.N,GND*%
%TO.C,SW1*%
X119000000Y-72920000D03*
%TO.N,/SW1_L_NO*%
X119000000Y-78000000D03*
%TO.N,/SW1_L_NC*%
X119000000Y-83080000D03*
%TD*%
D18*
%TO.N,+5V*%
X146750000Y-70500000D03*
D19*
X140650975Y-66546739D03*
X147250000Y-104500000D03*
%TO.N,+3V3*%
X137528381Y-87971619D03*
X146250000Y-94750000D03*
X131000000Y-89000000D03*
X145750000Y-104000000D03*
X138500000Y-98500000D03*
X154250000Y-106500000D03*
X145750000Y-103000000D03*
X142250000Y-92500000D03*
X127250000Y-90500000D03*
X134500000Y-98500000D03*
X146250000Y-95750000D03*
X154250000Y-107500000D03*
X142750000Y-91000000D03*
X131000000Y-91000000D03*
X145500000Y-67250000D03*
X136500000Y-98500000D03*
X125750000Y-111250000D03*
X144500000Y-67250000D03*
X142250000Y-93500000D03*
X154250000Y-105500000D03*
D20*
X149000000Y-115500000D03*
D19*
X131000000Y-90000000D03*
%TO.N,+1V8*%
X147250000Y-111000000D03*
%TO.N,/USB_D+*%
X137000000Y-64500000D03*
X138042518Y-91207482D03*
%TO.N,/USB_D-*%
X138000000Y-89000000D03*
X138000000Y-64475500D03*
%TO.N,/VBUS_*%
X136000000Y-60250000D03*
X142000000Y-64000000D03*
X139000000Y-60250000D03*
X142750000Y-64750000D03*
X139759355Y-62504544D03*
%TO.N,/USB1_LED*%
X136143360Y-92413402D03*
X123500000Y-91000000D03*
D18*
%TO.N,/FC6_CS1*%
X139524011Y-98000000D03*
D19*
%TO.N,/RESET*%
X136620878Y-91129122D03*
X150500000Y-104500000D03*
%TO.N,/FC6_SCK*%
X128000000Y-102500000D03*
X129475500Y-102500000D03*
X135750000Y-93500000D03*
%TO.N,/FC6_MOSI*%
X131024500Y-100000000D03*
X128000000Y-100000000D03*
%TO.N,/FC6_MISO*%
X137750000Y-95500000D03*
X129975500Y-106250000D03*
X128000000Y-106250000D03*
D18*
%TO.N,/SW1_L_NC*%
X135519107Y-91020248D03*
D19*
%TO.N,/SNSR_RST*%
X137024500Y-96651949D03*
%TO.N,/SW1_L_NO*%
X136500000Y-89000000D03*
%TO.N,GND*%
X136700989Y-94750000D03*
X144270000Y-92500000D03*
X142000000Y-62750000D03*
X145750000Y-107250000D03*
X144250000Y-90500000D03*
X128500000Y-105500000D03*
X140000000Y-67750000D03*
X134000000Y-65250000D03*
X139451727Y-94957641D03*
X134925500Y-89524020D03*
X138000000Y-66500000D03*
X141000000Y-88000000D03*
D20*
X152500000Y-115500000D03*
D19*
X145000000Y-85750000D03*
X144500000Y-66274989D03*
X132250000Y-92000000D03*
X137500000Y-98500000D03*
X148000000Y-107500000D03*
X140000000Y-88000000D03*
X135500000Y-98500000D03*
X139000000Y-66500000D03*
X154250000Y-110500000D03*
X148750000Y-108750000D03*
X133500000Y-95000000D03*
X139500000Y-64500000D03*
X145750000Y-106250000D03*
X145250000Y-90500000D03*
X141750000Y-65500000D03*
X132000000Y-65250000D03*
X148750000Y-105250000D03*
X134500000Y-64000000D03*
X131750000Y-87000000D03*
X144250000Y-93500000D03*
X133374500Y-62750000D03*
D18*
X141250000Y-92500000D03*
D19*
X133500000Y-98500000D03*
X129250000Y-96250000D03*
%TO.N,/SW4_NC*%
X135544503Y-94500000D03*
X129250000Y-97250000D03*
%TO.N,/SW4_NO*%
X135944011Y-95500000D03*
X129250000Y-98250000D03*
D18*
%TO.N,/SW2_R_NO*%
X137750000Y-92519503D03*
%TO.N,/SW2_R_NC*%
X137750000Y-93500000D03*
%TO.N,/SW3_M_NO*%
X139000000Y-91250000D03*
%TO.N,/SW3_M_NC*%
X139250000Y-92100980D03*
%TO.N,/ENC_B*%
X133500000Y-93000000D03*
D20*
X120750000Y-78000000D03*
%TO.N,/ENC_A*%
X121334080Y-79767133D03*
D18*
X133250000Y-91500000D03*
D19*
%TO.N,/SWO*%
X139250000Y-93548273D03*
X155250000Y-109274500D03*
D18*
%TO.N,/SWCLK*%
X141250000Y-93500000D03*
D19*
%TO.N,/SWDIO*%
X145000000Y-94000000D03*
%TO.N,/SNSR_MTN*%
X138397276Y-94749989D03*
%TD*%
D21*
%TO.N,/SH*%
X133180000Y-57000000D02*
X141820000Y-57000000D01*
X133180000Y-57000000D02*
X133180000Y-61180000D01*
X141820000Y-57000000D02*
X141820000Y-61180000D01*
%TD*%
%TA.AperFunction,Conductor*%
%TO.N,GND*%
G36*
X142941621Y-55520502D02*
G01*
X142988114Y-55574158D01*
X142999500Y-55626500D01*
X142999500Y-62986321D01*
X142998255Y-63000000D01*
X142995208Y-63000000D01*
X142996231Y-63015603D01*
X142999730Y-63068994D01*
X143000000Y-63077235D01*
X143000000Y-64236577D01*
X142979998Y-64304698D01*
X142926342Y-64351191D01*
X142854290Y-64361026D01*
X142750000Y-64344508D01*
X142740207Y-64346059D01*
X142634487Y-64362803D01*
X142634485Y-64362804D01*
X142624696Y-64364354D01*
X142511658Y-64421950D01*
X142421950Y-64511658D01*
X142364354Y-64624696D01*
X142362804Y-64634485D01*
X142362803Y-64634487D01*
X142346354Y-64738342D01*
X142344508Y-64750000D01*
X142346059Y-64759793D01*
X142362112Y-64861146D01*
X142364354Y-64875304D01*
X142421950Y-64988342D01*
X142511658Y-65078050D01*
X142624696Y-65135646D01*
X142634485Y-65137196D01*
X142634487Y-65137197D01*
X142740207Y-65153941D01*
X142750000Y-65155492D01*
X142759793Y-65153941D01*
X142865513Y-65137197D01*
X142865515Y-65137196D01*
X142875304Y-65135646D01*
X142988342Y-65078050D01*
X143029487Y-65036905D01*
X143091799Y-65002879D01*
X143118582Y-65000000D01*
X144922765Y-65000000D01*
X144931006Y-65000270D01*
X144934592Y-65000505D01*
X145000000Y-65004792D01*
X145000000Y-65001576D01*
X145009732Y-65000500D01*
X156996699Y-65000500D01*
X157003293Y-65000673D01*
X157039471Y-65002569D01*
X157133549Y-65007499D01*
X157313790Y-65017622D01*
X157326421Y-65018973D01*
X157475061Y-65042515D01*
X157476150Y-65042694D01*
X157564176Y-65057650D01*
X157635217Y-65069721D01*
X157646721Y-65072234D01*
X157795562Y-65112115D01*
X157797833Y-65112747D01*
X157949080Y-65156321D01*
X157959350Y-65159764D01*
X158104647Y-65215539D01*
X158107696Y-65216755D01*
X158251685Y-65276397D01*
X158260651Y-65280530D01*
X158400049Y-65351557D01*
X158403761Y-65353528D01*
X158539483Y-65428539D01*
X158547159Y-65433145D01*
X158678692Y-65518564D01*
X158682979Y-65521475D01*
X158809119Y-65610976D01*
X158815475Y-65615797D01*
X158937519Y-65714626D01*
X158942185Y-65718595D01*
X159057388Y-65821547D01*
X159062523Y-65826403D01*
X159173597Y-65937477D01*
X159178453Y-65942612D01*
X159281405Y-66057815D01*
X159285368Y-66062473D01*
X159384203Y-66184525D01*
X159389024Y-66190881D01*
X159413730Y-66225700D01*
X159478525Y-66317021D01*
X159481436Y-66321308D01*
X159566855Y-66452841D01*
X159571461Y-66460517D01*
X159646472Y-66596239D01*
X159648443Y-66599951D01*
X159719470Y-66739349D01*
X159723603Y-66748315D01*
X159757117Y-66829225D01*
X159783245Y-66892304D01*
X159784461Y-66895353D01*
X159826416Y-67004647D01*
X159840235Y-67040647D01*
X159843679Y-67050920D01*
X159887253Y-67202167D01*
X159887885Y-67204438D01*
X159927766Y-67353279D01*
X159930279Y-67364783D01*
X159933568Y-67384137D01*
X159957306Y-67523850D01*
X159957485Y-67524939D01*
X159978493Y-67657579D01*
X159981026Y-67673572D01*
X159982378Y-67686212D01*
X159988474Y-67794758D01*
X159992506Y-67866558D01*
X159992531Y-67867028D01*
X159999327Y-67996707D01*
X159999500Y-68003301D01*
X159999500Y-115996699D01*
X159999327Y-116003293D01*
X159992531Y-116132972D01*
X159992506Y-116133442D01*
X159982797Y-116306346D01*
X159982379Y-116313782D01*
X159981027Y-116326421D01*
X159957485Y-116475061D01*
X159957306Y-116476150D01*
X159944379Y-116552233D01*
X159930279Y-116635217D01*
X159927766Y-116646721D01*
X159887885Y-116795562D01*
X159887253Y-116797833D01*
X159843679Y-116949080D01*
X159840236Y-116959350D01*
X159812911Y-117030535D01*
X159784467Y-117104633D01*
X159783245Y-117107696D01*
X159750818Y-117185983D01*
X159723605Y-117251680D01*
X159719470Y-117260651D01*
X159648443Y-117400049D01*
X159646472Y-117403761D01*
X159571461Y-117539483D01*
X159566855Y-117547159D01*
X159481436Y-117678692D01*
X159478525Y-117682979D01*
X159389024Y-117809119D01*
X159384203Y-117815475D01*
X159285374Y-117937519D01*
X159281405Y-117942185D01*
X159178454Y-118057387D01*
X159173598Y-118062522D01*
X159062523Y-118173597D01*
X159057388Y-118178453D01*
X158942185Y-118281405D01*
X158937527Y-118285368D01*
X158815475Y-118384203D01*
X158809119Y-118389024D01*
X158716719Y-118454585D01*
X158682979Y-118478525D01*
X158678692Y-118481436D01*
X158547159Y-118566855D01*
X158539483Y-118571461D01*
X158403761Y-118646472D01*
X158400049Y-118648443D01*
X158260651Y-118719470D01*
X158251685Y-118723603D01*
X158170775Y-118757117D01*
X158107696Y-118783245D01*
X158104647Y-118784461D01*
X157959353Y-118840235D01*
X157949080Y-118843679D01*
X157797833Y-118887253D01*
X157795562Y-118887885D01*
X157646721Y-118927766D01*
X157635217Y-118930279D01*
X157564176Y-118942350D01*
X157476150Y-118957306D01*
X157475061Y-118957485D01*
X157326421Y-118981027D01*
X157313790Y-118982378D01*
X157133549Y-118992501D01*
X157058898Y-118996413D01*
X157003293Y-118999327D01*
X156996699Y-118999500D01*
X118003301Y-118999500D01*
X117996707Y-118999327D01*
X117941102Y-118996413D01*
X117866451Y-118992501D01*
X117686210Y-118982378D01*
X117673579Y-118981027D01*
X117524939Y-118957485D01*
X117523850Y-118957306D01*
X117435824Y-118942350D01*
X117364783Y-118930279D01*
X117353279Y-118927766D01*
X117204438Y-118887885D01*
X117202167Y-118887253D01*
X117050920Y-118843679D01*
X117040647Y-118840235D01*
X116895353Y-118784461D01*
X116892304Y-118783245D01*
X116829225Y-118757117D01*
X116748315Y-118723603D01*
X116739349Y-118719470D01*
X116599951Y-118648443D01*
X116596239Y-118646472D01*
X116460517Y-118571461D01*
X116452841Y-118566855D01*
X116321308Y-118481436D01*
X116317021Y-118478525D01*
X116283281Y-118454585D01*
X116190881Y-118389024D01*
X116184525Y-118384203D01*
X116062473Y-118285368D01*
X116057815Y-118281405D01*
X115942612Y-118178453D01*
X115937477Y-118173597D01*
X115826402Y-118062522D01*
X115821546Y-118057387D01*
X115718595Y-117942185D01*
X115714626Y-117937519D01*
X115615797Y-117815475D01*
X115610976Y-117809119D01*
X115521475Y-117682979D01*
X115518564Y-117678692D01*
X115433145Y-117547159D01*
X115428539Y-117539483D01*
X115353528Y-117403761D01*
X115351557Y-117400049D01*
X115280530Y-117260651D01*
X115276395Y-117251680D01*
X115249183Y-117185983D01*
X115216755Y-117107696D01*
X115215533Y-117104633D01*
X115187090Y-117030535D01*
X115159764Y-116959350D01*
X115156321Y-116949080D01*
X115112747Y-116797833D01*
X115112115Y-116795562D01*
X115072234Y-116646721D01*
X115069721Y-116635217D01*
X115055621Y-116552233D01*
X115042694Y-116476150D01*
X115042515Y-116475061D01*
X115018973Y-116326421D01*
X115017621Y-116313782D01*
X115017204Y-116306346D01*
X115007494Y-116133442D01*
X115007469Y-116132972D01*
X115005458Y-116094594D01*
X116798074Y-116094594D01*
X116799053Y-116100291D01*
X116799053Y-116100292D01*
X116803475Y-116126024D01*
X116835438Y-116312043D01*
X116911804Y-116519043D01*
X116914756Y-116524004D01*
X116914756Y-116524005D01*
X116974661Y-116624695D01*
X117024614Y-116708659D01*
X117170090Y-116874543D01*
X117343360Y-117011137D01*
X117538620Y-117113869D01*
X117749333Y-117179297D01*
X117755070Y-117179976D01*
X117924789Y-117200064D01*
X117924795Y-117200064D01*
X117928476Y-117200500D01*
X118055970Y-117200500D01*
X118219711Y-117185454D01*
X118225273Y-117183885D01*
X118225275Y-117183885D01*
X118325887Y-117155510D01*
X118432064Y-117125565D01*
X118629947Y-117027980D01*
X118652503Y-117011137D01*
X118802109Y-116899420D01*
X118802110Y-116899420D01*
X118806733Y-116895967D01*
X118897447Y-116797833D01*
X118952582Y-116738189D01*
X118952584Y-116738186D01*
X118956501Y-116733949D01*
X119074236Y-116547350D01*
X119155994Y-116342421D01*
X119159176Y-116326428D01*
X119197911Y-116131691D01*
X119197911Y-116131688D01*
X119199038Y-116126024D01*
X119199450Y-116094594D01*
X119201850Y-115911188D01*
X119201926Y-115905406D01*
X119198604Y-115886071D01*
X119165541Y-115693654D01*
X119165541Y-115693653D01*
X119164562Y-115687957D01*
X119088196Y-115480957D01*
X118975386Y-115291341D01*
X118829910Y-115125457D01*
X118656640Y-114988863D01*
X118461380Y-114886131D01*
X118250667Y-114820703D01*
X118236718Y-114819052D01*
X118075211Y-114799936D01*
X118075205Y-114799936D01*
X118071524Y-114799500D01*
X117944030Y-114799500D01*
X117780289Y-114814546D01*
X117774727Y-114816115D01*
X117774725Y-114816115D01*
X117705991Y-114835500D01*
X117567936Y-114874435D01*
X117370053Y-114972020D01*
X117365427Y-114975474D01*
X117365426Y-114975475D01*
X117342709Y-114992439D01*
X117193267Y-115104033D01*
X117173463Y-115125457D01*
X117076821Y-115230004D01*
X117043499Y-115266051D01*
X116925764Y-115452650D01*
X116844006Y-115657579D01*
X116800962Y-115873976D01*
X116800886Y-115879751D01*
X116800886Y-115879755D01*
X116800475Y-115911188D01*
X116798074Y-116094594D01*
X115005458Y-116094594D01*
X115000673Y-116003293D01*
X115000500Y-115996699D01*
X115000500Y-111250000D01*
X125344508Y-111250000D01*
X125346059Y-111259793D01*
X125357583Y-111332550D01*
X125364354Y-111375304D01*
X125421950Y-111488342D01*
X125511658Y-111578050D01*
X125624696Y-111635646D01*
X125634485Y-111637196D01*
X125634487Y-111637197D01*
X125740207Y-111653941D01*
X125750000Y-111655492D01*
X125759793Y-111653941D01*
X125865513Y-111637197D01*
X125865515Y-111637196D01*
X125875304Y-111635646D01*
X125988342Y-111578050D01*
X126078050Y-111488342D01*
X126135646Y-111375304D01*
X126142418Y-111332550D01*
X126153941Y-111259793D01*
X126155492Y-111250000D01*
X126150557Y-111218842D01*
X126137197Y-111134487D01*
X126137196Y-111134485D01*
X126135646Y-111124696D01*
X126078050Y-111011658D01*
X125988342Y-110921950D01*
X125875304Y-110864354D01*
X125865515Y-110862804D01*
X125865513Y-110862803D01*
X125759793Y-110846059D01*
X125750000Y-110844508D01*
X125740207Y-110846059D01*
X125634487Y-110862803D01*
X125634485Y-110862804D01*
X125624696Y-110864354D01*
X125511658Y-110921950D01*
X125421950Y-111011658D01*
X125364354Y-111124696D01*
X125362804Y-111134485D01*
X125362803Y-111134487D01*
X125349443Y-111218842D01*
X125344508Y-111250000D01*
X115000500Y-111250000D01*
X115000500Y-106250000D01*
X127594508Y-106250000D01*
X127596059Y-106259793D01*
X127611523Y-106357427D01*
X127614354Y-106375304D01*
X127671950Y-106488342D01*
X127761658Y-106578050D01*
X127874696Y-106635646D01*
X127884485Y-106637196D01*
X127884487Y-106637197D01*
X127990207Y-106653941D01*
X128000000Y-106655492D01*
X128009793Y-106653941D01*
X128115513Y-106637197D01*
X128115515Y-106637196D01*
X128125304Y-106635646D01*
X128238342Y-106578050D01*
X128328050Y-106488342D01*
X128385646Y-106375304D01*
X128388478Y-106357427D01*
X128403941Y-106259793D01*
X128405492Y-106250000D01*
X129570008Y-106250000D01*
X129571559Y-106259793D01*
X129587023Y-106357427D01*
X129589854Y-106375304D01*
X129647450Y-106488342D01*
X129737158Y-106578050D01*
X129850196Y-106635646D01*
X129859985Y-106637196D01*
X129859987Y-106637197D01*
X129965707Y-106653941D01*
X129975500Y-106655492D01*
X129985293Y-106653941D01*
X130091013Y-106637197D01*
X130091015Y-106637196D01*
X130100804Y-106635646D01*
X130213842Y-106578050D01*
X130303550Y-106488342D01*
X130361146Y-106375304D01*
X130363978Y-106357427D01*
X130379441Y-106259793D01*
X130380992Y-106250000D01*
X130377127Y-106225595D01*
X130362697Y-106134487D01*
X130362696Y-106134485D01*
X130361146Y-106124696D01*
X130303550Y-106011658D01*
X130213842Y-105921950D01*
X130100804Y-105864354D01*
X130091015Y-105862804D01*
X130091013Y-105862803D01*
X129985293Y-105846059D01*
X129975500Y-105844508D01*
X129965707Y-105846059D01*
X129859987Y-105862803D01*
X129859985Y-105862804D01*
X129850196Y-105864354D01*
X129737158Y-105921950D01*
X129647450Y-106011658D01*
X129589854Y-106124696D01*
X129588304Y-106134485D01*
X129588303Y-106134487D01*
X129573873Y-106225595D01*
X129570008Y-106250000D01*
X128405492Y-106250000D01*
X128401627Y-106225595D01*
X128387197Y-106134487D01*
X128387196Y-106134485D01*
X128385646Y-106124696D01*
X128328050Y-106011658D01*
X128238342Y-105921950D01*
X128125304Y-105864354D01*
X128115515Y-105862804D01*
X128115513Y-105862803D01*
X128009793Y-105846059D01*
X128000000Y-105844508D01*
X127990207Y-105846059D01*
X127884487Y-105862803D01*
X127884485Y-105862804D01*
X127874696Y-105864354D01*
X127761658Y-105921950D01*
X127671950Y-106011658D01*
X127614354Y-106124696D01*
X127612804Y-106134485D01*
X127612803Y-106134487D01*
X127598373Y-106225595D01*
X127594508Y-106250000D01*
X115000500Y-106250000D01*
X115000500Y-102500000D01*
X127594508Y-102500000D01*
X127596059Y-102509793D01*
X127612620Y-102614354D01*
X127614354Y-102625304D01*
X127671950Y-102738342D01*
X127761658Y-102828050D01*
X127874696Y-102885646D01*
X127884485Y-102887196D01*
X127884487Y-102887197D01*
X127990207Y-102903941D01*
X128000000Y-102905492D01*
X128009793Y-102903941D01*
X128115513Y-102887197D01*
X128115515Y-102887196D01*
X128125304Y-102885646D01*
X128238342Y-102828050D01*
X128328050Y-102738342D01*
X128385646Y-102625304D01*
X128387381Y-102614354D01*
X128403941Y-102509793D01*
X128405492Y-102500000D01*
X129070008Y-102500000D01*
X129071559Y-102509793D01*
X129088120Y-102614354D01*
X129089854Y-102625304D01*
X129147450Y-102738342D01*
X129237158Y-102828050D01*
X129350196Y-102885646D01*
X129359985Y-102887196D01*
X129359987Y-102887197D01*
X129465707Y-102903941D01*
X129475500Y-102905492D01*
X129485293Y-102903941D01*
X129591013Y-102887197D01*
X129591015Y-102887196D01*
X129600804Y-102885646D01*
X129713842Y-102828050D01*
X129803550Y-102738342D01*
X129861146Y-102625304D01*
X129862881Y-102614354D01*
X129879441Y-102509793D01*
X129880992Y-102500000D01*
X129868569Y-102421565D01*
X129862697Y-102384487D01*
X129862696Y-102384485D01*
X129861146Y-102374696D01*
X129803550Y-102261658D01*
X129713842Y-102171950D01*
X129600804Y-102114354D01*
X129591015Y-102112804D01*
X129591013Y-102112803D01*
X129485293Y-102096059D01*
X129475500Y-102094508D01*
X129465707Y-102096059D01*
X129359987Y-102112803D01*
X129359985Y-102112804D01*
X129350196Y-102114354D01*
X129237158Y-102171950D01*
X129147450Y-102261658D01*
X129089854Y-102374696D01*
X129088304Y-102384485D01*
X129088303Y-102384487D01*
X129082431Y-102421565D01*
X129070008Y-102500000D01*
X128405492Y-102500000D01*
X128393069Y-102421565D01*
X128387197Y-102384487D01*
X128387196Y-102384485D01*
X128385646Y-102374696D01*
X128328050Y-102261658D01*
X128238342Y-102171950D01*
X128125304Y-102114354D01*
X128115515Y-102112804D01*
X128115513Y-102112803D01*
X128009793Y-102096059D01*
X128000000Y-102094508D01*
X127990207Y-102096059D01*
X127884487Y-102112803D01*
X127884485Y-102112804D01*
X127874696Y-102114354D01*
X127761658Y-102171950D01*
X127671950Y-102261658D01*
X127614354Y-102374696D01*
X127612804Y-102384485D01*
X127612803Y-102384487D01*
X127606931Y-102421565D01*
X127594508Y-102500000D01*
X115000500Y-102500000D01*
X115000500Y-100000000D01*
X127594508Y-100000000D01*
X127614354Y-100125304D01*
X127671950Y-100238342D01*
X127761658Y-100328050D01*
X127874696Y-100385646D01*
X127884485Y-100387196D01*
X127884487Y-100387197D01*
X127990207Y-100403941D01*
X128000000Y-100405492D01*
X128009793Y-100403941D01*
X128115513Y-100387197D01*
X128115515Y-100387196D01*
X128125304Y-100385646D01*
X128238342Y-100328050D01*
X128328050Y-100238342D01*
X128385646Y-100125304D01*
X128405492Y-100000000D01*
X130619008Y-100000000D01*
X130638854Y-100125304D01*
X130696450Y-100238342D01*
X130786158Y-100328050D01*
X130899196Y-100385646D01*
X130908985Y-100387196D01*
X130908987Y-100387197D01*
X131014707Y-100403941D01*
X131024500Y-100405492D01*
X131146211Y-100386215D01*
X131146214Y-100386215D01*
X131149804Y-100385646D01*
X131149878Y-100386110D01*
X131213700Y-100384289D01*
X131274496Y-100420953D01*
X131305819Y-100484666D01*
X131306974Y-100519317D01*
X131294815Y-100635000D01*
X131295505Y-100641565D01*
X131307323Y-100754000D01*
X131313503Y-100812803D01*
X131368750Y-100982835D01*
X131458141Y-101137665D01*
X131462559Y-101142572D01*
X131462560Y-101142573D01*
X131538120Y-101226490D01*
X131577770Y-101270526D01*
X131722407Y-101375612D01*
X131728433Y-101378295D01*
X131728440Y-101378299D01*
X131799403Y-101409893D01*
X131853499Y-101455873D01*
X131874149Y-101523800D01*
X131854797Y-101592108D01*
X131799404Y-101640107D01*
X131728438Y-101671703D01*
X131728436Y-101671704D01*
X131722408Y-101674388D01*
X131717067Y-101678268D01*
X131717066Y-101678269D01*
X131683024Y-101703002D01*
X131577770Y-101779474D01*
X131573357Y-101784376D01*
X131573355Y-101784377D01*
X131475272Y-101893309D01*
X131458141Y-101912335D01*
X131368750Y-102067165D01*
X131366708Y-102073450D01*
X131318461Y-102221939D01*
X131313503Y-102237197D01*
X131294815Y-102415000D01*
X131295505Y-102421565D01*
X131302874Y-102491671D01*
X131313503Y-102592803D01*
X131368750Y-102762835D01*
X131458141Y-102917665D01*
X131462559Y-102922572D01*
X131462560Y-102922573D01*
X131541094Y-103009793D01*
X131577770Y-103050526D01*
X131583109Y-103054405D01*
X131683298Y-103127197D01*
X131722407Y-103155612D01*
X131728433Y-103158295D01*
X131728440Y-103158299D01*
X131799403Y-103189893D01*
X131853499Y-103235873D01*
X131874149Y-103303800D01*
X131854797Y-103372108D01*
X131799404Y-103420107D01*
X131728438Y-103451703D01*
X131728436Y-103451704D01*
X131722408Y-103454388D01*
X131717067Y-103458268D01*
X131717066Y-103458269D01*
X131639861Y-103514362D01*
X131577770Y-103559474D01*
X131573357Y-103564376D01*
X131573355Y-103564377D01*
X131476496Y-103671950D01*
X131458141Y-103692335D01*
X131368750Y-103847165D01*
X131366708Y-103853450D01*
X131318461Y-104001939D01*
X131313503Y-104017197D01*
X131312813Y-104023760D01*
X131312813Y-104023761D01*
X131297238Y-104171950D01*
X131294815Y-104195000D01*
X131295505Y-104201565D01*
X131312774Y-104365863D01*
X131313503Y-104372803D01*
X131368750Y-104542835D01*
X131458141Y-104697665D01*
X131462559Y-104702572D01*
X131462560Y-104702573D01*
X131520770Y-104767221D01*
X131577770Y-104830526D01*
X131583109Y-104834405D01*
X131683298Y-104907197D01*
X131722407Y-104935612D01*
X131728433Y-104938295D01*
X131728440Y-104938299D01*
X131799403Y-104969893D01*
X131853499Y-105015873D01*
X131874149Y-105083800D01*
X131854797Y-105152108D01*
X131799404Y-105200107D01*
X131728438Y-105231703D01*
X131728436Y-105231704D01*
X131722408Y-105234388D01*
X131717067Y-105238268D01*
X131717066Y-105238269D01*
X131646660Y-105289422D01*
X131577770Y-105339474D01*
X131573357Y-105344376D01*
X131573355Y-105344377D01*
X131499366Y-105426550D01*
X131458141Y-105472335D01*
X131368750Y-105627165D01*
X131366708Y-105633450D01*
X131318461Y-105781939D01*
X131313503Y-105797197D01*
X131312813Y-105803760D01*
X131312813Y-105803761D01*
X131302121Y-105905492D01*
X131294815Y-105975000D01*
X131295505Y-105981565D01*
X131302874Y-106051671D01*
X131313503Y-106152803D01*
X131368750Y-106322835D01*
X131458141Y-106477665D01*
X131462559Y-106482572D01*
X131462560Y-106482573D01*
X131542216Y-106571039D01*
X131577770Y-106610526D01*
X131583109Y-106614405D01*
X131683298Y-106687197D01*
X131722407Y-106715612D01*
X131728433Y-106718295D01*
X131728440Y-106718299D01*
X131799403Y-106749893D01*
X131853499Y-106795873D01*
X131874149Y-106863800D01*
X131854797Y-106932108D01*
X131799404Y-106980107D01*
X131728438Y-107011703D01*
X131728436Y-107011704D01*
X131722408Y-107014388D01*
X131717067Y-107018268D01*
X131717066Y-107018269D01*
X131632433Y-107079759D01*
X131577770Y-107119474D01*
X131573357Y-107124376D01*
X131573355Y-107124377D01*
X131499366Y-107206550D01*
X131458141Y-107252335D01*
X131368750Y-107407165D01*
X131366708Y-107413450D01*
X131318461Y-107561939D01*
X131313503Y-107577197D01*
X131312813Y-107583760D01*
X131312813Y-107583761D01*
X131302081Y-107685873D01*
X131294815Y-107755000D01*
X131295505Y-107761565D01*
X131308547Y-107885646D01*
X131313503Y-107932803D01*
X131368750Y-108102835D01*
X131458141Y-108257665D01*
X131462559Y-108262572D01*
X131462560Y-108262573D01*
X131520953Y-108327424D01*
X131577770Y-108390526D01*
X131583109Y-108394405D01*
X131683298Y-108467197D01*
X131722407Y-108495612D01*
X131728433Y-108498295D01*
X131728440Y-108498299D01*
X131799403Y-108529893D01*
X131853499Y-108575873D01*
X131874149Y-108643800D01*
X131854797Y-108712108D01*
X131799404Y-108760107D01*
X131728438Y-108791703D01*
X131728436Y-108791704D01*
X131722408Y-108794388D01*
X131717067Y-108798268D01*
X131717066Y-108798269D01*
X131621703Y-108867555D01*
X131577770Y-108899474D01*
X131573357Y-108904376D01*
X131573355Y-108904377D01*
X131503309Y-108982171D01*
X131458141Y-109032335D01*
X131454838Y-109038056D01*
X131385019Y-109158987D01*
X131368750Y-109187165D01*
X131357585Y-109221527D01*
X131318461Y-109341939D01*
X131313503Y-109357197D01*
X131312813Y-109363760D01*
X131312813Y-109363761D01*
X131298967Y-109495500D01*
X131294815Y-109535000D01*
X131313503Y-109712803D01*
X131368750Y-109882835D01*
X131458141Y-110037665D01*
X131462559Y-110042572D01*
X131462560Y-110042573D01*
X131565298Y-110156674D01*
X131577770Y-110170526D01*
X131722407Y-110275612D01*
X131728433Y-110278295D01*
X131728440Y-110278299D01*
X131799403Y-110309893D01*
X131853499Y-110355873D01*
X131874149Y-110423800D01*
X131854797Y-110492108D01*
X131799404Y-110540107D01*
X131728438Y-110571703D01*
X131728436Y-110571704D01*
X131722408Y-110574388D01*
X131717067Y-110578268D01*
X131717066Y-110578269D01*
X131645740Y-110630091D01*
X131577770Y-110679474D01*
X131573357Y-110684376D01*
X131573355Y-110684377D01*
X131474839Y-110793790D01*
X131458141Y-110812335D01*
X131368750Y-110967165D01*
X131366708Y-110973450D01*
X131318461Y-111121939D01*
X131313503Y-111137197D01*
X131312813Y-111143760D01*
X131312813Y-111143761D01*
X131297786Y-111286737D01*
X131294815Y-111315000D01*
X131295505Y-111321565D01*
X131302874Y-111391671D01*
X131313503Y-111492803D01*
X131315543Y-111499080D01*
X131315543Y-111499082D01*
X131341202Y-111578050D01*
X131368750Y-111662835D01*
X131458141Y-111817665D01*
X131462559Y-111822572D01*
X131462560Y-111822573D01*
X131520770Y-111887221D01*
X131577770Y-111950526D01*
X131583109Y-111954405D01*
X131683298Y-112027197D01*
X131722407Y-112055612D01*
X131728433Y-112058295D01*
X131728440Y-112058299D01*
X131799403Y-112089893D01*
X131853499Y-112135873D01*
X131874149Y-112203800D01*
X131854797Y-112272108D01*
X131799404Y-112320107D01*
X131728438Y-112351703D01*
X131728436Y-112351704D01*
X131722408Y-112354388D01*
X131717067Y-112358268D01*
X131717066Y-112358269D01*
X131621703Y-112427555D01*
X131577770Y-112459474D01*
X131573357Y-112464376D01*
X131573355Y-112464377D01*
X131499366Y-112546550D01*
X131458141Y-112592335D01*
X131368750Y-112747165D01*
X131366708Y-112753450D01*
X131318461Y-112901939D01*
X131313503Y-112917197D01*
X131312813Y-112923760D01*
X131312813Y-112923761D01*
X131301277Y-113033523D01*
X131294815Y-113095000D01*
X131295505Y-113101565D01*
X131299885Y-113143233D01*
X131313503Y-113272803D01*
X131368750Y-113442835D01*
X131458141Y-113597665D01*
X131577770Y-113730526D01*
X131722407Y-113835612D01*
X131728435Y-113838296D01*
X131728437Y-113838297D01*
X131879702Y-113905644D01*
X131885733Y-113908329D01*
X131973171Y-113926915D01*
X132054152Y-113944128D01*
X132054156Y-113944128D01*
X132060609Y-113945500D01*
X132239391Y-113945500D01*
X132245844Y-113944128D01*
X132245848Y-113944128D01*
X132326829Y-113926915D01*
X132414267Y-113908329D01*
X132420298Y-113905644D01*
X132571563Y-113838297D01*
X132571565Y-113838296D01*
X132577593Y-113835612D01*
X132722230Y-113730526D01*
X132841859Y-113597665D01*
X132931250Y-113442835D01*
X132953667Y-113373843D01*
X132993741Y-113315237D01*
X133059137Y-113287600D01*
X133129094Y-113299707D01*
X133181400Y-113347713D01*
X133199500Y-113412779D01*
X133199500Y-116764901D01*
X133199459Y-116765000D01*
X133199500Y-116765099D01*
X133199617Y-116765383D01*
X133200000Y-116765541D01*
X133200099Y-116765500D01*
X141799901Y-116765500D01*
X141800000Y-116765541D01*
X141800099Y-116765500D01*
X141800383Y-116765383D01*
X141800541Y-116765000D01*
X141800500Y-116764901D01*
X141800500Y-116094594D01*
X155798074Y-116094594D01*
X155799053Y-116100291D01*
X155799053Y-116100292D01*
X155803475Y-116126024D01*
X155835438Y-116312043D01*
X155911804Y-116519043D01*
X155914756Y-116524004D01*
X155914756Y-116524005D01*
X155974661Y-116624695D01*
X156024614Y-116708659D01*
X156170090Y-116874543D01*
X156343360Y-117011137D01*
X156538620Y-117113869D01*
X156749333Y-117179297D01*
X156755070Y-117179976D01*
X156924789Y-117200064D01*
X156924795Y-117200064D01*
X156928476Y-117200500D01*
X157055970Y-117200500D01*
X157219711Y-117185454D01*
X157225273Y-117183885D01*
X157225275Y-117183885D01*
X157325887Y-117155510D01*
X157432064Y-117125565D01*
X157629947Y-117027980D01*
X157652503Y-117011137D01*
X157802109Y-116899420D01*
X157802110Y-116899420D01*
X157806733Y-116895967D01*
X157897447Y-116797833D01*
X157952582Y-116738189D01*
X157952584Y-116738186D01*
X157956501Y-116733949D01*
X158074236Y-116547350D01*
X158155994Y-116342421D01*
X158159176Y-116326428D01*
X158197911Y-116131691D01*
X158197911Y-116131688D01*
X158199038Y-116126024D01*
X158199450Y-116094594D01*
X158201850Y-115911188D01*
X158201926Y-115905406D01*
X158198604Y-115886071D01*
X158165541Y-115693654D01*
X158165541Y-115693653D01*
X158164562Y-115687957D01*
X158088196Y-115480957D01*
X157975386Y-115291341D01*
X157829910Y-115125457D01*
X157656640Y-114988863D01*
X157461380Y-114886131D01*
X157250667Y-114820703D01*
X157236718Y-114819052D01*
X157075211Y-114799936D01*
X157075205Y-114799936D01*
X157071524Y-114799500D01*
X156944030Y-114799500D01*
X156780289Y-114814546D01*
X156774727Y-114816115D01*
X156774725Y-114816115D01*
X156705991Y-114835500D01*
X156567936Y-114874435D01*
X156370053Y-114972020D01*
X156365427Y-114975474D01*
X156365426Y-114975475D01*
X156342709Y-114992439D01*
X156193267Y-115104033D01*
X156173463Y-115125457D01*
X156076821Y-115230004D01*
X156043499Y-115266051D01*
X155925764Y-115452650D01*
X155844006Y-115657579D01*
X155800962Y-115873976D01*
X155800886Y-115879751D01*
X155800886Y-115879755D01*
X155800475Y-115911188D01*
X155798074Y-116094594D01*
X141800500Y-116094594D01*
X141800500Y-115500000D01*
X148444750Y-115500000D01*
X148463670Y-115643709D01*
X148519139Y-115777625D01*
X148607379Y-115892621D01*
X148722375Y-115980861D01*
X148856291Y-116036330D01*
X149000000Y-116055250D01*
X149143709Y-116036330D01*
X149277625Y-115980861D01*
X149392621Y-115892621D01*
X149480861Y-115777625D01*
X149536330Y-115643709D01*
X149555250Y-115500000D01*
X149536330Y-115356291D01*
X149480861Y-115222375D01*
X149392621Y-115107379D01*
X149277625Y-115019139D01*
X149143709Y-114963670D01*
X149000000Y-114944750D01*
X148856291Y-114963670D01*
X148722375Y-115019139D01*
X148607379Y-115107379D01*
X148519139Y-115222375D01*
X148463670Y-115356291D01*
X148444750Y-115500000D01*
X141800500Y-115500000D01*
X141800500Y-114848193D01*
X141820502Y-114780072D01*
X141874158Y-114733579D01*
X141944432Y-114723475D01*
X142009012Y-114752969D01*
X142031262Y-114778187D01*
X142041496Y-114793504D01*
X142051815Y-114800399D01*
X142080958Y-114819872D01*
X142080960Y-114819873D01*
X142091278Y-114826767D01*
X142135180Y-114835500D01*
X143564820Y-114835500D01*
X143608722Y-114826767D01*
X143619040Y-114819873D01*
X143619042Y-114819872D01*
X143648185Y-114800399D01*
X143658504Y-114793504D01*
X143668735Y-114778192D01*
X143684872Y-114754042D01*
X143684873Y-114754040D01*
X143691767Y-114743722D01*
X143700500Y-114699820D01*
X143700500Y-113270180D01*
X143691767Y-113226278D01*
X143684873Y-113215960D01*
X143684872Y-113215958D01*
X143665399Y-113186815D01*
X143658504Y-113176496D01*
X143626547Y-113155143D01*
X143619042Y-113150128D01*
X143619040Y-113150127D01*
X143608722Y-113143233D01*
X143564820Y-113134500D01*
X143405398Y-113134500D01*
X143337277Y-113114498D01*
X143290784Y-113060842D01*
X143280680Y-112990568D01*
X143310174Y-112925988D01*
X143331337Y-112906564D01*
X143378298Y-112872445D01*
X143422230Y-112840526D01*
X143479231Y-112777221D01*
X143537440Y-112712573D01*
X143537441Y-112712572D01*
X143541859Y-112707665D01*
X143631250Y-112552835D01*
X143678256Y-112408165D01*
X143684457Y-112389082D01*
X143684457Y-112389080D01*
X143686497Y-112382803D01*
X143697127Y-112281671D01*
X143704495Y-112211565D01*
X143705185Y-112205000D01*
X143697919Y-112135873D01*
X143687187Y-112033761D01*
X143687187Y-112033760D01*
X143686497Y-112027197D01*
X143631250Y-111857165D01*
X143541859Y-111702335D01*
X143478617Y-111632098D01*
X143447900Y-111568090D01*
X143456663Y-111497637D01*
X143482054Y-111466532D01*
X143479937Y-111464840D01*
X143499623Y-111440212D01*
X143492554Y-111426764D01*
X142862812Y-110797022D01*
X142848868Y-110789408D01*
X142847035Y-110789539D01*
X142840420Y-110793790D01*
X142206724Y-111427486D01*
X142200294Y-111439261D01*
X142221299Y-111466411D01*
X142218935Y-111468240D01*
X142244349Y-111500038D01*
X142251654Y-111570658D01*
X142221383Y-111632098D01*
X142158141Y-111702335D01*
X142068750Y-111857165D01*
X142066708Y-111863450D01*
X142046333Y-111926157D01*
X142006259Y-111984763D01*
X141940863Y-112012400D01*
X141870906Y-112000293D01*
X141818600Y-111952287D01*
X141800500Y-111887221D01*
X141800500Y-111167480D01*
X141820502Y-111099359D01*
X141837405Y-111078385D01*
X142477978Y-110437812D01*
X142484356Y-110426132D01*
X143214408Y-110426132D01*
X143214539Y-110427965D01*
X143218790Y-110434580D01*
X143852486Y-111068276D01*
X143864261Y-111074706D01*
X143876276Y-111065410D01*
X143897001Y-111035811D01*
X143902479Y-111026323D01*
X143914753Y-111000000D01*
X146844508Y-111000000D01*
X146846059Y-111009793D01*
X146862221Y-111111835D01*
X146864354Y-111125304D01*
X146921950Y-111238342D01*
X147011658Y-111328050D01*
X147124696Y-111385646D01*
X147134485Y-111387196D01*
X147134487Y-111387197D01*
X147240207Y-111403941D01*
X147250000Y-111405492D01*
X147259793Y-111403941D01*
X147365513Y-111387197D01*
X147365515Y-111387196D01*
X147375304Y-111385646D01*
X147488342Y-111328050D01*
X147578050Y-111238342D01*
X147635646Y-111125304D01*
X147637780Y-111111835D01*
X147653941Y-111009793D01*
X147655492Y-111000000D01*
X147643130Y-110921950D01*
X147637197Y-110884487D01*
X147637196Y-110884485D01*
X147635646Y-110874696D01*
X147578050Y-110761658D01*
X147488342Y-110671950D01*
X147375304Y-110614354D01*
X147365515Y-110612804D01*
X147365513Y-110612803D01*
X147259793Y-110596059D01*
X147250000Y-110594508D01*
X147240207Y-110596059D01*
X147134487Y-110612803D01*
X147134485Y-110612804D01*
X147124696Y-110614354D01*
X147011658Y-110671950D01*
X146921950Y-110761658D01*
X146864354Y-110874696D01*
X146862804Y-110884485D01*
X146862803Y-110884487D01*
X146856870Y-110921950D01*
X146844508Y-111000000D01*
X143914753Y-111000000D01*
X143987159Y-110844723D01*
X143990907Y-110834429D01*
X144042769Y-110640878D01*
X144044671Y-110630091D01*
X144056052Y-110500000D01*
X156919953Y-110500000D01*
X156938092Y-110672576D01*
X156940132Y-110678855D01*
X156940133Y-110678859D01*
X156940333Y-110679474D01*
X156991714Y-110837611D01*
X157078478Y-110987889D01*
X157082899Y-110992799D01*
X157178846Y-111099359D01*
X157194590Y-111116845D01*
X157334976Y-111218842D01*
X157341004Y-111221526D01*
X157341006Y-111221527D01*
X157426953Y-111259793D01*
X157493501Y-111289422D01*
X157578368Y-111307461D01*
X157656779Y-111324128D01*
X157656783Y-111324128D01*
X157663236Y-111325500D01*
X157836764Y-111325500D01*
X157843217Y-111324128D01*
X157843221Y-111324128D01*
X157921631Y-111307461D01*
X158006499Y-111289422D01*
X158073047Y-111259793D01*
X158158994Y-111221527D01*
X158158996Y-111221526D01*
X158165024Y-111218842D01*
X158305410Y-111116845D01*
X158321155Y-111099359D01*
X158417101Y-110992799D01*
X158421522Y-110987889D01*
X158508286Y-110837611D01*
X158559667Y-110679474D01*
X158559867Y-110678859D01*
X158559868Y-110678855D01*
X158561908Y-110672576D01*
X158580047Y-110500000D01*
X158579218Y-110492108D01*
X158562598Y-110333991D01*
X158561908Y-110327424D01*
X158508286Y-110162389D01*
X158421522Y-110012111D01*
X158305410Y-109883155D01*
X158165024Y-109781158D01*
X158158996Y-109778474D01*
X158158994Y-109778473D01*
X158012530Y-109713263D01*
X158012529Y-109713263D01*
X158006499Y-109710578D01*
X157921631Y-109692539D01*
X157843221Y-109675872D01*
X157843217Y-109675872D01*
X157836764Y-109674500D01*
X157663236Y-109674500D01*
X157656783Y-109675872D01*
X157656779Y-109675872D01*
X157578369Y-109692539D01*
X157493501Y-109710578D01*
X157487472Y-109713262D01*
X157487470Y-109713263D01*
X157341007Y-109778473D01*
X157341005Y-109778474D01*
X157334977Y-109781158D01*
X157329636Y-109785038D01*
X157329635Y-109785039D01*
X157276455Y-109823677D01*
X157194590Y-109883155D01*
X157078478Y-110012111D01*
X156991714Y-110162389D01*
X156938092Y-110327424D01*
X156937402Y-110333991D01*
X156920783Y-110492108D01*
X156919953Y-110500000D01*
X144056052Y-110500000D01*
X144062135Y-110430475D01*
X144062135Y-110419525D01*
X144044671Y-110219909D01*
X144042769Y-110209122D01*
X143990907Y-110015571D01*
X143987159Y-110005277D01*
X143902479Y-109823677D01*
X143897001Y-109814189D01*
X143875689Y-109783752D01*
X143865212Y-109775377D01*
X143851764Y-109782446D01*
X143222022Y-110412188D01*
X143214408Y-110426132D01*
X142484356Y-110426132D01*
X142485592Y-110423868D01*
X142485461Y-110422035D01*
X142481210Y-110415420D01*
X141837405Y-109771615D01*
X141803379Y-109709303D01*
X141800500Y-109682520D01*
X141800500Y-108962779D01*
X141820502Y-108894658D01*
X141874158Y-108848165D01*
X141944432Y-108838061D01*
X142009012Y-108867555D01*
X142046333Y-108923843D01*
X142068750Y-108992835D01*
X142072053Y-108998557D01*
X142072054Y-108998558D01*
X142094858Y-109038056D01*
X142158141Y-109147665D01*
X142162559Y-109152572D01*
X142162560Y-109152573D01*
X142221383Y-109217902D01*
X142252100Y-109281910D01*
X142243337Y-109352363D01*
X142217946Y-109383468D01*
X142220063Y-109385160D01*
X142200377Y-109409788D01*
X142207446Y-109423236D01*
X142837188Y-110052978D01*
X142851132Y-110060592D01*
X142852965Y-110060461D01*
X142859580Y-110056210D01*
X143493276Y-109422514D01*
X143499706Y-109410739D01*
X143478701Y-109383589D01*
X143481065Y-109381760D01*
X143455651Y-109349962D01*
X143448346Y-109279342D01*
X143450732Y-109274500D01*
X154844508Y-109274500D01*
X154846059Y-109284293D01*
X154862035Y-109385160D01*
X154864354Y-109399804D01*
X154921950Y-109512842D01*
X155011658Y-109602550D01*
X155124696Y-109660146D01*
X155134485Y-109661696D01*
X155134487Y-109661697D01*
X155240207Y-109678441D01*
X155250000Y-109679992D01*
X155259793Y-109678441D01*
X155365513Y-109661697D01*
X155365515Y-109661696D01*
X155375304Y-109660146D01*
X155488342Y-109602550D01*
X155578050Y-109512842D01*
X155635646Y-109399804D01*
X155637966Y-109385160D01*
X155653941Y-109284293D01*
X155655492Y-109274500D01*
X155635646Y-109149196D01*
X155578050Y-109036158D01*
X155488342Y-108946450D01*
X155375304Y-108888854D01*
X155365515Y-108887304D01*
X155365513Y-108887303D01*
X155259793Y-108870559D01*
X155250000Y-108869008D01*
X155240207Y-108870559D01*
X155134487Y-108887303D01*
X155134485Y-108887304D01*
X155124696Y-108888854D01*
X155011658Y-108946450D01*
X154921950Y-109036158D01*
X154864354Y-109149196D01*
X154844508Y-109274500D01*
X143450732Y-109274500D01*
X143478617Y-109217902D01*
X143537440Y-109152573D01*
X143537441Y-109152572D01*
X143541859Y-109147665D01*
X143605142Y-109038056D01*
X143627946Y-108998558D01*
X143627947Y-108998557D01*
X143631250Y-108992835D01*
X143679829Y-108843326D01*
X143684457Y-108829082D01*
X143684457Y-108829080D01*
X143686497Y-108822803D01*
X143697127Y-108721671D01*
X143704495Y-108651565D01*
X143705185Y-108645000D01*
X143697919Y-108575873D01*
X143689945Y-108500000D01*
X156919953Y-108500000D01*
X156938092Y-108672576D01*
X156940132Y-108678855D01*
X156940133Y-108678859D01*
X156964193Y-108752908D01*
X156991714Y-108837611D01*
X157078478Y-108987889D01*
X157194590Y-109116845D01*
X157334976Y-109218842D01*
X157341004Y-109221526D01*
X157341006Y-109221527D01*
X157481981Y-109284293D01*
X157493501Y-109289422D01*
X157578369Y-109307461D01*
X157656779Y-109324128D01*
X157656783Y-109324128D01*
X157663236Y-109325500D01*
X157836764Y-109325500D01*
X157843217Y-109324128D01*
X157843221Y-109324128D01*
X157921631Y-109307461D01*
X158006499Y-109289422D01*
X158018019Y-109284293D01*
X158158994Y-109221527D01*
X158158996Y-109221526D01*
X158165024Y-109218842D01*
X158305410Y-109116845D01*
X158421522Y-108987889D01*
X158508286Y-108837611D01*
X158535807Y-108752908D01*
X158559867Y-108678859D01*
X158559868Y-108678855D01*
X158561908Y-108672576D01*
X158580047Y-108500000D01*
X158561908Y-108327424D01*
X158552077Y-108297165D01*
X158510326Y-108168669D01*
X158508286Y-108162389D01*
X158421522Y-108012111D01*
X158305410Y-107883155D01*
X158165024Y-107781158D01*
X158158996Y-107778474D01*
X158158994Y-107778473D01*
X158012530Y-107713263D01*
X158012529Y-107713263D01*
X158006499Y-107710578D01*
X157921631Y-107692539D01*
X157843221Y-107675872D01*
X157843217Y-107675872D01*
X157836764Y-107674500D01*
X157663236Y-107674500D01*
X157656783Y-107675872D01*
X157656779Y-107675872D01*
X157578369Y-107692539D01*
X157493501Y-107710578D01*
X157487472Y-107713262D01*
X157487470Y-107713263D01*
X157341007Y-107778473D01*
X157341005Y-107778474D01*
X157334977Y-107781158D01*
X157329636Y-107785038D01*
X157329635Y-107785039D01*
X157265452Y-107831671D01*
X157194590Y-107883155D01*
X157078478Y-108012111D01*
X156991714Y-108162389D01*
X156989674Y-108168669D01*
X156947924Y-108297165D01*
X156938092Y-108327424D01*
X156919953Y-108500000D01*
X143689945Y-108500000D01*
X143687187Y-108473761D01*
X143687187Y-108473760D01*
X143686497Y-108467197D01*
X143631250Y-108297165D01*
X143541859Y-108142335D01*
X143500634Y-108096550D01*
X143426645Y-108014377D01*
X143426643Y-108014376D01*
X143422230Y-108009474D01*
X143325345Y-107939082D01*
X143282935Y-107908269D01*
X143282933Y-107908268D01*
X143277593Y-107904388D01*
X143271567Y-107901705D01*
X143271560Y-107901701D01*
X143200597Y-107870107D01*
X143146501Y-107824127D01*
X143125851Y-107756200D01*
X143145203Y-107687892D01*
X143200597Y-107639893D01*
X143271560Y-107608299D01*
X143271567Y-107608295D01*
X143277593Y-107605612D01*
X143316703Y-107577197D01*
X143416891Y-107504405D01*
X143422230Y-107500526D01*
X143422704Y-107500000D01*
X153844508Y-107500000D01*
X153846059Y-107509793D01*
X153861661Y-107608299D01*
X153864354Y-107625304D01*
X153921950Y-107738342D01*
X154011658Y-107828050D01*
X154124696Y-107885646D01*
X154134485Y-107887196D01*
X154134487Y-107887197D01*
X154240207Y-107903941D01*
X154250000Y-107905492D01*
X154259793Y-107903941D01*
X154365513Y-107887197D01*
X154365515Y-107887196D01*
X154375304Y-107885646D01*
X154488342Y-107828050D01*
X154578050Y-107738342D01*
X154635646Y-107625304D01*
X154638340Y-107608299D01*
X154653941Y-107509793D01*
X154655492Y-107500000D01*
X154635646Y-107374696D01*
X154578050Y-107261658D01*
X154488342Y-107171950D01*
X154375304Y-107114354D01*
X154376294Y-107112412D01*
X154328542Y-107079759D01*
X154300905Y-107014362D01*
X154313012Y-106944405D01*
X154361019Y-106892100D01*
X154375068Y-106885683D01*
X154375304Y-106885646D01*
X154488342Y-106828050D01*
X154578050Y-106738342D01*
X154635646Y-106625304D01*
X154642418Y-106582550D01*
X154653941Y-106509793D01*
X154655492Y-106500000D01*
X156919953Y-106500000D01*
X156938092Y-106672576D01*
X156940132Y-106678855D01*
X156940133Y-106678859D01*
X156944975Y-106693761D01*
X156991714Y-106837611D01*
X157078478Y-106987889D01*
X157082899Y-106992799D01*
X157150759Y-107068165D01*
X157194590Y-107116845D01*
X157270435Y-107171950D01*
X157318058Y-107206550D01*
X157334976Y-107218842D01*
X157341004Y-107221526D01*
X157341006Y-107221527D01*
X157431142Y-107261658D01*
X157493501Y-107289422D01*
X157578369Y-107307461D01*
X157656779Y-107324128D01*
X157656783Y-107324128D01*
X157663236Y-107325500D01*
X157836764Y-107325500D01*
X157843217Y-107324128D01*
X157843221Y-107324128D01*
X157921632Y-107307461D01*
X158006499Y-107289422D01*
X158068858Y-107261658D01*
X158158994Y-107221527D01*
X158158996Y-107221526D01*
X158165024Y-107218842D01*
X158181943Y-107206550D01*
X158229565Y-107171950D01*
X158305410Y-107116845D01*
X158349242Y-107068165D01*
X158417101Y-106992799D01*
X158421522Y-106987889D01*
X158508286Y-106837611D01*
X158555025Y-106693761D01*
X158559867Y-106678859D01*
X158559868Y-106678855D01*
X158561908Y-106672576D01*
X158580047Y-106500000D01*
X158561908Y-106327424D01*
X158550652Y-106292779D01*
X158530083Y-106229474D01*
X158508286Y-106162389D01*
X158421522Y-106012111D01*
X158360560Y-105944405D01*
X158309832Y-105888066D01*
X158309831Y-105888065D01*
X158305410Y-105883155D01*
X158187100Y-105797197D01*
X158170366Y-105785039D01*
X158170365Y-105785038D01*
X158165024Y-105781158D01*
X158158996Y-105778474D01*
X158158994Y-105778473D01*
X158012530Y-105713263D01*
X158012529Y-105713263D01*
X158006499Y-105710578D01*
X157921632Y-105692539D01*
X157843221Y-105675872D01*
X157843217Y-105675872D01*
X157836764Y-105674500D01*
X157663236Y-105674500D01*
X157656783Y-105675872D01*
X157656779Y-105675872D01*
X157578368Y-105692539D01*
X157493501Y-105710578D01*
X157487472Y-105713262D01*
X157487470Y-105713263D01*
X157341007Y-105778473D01*
X157341005Y-105778474D01*
X157334977Y-105781158D01*
X157329636Y-105785038D01*
X157329635Y-105785039D01*
X157270436Y-105828050D01*
X157194590Y-105883155D01*
X157190169Y-105888065D01*
X157190168Y-105888066D01*
X157139440Y-105944405D01*
X157078478Y-106012111D01*
X156991714Y-106162389D01*
X156969917Y-106229474D01*
X156949349Y-106292779D01*
X156938092Y-106327424D01*
X156919953Y-106500000D01*
X154655492Y-106500000D01*
X154635646Y-106374696D01*
X154578050Y-106261658D01*
X154488342Y-106171950D01*
X154375304Y-106114354D01*
X154376294Y-106112412D01*
X154328542Y-106079759D01*
X154300905Y-106014362D01*
X154313012Y-105944405D01*
X154361019Y-105892100D01*
X154375068Y-105885683D01*
X154375304Y-105885646D01*
X154488342Y-105828050D01*
X154578050Y-105738342D01*
X154635646Y-105625304D01*
X154641608Y-105587665D01*
X154653941Y-105509793D01*
X154655492Y-105500000D01*
X154653941Y-105490207D01*
X154637197Y-105384487D01*
X154637196Y-105384485D01*
X154635646Y-105374696D01*
X154578050Y-105261658D01*
X154488342Y-105171950D01*
X154375304Y-105114354D01*
X154365515Y-105112804D01*
X154365513Y-105112803D01*
X154259793Y-105096059D01*
X154250000Y-105094508D01*
X154240207Y-105096059D01*
X154134487Y-105112803D01*
X154134485Y-105112804D01*
X154124696Y-105114354D01*
X154011658Y-105171950D01*
X153921950Y-105261658D01*
X153864354Y-105374696D01*
X153862804Y-105384485D01*
X153862803Y-105384487D01*
X153846059Y-105490207D01*
X153844508Y-105500000D01*
X153846059Y-105509793D01*
X153858393Y-105587665D01*
X153864354Y-105625304D01*
X153921950Y-105738342D01*
X154011658Y-105828050D01*
X154119807Y-105883155D01*
X154124696Y-105885646D01*
X154123706Y-105887588D01*
X154171458Y-105920241D01*
X154199095Y-105985638D01*
X154186988Y-106055595D01*
X154138981Y-106107900D01*
X154124932Y-106114317D01*
X154124696Y-106114354D01*
X154011658Y-106171950D01*
X153921950Y-106261658D01*
X153864354Y-106374696D01*
X153844508Y-106500000D01*
X153846059Y-106509793D01*
X153857583Y-106582550D01*
X153864354Y-106625304D01*
X153921950Y-106738342D01*
X154011658Y-106828050D01*
X154097061Y-106871565D01*
X154124696Y-106885646D01*
X154123706Y-106887588D01*
X154171458Y-106920241D01*
X154199095Y-106985638D01*
X154186988Y-107055595D01*
X154138981Y-107107900D01*
X154124932Y-107114317D01*
X154124696Y-107114354D01*
X154011658Y-107171950D01*
X153921950Y-107261658D01*
X153864354Y-107374696D01*
X153844508Y-107500000D01*
X143422704Y-107500000D01*
X143431522Y-107490207D01*
X143537440Y-107372573D01*
X143537441Y-107372572D01*
X143541859Y-107367665D01*
X143631250Y-107212835D01*
X143678256Y-107068165D01*
X143684457Y-107049082D01*
X143684457Y-107049080D01*
X143686497Y-107042803D01*
X143697127Y-106941671D01*
X143704495Y-106871565D01*
X143705185Y-106865000D01*
X143701033Y-106825500D01*
X143687187Y-106693761D01*
X143687187Y-106693760D01*
X143686497Y-106687197D01*
X143676196Y-106655492D01*
X143633292Y-106523450D01*
X143631250Y-106517165D01*
X143617550Y-106493435D01*
X143545162Y-106368056D01*
X143541859Y-106362335D01*
X143500634Y-106316550D01*
X143426645Y-106234377D01*
X143426643Y-106234376D01*
X143422230Y-106229474D01*
X143336862Y-106167450D01*
X143282935Y-106128269D01*
X143282933Y-106128268D01*
X143277593Y-106124388D01*
X143271567Y-106121705D01*
X143271560Y-106121701D01*
X143200597Y-106090107D01*
X143146501Y-106044127D01*
X143125851Y-105976200D01*
X143145203Y-105907892D01*
X143200597Y-105859893D01*
X143271560Y-105828299D01*
X143271567Y-105828295D01*
X143277593Y-105825612D01*
X143316703Y-105797197D01*
X143416891Y-105724405D01*
X143422230Y-105720526D01*
X143431188Y-105710578D01*
X143537440Y-105592573D01*
X143537441Y-105592572D01*
X143541859Y-105587665D01*
X143631250Y-105432835D01*
X143678720Y-105286737D01*
X143684457Y-105269082D01*
X143684457Y-105269080D01*
X143686497Y-105262803D01*
X143691526Y-105214961D01*
X143704495Y-105091565D01*
X143705185Y-105085000D01*
X143697919Y-105015873D01*
X143687187Y-104913761D01*
X143687187Y-104913760D01*
X143686497Y-104907197D01*
X143631250Y-104737165D01*
X143541859Y-104582335D01*
X143500634Y-104536550D01*
X143467724Y-104500000D01*
X146844508Y-104500000D01*
X146846059Y-104509793D01*
X146858455Y-104588056D01*
X146864354Y-104625304D01*
X146921950Y-104738342D01*
X147011658Y-104828050D01*
X147124696Y-104885646D01*
X147134485Y-104887196D01*
X147134487Y-104887197D01*
X147240207Y-104903941D01*
X147250000Y-104905492D01*
X147259793Y-104903941D01*
X147365513Y-104887197D01*
X147365515Y-104887196D01*
X147375304Y-104885646D01*
X147488342Y-104828050D01*
X147578050Y-104738342D01*
X147635646Y-104625304D01*
X147641546Y-104588056D01*
X147653941Y-104509793D01*
X147655492Y-104500000D01*
X150094508Y-104500000D01*
X150096059Y-104509793D01*
X150108455Y-104588056D01*
X150114354Y-104625304D01*
X150171950Y-104738342D01*
X150261658Y-104828050D01*
X150374696Y-104885646D01*
X150384485Y-104887196D01*
X150384487Y-104887197D01*
X150490207Y-104903941D01*
X150500000Y-104905492D01*
X150509793Y-104903941D01*
X150615513Y-104887197D01*
X150615515Y-104887196D01*
X150625304Y-104885646D01*
X150738342Y-104828050D01*
X150828050Y-104738342D01*
X150885646Y-104625304D01*
X150891546Y-104588056D01*
X150903941Y-104509793D01*
X150905492Y-104500000D01*
X156919953Y-104500000D01*
X156938092Y-104672576D01*
X156940132Y-104678855D01*
X156940133Y-104678859D01*
X156947838Y-104702573D01*
X156991714Y-104837611D01*
X157078478Y-104987889D01*
X157194590Y-105116845D01*
X157270435Y-105171950D01*
X157309190Y-105200107D01*
X157334976Y-105218842D01*
X157341004Y-105221526D01*
X157341006Y-105221527D01*
X157487470Y-105286737D01*
X157493501Y-105289422D01*
X157578368Y-105307461D01*
X157656779Y-105324128D01*
X157656783Y-105324128D01*
X157663236Y-105325500D01*
X157836764Y-105325500D01*
X157843217Y-105324128D01*
X157843221Y-105324128D01*
X157921632Y-105307461D01*
X158006499Y-105289422D01*
X158012530Y-105286737D01*
X158158994Y-105221527D01*
X158158996Y-105221526D01*
X158165024Y-105218842D01*
X158190811Y-105200107D01*
X158229565Y-105171950D01*
X158305410Y-105116845D01*
X158421522Y-104987889D01*
X158508286Y-104837611D01*
X158552162Y-104702573D01*
X158559867Y-104678859D01*
X158559868Y-104678855D01*
X158561908Y-104672576D01*
X158580047Y-104500000D01*
X158561908Y-104327424D01*
X158559834Y-104321039D01*
X158521015Y-104201565D01*
X158508286Y-104162389D01*
X158421522Y-104012111D01*
X158305410Y-103883155D01*
X158165024Y-103781158D01*
X158158996Y-103778474D01*
X158158994Y-103778473D01*
X158012530Y-103713263D01*
X158012529Y-103713263D01*
X158006499Y-103710578D01*
X157920672Y-103692335D01*
X157843221Y-103675872D01*
X157843217Y-103675872D01*
X157836764Y-103674500D01*
X157663236Y-103674500D01*
X157656783Y-103675872D01*
X157656779Y-103675872D01*
X157579328Y-103692335D01*
X157493501Y-103710578D01*
X157487472Y-103713262D01*
X157487470Y-103713263D01*
X157341007Y-103778473D01*
X157341005Y-103778474D01*
X157334977Y-103781158D01*
X157329636Y-103785038D01*
X157329635Y-103785039D01*
X157206233Y-103874696D01*
X157194590Y-103883155D01*
X157078478Y-104012111D01*
X156991714Y-104162389D01*
X156978985Y-104201565D01*
X156940167Y-104321039D01*
X156938092Y-104327424D01*
X156919953Y-104500000D01*
X150905492Y-104500000D01*
X150890278Y-104403941D01*
X150887197Y-104384487D01*
X150887196Y-104384485D01*
X150885646Y-104374696D01*
X150828050Y-104261658D01*
X150738342Y-104171950D01*
X150625304Y-104114354D01*
X150615515Y-104112804D01*
X150615513Y-104112803D01*
X150509793Y-104096059D01*
X150500000Y-104094508D01*
X150490207Y-104096059D01*
X150384487Y-104112803D01*
X150384485Y-104112804D01*
X150374696Y-104114354D01*
X150261658Y-104171950D01*
X150171950Y-104261658D01*
X150114354Y-104374696D01*
X150112804Y-104384485D01*
X150112803Y-104384487D01*
X150109722Y-104403941D01*
X150094508Y-104500000D01*
X147655492Y-104500000D01*
X147640278Y-104403941D01*
X147637197Y-104384487D01*
X147637196Y-104384485D01*
X147635646Y-104374696D01*
X147578050Y-104261658D01*
X147488342Y-104171950D01*
X147375304Y-104114354D01*
X147365515Y-104112804D01*
X147365513Y-104112803D01*
X147259793Y-104096059D01*
X147250000Y-104094508D01*
X147240207Y-104096059D01*
X147134487Y-104112803D01*
X147134485Y-104112804D01*
X147124696Y-104114354D01*
X147011658Y-104171950D01*
X146921950Y-104261658D01*
X146864354Y-104374696D01*
X146862804Y-104384485D01*
X146862803Y-104384487D01*
X146859722Y-104403941D01*
X146844508Y-104500000D01*
X143467724Y-104500000D01*
X143426645Y-104454377D01*
X143426643Y-104454376D01*
X143422230Y-104449474D01*
X143319308Y-104374696D01*
X143282935Y-104348269D01*
X143282933Y-104348268D01*
X143277593Y-104344388D01*
X143271567Y-104341705D01*
X143271560Y-104341701D01*
X143200597Y-104310107D01*
X143146501Y-104264127D01*
X143125851Y-104196200D01*
X143145203Y-104127892D01*
X143200597Y-104079893D01*
X143271560Y-104048299D01*
X143271567Y-104048295D01*
X143277593Y-104045612D01*
X143316703Y-104017197D01*
X143340372Y-104000000D01*
X145344508Y-104000000D01*
X145346059Y-104009793D01*
X145362620Y-104114354D01*
X145364354Y-104125304D01*
X145421950Y-104238342D01*
X145511658Y-104328050D01*
X145624696Y-104385646D01*
X145634485Y-104387196D01*
X145634487Y-104387197D01*
X145740207Y-104403941D01*
X145750000Y-104405492D01*
X145759793Y-104403941D01*
X145865513Y-104387197D01*
X145865515Y-104387196D01*
X145875304Y-104385646D01*
X145988342Y-104328050D01*
X146078050Y-104238342D01*
X146135646Y-104125304D01*
X146137381Y-104114354D01*
X146153941Y-104009793D01*
X146155492Y-104000000D01*
X146135646Y-103874696D01*
X146078050Y-103761658D01*
X145988342Y-103671950D01*
X145875304Y-103614354D01*
X145876294Y-103612412D01*
X145828542Y-103579759D01*
X145800905Y-103514362D01*
X145813012Y-103444405D01*
X145861019Y-103392100D01*
X145875068Y-103385683D01*
X145875304Y-103385646D01*
X145988342Y-103328050D01*
X146078050Y-103238342D01*
X146135646Y-103125304D01*
X146139608Y-103100293D01*
X146153941Y-103009793D01*
X146155492Y-103000000D01*
X146142452Y-102917665D01*
X146137197Y-102884487D01*
X146137196Y-102884485D01*
X146135646Y-102874696D01*
X146078050Y-102761658D01*
X145988342Y-102671950D01*
X145875304Y-102614354D01*
X145865515Y-102612804D01*
X145865513Y-102612803D01*
X145759793Y-102596059D01*
X145750000Y-102594508D01*
X145740207Y-102596059D01*
X145634487Y-102612803D01*
X145634485Y-102612804D01*
X145624696Y-102614354D01*
X145511658Y-102671950D01*
X145421950Y-102761658D01*
X145364354Y-102874696D01*
X145362804Y-102884485D01*
X145362803Y-102884487D01*
X145357548Y-102917665D01*
X145344508Y-103000000D01*
X145346059Y-103009793D01*
X145360393Y-103100293D01*
X145364354Y-103125304D01*
X145421950Y-103238342D01*
X145511658Y-103328050D01*
X145602089Y-103374127D01*
X145624696Y-103385646D01*
X145623706Y-103387588D01*
X145671458Y-103420241D01*
X145699095Y-103485638D01*
X145686988Y-103555595D01*
X145638981Y-103607900D01*
X145624932Y-103614317D01*
X145624696Y-103614354D01*
X145511658Y-103671950D01*
X145421950Y-103761658D01*
X145364354Y-103874696D01*
X145344508Y-104000000D01*
X143340372Y-104000000D01*
X143416891Y-103944405D01*
X143422230Y-103940526D01*
X143469466Y-103888066D01*
X143537440Y-103812573D01*
X143537441Y-103812572D01*
X143541859Y-103807665D01*
X143631250Y-103652835D01*
X143678256Y-103508165D01*
X143684457Y-103489082D01*
X143684457Y-103489080D01*
X143686497Y-103482803D01*
X143697127Y-103381671D01*
X143704495Y-103311565D01*
X143705185Y-103305000D01*
X143697251Y-103229509D01*
X143687187Y-103133761D01*
X143687187Y-103133760D01*
X143686497Y-103127197D01*
X143683134Y-103116845D01*
X143633292Y-102963450D01*
X143631250Y-102957165D01*
X143541859Y-102802335D01*
X143513187Y-102770491D01*
X143478617Y-102732098D01*
X143447900Y-102668090D01*
X143456663Y-102597637D01*
X143482054Y-102566532D01*
X143479937Y-102564840D01*
X143499623Y-102540212D01*
X143492554Y-102526764D01*
X142862812Y-101897022D01*
X142848868Y-101889408D01*
X142847035Y-101889539D01*
X142840420Y-101893790D01*
X142206724Y-102527486D01*
X142200294Y-102539261D01*
X142221299Y-102566411D01*
X142218935Y-102568240D01*
X142244349Y-102600038D01*
X142251654Y-102670658D01*
X142221383Y-102732098D01*
X142186814Y-102770491D01*
X142158141Y-102802335D01*
X142068750Y-102957165D01*
X142066708Y-102963450D01*
X142046333Y-103026157D01*
X142006259Y-103084763D01*
X141940863Y-103112400D01*
X141870906Y-103100293D01*
X141818600Y-103052287D01*
X141800500Y-102987221D01*
X141800500Y-102267480D01*
X141820502Y-102199359D01*
X141837405Y-102178385D01*
X142477978Y-101537812D01*
X142484356Y-101526132D01*
X143214408Y-101526132D01*
X143214539Y-101527965D01*
X143218790Y-101534580D01*
X143852486Y-102168276D01*
X143864261Y-102174706D01*
X143876276Y-102165410D01*
X143897001Y-102135811D01*
X143902479Y-102126323D01*
X143987159Y-101944723D01*
X143990907Y-101934429D01*
X144042769Y-101740878D01*
X144044671Y-101730091D01*
X144062135Y-101530475D01*
X144062135Y-101519525D01*
X144044671Y-101319909D01*
X144042769Y-101309122D01*
X144018800Y-101219669D01*
X156567001Y-101219669D01*
X156567371Y-101226490D01*
X156572895Y-101277352D01*
X156576521Y-101292604D01*
X156621676Y-101413054D01*
X156630214Y-101428649D01*
X156706715Y-101530724D01*
X156719276Y-101543285D01*
X156821351Y-101619786D01*
X156836946Y-101628324D01*
X156957394Y-101673478D01*
X156972649Y-101677105D01*
X157023514Y-101682631D01*
X157030328Y-101683000D01*
X157091810Y-101683000D01*
X157159931Y-101703002D01*
X157206424Y-101756658D01*
X157216528Y-101826932D01*
X157185448Y-101893309D01*
X157078478Y-102012111D01*
X156991714Y-102162389D01*
X156969448Y-102230918D01*
X156957569Y-102267480D01*
X156938092Y-102327424D01*
X156919953Y-102500000D01*
X156938092Y-102672576D01*
X156940132Y-102678855D01*
X156940133Y-102678859D01*
X156945002Y-102693843D01*
X156991714Y-102837611D01*
X157078478Y-102987889D01*
X157082899Y-102992799D01*
X157179687Y-103100293D01*
X157194590Y-103116845D01*
X157334976Y-103218842D01*
X157341004Y-103221526D01*
X157341006Y-103221527D01*
X157439771Y-103265500D01*
X157493501Y-103289422D01*
X157572436Y-103306200D01*
X157656779Y-103324128D01*
X157656783Y-103324128D01*
X157663236Y-103325500D01*
X157836764Y-103325500D01*
X157843217Y-103324128D01*
X157843221Y-103324128D01*
X157927564Y-103306200D01*
X158006499Y-103289422D01*
X158060229Y-103265500D01*
X158158994Y-103221527D01*
X158158996Y-103221526D01*
X158165024Y-103218842D01*
X158305410Y-103116845D01*
X158320314Y-103100293D01*
X158417101Y-102992799D01*
X158421522Y-102987889D01*
X158508286Y-102837611D01*
X158554998Y-102693843D01*
X158559867Y-102678859D01*
X158559868Y-102678855D01*
X158561908Y-102672576D01*
X158580047Y-102500000D01*
X158561908Y-102327424D01*
X158542432Y-102267480D01*
X158530552Y-102230918D01*
X158508286Y-102162389D01*
X158421522Y-102012111D01*
X158314551Y-101893307D01*
X158283835Y-101829301D01*
X158292600Y-101758848D01*
X158338063Y-101704317D01*
X158408189Y-101682999D01*
X158469669Y-101682999D01*
X158476490Y-101682629D01*
X158527352Y-101677105D01*
X158542604Y-101673479D01*
X158663054Y-101628324D01*
X158678649Y-101619786D01*
X158780724Y-101543285D01*
X158793285Y-101530724D01*
X158869786Y-101428649D01*
X158878324Y-101413054D01*
X158923478Y-101292606D01*
X158927105Y-101277351D01*
X158932631Y-101226486D01*
X158933000Y-101219672D01*
X158933000Y-100772115D01*
X158928525Y-100756876D01*
X158927135Y-100755671D01*
X158919452Y-100754000D01*
X156585116Y-100754000D01*
X156569877Y-100758475D01*
X156568672Y-100759865D01*
X156567001Y-100767548D01*
X156567001Y-101219669D01*
X144018800Y-101219669D01*
X143990907Y-101115571D01*
X143987159Y-101105277D01*
X143902479Y-100923677D01*
X143897001Y-100914189D01*
X143875689Y-100883752D01*
X143865212Y-100875377D01*
X143851764Y-100882446D01*
X143222022Y-101512188D01*
X143214408Y-101526132D01*
X142484356Y-101526132D01*
X142485592Y-101523868D01*
X142485461Y-101522035D01*
X142481210Y-101515420D01*
X141837405Y-100871615D01*
X141803379Y-100809303D01*
X141800500Y-100782520D01*
X141800500Y-100509788D01*
X142200377Y-100509788D01*
X142207446Y-100523236D01*
X142837188Y-101152978D01*
X142851132Y-101160592D01*
X142852965Y-101160461D01*
X142859580Y-101156210D01*
X143493276Y-100522514D01*
X143499706Y-100510739D01*
X143490410Y-100498724D01*
X143460811Y-100477999D01*
X143451323Y-100472521D01*
X143269723Y-100387841D01*
X143259429Y-100384093D01*
X143065878Y-100332231D01*
X143055091Y-100330329D01*
X142855475Y-100312865D01*
X142844525Y-100312865D01*
X142644909Y-100330329D01*
X142634122Y-100332231D01*
X142440571Y-100384093D01*
X142430277Y-100387841D01*
X142248677Y-100472521D01*
X142239189Y-100477999D01*
X142208752Y-100499311D01*
X142200377Y-100509788D01*
X141800500Y-100509788D01*
X141800500Y-100227885D01*
X156567000Y-100227885D01*
X156571475Y-100243124D01*
X156572865Y-100244329D01*
X156580548Y-100246000D01*
X157477885Y-100246000D01*
X157493124Y-100241525D01*
X157494329Y-100240135D01*
X157496000Y-100232452D01*
X157496000Y-100227885D01*
X158004000Y-100227885D01*
X158008475Y-100243124D01*
X158009865Y-100244329D01*
X158017548Y-100246000D01*
X158914884Y-100246000D01*
X158930123Y-100241525D01*
X158931328Y-100240135D01*
X158932999Y-100232452D01*
X158932999Y-99780331D01*
X158932629Y-99773510D01*
X158927105Y-99722648D01*
X158923479Y-99707396D01*
X158878324Y-99586946D01*
X158869786Y-99571351D01*
X158793285Y-99469276D01*
X158780724Y-99456715D01*
X158678649Y-99380214D01*
X158663054Y-99371676D01*
X158542606Y-99326522D01*
X158527351Y-99322895D01*
X158476486Y-99317369D01*
X158469672Y-99317000D01*
X158022115Y-99317000D01*
X158006876Y-99321475D01*
X158005671Y-99322865D01*
X158004000Y-99330548D01*
X158004000Y-100227885D01*
X157496000Y-100227885D01*
X157496000Y-99335116D01*
X157491525Y-99319877D01*
X157490135Y-99318672D01*
X157482452Y-99317001D01*
X157030331Y-99317001D01*
X157023510Y-99317371D01*
X156972648Y-99322895D01*
X156957396Y-99326521D01*
X156836946Y-99371676D01*
X156821351Y-99380214D01*
X156719276Y-99456715D01*
X156706715Y-99469276D01*
X156630214Y-99571351D01*
X156621676Y-99586946D01*
X156576522Y-99707394D01*
X156572895Y-99722649D01*
X156567369Y-99773514D01*
X156567000Y-99780328D01*
X156567000Y-100227885D01*
X141800500Y-100227885D01*
X141800500Y-99505099D01*
X141800541Y-99505000D01*
X141800383Y-99504617D01*
X141800099Y-99504500D01*
X141800000Y-99504459D01*
X141799901Y-99504500D01*
X133200099Y-99504500D01*
X133200000Y-99504459D01*
X133199901Y-99504500D01*
X133199617Y-99504617D01*
X133199459Y-99505000D01*
X133199500Y-99505099D01*
X133199500Y-100317221D01*
X133179498Y-100385342D01*
X133125842Y-100431835D01*
X133055568Y-100441939D01*
X132990988Y-100412445D01*
X132953667Y-100356157D01*
X132933292Y-100293450D01*
X132931250Y-100287165D01*
X132907484Y-100246000D01*
X132845162Y-100138056D01*
X132841859Y-100132335D01*
X132835528Y-100125304D01*
X132726645Y-100004377D01*
X132726643Y-100004376D01*
X132722230Y-99999474D01*
X132577593Y-99894388D01*
X132571565Y-99891704D01*
X132571563Y-99891703D01*
X132420298Y-99824356D01*
X132420297Y-99824356D01*
X132414267Y-99821671D01*
X132326829Y-99803085D01*
X132245848Y-99785872D01*
X132245844Y-99785872D01*
X132239391Y-99784500D01*
X132060609Y-99784500D01*
X132054156Y-99785872D01*
X132054152Y-99785872D01*
X131973171Y-99803085D01*
X131885733Y-99821671D01*
X131879703Y-99824356D01*
X131879702Y-99824356D01*
X131728438Y-99891703D01*
X131728436Y-99891704D01*
X131722408Y-99894388D01*
X131717067Y-99898268D01*
X131717066Y-99898269D01*
X131611513Y-99974958D01*
X131544645Y-99998817D01*
X131475494Y-99982736D01*
X131426013Y-99931822D01*
X131413004Y-99892734D01*
X131411699Y-99884493D01*
X131411696Y-99884485D01*
X131410146Y-99874696D01*
X131352550Y-99761658D01*
X131262842Y-99671950D01*
X131149804Y-99614354D01*
X131140015Y-99612804D01*
X131140013Y-99612803D01*
X131034293Y-99596059D01*
X131024500Y-99594508D01*
X131014707Y-99596059D01*
X130908987Y-99612803D01*
X130908985Y-99612804D01*
X130899196Y-99614354D01*
X130786158Y-99671950D01*
X130696450Y-99761658D01*
X130638854Y-99874696D01*
X130619008Y-100000000D01*
X128405492Y-100000000D01*
X128385646Y-99874696D01*
X128328050Y-99761658D01*
X128238342Y-99671950D01*
X128125304Y-99614354D01*
X128115515Y-99612804D01*
X128115513Y-99612803D01*
X128009793Y-99596059D01*
X128000000Y-99594508D01*
X127990207Y-99596059D01*
X127884487Y-99612803D01*
X127884485Y-99612804D01*
X127874696Y-99614354D01*
X127761658Y-99671950D01*
X127671950Y-99761658D01*
X127614354Y-99874696D01*
X127594508Y-100000000D01*
X115000500Y-100000000D01*
X115000500Y-98250000D01*
X128844508Y-98250000D01*
X128846059Y-98259793D01*
X128861467Y-98357073D01*
X128864354Y-98375304D01*
X128921950Y-98488342D01*
X129011658Y-98578050D01*
X129124696Y-98635646D01*
X129134485Y-98637196D01*
X129134487Y-98637197D01*
X129240207Y-98653941D01*
X129250000Y-98655492D01*
X129259793Y-98653941D01*
X129365513Y-98637197D01*
X129365515Y-98637196D01*
X129375304Y-98635646D01*
X129488342Y-98578050D01*
X129566392Y-98500000D01*
X134094508Y-98500000D01*
X134096059Y-98509793D01*
X134107583Y-98582550D01*
X134114354Y-98625304D01*
X134171950Y-98738342D01*
X134261658Y-98828050D01*
X134374696Y-98885646D01*
X134384485Y-98887196D01*
X134384487Y-98887197D01*
X134490207Y-98903941D01*
X134500000Y-98905492D01*
X134509793Y-98903941D01*
X134615513Y-98887197D01*
X134615515Y-98887196D01*
X134625304Y-98885646D01*
X134738342Y-98828050D01*
X134828050Y-98738342D01*
X134885646Y-98625304D01*
X134892418Y-98582550D01*
X134903941Y-98509793D01*
X134905492Y-98500000D01*
X136094508Y-98500000D01*
X136096059Y-98509793D01*
X136107583Y-98582550D01*
X136114354Y-98625304D01*
X136171950Y-98738342D01*
X136261658Y-98828050D01*
X136374696Y-98885646D01*
X136384485Y-98887196D01*
X136384487Y-98887197D01*
X136490207Y-98903941D01*
X136500000Y-98905492D01*
X136509793Y-98903941D01*
X136615513Y-98887197D01*
X136615515Y-98887196D01*
X136625304Y-98885646D01*
X136738342Y-98828050D01*
X136828050Y-98738342D01*
X136885646Y-98625304D01*
X136892418Y-98582550D01*
X136903941Y-98509793D01*
X136905492Y-98500000D01*
X138094508Y-98500000D01*
X138096059Y-98509793D01*
X138107583Y-98582550D01*
X138114354Y-98625304D01*
X138171950Y-98738342D01*
X138261658Y-98828050D01*
X138374696Y-98885646D01*
X138384485Y-98887196D01*
X138384487Y-98887197D01*
X138490207Y-98903941D01*
X138500000Y-98905492D01*
X138509793Y-98903941D01*
X138615513Y-98887197D01*
X138615515Y-98887196D01*
X138625304Y-98885646D01*
X138738342Y-98828050D01*
X138828050Y-98738342D01*
X138885646Y-98625304D01*
X138892418Y-98582550D01*
X138903941Y-98509793D01*
X138905492Y-98500000D01*
X138885646Y-98374696D01*
X138828050Y-98261658D01*
X138738342Y-98171950D01*
X138625304Y-98114354D01*
X138615515Y-98112804D01*
X138615513Y-98112803D01*
X138509793Y-98096059D01*
X138500000Y-98094508D01*
X138490207Y-98096059D01*
X138384487Y-98112803D01*
X138384485Y-98112804D01*
X138374696Y-98114354D01*
X138261658Y-98171950D01*
X138171950Y-98261658D01*
X138114354Y-98374696D01*
X138094508Y-98500000D01*
X136905492Y-98500000D01*
X136885646Y-98374696D01*
X136828050Y-98261658D01*
X136738342Y-98171950D01*
X136625304Y-98114354D01*
X136615515Y-98112804D01*
X136615513Y-98112803D01*
X136509793Y-98096059D01*
X136500000Y-98094508D01*
X136490207Y-98096059D01*
X136384487Y-98112803D01*
X136384485Y-98112804D01*
X136374696Y-98114354D01*
X136261658Y-98171950D01*
X136171950Y-98261658D01*
X136114354Y-98374696D01*
X136094508Y-98500000D01*
X134905492Y-98500000D01*
X134885646Y-98374696D01*
X134828050Y-98261658D01*
X134738342Y-98171950D01*
X134625304Y-98114354D01*
X134615515Y-98112804D01*
X134615513Y-98112803D01*
X134509793Y-98096059D01*
X134500000Y-98094508D01*
X134490207Y-98096059D01*
X134384487Y-98112803D01*
X134384485Y-98112804D01*
X134374696Y-98114354D01*
X134261658Y-98171950D01*
X134171950Y-98261658D01*
X134114354Y-98374696D01*
X134094508Y-98500000D01*
X129566392Y-98500000D01*
X129578050Y-98488342D01*
X129635646Y-98375304D01*
X129638534Y-98357073D01*
X129653941Y-98259793D01*
X129655492Y-98250000D01*
X129651289Y-98223465D01*
X129637197Y-98134487D01*
X129637196Y-98134485D01*
X129635646Y-98124696D01*
X129578050Y-98011658D01*
X129566392Y-98000000D01*
X139143830Y-98000000D01*
X139162437Y-98117482D01*
X139216438Y-98223465D01*
X139300546Y-98307573D01*
X139406529Y-98361574D01*
X139524011Y-98380181D01*
X139641493Y-98361574D01*
X139747476Y-98307573D01*
X139831584Y-98223465D01*
X139885585Y-98117482D01*
X139904192Y-98000000D01*
X139885585Y-97882518D01*
X139875341Y-97862412D01*
X139836084Y-97785367D01*
X139831584Y-97776535D01*
X139747476Y-97692427D01*
X139641493Y-97638426D01*
X139524011Y-97619819D01*
X139406529Y-97638426D01*
X139300546Y-97692427D01*
X139216438Y-97776535D01*
X139211938Y-97785367D01*
X139172682Y-97862412D01*
X139162437Y-97882518D01*
X139143830Y-98000000D01*
X129566392Y-98000000D01*
X129488342Y-97921950D01*
X129375304Y-97864354D01*
X129376294Y-97862412D01*
X129328542Y-97829759D01*
X129300905Y-97764362D01*
X129313012Y-97694405D01*
X129361019Y-97642100D01*
X129375068Y-97635683D01*
X129375304Y-97635646D01*
X129488342Y-97578050D01*
X129578050Y-97488342D01*
X129635646Y-97375304D01*
X129655492Y-97250000D01*
X129635646Y-97124696D01*
X129578050Y-97011658D01*
X129488342Y-96921950D01*
X129375304Y-96864354D01*
X129365515Y-96862804D01*
X129365513Y-96862803D01*
X129259793Y-96846059D01*
X129250000Y-96844508D01*
X129240207Y-96846059D01*
X129134487Y-96862803D01*
X129134485Y-96862804D01*
X129124696Y-96864354D01*
X129011658Y-96921950D01*
X128921950Y-97011658D01*
X128864354Y-97124696D01*
X128844508Y-97250000D01*
X128864354Y-97375304D01*
X128921950Y-97488342D01*
X129011658Y-97578050D01*
X129093634Y-97619819D01*
X129124696Y-97635646D01*
X129123706Y-97637588D01*
X129171458Y-97670241D01*
X129199095Y-97735638D01*
X129186988Y-97805595D01*
X129138981Y-97857900D01*
X129124932Y-97864317D01*
X129124696Y-97864354D01*
X129011658Y-97921950D01*
X128921950Y-98011658D01*
X128864354Y-98124696D01*
X128862804Y-98134485D01*
X128862803Y-98134487D01*
X128848711Y-98223465D01*
X128844508Y-98250000D01*
X115000500Y-98250000D01*
X115000500Y-96651949D01*
X136619008Y-96651949D01*
X136638854Y-96777253D01*
X136696450Y-96890291D01*
X136786158Y-96979999D01*
X136899196Y-97037595D01*
X136908985Y-97039145D01*
X136908987Y-97039146D01*
X137014707Y-97055890D01*
X137024500Y-97057441D01*
X137034293Y-97055890D01*
X137140013Y-97039146D01*
X137140015Y-97039145D01*
X137149804Y-97037595D01*
X137262842Y-96979999D01*
X137352550Y-96890291D01*
X137410146Y-96777253D01*
X137429992Y-96651949D01*
X137410146Y-96526645D01*
X137352550Y-96413607D01*
X137262842Y-96323899D01*
X137149804Y-96266303D01*
X137140015Y-96264753D01*
X137140013Y-96264752D01*
X137034293Y-96248008D01*
X137024500Y-96246457D01*
X137014707Y-96248008D01*
X136908987Y-96264752D01*
X136908985Y-96264753D01*
X136899196Y-96266303D01*
X136786158Y-96323899D01*
X136696450Y-96413607D01*
X136638854Y-96526645D01*
X136619008Y-96651949D01*
X115000500Y-96651949D01*
X115000500Y-95500000D01*
X135538519Y-95500000D01*
X135558365Y-95625304D01*
X135615961Y-95738342D01*
X135705669Y-95828050D01*
X135818707Y-95885646D01*
X135828496Y-95887196D01*
X135828498Y-95887197D01*
X135934218Y-95903941D01*
X135944011Y-95905492D01*
X135953804Y-95903941D01*
X136059524Y-95887197D01*
X136059526Y-95887196D01*
X136069315Y-95885646D01*
X136182353Y-95828050D01*
X136272061Y-95738342D01*
X136329657Y-95625304D01*
X136349503Y-95500000D01*
X137344508Y-95500000D01*
X137364354Y-95625304D01*
X137421950Y-95738342D01*
X137511658Y-95828050D01*
X137624696Y-95885646D01*
X137634485Y-95887196D01*
X137634487Y-95887197D01*
X137740207Y-95903941D01*
X137750000Y-95905492D01*
X137759793Y-95903941D01*
X137865513Y-95887197D01*
X137865515Y-95887196D01*
X137875304Y-95885646D01*
X137988342Y-95828050D01*
X138066392Y-95750000D01*
X145844508Y-95750000D01*
X145846059Y-95759793D01*
X145857583Y-95832550D01*
X145864354Y-95875304D01*
X145921950Y-95988342D01*
X146011658Y-96078050D01*
X146124696Y-96135646D01*
X146134485Y-96137196D01*
X146134487Y-96137197D01*
X146240207Y-96153941D01*
X146250000Y-96155492D01*
X146259793Y-96153941D01*
X146365513Y-96137197D01*
X146365515Y-96137196D01*
X146375304Y-96135646D01*
X146488342Y-96078050D01*
X146578050Y-95988342D01*
X146635646Y-95875304D01*
X146642418Y-95832550D01*
X146653941Y-95759793D01*
X146655492Y-95750000D01*
X146635646Y-95624696D01*
X146578050Y-95511658D01*
X146488342Y-95421950D01*
X146375304Y-95364354D01*
X146376294Y-95362412D01*
X146328542Y-95329759D01*
X146300905Y-95264362D01*
X146313012Y-95194405D01*
X146361019Y-95142100D01*
X146375068Y-95135683D01*
X146375304Y-95135646D01*
X146488342Y-95078050D01*
X146578050Y-94988342D01*
X146635646Y-94875304D01*
X146637199Y-94865502D01*
X146653941Y-94759793D01*
X146655492Y-94750000D01*
X146635646Y-94624696D01*
X146578050Y-94511658D01*
X146488342Y-94421950D01*
X146375304Y-94364354D01*
X146365515Y-94362804D01*
X146365513Y-94362803D01*
X146259793Y-94346059D01*
X146250000Y-94344508D01*
X146240207Y-94346059D01*
X146134487Y-94362803D01*
X146134485Y-94362804D01*
X146124696Y-94364354D01*
X146011658Y-94421950D01*
X145921950Y-94511658D01*
X145864354Y-94624696D01*
X145844508Y-94750000D01*
X145846059Y-94759793D01*
X145862802Y-94865502D01*
X145864354Y-94875304D01*
X145921950Y-94988342D01*
X146011658Y-95078050D01*
X146115841Y-95131134D01*
X146124696Y-95135646D01*
X146123706Y-95137588D01*
X146171458Y-95170241D01*
X146199095Y-95235638D01*
X146186988Y-95305595D01*
X146138981Y-95357900D01*
X146124932Y-95364317D01*
X146124696Y-95364354D01*
X146011658Y-95421950D01*
X145921950Y-95511658D01*
X145864354Y-95624696D01*
X145844508Y-95750000D01*
X138066392Y-95750000D01*
X138078050Y-95738342D01*
X138135646Y-95625304D01*
X138155492Y-95500000D01*
X138143130Y-95421950D01*
X138137197Y-95384487D01*
X138137196Y-95384485D01*
X138135646Y-95374696D01*
X138099376Y-95303512D01*
X138086272Y-95233735D01*
X138112972Y-95167950D01*
X138171000Y-95127044D01*
X138241931Y-95124004D01*
X138253610Y-95128360D01*
X138253705Y-95128069D01*
X138263138Y-95131134D01*
X138271972Y-95135635D01*
X138281761Y-95137185D01*
X138281763Y-95137186D01*
X138387483Y-95153930D01*
X138397276Y-95155481D01*
X138407069Y-95153930D01*
X138512789Y-95137186D01*
X138512791Y-95137185D01*
X138522580Y-95135635D01*
X138635618Y-95078039D01*
X138725326Y-94988331D01*
X138782922Y-94875293D01*
X138790405Y-94828050D01*
X138801217Y-94759782D01*
X138802768Y-94749989D01*
X138799524Y-94729509D01*
X138784473Y-94634476D01*
X138784472Y-94634474D01*
X138782922Y-94624685D01*
X138725326Y-94511647D01*
X138635618Y-94421939D01*
X138522580Y-94364343D01*
X138512791Y-94362793D01*
X138512789Y-94362792D01*
X138407069Y-94346048D01*
X138397276Y-94344497D01*
X138387483Y-94346048D01*
X138281763Y-94362792D01*
X138281761Y-94362793D01*
X138271972Y-94364343D01*
X138158934Y-94421939D01*
X138069226Y-94511647D01*
X138011630Y-94624685D01*
X138010080Y-94634474D01*
X138010079Y-94634476D01*
X137995028Y-94729509D01*
X137991784Y-94749989D01*
X137993335Y-94759782D01*
X138004148Y-94828050D01*
X138011630Y-94875293D01*
X138026227Y-94903941D01*
X138047900Y-94946477D01*
X138061004Y-95016254D01*
X138034304Y-95082039D01*
X137976276Y-95122945D01*
X137905345Y-95125985D01*
X137893666Y-95121629D01*
X137893571Y-95121920D01*
X137884137Y-95118854D01*
X137875304Y-95114354D01*
X137865515Y-95112804D01*
X137865513Y-95112803D01*
X137759793Y-95096059D01*
X137750000Y-95094508D01*
X137740207Y-95096059D01*
X137634487Y-95112803D01*
X137634485Y-95112804D01*
X137624696Y-95114354D01*
X137511658Y-95171950D01*
X137421950Y-95261658D01*
X137364354Y-95374696D01*
X137362804Y-95384485D01*
X137362803Y-95384487D01*
X137356870Y-95421950D01*
X137344508Y-95500000D01*
X136349503Y-95500000D01*
X136337141Y-95421950D01*
X136331208Y-95384487D01*
X136331207Y-95384485D01*
X136329657Y-95374696D01*
X136272061Y-95261658D01*
X136182353Y-95171950D01*
X136069315Y-95114354D01*
X136059526Y-95112804D01*
X136059524Y-95112803D01*
X135953804Y-95096059D01*
X135944011Y-95094508D01*
X135934218Y-95096059D01*
X135828498Y-95112803D01*
X135828496Y-95112804D01*
X135818707Y-95114354D01*
X135705669Y-95171950D01*
X135615961Y-95261658D01*
X135558365Y-95374696D01*
X135556815Y-95384485D01*
X135556814Y-95384487D01*
X135550881Y-95421950D01*
X135538519Y-95500000D01*
X115000500Y-95500000D01*
X115000500Y-94500000D01*
X135139011Y-94500000D01*
X135158857Y-94625304D01*
X135216453Y-94738342D01*
X135306161Y-94828050D01*
X135419199Y-94885646D01*
X135428988Y-94887196D01*
X135428990Y-94887197D01*
X135534710Y-94903941D01*
X135544503Y-94905492D01*
X135554296Y-94903941D01*
X135660016Y-94887197D01*
X135660018Y-94887196D01*
X135669807Y-94885646D01*
X135782845Y-94828050D01*
X135872553Y-94738342D01*
X135930149Y-94625304D01*
X135949995Y-94500000D01*
X135937633Y-94421950D01*
X135931700Y-94384487D01*
X135931699Y-94384485D01*
X135930149Y-94374696D01*
X135872553Y-94261658D01*
X135782845Y-94171950D01*
X135774014Y-94167450D01*
X135774008Y-94167446D01*
X135721636Y-94140761D01*
X135670021Y-94092013D01*
X135652955Y-94023098D01*
X135660826Y-94000000D01*
X144594508Y-94000000D01*
X144596059Y-94009793D01*
X144612620Y-94114354D01*
X144614354Y-94125304D01*
X144671950Y-94238342D01*
X144761658Y-94328050D01*
X144874696Y-94385646D01*
X144884485Y-94387196D01*
X144884487Y-94387197D01*
X144990207Y-94403941D01*
X145000000Y-94405492D01*
X145009793Y-94403941D01*
X145115513Y-94387197D01*
X145115515Y-94387196D01*
X145125304Y-94385646D01*
X145238342Y-94328050D01*
X145328050Y-94238342D01*
X145385646Y-94125304D01*
X145387381Y-94114354D01*
X145403941Y-94009793D01*
X145405492Y-94000000D01*
X145387626Y-93887197D01*
X145387197Y-93884487D01*
X145387196Y-93884485D01*
X145385646Y-93874696D01*
X145328050Y-93761658D01*
X145238342Y-93671950D01*
X145125304Y-93614354D01*
X145115515Y-93612804D01*
X145115513Y-93612803D01*
X145009793Y-93596059D01*
X145000000Y-93594508D01*
X144990207Y-93596059D01*
X144884487Y-93612803D01*
X144884485Y-93612804D01*
X144874696Y-93614354D01*
X144761658Y-93671950D01*
X144671950Y-93761658D01*
X144614354Y-93874696D01*
X144612804Y-93884485D01*
X144612803Y-93884487D01*
X144612374Y-93887197D01*
X144594508Y-94000000D01*
X135660826Y-94000000D01*
X135675856Y-93955897D01*
X135731454Y-93911745D01*
X135759128Y-93904046D01*
X135814059Y-93895346D01*
X135865512Y-93887197D01*
X135865513Y-93887197D01*
X135875304Y-93885646D01*
X135988342Y-93828050D01*
X136078050Y-93738342D01*
X136135646Y-93625304D01*
X136137381Y-93614354D01*
X136153941Y-93509793D01*
X136155492Y-93500000D01*
X137369819Y-93500000D01*
X137388426Y-93617482D01*
X137442427Y-93723465D01*
X137526535Y-93807573D01*
X137632518Y-93861574D01*
X137750000Y-93880181D01*
X137867482Y-93861574D01*
X137973465Y-93807573D01*
X138057573Y-93723465D01*
X138111574Y-93617482D01*
X138122535Y-93548273D01*
X138844508Y-93548273D01*
X138846059Y-93558066D01*
X138856869Y-93626316D01*
X138864354Y-93673577D01*
X138921950Y-93786615D01*
X139011658Y-93876323D01*
X139124696Y-93933919D01*
X139134485Y-93935469D01*
X139134487Y-93935470D01*
X139240207Y-93952214D01*
X139250000Y-93953765D01*
X139259793Y-93952214D01*
X139365513Y-93935470D01*
X139365515Y-93935469D01*
X139375304Y-93933919D01*
X139488342Y-93876323D01*
X139578050Y-93786615D01*
X139635646Y-93673577D01*
X139643132Y-93626316D01*
X139653941Y-93558066D01*
X139655492Y-93548273D01*
X139653941Y-93538480D01*
X139647847Y-93500000D01*
X140869819Y-93500000D01*
X140888426Y-93617482D01*
X140942427Y-93723465D01*
X141026535Y-93807573D01*
X141132518Y-93861574D01*
X141250000Y-93880181D01*
X141367482Y-93861574D01*
X141473465Y-93807573D01*
X141557573Y-93723465D01*
X141611574Y-93617482D01*
X141613125Y-93607689D01*
X141616190Y-93598256D01*
X141617806Y-93598781D01*
X141643302Y-93544990D01*
X141703568Y-93507460D01*
X141774557Y-93508469D01*
X141833732Y-93547697D01*
X141861792Y-93609134D01*
X141862802Y-93615508D01*
X141864354Y-93625304D01*
X141921950Y-93738342D01*
X142011658Y-93828050D01*
X142124696Y-93885646D01*
X142134485Y-93887196D01*
X142134487Y-93887197D01*
X142240207Y-93903941D01*
X142250000Y-93905492D01*
X142259793Y-93903941D01*
X142365513Y-93887197D01*
X142365515Y-93887196D01*
X142375304Y-93885646D01*
X142488342Y-93828050D01*
X142578050Y-93738342D01*
X142635646Y-93625304D01*
X142637381Y-93614354D01*
X142653941Y-93509793D01*
X142655492Y-93500000D01*
X142647936Y-93452294D01*
X142637197Y-93384487D01*
X142637196Y-93384485D01*
X142635646Y-93374696D01*
X142578050Y-93261658D01*
X142488342Y-93171950D01*
X142375304Y-93114354D01*
X142376294Y-93112412D01*
X142328542Y-93079759D01*
X142300905Y-93014362D01*
X142313012Y-92944405D01*
X142361019Y-92892100D01*
X142375068Y-92885683D01*
X142375304Y-92885646D01*
X142488342Y-92828050D01*
X142578050Y-92738342D01*
X142635646Y-92625304D01*
X142655492Y-92500000D01*
X142648848Y-92458053D01*
X142637197Y-92384487D01*
X142637196Y-92384485D01*
X142635646Y-92374696D01*
X142578050Y-92261658D01*
X142488342Y-92171950D01*
X142375304Y-92114354D01*
X142365515Y-92112804D01*
X142365513Y-92112803D01*
X142259793Y-92096059D01*
X142250000Y-92094508D01*
X142240207Y-92096059D01*
X142134487Y-92112803D01*
X142134485Y-92112804D01*
X142124696Y-92114354D01*
X142011658Y-92171950D01*
X141921950Y-92261658D01*
X141864354Y-92374696D01*
X141862804Y-92384485D01*
X141862803Y-92384487D01*
X141851152Y-92458053D01*
X141844508Y-92500000D01*
X141864354Y-92625304D01*
X141921950Y-92738342D01*
X142011658Y-92828050D01*
X142106895Y-92876576D01*
X142124696Y-92885646D01*
X142123706Y-92887588D01*
X142171458Y-92920241D01*
X142199095Y-92985638D01*
X142186988Y-93055595D01*
X142138981Y-93107900D01*
X142124932Y-93114317D01*
X142124696Y-93114354D01*
X142011658Y-93171950D01*
X141921950Y-93261658D01*
X141864354Y-93374696D01*
X141862803Y-93384489D01*
X141862802Y-93384492D01*
X141861792Y-93390866D01*
X141831378Y-93455018D01*
X141771109Y-93492543D01*
X141700120Y-93491528D01*
X141640949Y-93452294D01*
X141617650Y-93401270D01*
X141616190Y-93401744D01*
X141613125Y-93392310D01*
X141611574Y-93382518D01*
X141557573Y-93276535D01*
X141473465Y-93192427D01*
X141367482Y-93138426D01*
X141250000Y-93119819D01*
X141132518Y-93138426D01*
X141026535Y-93192427D01*
X140942427Y-93276535D01*
X140888426Y-93382518D01*
X140869819Y-93500000D01*
X139647847Y-93500000D01*
X139637197Y-93432760D01*
X139637196Y-93432758D01*
X139635646Y-93422969D01*
X139578050Y-93309931D01*
X139488342Y-93220223D01*
X139375304Y-93162627D01*
X139365515Y-93161077D01*
X139365513Y-93161076D01*
X139259793Y-93144332D01*
X139250000Y-93142781D01*
X139240207Y-93144332D01*
X139134487Y-93161076D01*
X139134485Y-93161077D01*
X139124696Y-93162627D01*
X139011658Y-93220223D01*
X138921950Y-93309931D01*
X138864354Y-93422969D01*
X138862804Y-93432758D01*
X138862803Y-93432760D01*
X138846059Y-93538480D01*
X138844508Y-93548273D01*
X138122535Y-93548273D01*
X138130181Y-93500000D01*
X138111574Y-93382518D01*
X138057573Y-93276535D01*
X137973465Y-93192427D01*
X137867482Y-93138426D01*
X137840805Y-93134201D01*
X137776651Y-93103790D01*
X137750276Y-93061434D01*
X137720630Y-93106146D01*
X137659195Y-93134201D01*
X137632518Y-93138426D01*
X137526535Y-93192427D01*
X137442427Y-93276535D01*
X137388426Y-93382518D01*
X137369819Y-93500000D01*
X136155492Y-93500000D01*
X136147936Y-93452294D01*
X136137197Y-93384487D01*
X136137196Y-93384485D01*
X136135646Y-93374696D01*
X136078050Y-93261658D01*
X135988342Y-93171950D01*
X135875304Y-93114354D01*
X135865515Y-93112804D01*
X135865513Y-93112803D01*
X135759793Y-93096059D01*
X135750000Y-93094508D01*
X135740207Y-93096059D01*
X135634487Y-93112803D01*
X135634485Y-93112804D01*
X135624696Y-93114354D01*
X135511658Y-93171950D01*
X135421950Y-93261658D01*
X135364354Y-93374696D01*
X135362804Y-93384485D01*
X135362803Y-93384487D01*
X135352064Y-93452294D01*
X135344508Y-93500000D01*
X135346059Y-93509793D01*
X135362620Y-93614354D01*
X135364354Y-93625304D01*
X135421950Y-93738342D01*
X135511658Y-93828050D01*
X135520489Y-93832550D01*
X135520495Y-93832554D01*
X135572867Y-93859239D01*
X135624482Y-93907987D01*
X135641548Y-93976902D01*
X135618647Y-94044103D01*
X135563049Y-94088255D01*
X135535375Y-94095954D01*
X135480444Y-94104654D01*
X135428991Y-94112803D01*
X135428990Y-94112803D01*
X135419199Y-94114354D01*
X135306161Y-94171950D01*
X135216453Y-94261658D01*
X135158857Y-94374696D01*
X135157307Y-94384485D01*
X135157306Y-94384487D01*
X135151373Y-94421950D01*
X135139011Y-94500000D01*
X115000500Y-94500000D01*
X115000500Y-93000000D01*
X133119819Y-93000000D01*
X133138426Y-93117482D01*
X133142927Y-93126315D01*
X133142927Y-93126316D01*
X133163722Y-93167128D01*
X133192427Y-93223465D01*
X133276535Y-93307573D01*
X133382518Y-93361574D01*
X133500000Y-93380181D01*
X133617482Y-93361574D01*
X133723465Y-93307573D01*
X133807573Y-93223465D01*
X133836278Y-93167128D01*
X133857073Y-93126316D01*
X133857073Y-93126315D01*
X133861574Y-93117482D01*
X133880181Y-93000000D01*
X133861574Y-92882518D01*
X133807573Y-92776535D01*
X133723465Y-92692427D01*
X133617482Y-92638426D01*
X133500000Y-92619819D01*
X133382518Y-92638426D01*
X133276535Y-92692427D01*
X133192427Y-92776535D01*
X133138426Y-92882518D01*
X133119819Y-93000000D01*
X115000500Y-93000000D01*
X115000500Y-92413402D01*
X135737868Y-92413402D01*
X135739419Y-92423195D01*
X135754673Y-92519503D01*
X135757714Y-92538706D01*
X135815310Y-92651744D01*
X135905018Y-92741452D01*
X136018056Y-92799048D01*
X136027845Y-92800598D01*
X136027847Y-92800599D01*
X136133567Y-92817343D01*
X136143360Y-92818894D01*
X136153153Y-92817343D01*
X136258873Y-92800599D01*
X136258875Y-92800598D01*
X136268664Y-92799048D01*
X136381702Y-92741452D01*
X136471410Y-92651744D01*
X136529006Y-92538706D01*
X136532048Y-92519503D01*
X137369819Y-92519503D01*
X137388426Y-92636985D01*
X137442427Y-92742968D01*
X137526535Y-92827076D01*
X137632518Y-92881077D01*
X137642313Y-92882628D01*
X137642315Y-92882629D01*
X137659200Y-92885304D01*
X137723352Y-92915717D01*
X137749723Y-92958071D01*
X137779367Y-92913361D01*
X137840800Y-92885304D01*
X137857685Y-92882629D01*
X137857687Y-92882628D01*
X137867482Y-92881077D01*
X137973465Y-92827076D01*
X138057573Y-92742968D01*
X138111574Y-92636985D01*
X138130181Y-92519503D01*
X138111574Y-92402021D01*
X138057573Y-92296038D01*
X137973465Y-92211930D01*
X137867482Y-92157929D01*
X137750000Y-92139322D01*
X137632518Y-92157929D01*
X137526535Y-92211930D01*
X137442427Y-92296038D01*
X137388426Y-92402021D01*
X137369819Y-92519503D01*
X136532048Y-92519503D01*
X136547301Y-92423195D01*
X136548852Y-92413402D01*
X136533364Y-92315613D01*
X136530557Y-92297889D01*
X136530556Y-92297887D01*
X136529006Y-92288098D01*
X136471410Y-92175060D01*
X136381702Y-92085352D01*
X136268664Y-92027756D01*
X136258875Y-92026206D01*
X136258873Y-92026205D01*
X136153153Y-92009461D01*
X136143360Y-92007910D01*
X136133567Y-92009461D01*
X136027847Y-92026205D01*
X136027845Y-92026206D01*
X136018056Y-92027756D01*
X135905018Y-92085352D01*
X135815310Y-92175060D01*
X135757714Y-92288098D01*
X135756164Y-92297887D01*
X135756163Y-92297889D01*
X135753356Y-92315613D01*
X135737868Y-92413402D01*
X115000500Y-92413402D01*
X115000500Y-91500000D01*
X132869819Y-91500000D01*
X132888426Y-91617482D01*
X132942427Y-91723465D01*
X133026535Y-91807573D01*
X133132518Y-91861574D01*
X133250000Y-91880181D01*
X133367482Y-91861574D01*
X133473465Y-91807573D01*
X133557573Y-91723465D01*
X133611574Y-91617482D01*
X133630181Y-91500000D01*
X133611574Y-91382518D01*
X133606836Y-91373218D01*
X133562073Y-91285367D01*
X133557573Y-91276535D01*
X133473465Y-91192427D01*
X133418643Y-91164494D01*
X133376316Y-91142927D01*
X133376315Y-91142927D01*
X133367482Y-91138426D01*
X133250000Y-91119819D01*
X133132518Y-91138426D01*
X133123685Y-91142927D01*
X133123684Y-91142927D01*
X133081357Y-91164494D01*
X133026535Y-91192427D01*
X132942427Y-91276535D01*
X132937927Y-91285367D01*
X132893165Y-91373218D01*
X132888426Y-91382518D01*
X132869819Y-91500000D01*
X115000500Y-91500000D01*
X115000500Y-91000000D01*
X123094508Y-91000000D01*
X123096059Y-91009793D01*
X123107524Y-91082178D01*
X123114354Y-91125304D01*
X123171950Y-91238342D01*
X123261658Y-91328050D01*
X123374696Y-91385646D01*
X123384485Y-91387196D01*
X123384487Y-91387197D01*
X123490207Y-91403941D01*
X123500000Y-91405492D01*
X123509793Y-91403941D01*
X123615513Y-91387197D01*
X123615515Y-91387196D01*
X123625304Y-91385646D01*
X123738342Y-91328050D01*
X123828050Y-91238342D01*
X123885646Y-91125304D01*
X123892477Y-91082178D01*
X123903941Y-91009793D01*
X123905492Y-91000000D01*
X130594508Y-91000000D01*
X130596059Y-91009793D01*
X130607524Y-91082178D01*
X130614354Y-91125304D01*
X130671950Y-91238342D01*
X130761658Y-91328050D01*
X130874696Y-91385646D01*
X130884485Y-91387196D01*
X130884487Y-91387197D01*
X130990207Y-91403941D01*
X131000000Y-91405492D01*
X131009793Y-91403941D01*
X131115513Y-91387197D01*
X131115515Y-91387196D01*
X131125304Y-91385646D01*
X131238342Y-91328050D01*
X131328050Y-91238342D01*
X131385646Y-91125304D01*
X131392477Y-91082178D01*
X131402285Y-91020248D01*
X135138926Y-91020248D01*
X135157533Y-91137730D01*
X135211534Y-91243713D01*
X135295642Y-91327821D01*
X135322722Y-91341619D01*
X135387206Y-91374475D01*
X135401625Y-91381822D01*
X135519107Y-91400429D01*
X135636589Y-91381822D01*
X135651009Y-91374475D01*
X135715492Y-91341619D01*
X135742572Y-91327821D01*
X135826680Y-91243713D01*
X135880681Y-91137730D01*
X135882044Y-91129122D01*
X136215386Y-91129122D01*
X136216937Y-91138915D01*
X136232685Y-91238342D01*
X136235232Y-91254426D01*
X136292828Y-91367464D01*
X136382536Y-91457172D01*
X136495574Y-91514768D01*
X136505363Y-91516318D01*
X136505365Y-91516319D01*
X136611085Y-91533063D01*
X136620878Y-91534614D01*
X136630671Y-91533063D01*
X136736391Y-91516319D01*
X136736393Y-91516318D01*
X136746182Y-91514768D01*
X136859220Y-91457172D01*
X136948928Y-91367464D01*
X137006524Y-91254426D01*
X137009072Y-91238342D01*
X137013960Y-91207482D01*
X137637026Y-91207482D01*
X137638577Y-91217275D01*
X137653546Y-91311784D01*
X137656872Y-91332786D01*
X137714468Y-91445824D01*
X137804176Y-91535532D01*
X137917214Y-91593128D01*
X137927003Y-91594678D01*
X137927005Y-91594679D01*
X138032725Y-91611423D01*
X138042518Y-91612974D01*
X138052311Y-91611423D01*
X138158031Y-91594679D01*
X138158033Y-91594678D01*
X138167822Y-91593128D01*
X138280860Y-91535532D01*
X138370568Y-91445824D01*
X138375070Y-91436989D01*
X138412567Y-91363399D01*
X138461315Y-91311784D01*
X138530230Y-91294719D01*
X138597432Y-91317620D01*
X138637431Y-91367989D01*
X138638426Y-91367482D01*
X138642177Y-91374843D01*
X138642177Y-91374844D01*
X138646087Y-91382518D01*
X138692427Y-91473465D01*
X138776535Y-91557573D01*
X138882518Y-91611574D01*
X138919571Y-91617443D01*
X138983723Y-91647853D01*
X139021251Y-91708121D01*
X139020238Y-91779110D01*
X138988956Y-91830986D01*
X138942427Y-91877515D01*
X138888426Y-91983498D01*
X138869819Y-92100980D01*
X138888426Y-92218462D01*
X138942427Y-92324445D01*
X139026535Y-92408553D01*
X139132518Y-92462554D01*
X139250000Y-92481161D01*
X139367482Y-92462554D01*
X139473465Y-92408553D01*
X139557573Y-92324445D01*
X139611574Y-92218462D01*
X139630181Y-92100980D01*
X139611574Y-91983498D01*
X139557573Y-91877515D01*
X139473465Y-91793407D01*
X139367482Y-91739406D01*
X139330429Y-91733537D01*
X139266277Y-91703127D01*
X139228749Y-91642859D01*
X139229762Y-91571870D01*
X139261044Y-91519994D01*
X139307573Y-91473465D01*
X139353913Y-91382518D01*
X139357073Y-91376316D01*
X139357073Y-91376315D01*
X139361574Y-91367482D01*
X139380181Y-91250000D01*
X139361574Y-91132518D01*
X139307573Y-91026535D01*
X139281038Y-91000000D01*
X142344508Y-91000000D01*
X142346059Y-91009793D01*
X142357524Y-91082178D01*
X142364354Y-91125304D01*
X142421950Y-91238342D01*
X142511658Y-91328050D01*
X142624696Y-91385646D01*
X142634485Y-91387196D01*
X142634487Y-91387197D01*
X142740207Y-91403941D01*
X142750000Y-91405492D01*
X142759793Y-91403941D01*
X142865513Y-91387197D01*
X142865515Y-91387196D01*
X142875304Y-91385646D01*
X142988342Y-91328050D01*
X143078050Y-91238342D01*
X143135646Y-91125304D01*
X143142477Y-91082178D01*
X143153941Y-91009793D01*
X143155492Y-91000000D01*
X143147484Y-90949438D01*
X143137197Y-90884487D01*
X143137196Y-90884485D01*
X143135646Y-90874696D01*
X143078050Y-90761658D01*
X142988342Y-90671950D01*
X142875304Y-90614354D01*
X142865515Y-90612804D01*
X142865513Y-90612803D01*
X142759793Y-90596059D01*
X142750000Y-90594508D01*
X142740207Y-90596059D01*
X142634487Y-90612803D01*
X142634485Y-90612804D01*
X142624696Y-90614354D01*
X142511658Y-90671950D01*
X142421950Y-90761658D01*
X142364354Y-90874696D01*
X142362804Y-90884485D01*
X142362803Y-90884487D01*
X142352516Y-90949438D01*
X142344508Y-91000000D01*
X139281038Y-91000000D01*
X139223465Y-90942427D01*
X139117482Y-90888426D01*
X139000000Y-90869819D01*
X138882518Y-90888426D01*
X138776535Y-90942427D01*
X138692427Y-91026535D01*
X138687927Y-91035367D01*
X138657128Y-91095813D01*
X138608380Y-91147428D01*
X138539465Y-91164494D01*
X138472263Y-91141593D01*
X138428933Y-91087031D01*
X138428164Y-91082178D01*
X138370568Y-90969140D01*
X138280860Y-90879432D01*
X138167822Y-90821836D01*
X138158033Y-90820286D01*
X138158031Y-90820285D01*
X138052311Y-90803541D01*
X138042518Y-90801990D01*
X138032725Y-90803541D01*
X137927005Y-90820285D01*
X137927003Y-90820286D01*
X137917214Y-90821836D01*
X137804176Y-90879432D01*
X137714468Y-90969140D01*
X137656872Y-91082178D01*
X137655322Y-91091967D01*
X137655321Y-91091969D01*
X137640123Y-91187927D01*
X137637026Y-91207482D01*
X137013960Y-91207482D01*
X137024819Y-91138915D01*
X137026370Y-91129122D01*
X137024215Y-91115513D01*
X137008075Y-91013609D01*
X137008074Y-91013607D01*
X137006524Y-91003818D01*
X136948928Y-90890780D01*
X136859220Y-90801072D01*
X136746182Y-90743476D01*
X136736393Y-90741926D01*
X136736391Y-90741925D01*
X136630671Y-90725181D01*
X136620878Y-90723630D01*
X136611085Y-90725181D01*
X136505365Y-90741925D01*
X136505363Y-90741926D01*
X136495574Y-90743476D01*
X136382536Y-90801072D01*
X136292828Y-90890780D01*
X136235232Y-91003818D01*
X136233682Y-91013607D01*
X136233681Y-91013609D01*
X136217541Y-91115513D01*
X136215386Y-91129122D01*
X135882044Y-91129122D01*
X135899288Y-91020248D01*
X135880681Y-90902766D01*
X135873375Y-90888426D01*
X135842611Y-90828050D01*
X135826680Y-90796783D01*
X135742572Y-90712675D01*
X135636589Y-90658674D01*
X135519107Y-90640067D01*
X135401625Y-90658674D01*
X135295642Y-90712675D01*
X135211534Y-90796783D01*
X135195603Y-90828050D01*
X135164840Y-90888426D01*
X135157533Y-90902766D01*
X135138926Y-91020248D01*
X131402285Y-91020248D01*
X131403941Y-91009793D01*
X131405492Y-91000000D01*
X131397484Y-90949438D01*
X131387197Y-90884487D01*
X131387196Y-90884485D01*
X131385646Y-90874696D01*
X131328050Y-90761658D01*
X131238342Y-90671950D01*
X131125304Y-90614354D01*
X131126294Y-90612412D01*
X131078542Y-90579759D01*
X131050905Y-90514362D01*
X131063012Y-90444405D01*
X131111019Y-90392100D01*
X131125068Y-90385683D01*
X131125304Y-90385646D01*
X131238342Y-90328050D01*
X131328050Y-90238342D01*
X131385646Y-90125304D01*
X131387381Y-90114354D01*
X131403941Y-90009793D01*
X131405492Y-90000000D01*
X131385646Y-89874696D01*
X131328050Y-89761658D01*
X131238342Y-89671950D01*
X131125304Y-89614354D01*
X131126294Y-89612412D01*
X131078542Y-89579759D01*
X131050905Y-89514362D01*
X131063012Y-89444405D01*
X131111019Y-89392100D01*
X131125068Y-89385683D01*
X131125304Y-89385646D01*
X131238342Y-89328050D01*
X131328050Y-89238342D01*
X131385646Y-89125304D01*
X131405492Y-89000000D01*
X136094508Y-89000000D01*
X136114354Y-89125304D01*
X136171950Y-89238342D01*
X136261658Y-89328050D01*
X136374696Y-89385646D01*
X136384485Y-89387196D01*
X136384487Y-89387197D01*
X136490207Y-89403941D01*
X136500000Y-89405492D01*
X136509793Y-89403941D01*
X136615513Y-89387197D01*
X136615515Y-89387196D01*
X136625304Y-89385646D01*
X136738342Y-89328050D01*
X136828050Y-89238342D01*
X136885646Y-89125304D01*
X136905492Y-89000000D01*
X137594508Y-89000000D01*
X137614354Y-89125304D01*
X137671950Y-89238342D01*
X137761658Y-89328050D01*
X137874696Y-89385646D01*
X137884485Y-89387196D01*
X137884487Y-89387197D01*
X137990207Y-89403941D01*
X138000000Y-89405492D01*
X138009793Y-89403941D01*
X138115513Y-89387197D01*
X138115515Y-89387196D01*
X138125304Y-89385646D01*
X138238342Y-89328050D01*
X138328050Y-89238342D01*
X138385646Y-89125304D01*
X138405492Y-89000000D01*
X138385646Y-88874696D01*
X138328050Y-88761658D01*
X138238342Y-88671950D01*
X138125304Y-88614354D01*
X138115515Y-88612804D01*
X138115513Y-88612803D01*
X138009793Y-88596059D01*
X138000000Y-88594508D01*
X137990207Y-88596059D01*
X137884487Y-88612803D01*
X137884485Y-88612804D01*
X137874696Y-88614354D01*
X137761658Y-88671950D01*
X137671950Y-88761658D01*
X137614354Y-88874696D01*
X137594508Y-89000000D01*
X136905492Y-89000000D01*
X136885646Y-88874696D01*
X136828050Y-88761658D01*
X136738342Y-88671950D01*
X136625304Y-88614354D01*
X136615515Y-88612804D01*
X136615513Y-88612803D01*
X136509793Y-88596059D01*
X136500000Y-88594508D01*
X136490207Y-88596059D01*
X136384487Y-88612803D01*
X136384485Y-88612804D01*
X136374696Y-88614354D01*
X136261658Y-88671950D01*
X136171950Y-88761658D01*
X136114354Y-88874696D01*
X136094508Y-89000000D01*
X131405492Y-89000000D01*
X131385646Y-88874696D01*
X131328050Y-88761658D01*
X131238342Y-88671950D01*
X131125304Y-88614354D01*
X131115515Y-88612804D01*
X131115513Y-88612803D01*
X131009793Y-88596059D01*
X131000000Y-88594508D01*
X130990207Y-88596059D01*
X130884487Y-88612803D01*
X130884485Y-88612804D01*
X130874696Y-88614354D01*
X130761658Y-88671950D01*
X130671950Y-88761658D01*
X130614354Y-88874696D01*
X130594508Y-89000000D01*
X130614354Y-89125304D01*
X130671950Y-89238342D01*
X130761658Y-89328050D01*
X130865862Y-89381145D01*
X130874696Y-89385646D01*
X130873706Y-89387588D01*
X130921458Y-89420241D01*
X130949095Y-89485638D01*
X130936988Y-89555595D01*
X130888981Y-89607900D01*
X130874932Y-89614317D01*
X130874696Y-89614354D01*
X130761658Y-89671950D01*
X130671950Y-89761658D01*
X130614354Y-89874696D01*
X130594508Y-90000000D01*
X130596059Y-90009793D01*
X130612620Y-90114354D01*
X130614354Y-90125304D01*
X130671950Y-90238342D01*
X130761658Y-90328050D01*
X130835870Y-90365863D01*
X130874696Y-90385646D01*
X130873706Y-90387588D01*
X130921458Y-90420241D01*
X130949095Y-90485638D01*
X130936988Y-90555595D01*
X130888981Y-90607900D01*
X130874932Y-90614317D01*
X130874696Y-90614354D01*
X130761658Y-90671950D01*
X130671950Y-90761658D01*
X130614354Y-90874696D01*
X130612804Y-90884485D01*
X130612803Y-90884487D01*
X130602516Y-90949438D01*
X130594508Y-91000000D01*
X123905492Y-91000000D01*
X123897484Y-90949438D01*
X123887197Y-90884487D01*
X123887196Y-90884485D01*
X123885646Y-90874696D01*
X123828050Y-90761658D01*
X123738342Y-90671950D01*
X123625304Y-90614354D01*
X123615515Y-90612804D01*
X123615513Y-90612803D01*
X123509793Y-90596059D01*
X123500000Y-90594508D01*
X123490207Y-90596059D01*
X123384487Y-90612803D01*
X123384485Y-90612804D01*
X123374696Y-90614354D01*
X123261658Y-90671950D01*
X123171950Y-90761658D01*
X123114354Y-90874696D01*
X123112804Y-90884485D01*
X123112803Y-90884487D01*
X123102516Y-90949438D01*
X123094508Y-91000000D01*
X115000500Y-91000000D01*
X115000500Y-90500000D01*
X126844508Y-90500000D01*
X126846059Y-90509793D01*
X126862620Y-90614354D01*
X126864354Y-90625304D01*
X126921950Y-90738342D01*
X127011658Y-90828050D01*
X127124696Y-90885646D01*
X127134485Y-90887196D01*
X127134487Y-90887197D01*
X127240207Y-90903941D01*
X127250000Y-90905492D01*
X127259793Y-90903941D01*
X127365513Y-90887197D01*
X127365515Y-90887196D01*
X127375304Y-90885646D01*
X127488342Y-90828050D01*
X127578050Y-90738342D01*
X127635646Y-90625304D01*
X127637381Y-90614354D01*
X127653941Y-90509793D01*
X127655492Y-90500000D01*
X127640524Y-90405492D01*
X127637197Y-90384487D01*
X127637196Y-90384485D01*
X127635646Y-90374696D01*
X127578050Y-90261658D01*
X127488342Y-90171950D01*
X127375304Y-90114354D01*
X127365515Y-90112804D01*
X127365513Y-90112803D01*
X127259793Y-90096059D01*
X127250000Y-90094508D01*
X127240207Y-90096059D01*
X127134487Y-90112803D01*
X127134485Y-90112804D01*
X127124696Y-90114354D01*
X127011658Y-90171950D01*
X126921950Y-90261658D01*
X126864354Y-90374696D01*
X126862804Y-90384485D01*
X126862803Y-90384487D01*
X126859476Y-90405492D01*
X126844508Y-90500000D01*
X115000500Y-90500000D01*
X115000500Y-83065963D01*
X117994757Y-83065963D01*
X118011175Y-83261483D01*
X118065258Y-83450091D01*
X118076674Y-83472304D01*
X118152123Y-83619113D01*
X118152126Y-83619117D01*
X118154944Y-83624601D01*
X118276818Y-83778369D01*
X118281511Y-83782363D01*
X118281512Y-83782364D01*
X118388542Y-83873453D01*
X118426238Y-83905535D01*
X118431616Y-83908541D01*
X118431618Y-83908542D01*
X118467932Y-83928837D01*
X118597513Y-84001257D01*
X118784118Y-84061889D01*
X118978946Y-84085121D01*
X118985081Y-84084649D01*
X118985083Y-84084649D01*
X119168434Y-84070541D01*
X119168438Y-84070540D01*
X119174576Y-84070068D01*
X119363556Y-84017303D01*
X119538689Y-83928837D01*
X119568515Y-83905535D01*
X119634355Y-83854095D01*
X119693303Y-83808040D01*
X119723084Y-83773539D01*
X119817485Y-83664173D01*
X119817485Y-83664172D01*
X119821509Y-83659511D01*
X119918425Y-83488909D01*
X119980358Y-83302732D01*
X120000073Y-83146671D01*
X125495739Y-83146671D01*
X125524614Y-83337599D01*
X125526820Y-83343594D01*
X125526820Y-83343595D01*
X125589086Y-83512832D01*
X125589088Y-83512836D01*
X125591290Y-83518821D01*
X125693045Y-83682934D01*
X125825721Y-83823235D01*
X125830951Y-83826897D01*
X125830952Y-83826898D01*
X125943258Y-83905535D01*
X125983898Y-83933991D01*
X126085929Y-83978144D01*
X126143740Y-84003161D01*
X126161115Y-84010680D01*
X126200749Y-84018960D01*
X126345388Y-84049177D01*
X126345392Y-84049177D01*
X126350133Y-84050168D01*
X126356468Y-84050500D01*
X127598259Y-84050500D01*
X127680758Y-84042120D01*
X127735761Y-84036533D01*
X127735762Y-84036533D01*
X127742110Y-84035888D01*
X127926373Y-83978144D01*
X128095261Y-83884528D01*
X128241875Y-83758864D01*
X128254700Y-83742330D01*
X128356311Y-83611335D01*
X128356313Y-83611332D01*
X128360227Y-83606286D01*
X128445481Y-83433026D01*
X128447088Y-83426856D01*
X128447090Y-83426851D01*
X128492545Y-83252345D01*
X128492545Y-83252342D01*
X128494155Y-83246163D01*
X128499704Y-83140290D01*
X128503927Y-83059710D01*
X128503927Y-83059706D01*
X128504261Y-83053329D01*
X128475386Y-82862401D01*
X128438170Y-82761250D01*
X128410914Y-82687168D01*
X128410912Y-82687164D01*
X128408710Y-82681179D01*
X128306955Y-82517066D01*
X128174279Y-82376765D01*
X128166906Y-82371602D01*
X128021335Y-82269673D01*
X128021334Y-82269672D01*
X128016102Y-82266009D01*
X127838885Y-82189320D01*
X127797853Y-82180748D01*
X127654612Y-82150823D01*
X127654608Y-82150823D01*
X127649867Y-82149832D01*
X127643532Y-82149500D01*
X126401741Y-82149500D01*
X126383125Y-82151391D01*
X126264239Y-82163467D01*
X126264238Y-82163467D01*
X126257890Y-82164112D01*
X126073627Y-82221856D01*
X126068038Y-82224954D01*
X126029105Y-82246535D01*
X125904739Y-82315472D01*
X125758125Y-82441136D01*
X125754214Y-82446178D01*
X125754213Y-82446179D01*
X125689890Y-82529104D01*
X125639773Y-82593714D01*
X125554519Y-82766974D01*
X125552912Y-82773144D01*
X125552910Y-82773149D01*
X125507455Y-82947655D01*
X125505845Y-82953837D01*
X125505511Y-82960216D01*
X125497947Y-83104546D01*
X125495739Y-83146671D01*
X120000073Y-83146671D01*
X120004949Y-83108071D01*
X120005341Y-83080000D01*
X119986194Y-82884728D01*
X119984413Y-82878829D01*
X119984412Y-82878824D01*
X119931265Y-82702793D01*
X119929484Y-82696894D01*
X119837370Y-82523653D01*
X119713361Y-82371602D01*
X119562180Y-82246535D01*
X119389585Y-82153213D01*
X119295869Y-82124203D01*
X119208039Y-82097015D01*
X119208036Y-82097014D01*
X119202152Y-82095193D01*
X119196027Y-82094549D01*
X119196026Y-82094549D01*
X119013147Y-82075327D01*
X119013146Y-82075327D01*
X119007019Y-82074683D01*
X118884383Y-82085844D01*
X118817759Y-82091907D01*
X118817758Y-82091907D01*
X118811618Y-82092466D01*
X118805704Y-82094207D01*
X118805702Y-82094207D01*
X118676734Y-82132165D01*
X118623393Y-82147864D01*
X118617928Y-82150721D01*
X118454972Y-82235912D01*
X118454968Y-82235915D01*
X118449512Y-82238767D01*
X118444712Y-82242627D01*
X118444711Y-82242627D01*
X118418784Y-82263473D01*
X118296600Y-82361711D01*
X118170480Y-82512016D01*
X118167516Y-82517408D01*
X118167513Y-82517412D01*
X118125566Y-82593714D01*
X118075956Y-82683954D01*
X118016628Y-82870978D01*
X117994757Y-83065963D01*
X115000500Y-83065963D01*
X115000500Y-80485963D01*
X127994757Y-80485963D01*
X128011175Y-80681483D01*
X128065258Y-80870091D01*
X128068076Y-80875574D01*
X128152123Y-81039113D01*
X128152126Y-81039117D01*
X128154944Y-81044601D01*
X128276818Y-81198369D01*
X128426238Y-81325535D01*
X128431616Y-81328541D01*
X128431618Y-81328542D01*
X128467932Y-81348837D01*
X128597513Y-81421257D01*
X128784118Y-81481889D01*
X128978946Y-81505121D01*
X128985081Y-81504649D01*
X128985083Y-81504649D01*
X129168434Y-81490541D01*
X129168438Y-81490540D01*
X129174576Y-81490068D01*
X129363556Y-81437303D01*
X129538689Y-81348837D01*
X129568515Y-81325535D01*
X129688453Y-81231829D01*
X129693303Y-81228040D01*
X129723084Y-81193539D01*
X129817485Y-81084173D01*
X129817485Y-81084172D01*
X129821509Y-81079511D01*
X129918425Y-80908909D01*
X129980358Y-80722732D01*
X130004949Y-80528071D01*
X130005341Y-80500000D01*
X129986194Y-80304728D01*
X129984413Y-80298829D01*
X129984412Y-80298824D01*
X129931265Y-80122793D01*
X129929484Y-80116894D01*
X129837370Y-79943653D01*
X129713361Y-79791602D01*
X129562180Y-79666535D01*
X129389585Y-79573213D01*
X129295868Y-79544203D01*
X129208039Y-79517015D01*
X129208036Y-79517014D01*
X129202152Y-79515193D01*
X129196027Y-79514549D01*
X129196026Y-79514549D01*
X129013147Y-79495327D01*
X129013146Y-79495327D01*
X129007019Y-79494683D01*
X128884383Y-79505844D01*
X128817759Y-79511907D01*
X128817758Y-79511907D01*
X128811618Y-79512466D01*
X128805704Y-79514207D01*
X128805702Y-79514207D01*
X128676734Y-79552165D01*
X128623393Y-79567864D01*
X128617928Y-79570721D01*
X128454972Y-79655912D01*
X128454968Y-79655915D01*
X128449512Y-79658767D01*
X128444712Y-79662627D01*
X128444711Y-79662627D01*
X128410326Y-79690273D01*
X128296600Y-79781711D01*
X128170480Y-79932016D01*
X128167516Y-79937408D01*
X128167513Y-79937412D01*
X128119611Y-80024546D01*
X128075956Y-80103954D01*
X128016628Y-80290978D01*
X127994757Y-80485963D01*
X115000500Y-80485963D01*
X115000500Y-79767133D01*
X120778830Y-79767133D01*
X120797750Y-79910842D01*
X120853219Y-80044758D01*
X120941459Y-80159754D01*
X121056455Y-80247994D01*
X121190371Y-80303463D01*
X121334080Y-80322383D01*
X121477789Y-80303463D01*
X121611705Y-80247994D01*
X121726701Y-80159754D01*
X121814941Y-80044758D01*
X121870410Y-79910842D01*
X121889330Y-79767133D01*
X121870410Y-79623424D01*
X121814941Y-79489508D01*
X121726701Y-79374512D01*
X121611705Y-79286272D01*
X121477789Y-79230803D01*
X121334080Y-79211883D01*
X121190371Y-79230803D01*
X121056455Y-79286272D01*
X120941459Y-79374512D01*
X120853219Y-79489508D01*
X120797750Y-79623424D01*
X120778830Y-79767133D01*
X115000500Y-79767133D01*
X115000500Y-77985963D01*
X117994757Y-77985963D01*
X118011175Y-78181483D01*
X118065258Y-78370091D01*
X118068076Y-78375574D01*
X118152123Y-78539113D01*
X118152126Y-78539117D01*
X118154944Y-78544601D01*
X118276818Y-78698369D01*
X118426238Y-78825535D01*
X118431616Y-78828541D01*
X118431618Y-78828542D01*
X118467932Y-78848837D01*
X118597513Y-78921257D01*
X118784118Y-78981889D01*
X118978946Y-79005121D01*
X118985081Y-79004649D01*
X118985083Y-79004649D01*
X119168434Y-78990541D01*
X119168438Y-78990540D01*
X119174576Y-78990068D01*
X119363556Y-78937303D01*
X119538689Y-78848837D01*
X119568515Y-78825535D01*
X119688453Y-78731829D01*
X119693303Y-78728040D01*
X119723084Y-78693539D01*
X119817485Y-78584173D01*
X119817485Y-78584172D01*
X119821509Y-78579511D01*
X119918425Y-78408909D01*
X119980358Y-78222732D01*
X119982975Y-78202016D01*
X120011357Y-78136940D01*
X120070416Y-78097538D01*
X120141402Y-78096321D01*
X120201777Y-78133676D01*
X120224390Y-78169590D01*
X120269139Y-78277625D01*
X120357379Y-78392621D01*
X120472375Y-78480861D01*
X120606291Y-78536330D01*
X120750000Y-78555250D01*
X120893709Y-78536330D01*
X121027625Y-78480861D01*
X121142621Y-78392621D01*
X121230861Y-78277625D01*
X121286330Y-78143709D01*
X121305250Y-78000000D01*
X121303402Y-77985963D01*
X127994757Y-77985963D01*
X128011175Y-78181483D01*
X128065258Y-78370091D01*
X128068076Y-78375574D01*
X128152123Y-78539113D01*
X128152126Y-78539117D01*
X128154944Y-78544601D01*
X128276818Y-78698369D01*
X128426238Y-78825535D01*
X128431616Y-78828541D01*
X128431618Y-78828542D01*
X128467932Y-78848837D01*
X128597513Y-78921257D01*
X128784118Y-78981889D01*
X128978946Y-79005121D01*
X128985081Y-79004649D01*
X128985083Y-79004649D01*
X129168434Y-78990541D01*
X129168438Y-78990540D01*
X129174576Y-78990068D01*
X129363556Y-78937303D01*
X129538689Y-78848837D01*
X129568515Y-78825535D01*
X129688453Y-78731829D01*
X129693303Y-78728040D01*
X129723084Y-78693539D01*
X129817485Y-78584173D01*
X129817485Y-78584172D01*
X129821509Y-78579511D01*
X129918425Y-78408909D01*
X129980358Y-78222732D01*
X130004949Y-78028071D01*
X130005341Y-78000000D01*
X129986194Y-77804728D01*
X129984413Y-77798829D01*
X129984412Y-77798824D01*
X129931265Y-77622793D01*
X129929484Y-77616894D01*
X129837370Y-77443653D01*
X129713361Y-77291602D01*
X129562180Y-77166535D01*
X129389585Y-77073213D01*
X129337936Y-77057225D01*
X129278776Y-77017974D01*
X129250228Y-76952970D01*
X129261356Y-76882851D01*
X129308627Y-76829879D01*
X129338986Y-76816174D01*
X129492255Y-76770191D01*
X129501842Y-76766433D01*
X129693098Y-76672738D01*
X129701944Y-76667465D01*
X129749247Y-76633723D01*
X129757648Y-76623023D01*
X129750660Y-76609870D01*
X129012812Y-75872022D01*
X128998868Y-75864408D01*
X128997035Y-75864539D01*
X128990420Y-75868790D01*
X128246737Y-76612473D01*
X128239977Y-76624853D01*
X128245258Y-76631907D01*
X128406756Y-76726279D01*
X128416042Y-76730729D01*
X128615001Y-76806703D01*
X128624898Y-76809579D01*
X128645834Y-76813838D01*
X128708599Y-76847020D01*
X128743462Y-76908867D01*
X128739353Y-76979745D01*
X128697577Y-77037149D01*
X128656291Y-77058182D01*
X128623393Y-77067864D01*
X128617928Y-77070721D01*
X128454972Y-77155912D01*
X128454968Y-77155915D01*
X128449512Y-77158767D01*
X128444712Y-77162627D01*
X128444711Y-77162627D01*
X128410326Y-77190273D01*
X128296600Y-77281711D01*
X128170480Y-77432016D01*
X128167516Y-77437408D01*
X128167513Y-77437412D01*
X128119819Y-77524168D01*
X128075956Y-77603954D01*
X128074095Y-77609821D01*
X128074094Y-77609823D01*
X128071851Y-77616894D01*
X128016628Y-77790978D01*
X127994757Y-77985963D01*
X121303402Y-77985963D01*
X121286330Y-77856291D01*
X121230861Y-77722375D01*
X121142621Y-77607379D01*
X121027625Y-77519139D01*
X120893709Y-77463670D01*
X120750000Y-77444750D01*
X120606291Y-77463670D01*
X120472375Y-77519139D01*
X120357379Y-77607379D01*
X120269139Y-77722375D01*
X120265980Y-77730002D01*
X120265977Y-77730007D01*
X120225462Y-77827822D01*
X120180914Y-77883103D01*
X120113551Y-77905525D01*
X120044760Y-77887967D01*
X119996381Y-77836006D01*
X119986403Y-77806855D01*
X119986194Y-77804728D01*
X119984412Y-77798824D01*
X119931265Y-77622793D01*
X119929484Y-77616894D01*
X119837370Y-77443653D01*
X119713361Y-77291602D01*
X119562180Y-77166535D01*
X119389585Y-77073213D01*
X119273081Y-77037149D01*
X119208039Y-77017015D01*
X119208036Y-77017014D01*
X119202152Y-77015193D01*
X119196027Y-77014549D01*
X119196026Y-77014549D01*
X119013147Y-76995327D01*
X119013146Y-76995327D01*
X119007019Y-76994683D01*
X118884383Y-77005844D01*
X118817759Y-77011907D01*
X118817758Y-77011907D01*
X118811618Y-77012466D01*
X118805704Y-77014207D01*
X118805702Y-77014207D01*
X118727753Y-77037149D01*
X118623393Y-77067864D01*
X118617928Y-77070721D01*
X118454972Y-77155912D01*
X118454968Y-77155915D01*
X118449512Y-77158767D01*
X118444712Y-77162627D01*
X118444711Y-77162627D01*
X118410326Y-77190273D01*
X118296600Y-77281711D01*
X118170480Y-77432016D01*
X118167516Y-77437408D01*
X118167513Y-77437412D01*
X118119819Y-77524168D01*
X118075956Y-77603954D01*
X118074095Y-77609821D01*
X118074094Y-77609823D01*
X118071851Y-77616894D01*
X118016628Y-77790978D01*
X117994757Y-77985963D01*
X115000500Y-77985963D01*
X115000500Y-75471863D01*
X127638050Y-75471863D01*
X127650309Y-75684477D01*
X127651745Y-75694697D01*
X127698565Y-75902446D01*
X127701645Y-75912275D01*
X127781770Y-76109603D01*
X127786413Y-76118794D01*
X127866460Y-76249420D01*
X127876916Y-76258880D01*
X127885694Y-76255096D01*
X128627978Y-75512812D01*
X128634356Y-75501132D01*
X129364408Y-75501132D01*
X129364539Y-75502965D01*
X129368790Y-75509580D01*
X130110474Y-76251264D01*
X130122484Y-76257823D01*
X130134223Y-76248855D01*
X130165004Y-76206019D01*
X130170315Y-76197180D01*
X130264670Y-76006267D01*
X130268469Y-75996672D01*
X130330376Y-75792915D01*
X130332555Y-75782834D01*
X130360590Y-75569887D01*
X130361109Y-75563212D01*
X130362572Y-75503364D01*
X130362378Y-75496646D01*
X130344781Y-75282604D01*
X130343096Y-75272424D01*
X130291214Y-75065875D01*
X130287894Y-75056124D01*
X130202972Y-74860814D01*
X130198105Y-74851739D01*
X130133063Y-74751197D01*
X130122377Y-74741995D01*
X130112812Y-74746398D01*
X129372022Y-75487188D01*
X129364408Y-75501132D01*
X128634356Y-75501132D01*
X128635592Y-75498868D01*
X128635461Y-75497035D01*
X128631210Y-75490420D01*
X127889849Y-74749059D01*
X127878313Y-74742759D01*
X127866031Y-74752382D01*
X127818089Y-74822662D01*
X127813004Y-74831613D01*
X127723338Y-75024783D01*
X127719775Y-75034470D01*
X127662864Y-75239681D01*
X127660933Y-75249800D01*
X127638302Y-75461574D01*
X127638050Y-75471863D01*
X115000500Y-75471863D01*
X115000500Y-74376427D01*
X128241223Y-74376427D01*
X128247968Y-74388758D01*
X128987188Y-75127978D01*
X129001132Y-75135592D01*
X129002965Y-75135461D01*
X129009580Y-75131210D01*
X129753389Y-74387401D01*
X129760410Y-74374544D01*
X129753611Y-74365213D01*
X129749554Y-74362518D01*
X129563117Y-74259599D01*
X129553705Y-74255369D01*
X129352959Y-74184280D01*
X129342989Y-74181646D01*
X129133327Y-74144301D01*
X129123073Y-74143331D01*
X128910116Y-74140728D01*
X128899832Y-74141448D01*
X128689321Y-74173661D01*
X128679293Y-74176050D01*
X128476868Y-74242212D01*
X128467359Y-74246209D01*
X128278466Y-74344540D01*
X128269734Y-74350039D01*
X128249677Y-74365099D01*
X128241223Y-74376427D01*
X115000500Y-74376427D01*
X115000500Y-74044853D01*
X118239977Y-74044853D01*
X118245258Y-74051907D01*
X118406756Y-74146279D01*
X118416042Y-74150729D01*
X118615001Y-74226703D01*
X118624899Y-74229579D01*
X118833595Y-74272038D01*
X118843823Y-74273257D01*
X119056650Y-74281062D01*
X119066936Y-74280595D01*
X119278185Y-74253534D01*
X119288262Y-74251392D01*
X119492255Y-74190191D01*
X119501842Y-74186433D01*
X119693098Y-74092738D01*
X119701944Y-74087465D01*
X119749247Y-74053723D01*
X119757648Y-74043023D01*
X119750660Y-74029870D01*
X119012812Y-73292022D01*
X118998868Y-73284408D01*
X118997035Y-73284539D01*
X118990420Y-73288790D01*
X118246737Y-74032473D01*
X118239977Y-74044853D01*
X115000500Y-74044853D01*
X115000500Y-72891863D01*
X117638050Y-72891863D01*
X117650309Y-73104477D01*
X117651745Y-73114697D01*
X117698565Y-73322446D01*
X117701645Y-73332275D01*
X117781770Y-73529603D01*
X117786413Y-73538794D01*
X117866460Y-73669420D01*
X117876916Y-73678880D01*
X117885694Y-73675096D01*
X118627978Y-72932812D01*
X118634356Y-72921132D01*
X119364408Y-72921132D01*
X119364539Y-72922965D01*
X119368790Y-72929580D01*
X120110474Y-73671264D01*
X120122484Y-73677823D01*
X120134223Y-73668855D01*
X120165004Y-73626019D01*
X120170315Y-73617180D01*
X120264670Y-73426267D01*
X120268469Y-73416672D01*
X120330376Y-73212915D01*
X120332555Y-73202834D01*
X120360590Y-72989887D01*
X120361109Y-72983212D01*
X120362002Y-72946671D01*
X125495739Y-72946671D01*
X125524614Y-73137599D01*
X125526820Y-73143594D01*
X125526820Y-73143595D01*
X125589086Y-73312832D01*
X125589088Y-73312836D01*
X125591290Y-73318821D01*
X125693045Y-73482934D01*
X125825721Y-73623235D01*
X125830951Y-73626897D01*
X125830952Y-73626898D01*
X125913257Y-73684528D01*
X125983898Y-73733991D01*
X126067200Y-73770039D01*
X126153538Y-73807401D01*
X126161115Y-73810680D01*
X126167363Y-73811985D01*
X126167362Y-73811985D01*
X126345388Y-73849177D01*
X126345392Y-73849177D01*
X126350133Y-73850168D01*
X126356468Y-73850500D01*
X127598259Y-73850500D01*
X127668649Y-73843350D01*
X127735761Y-73836533D01*
X127735762Y-73836533D01*
X127742110Y-73835888D01*
X127926373Y-73778144D01*
X128095261Y-73684528D01*
X128173837Y-73617180D01*
X128237032Y-73563015D01*
X128241875Y-73558864D01*
X128264572Y-73529603D01*
X128356311Y-73411335D01*
X128356313Y-73411332D01*
X128360227Y-73406286D01*
X128445481Y-73233026D01*
X128447088Y-73226856D01*
X128447090Y-73226851D01*
X128492545Y-73052345D01*
X128492545Y-73052342D01*
X128494155Y-73046163D01*
X128499704Y-72940290D01*
X128503927Y-72859710D01*
X128503927Y-72859706D01*
X128504261Y-72853329D01*
X128475386Y-72662401D01*
X128438170Y-72561250D01*
X128410914Y-72487168D01*
X128410912Y-72487164D01*
X128408710Y-72481179D01*
X128329639Y-72353652D01*
X130641722Y-72353652D01*
X130645948Y-72353652D01*
X130645948Y-83352764D01*
X130645886Y-83353553D01*
X130642781Y-83353553D01*
X130644604Y-83369733D01*
X130651736Y-83433026D01*
X130655409Y-83465629D01*
X130692659Y-83572086D01*
X130752665Y-83667584D01*
X130832416Y-83747335D01*
X130927914Y-83807341D01*
X130934586Y-83809676D01*
X130934589Y-83809677D01*
X130981142Y-83825966D01*
X131034371Y-83844591D01*
X131041398Y-83845383D01*
X131041399Y-83845383D01*
X131146447Y-83857219D01*
X131146330Y-83858253D01*
X131146546Y-83858278D01*
X131146546Y-83854052D01*
X133139366Y-83854054D01*
X133153478Y-83854847D01*
X133171649Y-83856895D01*
X133173981Y-83857180D01*
X133241205Y-83866029D01*
X133252077Y-83867460D01*
X133277243Y-83873452D01*
X133308897Y-83884528D01*
X133309474Y-83884730D01*
X133316074Y-83887250D01*
X133368473Y-83908954D01*
X133387289Y-83918674D01*
X133419434Y-83938872D01*
X133429077Y-83945579D01*
X133467479Y-83975046D01*
X133471325Y-83977997D01*
X133483714Y-83988863D01*
X133511137Y-84016286D01*
X133522003Y-84028675D01*
X133554421Y-84070923D01*
X133561128Y-84080566D01*
X133570319Y-84095193D01*
X133581326Y-84112711D01*
X133591046Y-84131527D01*
X133612750Y-84183926D01*
X133615269Y-84190524D01*
X133626548Y-84222757D01*
X133632540Y-84247925D01*
X133642820Y-84326019D01*
X133643105Y-84328351D01*
X133645153Y-84346522D01*
X133645946Y-84360634D01*
X133645948Y-86852764D01*
X133645886Y-86853553D01*
X133642781Y-86853553D01*
X133655409Y-86965629D01*
X133692659Y-87072086D01*
X133752665Y-87167584D01*
X133832416Y-87247335D01*
X133927914Y-87307341D01*
X133934586Y-87309676D01*
X133934589Y-87309677D01*
X133981142Y-87325966D01*
X134034371Y-87344591D01*
X134041398Y-87345383D01*
X134041399Y-87345383D01*
X134146447Y-87357219D01*
X134146330Y-87358253D01*
X134146546Y-87358278D01*
X134146546Y-87354052D01*
X137333419Y-87354052D01*
X137401540Y-87374054D01*
X137448033Y-87427710D01*
X137458137Y-87497984D01*
X137428643Y-87562564D01*
X137390621Y-87592319D01*
X137290039Y-87643569D01*
X137200331Y-87733277D01*
X137142735Y-87846315D01*
X137122889Y-87971619D01*
X137142735Y-88096923D01*
X137200331Y-88209961D01*
X137290039Y-88299669D01*
X137403077Y-88357265D01*
X137412866Y-88358815D01*
X137412868Y-88358816D01*
X137518588Y-88375560D01*
X137528381Y-88377111D01*
X137538174Y-88375560D01*
X137643894Y-88358816D01*
X137643896Y-88358815D01*
X137653685Y-88357265D01*
X137766723Y-88299669D01*
X137856431Y-88209961D01*
X137914027Y-88096923D01*
X137933873Y-87971619D01*
X137914027Y-87846315D01*
X137856431Y-87733277D01*
X137766723Y-87643569D01*
X137666140Y-87592319D01*
X137614525Y-87543570D01*
X137597459Y-87474655D01*
X137620360Y-87407454D01*
X137675958Y-87363302D01*
X137723343Y-87354052D01*
X141145658Y-87354052D01*
X141146447Y-87354114D01*
X141146447Y-87357219D01*
X141162627Y-87355396D01*
X141251495Y-87345383D01*
X141251496Y-87345383D01*
X141258523Y-87344591D01*
X141311752Y-87325966D01*
X141358305Y-87309677D01*
X141358308Y-87309676D01*
X141364980Y-87307341D01*
X141460478Y-87247335D01*
X141540229Y-87167584D01*
X141600235Y-87072086D01*
X141637485Y-86965629D01*
X141650113Y-86853553D01*
X141651147Y-86853670D01*
X141651172Y-86853454D01*
X141646946Y-86853454D01*
X141646947Y-85065963D01*
X147994757Y-85065963D01*
X148011175Y-85261483D01*
X148065258Y-85450091D01*
X148068076Y-85455574D01*
X148152123Y-85619113D01*
X148152126Y-85619117D01*
X148154944Y-85624601D01*
X148276818Y-85778369D01*
X148426238Y-85905535D01*
X148431616Y-85908541D01*
X148431618Y-85908542D01*
X148467932Y-85928837D01*
X148597513Y-86001257D01*
X148784118Y-86061889D01*
X148978946Y-86085121D01*
X148985081Y-86084649D01*
X148985083Y-86084649D01*
X149168434Y-86070541D01*
X149168438Y-86070540D01*
X149174576Y-86070068D01*
X149363556Y-86017303D01*
X149538689Y-85928837D01*
X149568515Y-85905535D01*
X149688453Y-85811829D01*
X149693303Y-85808040D01*
X149723084Y-85773539D01*
X149817485Y-85664173D01*
X149817485Y-85664172D01*
X149821509Y-85659511D01*
X149918425Y-85488909D01*
X149980358Y-85302732D01*
X150004949Y-85108071D01*
X150005341Y-85080000D01*
X149986194Y-84884728D01*
X149984413Y-84878829D01*
X149984412Y-84878824D01*
X149931265Y-84702793D01*
X149929484Y-84696894D01*
X149837370Y-84523653D01*
X149713361Y-84371602D01*
X149562180Y-84246535D01*
X149389585Y-84153213D01*
X149258744Y-84112711D01*
X149208039Y-84097015D01*
X149208036Y-84097014D01*
X149202152Y-84095193D01*
X149196027Y-84094549D01*
X149196026Y-84094549D01*
X149013147Y-84075327D01*
X149013146Y-84075327D01*
X149007019Y-84074683D01*
X148884383Y-84085844D01*
X148817759Y-84091907D01*
X148817758Y-84091907D01*
X148811618Y-84092466D01*
X148805704Y-84094207D01*
X148805702Y-84094207D01*
X148742832Y-84112711D01*
X148623393Y-84147864D01*
X148617928Y-84150721D01*
X148454972Y-84235912D01*
X148454968Y-84235915D01*
X148449512Y-84238767D01*
X148444712Y-84242627D01*
X148444711Y-84242627D01*
X148410326Y-84270273D01*
X148296600Y-84361711D01*
X148170480Y-84512016D01*
X148167516Y-84517408D01*
X148167513Y-84517412D01*
X148088813Y-84660567D01*
X148075956Y-84683954D01*
X148016628Y-84870978D01*
X147994757Y-85065963D01*
X141646947Y-85065963D01*
X141646948Y-84360634D01*
X141647741Y-84346522D01*
X141649789Y-84328351D01*
X141650074Y-84326019D01*
X141660354Y-84247925D01*
X141666346Y-84222757D01*
X141677625Y-84190524D01*
X141680144Y-84183926D01*
X141701848Y-84131527D01*
X141711568Y-84112711D01*
X141722575Y-84095193D01*
X141731766Y-84080566D01*
X141738473Y-84070923D01*
X141770891Y-84028675D01*
X141781757Y-84016286D01*
X141809180Y-83988863D01*
X141821569Y-83977997D01*
X141825415Y-83975046D01*
X141863817Y-83945579D01*
X141873460Y-83938872D01*
X141905605Y-83918674D01*
X141924421Y-83908954D01*
X141976820Y-83887250D01*
X141983420Y-83884730D01*
X141983997Y-83884528D01*
X142015651Y-83873452D01*
X142040817Y-83867460D01*
X142051689Y-83866029D01*
X142118913Y-83857180D01*
X142121245Y-83856895D01*
X142139416Y-83854847D01*
X142153528Y-83854054D01*
X143966491Y-83854052D01*
X144145658Y-83854052D01*
X144146447Y-83854114D01*
X144146447Y-83857219D01*
X144162627Y-83855396D01*
X144251495Y-83845383D01*
X144251496Y-83845383D01*
X144258523Y-83844591D01*
X144311752Y-83825966D01*
X144358305Y-83809677D01*
X144358308Y-83809676D01*
X144364980Y-83807341D01*
X144460478Y-83747335D01*
X144540229Y-83667584D01*
X144600235Y-83572086D01*
X144637485Y-83465629D01*
X144641159Y-83433026D01*
X144650113Y-83353553D01*
X144651147Y-83353670D01*
X144651172Y-83353454D01*
X144646946Y-83353454D01*
X144646946Y-83065963D01*
X154994757Y-83065963D01*
X155011175Y-83261483D01*
X155065258Y-83450091D01*
X155076674Y-83472304D01*
X155152123Y-83619113D01*
X155152126Y-83619117D01*
X155154944Y-83624601D01*
X155276818Y-83778369D01*
X155281511Y-83782363D01*
X155281512Y-83782364D01*
X155388542Y-83873453D01*
X155426238Y-83905535D01*
X155431616Y-83908541D01*
X155431618Y-83908542D01*
X155467932Y-83928837D01*
X155597513Y-84001257D01*
X155784118Y-84061889D01*
X155978946Y-84085121D01*
X155985081Y-84084649D01*
X155985083Y-84084649D01*
X156168434Y-84070541D01*
X156168438Y-84070540D01*
X156174576Y-84070068D01*
X156363556Y-84017303D01*
X156538689Y-83928837D01*
X156568515Y-83905535D01*
X156634355Y-83854095D01*
X156693303Y-83808040D01*
X156723084Y-83773539D01*
X156817485Y-83664173D01*
X156817485Y-83664172D01*
X156821509Y-83659511D01*
X156918425Y-83488909D01*
X156980358Y-83302732D01*
X157004949Y-83108071D01*
X157005341Y-83080000D01*
X156986194Y-82884728D01*
X156984413Y-82878829D01*
X156984412Y-82878824D01*
X156931265Y-82702793D01*
X156929484Y-82696894D01*
X156837370Y-82523653D01*
X156713361Y-82371602D01*
X156562180Y-82246535D01*
X156389585Y-82153213D01*
X156295869Y-82124203D01*
X156208039Y-82097015D01*
X156208036Y-82097014D01*
X156202152Y-82095193D01*
X156196027Y-82094549D01*
X156196026Y-82094549D01*
X156013147Y-82075327D01*
X156013146Y-82075327D01*
X156007019Y-82074683D01*
X155884383Y-82085844D01*
X155817759Y-82091907D01*
X155817758Y-82091907D01*
X155811618Y-82092466D01*
X155805704Y-82094207D01*
X155805702Y-82094207D01*
X155676734Y-82132165D01*
X155623393Y-82147864D01*
X155617928Y-82150721D01*
X155454972Y-82235912D01*
X155454968Y-82235915D01*
X155449512Y-82238767D01*
X155444712Y-82242627D01*
X155444711Y-82242627D01*
X155418784Y-82263473D01*
X155296600Y-82361711D01*
X155170480Y-82512016D01*
X155167516Y-82517408D01*
X155167513Y-82517412D01*
X155125566Y-82593714D01*
X155075956Y-82683954D01*
X155016628Y-82870978D01*
X154994757Y-83065963D01*
X144646946Y-83065963D01*
X144646946Y-79985963D01*
X147994757Y-79985963D01*
X148011175Y-80181483D01*
X148065258Y-80370091D01*
X148068076Y-80375574D01*
X148152123Y-80539113D01*
X148152126Y-80539117D01*
X148154944Y-80544601D01*
X148276818Y-80698369D01*
X148281511Y-80702363D01*
X148281512Y-80702364D01*
X148312321Y-80728584D01*
X148426238Y-80825535D01*
X148431616Y-80828541D01*
X148431618Y-80828542D01*
X148467932Y-80848837D01*
X148597513Y-80921257D01*
X148784118Y-80981889D01*
X148978946Y-81005121D01*
X148985081Y-81004649D01*
X148985083Y-81004649D01*
X149168434Y-80990541D01*
X149168438Y-80990540D01*
X149174576Y-80990068D01*
X149363556Y-80937303D01*
X149538689Y-80848837D01*
X149568515Y-80825535D01*
X149688453Y-80731829D01*
X149693303Y-80728040D01*
X149703167Y-80716613D01*
X149817485Y-80584173D01*
X149817485Y-80584172D01*
X149821509Y-80579511D01*
X149918425Y-80408909D01*
X149980358Y-80222732D01*
X150004949Y-80028071D01*
X150005341Y-80000000D01*
X149986194Y-79804728D01*
X149984413Y-79798829D01*
X149984412Y-79798824D01*
X149931265Y-79622793D01*
X149929484Y-79616894D01*
X149837370Y-79443653D01*
X149713361Y-79291602D01*
X149562180Y-79166535D01*
X149389585Y-79073213D01*
X149295869Y-79044203D01*
X149208039Y-79017015D01*
X149208036Y-79017014D01*
X149202152Y-79015193D01*
X149196027Y-79014549D01*
X149196026Y-79014549D01*
X149013147Y-78995327D01*
X149013146Y-78995327D01*
X149007019Y-78994683D01*
X148884383Y-79005844D01*
X148817759Y-79011907D01*
X148817758Y-79011907D01*
X148811618Y-79012466D01*
X148805704Y-79014207D01*
X148805702Y-79014207D01*
X148676734Y-79052165D01*
X148623393Y-79067864D01*
X148617928Y-79070721D01*
X148454972Y-79155912D01*
X148454968Y-79155915D01*
X148449512Y-79158767D01*
X148444712Y-79162627D01*
X148444711Y-79162627D01*
X148410326Y-79190273D01*
X148296600Y-79281711D01*
X148170480Y-79432016D01*
X148167516Y-79437408D01*
X148167513Y-79437412D01*
X148142476Y-79482955D01*
X148075956Y-79603954D01*
X148016628Y-79790978D01*
X147994757Y-79985963D01*
X144646946Y-79985963D01*
X144646946Y-77985963D01*
X154994757Y-77985963D01*
X155011175Y-78181483D01*
X155065258Y-78370091D01*
X155068076Y-78375574D01*
X155152123Y-78539113D01*
X155152126Y-78539117D01*
X155154944Y-78544601D01*
X155276818Y-78698369D01*
X155426238Y-78825535D01*
X155431616Y-78828541D01*
X155431618Y-78828542D01*
X155467932Y-78848837D01*
X155597513Y-78921257D01*
X155784118Y-78981889D01*
X155978946Y-79005121D01*
X155985081Y-79004649D01*
X155985083Y-79004649D01*
X156168434Y-78990541D01*
X156168438Y-78990540D01*
X156174576Y-78990068D01*
X156363556Y-78937303D01*
X156538689Y-78848837D01*
X156568515Y-78825535D01*
X156688453Y-78731829D01*
X156693303Y-78728040D01*
X156723084Y-78693539D01*
X156817485Y-78584173D01*
X156817485Y-78584172D01*
X156821509Y-78579511D01*
X156918425Y-78408909D01*
X156980358Y-78222732D01*
X157004949Y-78028071D01*
X157005341Y-78000000D01*
X156986194Y-77804728D01*
X156984413Y-77798829D01*
X156984412Y-77798824D01*
X156931265Y-77622793D01*
X156929484Y-77616894D01*
X156837370Y-77443653D01*
X156713361Y-77291602D01*
X156562180Y-77166535D01*
X156389585Y-77073213D01*
X156273081Y-77037149D01*
X156208039Y-77017015D01*
X156208036Y-77017014D01*
X156202152Y-77015193D01*
X156196027Y-77014549D01*
X156196026Y-77014549D01*
X156013147Y-76995327D01*
X156013146Y-76995327D01*
X156007019Y-76994683D01*
X155884383Y-77005844D01*
X155817759Y-77011907D01*
X155817758Y-77011907D01*
X155811618Y-77012466D01*
X155805704Y-77014207D01*
X155805702Y-77014207D01*
X155727753Y-77037149D01*
X155623393Y-77067864D01*
X155617928Y-77070721D01*
X155454972Y-77155912D01*
X155454968Y-77155915D01*
X155449512Y-77158767D01*
X155444712Y-77162627D01*
X155444711Y-77162627D01*
X155410326Y-77190273D01*
X155296600Y-77281711D01*
X155170480Y-77432016D01*
X155167516Y-77437408D01*
X155167513Y-77437412D01*
X155119819Y-77524168D01*
X155075956Y-77603954D01*
X155074095Y-77609821D01*
X155074094Y-77609823D01*
X155071851Y-77616894D01*
X155016628Y-77790978D01*
X154994757Y-77985963D01*
X144646946Y-77985963D01*
X144646946Y-76044853D01*
X148239977Y-76044853D01*
X148245258Y-76051907D01*
X148406756Y-76146279D01*
X148416042Y-76150729D01*
X148615001Y-76226703D01*
X148624899Y-76229579D01*
X148833595Y-76272038D01*
X148843823Y-76273257D01*
X149056650Y-76281062D01*
X149066936Y-76280595D01*
X149278185Y-76253534D01*
X149288262Y-76251392D01*
X149492255Y-76190191D01*
X149501842Y-76186433D01*
X149693098Y-76092738D01*
X149701944Y-76087465D01*
X149749247Y-76053723D01*
X149757648Y-76043023D01*
X149750660Y-76029870D01*
X149012812Y-75292022D01*
X148998868Y-75284408D01*
X148997035Y-75284539D01*
X148990420Y-75288790D01*
X148246737Y-76032473D01*
X148239977Y-76044853D01*
X144646946Y-76044853D01*
X144646946Y-74891863D01*
X147638050Y-74891863D01*
X147650309Y-75104477D01*
X147651745Y-75114697D01*
X147698565Y-75322446D01*
X147701645Y-75332275D01*
X147781770Y-75529603D01*
X147786413Y-75538794D01*
X147866460Y-75669420D01*
X147876916Y-75678880D01*
X147885694Y-75675096D01*
X148627978Y-74932812D01*
X148634356Y-74921132D01*
X149364408Y-74921132D01*
X149364539Y-74922965D01*
X149368790Y-74929580D01*
X150110474Y-75671264D01*
X150122484Y-75677823D01*
X150134223Y-75668855D01*
X150165004Y-75626019D01*
X150170315Y-75617180D01*
X150264670Y-75426267D01*
X150268469Y-75416672D01*
X150330376Y-75212915D01*
X150332555Y-75202834D01*
X150360590Y-74989887D01*
X150361109Y-74983212D01*
X150362572Y-74923364D01*
X150362378Y-74916646D01*
X150344781Y-74702604D01*
X150343096Y-74692424D01*
X150291214Y-74485875D01*
X150287894Y-74476124D01*
X150202972Y-74280814D01*
X150198105Y-74271739D01*
X150133063Y-74171197D01*
X150122377Y-74161995D01*
X150112812Y-74166398D01*
X149372022Y-74907188D01*
X149364408Y-74921132D01*
X148634356Y-74921132D01*
X148635592Y-74918868D01*
X148635461Y-74917035D01*
X148631210Y-74910420D01*
X147889849Y-74169059D01*
X147878313Y-74162759D01*
X147866031Y-74172382D01*
X147818089Y-74242662D01*
X147813004Y-74251613D01*
X147723338Y-74444783D01*
X147719775Y-74454470D01*
X147662864Y-74659681D01*
X147660933Y-74669800D01*
X147638302Y-74881574D01*
X147638050Y-74891863D01*
X144646946Y-74891863D01*
X144646946Y-73796427D01*
X148241223Y-73796427D01*
X148247968Y-73808758D01*
X148987188Y-74547978D01*
X149001132Y-74555592D01*
X149002965Y-74555461D01*
X149009580Y-74551210D01*
X149515937Y-74044853D01*
X155239977Y-74044853D01*
X155245258Y-74051907D01*
X155406756Y-74146279D01*
X155416042Y-74150729D01*
X155615001Y-74226703D01*
X155624899Y-74229579D01*
X155833595Y-74272038D01*
X155843823Y-74273257D01*
X156056650Y-74281062D01*
X156066936Y-74280595D01*
X156278185Y-74253534D01*
X156288262Y-74251392D01*
X156492255Y-74190191D01*
X156501842Y-74186433D01*
X156693098Y-74092738D01*
X156701944Y-74087465D01*
X156749247Y-74053723D01*
X156757648Y-74043023D01*
X156750660Y-74029870D01*
X156012812Y-73292022D01*
X155998868Y-73284408D01*
X155997035Y-73284539D01*
X155990420Y-73288790D01*
X155246737Y-74032473D01*
X155239977Y-74044853D01*
X149515937Y-74044853D01*
X149753389Y-73807401D01*
X149760410Y-73794544D01*
X149753611Y-73785213D01*
X149749554Y-73782518D01*
X149563117Y-73679599D01*
X149553705Y-73675369D01*
X149352959Y-73604280D01*
X149342989Y-73601646D01*
X149133327Y-73564301D01*
X149123073Y-73563331D01*
X148910116Y-73560728D01*
X148899832Y-73561448D01*
X148689321Y-73593661D01*
X148679293Y-73596050D01*
X148476868Y-73662212D01*
X148467359Y-73666209D01*
X148278466Y-73764540D01*
X148269734Y-73770039D01*
X148249677Y-73785099D01*
X148241223Y-73796427D01*
X144646946Y-73796427D01*
X144646946Y-72891863D01*
X154638050Y-72891863D01*
X154650309Y-73104477D01*
X154651745Y-73114697D01*
X154698565Y-73322446D01*
X154701645Y-73332275D01*
X154781770Y-73529603D01*
X154786413Y-73538794D01*
X154866460Y-73669420D01*
X154876916Y-73678880D01*
X154885694Y-73675096D01*
X155627978Y-72932812D01*
X155634356Y-72921132D01*
X156364408Y-72921132D01*
X156364539Y-72922965D01*
X156368790Y-72929580D01*
X157110474Y-73671264D01*
X157122484Y-73677823D01*
X157134223Y-73668855D01*
X157165004Y-73626019D01*
X157170315Y-73617180D01*
X157264670Y-73426267D01*
X157268469Y-73416672D01*
X157330376Y-73212915D01*
X157332555Y-73202834D01*
X157360590Y-72989887D01*
X157361109Y-72983212D01*
X157362572Y-72923364D01*
X157362378Y-72916646D01*
X157344781Y-72702604D01*
X157343096Y-72692424D01*
X157291214Y-72485875D01*
X157287894Y-72476124D01*
X157202972Y-72280814D01*
X157198105Y-72271739D01*
X157133063Y-72171197D01*
X157122377Y-72161995D01*
X157112812Y-72166398D01*
X156372022Y-72907188D01*
X156364408Y-72921132D01*
X155634356Y-72921132D01*
X155635592Y-72918868D01*
X155635461Y-72917035D01*
X155631210Y-72910420D01*
X154889849Y-72169059D01*
X154878313Y-72162759D01*
X154866031Y-72172382D01*
X154818089Y-72242662D01*
X154813004Y-72251613D01*
X154723338Y-72444783D01*
X154719775Y-72454470D01*
X154662864Y-72659681D01*
X154660933Y-72669800D01*
X154638302Y-72881574D01*
X154638050Y-72891863D01*
X144646946Y-72891863D01*
X144646946Y-72354342D01*
X144647008Y-72353553D01*
X144650113Y-72353553D01*
X144637485Y-72241477D01*
X144612894Y-72171197D01*
X144602571Y-72141695D01*
X144602570Y-72141692D01*
X144600235Y-72135020D01*
X144540229Y-72039522D01*
X144460478Y-71959771D01*
X144446238Y-71950823D01*
X144429353Y-71940213D01*
X144364980Y-71899765D01*
X144358308Y-71897430D01*
X144358305Y-71897429D01*
X144311751Y-71881140D01*
X144258523Y-71862515D01*
X144251496Y-71861723D01*
X144251495Y-71861723D01*
X144146447Y-71849887D01*
X144146564Y-71848853D01*
X144146348Y-71848828D01*
X144146348Y-71853054D01*
X142153538Y-71853052D01*
X142139426Y-71852259D01*
X142121246Y-71850210D01*
X142118912Y-71849925D01*
X142040817Y-71839644D01*
X142015651Y-71833652D01*
X141992714Y-71825627D01*
X141983429Y-71822377D01*
X141976830Y-71819859D01*
X141924417Y-71798148D01*
X141921086Y-71796427D01*
X155241223Y-71796427D01*
X155247968Y-71808758D01*
X155987188Y-72547978D01*
X156001132Y-72555592D01*
X156002965Y-72555461D01*
X156009580Y-72551210D01*
X156753389Y-71807401D01*
X156760410Y-71794544D01*
X156753611Y-71785213D01*
X156749554Y-71782518D01*
X156563117Y-71679599D01*
X156553705Y-71675369D01*
X156352959Y-71604280D01*
X156342989Y-71601646D01*
X156133327Y-71564301D01*
X156123073Y-71563331D01*
X155910116Y-71560728D01*
X155899832Y-71561448D01*
X155689321Y-71593661D01*
X155679293Y-71596050D01*
X155476868Y-71662212D01*
X155467359Y-71666209D01*
X155278466Y-71764540D01*
X155269734Y-71770039D01*
X155249677Y-71785099D01*
X155241223Y-71796427D01*
X141921086Y-71796427D01*
X141905602Y-71788428D01*
X141896196Y-71782518D01*
X141873463Y-71768234D01*
X141863807Y-71761517D01*
X141821570Y-71729108D01*
X141809189Y-71718250D01*
X141781752Y-71690812D01*
X141770887Y-71678424D01*
X141738488Y-71636201D01*
X141731762Y-71626532D01*
X141717781Y-71604280D01*
X141711572Y-71594399D01*
X141701852Y-71575584D01*
X141682981Y-71530028D01*
X141680140Y-71523168D01*
X141677622Y-71516571D01*
X141666346Y-71484346D01*
X141660356Y-71459190D01*
X141650071Y-71381071D01*
X141649786Y-71378739D01*
X141647740Y-71360580D01*
X141646948Y-71346473D01*
X141646947Y-70500000D01*
X146369819Y-70500000D01*
X146388426Y-70617482D01*
X146442427Y-70723465D01*
X146526535Y-70807573D01*
X146632518Y-70861574D01*
X146750000Y-70880181D01*
X146867482Y-70861574D01*
X146973465Y-70807573D01*
X147057573Y-70723465D01*
X147111574Y-70617482D01*
X147130181Y-70500000D01*
X147111574Y-70382518D01*
X147057573Y-70276535D01*
X146973465Y-70192427D01*
X146867482Y-70138426D01*
X146750000Y-70119819D01*
X146632518Y-70138426D01*
X146526535Y-70192427D01*
X146442427Y-70276535D01*
X146388426Y-70382518D01*
X146369819Y-70500000D01*
X141646947Y-70500000D01*
X141646945Y-68854342D01*
X141647007Y-68853553D01*
X141650112Y-68853553D01*
X141637484Y-68741477D01*
X141600233Y-68635021D01*
X141540228Y-68539523D01*
X141460477Y-68459772D01*
X141454482Y-68456005D01*
X141370970Y-68403531D01*
X141370967Y-68403530D01*
X141364979Y-68399767D01*
X141258523Y-68362516D01*
X141251500Y-68361725D01*
X141251497Y-68361724D01*
X141146447Y-68349888D01*
X141146564Y-68348853D01*
X141146350Y-68348829D01*
X141146350Y-68353054D01*
X134147236Y-68353054D01*
X134146447Y-68352992D01*
X134146447Y-68349887D01*
X134130267Y-68351710D01*
X134041399Y-68361723D01*
X134041398Y-68361723D01*
X134034371Y-68362515D01*
X133981143Y-68381140D01*
X133934589Y-68397429D01*
X133934586Y-68397430D01*
X133927914Y-68399765D01*
X133832416Y-68459771D01*
X133752665Y-68539522D01*
X133692659Y-68635020D01*
X133655409Y-68741477D01*
X133642781Y-68853553D01*
X133641748Y-68853437D01*
X133641723Y-68853655D01*
X133645949Y-68853655D01*
X133645946Y-71346481D01*
X133645154Y-71360588D01*
X133643108Y-71378748D01*
X133642822Y-71381089D01*
X133632540Y-71459182D01*
X133626548Y-71484346D01*
X133615273Y-71516571D01*
X133612754Y-71523171D01*
X133595718Y-71564301D01*
X133591043Y-71575587D01*
X133581324Y-71594399D01*
X133561142Y-71626519D01*
X133554419Y-71636184D01*
X133522003Y-71678430D01*
X133511135Y-71690822D01*
X133483717Y-71718240D01*
X133471325Y-71729108D01*
X133429079Y-71761524D01*
X133419417Y-71768245D01*
X133387296Y-71788428D01*
X133368486Y-71798146D01*
X133346143Y-71807401D01*
X133316072Y-71819857D01*
X133309466Y-71822378D01*
X133277241Y-71833653D01*
X133252077Y-71839645D01*
X133201822Y-71846262D01*
X133173951Y-71849931D01*
X133171668Y-71850210D01*
X133153473Y-71852260D01*
X133139368Y-71853052D01*
X131326450Y-71853054D01*
X131147236Y-71853054D01*
X131146447Y-71852992D01*
X131146447Y-71849887D01*
X131130267Y-71851710D01*
X131041399Y-71861723D01*
X131041398Y-71861723D01*
X131034371Y-71862515D01*
X130981143Y-71881140D01*
X130934589Y-71897429D01*
X130934586Y-71897430D01*
X130927914Y-71899765D01*
X130863541Y-71940213D01*
X130846657Y-71950823D01*
X130832416Y-71959771D01*
X130752665Y-72039522D01*
X130692659Y-72135020D01*
X130690324Y-72141692D01*
X130690323Y-72141695D01*
X130680000Y-72171197D01*
X130655409Y-72241477D01*
X130642781Y-72353553D01*
X130641747Y-72353436D01*
X130641722Y-72353652D01*
X128329639Y-72353652D01*
X128306955Y-72317066D01*
X128174279Y-72176765D01*
X128168020Y-72172382D01*
X128021335Y-72069673D01*
X128021334Y-72069672D01*
X128016102Y-72066009D01*
X127838885Y-71989320D01*
X127797853Y-71980748D01*
X127654612Y-71950823D01*
X127654608Y-71950823D01*
X127649867Y-71949832D01*
X127643532Y-71949500D01*
X126401741Y-71949500D01*
X126331351Y-71956650D01*
X126264239Y-71963467D01*
X126264238Y-71963467D01*
X126257890Y-71964112D01*
X126073627Y-72021856D01*
X125904739Y-72115472D01*
X125758125Y-72241136D01*
X125754214Y-72246178D01*
X125754213Y-72246179D01*
X125670986Y-72353475D01*
X125639773Y-72393714D01*
X125554519Y-72566974D01*
X125552912Y-72573144D01*
X125552910Y-72573149D01*
X125519190Y-72702604D01*
X125505845Y-72753837D01*
X125505511Y-72760216D01*
X125496635Y-72929580D01*
X125495739Y-72946671D01*
X120362002Y-72946671D01*
X120362572Y-72923364D01*
X120362378Y-72916646D01*
X120344781Y-72702604D01*
X120343096Y-72692424D01*
X120291214Y-72485875D01*
X120287894Y-72476124D01*
X120202972Y-72280814D01*
X120198105Y-72271739D01*
X120133063Y-72171197D01*
X120122377Y-72161995D01*
X120112812Y-72166398D01*
X119372022Y-72907188D01*
X119364408Y-72921132D01*
X118634356Y-72921132D01*
X118635592Y-72918868D01*
X118635461Y-72917035D01*
X118631210Y-72910420D01*
X117889849Y-72169059D01*
X117878313Y-72162759D01*
X117866031Y-72172382D01*
X117818089Y-72242662D01*
X117813004Y-72251613D01*
X117723338Y-72444783D01*
X117719775Y-72454470D01*
X117662864Y-72659681D01*
X117660933Y-72669800D01*
X117638302Y-72881574D01*
X117638050Y-72891863D01*
X115000500Y-72891863D01*
X115000500Y-71796427D01*
X118241223Y-71796427D01*
X118247968Y-71808758D01*
X118987188Y-72547978D01*
X119001132Y-72555592D01*
X119002965Y-72555461D01*
X119009580Y-72551210D01*
X119753389Y-71807401D01*
X119760410Y-71794544D01*
X119753611Y-71785213D01*
X119749554Y-71782518D01*
X119563117Y-71679599D01*
X119553705Y-71675369D01*
X119352959Y-71604280D01*
X119342989Y-71601646D01*
X119133327Y-71564301D01*
X119123073Y-71563331D01*
X118910116Y-71560728D01*
X118899832Y-71561448D01*
X118689321Y-71593661D01*
X118679293Y-71596050D01*
X118476868Y-71662212D01*
X118467359Y-71666209D01*
X118278466Y-71764540D01*
X118269734Y-71770039D01*
X118249677Y-71785099D01*
X118241223Y-71796427D01*
X115000500Y-71796427D01*
X115000500Y-68094594D01*
X116798074Y-68094594D01*
X116799053Y-68100291D01*
X116799053Y-68100292D01*
X116803475Y-68126024D01*
X116835438Y-68312043D01*
X116911804Y-68519043D01*
X116914756Y-68524004D01*
X116914756Y-68524005D01*
X116981880Y-68636829D01*
X117024614Y-68708659D01*
X117170090Y-68874543D01*
X117343360Y-69011137D01*
X117538620Y-69113869D01*
X117749333Y-69179297D01*
X117755070Y-69179976D01*
X117924789Y-69200064D01*
X117924795Y-69200064D01*
X117928476Y-69200500D01*
X118055970Y-69200500D01*
X118219711Y-69185454D01*
X118225273Y-69183885D01*
X118225275Y-69183885D01*
X118325888Y-69155509D01*
X118432064Y-69125565D01*
X118629947Y-69027980D01*
X118652503Y-69011137D01*
X118802109Y-68899420D01*
X118802110Y-68899420D01*
X118806733Y-68895967D01*
X118943046Y-68748505D01*
X118952582Y-68738189D01*
X118952584Y-68738186D01*
X118956501Y-68733949D01*
X119074236Y-68547350D01*
X119155994Y-68342421D01*
X119199038Y-68126024D01*
X119199450Y-68094594D01*
X155798074Y-68094594D01*
X155799053Y-68100291D01*
X155799053Y-68100292D01*
X155803475Y-68126024D01*
X155835438Y-68312043D01*
X155911804Y-68519043D01*
X155914756Y-68524004D01*
X155914756Y-68524005D01*
X155981880Y-68636829D01*
X156024614Y-68708659D01*
X156170090Y-68874543D01*
X156343360Y-69011137D01*
X156538620Y-69113869D01*
X156749333Y-69179297D01*
X156755070Y-69179976D01*
X156924789Y-69200064D01*
X156924795Y-69200064D01*
X156928476Y-69200500D01*
X157055970Y-69200500D01*
X157219711Y-69185454D01*
X157225273Y-69183885D01*
X157225275Y-69183885D01*
X157325888Y-69155509D01*
X157432064Y-69125565D01*
X157629947Y-69027980D01*
X157652503Y-69011137D01*
X157802109Y-68899420D01*
X157802110Y-68899420D01*
X157806733Y-68895967D01*
X157943046Y-68748505D01*
X157952582Y-68738189D01*
X157952584Y-68738186D01*
X157956501Y-68733949D01*
X158074236Y-68547350D01*
X158155994Y-68342421D01*
X158199038Y-68126024D01*
X158199450Y-68094594D01*
X158200563Y-68009504D01*
X158201926Y-67905406D01*
X158200947Y-67899708D01*
X158165541Y-67693654D01*
X158165541Y-67693653D01*
X158164562Y-67687957D01*
X158088196Y-67480957D01*
X158026129Y-67376632D01*
X157978340Y-67296306D01*
X157978339Y-67296305D01*
X157975386Y-67291341D01*
X157829910Y-67125457D01*
X157656640Y-66988863D01*
X157461380Y-66886131D01*
X157250667Y-66820703D01*
X157236718Y-66819052D01*
X157075211Y-66799936D01*
X157075205Y-66799936D01*
X157071524Y-66799500D01*
X156944030Y-66799500D01*
X156780289Y-66814546D01*
X156774727Y-66816115D01*
X156774725Y-66816115D01*
X156674113Y-66844490D01*
X156567936Y-66874435D01*
X156370053Y-66972020D01*
X156365427Y-66975474D01*
X156365426Y-66975475D01*
X156236804Y-67071522D01*
X156193267Y-67104033D01*
X156130940Y-67171458D01*
X156049284Y-67259793D01*
X156043499Y-67266051D01*
X155925764Y-67452650D01*
X155844006Y-67657579D01*
X155842880Y-67663239D01*
X155842879Y-67663243D01*
X155802344Y-67867028D01*
X155800962Y-67873976D01*
X155800886Y-67879751D01*
X155800886Y-67879755D01*
X155800475Y-67911188D01*
X155798074Y-68094594D01*
X119199450Y-68094594D01*
X119200563Y-68009504D01*
X119201926Y-67905406D01*
X119200947Y-67899708D01*
X119165541Y-67693654D01*
X119165541Y-67693653D01*
X119164562Y-67687957D01*
X119088196Y-67480957D01*
X119026129Y-67376632D01*
X118978340Y-67296306D01*
X118978339Y-67296305D01*
X118975386Y-67291341D01*
X118939131Y-67250000D01*
X144094508Y-67250000D01*
X144096059Y-67259793D01*
X144112688Y-67364783D01*
X144114354Y-67375304D01*
X144171950Y-67488342D01*
X144261658Y-67578050D01*
X144374696Y-67635646D01*
X144384485Y-67637196D01*
X144384487Y-67637197D01*
X144490207Y-67653941D01*
X144500000Y-67655492D01*
X144509793Y-67653941D01*
X144615513Y-67637197D01*
X144615515Y-67637196D01*
X144625304Y-67635646D01*
X144738342Y-67578050D01*
X144828050Y-67488342D01*
X144885646Y-67375304D01*
X144887588Y-67376294D01*
X144920241Y-67328542D01*
X144985638Y-67300905D01*
X145055595Y-67313012D01*
X145107900Y-67361019D01*
X145114317Y-67375068D01*
X145114354Y-67375304D01*
X145171950Y-67488342D01*
X145261658Y-67578050D01*
X145374696Y-67635646D01*
X145384485Y-67637196D01*
X145384487Y-67637197D01*
X145490207Y-67653941D01*
X145500000Y-67655492D01*
X145509793Y-67653941D01*
X145615513Y-67637197D01*
X145615515Y-67637196D01*
X145625304Y-67635646D01*
X145738342Y-67578050D01*
X145828050Y-67488342D01*
X145885646Y-67375304D01*
X145887313Y-67364783D01*
X145903941Y-67259793D01*
X145905492Y-67250000D01*
X145893052Y-67171458D01*
X145887197Y-67134487D01*
X145887196Y-67134485D01*
X145885646Y-67124696D01*
X145828050Y-67011658D01*
X145738342Y-66921950D01*
X145625304Y-66864354D01*
X145615515Y-66862804D01*
X145615513Y-66862803D01*
X145509793Y-66846059D01*
X145500000Y-66844508D01*
X145490207Y-66846059D01*
X145384487Y-66862803D01*
X145384485Y-66862804D01*
X145374696Y-66864354D01*
X145261658Y-66921950D01*
X145171950Y-67011658D01*
X145114354Y-67124696D01*
X145112412Y-67123706D01*
X145079759Y-67171458D01*
X145014362Y-67199095D01*
X144944405Y-67186988D01*
X144892100Y-67138981D01*
X144885683Y-67124932D01*
X144885646Y-67124696D01*
X144828050Y-67011658D01*
X144738342Y-66921950D01*
X144625304Y-66864354D01*
X144615515Y-66862804D01*
X144615513Y-66862803D01*
X144509793Y-66846059D01*
X144500000Y-66844508D01*
X144490207Y-66846059D01*
X144384487Y-66862803D01*
X144384485Y-66862804D01*
X144374696Y-66864354D01*
X144261658Y-66921950D01*
X144171950Y-67011658D01*
X144114354Y-67124696D01*
X144112804Y-67134485D01*
X144112803Y-67134487D01*
X144106948Y-67171458D01*
X144094508Y-67250000D01*
X118939131Y-67250000D01*
X118829910Y-67125457D01*
X118656640Y-66988863D01*
X118461380Y-66886131D01*
X118250667Y-66820703D01*
X118236718Y-66819052D01*
X118075211Y-66799936D01*
X118075205Y-66799936D01*
X118071524Y-66799500D01*
X117944030Y-66799500D01*
X117780289Y-66814546D01*
X117774727Y-66816115D01*
X117774725Y-66816115D01*
X117674113Y-66844490D01*
X117567936Y-66874435D01*
X117370053Y-66972020D01*
X117365427Y-66975474D01*
X117365426Y-66975475D01*
X117236804Y-67071522D01*
X117193267Y-67104033D01*
X117130940Y-67171458D01*
X117049284Y-67259793D01*
X117043499Y-67266051D01*
X116925764Y-67452650D01*
X116844006Y-67657579D01*
X116842880Y-67663239D01*
X116842879Y-67663243D01*
X116802344Y-67867028D01*
X116800962Y-67873976D01*
X116800886Y-67879751D01*
X116800886Y-67879755D01*
X116800475Y-67911188D01*
X116798074Y-68094594D01*
X115000500Y-68094594D01*
X115000500Y-68003301D01*
X115000673Y-67996707D01*
X115007469Y-67867028D01*
X115007494Y-67866558D01*
X115011526Y-67794758D01*
X115017622Y-67686212D01*
X115018974Y-67673572D01*
X115021507Y-67657579D01*
X115042515Y-67524939D01*
X115042694Y-67523850D01*
X115066432Y-67384137D01*
X115069721Y-67364783D01*
X115072234Y-67353279D01*
X115112115Y-67204438D01*
X115112747Y-67202167D01*
X115156321Y-67050920D01*
X115159765Y-67040647D01*
X115173584Y-67004647D01*
X115215539Y-66895353D01*
X115216755Y-66892304D01*
X115242883Y-66829225D01*
X115276397Y-66748315D01*
X115280530Y-66739349D01*
X115351557Y-66599951D01*
X115353528Y-66596239D01*
X115380886Y-66546739D01*
X140245483Y-66546739D01*
X140265329Y-66672043D01*
X140322925Y-66785081D01*
X140412633Y-66874789D01*
X140525671Y-66932385D01*
X140535460Y-66933935D01*
X140535462Y-66933936D01*
X140641182Y-66950680D01*
X140650975Y-66952231D01*
X140660768Y-66950680D01*
X140766488Y-66933936D01*
X140766490Y-66933935D01*
X140776279Y-66932385D01*
X140889317Y-66874789D01*
X140979025Y-66785081D01*
X141036621Y-66672043D01*
X141056467Y-66546739D01*
X141036621Y-66421435D01*
X140979025Y-66308397D01*
X140889317Y-66218689D01*
X140776279Y-66161093D01*
X140766490Y-66159543D01*
X140766488Y-66159542D01*
X140660768Y-66142798D01*
X140650975Y-66141247D01*
X140641182Y-66142798D01*
X140535462Y-66159542D01*
X140535460Y-66159543D01*
X140525671Y-66161093D01*
X140412633Y-66218689D01*
X140322925Y-66308397D01*
X140265329Y-66421435D01*
X140245483Y-66546739D01*
X115380886Y-66546739D01*
X115428539Y-66460517D01*
X115433145Y-66452841D01*
X115518564Y-66321308D01*
X115521475Y-66317021D01*
X115586270Y-66225700D01*
X115610976Y-66190881D01*
X115615797Y-66184525D01*
X115714632Y-66062473D01*
X115718595Y-66057815D01*
X115821547Y-65942612D01*
X115826403Y-65937477D01*
X115937478Y-65826402D01*
X115942613Y-65821546D01*
X116057815Y-65718595D01*
X116062481Y-65714626D01*
X116184525Y-65615797D01*
X116190881Y-65610976D01*
X116317021Y-65521475D01*
X116321308Y-65518564D01*
X116452841Y-65433145D01*
X116460517Y-65428539D01*
X116596239Y-65353528D01*
X116599951Y-65351557D01*
X116739349Y-65280530D01*
X116748315Y-65276397D01*
X116892304Y-65216755D01*
X116895353Y-65215539D01*
X117040650Y-65159764D01*
X117050920Y-65156321D01*
X117202167Y-65112747D01*
X117204438Y-65112115D01*
X117353279Y-65072234D01*
X117364783Y-65069721D01*
X117435824Y-65057650D01*
X117523850Y-65042694D01*
X117524939Y-65042515D01*
X117673579Y-65018973D01*
X117686210Y-65017622D01*
X117866451Y-65007499D01*
X117960529Y-65002569D01*
X117996707Y-65000673D01*
X118003301Y-65000500D01*
X129986321Y-65000500D01*
X130000000Y-65001745D01*
X130000000Y-65004792D01*
X130068993Y-65000270D01*
X130077235Y-65000000D01*
X132000000Y-65000000D01*
X132000000Y-64500000D01*
X136594508Y-64500000D01*
X136596059Y-64509793D01*
X136611873Y-64609637D01*
X136614354Y-64625304D01*
X136671950Y-64738342D01*
X136761658Y-64828050D01*
X136874696Y-64885646D01*
X136884485Y-64887196D01*
X136884487Y-64887197D01*
X136990207Y-64903941D01*
X137000000Y-64905492D01*
X137009793Y-64903941D01*
X137115513Y-64887197D01*
X137115515Y-64887196D01*
X137125304Y-64885646D01*
X137238342Y-64828050D01*
X137328050Y-64738342D01*
X137385646Y-64625304D01*
X137386321Y-64621042D01*
X137424639Y-64565003D01*
X137490036Y-64537366D01*
X137559993Y-64549473D01*
X137612299Y-64597479D01*
X137616666Y-64605342D01*
X137622027Y-64615863D01*
X137671950Y-64713842D01*
X137761658Y-64803550D01*
X137874696Y-64861146D01*
X137884485Y-64862696D01*
X137884487Y-64862697D01*
X137990207Y-64879441D01*
X138000000Y-64880992D01*
X138009793Y-64879441D01*
X138115513Y-64862697D01*
X138115515Y-64862696D01*
X138125304Y-64861146D01*
X138238342Y-64803550D01*
X138328050Y-64713842D01*
X138385646Y-64600804D01*
X138395694Y-64537366D01*
X138403941Y-64485293D01*
X138405492Y-64475500D01*
X138394158Y-64403941D01*
X138387197Y-64359987D01*
X138387196Y-64359985D01*
X138385646Y-64350196D01*
X138328050Y-64237158D01*
X138238342Y-64147450D01*
X138125304Y-64089854D01*
X138115515Y-64088304D01*
X138115513Y-64088303D01*
X138009793Y-64071559D01*
X138000000Y-64070008D01*
X137990207Y-64071559D01*
X137884487Y-64088303D01*
X137884485Y-64088304D01*
X137874696Y-64089854D01*
X137761658Y-64147450D01*
X137671950Y-64237158D01*
X137614354Y-64350196D01*
X137613679Y-64354458D01*
X137575361Y-64410497D01*
X137509964Y-64438134D01*
X137440007Y-64426027D01*
X137387701Y-64378021D01*
X137383334Y-64370158D01*
X137364171Y-64332550D01*
X137328050Y-64261658D01*
X137238342Y-64171950D01*
X137125304Y-64114354D01*
X137115515Y-64112804D01*
X137115513Y-64112803D01*
X137009793Y-64096059D01*
X137000000Y-64094508D01*
X136990207Y-64096059D01*
X136884487Y-64112803D01*
X136884485Y-64112804D01*
X136874696Y-64114354D01*
X136761658Y-64171950D01*
X136671950Y-64261658D01*
X136614354Y-64374696D01*
X136612804Y-64384485D01*
X136612803Y-64384487D01*
X136599939Y-64465707D01*
X136594508Y-64500000D01*
X132000000Y-64500000D01*
X132000000Y-64000000D01*
X141594508Y-64000000D01*
X141596059Y-64009793D01*
X141612620Y-64114354D01*
X141614354Y-64125304D01*
X141671950Y-64238342D01*
X141761658Y-64328050D01*
X141874696Y-64385646D01*
X141884485Y-64387196D01*
X141884487Y-64387197D01*
X141990207Y-64403941D01*
X142000000Y-64405492D01*
X142009793Y-64403941D01*
X142115513Y-64387197D01*
X142115515Y-64387196D01*
X142125304Y-64385646D01*
X142238342Y-64328050D01*
X142328050Y-64238342D01*
X142385646Y-64125304D01*
X142387381Y-64114354D01*
X142403941Y-64009793D01*
X142405492Y-64000000D01*
X142385646Y-63874696D01*
X142328050Y-63761658D01*
X142238342Y-63671950D01*
X142125304Y-63614354D01*
X142115515Y-63612804D01*
X142115513Y-63612803D01*
X142009793Y-63596059D01*
X142000000Y-63594508D01*
X141990207Y-63596059D01*
X141884487Y-63612803D01*
X141884485Y-63612804D01*
X141874696Y-63614354D01*
X141761658Y-63671950D01*
X141671950Y-63761658D01*
X141614354Y-63874696D01*
X141594508Y-64000000D01*
X132000000Y-64000000D01*
X132000000Y-63077235D01*
X132000270Y-63068994D01*
X132003607Y-63018079D01*
X132004792Y-63000000D01*
X132001576Y-63000000D01*
X132000500Y-62990268D01*
X132000500Y-62504544D01*
X139353863Y-62504544D01*
X139373709Y-62629848D01*
X139431305Y-62742886D01*
X139521013Y-62832594D01*
X139634051Y-62890190D01*
X139643840Y-62891740D01*
X139643842Y-62891741D01*
X139749562Y-62908485D01*
X139759355Y-62910036D01*
X139769148Y-62908485D01*
X139874868Y-62891741D01*
X139874870Y-62891740D01*
X139884659Y-62890190D01*
X139997697Y-62832594D01*
X140087405Y-62742886D01*
X140145001Y-62629848D01*
X140164847Y-62504544D01*
X140145001Y-62379240D01*
X140087405Y-62266202D01*
X139997697Y-62176494D01*
X139884659Y-62118898D01*
X139874870Y-62117348D01*
X139874868Y-62117347D01*
X139769148Y-62100603D01*
X139759355Y-62099052D01*
X139749562Y-62100603D01*
X139643842Y-62117347D01*
X139643840Y-62117348D01*
X139634051Y-62118898D01*
X139521013Y-62176494D01*
X139431305Y-62266202D01*
X139373709Y-62379240D01*
X139353863Y-62504544D01*
X132000500Y-62504544D01*
X132000500Y-61745996D01*
X132504500Y-61745996D01*
X132519181Y-61867313D01*
X132576973Y-62020255D01*
X132669579Y-62154997D01*
X132675249Y-62160048D01*
X132675250Y-62160050D01*
X132701576Y-62183505D01*
X132791652Y-62263760D01*
X132798361Y-62267312D01*
X132798362Y-62267313D01*
X132929434Y-62336712D01*
X132929436Y-62336713D01*
X132936145Y-62340265D01*
X132987215Y-62353093D01*
X133087345Y-62378244D01*
X133087349Y-62378244D01*
X133094716Y-62380095D01*
X133102315Y-62380135D01*
X133102317Y-62380135D01*
X133170347Y-62380491D01*
X133258210Y-62380951D01*
X133265590Y-62379179D01*
X133265592Y-62379179D01*
X133409811Y-62344556D01*
X133409815Y-62344555D01*
X133417190Y-62342784D01*
X133562476Y-62267796D01*
X133568200Y-62262803D01*
X133679956Y-62165312D01*
X133679959Y-62165309D01*
X133685681Y-62160317D01*
X133779693Y-62026552D01*
X133839083Y-61874224D01*
X133855500Y-61749527D01*
X133855500Y-60745196D01*
X134134055Y-60745196D01*
X134171484Y-60876158D01*
X134244165Y-60991350D01*
X134346255Y-61081513D01*
X134354378Y-61085327D01*
X134354380Y-61085328D01*
X134413607Y-61113135D01*
X134469548Y-61139399D01*
X134478412Y-61140779D01*
X134478415Y-61140780D01*
X134541897Y-61150664D01*
X134572956Y-61155500D01*
X134644145Y-61155500D01*
X134683589Y-61149851D01*
X134735943Y-61142354D01*
X134735946Y-61142353D01*
X134744829Y-61141081D01*
X134868820Y-61084706D01*
X134972004Y-60995796D01*
X135046087Y-60881501D01*
X135085113Y-60751006D01*
X135085148Y-60745196D01*
X139914055Y-60745196D01*
X139951484Y-60876158D01*
X140024165Y-60991350D01*
X140126255Y-61081513D01*
X140134378Y-61085327D01*
X140134380Y-61085328D01*
X140193607Y-61113135D01*
X140249548Y-61139399D01*
X140258412Y-61140779D01*
X140258415Y-61140780D01*
X140321897Y-61150664D01*
X140352956Y-61155500D01*
X140424145Y-61155500D01*
X140463589Y-61149851D01*
X140515943Y-61142354D01*
X140515946Y-61142353D01*
X140524829Y-61141081D01*
X140648820Y-61084706D01*
X140752004Y-60995796D01*
X140826087Y-60881501D01*
X140865113Y-60751006D01*
X140865945Y-60614804D01*
X140828516Y-60483842D01*
X140755835Y-60368650D01*
X140723107Y-60339745D01*
X140660473Y-60284429D01*
X140653745Y-60278487D01*
X140645622Y-60274673D01*
X140645620Y-60274672D01*
X140572211Y-60240207D01*
X140530452Y-60220601D01*
X140521588Y-60219221D01*
X140521585Y-60219220D01*
X140458103Y-60209336D01*
X140427044Y-60204500D01*
X140355855Y-60204500D01*
X140316411Y-60210149D01*
X140264057Y-60217646D01*
X140264054Y-60217647D01*
X140255171Y-60218919D01*
X140131180Y-60275294D01*
X140027996Y-60364204D01*
X139953913Y-60478499D01*
X139951342Y-60487096D01*
X139951341Y-60487098D01*
X139947415Y-60500227D01*
X139914887Y-60608994D01*
X139914055Y-60745196D01*
X135085148Y-60745196D01*
X135085945Y-60614804D01*
X135048516Y-60483842D01*
X134975835Y-60368650D01*
X134943107Y-60339745D01*
X134880473Y-60284429D01*
X134873745Y-60278487D01*
X134865622Y-60274673D01*
X134865620Y-60274672D01*
X134813070Y-60250000D01*
X135594508Y-60250000D01*
X135596059Y-60259793D01*
X135612359Y-60362706D01*
X135614354Y-60375304D01*
X135671950Y-60488342D01*
X135761658Y-60578050D01*
X135874696Y-60635646D01*
X135884485Y-60637196D01*
X135884487Y-60637197D01*
X135990207Y-60653941D01*
X136000000Y-60655492D01*
X136009793Y-60653941D01*
X136115513Y-60637197D01*
X136115515Y-60637196D01*
X136125304Y-60635646D01*
X136238342Y-60578050D01*
X136328050Y-60488342D01*
X136385646Y-60375304D01*
X136387642Y-60362706D01*
X136403941Y-60259793D01*
X136405492Y-60250000D01*
X138594508Y-60250000D01*
X138596059Y-60259793D01*
X138612359Y-60362706D01*
X138614354Y-60375304D01*
X138671950Y-60488342D01*
X138761658Y-60578050D01*
X138874696Y-60635646D01*
X138884485Y-60637196D01*
X138884487Y-60637197D01*
X138990207Y-60653941D01*
X139000000Y-60655492D01*
X139009793Y-60653941D01*
X139115513Y-60637197D01*
X139115515Y-60637196D01*
X139125304Y-60635646D01*
X139238342Y-60578050D01*
X139328050Y-60488342D01*
X139385646Y-60375304D01*
X139387642Y-60362706D01*
X139403941Y-60259793D01*
X139405492Y-60250000D01*
X139385646Y-60124696D01*
X139328050Y-60011658D01*
X139238342Y-59921950D01*
X139125304Y-59864354D01*
X139115515Y-59862804D01*
X139115513Y-59862803D01*
X139009793Y-59846059D01*
X139000000Y-59844508D01*
X138990207Y-59846059D01*
X138884487Y-59862803D01*
X138884485Y-59862804D01*
X138874696Y-59864354D01*
X138761658Y-59921950D01*
X138671950Y-60011658D01*
X138614354Y-60124696D01*
X138594508Y-60250000D01*
X136405492Y-60250000D01*
X136385646Y-60124696D01*
X136328050Y-60011658D01*
X136238342Y-59921950D01*
X136125304Y-59864354D01*
X136115515Y-59862804D01*
X136115513Y-59862803D01*
X136009793Y-59846059D01*
X136000000Y-59844508D01*
X135990207Y-59846059D01*
X135884487Y-59862803D01*
X135884485Y-59862804D01*
X135874696Y-59864354D01*
X135761658Y-59921950D01*
X135671950Y-60011658D01*
X135614354Y-60124696D01*
X135594508Y-60250000D01*
X134813070Y-60250000D01*
X134792211Y-60240207D01*
X134750452Y-60220601D01*
X134741588Y-60219221D01*
X134741585Y-60219220D01*
X134678103Y-60209336D01*
X134647044Y-60204500D01*
X134575855Y-60204500D01*
X134536411Y-60210149D01*
X134484057Y-60217646D01*
X134484054Y-60217647D01*
X134475171Y-60218919D01*
X134351180Y-60275294D01*
X134247996Y-60364204D01*
X134173913Y-60478499D01*
X134171342Y-60487096D01*
X134171341Y-60487098D01*
X134167415Y-60500227D01*
X134134887Y-60608994D01*
X134134055Y-60745196D01*
X133855500Y-60745196D01*
X133855500Y-60614004D01*
X133840819Y-60492687D01*
X133783027Y-60339745D01*
X133742759Y-60281155D01*
X133694723Y-60211262D01*
X133694722Y-60211261D01*
X133690421Y-60205003D01*
X133597679Y-60122373D01*
X133560125Y-60062125D01*
X133555500Y-60028299D01*
X133555500Y-58098313D01*
X133575502Y-58030192D01*
X133597302Y-58005607D01*
X133597940Y-58005202D01*
X133710448Y-57885393D01*
X133752720Y-57808502D01*
X133785807Y-57748316D01*
X133789627Y-57741368D01*
X133809734Y-57663058D01*
X133828529Y-57589855D01*
X133828529Y-57589852D01*
X133830500Y-57582177D01*
X133830500Y-57501500D01*
X133850502Y-57433379D01*
X133904158Y-57386886D01*
X133956500Y-57375500D01*
X141043500Y-57375500D01*
X141111621Y-57395502D01*
X141158114Y-57449158D01*
X141169500Y-57501500D01*
X141169500Y-57540925D01*
X141184929Y-57663058D01*
X141245432Y-57815871D01*
X141342037Y-57948837D01*
X141348141Y-57953887D01*
X141348147Y-57953893D01*
X141398816Y-57995810D01*
X141438554Y-58054643D01*
X141444500Y-58092894D01*
X141444500Y-60028830D01*
X141424498Y-60096951D01*
X141401329Y-60123779D01*
X141320044Y-60194688D01*
X141320041Y-60194691D01*
X141314319Y-60199683D01*
X141220307Y-60333448D01*
X141160917Y-60485776D01*
X141144500Y-60610473D01*
X141144500Y-61745996D01*
X141159181Y-61867313D01*
X141216973Y-62020255D01*
X141309579Y-62154997D01*
X141315249Y-62160048D01*
X141315250Y-62160050D01*
X141341576Y-62183505D01*
X141431652Y-62263760D01*
X141438361Y-62267312D01*
X141438362Y-62267313D01*
X141569434Y-62336712D01*
X141569436Y-62336713D01*
X141576145Y-62340265D01*
X141627215Y-62353093D01*
X141727345Y-62378244D01*
X141727349Y-62378244D01*
X141734716Y-62380095D01*
X141742315Y-62380135D01*
X141742317Y-62380135D01*
X141810347Y-62380491D01*
X141898210Y-62380951D01*
X141905590Y-62379179D01*
X141905592Y-62379179D01*
X142049811Y-62344556D01*
X142049815Y-62344555D01*
X142057190Y-62342784D01*
X142202476Y-62267796D01*
X142208200Y-62262803D01*
X142319956Y-62165312D01*
X142319959Y-62165309D01*
X142325681Y-62160317D01*
X142419693Y-62026552D01*
X142479083Y-61874224D01*
X142495500Y-61749527D01*
X142495500Y-60614004D01*
X142480819Y-60492687D01*
X142423027Y-60339745D01*
X142382759Y-60281155D01*
X142334723Y-60211262D01*
X142334722Y-60211261D01*
X142330421Y-60205003D01*
X142237679Y-60122373D01*
X142200125Y-60062125D01*
X142195500Y-60028299D01*
X142195500Y-58098313D01*
X142215502Y-58030192D01*
X142237302Y-58005607D01*
X142237940Y-58005202D01*
X142350448Y-57885393D01*
X142392720Y-57808502D01*
X142425807Y-57748316D01*
X142429627Y-57741368D01*
X142449734Y-57663058D01*
X142468529Y-57589855D01*
X142468529Y-57589852D01*
X142470500Y-57582177D01*
X142470500Y-56459075D01*
X142455071Y-56336942D01*
X142394568Y-56184129D01*
X142297963Y-56051163D01*
X142171326Y-55946400D01*
X142022613Y-55876421D01*
X142014830Y-55874936D01*
X142014826Y-55874935D01*
X141868956Y-55847109D01*
X141868954Y-55847109D01*
X141861170Y-55845624D01*
X141779155Y-55850784D01*
X141705051Y-55855446D01*
X141705049Y-55855446D01*
X141697140Y-55855944D01*
X141689604Y-55858393D01*
X141689602Y-55858393D01*
X141647637Y-55872028D01*
X141540829Y-55906732D01*
X141402060Y-55994798D01*
X141289552Y-56114607D01*
X141285735Y-56121551D01*
X141285733Y-56121553D01*
X141244506Y-56196545D01*
X141210373Y-56258632D01*
X141208403Y-56266304D01*
X141208402Y-56266307D01*
X141188247Y-56344807D01*
X141169500Y-56417823D01*
X141169500Y-56498500D01*
X141149498Y-56566621D01*
X141095842Y-56613114D01*
X141043500Y-56624500D01*
X133956500Y-56624500D01*
X133888379Y-56604498D01*
X133841886Y-56550842D01*
X133830500Y-56498500D01*
X133830500Y-56459075D01*
X133815071Y-56336942D01*
X133754568Y-56184129D01*
X133657963Y-56051163D01*
X133531326Y-55946400D01*
X133382613Y-55876421D01*
X133374830Y-55874936D01*
X133374826Y-55874935D01*
X133228956Y-55847109D01*
X133228954Y-55847109D01*
X133221170Y-55845624D01*
X133139155Y-55850784D01*
X133065051Y-55855446D01*
X133065049Y-55855446D01*
X133057140Y-55855944D01*
X133049604Y-55858393D01*
X133049602Y-55858393D01*
X133007637Y-55872028D01*
X132900829Y-55906732D01*
X132762060Y-55994798D01*
X132649552Y-56114607D01*
X132645735Y-56121551D01*
X132645733Y-56121553D01*
X132604506Y-56196545D01*
X132570373Y-56258632D01*
X132568403Y-56266304D01*
X132568402Y-56266307D01*
X132548247Y-56344807D01*
X132529500Y-56417823D01*
X132529500Y-57540925D01*
X132544929Y-57663058D01*
X132605432Y-57815871D01*
X132702037Y-57948837D01*
X132708141Y-57953887D01*
X132708147Y-57953893D01*
X132758816Y-57995810D01*
X132798554Y-58054643D01*
X132804500Y-58092894D01*
X132804500Y-60028830D01*
X132784498Y-60096951D01*
X132761329Y-60123779D01*
X132680044Y-60194688D01*
X132680041Y-60194691D01*
X132674319Y-60199683D01*
X132580307Y-60333448D01*
X132520917Y-60485776D01*
X132504500Y-60610473D01*
X132504500Y-61745996D01*
X132000500Y-61745996D01*
X132000500Y-55626500D01*
X132020502Y-55558379D01*
X132074158Y-55511886D01*
X132126500Y-55500500D01*
X142873500Y-55500500D01*
X142941621Y-55520502D01*
G37*
%TD.AperFunction*%
%TD*%
M02*
