%TF.GenerationSoftware,KiCad,Pcbnew,6.0.0*%
%TF.CreationDate,2022-01-13T14:08:01-08:00*%
%TF.ProjectId,redshift,72656473-6869-4667-942e-6b696361645f,0.1*%
%TF.SameCoordinates,Original*%
%TF.FileFunction,Copper,L4,Bot*%
%TF.FilePolarity,Positive*%
%FSLAX46Y46*%
G04 Gerber Fmt 4.6, Leading zero omitted, Abs format (unit mm)*
G04 Created by KiCad (PCBNEW 6.0.0) date 2022-01-13 14:08:01*
%MOMM*%
%LPD*%
G01*
G04 APERTURE LIST*
%TA.AperFunction,ComponentPad*%
%ADD10C,1.700000*%
%TD*%
%TA.AperFunction,ComponentPad*%
%ADD11O,2.700000X1.600000*%
%TD*%
%TA.AperFunction,ComponentPad*%
%ADD12O,1.050000X2.100000*%
%TD*%
%TA.AperFunction,ComponentPad*%
%ADD13O,1.000000X2.000000*%
%TD*%
%TA.AperFunction,ComponentPad*%
%ADD14R,1.350000X1.350000*%
%TD*%
%TA.AperFunction,ComponentPad*%
%ADD15O,1.350000X1.350000*%
%TD*%
%TA.AperFunction,ComponentPad*%
%ADD16R,1.400000X1.400000*%
%TD*%
%TA.AperFunction,ComponentPad*%
%ADD17C,1.400000*%
%TD*%
%TA.AperFunction,SMDPad,CuDef*%
%ADD18C,1.500000*%
%TD*%
%TA.AperFunction,ViaPad*%
%ADD19C,0.450000*%
%TD*%
%TA.AperFunction,ViaPad*%
%ADD20C,0.500000*%
%TD*%
%TA.AperFunction,ViaPad*%
%ADD21C,0.800000*%
%TD*%
%TA.AperFunction,Conductor*%
%ADD22C,0.250000*%
%TD*%
G04 APERTURE END LIST*
D10*
%TO.P,ENC1,A,A*%
%TO.N,/ENC_A*%
X129000000Y-80500000D03*
%TO.P,ENC1,B,B*%
%TO.N,/ENC_B*%
X129000000Y-78000000D03*
%TO.P,ENC1,C,C*%
%TO.N,GND*%
X129000000Y-75500000D03*
D11*
%TO.P,ENC1,MP*%
%TO.N,N/C*%
X127000000Y-83100000D03*
X127000000Y-72900000D03*
%TD*%
D12*
%TO.P,J1,S1,SHIELD*%
%TO.N,/SH*%
X141820000Y-61180000D03*
D13*
X141820000Y-57000000D03*
X133180000Y-57000000D03*
D12*
X133180000Y-61180000D03*
%TD*%
D10*
%TO.P,SW3,1,C*%
%TO.N,GND*%
X149000000Y-74920000D03*
%TO.P,SW3,2,NO*%
%TO.N,/SW3_M_NO*%
X149000000Y-80000000D03*
%TO.P,SW3,3,NC*%
%TO.N,/SW3_M_NC*%
X149000000Y-85080000D03*
%TD*%
D14*
%TO.P,J3,1,Pin_1*%
%TO.N,GND*%
X157750000Y-100500000D03*
D15*
%TO.P,J3,2,Pin_2*%
%TO.N,/VBUS_*%
X157750000Y-102500000D03*
%TO.P,J3,3,Pin_3*%
%TO.N,/RESET*%
X157750000Y-104500000D03*
%TO.P,J3,4,Pin_4*%
%TO.N,/SWDIO*%
X157750000Y-106500000D03*
%TO.P,J3,5,Pin_5*%
%TO.N,/SWO*%
X157750000Y-108500000D03*
%TO.P,J3,6,Pin_6*%
%TO.N,/SWCLK*%
X157750000Y-110500000D03*
%TD*%
D16*
%TO.P,U1,1*%
%TO.N,N/C*%
X142850000Y-113985000D03*
D17*
%TO.P,U1,2*%
X142850000Y-112205000D03*
%TO.P,U1,3,GND*%
%TO.N,GND*%
X142850000Y-110425000D03*
%TO.P,U1,4,VDD*%
%TO.N,Net-(C19-Pad1)*%
X142850000Y-108645000D03*
%TO.P,U1,5,VDDPIX*%
%TO.N,Net-(C21-Pad1)*%
X142850000Y-106865000D03*
%TO.P,U1,6,GPO*%
%TO.N,unconnected-(U1-Pad6)*%
X142850000Y-105085000D03*
%TO.P,U1,7,VDDIO*%
%TO.N,Net-(C17-Pad2)*%
X142850000Y-103305000D03*
%TO.P,U1,8,GND*%
%TO.N,GND*%
X142850000Y-101525000D03*
%TO.P,U1,9,MOTION*%
%TO.N,/SNSR_MTN*%
X132150000Y-100635000D03*
%TO.P,U1,10,SCLK*%
%TO.N,/FC6_SCK*%
X132150000Y-102415000D03*
%TO.P,U1,11,MOSI*%
%TO.N,/FC6_MOSI*%
X132150000Y-104195000D03*
%TO.P,U1,12,MISO*%
%TO.N,/FC6_MISO*%
X132150000Y-105975000D03*
%TO.P,U1,13,~{CS}*%
%TO.N,/FC6_CS1*%
X132150000Y-107755000D03*
%TO.P,U1,14,~{RESET}*%
%TO.N,/SNSR_RST*%
X132150000Y-109535000D03*
%TO.P,U1,15,LED_P*%
%TO.N,/SNSR_LED*%
X132150000Y-111315000D03*
%TO.P,U1,16*%
%TO.N,N/C*%
X132150000Y-113095000D03*
%TD*%
D10*
%TO.P,SW2,1,C*%
%TO.N,GND*%
X156000000Y-72920000D03*
%TO.P,SW2,2,NO*%
%TO.N,/SW2_R_NO*%
X156000000Y-78000000D03*
%TO.P,SW2,3,NC*%
%TO.N,/SW2_R_NC*%
X156000000Y-83080000D03*
%TD*%
%TO.P,SW1,1,C*%
%TO.N,GND*%
X119000000Y-72920000D03*
%TO.P,SW1,2,NO*%
%TO.N,/SW1_L_NO*%
X119000000Y-78000000D03*
%TO.P,SW1,3,NC*%
%TO.N,/SW1_L_NC*%
X119000000Y-83080000D03*
%TD*%
D18*
%TO.P,TP5,1,1*%
%TO.N,/FC6_MISO*%
X127000000Y-106000000D03*
%TD*%
%TO.P,TP6,1,1*%
%TO.N,/SW2_R_NO*%
X156500000Y-80500000D03*
%TD*%
%TO.P,TP9,1,1*%
%TO.N,/USB_D-*%
X126000000Y-75250000D03*
%TD*%
%TO.P,TP7,1,1*%
%TO.N,/SW2_R_NC*%
X156500000Y-85500000D03*
%TD*%
%TO.P,TP13,1,1*%
%TO.N,/ENC_A*%
X122500000Y-81000000D03*
%TD*%
%TO.P,TP3,1,1*%
%TO.N,/FC6_MOSI*%
X127000000Y-100000000D03*
%TD*%
%TO.P,TP10,1,1*%
%TO.N,/SW3_M_NO*%
X149500000Y-77500000D03*
%TD*%
%TO.P,TP11,1,1*%
%TO.N,/SW3_M_NC*%
X149500000Y-82500000D03*
%TD*%
%TO.P,TP2,1,1*%
%TO.N,/SW1_L_NO*%
X119000000Y-75500000D03*
%TD*%
%TO.P,TP8,1,1*%
%TO.N,/USB_D+*%
X122500000Y-75250000D03*
%TD*%
%TO.P,TP12,1,1*%
%TO.N,+3V3*%
X149000000Y-114500000D03*
%TD*%
%TO.P,TP17,1,1*%
%TO.N,+5V*%
X147750000Y-69250000D03*
%TD*%
%TO.P,TP16,1,1*%
%TO.N,+1V8*%
X152500000Y-111000000D03*
%TD*%
%TO.P,TP4,1,1*%
%TO.N,/SW1_L_NC*%
X119000000Y-80500000D03*
%TD*%
%TO.P,TP14,1,1*%
%TO.N,GND*%
X152500000Y-114500000D03*
%TD*%
%TO.P,TP1,1,1*%
%TO.N,/FC6_SCK*%
X127000000Y-102500000D03*
%TD*%
%TO.P,TP15,1,1*%
%TO.N,/ENC_B*%
X122500000Y-78000000D03*
%TD*%
D19*
%TO.N,+5V*%
X146750000Y-70500000D03*
D20*
X140650975Y-66546739D03*
X147250000Y-104500000D03*
%TO.N,+3V3*%
X137528381Y-87971619D03*
X146250000Y-94750000D03*
X131000000Y-89000000D03*
X145750000Y-104000000D03*
X138500000Y-98500000D03*
X154250000Y-106500000D03*
X145750000Y-103000000D03*
X142250000Y-92500000D03*
X127250000Y-90500000D03*
X134500000Y-98500000D03*
X146250000Y-95750000D03*
X154250000Y-107500000D03*
X142750000Y-91000000D03*
X131000000Y-91000000D03*
X145500000Y-67250000D03*
X136500000Y-98500000D03*
X125750000Y-111250000D03*
X144500000Y-67250000D03*
X142250000Y-93500000D03*
X154250000Y-105500000D03*
D21*
X149000000Y-115500000D03*
D20*
X131000000Y-90000000D03*
%TO.N,+1V8*%
X147250000Y-111000000D03*
%TO.N,/USB_D+*%
X137000000Y-64500000D03*
X138042518Y-91207482D03*
%TO.N,/USB_D-*%
X138000000Y-89000000D03*
X138000000Y-64475500D03*
%TO.N,/VBUS_*%
X136000000Y-60250000D03*
X142000000Y-64000000D03*
X139000000Y-60250000D03*
X142750000Y-64750000D03*
X139759355Y-62504544D03*
%TO.N,/USB1_LED*%
X136143360Y-92413402D03*
X123500000Y-91000000D03*
D19*
%TO.N,/FC6_CS1*%
X139524011Y-98000000D03*
D20*
%TO.N,/RESET*%
X136620878Y-91129122D03*
X150500000Y-104500000D03*
%TO.N,/FC6_SCK*%
X128000000Y-102500000D03*
X129475500Y-102500000D03*
X135750000Y-93500000D03*
%TO.N,/FC6_MOSI*%
X131024500Y-100000000D03*
X128000000Y-100000000D03*
%TO.N,/FC6_MISO*%
X137750000Y-95500000D03*
X129975500Y-106250000D03*
X128000000Y-106250000D03*
D19*
%TO.N,/SW1_L_NC*%
X135519107Y-91020248D03*
D20*
%TO.N,/SNSR_RST*%
X137024500Y-96651949D03*
%TO.N,/SW1_L_NO*%
X136500000Y-89000000D03*
%TO.N,GND*%
X136700989Y-94750000D03*
X144270000Y-92500000D03*
X142000000Y-62750000D03*
X145750000Y-107250000D03*
X144250000Y-90500000D03*
X128500000Y-105500000D03*
X140000000Y-67750000D03*
X134000000Y-65250000D03*
X139451727Y-94957641D03*
X134925500Y-89524020D03*
X138000000Y-66500000D03*
X141000000Y-88000000D03*
D21*
X152500000Y-115500000D03*
D20*
X145000000Y-85750000D03*
X144500000Y-66274989D03*
X132250000Y-92000000D03*
X137500000Y-98500000D03*
X148000000Y-107500000D03*
X140000000Y-88000000D03*
X135500000Y-98500000D03*
X139000000Y-66500000D03*
X154250000Y-110500000D03*
X148750000Y-108750000D03*
X133500000Y-95000000D03*
X139500000Y-64500000D03*
X145750000Y-106250000D03*
X145250000Y-90500000D03*
X141750000Y-65500000D03*
X132000000Y-65250000D03*
X148750000Y-105250000D03*
X134500000Y-64000000D03*
X131750000Y-87000000D03*
X144250000Y-93500000D03*
X133374500Y-62750000D03*
D19*
X141250000Y-92500000D03*
D20*
X133500000Y-98500000D03*
X129250000Y-96250000D03*
%TO.N,/SW4_NC*%
X135544503Y-94500000D03*
X129250000Y-97250000D03*
%TO.N,/SW4_NO*%
X135944011Y-95500000D03*
X129250000Y-98250000D03*
D19*
%TO.N,/SW2_R_NO*%
X137750000Y-92519503D03*
%TO.N,/SW2_R_NC*%
X137750000Y-93500000D03*
%TO.N,/SW3_M_NO*%
X139000000Y-91250000D03*
%TO.N,/SW3_M_NC*%
X139250000Y-92100980D03*
%TO.N,/ENC_B*%
X133500000Y-93000000D03*
D21*
X120750000Y-78000000D03*
%TO.N,/ENC_A*%
X121334080Y-79767133D03*
D19*
X133250000Y-91500000D03*
D20*
%TO.N,/SWO*%
X139250000Y-93548273D03*
X155250000Y-109274500D03*
D19*
%TO.N,/SWCLK*%
X141250000Y-93500000D03*
D20*
%TO.N,/SWDIO*%
X145000000Y-94000000D03*
%TO.N,/SNSR_MTN*%
X138397276Y-94749989D03*
%TD*%
D22*
%TO.N,/SWO*%
X139250000Y-93548273D02*
X140298289Y-93548273D01*
X140298289Y-93548273D02*
X151250000Y-104499984D01*
X151250000Y-104499984D02*
X151250000Y-107000000D01*
X151250000Y-107000000D02*
X153524500Y-109274500D01*
X153524500Y-109274500D02*
X155250000Y-109274500D01*
%TO.N,+5V*%
X147750000Y-69500000D02*
X147750000Y-69250000D01*
X146750000Y-70500000D02*
X147750000Y-69500000D01*
%TO.N,+1V8*%
X147250000Y-111000000D02*
X152500000Y-111000000D01*
%TO.N,/USB_D+*%
X127667156Y-88200000D02*
X136450000Y-88200000D01*
X124050000Y-84582844D02*
X127667156Y-88200000D01*
X137000000Y-64500000D02*
X137000000Y-64910494D01*
X137000000Y-64910494D02*
X134860494Y-67050000D01*
X134860494Y-67050000D02*
X128167156Y-67050000D01*
X137750000Y-89500000D02*
X137750000Y-90914964D01*
X124050000Y-71167156D02*
X124050000Y-84582844D01*
X122500000Y-75000000D02*
X124050000Y-73450000D01*
X137750000Y-90914964D02*
X138042518Y-91207482D01*
X136450000Y-88200000D02*
X137750000Y-89500000D01*
X128167156Y-67050000D02*
X124050000Y-71167156D01*
%TO.N,/USB_D-*%
X135192162Y-67283341D02*
X135192161Y-67283340D01*
X137737749Y-65162016D02*
X137975512Y-65399779D01*
X136040689Y-66859076D02*
X136278452Y-67096839D01*
X136889222Y-65586281D02*
X136889221Y-65586280D01*
X135025500Y-67450000D02*
X128332844Y-67450000D01*
X135086095Y-67389405D02*
X135025500Y-67450000D01*
X126000000Y-75000000D02*
X124450000Y-73450000D01*
X128332844Y-67450000D02*
X124450000Y-71332844D01*
X136889219Y-66010546D02*
X137126982Y-66248309D01*
X127832844Y-87800000D02*
X136615006Y-87800000D01*
X137551248Y-65824043D02*
X137313486Y-65586281D01*
X136889221Y-65586280D02*
X136889220Y-65586280D01*
X136040692Y-66434811D02*
X136040691Y-66434810D01*
X138000000Y-64475500D02*
X137737750Y-64737750D01*
X124450000Y-71332844D02*
X124450000Y-84417156D01*
X136702718Y-66672573D02*
X136464956Y-66434811D01*
X135854188Y-67521103D02*
X135616426Y-67283341D01*
X137815006Y-89000000D02*
X138000000Y-89000000D01*
X136040691Y-66434810D02*
X136040690Y-66434810D01*
X135192161Y-67283340D02*
X135086095Y-67389405D01*
X136615006Y-87800000D02*
X137815006Y-89000000D01*
X124450000Y-84417156D02*
X127832844Y-87800000D01*
X136702719Y-66672572D02*
G75*
G03*
X137126981Y-66672572I212131J212131D01*
G01*
X136040693Y-66434812D02*
G75*
G02*
X136464955Y-66434812I212131J-212131D01*
G01*
X135192163Y-67283342D02*
G75*
G02*
X135616425Y-67283342I212131J-212131D01*
G01*
X136889223Y-65586282D02*
G75*
G02*
X137313485Y-65586282I212131J-212131D01*
G01*
X137551249Y-65824042D02*
G75*
G03*
X137975511Y-65824042I212131J212131D01*
G01*
X137975511Y-65824042D02*
G75*
G03*
X137975511Y-65399780I-212131J212131D01*
G01*
X136040691Y-66859075D02*
G75*
G02*
X136040691Y-66434811I212130J212132D01*
G01*
X136889221Y-66010545D02*
G75*
G02*
X136889221Y-65586281I212130J212132D01*
G01*
X137737751Y-65162015D02*
G75*
G02*
X137737751Y-64737751I212130J212132D01*
G01*
X135854189Y-67521102D02*
G75*
G03*
X136278451Y-67521102I212131J212131D01*
G01*
X136278451Y-67521102D02*
G75*
G03*
X136278451Y-67096840I-212131J212131D01*
G01*
X137126981Y-66672572D02*
G75*
G03*
X137126981Y-66248310I-212131J212131D01*
G01*
%TO.N,/USB1_LED*%
X123500000Y-91000000D02*
X123739976Y-91000000D01*
X134037389Y-94299039D02*
X135923026Y-92413402D01*
X123739976Y-91000000D02*
X127039014Y-94299038D01*
X135923026Y-92413402D02*
X136143360Y-92413402D01*
X127039014Y-94299038D02*
X134037389Y-94299039D01*
%TO.N,/FC6_CS1*%
X132282739Y-97975489D02*
X130500000Y-99758228D01*
X139499500Y-97975489D02*
X132282739Y-97975489D01*
X130500000Y-106105000D02*
X132150000Y-107755000D01*
X139524011Y-98000000D02*
X139499500Y-97975489D01*
X130500000Y-99758228D02*
X130500000Y-106105000D01*
%TO.N,/RESET*%
X137725489Y-94225489D02*
X140410483Y-94225489D01*
X136620878Y-91129122D02*
X136667871Y-91176115D01*
X136667871Y-93167871D02*
X137725489Y-94225489D01*
X136667871Y-91176115D02*
X136667871Y-93167871D01*
X140410483Y-94225489D02*
X150500000Y-104315006D01*
X150500000Y-104315006D02*
X150500000Y-104500000D01*
%TO.N,/FC6_SCK*%
X131951767Y-97176449D02*
X129500000Y-99628216D01*
X128000000Y-102500000D02*
X127000000Y-102500000D01*
X137600480Y-96350480D02*
X137600480Y-96899520D01*
X137323551Y-97176449D02*
X131951767Y-97176449D01*
X137600480Y-96899520D02*
X137323551Y-97176449D01*
X135750000Y-93500000D02*
X136192761Y-93500000D01*
X129500000Y-99628216D02*
X129500000Y-102500000D01*
X137225489Y-95975489D02*
X137600480Y-96350480D01*
X137225489Y-94532728D02*
X137225489Y-95975489D01*
X136192761Y-93500000D02*
X137225489Y-94532728D01*
%TO.N,/FC6_MOSI*%
X131000000Y-103045000D02*
X132150000Y-104195000D01*
X128000000Y-100000000D02*
X127000000Y-100000000D01*
X131024500Y-100000000D02*
X131000000Y-100024500D01*
X131000000Y-100024500D02*
X131000000Y-103045000D01*
%TO.N,/FC6_MISO*%
X127750000Y-106000000D02*
X127000000Y-106000000D01*
X129975500Y-106250000D02*
X130000000Y-106225500D01*
X138000000Y-95750000D02*
X137750000Y-95500000D01*
X130000000Y-106225500D02*
X130000000Y-99693222D01*
X128000000Y-106250000D02*
X127750000Y-106000000D01*
X138000000Y-97250000D02*
X138000000Y-95750000D01*
X137674031Y-97575969D02*
X138000000Y-97250000D01*
X132117253Y-97575969D02*
X137674031Y-97575969D01*
X130000000Y-99693222D02*
X132117253Y-97575969D01*
%TO.N,/SW1_L_NC*%
X127204501Y-93899519D02*
X119850480Y-86545498D01*
X119000000Y-83080000D02*
X119000000Y-80500000D01*
X134399030Y-93372392D02*
X133871903Y-93899519D01*
X119850480Y-86545498D02*
X119850480Y-83930480D01*
X135519107Y-91020248D02*
X134399031Y-92140324D01*
X119850480Y-83930480D02*
X119000000Y-83080000D01*
X133871903Y-93899519D02*
X127204501Y-93899519D01*
X134399031Y-92140324D02*
X134399030Y-93372392D01*
%TO.N,/SNSR_RST*%
X129250000Y-103016272D02*
X129250000Y-106635000D01*
X129250000Y-106635000D02*
X132150000Y-109535000D01*
X128950989Y-102717261D02*
X129250000Y-103016272D01*
X128950989Y-99612221D02*
X128950989Y-102717261D01*
X137024500Y-96651949D02*
X131911261Y-96651949D01*
X131911261Y-96651949D02*
X128950989Y-99612221D01*
%TO.N,/SW1_L_NO*%
X136500000Y-89000000D02*
X133999511Y-91500489D01*
X120250000Y-86380012D02*
X120250000Y-79250000D01*
X133999511Y-91500489D02*
X133999511Y-93206905D01*
X119000000Y-78000000D02*
X119000000Y-75500000D01*
X133999511Y-93206905D02*
X133706417Y-93499999D01*
X127369987Y-93499999D02*
X120250000Y-86380012D01*
X133706417Y-93499999D02*
X127369987Y-93499999D01*
X120250000Y-79250000D02*
X119000000Y-78000000D01*
%TO.N,/SW4_NC*%
X134519992Y-95524511D02*
X130975489Y-95524511D01*
X130975489Y-95524511D02*
X129250000Y-97250000D01*
X135544503Y-94500000D02*
X134519992Y-95524511D01*
%TO.N,/SW4_NO*%
X129250000Y-98000000D02*
X129250000Y-98250000D01*
X135944011Y-95500000D02*
X135519980Y-95924031D01*
X131325969Y-95924031D02*
X129250000Y-98000000D01*
X135519980Y-95924031D02*
X131325969Y-95924031D01*
%TO.N,/SW2_R_NO*%
X154750000Y-81250000D02*
X154750000Y-79250000D01*
X154750000Y-87934994D02*
X154750000Y-81250000D01*
X137830977Y-92600480D02*
X139834514Y-92600480D01*
X143084514Y-89350480D02*
X153334514Y-89350480D01*
X139834514Y-92600480D02*
X143084514Y-89350480D01*
X154750000Y-79250000D02*
X156000000Y-78000000D01*
X155500000Y-80500000D02*
X156500000Y-80500000D01*
X154750000Y-81250000D02*
X155500000Y-80500000D01*
X137750000Y-92519503D02*
X137830977Y-92600480D01*
X153334514Y-89350480D02*
X154750000Y-87934994D01*
%TO.N,/SW2_R_NC*%
X153500000Y-89750000D02*
X155149520Y-88100480D01*
X155149520Y-86149520D02*
X155149520Y-83930480D01*
X155149520Y-88100480D02*
X155149520Y-86149520D01*
X155149520Y-83930480D02*
X156000000Y-83080000D01*
X137750000Y-93500000D02*
X138226238Y-93023762D01*
X138226238Y-93023762D02*
X139976238Y-93023762D01*
X155799040Y-85500000D02*
X155149520Y-86149520D01*
X139976238Y-93023762D02*
X143250000Y-89750000D01*
X143250000Y-89750000D02*
X153500000Y-89750000D01*
X156500000Y-85500000D02*
X155799040Y-85500000D01*
%TO.N,/SW3_M_NO*%
X142753542Y-88551440D02*
X147068548Y-88551440D01*
X147750000Y-81250000D02*
X149000000Y-80000000D01*
X139000000Y-91250000D02*
X140054982Y-91250000D01*
X140054982Y-91250000D02*
X142753542Y-88551440D01*
X147750000Y-87869988D02*
X147750000Y-81250000D01*
X149000000Y-80000000D02*
X149500000Y-79500000D01*
X149500000Y-79500000D02*
X149500000Y-77500000D01*
X147068548Y-88551440D02*
X147750000Y-87869988D01*
%TO.N,/SW3_M_NC*%
X142919028Y-88950960D02*
X147234034Y-88950960D01*
X148149520Y-88035474D02*
X148149520Y-85930480D01*
X139250000Y-92100980D02*
X139769008Y-92100980D01*
X149500000Y-84580000D02*
X149000000Y-85080000D01*
X147234034Y-88950960D02*
X148149520Y-88035474D01*
X148149520Y-85930480D02*
X149000000Y-85080000D01*
X139769008Y-92100980D02*
X142919028Y-88950960D01*
X149500000Y-82500000D02*
X149500000Y-84580000D01*
%TO.N,/ENC_B*%
X127535473Y-93100479D02*
X133399521Y-93100479D01*
X120649520Y-78100480D02*
X120649520Y-86214526D01*
X120750000Y-78000000D02*
X122500000Y-78000000D01*
X120649520Y-86214526D02*
X127535473Y-93100479D01*
X120750000Y-78000000D02*
X120649520Y-78100480D01*
X133399521Y-93100479D02*
X133500000Y-93000000D01*
%TO.N,/ENC_A*%
X121049040Y-86049040D02*
X121049040Y-80052173D01*
X127700960Y-92700960D02*
X121049040Y-86049040D01*
X121334080Y-79767133D02*
X121601213Y-79500000D01*
X122500000Y-80000000D02*
X122500000Y-81000000D01*
X122000000Y-79500000D02*
X122500000Y-80000000D01*
X121601213Y-79500000D02*
X122000000Y-79500000D01*
X133250000Y-92250000D02*
X132799040Y-92700960D01*
X121049040Y-80052173D02*
X121334080Y-79767133D01*
X132799040Y-92700960D02*
X127700960Y-92700960D01*
X133250000Y-91500000D02*
X133250000Y-92250000D01*
%TO.N,/SWCLK*%
X151649519Y-106834513D02*
X153565006Y-108750000D01*
X156000000Y-108750000D02*
X157750000Y-110500000D01*
X151649519Y-104334497D02*
X151649519Y-106834513D01*
X141250000Y-93500000D02*
X141250000Y-93934978D01*
X141250000Y-93934978D02*
X151649519Y-104334497D01*
X153565006Y-108750000D02*
X156000000Y-108750000D01*
%TO.N,/SWDIO*%
X153730492Y-108350480D02*
X155899520Y-108350480D01*
X145000000Y-94000000D02*
X145000000Y-97119972D01*
X152049039Y-106669027D02*
X153730492Y-108350480D01*
X155899520Y-108350480D02*
X157750000Y-106500000D01*
X145000000Y-97119972D02*
X152049039Y-104169011D01*
X152049039Y-104169011D02*
X152049039Y-106669027D01*
%TO.N,/SNSR_MTN*%
X138397276Y-94749989D02*
X140023522Y-96376235D01*
X140023522Y-96376235D02*
X140023522Y-98476478D01*
X139475489Y-99024511D02*
X132475489Y-99024511D01*
X132150000Y-99350000D02*
X132150000Y-100635000D01*
X140023522Y-98476478D02*
X139475489Y-99024511D01*
X132475489Y-99024511D02*
X132150000Y-99350000D01*
%TD*%
M02*
