M48
; DRILL file {KiCad 6.0.2+dfsg-1} date Sat 12 Mar 2022 01:00:25 AM PST
; FORMAT={-:-/ absolute / metric / decimal}
; #@! TF.CreationDate,2022-03-12T01:00:25-08:00
; #@! TF.GenerationSoftware,Kicad,Pcbnew,6.0.2+dfsg-1
; #@! TF.FileFunction,Plated,1,4,PTH
FMAT,2
METRIC
; #@! TA.AperFunction,Plated,PTH,ViaDrill
T1C0.250
; #@! TA.AperFunction,Plated,PTH,ViaDrill
T2C0.300
; #@! TA.AperFunction,Plated,PTH,ViaDrill
T3C0.400
; #@! TA.AperFunction,Plated,PTH,ComponentDrill
T4C0.600
; #@! TA.AperFunction,Plated,PTH,ComponentDrill
T5C0.700
; #@! TA.AperFunction,Plated,PTH,ComponentDrill
T6C0.800
; #@! TA.AperFunction,Plated,PTH,ComponentDrill
T7C1.000
%
G90
G05
T1
X133.5Y-93.0
X137.75Y-92.52
X137.75Y-93.5
T2
X119.75Y-87.75
X123.5Y-87.25
X125.75Y-111.25
X128.0Y-100.0
X128.0Y-102.5
X128.0Y-106.25
X128.5Y-105.5
X129.0Y-99.475
X129.25Y-96.25
X129.25Y-97.25
X129.25Y-98.25
X129.475Y-102.5
X129.975Y-106.25
X131.0Y-89.5
X131.0Y-90.5
X131.0Y-91.5
X131.024Y-100.0
X132.0Y-65.25
X132.5Y-97.451
X133.374Y-62.75
X133.475Y-92.0
X133.5Y-98.5
X133.75Y-91.0
X134.0Y-65.25
X134.5Y-98.5
X134.925Y-89.524
X135.5Y-98.5
X135.519Y-91.02
X135.545Y-94.5
X135.75Y-93.5
X135.944Y-95.5
X136.0Y-60.25
X136.143Y-92.413
X136.25Y-64.5
X136.5Y-89.25
X136.5Y-97.274
X136.5Y-98.5
X136.621Y-91.129
X136.701Y-94.75
X137.5Y-96.75
X137.5Y-98.5
X137.528Y-87.972
X137.75Y-95.5
X138.0Y-89.0
X138.043Y-91.207
X138.397Y-94.75
X138.5Y-88.0
X138.5Y-98.5
X138.75Y-64.5
X139.0Y-60.25
X139.0Y-90.75
X139.0Y-92.0
X139.25Y-93.548
X139.452Y-94.958
X139.75Y-97.25
X139.759Y-62.505
X140.0Y-63.909
X140.0Y-68.0
X140.25Y-98.0
X140.651Y-66.547
X140.719Y-62.781
X140.75Y-88.0
X141.25Y-92.5
X141.25Y-93.5
X141.25Y-98.0
X141.601Y-88.0
X142.0Y-62.75
X142.0Y-68.0
X142.25Y-92.5
X142.25Y-93.5
X142.75Y-91.0
X143.5Y-66.225
X144.25Y-90.5
X144.25Y-93.5
X144.27Y-92.5
X145.0Y-66.275
X145.0Y-67.25
X145.0Y-85.75
X145.0Y-94.0
X145.25Y-90.5
X145.75Y-103.0
X145.75Y-104.0
X145.75Y-106.25
X145.75Y-107.25
X146.0Y-67.25
X146.25Y-94.75
X146.25Y-95.75
X146.75Y-70.5
X147.25Y-109.25
X148.0Y-104.5
X148.0Y-107.0
X148.25Y-114.0
X148.75Y-108.75
X149.5Y-114.0
X149.52Y-105.27
X150.5Y-68.25
X150.725Y-104.5
X150.725Y-105.5
X150.75Y-112.874
X150.75Y-114.0
X152.0Y-110.25
X153.25Y-114.0
X153.75Y-107.75
X153.75Y-108.75
X154.75Y-105.75
X155.25Y-109.274
X159.0Y-96.25
X159.0Y-99.0
T3
X120.75Y-78.0
X121.334Y-79.767
X149.75Y-118.25
X153.0Y-118.25
T5
X132.15Y-100.635
X132.15Y-102.415
X132.15Y-104.195
X132.15Y-105.975
X132.15Y-107.755
X132.15Y-109.535
X132.15Y-111.315
X132.15Y-113.095
X142.85Y-101.525
X142.85Y-103.305
X142.85Y-105.085
X142.85Y-106.865
X142.85Y-108.645
X142.85Y-110.425
X142.85Y-112.205
X142.85Y-113.985
T6
X157.75Y-100.5
X157.75Y-102.5
X157.75Y-104.5
X157.75Y-106.5
X157.75Y-108.5
X157.75Y-110.5
T7
X119.0Y-72.92
X119.0Y-78.0
X119.0Y-83.08
X129.0Y-75.5
X129.0Y-78.0
X129.0Y-80.5
X149.0Y-74.92
X149.0Y-80.0
X149.0Y-85.08
X156.0Y-72.92
X156.0Y-78.0
X156.0Y-83.08
T4
G00X133.18Y-57.4
M15
G01X133.18Y-56.6
M16
G05
G00X133.18Y-61.73
M15
G01X133.18Y-60.63
M16
G05
G00X141.82Y-57.4
M15
G01X141.82Y-56.6
M16
G05
G00X141.82Y-61.73
M15
G01X141.82Y-60.63
M16
G05
T7
G00X127.5Y-72.8
M15
G01X126.5Y-72.8
M16
G05
G00X127.5Y-83.2
M15
G01X126.5Y-83.2
M16
G05
T0
M30
