%TF.GenerationSoftware,KiCad,Pcbnew,6.0.2+dfsg-1*%
%TF.CreationDate,2022-03-12T01:01:00-08:00*%
%TF.ProjectId,redshift,72656473-6869-4667-942e-6b696361645f,0.1*%
%TF.SameCoordinates,Original*%
%TF.FileFunction,Copper,L4,Bot*%
%TF.FilePolarity,Positive*%
%FSLAX46Y46*%
G04 Gerber Fmt 4.6, Leading zero omitted, Abs format (unit mm)*
G04 Created by KiCad (PCBNEW 6.0.2+dfsg-1) date 2022-03-12 01:01:00*
%MOMM*%
%LPD*%
G01*
G04 APERTURE LIST*
%TA.AperFunction,ComponentPad*%
%ADD10C,1.700000*%
%TD*%
%TA.AperFunction,ComponentPad*%
%ADD11O,2.700000X1.700000*%
%TD*%
%TA.AperFunction,ComponentPad*%
%ADD12O,1.050000X2.100000*%
%TD*%
%TA.AperFunction,ComponentPad*%
%ADD13O,1.000000X2.000000*%
%TD*%
%TA.AperFunction,ComponentPad*%
%ADD14R,1.350000X1.350000*%
%TD*%
%TA.AperFunction,ComponentPad*%
%ADD15O,1.350000X1.350000*%
%TD*%
%TA.AperFunction,ComponentPad*%
%ADD16R,1.400000X1.400000*%
%TD*%
%TA.AperFunction,ComponentPad*%
%ADD17C,1.400000*%
%TD*%
%TA.AperFunction,SMDPad,CuDef*%
%ADD18C,1.500000*%
%TD*%
%TA.AperFunction,SMDPad,CuDef*%
%ADD19R,1.300000X1.550000*%
%TD*%
%TA.AperFunction,ViaPad*%
%ADD20C,0.450000*%
%TD*%
%TA.AperFunction,ViaPad*%
%ADD21C,0.500000*%
%TD*%
%TA.AperFunction,ViaPad*%
%ADD22C,0.800000*%
%TD*%
%TA.AperFunction,Conductor*%
%ADD23C,0.250000*%
%TD*%
%TA.AperFunction,Conductor*%
%ADD24C,0.600000*%
%TD*%
G04 APERTURE END LIST*
D10*
%TO.P,ENC1,A,A*%
%TO.N,/ENC_A*%
X129000000Y-80500000D03*
%TO.P,ENC1,B,B*%
%TO.N,/ENC_B*%
X129000000Y-78000000D03*
%TO.P,ENC1,C,C*%
%TO.N,GND*%
X129000000Y-75500000D03*
D11*
%TO.P,ENC1,MP*%
%TO.N,N/C*%
X127000000Y-72800000D03*
X127000000Y-83200000D03*
%TD*%
D12*
%TO.P,J1,S1,SHIELD*%
%TO.N,/SH*%
X141820000Y-61180000D03*
D13*
%TO.P,J1,S2,SHIELD*%
X141820000Y-57000000D03*
%TO.P,J1,S3,SHIELD*%
X133180000Y-57000000D03*
D12*
%TO.P,J1,S4,SHIELD*%
X133180000Y-61180000D03*
%TD*%
D10*
%TO.P,SW3,1,C*%
%TO.N,GND*%
X149000000Y-74920000D03*
%TO.P,SW3,2,NO*%
%TO.N,/SW3_M_NO*%
X149000000Y-80000000D03*
%TO.P,SW3,3,NC*%
%TO.N,/SW3_M_NC*%
X149000000Y-85080000D03*
%TD*%
D14*
%TO.P,J3,1,Pin_1*%
%TO.N,GND*%
X157750000Y-100500000D03*
D15*
%TO.P,J3,2,Pin_2*%
%TO.N,/DBG_VIN*%
X157750000Y-102500000D03*
%TO.P,J3,3,Pin_3*%
%TO.N,/RESET*%
X157750000Y-104500000D03*
%TO.P,J3,4,Pin_4*%
%TO.N,/SWDIO*%
X157750000Y-106500000D03*
%TO.P,J3,5,Pin_5*%
%TO.N,/SWO*%
X157750000Y-108500000D03*
%TO.P,J3,6,Pin_6*%
%TO.N,/SWCLK*%
X157750000Y-110500000D03*
%TD*%
D16*
%TO.P,U1,1*%
%TO.N,N/C*%
X142850000Y-113985000D03*
D17*
%TO.P,U1,2*%
X142850000Y-112205000D03*
%TO.P,U1,3,GND*%
%TO.N,GND*%
X142850000Y-110425000D03*
%TO.P,U1,4,VDD*%
%TO.N,Net-(C19-Pad1)*%
X142850000Y-108645000D03*
%TO.P,U1,5,VDDPIX*%
%TO.N,Net-(C21-Pad1)*%
X142850000Y-106865000D03*
%TO.P,U1,6,GPO*%
%TO.N,unconnected-(U1-Pad6)*%
X142850000Y-105085000D03*
%TO.P,U1,7,VDDIO*%
%TO.N,Net-(C17-Pad2)*%
X142850000Y-103305000D03*
%TO.P,U1,8,GND*%
%TO.N,GND*%
X142850000Y-101525000D03*
%TO.P,U1,9,MOTION*%
%TO.N,/SNSR_MTN*%
X132150000Y-100635000D03*
%TO.P,U1,10,SCLK*%
%TO.N,/FC6_SCK*%
X132150000Y-102415000D03*
%TO.P,U1,11,MOSI*%
%TO.N,/FC6_MOSI*%
X132150000Y-104195000D03*
%TO.P,U1,12,MISO*%
%TO.N,/FC6_MISO*%
X132150000Y-105975000D03*
%TO.P,U1,13,~{CS}*%
%TO.N,/FC6_CS1*%
X132150000Y-107755000D03*
%TO.P,U1,14,~{RESET}*%
%TO.N,/SNSR_RST*%
X132150000Y-109535000D03*
%TO.P,U1,15,LED_P*%
%TO.N,/SNSR_LED*%
X132150000Y-111315000D03*
%TO.P,U1,16*%
%TO.N,N/C*%
X132150000Y-113095000D03*
%TD*%
D10*
%TO.P,SW2,1,C*%
%TO.N,GND*%
X156000000Y-72920000D03*
%TO.P,SW2,2,NO*%
%TO.N,/SW2_R_NO*%
X156000000Y-78000000D03*
%TO.P,SW2,3,NC*%
%TO.N,/SW2_R_NC*%
X156000000Y-83080000D03*
%TD*%
%TO.P,SW1,1,C*%
%TO.N,GND*%
X119000000Y-72920000D03*
%TO.P,SW1,2,NO*%
%TO.N,/SW1_L_NO*%
X119000000Y-78000000D03*
%TO.P,SW1,3,NC*%
%TO.N,/SW1_L_NC*%
X119000000Y-83080000D03*
%TD*%
D18*
%TO.P,TP5,1,1*%
%TO.N,/FC6_MISO*%
X127000000Y-106000000D03*
%TD*%
%TO.P,TP6,1,1*%
%TO.N,/SW2_R_NO*%
X156500000Y-80500000D03*
%TD*%
%TO.P,TP9,1,1*%
%TO.N,/USB_D-*%
X126000000Y-75250000D03*
%TD*%
%TO.P,TP7,1,1*%
%TO.N,/SW2_R_NC*%
X156500000Y-85500000D03*
%TD*%
%TO.P,TP13,1,1*%
%TO.N,/ENC_A*%
X122500000Y-81000000D03*
%TD*%
%TO.P,TP3,1,1*%
%TO.N,/FC6_MOSI*%
X127000000Y-100000000D03*
%TD*%
%TO.P,TP10,1,1*%
%TO.N,/SW3_M_NO*%
X149500000Y-77500000D03*
%TD*%
%TO.P,TP11,1,1*%
%TO.N,/SW3_M_NC*%
X149500000Y-82500000D03*
%TD*%
%TO.P,TP2,1,1*%
%TO.N,/SW1_L_NO*%
X119000000Y-75500000D03*
%TD*%
%TO.P,TP8,1,1*%
%TO.N,/USB_D+*%
X122500000Y-75250000D03*
%TD*%
D19*
%TO.P,SW4,1,1*%
%TO.N,/ISP*%
X150250000Y-106480000D03*
%TO.P,SW4,2,2*%
%TO.N,GND*%
X154750000Y-106480000D03*
%TO.P,SW4,3*%
%TO.N,N/C*%
X154750000Y-98520000D03*
X150250000Y-98520000D03*
%TD*%
D18*
%TO.P,TP12,1,1*%
%TO.N,+3V3*%
X153000000Y-117250000D03*
%TD*%
%TO.P,TP18,1,1*%
%TO.N,/ISP*%
X152000000Y-111000000D03*
%TD*%
%TO.P,TP17,1,1*%
%TO.N,+5V*%
X147750000Y-69250000D03*
%TD*%
%TO.P,TP16,1,1*%
%TO.N,+1V8*%
X146750000Y-117250000D03*
%TD*%
%TO.P,TP4,1,1*%
%TO.N,/SW1_L_NC*%
X119000000Y-80500000D03*
%TD*%
%TO.P,TP14,1,1*%
%TO.N,GND*%
X149750000Y-117250000D03*
%TD*%
%TO.P,TP1,1,1*%
%TO.N,/FC6_SCK*%
X127000000Y-102500000D03*
%TD*%
%TO.P,TP15,1,1*%
%TO.N,/ENC_B*%
X122500000Y-78000000D03*
%TD*%
D20*
%TO.N,+5V*%
X146750000Y-70500000D03*
D21*
X140650975Y-66546739D03*
X148000000Y-104500000D03*
%TO.N,+3V3*%
X138500000Y-88000000D03*
X146250000Y-94750000D03*
X131000000Y-89500000D03*
X145750000Y-104000000D03*
X138500000Y-98500000D03*
X145750000Y-103000000D03*
X142250000Y-92500000D03*
X123500000Y-87250000D03*
X134500000Y-98500000D03*
X146250000Y-95750000D03*
X142750000Y-91000000D03*
X131000000Y-91500000D03*
X146000000Y-67250000D03*
X136500000Y-98500000D03*
X125750000Y-111250000D03*
X139750000Y-97250000D03*
X145000000Y-67250000D03*
X142250000Y-93500000D03*
D22*
X153000000Y-118250000D03*
D21*
X131000000Y-90500000D03*
%TO.N,+1V8*%
X147250000Y-109250000D03*
%TO.N,/USB_D+*%
X136250000Y-64500000D03*
X138042518Y-91207482D03*
%TO.N,/USB_D-*%
X138000000Y-89000000D03*
X138750000Y-64500000D03*
%TO.N,/VBUS_*%
X136000000Y-60250000D03*
X159000000Y-96250000D03*
X140718767Y-62781233D03*
X139000000Y-60250000D03*
X139759355Y-62504544D03*
%TO.N,/USB1_LED*%
X136143360Y-92413402D03*
X119750000Y-87750000D03*
D20*
%TO.N,/FC6_CS1*%
X140250000Y-98000000D03*
D21*
%TO.N,/RESET*%
X136620878Y-91129122D03*
X150725500Y-104500000D03*
%TO.N,/FC6_SCK*%
X128000000Y-102500000D03*
X129475500Y-102500000D03*
X135750000Y-93500000D03*
%TO.N,/FC6_MOSI*%
X131024500Y-100000000D03*
X128000000Y-100000000D03*
%TO.N,/FC6_MISO*%
X137750000Y-95500000D03*
X129975500Y-106250000D03*
X128000000Y-106250000D03*
D20*
%TO.N,/SW1_L_NC*%
X135519107Y-91020248D03*
D21*
%TO.N,/SNSR_RST*%
X132500000Y-97450989D03*
X129000000Y-99475500D03*
X136500000Y-97274500D03*
%TO.N,/SW1_L_NO*%
X136500000Y-89250000D03*
%TO.N,GND*%
X136700989Y-94750000D03*
X144270000Y-92500000D03*
X142000000Y-62750000D03*
X145750000Y-107250000D03*
X144250000Y-90500000D03*
X128500000Y-105500000D03*
X142000000Y-68000000D03*
X134000000Y-65250000D03*
X139451727Y-94957641D03*
X134925500Y-89524020D03*
X150750000Y-114000000D03*
X140000000Y-68000000D03*
X141600989Y-88000000D03*
D22*
X149750000Y-118250000D03*
D21*
X154750000Y-105750000D03*
X145000000Y-85750000D03*
X145000000Y-66274989D03*
X133475011Y-92000000D03*
X137500000Y-98500000D03*
X148000000Y-107000000D03*
X140750000Y-88000000D03*
X153250000Y-114000000D03*
X150500000Y-68250000D03*
X135500000Y-98500000D03*
X149500000Y-114000000D03*
X148750000Y-108750000D03*
X140000000Y-63909500D03*
X145750000Y-106250000D03*
X145250000Y-90500000D03*
X143500000Y-66225500D03*
X132000000Y-65250000D03*
X149520000Y-105270000D03*
X137528381Y-87971619D03*
X144250000Y-93500000D03*
X133374500Y-62750000D03*
D20*
X141250000Y-92500000D03*
D21*
X133500000Y-98500000D03*
X129250000Y-96250000D03*
%TO.N,/SW4_NC*%
X135544503Y-94500000D03*
X129250000Y-97250000D03*
%TO.N,/SW4_NO*%
X135944011Y-95500000D03*
X129250000Y-98250000D03*
D20*
%TO.N,/SW2_R_NO*%
X137750000Y-92519503D03*
%TO.N,/SW2_R_NC*%
X137750000Y-93500000D03*
%TO.N,/SW3_M_NO*%
X139000000Y-90750000D03*
%TO.N,/SW3_M_NC*%
X139000000Y-92000000D03*
%TO.N,/ENC_B*%
X133500000Y-93000000D03*
D22*
X120750000Y-78000000D03*
%TO.N,/ENC_A*%
X121334080Y-79767133D03*
D20*
X133750000Y-91000000D03*
D21*
%TO.N,/SWO*%
X150750000Y-112874500D03*
X139250000Y-93548273D03*
X155250000Y-109274500D03*
D20*
%TO.N,/SWCLK*%
X141250000Y-93500000D03*
D21*
X153750000Y-108750000D03*
%TO.N,/SWDIO*%
X153750000Y-107750000D03*
X145000000Y-94000000D03*
%TO.N,/SNSR_MTN*%
X138397276Y-94749989D03*
%TO.N,/ISP*%
X141250000Y-98000000D03*
X150725500Y-105500000D03*
X152000000Y-110250000D03*
X137500000Y-96750000D03*
%TO.N,/DBG_VIN*%
X159000000Y-99000000D03*
X148250000Y-114000000D03*
%TD*%
D23*
%TO.N,+5V*%
X147750000Y-69500000D02*
X147750000Y-69250000D01*
X146750000Y-70500000D02*
X147750000Y-69500000D01*
%TO.N,+1V8*%
X147250000Y-116750000D02*
X146750000Y-117250000D01*
X147250000Y-109250000D02*
X147250000Y-116750000D01*
D24*
%TO.N,/USB_D+*%
X123875000Y-73875000D02*
X123875000Y-73625000D01*
X135564339Y-66625000D02*
X127344668Y-66625000D01*
X136250000Y-65939339D02*
X135564339Y-66625000D01*
X136250000Y-64500000D02*
X136250000Y-65939339D01*
D23*
X138042518Y-91207482D02*
X138042518Y-90050746D01*
X138042518Y-90050746D02*
X136717262Y-88725490D01*
D24*
X122500000Y-75250000D02*
X123875000Y-73875000D01*
X127344668Y-66625000D02*
X123875000Y-70094668D01*
X123875000Y-83905332D02*
X128640882Y-88671214D01*
D23*
X136410484Y-88725490D02*
X136217497Y-88532503D01*
D24*
X123875000Y-73625000D02*
X123875000Y-83905332D01*
X123875000Y-70094668D02*
X123875000Y-73625000D01*
D23*
X136217497Y-88532503D02*
X136000000Y-88750000D01*
D24*
X128640882Y-88671214D02*
X136000000Y-88671214D01*
D23*
X136717262Y-88725490D02*
X136410484Y-88725490D01*
%TO.N,/USB_D-*%
X136882748Y-88325970D02*
X136575970Y-88325970D01*
D24*
X137428437Y-64999999D02*
X137308887Y-65119548D01*
X137101498Y-66148502D02*
X135875000Y-67375000D01*
X127655332Y-67375000D02*
X124625000Y-70405332D01*
X135875000Y-67375000D02*
X127655332Y-67375000D01*
X137839219Y-65000000D02*
X137839218Y-64999999D01*
X124625000Y-70405332D02*
X124625000Y-73625000D01*
X137428437Y-64999998D02*
X137428437Y-64999999D01*
X126000000Y-75250000D02*
X124625000Y-73875000D01*
X137308888Y-65941110D02*
X137308887Y-65941110D01*
X137308888Y-65530329D02*
X137308887Y-65530329D01*
X137839218Y-65000000D02*
X137839219Y-65000000D01*
X124625000Y-83594668D02*
X128951546Y-87921214D01*
D23*
X136250000Y-88000000D02*
X136000000Y-88000000D01*
D24*
X124625000Y-73625000D02*
X124625000Y-83594668D01*
D23*
X136575970Y-88325970D02*
X136250000Y-88000000D01*
D24*
X124625000Y-73875000D02*
X124625000Y-73625000D01*
D23*
X137556778Y-89000000D02*
X136882748Y-88325970D01*
X138000000Y-89000000D02*
X137556778Y-89000000D01*
D24*
X128951546Y-87921214D02*
X136000000Y-87921214D01*
X138750000Y-64500000D02*
X138250000Y-65000000D01*
X137308887Y-65941110D02*
X137101498Y-66148502D01*
X137839218Y-65000000D02*
G75*
G03*
X138250000Y-65000000I205391J205390D01*
G01*
X137308888Y-65941110D02*
G75*
G03*
X137308887Y-65530329I-205391J205390D01*
G01*
X137428437Y-64999998D02*
G75*
G02*
X137839218Y-64999999I205390J-205391D01*
G01*
X137308888Y-65530329D02*
G75*
G02*
X137308887Y-65119548I205390J205391D01*
G01*
D23*
%TO.N,/USB1_LED*%
X127039014Y-94299038D02*
X134037389Y-94299039D01*
X134037389Y-94299039D02*
X135923026Y-92413402D01*
X135923026Y-92413402D02*
X136143360Y-92413402D01*
X119750000Y-87750000D02*
X120489976Y-87750000D01*
X120489976Y-87750000D02*
X127039014Y-94299038D01*
%TO.N,/FC6_CS1*%
X140225489Y-97975489D02*
X132282739Y-97975489D01*
X130500000Y-106105000D02*
X132150000Y-107755000D01*
X130500000Y-99758228D02*
X130500000Y-106105000D01*
X132282739Y-97975489D02*
X130500000Y-99758228D01*
X140250000Y-98000000D02*
X140225489Y-97975489D01*
%TO.N,/RESET*%
X150725500Y-104290506D02*
X140660483Y-94225489D01*
X150725500Y-104500000D02*
X150725500Y-104290506D01*
X140660483Y-94225489D02*
X137725489Y-94225489D01*
X137725489Y-94225489D02*
X136667871Y-93167871D01*
X136667871Y-91176115D02*
X136620878Y-91129122D01*
X136667871Y-93167871D02*
X136667871Y-91176115D01*
%TO.N,/FC6_SCK*%
X128000000Y-102500000D02*
X127000000Y-102500000D01*
X136151938Y-96323551D02*
X131926449Y-96323551D01*
X129524511Y-102475489D02*
X129500000Y-102500000D01*
X131926449Y-96323551D02*
X129524511Y-98725489D01*
X136192761Y-93500000D02*
X137225500Y-94532739D01*
X135750000Y-93500000D02*
X136192761Y-93500000D01*
X137225500Y-95249989D02*
X136151938Y-96323551D01*
X129524511Y-98725489D02*
X129524511Y-102475489D01*
X137225500Y-94532739D02*
X137225500Y-95249989D01*
%TO.N,/FC6_MOSI*%
X131000000Y-103045000D02*
X132150000Y-104195000D01*
X128000000Y-100000000D02*
X127000000Y-100000000D01*
X131024500Y-100000000D02*
X131000000Y-100024500D01*
X131000000Y-100024500D02*
X131000000Y-103045000D01*
%TO.N,/FC6_MISO*%
X127750000Y-106000000D02*
X127000000Y-106000000D01*
X137750000Y-95500000D02*
X136500000Y-96750000D01*
X128000000Y-106250000D02*
X127750000Y-106000000D01*
X130000000Y-106225500D02*
X129975500Y-106250000D01*
X132221611Y-96750000D02*
X130000000Y-98971611D01*
X136500000Y-96750000D02*
X132221611Y-96750000D01*
X130000000Y-98971611D02*
X130000000Y-106225500D01*
%TO.N,/SW1_L_NC*%
X127204501Y-93899519D02*
X119850480Y-86545498D01*
X119000000Y-83080000D02*
X119000000Y-80500000D01*
X134399030Y-93372392D02*
X133871903Y-93899519D01*
X119850480Y-86545498D02*
X119850480Y-83930480D01*
X135519107Y-91020248D02*
X134399031Y-92140324D01*
X119850480Y-83930480D02*
X119000000Y-83080000D01*
X133871903Y-93899519D02*
X127204501Y-93899519D01*
X134399031Y-92140324D02*
X134399030Y-93372392D01*
%TO.N,/SNSR_RST*%
X129000000Y-99475500D02*
X128950989Y-99524511D01*
X129250000Y-106635000D02*
X132150000Y-109535000D01*
X128950989Y-102950989D02*
X129250000Y-103250000D01*
X128950989Y-99524511D02*
X128950989Y-102950989D01*
X136500000Y-97274500D02*
X132676489Y-97274500D01*
X129250000Y-103250000D02*
X129250000Y-106635000D01*
X132676489Y-97274500D02*
X132500000Y-97450989D01*
%TO.N,/SW1_L_NO*%
X127369987Y-93499999D02*
X120250000Y-86380012D01*
X120250000Y-86380012D02*
X120250000Y-79250000D01*
X133706417Y-93499999D02*
X127369987Y-93499999D01*
X133999511Y-91750489D02*
X133999511Y-93206905D01*
X119000000Y-78000000D02*
X119000000Y-75500000D01*
X120250000Y-79250000D02*
X119000000Y-78000000D01*
X133999511Y-93206905D02*
X133706417Y-93499999D01*
X136500000Y-89250000D02*
X133999511Y-91750489D01*
%TO.N,/SW4_NC*%
X135044503Y-95000000D02*
X131500000Y-95000000D01*
X135544503Y-94500000D02*
X135044503Y-95000000D01*
X131500000Y-95000000D02*
X129250000Y-97250000D01*
%TO.N,/SW4_NO*%
X131750000Y-95750000D02*
X129250000Y-98250000D01*
X135694011Y-95750000D02*
X131750000Y-95750000D01*
X135944011Y-95500000D02*
X135694011Y-95750000D01*
%TO.N,/SW2_R_NO*%
X154750000Y-81250000D02*
X154750000Y-79250000D01*
X154750000Y-79250000D02*
X156000000Y-78000000D01*
X155500000Y-80500000D02*
X156500000Y-80500000D01*
X154750000Y-81250000D02*
X155500000Y-80500000D01*
X143084514Y-89350480D02*
X153334514Y-89350480D01*
X139915491Y-92519503D02*
X143084514Y-89350480D01*
X154750000Y-87934994D02*
X154750000Y-81250000D01*
X153334514Y-89350480D02*
X154750000Y-87934994D01*
X137750000Y-92519503D02*
X139915491Y-92519503D01*
%TO.N,/SW2_R_NC*%
X153500000Y-89750000D02*
X155149520Y-88100480D01*
X155149520Y-86149520D02*
X155149520Y-83930480D01*
X155149520Y-83930480D02*
X156000000Y-83080000D01*
X155149520Y-88100480D02*
X155149520Y-86149520D01*
X155799040Y-85500000D02*
X155149520Y-86149520D01*
X137750000Y-93500000D02*
X138330977Y-92919023D01*
X138330977Y-92919023D02*
X140080977Y-92919023D01*
X156500000Y-85500000D02*
X155799040Y-85500000D01*
X140080977Y-92919023D02*
X143250000Y-89750000D01*
X143250000Y-89750000D02*
X153500000Y-89750000D01*
%TO.N,/SW3_M_NO*%
X139000000Y-90750000D02*
X140554982Y-90750000D01*
X147750000Y-87869988D02*
X147750000Y-81250000D01*
X147750000Y-81250000D02*
X149000000Y-80000000D01*
X142753542Y-88551440D02*
X147068548Y-88551440D01*
X140554982Y-90750000D02*
X142753542Y-88551440D01*
X149000000Y-80000000D02*
X149500000Y-79500000D01*
X147068548Y-88551440D02*
X147750000Y-87869988D01*
X149500000Y-79500000D02*
X149500000Y-77500000D01*
%TO.N,/SW3_M_NC*%
X142919028Y-88950960D02*
X147234034Y-88950960D01*
X149500000Y-84580000D02*
X149000000Y-85080000D01*
X139869988Y-92000000D02*
X142919028Y-88950960D01*
X147234034Y-88950960D02*
X148149520Y-88035474D01*
X139000000Y-92000000D02*
X139869988Y-92000000D01*
X148149520Y-88035474D02*
X148149520Y-85930480D01*
X149500000Y-82500000D02*
X149500000Y-84580000D01*
X148149520Y-85930480D02*
X149000000Y-85080000D01*
%TO.N,/ENC_B*%
X127535473Y-93100479D02*
X133399521Y-93100479D01*
X120649520Y-78100480D02*
X120649520Y-86214526D01*
X120750000Y-78000000D02*
X122500000Y-78000000D01*
X120649520Y-86214526D02*
X127535473Y-93100479D01*
X120750000Y-78000000D02*
X120649520Y-78100480D01*
X133399521Y-93100479D02*
X133500000Y-93000000D01*
%TO.N,/ENC_A*%
X121049040Y-86049040D02*
X121049040Y-80052173D01*
X132950500Y-91782739D02*
X132950500Y-92299500D01*
X121334080Y-79767133D02*
X122500000Y-80933053D01*
X127700960Y-92700960D02*
X121049040Y-86049040D01*
X132950500Y-92299500D02*
X132549040Y-92700960D01*
X132549040Y-92700960D02*
X127700960Y-92700960D01*
X133750000Y-91000000D02*
X133733239Y-91000000D01*
X133733239Y-91000000D02*
X132950500Y-91782739D01*
X121049040Y-80052173D02*
X121334080Y-79767133D01*
X122500000Y-80933053D02*
X122500000Y-81000000D01*
%TO.N,/SWO*%
X153524500Y-109274500D02*
X155250000Y-109274500D01*
X139250000Y-93548273D02*
X140548273Y-93548273D01*
X151250000Y-107000000D02*
X153524500Y-109274500D01*
X153625500Y-112874500D02*
X154250000Y-112250000D01*
X150750000Y-112874500D02*
X153625500Y-112874500D01*
X154250000Y-112250000D02*
X154250000Y-110274500D01*
X140548273Y-93548273D02*
X151250000Y-104250000D01*
X154250000Y-110274500D02*
X155250000Y-109274500D01*
X151250000Y-104250000D02*
X151250000Y-107000000D01*
%TO.N,/SWCLK*%
X141250000Y-93500000D02*
X151649519Y-103899519D01*
X156000000Y-108750000D02*
X157750000Y-110500000D01*
X151649519Y-106834513D02*
X153565006Y-108750000D01*
X151649519Y-103899519D02*
X151649519Y-106834513D01*
X153565006Y-108750000D02*
X156000000Y-108750000D01*
%TO.N,/SWDIO*%
X152049039Y-106669027D02*
X153130012Y-107750000D01*
X145000000Y-94000000D02*
X145000000Y-96684986D01*
X156500000Y-107750000D02*
X157750000Y-106500000D01*
X145000000Y-96684986D02*
X152049039Y-103734025D01*
X152049039Y-103734025D02*
X152049039Y-106669027D01*
X153130012Y-107750000D02*
X156500000Y-107750000D01*
%TO.N,/SNSR_MTN*%
X140732152Y-95482152D02*
X142000000Y-96750000D01*
X142000000Y-98500000D02*
X141475489Y-99024511D01*
X139129439Y-95482152D02*
X140732152Y-95482152D01*
X132150000Y-99350000D02*
X132150000Y-100635000D01*
X142000000Y-96750000D02*
X142000000Y-98500000D01*
X141475489Y-99024511D02*
X132475489Y-99024511D01*
X138397276Y-94749989D02*
X139129439Y-95482152D01*
X132475489Y-99024511D02*
X132150000Y-99350000D01*
%TO.N,/ISP*%
X150725500Y-107225500D02*
X152000000Y-108500000D01*
X137524511Y-96725489D02*
X139975489Y-96725489D01*
X137500000Y-96750000D02*
X137524511Y-96725489D01*
X139975489Y-96725489D02*
X141250000Y-98000000D01*
X152000000Y-108500000D02*
X152000000Y-110250000D01*
X150725500Y-105500000D02*
X150725500Y-107225500D01*
%TD*%
M02*
