%FSLAX45Y45*%
G04 Gerber Fmt 4.5, Leading zero omitted, Abs format (unit mm)*
G04 Created by KiCad (PCBNEW 6.0.0-rc1-unknown-rc1+486+g97c2627de6) date 2021-12-22 22:09:30*
%MOMM*%
%LPD*%
G01*
G04 APERTURE LIST*
%TA.AperFunction,Profile*%
%ADD10C,0.100000*%
%TD*%
%ADD11C,0.200000*%
%ADD12C,0.025000*%
%ADD13C,0.030000*%
%ADD14C,0.040000*%
%ADD15C,0.060000*%
%ADD16C,0.070000*%
%ADD17C,0.080000*%
%ADD18C,0.090000*%
%ADD19C,0.100000*%
G04 APERTURE END LIST*
D10*
X13314645Y-7185355D02*
G75*
G03*
X13364645Y-7135355I0J50000D01*
G01*
X14464645Y-8335355D02*
X14464645Y-7235355D01*
X14214645Y-8385355D02*
X14414645Y-8385355D01*
X13364645Y-8685355D02*
G75*
G03*
X13414645Y-8735355I50000J0D01*
G01*
X14164644Y-6885355D02*
G75*
G03*
X14114645Y-6835355I-50000J0D01*
G01*
X13200000Y-5550000D02*
X14300000Y-5550000D01*
X14114645Y-8735355D02*
G75*
G03*
X14164645Y-8685355I0J50000D01*
G01*
X14464645Y-7235355D02*
G75*
G03*
X14414645Y-7185355I-50000J0D01*
G01*
X15700000Y-11900000D02*
G75*
G03*
X16000000Y-11600000I0J300000D01*
G01*
X16000000Y-6800000D02*
X16000000Y-11600000D01*
X13114645Y-7185355D02*
G75*
G03*
X13064645Y-7235355I0J-50000D01*
G01*
X13064645Y-8335355D02*
G75*
G03*
X13114645Y-8385355I50000J0D01*
G01*
X13414645Y-6835355D02*
G75*
G03*
X13364645Y-6885355I0J-50000D01*
G01*
X13200000Y-5550000D02*
X13200000Y-6300000D01*
X14164644Y-6885355D02*
X14164645Y-7135355D01*
X14164645Y-7135355D02*
G75*
G03*
X14214645Y-7185355I50000J0D01*
G01*
X14214645Y-7185355D02*
X14414645Y-7185355D01*
X14300000Y-6300000D02*
G75*
G03*
X14500000Y-6500000I200000J0D01*
G01*
X13364645Y-8435355D02*
G75*
G03*
X13314645Y-8385355I-50000J0D01*
G01*
X14500000Y-6500000D02*
X15700000Y-6500000D01*
X16000000Y-6800000D02*
G75*
G03*
X15700000Y-6500000I-300000J0D01*
G01*
X14414645Y-8385355D02*
G75*
G03*
X14464645Y-8335355I0J50000D01*
G01*
X14114645Y-6835355D02*
X13414645Y-6835355D01*
X14164645Y-8435355D02*
X14164645Y-8685355D01*
X11800000Y-11900000D02*
X15700000Y-11900000D01*
X14214645Y-8385355D02*
G75*
G03*
X14164645Y-8435355I0J-50000D01*
G01*
X11800000Y-6500000D02*
G75*
G03*
X11500000Y-6800000I0J-300000D01*
G01*
X13314645Y-7185355D02*
X13114645Y-7185355D01*
X13364645Y-7135355D02*
X13364645Y-6885355D01*
X13314645Y-8385355D02*
X13114645Y-8385355D01*
X13364645Y-8685355D02*
X13364645Y-8435355D01*
X13414645Y-8735355D02*
X14114645Y-8735355D01*
X11500000Y-11600000D02*
X11500000Y-6800000D01*
X14300000Y-6300000D02*
X14300000Y-5550000D01*
X13000000Y-6500000D02*
G75*
G03*
X13200000Y-6300000I0J200000D01*
G01*
X11500000Y-11600000D02*
G75*
G03*
X11800000Y-11900000I300000J0D01*
G01*
X13064645Y-8335355D02*
X13064645Y-7235355D01*
X11800000Y-6500000D02*
X13000000Y-6500000D01*
D11*
D12*
X13337500Y-9287500D02*
X13362500Y-9312500D01*
X13362500Y-9287500D02*
X13337500Y-9312500D01*
X13762500Y-9239450D02*
X13787500Y-9264450D01*
X13787500Y-9239450D02*
X13762500Y-9264450D01*
X13762500Y-9337500D02*
X13787500Y-9362500D01*
X13787500Y-9337500D02*
X13762500Y-9362500D01*
D13*
X12365000Y-9150000D02*
G75*
G03*
X12365000Y-9150000I-15000J0D01*
G01*
X12590000Y-11125000D02*
G75*
G03*
X12590000Y-11125000I-15000J0D01*
G01*
X12740000Y-9050000D02*
G75*
G03*
X12740000Y-9050000I-15000J0D01*
G01*
X12815000Y-10000000D02*
G75*
G03*
X12815000Y-10000000I-15000J0D01*
G01*
X12815000Y-10250000D02*
G75*
G03*
X12815000Y-10250000I-15000J0D01*
G01*
X12815000Y-10625000D02*
G75*
G03*
X12815000Y-10625000I-15000J0D01*
G01*
X12865000Y-10550000D02*
G75*
G03*
X12865000Y-10550000I-15000J0D01*
G01*
X12940000Y-9625000D02*
G75*
G03*
X12940000Y-9625000I-15000J0D01*
G01*
X12940000Y-9725000D02*
G75*
G03*
X12940000Y-9725000I-15000J0D01*
G01*
X12940000Y-9825000D02*
G75*
G03*
X12940000Y-9825000I-15000J0D01*
G01*
X12962550Y-10250000D02*
G75*
G03*
X12962550Y-10250000I-15000J0D01*
G01*
X13012550Y-10625000D02*
G75*
G03*
X13012550Y-10625000I-15000J0D01*
G01*
X13115000Y-8900000D02*
G75*
G03*
X13115000Y-8900000I-15000J0D01*
G01*
X13115000Y-9000000D02*
G75*
G03*
X13115000Y-9000000I-15000J0D01*
G01*
X13115000Y-9100000D02*
G75*
G03*
X13115000Y-9100000I-15000J0D01*
G01*
X13117450Y-10000000D02*
G75*
G03*
X13117450Y-10000000I-15000J0D01*
G01*
X13190000Y-8700000D02*
G75*
G03*
X13190000Y-8700000I-15000J0D01*
G01*
X13215000Y-6525000D02*
G75*
G03*
X13215000Y-6525000I-15000J0D01*
G01*
X13240000Y-9200000D02*
G75*
G03*
X13240000Y-9200000I-15000J0D01*
G01*
X13340000Y-9150000D02*
G75*
G03*
X13340000Y-9150000I-15000J0D01*
G01*
X13352450Y-6275000D02*
G75*
G03*
X13352450Y-6275000I-15000J0D01*
G01*
X13365000Y-9500000D02*
G75*
G03*
X13365000Y-9500000I-15000J0D01*
G01*
X13365000Y-9850000D02*
G75*
G03*
X13365000Y-9850000I-15000J0D01*
G01*
X13415000Y-6525000D02*
G75*
G03*
X13415000Y-6525000I-15000J0D01*
G01*
X13465000Y-6400000D02*
G75*
G03*
X13465000Y-6400000I-15000J0D01*
G01*
X13465000Y-9850000D02*
G75*
G03*
X13465000Y-9850000I-15000J0D01*
G01*
X13507550Y-8952402D02*
G75*
G03*
X13507550Y-8952402I-15000J0D01*
G01*
X13565000Y-9850000D02*
G75*
G03*
X13565000Y-9850000I-15000J0D01*
G01*
X13566911Y-9102025D02*
G75*
G03*
X13566911Y-9102025I-15000J0D01*
G01*
X13569450Y-9450000D02*
G75*
G03*
X13569450Y-9450000I-15000J0D01*
G01*
X13590000Y-9350000D02*
G75*
G03*
X13590000Y-9350000I-15000J0D01*
G01*
X13609401Y-9550000D02*
G75*
G03*
X13609401Y-9550000I-15000J0D01*
G01*
X13615000Y-6025000D02*
G75*
G03*
X13615000Y-6025000I-15000J0D01*
G01*
X13629336Y-9241340D02*
G75*
G03*
X13629336Y-9241340I-15000J0D01*
G01*
X13665000Y-8900000D02*
G75*
G03*
X13665000Y-8900000I-15000J0D01*
G01*
X13665000Y-9850000D02*
G75*
G03*
X13665000Y-9850000I-15000J0D01*
G01*
X13677088Y-9112912D02*
G75*
G03*
X13677088Y-9112912I-15000J0D01*
G01*
X13685099Y-9475000D02*
G75*
G03*
X13685099Y-9475000I-15000J0D01*
G01*
X13715000Y-6450000D02*
G75*
G03*
X13715000Y-6450000I-15000J0D01*
G01*
X13717450Y-9665195D02*
G75*
G03*
X13717450Y-9665195I-15000J0D01*
G01*
X13765000Y-9850000D02*
G75*
G03*
X13765000Y-9850000I-15000J0D01*
G01*
X13767838Y-8797162D02*
G75*
G03*
X13767838Y-8797162I-15000J0D01*
G01*
X13790000Y-9550000D02*
G75*
G03*
X13790000Y-9550000I-15000J0D01*
G01*
X13815000Y-6447550D02*
G75*
G03*
X13815000Y-6447550I-15000J0D01*
G01*
X13815000Y-6650000D02*
G75*
G03*
X13815000Y-6650000I-15000J0D01*
G01*
X13815000Y-8900000D02*
G75*
G03*
X13815000Y-8900000I-15000J0D01*
G01*
X13819252Y-9120748D02*
G75*
G03*
X13819252Y-9120748I-15000J0D01*
G01*
X13854728Y-9474999D02*
G75*
G03*
X13854728Y-9474999I-15000J0D01*
G01*
X13865000Y-9850000D02*
G75*
G03*
X13865000Y-9850000I-15000J0D01*
G01*
X13915000Y-6025000D02*
G75*
G03*
X13915000Y-6025000I-15000J0D01*
G01*
X13915000Y-6650000D02*
G75*
G03*
X13915000Y-6650000I-15000J0D01*
G01*
X13915000Y-9125000D02*
G75*
G03*
X13915000Y-9125000I-15000J0D01*
G01*
X13919236Y-9354827D02*
G75*
G03*
X13919236Y-9354827I-15000J0D01*
G01*
X13940000Y-9210098D02*
G75*
G03*
X13940000Y-9210098I-15000J0D01*
G01*
X13960173Y-9495764D02*
G75*
G03*
X13960173Y-9495764I-15000J0D01*
G01*
X13965000Y-6450000D02*
G75*
G03*
X13965000Y-6450000I-15000J0D01*
G01*
X13967401Y-9800000D02*
G75*
G03*
X13967401Y-9800000I-15000J0D01*
G01*
X13990935Y-6250454D02*
G75*
G03*
X13990935Y-6250454I-15000J0D01*
G01*
X14015000Y-6775000D02*
G75*
G03*
X14015000Y-6775000I-15000J0D01*
G01*
X14015000Y-8800000D02*
G75*
G03*
X14015000Y-8800000I-15000J0D01*
G01*
X14080097Y-6654674D02*
G75*
G03*
X14080097Y-6654674I-15000J0D01*
G01*
X14115000Y-8800000D02*
G75*
G03*
X14115000Y-8800000I-15000J0D01*
G01*
X14140000Y-9250000D02*
G75*
G03*
X14140000Y-9250000I-15000J0D01*
G01*
X14140000Y-9350000D02*
G75*
G03*
X14140000Y-9350000I-15000J0D01*
G01*
X14190000Y-6550000D02*
G75*
G03*
X14190000Y-6550000I-15000J0D01*
G01*
X14215000Y-6275000D02*
G75*
G03*
X14215000Y-6275000I-15000J0D01*
G01*
X14215000Y-6400000D02*
G75*
G03*
X14215000Y-6400000I-15000J0D01*
G01*
X14240000Y-9250000D02*
G75*
G03*
X14240000Y-9250000I-15000J0D01*
G01*
X14240000Y-9350000D02*
G75*
G03*
X14240000Y-9350000I-15000J0D01*
G01*
X14290000Y-6475000D02*
G75*
G03*
X14290000Y-6475000I-15000J0D01*
G01*
X14290000Y-9100000D02*
G75*
G03*
X14290000Y-9100000I-15000J0D01*
G01*
X14440000Y-9050000D02*
G75*
G03*
X14440000Y-9050000I-15000J0D01*
G01*
X14440000Y-9350000D02*
G75*
G03*
X14440000Y-9350000I-15000J0D01*
G01*
X14442000Y-9250000D02*
G75*
G03*
X14442000Y-9250000I-15000J0D01*
G01*
X14465000Y-6627499D02*
G75*
G03*
X14465000Y-6627499I-15000J0D01*
G01*
X14465000Y-6725000D02*
G75*
G03*
X14465000Y-6725000I-15000J0D01*
G01*
X14515000Y-8575000D02*
G75*
G03*
X14515000Y-8575000I-15000J0D01*
G01*
X14515000Y-9400000D02*
G75*
G03*
X14515000Y-9400000I-15000J0D01*
G01*
X14540000Y-9050000D02*
G75*
G03*
X14540000Y-9050000I-15000J0D01*
G01*
X14565000Y-6725000D02*
G75*
G03*
X14565000Y-6725000I-15000J0D01*
G01*
X14590000Y-10300000D02*
G75*
G03*
X14590000Y-10300000I-15000J0D01*
G01*
X14590000Y-10400000D02*
G75*
G03*
X14590000Y-10400000I-15000J0D01*
G01*
X14590000Y-10625000D02*
G75*
G03*
X14590000Y-10625000I-15000J0D01*
G01*
X14590000Y-10725000D02*
G75*
G03*
X14590000Y-10725000I-15000J0D01*
G01*
X14640000Y-9475000D02*
G75*
G03*
X14640000Y-9475000I-15000J0D01*
G01*
X14640000Y-9575000D02*
G75*
G03*
X14640000Y-9575000I-15000J0D01*
G01*
X14690000Y-7050000D02*
G75*
G03*
X14690000Y-7050000I-15000J0D01*
G01*
X14740000Y-10450000D02*
G75*
G03*
X14740000Y-10450000I-15000J0D01*
G01*
X14740000Y-11100000D02*
G75*
G03*
X14740000Y-11100000I-15000J0D01*
G01*
X14815000Y-10750000D02*
G75*
G03*
X14815000Y-10750000I-15000J0D01*
G01*
X14890000Y-10525000D02*
G75*
G03*
X14890000Y-10525000I-15000J0D01*
G01*
X14890000Y-10875000D02*
G75*
G03*
X14890000Y-10875000I-15000J0D01*
G01*
X15065000Y-10450000D02*
G75*
G03*
X15065000Y-10450000I-15000J0D01*
G01*
X15440000Y-10550000D02*
G75*
G03*
X15440000Y-10550000I-15000J0D01*
G01*
X15440000Y-10650000D02*
G75*
G03*
X15440000Y-10650000I-15000J0D01*
G01*
X15440000Y-10750000D02*
G75*
G03*
X15440000Y-10750000I-15000J0D01*
G01*
X15440000Y-11050000D02*
G75*
G03*
X15440000Y-11050000I-15000J0D01*
G01*
X15540000Y-10927450D02*
G75*
G03*
X15540000Y-10927450I-15000J0D01*
G01*
D14*
X12085329Y-7874835D02*
X12085329Y-7914835D01*
X12065329Y-7894835D02*
X12105329Y-7894835D01*
X12133408Y-7956713D02*
X12133408Y-7996713D01*
X12113408Y-7976713D02*
X12153408Y-7976713D01*
X14900000Y-11530000D02*
X14900000Y-11570000D01*
X14880000Y-11550000D02*
X14920000Y-11550000D01*
X15250000Y-11530000D02*
X15250000Y-11570000D01*
X15230000Y-11550000D02*
X15270000Y-11550000D01*
D15*
X13339213Y-5721213D02*
X13339213Y-5678787D01*
X13296787Y-5678787D01*
X13296787Y-5721213D01*
X13339213Y-5721213D01*
D11*
X13338000Y-5740000D02*
X13338000Y-5660000D01*
X13298000Y-5740000D02*
X13298000Y-5660000D01*
X13338000Y-5660000D02*
G75*
G03*
X13298000Y-5660000I-20000J0D01*
G01*
X13298000Y-5740000D02*
G75*
G03*
X13338000Y-5740000I20000J0D01*
G01*
D15*
X13339213Y-6139213D02*
X13339213Y-6096787D01*
X13296787Y-6096787D01*
X13296787Y-6139213D01*
X13339213Y-6139213D01*
D11*
X13338000Y-6173000D02*
X13338000Y-6063000D01*
X13298000Y-6173000D02*
X13298000Y-6063000D01*
X13338000Y-6063000D02*
G75*
G03*
X13298000Y-6063000I-20000J0D01*
G01*
X13298000Y-6173000D02*
G75*
G03*
X13338000Y-6173000I20000J0D01*
G01*
D15*
X14203213Y-5721213D02*
X14203213Y-5678787D01*
X14160787Y-5678787D01*
X14160787Y-5721213D01*
X14203213Y-5721213D01*
D11*
X14202000Y-5740000D02*
X14202000Y-5660000D01*
X14162000Y-5740000D02*
X14162000Y-5660000D01*
X14202000Y-5660000D02*
G75*
G03*
X14162000Y-5660000I-20000J0D01*
G01*
X14162000Y-5740000D02*
G75*
G03*
X14202000Y-5740000I20000J0D01*
G01*
D15*
X14203213Y-6139213D02*
X14203213Y-6096787D01*
X14160787Y-6096787D01*
X14160787Y-6139213D01*
X14203213Y-6139213D01*
D11*
X14202000Y-6173000D02*
X14202000Y-6063000D01*
X14162000Y-6173000D02*
X14162000Y-6063000D01*
X14202000Y-6063000D02*
G75*
G03*
X14162000Y-6063000I-20000J0D01*
G01*
X14162000Y-6173000D02*
G75*
G03*
X14202000Y-6173000I20000J0D01*
G01*
D16*
X13215000Y-10098500D02*
X13250000Y-10063500D01*
X13215000Y-10028500D01*
X13180000Y-10063500D01*
X13215000Y-10098500D01*
X13215000Y-10276500D02*
X13250000Y-10241500D01*
X13215000Y-10206500D01*
X13180000Y-10241500D01*
X13215000Y-10276500D01*
X13215000Y-10454500D02*
X13250000Y-10419500D01*
X13215000Y-10384500D01*
X13180000Y-10419500D01*
X13215000Y-10454500D01*
X13215000Y-10632500D02*
X13250000Y-10597500D01*
X13215000Y-10562500D01*
X13180000Y-10597500D01*
X13215000Y-10632500D01*
X13215000Y-10810500D02*
X13250000Y-10775500D01*
X13215000Y-10740500D01*
X13180000Y-10775500D01*
X13215000Y-10810500D01*
X13215000Y-10988500D02*
X13250000Y-10953500D01*
X13215000Y-10918500D01*
X13180000Y-10953500D01*
X13215000Y-10988500D01*
X13215000Y-11166500D02*
X13250000Y-11131500D01*
X13215000Y-11096500D01*
X13180000Y-11131500D01*
X13215000Y-11166500D01*
X13215000Y-11344500D02*
X13250000Y-11309500D01*
X13215000Y-11274500D01*
X13180000Y-11309500D01*
X13215000Y-11344500D01*
X14285000Y-10187500D02*
X14320000Y-10152500D01*
X14285000Y-10117500D01*
X14250000Y-10152500D01*
X14285000Y-10187500D01*
X14285000Y-10365500D02*
X14320000Y-10330500D01*
X14285000Y-10295500D01*
X14250000Y-10330500D01*
X14285000Y-10365500D01*
X14285000Y-10543500D02*
X14320000Y-10508500D01*
X14285000Y-10473500D01*
X14250000Y-10508500D01*
X14285000Y-10543500D01*
X14285000Y-10721500D02*
X14320000Y-10686500D01*
X14285000Y-10651500D01*
X14250000Y-10686500D01*
X14285000Y-10721500D01*
X14285000Y-10899500D02*
X14320000Y-10864500D01*
X14285000Y-10829500D01*
X14250000Y-10864500D01*
X14285000Y-10899500D01*
X14285000Y-11077500D02*
X14320000Y-11042500D01*
X14285000Y-11007500D01*
X14250000Y-11042500D01*
X14285000Y-11077500D01*
X14285000Y-11255500D02*
X14320000Y-11220500D01*
X14285000Y-11185500D01*
X14250000Y-11220500D01*
X14285000Y-11255500D01*
X14285000Y-11433500D02*
X14320000Y-11398500D01*
X14285000Y-11363500D01*
X14250000Y-11398500D01*
X14285000Y-11433500D01*
D17*
X15735000Y-10010000D02*
X15815000Y-10090000D01*
X15815000Y-10010000D02*
X15735000Y-10090000D01*
X15815000Y-10050000D02*
G75*
G03*
X15815000Y-10050000I-40000J0D01*
G01*
X15735000Y-10210000D02*
X15815000Y-10290000D01*
X15815000Y-10210000D02*
X15735000Y-10290000D01*
X15815000Y-10250000D02*
G75*
G03*
X15815000Y-10250000I-40000J0D01*
G01*
X15735000Y-10410000D02*
X15815000Y-10490000D01*
X15815000Y-10410000D02*
X15735000Y-10490000D01*
X15815000Y-10450000D02*
G75*
G03*
X15815000Y-10450000I-40000J0D01*
G01*
X15735000Y-10610000D02*
X15815000Y-10690000D01*
X15815000Y-10610000D02*
X15735000Y-10690000D01*
X15815000Y-10650000D02*
G75*
G03*
X15815000Y-10650000I-40000J0D01*
G01*
X15735000Y-10810000D02*
X15815000Y-10890000D01*
X15815000Y-10810000D02*
X15735000Y-10890000D01*
X15815000Y-10850000D02*
G75*
G03*
X15815000Y-10850000I-40000J0D01*
G01*
X15735000Y-11010000D02*
X15815000Y-11090000D01*
X15815000Y-11010000D02*
X15735000Y-11090000D01*
X15815000Y-11050000D02*
G75*
G03*
X15815000Y-11050000I-40000J0D01*
G01*
D18*
X12655000Y-7245000D02*
X12745000Y-7335000D01*
X12745000Y-7245000D02*
X12655000Y-7335000D01*
X12700000Y-7245000D02*
X12700000Y-7335000D01*
X12655000Y-7290000D02*
X12745000Y-7290000D01*
D11*
X12755000Y-7255000D02*
X12645000Y-7255000D01*
X12755000Y-7325000D02*
X12645000Y-7325000D01*
X12645000Y-7255000D02*
G75*
G03*
X12645000Y-7325000I0J-35000D01*
G01*
X12755000Y-7325000D02*
G75*
G03*
X12755000Y-7255000I0J35000D01*
G01*
D18*
X12655000Y-8265000D02*
X12745000Y-8355000D01*
X12745000Y-8265000D02*
X12655000Y-8355000D01*
X12700000Y-8265000D02*
X12700000Y-8355000D01*
X12655000Y-8310000D02*
X12745000Y-8310000D01*
D11*
X12755000Y-8275000D02*
X12645000Y-8275000D01*
X12755000Y-8345000D02*
X12645000Y-8345000D01*
X12645000Y-8275000D02*
G75*
G03*
X12645000Y-8345000I0J-35000D01*
G01*
X12755000Y-8345000D02*
G75*
G03*
X12755000Y-8275000I0J35000D01*
G01*
D19*
X11850000Y-7242000D02*
X11950000Y-7342000D01*
X11950000Y-7242000D02*
X11850000Y-7342000D01*
X11935356Y-7327356D02*
X11935356Y-7256644D01*
X11864644Y-7256644D01*
X11864644Y-7327356D01*
X11935356Y-7327356D01*
X11850000Y-7750000D02*
X11950000Y-7850000D01*
X11950000Y-7750000D02*
X11850000Y-7850000D01*
X11935356Y-7835356D02*
X11935356Y-7764644D01*
X11864644Y-7764644D01*
X11864644Y-7835356D01*
X11935356Y-7835356D01*
X11850000Y-8258000D02*
X11950000Y-8358000D01*
X11950000Y-8258000D02*
X11850000Y-8358000D01*
X11935356Y-8343356D02*
X11935356Y-8272644D01*
X11864644Y-8272644D01*
X11864644Y-8343356D01*
X11935356Y-8343356D01*
X12850000Y-7500000D02*
X12950000Y-7600000D01*
X12950000Y-7500000D02*
X12850000Y-7600000D01*
X12935356Y-7585356D02*
X12935356Y-7514644D01*
X12864644Y-7514644D01*
X12864644Y-7585356D01*
X12935356Y-7585356D01*
X12850000Y-7750000D02*
X12950000Y-7850000D01*
X12950000Y-7750000D02*
X12850000Y-7850000D01*
X12935356Y-7835356D02*
X12935356Y-7764644D01*
X12864644Y-7764644D01*
X12864644Y-7835356D01*
X12935356Y-7835356D01*
X12850000Y-8000000D02*
X12950000Y-8100000D01*
X12950000Y-8000000D02*
X12850000Y-8100000D01*
X12935356Y-8085356D02*
X12935356Y-8014644D01*
X12864644Y-8014644D01*
X12864644Y-8085356D01*
X12935356Y-8085356D01*
X14850000Y-7442000D02*
X14950000Y-7542000D01*
X14950000Y-7442000D02*
X14850000Y-7542000D01*
X14935356Y-7527356D02*
X14935356Y-7456644D01*
X14864644Y-7456644D01*
X14864644Y-7527356D01*
X14935356Y-7527356D01*
X14850000Y-7950000D02*
X14950000Y-8050000D01*
X14950000Y-7950000D02*
X14850000Y-8050000D01*
X14935356Y-8035356D02*
X14935356Y-7964644D01*
X14864644Y-7964644D01*
X14864644Y-8035356D01*
X14935356Y-8035356D01*
X14850000Y-8458000D02*
X14950000Y-8558000D01*
X14950000Y-8458000D02*
X14850000Y-8558000D01*
X14935356Y-8543356D02*
X14935356Y-8472644D01*
X14864644Y-8472644D01*
X14864644Y-8543356D01*
X14935356Y-8543356D01*
X15550000Y-7242000D02*
X15650000Y-7342000D01*
X15650000Y-7242000D02*
X15550000Y-7342000D01*
X15635356Y-7327356D02*
X15635356Y-7256644D01*
X15564644Y-7256644D01*
X15564644Y-7327356D01*
X15635356Y-7327356D01*
X15550000Y-7750000D02*
X15650000Y-7850000D01*
X15650000Y-7750000D02*
X15550000Y-7850000D01*
X15635356Y-7835356D02*
X15635356Y-7764644D01*
X15564644Y-7764644D01*
X15564644Y-7835356D01*
X15635356Y-7835356D01*
X15550000Y-8258000D02*
X15650000Y-8358000D01*
X15650000Y-8258000D02*
X15550000Y-8358000D01*
X15635356Y-8343356D02*
X15635356Y-8272644D01*
X15564644Y-8272644D01*
X15564644Y-8343356D01*
X15635356Y-8343356D01*
D11*
X11752619Y-12215476D02*
X11752619Y-12015476D01*
X11800238Y-12015476D01*
X11828809Y-12025000D01*
X11847857Y-12044048D01*
X11857381Y-12063095D01*
X11866905Y-12101190D01*
X11866905Y-12129762D01*
X11857381Y-12167857D01*
X11847857Y-12186905D01*
X11828809Y-12205952D01*
X11800238Y-12215476D01*
X11752619Y-12215476D01*
X11952619Y-12215476D02*
X11952619Y-12082143D01*
X11952619Y-12120238D02*
X11962143Y-12101190D01*
X11971667Y-12091667D01*
X11990714Y-12082143D01*
X12009762Y-12082143D01*
X12076428Y-12215476D02*
X12076428Y-12082143D01*
X12076428Y-12015476D02*
X12066905Y-12025000D01*
X12076428Y-12034524D01*
X12085952Y-12025000D01*
X12076428Y-12015476D01*
X12076428Y-12034524D01*
X12200238Y-12215476D02*
X12181190Y-12205952D01*
X12171667Y-12186905D01*
X12171667Y-12015476D01*
X12305000Y-12215476D02*
X12285952Y-12205952D01*
X12276428Y-12186905D01*
X12276428Y-12015476D01*
X12533571Y-12215476D02*
X12533571Y-12015476D01*
X12600238Y-12158333D01*
X12666905Y-12015476D01*
X12666905Y-12215476D01*
X12847857Y-12215476D02*
X12847857Y-12110714D01*
X12838333Y-12091667D01*
X12819286Y-12082143D01*
X12781190Y-12082143D01*
X12762143Y-12091667D01*
X12847857Y-12205952D02*
X12828809Y-12215476D01*
X12781190Y-12215476D01*
X12762143Y-12205952D01*
X12752619Y-12186905D01*
X12752619Y-12167857D01*
X12762143Y-12148809D01*
X12781190Y-12139286D01*
X12828809Y-12139286D01*
X12847857Y-12129762D01*
X12943095Y-12082143D02*
X12943095Y-12282143D01*
X12943095Y-12091667D02*
X12962143Y-12082143D01*
X13000238Y-12082143D01*
X13019286Y-12091667D01*
X13028809Y-12101190D01*
X13038333Y-12120238D01*
X13038333Y-12177381D01*
X13028809Y-12196428D01*
X13019286Y-12205952D01*
X13000238Y-12215476D01*
X12962143Y-12215476D01*
X12943095Y-12205952D01*
X13124048Y-12196428D02*
X13133571Y-12205952D01*
X13124048Y-12215476D01*
X13114524Y-12205952D01*
X13124048Y-12196428D01*
X13124048Y-12215476D01*
X13124048Y-12091667D02*
X13133571Y-12101190D01*
X13124048Y-12110714D01*
X13114524Y-12101190D01*
X13124048Y-12091667D01*
X13124048Y-12110714D01*
D12*
X11470000Y-12532500D02*
X11495000Y-12557500D01*
X11495000Y-12532500D02*
X11470000Y-12557500D01*
D11*
X11790714Y-12435476D02*
X11809762Y-12435476D01*
X11828809Y-12445000D01*
X11838333Y-12454524D01*
X11847857Y-12473571D01*
X11857381Y-12511667D01*
X11857381Y-12559286D01*
X11847857Y-12597381D01*
X11838333Y-12616428D01*
X11828809Y-12625952D01*
X11809762Y-12635476D01*
X11790714Y-12635476D01*
X11771667Y-12625952D01*
X11762143Y-12616428D01*
X11752619Y-12597381D01*
X11743095Y-12559286D01*
X11743095Y-12511667D01*
X11752619Y-12473571D01*
X11762143Y-12454524D01*
X11771667Y-12445000D01*
X11790714Y-12435476D01*
X11943095Y-12616428D02*
X11952619Y-12625952D01*
X11943095Y-12635476D01*
X11933571Y-12625952D01*
X11943095Y-12616428D01*
X11943095Y-12635476D01*
X12028809Y-12454524D02*
X12038333Y-12445000D01*
X12057381Y-12435476D01*
X12105000Y-12435476D01*
X12124048Y-12445000D01*
X12133571Y-12454524D01*
X12143095Y-12473571D01*
X12143095Y-12492619D01*
X12133571Y-12521190D01*
X12019286Y-12635476D01*
X12143095Y-12635476D01*
X12324048Y-12435476D02*
X12228809Y-12435476D01*
X12219286Y-12530714D01*
X12228809Y-12521190D01*
X12247857Y-12511667D01*
X12295476Y-12511667D01*
X12314524Y-12521190D01*
X12324048Y-12530714D01*
X12333571Y-12549762D01*
X12333571Y-12597381D01*
X12324048Y-12616428D01*
X12314524Y-12625952D01*
X12295476Y-12635476D01*
X12247857Y-12635476D01*
X12228809Y-12625952D01*
X12219286Y-12616428D01*
X12457381Y-12435476D02*
X12476428Y-12435476D01*
X12495476Y-12445000D01*
X12505000Y-12454524D01*
X12514524Y-12473571D01*
X12524048Y-12511667D01*
X12524048Y-12559286D01*
X12514524Y-12597381D01*
X12505000Y-12616428D01*
X12495476Y-12625952D01*
X12476428Y-12635476D01*
X12457381Y-12635476D01*
X12438333Y-12625952D01*
X12428809Y-12616428D01*
X12419286Y-12597381D01*
X12409762Y-12559286D01*
X12409762Y-12511667D01*
X12419286Y-12473571D01*
X12428809Y-12454524D01*
X12438333Y-12445000D01*
X12457381Y-12435476D01*
X12609762Y-12635476D02*
X12609762Y-12502143D01*
X12609762Y-12521190D02*
X12619286Y-12511667D01*
X12638333Y-12502143D01*
X12666905Y-12502143D01*
X12685952Y-12511667D01*
X12695476Y-12530714D01*
X12695476Y-12635476D01*
X12695476Y-12530714D02*
X12705000Y-12511667D01*
X12724048Y-12502143D01*
X12752619Y-12502143D01*
X12771667Y-12511667D01*
X12781190Y-12530714D01*
X12781190Y-12635476D01*
X12876428Y-12635476D02*
X12876428Y-12502143D01*
X12876428Y-12521190D02*
X12885952Y-12511667D01*
X12905000Y-12502143D01*
X12933571Y-12502143D01*
X12952619Y-12511667D01*
X12962143Y-12530714D01*
X12962143Y-12635476D01*
X12962143Y-12530714D02*
X12971667Y-12511667D01*
X12990714Y-12502143D01*
X13019286Y-12502143D01*
X13038333Y-12511667D01*
X13047857Y-12530714D01*
X13047857Y-12635476D01*
X13438333Y-12425952D02*
X13266905Y-12683095D01*
X13695476Y-12435476D02*
X13714524Y-12435476D01*
X13733571Y-12445000D01*
X13743095Y-12454524D01*
X13752619Y-12473571D01*
X13762143Y-12511667D01*
X13762143Y-12559286D01*
X13752619Y-12597381D01*
X13743095Y-12616428D01*
X13733571Y-12625952D01*
X13714524Y-12635476D01*
X13695476Y-12635476D01*
X13676428Y-12625952D01*
X13666905Y-12616428D01*
X13657381Y-12597381D01*
X13647857Y-12559286D01*
X13647857Y-12511667D01*
X13657381Y-12473571D01*
X13666905Y-12454524D01*
X13676428Y-12445000D01*
X13695476Y-12435476D01*
X13847857Y-12616428D02*
X13857381Y-12625952D01*
X13847857Y-12635476D01*
X13838333Y-12625952D01*
X13847857Y-12616428D01*
X13847857Y-12635476D01*
X13981190Y-12435476D02*
X14000238Y-12435476D01*
X14019286Y-12445000D01*
X14028809Y-12454524D01*
X14038333Y-12473571D01*
X14047857Y-12511667D01*
X14047857Y-12559286D01*
X14038333Y-12597381D01*
X14028809Y-12616428D01*
X14019286Y-12625952D01*
X14000238Y-12635476D01*
X13981190Y-12635476D01*
X13962143Y-12625952D01*
X13952619Y-12616428D01*
X13943095Y-12597381D01*
X13933571Y-12559286D01*
X13933571Y-12511667D01*
X13943095Y-12473571D01*
X13952619Y-12454524D01*
X13962143Y-12445000D01*
X13981190Y-12435476D01*
X14171667Y-12435476D02*
X14190714Y-12435476D01*
X14209762Y-12445000D01*
X14219286Y-12454524D01*
X14228809Y-12473571D01*
X14238333Y-12511667D01*
X14238333Y-12559286D01*
X14228809Y-12597381D01*
X14219286Y-12616428D01*
X14209762Y-12625952D01*
X14190714Y-12635476D01*
X14171667Y-12635476D01*
X14152619Y-12625952D01*
X14143095Y-12616428D01*
X14133571Y-12597381D01*
X14124048Y-12559286D01*
X14124048Y-12511667D01*
X14133571Y-12473571D01*
X14143095Y-12454524D01*
X14152619Y-12445000D01*
X14171667Y-12435476D01*
X14333571Y-12635476D02*
X14371667Y-12635476D01*
X14390714Y-12625952D01*
X14400238Y-12616428D01*
X14419286Y-12587857D01*
X14428809Y-12549762D01*
X14428809Y-12473571D01*
X14419286Y-12454524D01*
X14409762Y-12445000D01*
X14390714Y-12435476D01*
X14352619Y-12435476D01*
X14333571Y-12445000D01*
X14324048Y-12454524D01*
X14314524Y-12473571D01*
X14314524Y-12521190D01*
X14324048Y-12540238D01*
X14333571Y-12549762D01*
X14352619Y-12559286D01*
X14390714Y-12559286D01*
X14409762Y-12549762D01*
X14419286Y-12540238D01*
X14428809Y-12521190D01*
X14543095Y-12521190D02*
X14524048Y-12511667D01*
X14514524Y-12502143D01*
X14505000Y-12483095D01*
X14505000Y-12473571D01*
X14514524Y-12454524D01*
X14524048Y-12445000D01*
X14543095Y-12435476D01*
X14581190Y-12435476D01*
X14600238Y-12445000D01*
X14609762Y-12454524D01*
X14619286Y-12473571D01*
X14619286Y-12483095D01*
X14609762Y-12502143D01*
X14600238Y-12511667D01*
X14581190Y-12521190D01*
X14543095Y-12521190D01*
X14524048Y-12530714D01*
X14514524Y-12540238D01*
X14505000Y-12559286D01*
X14505000Y-12597381D01*
X14514524Y-12616428D01*
X14524048Y-12625952D01*
X14543095Y-12635476D01*
X14581190Y-12635476D01*
X14600238Y-12625952D01*
X14609762Y-12616428D01*
X14619286Y-12597381D01*
X14619286Y-12559286D01*
X14609762Y-12540238D01*
X14600238Y-12530714D01*
X14581190Y-12521190D01*
X14695476Y-12435476D02*
X14695476Y-12473571D01*
X14771667Y-12435476D02*
X14771667Y-12473571D01*
X15066905Y-12711667D02*
X15057381Y-12702143D01*
X15038333Y-12673571D01*
X15028809Y-12654524D01*
X15019286Y-12625952D01*
X15009762Y-12578333D01*
X15009762Y-12540238D01*
X15019286Y-12492619D01*
X15028809Y-12464048D01*
X15038333Y-12445000D01*
X15057381Y-12416428D01*
X15066905Y-12406905D01*
X15124048Y-12435476D02*
X15247857Y-12435476D01*
X15181190Y-12511667D01*
X15209762Y-12511667D01*
X15228809Y-12521190D01*
X15238333Y-12530714D01*
X15247857Y-12549762D01*
X15247857Y-12597381D01*
X15238333Y-12616428D01*
X15228809Y-12625952D01*
X15209762Y-12635476D01*
X15152619Y-12635476D01*
X15133571Y-12625952D01*
X15124048Y-12616428D01*
X15485952Y-12635476D02*
X15485952Y-12435476D01*
X15571667Y-12635476D02*
X15571667Y-12530714D01*
X15562143Y-12511667D01*
X15543095Y-12502143D01*
X15514524Y-12502143D01*
X15495476Y-12511667D01*
X15485952Y-12521190D01*
X15695476Y-12635476D02*
X15676428Y-12625952D01*
X15666905Y-12616428D01*
X15657381Y-12597381D01*
X15657381Y-12540238D01*
X15666905Y-12521190D01*
X15676428Y-12511667D01*
X15695476Y-12502143D01*
X15724048Y-12502143D01*
X15743095Y-12511667D01*
X15752619Y-12521190D01*
X15762143Y-12540238D01*
X15762143Y-12597381D01*
X15752619Y-12616428D01*
X15743095Y-12625952D01*
X15724048Y-12635476D01*
X15695476Y-12635476D01*
X15876428Y-12635476D02*
X15857381Y-12625952D01*
X15847857Y-12606905D01*
X15847857Y-12435476D01*
X16028809Y-12625952D02*
X16009762Y-12635476D01*
X15971667Y-12635476D01*
X15952619Y-12625952D01*
X15943095Y-12606905D01*
X15943095Y-12530714D01*
X15952619Y-12511667D01*
X15971667Y-12502143D01*
X16009762Y-12502143D01*
X16028809Y-12511667D01*
X16038333Y-12530714D01*
X16038333Y-12549762D01*
X15943095Y-12568809D01*
X16114524Y-12625952D02*
X16133571Y-12635476D01*
X16171667Y-12635476D01*
X16190714Y-12625952D01*
X16200238Y-12606905D01*
X16200238Y-12597381D01*
X16190714Y-12578333D01*
X16171667Y-12568809D01*
X16143095Y-12568809D01*
X16124048Y-12559286D01*
X16114524Y-12540238D01*
X16114524Y-12530714D01*
X16124048Y-12511667D01*
X16143095Y-12502143D01*
X16171667Y-12502143D01*
X16190714Y-12511667D01*
X16266905Y-12711667D02*
X16276428Y-12702143D01*
X16295476Y-12673571D01*
X16305000Y-12654524D01*
X16314524Y-12625952D01*
X16324048Y-12578333D01*
X16324048Y-12540238D01*
X16314524Y-12492619D01*
X16305000Y-12464048D01*
X16295476Y-12445000D01*
X16276428Y-12416428D01*
X16266905Y-12406905D01*
D13*
X11495000Y-12809000D02*
G75*
G03*
X11495000Y-12809000I-15000J0D01*
G01*
D11*
X11790714Y-12699476D02*
X11809762Y-12699476D01*
X11828809Y-12709000D01*
X11838333Y-12718524D01*
X11847857Y-12737571D01*
X11857381Y-12775667D01*
X11857381Y-12823286D01*
X11847857Y-12861381D01*
X11838333Y-12880428D01*
X11828809Y-12889952D01*
X11809762Y-12899476D01*
X11790714Y-12899476D01*
X11771667Y-12889952D01*
X11762143Y-12880428D01*
X11752619Y-12861381D01*
X11743095Y-12823286D01*
X11743095Y-12775667D01*
X11752619Y-12737571D01*
X11762143Y-12718524D01*
X11771667Y-12709000D01*
X11790714Y-12699476D01*
X11943095Y-12880428D02*
X11952619Y-12889952D01*
X11943095Y-12899476D01*
X11933571Y-12889952D01*
X11943095Y-12880428D01*
X11943095Y-12899476D01*
X12019286Y-12699476D02*
X12143095Y-12699476D01*
X12076428Y-12775667D01*
X12105000Y-12775667D01*
X12124048Y-12785190D01*
X12133571Y-12794714D01*
X12143095Y-12813762D01*
X12143095Y-12861381D01*
X12133571Y-12880428D01*
X12124048Y-12889952D01*
X12105000Y-12899476D01*
X12047857Y-12899476D01*
X12028809Y-12889952D01*
X12019286Y-12880428D01*
X12266905Y-12699476D02*
X12285952Y-12699476D01*
X12305000Y-12709000D01*
X12314524Y-12718524D01*
X12324048Y-12737571D01*
X12333571Y-12775667D01*
X12333571Y-12823286D01*
X12324048Y-12861381D01*
X12314524Y-12880428D01*
X12305000Y-12889952D01*
X12285952Y-12899476D01*
X12266905Y-12899476D01*
X12247857Y-12889952D01*
X12238333Y-12880428D01*
X12228809Y-12861381D01*
X12219286Y-12823286D01*
X12219286Y-12775667D01*
X12228809Y-12737571D01*
X12238333Y-12718524D01*
X12247857Y-12709000D01*
X12266905Y-12699476D01*
X12457381Y-12699476D02*
X12476428Y-12699476D01*
X12495476Y-12709000D01*
X12505000Y-12718524D01*
X12514524Y-12737571D01*
X12524048Y-12775667D01*
X12524048Y-12823286D01*
X12514524Y-12861381D01*
X12505000Y-12880428D01*
X12495476Y-12889952D01*
X12476428Y-12899476D01*
X12457381Y-12899476D01*
X12438333Y-12889952D01*
X12428809Y-12880428D01*
X12419286Y-12861381D01*
X12409762Y-12823286D01*
X12409762Y-12775667D01*
X12419286Y-12737571D01*
X12428809Y-12718524D01*
X12438333Y-12709000D01*
X12457381Y-12699476D01*
X12609762Y-12899476D02*
X12609762Y-12766143D01*
X12609762Y-12785190D02*
X12619286Y-12775667D01*
X12638333Y-12766143D01*
X12666905Y-12766143D01*
X12685952Y-12775667D01*
X12695476Y-12794714D01*
X12695476Y-12899476D01*
X12695476Y-12794714D02*
X12705000Y-12775667D01*
X12724048Y-12766143D01*
X12752619Y-12766143D01*
X12771667Y-12775667D01*
X12781190Y-12794714D01*
X12781190Y-12899476D01*
X12876428Y-12899476D02*
X12876428Y-12766143D01*
X12876428Y-12785190D02*
X12885952Y-12775667D01*
X12905000Y-12766143D01*
X12933571Y-12766143D01*
X12952619Y-12775667D01*
X12962143Y-12794714D01*
X12962143Y-12899476D01*
X12962143Y-12794714D02*
X12971667Y-12775667D01*
X12990714Y-12766143D01*
X13019286Y-12766143D01*
X13038333Y-12775667D01*
X13047857Y-12794714D01*
X13047857Y-12899476D01*
X13438333Y-12689952D02*
X13266905Y-12947095D01*
X13695476Y-12699476D02*
X13714524Y-12699476D01*
X13733571Y-12709000D01*
X13743095Y-12718524D01*
X13752619Y-12737571D01*
X13762143Y-12775667D01*
X13762143Y-12823286D01*
X13752619Y-12861381D01*
X13743095Y-12880428D01*
X13733571Y-12889952D01*
X13714524Y-12899476D01*
X13695476Y-12899476D01*
X13676428Y-12889952D01*
X13666905Y-12880428D01*
X13657381Y-12861381D01*
X13647857Y-12823286D01*
X13647857Y-12775667D01*
X13657381Y-12737571D01*
X13666905Y-12718524D01*
X13676428Y-12709000D01*
X13695476Y-12699476D01*
X13847857Y-12880428D02*
X13857381Y-12889952D01*
X13847857Y-12899476D01*
X13838333Y-12889952D01*
X13847857Y-12880428D01*
X13847857Y-12899476D01*
X13981190Y-12699476D02*
X14000238Y-12699476D01*
X14019286Y-12709000D01*
X14028809Y-12718524D01*
X14038333Y-12737571D01*
X14047857Y-12775667D01*
X14047857Y-12823286D01*
X14038333Y-12861381D01*
X14028809Y-12880428D01*
X14019286Y-12889952D01*
X14000238Y-12899476D01*
X13981190Y-12899476D01*
X13962143Y-12889952D01*
X13952619Y-12880428D01*
X13943095Y-12861381D01*
X13933571Y-12823286D01*
X13933571Y-12775667D01*
X13943095Y-12737571D01*
X13952619Y-12718524D01*
X13962143Y-12709000D01*
X13981190Y-12699476D01*
X14238333Y-12899476D02*
X14124048Y-12899476D01*
X14181190Y-12899476D02*
X14181190Y-12699476D01*
X14162143Y-12728048D01*
X14143095Y-12747095D01*
X14124048Y-12756619D01*
X14428809Y-12899476D02*
X14314524Y-12899476D01*
X14371667Y-12899476D02*
X14371667Y-12699476D01*
X14352619Y-12728048D01*
X14333571Y-12747095D01*
X14314524Y-12756619D01*
X14543095Y-12785190D02*
X14524048Y-12775667D01*
X14514524Y-12766143D01*
X14505000Y-12747095D01*
X14505000Y-12737571D01*
X14514524Y-12718524D01*
X14524048Y-12709000D01*
X14543095Y-12699476D01*
X14581190Y-12699476D01*
X14600238Y-12709000D01*
X14609762Y-12718524D01*
X14619286Y-12737571D01*
X14619286Y-12747095D01*
X14609762Y-12766143D01*
X14600238Y-12775667D01*
X14581190Y-12785190D01*
X14543095Y-12785190D01*
X14524048Y-12794714D01*
X14514524Y-12804238D01*
X14505000Y-12823286D01*
X14505000Y-12861381D01*
X14514524Y-12880428D01*
X14524048Y-12889952D01*
X14543095Y-12899476D01*
X14581190Y-12899476D01*
X14600238Y-12889952D01*
X14609762Y-12880428D01*
X14619286Y-12861381D01*
X14619286Y-12823286D01*
X14609762Y-12804238D01*
X14600238Y-12794714D01*
X14581190Y-12785190D01*
X14695476Y-12699476D02*
X14695476Y-12737571D01*
X14771667Y-12699476D02*
X14771667Y-12737571D01*
X15066905Y-12975667D02*
X15057381Y-12966143D01*
X15038333Y-12937571D01*
X15028809Y-12918524D01*
X15019286Y-12889952D01*
X15009762Y-12842333D01*
X15009762Y-12804238D01*
X15019286Y-12756619D01*
X15028809Y-12728048D01*
X15038333Y-12709000D01*
X15057381Y-12680428D01*
X15066905Y-12670905D01*
X15152619Y-12899476D02*
X15190714Y-12899476D01*
X15209762Y-12889952D01*
X15219286Y-12880428D01*
X15238333Y-12851857D01*
X15247857Y-12813762D01*
X15247857Y-12737571D01*
X15238333Y-12718524D01*
X15228809Y-12709000D01*
X15209762Y-12699476D01*
X15171667Y-12699476D01*
X15152619Y-12709000D01*
X15143095Y-12718524D01*
X15133571Y-12737571D01*
X15133571Y-12785190D01*
X15143095Y-12804238D01*
X15152619Y-12813762D01*
X15171667Y-12823286D01*
X15209762Y-12823286D01*
X15228809Y-12813762D01*
X15238333Y-12804238D01*
X15247857Y-12785190D01*
X15362143Y-12785190D02*
X15343095Y-12775667D01*
X15333571Y-12766143D01*
X15324048Y-12747095D01*
X15324048Y-12737571D01*
X15333571Y-12718524D01*
X15343095Y-12709000D01*
X15362143Y-12699476D01*
X15400238Y-12699476D01*
X15419286Y-12709000D01*
X15428809Y-12718524D01*
X15438333Y-12737571D01*
X15438333Y-12747095D01*
X15428809Y-12766143D01*
X15419286Y-12775667D01*
X15400238Y-12785190D01*
X15362143Y-12785190D01*
X15343095Y-12794714D01*
X15333571Y-12804238D01*
X15324048Y-12823286D01*
X15324048Y-12861381D01*
X15333571Y-12880428D01*
X15343095Y-12889952D01*
X15362143Y-12899476D01*
X15400238Y-12899476D01*
X15419286Y-12889952D01*
X15428809Y-12880428D01*
X15438333Y-12861381D01*
X15438333Y-12823286D01*
X15428809Y-12804238D01*
X15419286Y-12794714D01*
X15400238Y-12785190D01*
X15676428Y-12899476D02*
X15676428Y-12699476D01*
X15762143Y-12899476D02*
X15762143Y-12794714D01*
X15752619Y-12775667D01*
X15733571Y-12766143D01*
X15705000Y-12766143D01*
X15685952Y-12775667D01*
X15676428Y-12785190D01*
X15885952Y-12899476D02*
X15866905Y-12889952D01*
X15857381Y-12880428D01*
X15847857Y-12861381D01*
X15847857Y-12804238D01*
X15857381Y-12785190D01*
X15866905Y-12775667D01*
X15885952Y-12766143D01*
X15914524Y-12766143D01*
X15933571Y-12775667D01*
X15943095Y-12785190D01*
X15952619Y-12804238D01*
X15952619Y-12861381D01*
X15943095Y-12880428D01*
X15933571Y-12889952D01*
X15914524Y-12899476D01*
X15885952Y-12899476D01*
X16066905Y-12899476D02*
X16047857Y-12889952D01*
X16038333Y-12870905D01*
X16038333Y-12699476D01*
X16219286Y-12889952D02*
X16200238Y-12899476D01*
X16162143Y-12899476D01*
X16143095Y-12889952D01*
X16133571Y-12870905D01*
X16133571Y-12794714D01*
X16143095Y-12775667D01*
X16162143Y-12766143D01*
X16200238Y-12766143D01*
X16219286Y-12775667D01*
X16228809Y-12794714D01*
X16228809Y-12813762D01*
X16133571Y-12832809D01*
X16305000Y-12889952D02*
X16324048Y-12899476D01*
X16362143Y-12899476D01*
X16381190Y-12889952D01*
X16390714Y-12870905D01*
X16390714Y-12861381D01*
X16381190Y-12842333D01*
X16362143Y-12832809D01*
X16333571Y-12832809D01*
X16314524Y-12823286D01*
X16305000Y-12804238D01*
X16305000Y-12794714D01*
X16314524Y-12775667D01*
X16333571Y-12766143D01*
X16362143Y-12766143D01*
X16381190Y-12775667D01*
X16457381Y-12975667D02*
X16466905Y-12966143D01*
X16485952Y-12937571D01*
X16495476Y-12918524D01*
X16505000Y-12889952D01*
X16514524Y-12842333D01*
X16514524Y-12804238D01*
X16505000Y-12756619D01*
X16495476Y-12728048D01*
X16485952Y-12709000D01*
X16466905Y-12680428D01*
X16457381Y-12670905D01*
D14*
X11475000Y-13053000D02*
X11475000Y-13093000D01*
X11455000Y-13073000D02*
X11495000Y-13073000D01*
D11*
X11790714Y-12963476D02*
X11809762Y-12963476D01*
X11828809Y-12973000D01*
X11838333Y-12982524D01*
X11847857Y-13001571D01*
X11857381Y-13039667D01*
X11857381Y-13087286D01*
X11847857Y-13125381D01*
X11838333Y-13144428D01*
X11828809Y-13153952D01*
X11809762Y-13163476D01*
X11790714Y-13163476D01*
X11771667Y-13153952D01*
X11762143Y-13144428D01*
X11752619Y-13125381D01*
X11743095Y-13087286D01*
X11743095Y-13039667D01*
X11752619Y-13001571D01*
X11762143Y-12982524D01*
X11771667Y-12973000D01*
X11790714Y-12963476D01*
X11943095Y-13144428D02*
X11952619Y-13153952D01*
X11943095Y-13163476D01*
X11933571Y-13153952D01*
X11943095Y-13144428D01*
X11943095Y-13163476D01*
X12124048Y-13030143D02*
X12124048Y-13163476D01*
X12076428Y-12953952D02*
X12028809Y-13096809D01*
X12152619Y-13096809D01*
X12266905Y-12963476D02*
X12285952Y-12963476D01*
X12305000Y-12973000D01*
X12314524Y-12982524D01*
X12324048Y-13001571D01*
X12333571Y-13039667D01*
X12333571Y-13087286D01*
X12324048Y-13125381D01*
X12314524Y-13144428D01*
X12305000Y-13153952D01*
X12285952Y-13163476D01*
X12266905Y-13163476D01*
X12247857Y-13153952D01*
X12238333Y-13144428D01*
X12228809Y-13125381D01*
X12219286Y-13087286D01*
X12219286Y-13039667D01*
X12228809Y-13001571D01*
X12238333Y-12982524D01*
X12247857Y-12973000D01*
X12266905Y-12963476D01*
X12457381Y-12963476D02*
X12476428Y-12963476D01*
X12495476Y-12973000D01*
X12505000Y-12982524D01*
X12514524Y-13001571D01*
X12524048Y-13039667D01*
X12524048Y-13087286D01*
X12514524Y-13125381D01*
X12505000Y-13144428D01*
X12495476Y-13153952D01*
X12476428Y-13163476D01*
X12457381Y-13163476D01*
X12438333Y-13153952D01*
X12428809Y-13144428D01*
X12419286Y-13125381D01*
X12409762Y-13087286D01*
X12409762Y-13039667D01*
X12419286Y-13001571D01*
X12428809Y-12982524D01*
X12438333Y-12973000D01*
X12457381Y-12963476D01*
X12609762Y-13163476D02*
X12609762Y-13030143D01*
X12609762Y-13049190D02*
X12619286Y-13039667D01*
X12638333Y-13030143D01*
X12666905Y-13030143D01*
X12685952Y-13039667D01*
X12695476Y-13058714D01*
X12695476Y-13163476D01*
X12695476Y-13058714D02*
X12705000Y-13039667D01*
X12724048Y-13030143D01*
X12752619Y-13030143D01*
X12771667Y-13039667D01*
X12781190Y-13058714D01*
X12781190Y-13163476D01*
X12876428Y-13163476D02*
X12876428Y-13030143D01*
X12876428Y-13049190D02*
X12885952Y-13039667D01*
X12905000Y-13030143D01*
X12933571Y-13030143D01*
X12952619Y-13039667D01*
X12962143Y-13058714D01*
X12962143Y-13163476D01*
X12962143Y-13058714D02*
X12971667Y-13039667D01*
X12990714Y-13030143D01*
X13019286Y-13030143D01*
X13038333Y-13039667D01*
X13047857Y-13058714D01*
X13047857Y-13163476D01*
X13438333Y-12953952D02*
X13266905Y-13211095D01*
X13695476Y-12963476D02*
X13714524Y-12963476D01*
X13733571Y-12973000D01*
X13743095Y-12982524D01*
X13752619Y-13001571D01*
X13762143Y-13039667D01*
X13762143Y-13087286D01*
X13752619Y-13125381D01*
X13743095Y-13144428D01*
X13733571Y-13153952D01*
X13714524Y-13163476D01*
X13695476Y-13163476D01*
X13676428Y-13153952D01*
X13666905Y-13144428D01*
X13657381Y-13125381D01*
X13647857Y-13087286D01*
X13647857Y-13039667D01*
X13657381Y-13001571D01*
X13666905Y-12982524D01*
X13676428Y-12973000D01*
X13695476Y-12963476D01*
X13847857Y-13144428D02*
X13857381Y-13153952D01*
X13847857Y-13163476D01*
X13838333Y-13153952D01*
X13847857Y-13144428D01*
X13847857Y-13163476D01*
X13981190Y-12963476D02*
X14000238Y-12963476D01*
X14019286Y-12973000D01*
X14028809Y-12982524D01*
X14038333Y-13001571D01*
X14047857Y-13039667D01*
X14047857Y-13087286D01*
X14038333Y-13125381D01*
X14028809Y-13144428D01*
X14019286Y-13153952D01*
X14000238Y-13163476D01*
X13981190Y-13163476D01*
X13962143Y-13153952D01*
X13952619Y-13144428D01*
X13943095Y-13125381D01*
X13933571Y-13087286D01*
X13933571Y-13039667D01*
X13943095Y-13001571D01*
X13952619Y-12982524D01*
X13962143Y-12973000D01*
X13981190Y-12963476D01*
X14238333Y-13163476D02*
X14124048Y-13163476D01*
X14181190Y-13163476D02*
X14181190Y-12963476D01*
X14162143Y-12992048D01*
X14143095Y-13011095D01*
X14124048Y-13020619D01*
X14419286Y-12963476D02*
X14324048Y-12963476D01*
X14314524Y-13058714D01*
X14324048Y-13049190D01*
X14343095Y-13039667D01*
X14390714Y-13039667D01*
X14409762Y-13049190D01*
X14419286Y-13058714D01*
X14428809Y-13077762D01*
X14428809Y-13125381D01*
X14419286Y-13144428D01*
X14409762Y-13153952D01*
X14390714Y-13163476D01*
X14343095Y-13163476D01*
X14324048Y-13153952D01*
X14314524Y-13144428D01*
X14495476Y-12963476D02*
X14628809Y-12963476D01*
X14543095Y-13163476D01*
X14695476Y-12963476D02*
X14695476Y-13001571D01*
X14771667Y-12963476D02*
X14771667Y-13001571D01*
X15066905Y-13239667D02*
X15057381Y-13230143D01*
X15038333Y-13201571D01*
X15028809Y-13182524D01*
X15019286Y-13153952D01*
X15009762Y-13106333D01*
X15009762Y-13068238D01*
X15019286Y-13020619D01*
X15028809Y-12992048D01*
X15038333Y-12973000D01*
X15057381Y-12944428D01*
X15066905Y-12934905D01*
X15228809Y-13030143D02*
X15228809Y-13163476D01*
X15181190Y-12953952D02*
X15133571Y-13096809D01*
X15257381Y-13096809D01*
X15485952Y-13163476D02*
X15485952Y-12963476D01*
X15571667Y-13163476D02*
X15571667Y-13058714D01*
X15562143Y-13039667D01*
X15543095Y-13030143D01*
X15514524Y-13030143D01*
X15495476Y-13039667D01*
X15485952Y-13049190D01*
X15695476Y-13163476D02*
X15676428Y-13153952D01*
X15666905Y-13144428D01*
X15657381Y-13125381D01*
X15657381Y-13068238D01*
X15666905Y-13049190D01*
X15676428Y-13039667D01*
X15695476Y-13030143D01*
X15724048Y-13030143D01*
X15743095Y-13039667D01*
X15752619Y-13049190D01*
X15762143Y-13068238D01*
X15762143Y-13125381D01*
X15752619Y-13144428D01*
X15743095Y-13153952D01*
X15724048Y-13163476D01*
X15695476Y-13163476D01*
X15876428Y-13163476D02*
X15857381Y-13153952D01*
X15847857Y-13134905D01*
X15847857Y-12963476D01*
X16028809Y-13153952D02*
X16009762Y-13163476D01*
X15971667Y-13163476D01*
X15952619Y-13153952D01*
X15943095Y-13134905D01*
X15943095Y-13058714D01*
X15952619Y-13039667D01*
X15971667Y-13030143D01*
X16009762Y-13030143D01*
X16028809Y-13039667D01*
X16038333Y-13058714D01*
X16038333Y-13077762D01*
X15943095Y-13096809D01*
X16114524Y-13153952D02*
X16133571Y-13163476D01*
X16171667Y-13163476D01*
X16190714Y-13153952D01*
X16200238Y-13134905D01*
X16200238Y-13125381D01*
X16190714Y-13106333D01*
X16171667Y-13096809D01*
X16143095Y-13096809D01*
X16124048Y-13087286D01*
X16114524Y-13068238D01*
X16114524Y-13058714D01*
X16124048Y-13039667D01*
X16143095Y-13030143D01*
X16171667Y-13030143D01*
X16190714Y-13039667D01*
X16266905Y-13239667D02*
X16276428Y-13230143D01*
X16295476Y-13201571D01*
X16305000Y-13182524D01*
X16314524Y-13153952D01*
X16324048Y-13106333D01*
X16324048Y-13068238D01*
X16314524Y-13020619D01*
X16305000Y-12992048D01*
X16295476Y-12973000D01*
X16276428Y-12944428D01*
X16266905Y-12934905D01*
D15*
X11486213Y-13358213D02*
X11486213Y-13315787D01*
X11443787Y-13315787D01*
X11443787Y-13358213D01*
X11486213Y-13358213D01*
D11*
X11790714Y-13227476D02*
X11809762Y-13227476D01*
X11828809Y-13237000D01*
X11838333Y-13246524D01*
X11847857Y-13265571D01*
X11857381Y-13303667D01*
X11857381Y-13351286D01*
X11847857Y-13389381D01*
X11838333Y-13408428D01*
X11828809Y-13417952D01*
X11809762Y-13427476D01*
X11790714Y-13427476D01*
X11771667Y-13417952D01*
X11762143Y-13408428D01*
X11752619Y-13389381D01*
X11743095Y-13351286D01*
X11743095Y-13303667D01*
X11752619Y-13265571D01*
X11762143Y-13246524D01*
X11771667Y-13237000D01*
X11790714Y-13227476D01*
X11943095Y-13408428D02*
X11952619Y-13417952D01*
X11943095Y-13427476D01*
X11933571Y-13417952D01*
X11943095Y-13408428D01*
X11943095Y-13427476D01*
X12124048Y-13227476D02*
X12085952Y-13227476D01*
X12066905Y-13237000D01*
X12057381Y-13246524D01*
X12038333Y-13275095D01*
X12028809Y-13313190D01*
X12028809Y-13389381D01*
X12038333Y-13408428D01*
X12047857Y-13417952D01*
X12066905Y-13427476D01*
X12105000Y-13427476D01*
X12124048Y-13417952D01*
X12133571Y-13408428D01*
X12143095Y-13389381D01*
X12143095Y-13341762D01*
X12133571Y-13322714D01*
X12124048Y-13313190D01*
X12105000Y-13303667D01*
X12066905Y-13303667D01*
X12047857Y-13313190D01*
X12038333Y-13322714D01*
X12028809Y-13341762D01*
X12266905Y-13227476D02*
X12285952Y-13227476D01*
X12305000Y-13237000D01*
X12314524Y-13246524D01*
X12324048Y-13265571D01*
X12333571Y-13303667D01*
X12333571Y-13351286D01*
X12324048Y-13389381D01*
X12314524Y-13408428D01*
X12305000Y-13417952D01*
X12285952Y-13427476D01*
X12266905Y-13427476D01*
X12247857Y-13417952D01*
X12238333Y-13408428D01*
X12228809Y-13389381D01*
X12219286Y-13351286D01*
X12219286Y-13303667D01*
X12228809Y-13265571D01*
X12238333Y-13246524D01*
X12247857Y-13237000D01*
X12266905Y-13227476D01*
X12457381Y-13227476D02*
X12476428Y-13227476D01*
X12495476Y-13237000D01*
X12505000Y-13246524D01*
X12514524Y-13265571D01*
X12524048Y-13303667D01*
X12524048Y-13351286D01*
X12514524Y-13389381D01*
X12505000Y-13408428D01*
X12495476Y-13417952D01*
X12476428Y-13427476D01*
X12457381Y-13427476D01*
X12438333Y-13417952D01*
X12428809Y-13408428D01*
X12419286Y-13389381D01*
X12409762Y-13351286D01*
X12409762Y-13303667D01*
X12419286Y-13265571D01*
X12428809Y-13246524D01*
X12438333Y-13237000D01*
X12457381Y-13227476D01*
X12609762Y-13427476D02*
X12609762Y-13294143D01*
X12609762Y-13313190D02*
X12619286Y-13303667D01*
X12638333Y-13294143D01*
X12666905Y-13294143D01*
X12685952Y-13303667D01*
X12695476Y-13322714D01*
X12695476Y-13427476D01*
X12695476Y-13322714D02*
X12705000Y-13303667D01*
X12724048Y-13294143D01*
X12752619Y-13294143D01*
X12771667Y-13303667D01*
X12781190Y-13322714D01*
X12781190Y-13427476D01*
X12876428Y-13427476D02*
X12876428Y-13294143D01*
X12876428Y-13313190D02*
X12885952Y-13303667D01*
X12905000Y-13294143D01*
X12933571Y-13294143D01*
X12952619Y-13303667D01*
X12962143Y-13322714D01*
X12962143Y-13427476D01*
X12962143Y-13322714D02*
X12971667Y-13303667D01*
X12990714Y-13294143D01*
X13019286Y-13294143D01*
X13038333Y-13303667D01*
X13047857Y-13322714D01*
X13047857Y-13427476D01*
X13438333Y-13217952D02*
X13266905Y-13475095D01*
X13695476Y-13227476D02*
X13714524Y-13227476D01*
X13733571Y-13237000D01*
X13743095Y-13246524D01*
X13752619Y-13265571D01*
X13762143Y-13303667D01*
X13762143Y-13351286D01*
X13752619Y-13389381D01*
X13743095Y-13408428D01*
X13733571Y-13417952D01*
X13714524Y-13427476D01*
X13695476Y-13427476D01*
X13676428Y-13417952D01*
X13666905Y-13408428D01*
X13657381Y-13389381D01*
X13647857Y-13351286D01*
X13647857Y-13303667D01*
X13657381Y-13265571D01*
X13666905Y-13246524D01*
X13676428Y-13237000D01*
X13695476Y-13227476D01*
X13847857Y-13408428D02*
X13857381Y-13417952D01*
X13847857Y-13427476D01*
X13838333Y-13417952D01*
X13847857Y-13408428D01*
X13847857Y-13427476D01*
X13981190Y-13227476D02*
X14000238Y-13227476D01*
X14019286Y-13237000D01*
X14028809Y-13246524D01*
X14038333Y-13265571D01*
X14047857Y-13303667D01*
X14047857Y-13351286D01*
X14038333Y-13389381D01*
X14028809Y-13408428D01*
X14019286Y-13417952D01*
X14000238Y-13427476D01*
X13981190Y-13427476D01*
X13962143Y-13417952D01*
X13952619Y-13408428D01*
X13943095Y-13389381D01*
X13933571Y-13351286D01*
X13933571Y-13303667D01*
X13943095Y-13265571D01*
X13952619Y-13246524D01*
X13962143Y-13237000D01*
X13981190Y-13227476D01*
X14124048Y-13246524D02*
X14133571Y-13237000D01*
X14152619Y-13227476D01*
X14200238Y-13227476D01*
X14219286Y-13237000D01*
X14228809Y-13246524D01*
X14238333Y-13265571D01*
X14238333Y-13284619D01*
X14228809Y-13313190D01*
X14114524Y-13427476D01*
X14238333Y-13427476D01*
X14305000Y-13227476D02*
X14428809Y-13227476D01*
X14362143Y-13303667D01*
X14390714Y-13303667D01*
X14409762Y-13313190D01*
X14419286Y-13322714D01*
X14428809Y-13341762D01*
X14428809Y-13389381D01*
X14419286Y-13408428D01*
X14409762Y-13417952D01*
X14390714Y-13427476D01*
X14333571Y-13427476D01*
X14314524Y-13417952D01*
X14305000Y-13408428D01*
X14600238Y-13227476D02*
X14562143Y-13227476D01*
X14543095Y-13237000D01*
X14533571Y-13246524D01*
X14514524Y-13275095D01*
X14505000Y-13313190D01*
X14505000Y-13389381D01*
X14514524Y-13408428D01*
X14524048Y-13417952D01*
X14543095Y-13427476D01*
X14581190Y-13427476D01*
X14600238Y-13417952D01*
X14609762Y-13408428D01*
X14619286Y-13389381D01*
X14619286Y-13341762D01*
X14609762Y-13322714D01*
X14600238Y-13313190D01*
X14581190Y-13303667D01*
X14543095Y-13303667D01*
X14524048Y-13313190D01*
X14514524Y-13322714D01*
X14505000Y-13341762D01*
X14695476Y-13227476D02*
X14695476Y-13265571D01*
X14771667Y-13227476D02*
X14771667Y-13265571D01*
X15066905Y-13503667D02*
X15057381Y-13494143D01*
X15038333Y-13465571D01*
X15028809Y-13446524D01*
X15019286Y-13417952D01*
X15009762Y-13370333D01*
X15009762Y-13332238D01*
X15019286Y-13284619D01*
X15028809Y-13256048D01*
X15038333Y-13237000D01*
X15057381Y-13208428D01*
X15066905Y-13198905D01*
X15181190Y-13227476D02*
X15200238Y-13227476D01*
X15219286Y-13237000D01*
X15228809Y-13246524D01*
X15238333Y-13265571D01*
X15247857Y-13303667D01*
X15247857Y-13351286D01*
X15238333Y-13389381D01*
X15228809Y-13408428D01*
X15219286Y-13417952D01*
X15200238Y-13427476D01*
X15181190Y-13427476D01*
X15162143Y-13417952D01*
X15152619Y-13408428D01*
X15143095Y-13389381D01*
X15133571Y-13351286D01*
X15133571Y-13303667D01*
X15143095Y-13265571D01*
X15152619Y-13246524D01*
X15162143Y-13237000D01*
X15181190Y-13227476D01*
X15485952Y-13427476D02*
X15485952Y-13227476D01*
X15571667Y-13427476D02*
X15571667Y-13322714D01*
X15562143Y-13303667D01*
X15543095Y-13294143D01*
X15514524Y-13294143D01*
X15495476Y-13303667D01*
X15485952Y-13313190D01*
X15695476Y-13427476D02*
X15676428Y-13417952D01*
X15666905Y-13408428D01*
X15657381Y-13389381D01*
X15657381Y-13332238D01*
X15666905Y-13313190D01*
X15676428Y-13303667D01*
X15695476Y-13294143D01*
X15724048Y-13294143D01*
X15743095Y-13303667D01*
X15752619Y-13313190D01*
X15762143Y-13332238D01*
X15762143Y-13389381D01*
X15752619Y-13408428D01*
X15743095Y-13417952D01*
X15724048Y-13427476D01*
X15695476Y-13427476D01*
X15876428Y-13427476D02*
X15857381Y-13417952D01*
X15847857Y-13398905D01*
X15847857Y-13227476D01*
X16028809Y-13417952D02*
X16009762Y-13427476D01*
X15971667Y-13427476D01*
X15952619Y-13417952D01*
X15943095Y-13398905D01*
X15943095Y-13322714D01*
X15952619Y-13303667D01*
X15971667Y-13294143D01*
X16009762Y-13294143D01*
X16028809Y-13303667D01*
X16038333Y-13322714D01*
X16038333Y-13341762D01*
X15943095Y-13360809D01*
X16114524Y-13417952D02*
X16133571Y-13427476D01*
X16171667Y-13427476D01*
X16190714Y-13417952D01*
X16200238Y-13398905D01*
X16200238Y-13389381D01*
X16190714Y-13370333D01*
X16171667Y-13360809D01*
X16143095Y-13360809D01*
X16124048Y-13351286D01*
X16114524Y-13332238D01*
X16114524Y-13322714D01*
X16124048Y-13303667D01*
X16143095Y-13294143D01*
X16171667Y-13294143D01*
X16190714Y-13303667D01*
X16438333Y-13351286D02*
X16590714Y-13351286D01*
X16514524Y-13427476D02*
X16514524Y-13275095D01*
X16924048Y-13294143D02*
X16924048Y-13427476D01*
X16876429Y-13217952D02*
X16828810Y-13360809D01*
X16952619Y-13360809D01*
X17171667Y-13417952D02*
X17190714Y-13427476D01*
X17228810Y-13427476D01*
X17247857Y-13417952D01*
X17257381Y-13398905D01*
X17257381Y-13389381D01*
X17247857Y-13370333D01*
X17228810Y-13360809D01*
X17200238Y-13360809D01*
X17181190Y-13351286D01*
X17171667Y-13332238D01*
X17171667Y-13322714D01*
X17181190Y-13303667D01*
X17200238Y-13294143D01*
X17228810Y-13294143D01*
X17247857Y-13303667D01*
X17371667Y-13427476D02*
X17352619Y-13417952D01*
X17343095Y-13398905D01*
X17343095Y-13227476D01*
X17476429Y-13427476D02*
X17457381Y-13417952D01*
X17447857Y-13408428D01*
X17438333Y-13389381D01*
X17438333Y-13332238D01*
X17447857Y-13313190D01*
X17457381Y-13303667D01*
X17476429Y-13294143D01*
X17505000Y-13294143D01*
X17524048Y-13303667D01*
X17533571Y-13313190D01*
X17543095Y-13332238D01*
X17543095Y-13389381D01*
X17533571Y-13408428D01*
X17524048Y-13417952D01*
X17505000Y-13427476D01*
X17476429Y-13427476D01*
X17600238Y-13294143D02*
X17676429Y-13294143D01*
X17628810Y-13227476D02*
X17628810Y-13398905D01*
X17638333Y-13417952D01*
X17657381Y-13427476D01*
X17676429Y-13427476D01*
X17733571Y-13417952D02*
X17752619Y-13427476D01*
X17790714Y-13427476D01*
X17809762Y-13417952D01*
X17819286Y-13398905D01*
X17819286Y-13389381D01*
X17809762Y-13370333D01*
X17790714Y-13360809D01*
X17762143Y-13360809D01*
X17743095Y-13351286D01*
X17733571Y-13332238D01*
X17733571Y-13322714D01*
X17743095Y-13303667D01*
X17762143Y-13294143D01*
X17790714Y-13294143D01*
X17809762Y-13303667D01*
X17885952Y-13503667D02*
X17895476Y-13494143D01*
X17914524Y-13465571D01*
X17924048Y-13446524D01*
X17933571Y-13417952D01*
X17943095Y-13370333D01*
X17943095Y-13332238D01*
X17933571Y-13284619D01*
X17924048Y-13256048D01*
X17914524Y-13237000D01*
X17895476Y-13208428D01*
X17885952Y-13198905D01*
D16*
X11460000Y-13636000D02*
X11495000Y-13601000D01*
X11460000Y-13566000D01*
X11425000Y-13601000D01*
X11460000Y-13636000D01*
D11*
X11790714Y-13491476D02*
X11809762Y-13491476D01*
X11828809Y-13501000D01*
X11838333Y-13510524D01*
X11847857Y-13529571D01*
X11857381Y-13567667D01*
X11857381Y-13615286D01*
X11847857Y-13653381D01*
X11838333Y-13672428D01*
X11828809Y-13681952D01*
X11809762Y-13691476D01*
X11790714Y-13691476D01*
X11771667Y-13681952D01*
X11762143Y-13672428D01*
X11752619Y-13653381D01*
X11743095Y-13615286D01*
X11743095Y-13567667D01*
X11752619Y-13529571D01*
X11762143Y-13510524D01*
X11771667Y-13501000D01*
X11790714Y-13491476D01*
X11943095Y-13672428D02*
X11952619Y-13681952D01*
X11943095Y-13691476D01*
X11933571Y-13681952D01*
X11943095Y-13672428D01*
X11943095Y-13691476D01*
X12019286Y-13491476D02*
X12152619Y-13491476D01*
X12066905Y-13691476D01*
X12266905Y-13491476D02*
X12285952Y-13491476D01*
X12305000Y-13501000D01*
X12314524Y-13510524D01*
X12324048Y-13529571D01*
X12333571Y-13567667D01*
X12333571Y-13615286D01*
X12324048Y-13653381D01*
X12314524Y-13672428D01*
X12305000Y-13681952D01*
X12285952Y-13691476D01*
X12266905Y-13691476D01*
X12247857Y-13681952D01*
X12238333Y-13672428D01*
X12228809Y-13653381D01*
X12219286Y-13615286D01*
X12219286Y-13567667D01*
X12228809Y-13529571D01*
X12238333Y-13510524D01*
X12247857Y-13501000D01*
X12266905Y-13491476D01*
X12457381Y-13491476D02*
X12476428Y-13491476D01*
X12495476Y-13501000D01*
X12505000Y-13510524D01*
X12514524Y-13529571D01*
X12524048Y-13567667D01*
X12524048Y-13615286D01*
X12514524Y-13653381D01*
X12505000Y-13672428D01*
X12495476Y-13681952D01*
X12476428Y-13691476D01*
X12457381Y-13691476D01*
X12438333Y-13681952D01*
X12428809Y-13672428D01*
X12419286Y-13653381D01*
X12409762Y-13615286D01*
X12409762Y-13567667D01*
X12419286Y-13529571D01*
X12428809Y-13510524D01*
X12438333Y-13501000D01*
X12457381Y-13491476D01*
X12609762Y-13691476D02*
X12609762Y-13558143D01*
X12609762Y-13577190D02*
X12619286Y-13567667D01*
X12638333Y-13558143D01*
X12666905Y-13558143D01*
X12685952Y-13567667D01*
X12695476Y-13586714D01*
X12695476Y-13691476D01*
X12695476Y-13586714D02*
X12705000Y-13567667D01*
X12724048Y-13558143D01*
X12752619Y-13558143D01*
X12771667Y-13567667D01*
X12781190Y-13586714D01*
X12781190Y-13691476D01*
X12876428Y-13691476D02*
X12876428Y-13558143D01*
X12876428Y-13577190D02*
X12885952Y-13567667D01*
X12905000Y-13558143D01*
X12933571Y-13558143D01*
X12952619Y-13567667D01*
X12962143Y-13586714D01*
X12962143Y-13691476D01*
X12962143Y-13586714D02*
X12971667Y-13567667D01*
X12990714Y-13558143D01*
X13019286Y-13558143D01*
X13038333Y-13567667D01*
X13047857Y-13586714D01*
X13047857Y-13691476D01*
X13438333Y-13481952D02*
X13266905Y-13739095D01*
X13695476Y-13491476D02*
X13714524Y-13491476D01*
X13733571Y-13501000D01*
X13743095Y-13510524D01*
X13752619Y-13529571D01*
X13762143Y-13567667D01*
X13762143Y-13615286D01*
X13752619Y-13653381D01*
X13743095Y-13672428D01*
X13733571Y-13681952D01*
X13714524Y-13691476D01*
X13695476Y-13691476D01*
X13676428Y-13681952D01*
X13666905Y-13672428D01*
X13657381Y-13653381D01*
X13647857Y-13615286D01*
X13647857Y-13567667D01*
X13657381Y-13529571D01*
X13666905Y-13510524D01*
X13676428Y-13501000D01*
X13695476Y-13491476D01*
X13847857Y-13672428D02*
X13857381Y-13681952D01*
X13847857Y-13691476D01*
X13838333Y-13681952D01*
X13847857Y-13672428D01*
X13847857Y-13691476D01*
X13981190Y-13491476D02*
X14000238Y-13491476D01*
X14019286Y-13501000D01*
X14028809Y-13510524D01*
X14038333Y-13529571D01*
X14047857Y-13567667D01*
X14047857Y-13615286D01*
X14038333Y-13653381D01*
X14028809Y-13672428D01*
X14019286Y-13681952D01*
X14000238Y-13691476D01*
X13981190Y-13691476D01*
X13962143Y-13681952D01*
X13952619Y-13672428D01*
X13943095Y-13653381D01*
X13933571Y-13615286D01*
X13933571Y-13567667D01*
X13943095Y-13529571D01*
X13952619Y-13510524D01*
X13962143Y-13501000D01*
X13981190Y-13491476D01*
X14124048Y-13510524D02*
X14133571Y-13501000D01*
X14152619Y-13491476D01*
X14200238Y-13491476D01*
X14219286Y-13501000D01*
X14228809Y-13510524D01*
X14238333Y-13529571D01*
X14238333Y-13548619D01*
X14228809Y-13577190D01*
X14114524Y-13691476D01*
X14238333Y-13691476D01*
X14305000Y-13491476D02*
X14438333Y-13491476D01*
X14352619Y-13691476D01*
X14600238Y-13491476D02*
X14562143Y-13491476D01*
X14543095Y-13501000D01*
X14533571Y-13510524D01*
X14514524Y-13539095D01*
X14505000Y-13577190D01*
X14505000Y-13653381D01*
X14514524Y-13672428D01*
X14524048Y-13681952D01*
X14543095Y-13691476D01*
X14581190Y-13691476D01*
X14600238Y-13681952D01*
X14609762Y-13672428D01*
X14619286Y-13653381D01*
X14619286Y-13605762D01*
X14609762Y-13586714D01*
X14600238Y-13577190D01*
X14581190Y-13567667D01*
X14543095Y-13567667D01*
X14524048Y-13577190D01*
X14514524Y-13586714D01*
X14505000Y-13605762D01*
X14695476Y-13491476D02*
X14695476Y-13529571D01*
X14771667Y-13491476D02*
X14771667Y-13529571D01*
X15066905Y-13767667D02*
X15057381Y-13758143D01*
X15038333Y-13729571D01*
X15028809Y-13710524D01*
X15019286Y-13681952D01*
X15009762Y-13634333D01*
X15009762Y-13596238D01*
X15019286Y-13548619D01*
X15028809Y-13520048D01*
X15038333Y-13501000D01*
X15057381Y-13472428D01*
X15066905Y-13462905D01*
X15247857Y-13691476D02*
X15133571Y-13691476D01*
X15190714Y-13691476D02*
X15190714Y-13491476D01*
X15171667Y-13520048D01*
X15152619Y-13539095D01*
X15133571Y-13548619D01*
X15419286Y-13491476D02*
X15381190Y-13491476D01*
X15362143Y-13501000D01*
X15352619Y-13510524D01*
X15333571Y-13539095D01*
X15324048Y-13577190D01*
X15324048Y-13653381D01*
X15333571Y-13672428D01*
X15343095Y-13681952D01*
X15362143Y-13691476D01*
X15400238Y-13691476D01*
X15419286Y-13681952D01*
X15428809Y-13672428D01*
X15438333Y-13653381D01*
X15438333Y-13605762D01*
X15428809Y-13586714D01*
X15419286Y-13577190D01*
X15400238Y-13567667D01*
X15362143Y-13567667D01*
X15343095Y-13577190D01*
X15333571Y-13586714D01*
X15324048Y-13605762D01*
X15676428Y-13691476D02*
X15676428Y-13491476D01*
X15762143Y-13691476D02*
X15762143Y-13586714D01*
X15752619Y-13567667D01*
X15733571Y-13558143D01*
X15705000Y-13558143D01*
X15685952Y-13567667D01*
X15676428Y-13577190D01*
X15885952Y-13691476D02*
X15866905Y-13681952D01*
X15857381Y-13672428D01*
X15847857Y-13653381D01*
X15847857Y-13596238D01*
X15857381Y-13577190D01*
X15866905Y-13567667D01*
X15885952Y-13558143D01*
X15914524Y-13558143D01*
X15933571Y-13567667D01*
X15943095Y-13577190D01*
X15952619Y-13596238D01*
X15952619Y-13653381D01*
X15943095Y-13672428D01*
X15933571Y-13681952D01*
X15914524Y-13691476D01*
X15885952Y-13691476D01*
X16066905Y-13691476D02*
X16047857Y-13681952D01*
X16038333Y-13662905D01*
X16038333Y-13491476D01*
X16219286Y-13681952D02*
X16200238Y-13691476D01*
X16162143Y-13691476D01*
X16143095Y-13681952D01*
X16133571Y-13662905D01*
X16133571Y-13586714D01*
X16143095Y-13567667D01*
X16162143Y-13558143D01*
X16200238Y-13558143D01*
X16219286Y-13567667D01*
X16228809Y-13586714D01*
X16228809Y-13605762D01*
X16133571Y-13624809D01*
X16305000Y-13681952D02*
X16324048Y-13691476D01*
X16362143Y-13691476D01*
X16381190Y-13681952D01*
X16390714Y-13662905D01*
X16390714Y-13653381D01*
X16381190Y-13634333D01*
X16362143Y-13624809D01*
X16333571Y-13624809D01*
X16314524Y-13615286D01*
X16305000Y-13596238D01*
X16305000Y-13586714D01*
X16314524Y-13567667D01*
X16333571Y-13558143D01*
X16362143Y-13558143D01*
X16381190Y-13567667D01*
X16457381Y-13767667D02*
X16466905Y-13758143D01*
X16485952Y-13729571D01*
X16495476Y-13710524D01*
X16505000Y-13681952D01*
X16514524Y-13634333D01*
X16514524Y-13596238D01*
X16505000Y-13548619D01*
X16495476Y-13520048D01*
X16485952Y-13501000D01*
X16466905Y-13472428D01*
X16457381Y-13462905D01*
D17*
X11415000Y-13825000D02*
X11495000Y-13905000D01*
X11495000Y-13825000D02*
X11415000Y-13905000D01*
X11495000Y-13865000D02*
G75*
G03*
X11495000Y-13865000I-40000J0D01*
G01*
D11*
X11790714Y-13755476D02*
X11809762Y-13755476D01*
X11828809Y-13765000D01*
X11838333Y-13774524D01*
X11847857Y-13793571D01*
X11857381Y-13831667D01*
X11857381Y-13879286D01*
X11847857Y-13917381D01*
X11838333Y-13936428D01*
X11828809Y-13945952D01*
X11809762Y-13955476D01*
X11790714Y-13955476D01*
X11771667Y-13945952D01*
X11762143Y-13936428D01*
X11752619Y-13917381D01*
X11743095Y-13879286D01*
X11743095Y-13831667D01*
X11752619Y-13793571D01*
X11762143Y-13774524D01*
X11771667Y-13765000D01*
X11790714Y-13755476D01*
X11943095Y-13936428D02*
X11952619Y-13945952D01*
X11943095Y-13955476D01*
X11933571Y-13945952D01*
X11943095Y-13936428D01*
X11943095Y-13955476D01*
X12066905Y-13841190D02*
X12047857Y-13831667D01*
X12038333Y-13822143D01*
X12028809Y-13803095D01*
X12028809Y-13793571D01*
X12038333Y-13774524D01*
X12047857Y-13765000D01*
X12066905Y-13755476D01*
X12105000Y-13755476D01*
X12124048Y-13765000D01*
X12133571Y-13774524D01*
X12143095Y-13793571D01*
X12143095Y-13803095D01*
X12133571Y-13822143D01*
X12124048Y-13831667D01*
X12105000Y-13841190D01*
X12066905Y-13841190D01*
X12047857Y-13850714D01*
X12038333Y-13860238D01*
X12028809Y-13879286D01*
X12028809Y-13917381D01*
X12038333Y-13936428D01*
X12047857Y-13945952D01*
X12066905Y-13955476D01*
X12105000Y-13955476D01*
X12124048Y-13945952D01*
X12133571Y-13936428D01*
X12143095Y-13917381D01*
X12143095Y-13879286D01*
X12133571Y-13860238D01*
X12124048Y-13850714D01*
X12105000Y-13841190D01*
X12266905Y-13755476D02*
X12285952Y-13755476D01*
X12305000Y-13765000D01*
X12314524Y-13774524D01*
X12324048Y-13793571D01*
X12333571Y-13831667D01*
X12333571Y-13879286D01*
X12324048Y-13917381D01*
X12314524Y-13936428D01*
X12305000Y-13945952D01*
X12285952Y-13955476D01*
X12266905Y-13955476D01*
X12247857Y-13945952D01*
X12238333Y-13936428D01*
X12228809Y-13917381D01*
X12219286Y-13879286D01*
X12219286Y-13831667D01*
X12228809Y-13793571D01*
X12238333Y-13774524D01*
X12247857Y-13765000D01*
X12266905Y-13755476D01*
X12457381Y-13755476D02*
X12476428Y-13755476D01*
X12495476Y-13765000D01*
X12505000Y-13774524D01*
X12514524Y-13793571D01*
X12524048Y-13831667D01*
X12524048Y-13879286D01*
X12514524Y-13917381D01*
X12505000Y-13936428D01*
X12495476Y-13945952D01*
X12476428Y-13955476D01*
X12457381Y-13955476D01*
X12438333Y-13945952D01*
X12428809Y-13936428D01*
X12419286Y-13917381D01*
X12409762Y-13879286D01*
X12409762Y-13831667D01*
X12419286Y-13793571D01*
X12428809Y-13774524D01*
X12438333Y-13765000D01*
X12457381Y-13755476D01*
X12609762Y-13955476D02*
X12609762Y-13822143D01*
X12609762Y-13841190D02*
X12619286Y-13831667D01*
X12638333Y-13822143D01*
X12666905Y-13822143D01*
X12685952Y-13831667D01*
X12695476Y-13850714D01*
X12695476Y-13955476D01*
X12695476Y-13850714D02*
X12705000Y-13831667D01*
X12724048Y-13822143D01*
X12752619Y-13822143D01*
X12771667Y-13831667D01*
X12781190Y-13850714D01*
X12781190Y-13955476D01*
X12876428Y-13955476D02*
X12876428Y-13822143D01*
X12876428Y-13841190D02*
X12885952Y-13831667D01*
X12905000Y-13822143D01*
X12933571Y-13822143D01*
X12952619Y-13831667D01*
X12962143Y-13850714D01*
X12962143Y-13955476D01*
X12962143Y-13850714D02*
X12971667Y-13831667D01*
X12990714Y-13822143D01*
X13019286Y-13822143D01*
X13038333Y-13831667D01*
X13047857Y-13850714D01*
X13047857Y-13955476D01*
X13438333Y-13745952D02*
X13266905Y-14003095D01*
X13695476Y-13755476D02*
X13714524Y-13755476D01*
X13733571Y-13765000D01*
X13743095Y-13774524D01*
X13752619Y-13793571D01*
X13762143Y-13831667D01*
X13762143Y-13879286D01*
X13752619Y-13917381D01*
X13743095Y-13936428D01*
X13733571Y-13945952D01*
X13714524Y-13955476D01*
X13695476Y-13955476D01*
X13676428Y-13945952D01*
X13666905Y-13936428D01*
X13657381Y-13917381D01*
X13647857Y-13879286D01*
X13647857Y-13831667D01*
X13657381Y-13793571D01*
X13666905Y-13774524D01*
X13676428Y-13765000D01*
X13695476Y-13755476D01*
X13847857Y-13936428D02*
X13857381Y-13945952D01*
X13847857Y-13955476D01*
X13838333Y-13945952D01*
X13847857Y-13936428D01*
X13847857Y-13955476D01*
X13981190Y-13755476D02*
X14000238Y-13755476D01*
X14019286Y-13765000D01*
X14028809Y-13774524D01*
X14038333Y-13793571D01*
X14047857Y-13831667D01*
X14047857Y-13879286D01*
X14038333Y-13917381D01*
X14028809Y-13936428D01*
X14019286Y-13945952D01*
X14000238Y-13955476D01*
X13981190Y-13955476D01*
X13962143Y-13945952D01*
X13952619Y-13936428D01*
X13943095Y-13917381D01*
X13933571Y-13879286D01*
X13933571Y-13831667D01*
X13943095Y-13793571D01*
X13952619Y-13774524D01*
X13962143Y-13765000D01*
X13981190Y-13755476D01*
X14114524Y-13755476D02*
X14238333Y-13755476D01*
X14171667Y-13831667D01*
X14200238Y-13831667D01*
X14219286Y-13841190D01*
X14228809Y-13850714D01*
X14238333Y-13869762D01*
X14238333Y-13917381D01*
X14228809Y-13936428D01*
X14219286Y-13945952D01*
X14200238Y-13955476D01*
X14143095Y-13955476D01*
X14124048Y-13945952D01*
X14114524Y-13936428D01*
X14428809Y-13955476D02*
X14314524Y-13955476D01*
X14371667Y-13955476D02*
X14371667Y-13755476D01*
X14352619Y-13784048D01*
X14333571Y-13803095D01*
X14314524Y-13812619D01*
X14609762Y-13755476D02*
X14514524Y-13755476D01*
X14505000Y-13850714D01*
X14514524Y-13841190D01*
X14533571Y-13831667D01*
X14581190Y-13831667D01*
X14600238Y-13841190D01*
X14609762Y-13850714D01*
X14619286Y-13869762D01*
X14619286Y-13917381D01*
X14609762Y-13936428D01*
X14600238Y-13945952D01*
X14581190Y-13955476D01*
X14533571Y-13955476D01*
X14514524Y-13945952D01*
X14505000Y-13936428D01*
X14695476Y-13755476D02*
X14695476Y-13793571D01*
X14771667Y-13755476D02*
X14771667Y-13793571D01*
X15066905Y-14031667D02*
X15057381Y-14022143D01*
X15038333Y-13993571D01*
X15028809Y-13974524D01*
X15019286Y-13945952D01*
X15009762Y-13898333D01*
X15009762Y-13860238D01*
X15019286Y-13812619D01*
X15028809Y-13784048D01*
X15038333Y-13765000D01*
X15057381Y-13736428D01*
X15066905Y-13726905D01*
X15228809Y-13755476D02*
X15190714Y-13755476D01*
X15171667Y-13765000D01*
X15162143Y-13774524D01*
X15143095Y-13803095D01*
X15133571Y-13841190D01*
X15133571Y-13917381D01*
X15143095Y-13936428D01*
X15152619Y-13945952D01*
X15171667Y-13955476D01*
X15209762Y-13955476D01*
X15228809Y-13945952D01*
X15238333Y-13936428D01*
X15247857Y-13917381D01*
X15247857Y-13869762D01*
X15238333Y-13850714D01*
X15228809Y-13841190D01*
X15209762Y-13831667D01*
X15171667Y-13831667D01*
X15152619Y-13841190D01*
X15143095Y-13850714D01*
X15133571Y-13869762D01*
X15485952Y-13955476D02*
X15485952Y-13755476D01*
X15571667Y-13955476D02*
X15571667Y-13850714D01*
X15562143Y-13831667D01*
X15543095Y-13822143D01*
X15514524Y-13822143D01*
X15495476Y-13831667D01*
X15485952Y-13841190D01*
X15695476Y-13955476D02*
X15676428Y-13945952D01*
X15666905Y-13936428D01*
X15657381Y-13917381D01*
X15657381Y-13860238D01*
X15666905Y-13841190D01*
X15676428Y-13831667D01*
X15695476Y-13822143D01*
X15724048Y-13822143D01*
X15743095Y-13831667D01*
X15752619Y-13841190D01*
X15762143Y-13860238D01*
X15762143Y-13917381D01*
X15752619Y-13936428D01*
X15743095Y-13945952D01*
X15724048Y-13955476D01*
X15695476Y-13955476D01*
X15876428Y-13955476D02*
X15857381Y-13945952D01*
X15847857Y-13926905D01*
X15847857Y-13755476D01*
X16028809Y-13945952D02*
X16009762Y-13955476D01*
X15971667Y-13955476D01*
X15952619Y-13945952D01*
X15943095Y-13926905D01*
X15943095Y-13850714D01*
X15952619Y-13831667D01*
X15971667Y-13822143D01*
X16009762Y-13822143D01*
X16028809Y-13831667D01*
X16038333Y-13850714D01*
X16038333Y-13869762D01*
X15943095Y-13888809D01*
X16114524Y-13945952D02*
X16133571Y-13955476D01*
X16171667Y-13955476D01*
X16190714Y-13945952D01*
X16200238Y-13926905D01*
X16200238Y-13917381D01*
X16190714Y-13898333D01*
X16171667Y-13888809D01*
X16143095Y-13888809D01*
X16124048Y-13879286D01*
X16114524Y-13860238D01*
X16114524Y-13850714D01*
X16124048Y-13831667D01*
X16143095Y-13822143D01*
X16171667Y-13822143D01*
X16190714Y-13831667D01*
X16266905Y-14031667D02*
X16276428Y-14022143D01*
X16295476Y-13993571D01*
X16305000Y-13974524D01*
X16314524Y-13945952D01*
X16324048Y-13898333D01*
X16324048Y-13860238D01*
X16314524Y-13812619D01*
X16305000Y-13784048D01*
X16295476Y-13765000D01*
X16276428Y-13736428D01*
X16266905Y-13726905D01*
D18*
X11405000Y-14084000D02*
X11495000Y-14174000D01*
X11495000Y-14084000D02*
X11405000Y-14174000D01*
X11450000Y-14084000D02*
X11450000Y-14174000D01*
X11405000Y-14129000D02*
X11495000Y-14129000D01*
D11*
X11790714Y-14019476D02*
X11809762Y-14019476D01*
X11828809Y-14029000D01*
X11838333Y-14038524D01*
X11847857Y-14057571D01*
X11857381Y-14095667D01*
X11857381Y-14143286D01*
X11847857Y-14181381D01*
X11838333Y-14200428D01*
X11828809Y-14209952D01*
X11809762Y-14219476D01*
X11790714Y-14219476D01*
X11771667Y-14209952D01*
X11762143Y-14200428D01*
X11752619Y-14181381D01*
X11743095Y-14143286D01*
X11743095Y-14095667D01*
X11752619Y-14057571D01*
X11762143Y-14038524D01*
X11771667Y-14029000D01*
X11790714Y-14019476D01*
X11943095Y-14200428D02*
X11952619Y-14209952D01*
X11943095Y-14219476D01*
X11933571Y-14209952D01*
X11943095Y-14200428D01*
X11943095Y-14219476D01*
X12047857Y-14219476D02*
X12085952Y-14219476D01*
X12105000Y-14209952D01*
X12114524Y-14200428D01*
X12133571Y-14171857D01*
X12143095Y-14133762D01*
X12143095Y-14057571D01*
X12133571Y-14038524D01*
X12124048Y-14029000D01*
X12105000Y-14019476D01*
X12066905Y-14019476D01*
X12047857Y-14029000D01*
X12038333Y-14038524D01*
X12028809Y-14057571D01*
X12028809Y-14105190D01*
X12038333Y-14124238D01*
X12047857Y-14133762D01*
X12066905Y-14143286D01*
X12105000Y-14143286D01*
X12124048Y-14133762D01*
X12133571Y-14124238D01*
X12143095Y-14105190D01*
X12266905Y-14019476D02*
X12285952Y-14019476D01*
X12305000Y-14029000D01*
X12314524Y-14038524D01*
X12324048Y-14057571D01*
X12333571Y-14095667D01*
X12333571Y-14143286D01*
X12324048Y-14181381D01*
X12314524Y-14200428D01*
X12305000Y-14209952D01*
X12285952Y-14219476D01*
X12266905Y-14219476D01*
X12247857Y-14209952D01*
X12238333Y-14200428D01*
X12228809Y-14181381D01*
X12219286Y-14143286D01*
X12219286Y-14095667D01*
X12228809Y-14057571D01*
X12238333Y-14038524D01*
X12247857Y-14029000D01*
X12266905Y-14019476D01*
X12457381Y-14019476D02*
X12476428Y-14019476D01*
X12495476Y-14029000D01*
X12505000Y-14038524D01*
X12514524Y-14057571D01*
X12524048Y-14095667D01*
X12524048Y-14143286D01*
X12514524Y-14181381D01*
X12505000Y-14200428D01*
X12495476Y-14209952D01*
X12476428Y-14219476D01*
X12457381Y-14219476D01*
X12438333Y-14209952D01*
X12428809Y-14200428D01*
X12419286Y-14181381D01*
X12409762Y-14143286D01*
X12409762Y-14095667D01*
X12419286Y-14057571D01*
X12428809Y-14038524D01*
X12438333Y-14029000D01*
X12457381Y-14019476D01*
X12609762Y-14219476D02*
X12609762Y-14086143D01*
X12609762Y-14105190D02*
X12619286Y-14095667D01*
X12638333Y-14086143D01*
X12666905Y-14086143D01*
X12685952Y-14095667D01*
X12695476Y-14114714D01*
X12695476Y-14219476D01*
X12695476Y-14114714D02*
X12705000Y-14095667D01*
X12724048Y-14086143D01*
X12752619Y-14086143D01*
X12771667Y-14095667D01*
X12781190Y-14114714D01*
X12781190Y-14219476D01*
X12876428Y-14219476D02*
X12876428Y-14086143D01*
X12876428Y-14105190D02*
X12885952Y-14095667D01*
X12905000Y-14086143D01*
X12933571Y-14086143D01*
X12952619Y-14095667D01*
X12962143Y-14114714D01*
X12962143Y-14219476D01*
X12962143Y-14114714D02*
X12971667Y-14095667D01*
X12990714Y-14086143D01*
X13019286Y-14086143D01*
X13038333Y-14095667D01*
X13047857Y-14114714D01*
X13047857Y-14219476D01*
X13438333Y-14009952D02*
X13266905Y-14267095D01*
X13695476Y-14019476D02*
X13714524Y-14019476D01*
X13733571Y-14029000D01*
X13743095Y-14038524D01*
X13752619Y-14057571D01*
X13762143Y-14095667D01*
X13762143Y-14143286D01*
X13752619Y-14181381D01*
X13743095Y-14200428D01*
X13733571Y-14209952D01*
X13714524Y-14219476D01*
X13695476Y-14219476D01*
X13676428Y-14209952D01*
X13666905Y-14200428D01*
X13657381Y-14181381D01*
X13647857Y-14143286D01*
X13647857Y-14095667D01*
X13657381Y-14057571D01*
X13666905Y-14038524D01*
X13676428Y-14029000D01*
X13695476Y-14019476D01*
X13847857Y-14200428D02*
X13857381Y-14209952D01*
X13847857Y-14219476D01*
X13838333Y-14209952D01*
X13847857Y-14200428D01*
X13847857Y-14219476D01*
X13981190Y-14019476D02*
X14000238Y-14019476D01*
X14019286Y-14029000D01*
X14028809Y-14038524D01*
X14038333Y-14057571D01*
X14047857Y-14095667D01*
X14047857Y-14143286D01*
X14038333Y-14181381D01*
X14028809Y-14200428D01*
X14019286Y-14209952D01*
X14000238Y-14219476D01*
X13981190Y-14219476D01*
X13962143Y-14209952D01*
X13952619Y-14200428D01*
X13943095Y-14181381D01*
X13933571Y-14143286D01*
X13933571Y-14095667D01*
X13943095Y-14057571D01*
X13952619Y-14038524D01*
X13962143Y-14029000D01*
X13981190Y-14019476D01*
X14114524Y-14019476D02*
X14238333Y-14019476D01*
X14171667Y-14095667D01*
X14200238Y-14095667D01*
X14219286Y-14105190D01*
X14228809Y-14114714D01*
X14238333Y-14133762D01*
X14238333Y-14181381D01*
X14228809Y-14200428D01*
X14219286Y-14209952D01*
X14200238Y-14219476D01*
X14143095Y-14219476D01*
X14124048Y-14209952D01*
X14114524Y-14200428D01*
X14419286Y-14019476D02*
X14324048Y-14019476D01*
X14314524Y-14114714D01*
X14324048Y-14105190D01*
X14343095Y-14095667D01*
X14390714Y-14095667D01*
X14409762Y-14105190D01*
X14419286Y-14114714D01*
X14428809Y-14133762D01*
X14428809Y-14181381D01*
X14419286Y-14200428D01*
X14409762Y-14209952D01*
X14390714Y-14219476D01*
X14343095Y-14219476D01*
X14324048Y-14209952D01*
X14314524Y-14200428D01*
X14600238Y-14086143D02*
X14600238Y-14219476D01*
X14552619Y-14009952D02*
X14505000Y-14152809D01*
X14628809Y-14152809D01*
X14695476Y-14019476D02*
X14695476Y-14057571D01*
X14771667Y-14019476D02*
X14771667Y-14057571D01*
X15066905Y-14295667D02*
X15057381Y-14286143D01*
X15038333Y-14257571D01*
X15028809Y-14238524D01*
X15019286Y-14209952D01*
X15009762Y-14162333D01*
X15009762Y-14124238D01*
X15019286Y-14076619D01*
X15028809Y-14048048D01*
X15038333Y-14029000D01*
X15057381Y-14000428D01*
X15066905Y-13990905D01*
X15181190Y-14019476D02*
X15200238Y-14019476D01*
X15219286Y-14029000D01*
X15228809Y-14038524D01*
X15238333Y-14057571D01*
X15247857Y-14095667D01*
X15247857Y-14143286D01*
X15238333Y-14181381D01*
X15228809Y-14200428D01*
X15219286Y-14209952D01*
X15200238Y-14219476D01*
X15181190Y-14219476D01*
X15162143Y-14209952D01*
X15152619Y-14200428D01*
X15143095Y-14181381D01*
X15133571Y-14143286D01*
X15133571Y-14095667D01*
X15143095Y-14057571D01*
X15152619Y-14038524D01*
X15162143Y-14029000D01*
X15181190Y-14019476D01*
X15485952Y-14219476D02*
X15485952Y-14019476D01*
X15571667Y-14219476D02*
X15571667Y-14114714D01*
X15562143Y-14095667D01*
X15543095Y-14086143D01*
X15514524Y-14086143D01*
X15495476Y-14095667D01*
X15485952Y-14105190D01*
X15695476Y-14219476D02*
X15676428Y-14209952D01*
X15666905Y-14200428D01*
X15657381Y-14181381D01*
X15657381Y-14124238D01*
X15666905Y-14105190D01*
X15676428Y-14095667D01*
X15695476Y-14086143D01*
X15724048Y-14086143D01*
X15743095Y-14095667D01*
X15752619Y-14105190D01*
X15762143Y-14124238D01*
X15762143Y-14181381D01*
X15752619Y-14200428D01*
X15743095Y-14209952D01*
X15724048Y-14219476D01*
X15695476Y-14219476D01*
X15876428Y-14219476D02*
X15857381Y-14209952D01*
X15847857Y-14190905D01*
X15847857Y-14019476D01*
X16028809Y-14209952D02*
X16009762Y-14219476D01*
X15971667Y-14219476D01*
X15952619Y-14209952D01*
X15943095Y-14190905D01*
X15943095Y-14114714D01*
X15952619Y-14095667D01*
X15971667Y-14086143D01*
X16009762Y-14086143D01*
X16028809Y-14095667D01*
X16038333Y-14114714D01*
X16038333Y-14133762D01*
X15943095Y-14152809D01*
X16114524Y-14209952D02*
X16133571Y-14219476D01*
X16171667Y-14219476D01*
X16190714Y-14209952D01*
X16200238Y-14190905D01*
X16200238Y-14181381D01*
X16190714Y-14162333D01*
X16171667Y-14152809D01*
X16143095Y-14152809D01*
X16124048Y-14143286D01*
X16114524Y-14124238D01*
X16114524Y-14114714D01*
X16124048Y-14095667D01*
X16143095Y-14086143D01*
X16171667Y-14086143D01*
X16190714Y-14095667D01*
X16438333Y-14143286D02*
X16590714Y-14143286D01*
X16514524Y-14219476D02*
X16514524Y-14067095D01*
X16828810Y-14038524D02*
X16838333Y-14029000D01*
X16857381Y-14019476D01*
X16905000Y-14019476D01*
X16924048Y-14029000D01*
X16933571Y-14038524D01*
X16943095Y-14057571D01*
X16943095Y-14076619D01*
X16933571Y-14105190D01*
X16819286Y-14219476D01*
X16943095Y-14219476D01*
X17171667Y-14209952D02*
X17190714Y-14219476D01*
X17228810Y-14219476D01*
X17247857Y-14209952D01*
X17257381Y-14190905D01*
X17257381Y-14181381D01*
X17247857Y-14162333D01*
X17228810Y-14152809D01*
X17200238Y-14152809D01*
X17181190Y-14143286D01*
X17171667Y-14124238D01*
X17171667Y-14114714D01*
X17181190Y-14095667D01*
X17200238Y-14086143D01*
X17228810Y-14086143D01*
X17247857Y-14095667D01*
X17371667Y-14219476D02*
X17352619Y-14209952D01*
X17343095Y-14190905D01*
X17343095Y-14019476D01*
X17476429Y-14219476D02*
X17457381Y-14209952D01*
X17447857Y-14200428D01*
X17438333Y-14181381D01*
X17438333Y-14124238D01*
X17447857Y-14105190D01*
X17457381Y-14095667D01*
X17476429Y-14086143D01*
X17505000Y-14086143D01*
X17524048Y-14095667D01*
X17533571Y-14105190D01*
X17543095Y-14124238D01*
X17543095Y-14181381D01*
X17533571Y-14200428D01*
X17524048Y-14209952D01*
X17505000Y-14219476D01*
X17476429Y-14219476D01*
X17600238Y-14086143D02*
X17676429Y-14086143D01*
X17628810Y-14019476D02*
X17628810Y-14190905D01*
X17638333Y-14209952D01*
X17657381Y-14219476D01*
X17676429Y-14219476D01*
X17733571Y-14209952D02*
X17752619Y-14219476D01*
X17790714Y-14219476D01*
X17809762Y-14209952D01*
X17819286Y-14190905D01*
X17819286Y-14181381D01*
X17809762Y-14162333D01*
X17790714Y-14152809D01*
X17762143Y-14152809D01*
X17743095Y-14143286D01*
X17733571Y-14124238D01*
X17733571Y-14114714D01*
X17743095Y-14095667D01*
X17762143Y-14086143D01*
X17790714Y-14086143D01*
X17809762Y-14095667D01*
X17885952Y-14295667D02*
X17895476Y-14286143D01*
X17914524Y-14257571D01*
X17924048Y-14238524D01*
X17933571Y-14209952D01*
X17943095Y-14162333D01*
X17943095Y-14124238D01*
X17933571Y-14076619D01*
X17924048Y-14048048D01*
X17914524Y-14029000D01*
X17895476Y-14000428D01*
X17885952Y-13990905D01*
D19*
X11395000Y-14343000D02*
X11495000Y-14443000D01*
X11495000Y-14343000D02*
X11395000Y-14443000D01*
X11480356Y-14428356D02*
X11480356Y-14357644D01*
X11409644Y-14357644D01*
X11409644Y-14428356D01*
X11480356Y-14428356D01*
D11*
X11857381Y-14483476D02*
X11743095Y-14483476D01*
X11800238Y-14483476D02*
X11800238Y-14283476D01*
X11781190Y-14312048D01*
X11762143Y-14331095D01*
X11743095Y-14340619D01*
X11943095Y-14464428D02*
X11952619Y-14473952D01*
X11943095Y-14483476D01*
X11933571Y-14473952D01*
X11943095Y-14464428D01*
X11943095Y-14483476D01*
X12076428Y-14283476D02*
X12095476Y-14283476D01*
X12114524Y-14293000D01*
X12124048Y-14302524D01*
X12133571Y-14321571D01*
X12143095Y-14359667D01*
X12143095Y-14407286D01*
X12133571Y-14445381D01*
X12124048Y-14464428D01*
X12114524Y-14473952D01*
X12095476Y-14483476D01*
X12076428Y-14483476D01*
X12057381Y-14473952D01*
X12047857Y-14464428D01*
X12038333Y-14445381D01*
X12028809Y-14407286D01*
X12028809Y-14359667D01*
X12038333Y-14321571D01*
X12047857Y-14302524D01*
X12057381Y-14293000D01*
X12076428Y-14283476D01*
X12266905Y-14283476D02*
X12285952Y-14283476D01*
X12305000Y-14293000D01*
X12314524Y-14302524D01*
X12324048Y-14321571D01*
X12333571Y-14359667D01*
X12333571Y-14407286D01*
X12324048Y-14445381D01*
X12314524Y-14464428D01*
X12305000Y-14473952D01*
X12285952Y-14483476D01*
X12266905Y-14483476D01*
X12247857Y-14473952D01*
X12238333Y-14464428D01*
X12228809Y-14445381D01*
X12219286Y-14407286D01*
X12219286Y-14359667D01*
X12228809Y-14321571D01*
X12238333Y-14302524D01*
X12247857Y-14293000D01*
X12266905Y-14283476D01*
X12457381Y-14283476D02*
X12476428Y-14283476D01*
X12495476Y-14293000D01*
X12505000Y-14302524D01*
X12514524Y-14321571D01*
X12524048Y-14359667D01*
X12524048Y-14407286D01*
X12514524Y-14445381D01*
X12505000Y-14464428D01*
X12495476Y-14473952D01*
X12476428Y-14483476D01*
X12457381Y-14483476D01*
X12438333Y-14473952D01*
X12428809Y-14464428D01*
X12419286Y-14445381D01*
X12409762Y-14407286D01*
X12409762Y-14359667D01*
X12419286Y-14321571D01*
X12428809Y-14302524D01*
X12438333Y-14293000D01*
X12457381Y-14283476D01*
X12609762Y-14483476D02*
X12609762Y-14350143D01*
X12609762Y-14369190D02*
X12619286Y-14359667D01*
X12638333Y-14350143D01*
X12666905Y-14350143D01*
X12685952Y-14359667D01*
X12695476Y-14378714D01*
X12695476Y-14483476D01*
X12695476Y-14378714D02*
X12705000Y-14359667D01*
X12724048Y-14350143D01*
X12752619Y-14350143D01*
X12771667Y-14359667D01*
X12781190Y-14378714D01*
X12781190Y-14483476D01*
X12876428Y-14483476D02*
X12876428Y-14350143D01*
X12876428Y-14369190D02*
X12885952Y-14359667D01*
X12905000Y-14350143D01*
X12933571Y-14350143D01*
X12952619Y-14359667D01*
X12962143Y-14378714D01*
X12962143Y-14483476D01*
X12962143Y-14378714D02*
X12971667Y-14359667D01*
X12990714Y-14350143D01*
X13019286Y-14350143D01*
X13038333Y-14359667D01*
X13047857Y-14378714D01*
X13047857Y-14483476D01*
X13438333Y-14273952D02*
X13266905Y-14531095D01*
X13695476Y-14283476D02*
X13714524Y-14283476D01*
X13733571Y-14293000D01*
X13743095Y-14302524D01*
X13752619Y-14321571D01*
X13762143Y-14359667D01*
X13762143Y-14407286D01*
X13752619Y-14445381D01*
X13743095Y-14464428D01*
X13733571Y-14473952D01*
X13714524Y-14483476D01*
X13695476Y-14483476D01*
X13676428Y-14473952D01*
X13666905Y-14464428D01*
X13657381Y-14445381D01*
X13647857Y-14407286D01*
X13647857Y-14359667D01*
X13657381Y-14321571D01*
X13666905Y-14302524D01*
X13676428Y-14293000D01*
X13695476Y-14283476D01*
X13847857Y-14464428D02*
X13857381Y-14473952D01*
X13847857Y-14483476D01*
X13838333Y-14473952D01*
X13847857Y-14464428D01*
X13847857Y-14483476D01*
X13981190Y-14283476D02*
X14000238Y-14283476D01*
X14019286Y-14293000D01*
X14028809Y-14302524D01*
X14038333Y-14321571D01*
X14047857Y-14359667D01*
X14047857Y-14407286D01*
X14038333Y-14445381D01*
X14028809Y-14464428D01*
X14019286Y-14473952D01*
X14000238Y-14483476D01*
X13981190Y-14483476D01*
X13962143Y-14473952D01*
X13952619Y-14464428D01*
X13943095Y-14445381D01*
X13933571Y-14407286D01*
X13933571Y-14359667D01*
X13943095Y-14321571D01*
X13952619Y-14302524D01*
X13962143Y-14293000D01*
X13981190Y-14283476D01*
X14114524Y-14283476D02*
X14238333Y-14283476D01*
X14171667Y-14359667D01*
X14200238Y-14359667D01*
X14219286Y-14369190D01*
X14228809Y-14378714D01*
X14238333Y-14397762D01*
X14238333Y-14445381D01*
X14228809Y-14464428D01*
X14219286Y-14473952D01*
X14200238Y-14483476D01*
X14143095Y-14483476D01*
X14124048Y-14473952D01*
X14114524Y-14464428D01*
X14333571Y-14483476D02*
X14371667Y-14483476D01*
X14390714Y-14473952D01*
X14400238Y-14464428D01*
X14419286Y-14435857D01*
X14428809Y-14397762D01*
X14428809Y-14321571D01*
X14419286Y-14302524D01*
X14409762Y-14293000D01*
X14390714Y-14283476D01*
X14352619Y-14283476D01*
X14333571Y-14293000D01*
X14324048Y-14302524D01*
X14314524Y-14321571D01*
X14314524Y-14369190D01*
X14324048Y-14388238D01*
X14333571Y-14397762D01*
X14352619Y-14407286D01*
X14390714Y-14407286D01*
X14409762Y-14397762D01*
X14419286Y-14388238D01*
X14428809Y-14369190D01*
X14600238Y-14350143D02*
X14600238Y-14483476D01*
X14552619Y-14273952D02*
X14505000Y-14416809D01*
X14628809Y-14416809D01*
X14695476Y-14283476D02*
X14695476Y-14321571D01*
X14771667Y-14283476D02*
X14771667Y-14321571D01*
X15066905Y-14559667D02*
X15057381Y-14550143D01*
X15038333Y-14521571D01*
X15028809Y-14502524D01*
X15019286Y-14473952D01*
X15009762Y-14426333D01*
X15009762Y-14388238D01*
X15019286Y-14340619D01*
X15028809Y-14312048D01*
X15038333Y-14293000D01*
X15057381Y-14264428D01*
X15066905Y-14254905D01*
X15247857Y-14483476D02*
X15133571Y-14483476D01*
X15190714Y-14483476D02*
X15190714Y-14283476D01*
X15171667Y-14312048D01*
X15152619Y-14331095D01*
X15133571Y-14340619D01*
X15324048Y-14302524D02*
X15333571Y-14293000D01*
X15352619Y-14283476D01*
X15400238Y-14283476D01*
X15419286Y-14293000D01*
X15428809Y-14302524D01*
X15438333Y-14321571D01*
X15438333Y-14340619D01*
X15428809Y-14369190D01*
X15314524Y-14483476D01*
X15438333Y-14483476D01*
X15676428Y-14483476D02*
X15676428Y-14283476D01*
X15762143Y-14483476D02*
X15762143Y-14378714D01*
X15752619Y-14359667D01*
X15733571Y-14350143D01*
X15705000Y-14350143D01*
X15685952Y-14359667D01*
X15676428Y-14369190D01*
X15885952Y-14483476D02*
X15866905Y-14473952D01*
X15857381Y-14464428D01*
X15847857Y-14445381D01*
X15847857Y-14388238D01*
X15857381Y-14369190D01*
X15866905Y-14359667D01*
X15885952Y-14350143D01*
X15914524Y-14350143D01*
X15933571Y-14359667D01*
X15943095Y-14369190D01*
X15952619Y-14388238D01*
X15952619Y-14445381D01*
X15943095Y-14464428D01*
X15933571Y-14473952D01*
X15914524Y-14483476D01*
X15885952Y-14483476D01*
X16066905Y-14483476D02*
X16047857Y-14473952D01*
X16038333Y-14454905D01*
X16038333Y-14283476D01*
X16219286Y-14473952D02*
X16200238Y-14483476D01*
X16162143Y-14483476D01*
X16143095Y-14473952D01*
X16133571Y-14454905D01*
X16133571Y-14378714D01*
X16143095Y-14359667D01*
X16162143Y-14350143D01*
X16200238Y-14350143D01*
X16219286Y-14359667D01*
X16228809Y-14378714D01*
X16228809Y-14397762D01*
X16133571Y-14416809D01*
X16305000Y-14473952D02*
X16324048Y-14483476D01*
X16362143Y-14483476D01*
X16381190Y-14473952D01*
X16390714Y-14454905D01*
X16390714Y-14445381D01*
X16381190Y-14426333D01*
X16362143Y-14416809D01*
X16333571Y-14416809D01*
X16314524Y-14407286D01*
X16305000Y-14388238D01*
X16305000Y-14378714D01*
X16314524Y-14359667D01*
X16333571Y-14350143D01*
X16362143Y-14350143D01*
X16381190Y-14359667D01*
X16457381Y-14559667D02*
X16466905Y-14550143D01*
X16485952Y-14521571D01*
X16495476Y-14502524D01*
X16505000Y-14473952D01*
X16514524Y-14426333D01*
X16514524Y-14388238D01*
X16505000Y-14340619D01*
X16495476Y-14312048D01*
X16485952Y-14293000D01*
X16466905Y-14264428D01*
X16457381Y-14254905D01*
M02*
