%TF.GenerationSoftware,KiCad,Pcbnew,6.0.9+dfsg-1*%
%TF.CreationDate,2023-01-18T23:30:58-08:00*%
%TF.ProjectId,redshift,72656473-6869-4667-942e-6b696361645f,0.2*%
%TF.SameCoordinates,Original*%
%TF.FileFunction,Copper,L2,Inr*%
%TF.FilePolarity,Positive*%
%FSLAX46Y46*%
G04 Gerber Fmt 4.6, Leading zero omitted, Abs format (unit mm)*
G04 Created by KiCad (PCBNEW 6.0.9+dfsg-1) date 2023-01-18 23:30:58*
%MOMM*%
%LPD*%
G01*
G04 APERTURE LIST*
%TA.AperFunction,ComponentPad*%
%ADD10C,1.700000*%
%TD*%
%TA.AperFunction,ComponentPad*%
%ADD11O,2.700000X1.700000*%
%TD*%
%TA.AperFunction,ComponentPad*%
%ADD12O,1.050000X2.100000*%
%TD*%
%TA.AperFunction,ComponentPad*%
%ADD13O,1.000000X2.000000*%
%TD*%
%TA.AperFunction,ComponentPad*%
%ADD14R,1.350000X1.350000*%
%TD*%
%TA.AperFunction,ComponentPad*%
%ADD15O,1.350000X1.350000*%
%TD*%
%TA.AperFunction,ComponentPad*%
%ADD16R,1.400000X1.400000*%
%TD*%
%TA.AperFunction,ComponentPad*%
%ADD17C,1.400000*%
%TD*%
%TA.AperFunction,ViaPad*%
%ADD18C,0.450000*%
%TD*%
%TA.AperFunction,ViaPad*%
%ADD19C,0.500000*%
%TD*%
%TA.AperFunction,ViaPad*%
%ADD20C,0.800000*%
%TD*%
%TA.AperFunction,Conductor*%
%ADD21C,0.450000*%
%TD*%
G04 APERTURE END LIST*
D10*
%TO.N,/ENC_A*%
%TO.C,ENC1*%
X129000000Y-80500000D03*
%TO.N,/ENC_B*%
X129000000Y-78000000D03*
%TO.N,GND*%
X129000000Y-75500000D03*
D11*
%TO.N,N/C*%
X127000000Y-72800000D03*
X127000000Y-83200000D03*
%TD*%
D12*
%TO.N,/SH*%
%TO.C,J1*%
X141820000Y-61180000D03*
D13*
X141820000Y-57000000D03*
X133180000Y-57000000D03*
D12*
X133180000Y-61180000D03*
%TD*%
D10*
%TO.N,GND*%
%TO.C,SW3*%
X149000000Y-74920000D03*
%TO.N,/SW3_M_NO*%
X149000000Y-80000000D03*
%TO.N,/SW3_M_NC*%
X149000000Y-85080000D03*
%TD*%
D14*
%TO.N,GND*%
%TO.C,J3*%
X157750000Y-100500000D03*
D15*
%TO.N,/DBG_VIN*%
X157750000Y-102500000D03*
%TO.N,/RESET*%
X157750000Y-104500000D03*
%TO.N,/SWDIO*%
X157750000Y-106500000D03*
%TO.N,/SWO*%
X157750000Y-108500000D03*
%TO.N,/SWCLK*%
X157750000Y-110500000D03*
%TD*%
D16*
%TO.N,N/C*%
%TO.C,U1*%
X142850000Y-113985000D03*
D17*
X142850000Y-112205000D03*
%TO.N,GND*%
X142850000Y-110425000D03*
%TO.N,+1V9*%
X142850000Y-108645000D03*
%TO.N,Net-(C21-Pad1)*%
X142850000Y-106865000D03*
%TO.N,unconnected-(U1-Pad6)*%
X142850000Y-105085000D03*
%TO.N,+3V3*%
X142850000Y-103305000D03*
%TO.N,GND*%
X142850000Y-101525000D03*
%TO.N,/SNSR_MTN*%
X132150000Y-100635000D03*
%TO.N,/FC0_SCK*%
X132150000Y-102415000D03*
%TO.N,/FC0_MOSI*%
X132150000Y-104195000D03*
%TO.N,/FC0_MISO*%
X132150000Y-105975000D03*
%TO.N,/FC0_CS1*%
X132150000Y-107755000D03*
%TO.N,/SNSR_RST*%
X132150000Y-109535000D03*
%TO.N,Net-(R7-Pad2)*%
X132150000Y-111315000D03*
%TO.N,N/C*%
X132150000Y-113095000D03*
%TD*%
D10*
%TO.N,GND*%
%TO.C,SW2*%
X156000000Y-72920000D03*
%TO.N,/SW2_R_NO*%
X156000000Y-78000000D03*
%TO.N,/SW2_R_NC*%
X156000000Y-83080000D03*
%TD*%
%TO.N,GND*%
%TO.C,SW1*%
X119000000Y-72920000D03*
%TO.N,/SW1_L_NO*%
X119000000Y-78000000D03*
%TO.N,/SW1_L_NC*%
X119000000Y-83080000D03*
%TD*%
D18*
%TO.N,+5V*%
X146750000Y-70500000D03*
D19*
X140700000Y-66000000D03*
X146000000Y-102000000D03*
%TO.N,+3V3*%
X138800000Y-90325000D03*
X129150000Y-100225000D03*
X122774500Y-85400000D03*
X146400000Y-67100000D03*
X129000000Y-91925000D03*
X123155000Y-100345000D03*
X117025000Y-92400000D03*
X117625000Y-95425000D03*
X128625000Y-105050000D03*
X139750000Y-96575000D03*
D20*
X157475000Y-116175000D03*
D19*
%TO.N,+1V9*%
X147250000Y-109550000D03*
%TO.N,/USB_D+*%
X136250000Y-64500000D03*
X128975000Y-93925000D03*
%TO.N,/USB_D-*%
X138750000Y-64500000D03*
X128600000Y-93175000D03*
%TO.N,/VBUS_*%
X136000000Y-60250000D03*
X159000000Y-95500000D03*
X140718767Y-62781233D03*
X139000000Y-60250000D03*
X139759355Y-62504544D03*
%TO.N,/USB1_LED*%
X137025000Y-93275000D03*
X125500000Y-89250000D03*
%TO.N,/RESET*%
X150550000Y-103900000D03*
X128825000Y-94800000D03*
%TO.N,GND*%
X142000000Y-62750000D03*
X129825000Y-100850000D03*
X134000000Y-65250000D03*
X131525000Y-94350000D03*
X150750000Y-114000000D03*
X139000000Y-67250000D03*
X119025000Y-105825000D03*
D20*
X152750000Y-117875000D03*
D19*
X138250000Y-91275000D03*
X153250000Y-114000000D03*
X150500000Y-68250000D03*
X145400000Y-111900000D03*
X149500000Y-114000000D03*
X149100000Y-108750000D03*
X123195000Y-101305000D03*
X124925000Y-95150000D03*
X140000000Y-63909500D03*
X135128530Y-96137233D03*
X116000000Y-92450000D03*
X132000000Y-65250000D03*
X147750000Y-103750000D03*
X145580000Y-105080000D03*
X123150000Y-83700000D03*
X122325000Y-92250000D03*
X133374500Y-62750000D03*
%TO.N,/FAULT_LED*%
X138625000Y-93250000D03*
X126387171Y-88904057D03*
%TO.N,/USER_LED*%
X125950000Y-90050000D03*
X134875000Y-93650000D03*
%TO.N,/SW2_R_NO*%
X127225000Y-85549500D03*
%TO.N,/SW2_R_NC*%
X128200000Y-86049500D03*
%TO.N,/SW3_M_NO*%
X125650000Y-84800000D03*
%TO.N,/SW3_M_NC*%
X126425000Y-85150000D03*
D20*
%TO.N,/ENC_B*%
X121400000Y-79075000D03*
%TO.N,/ENC_A*%
X122300000Y-79674500D03*
D19*
%TO.N,/SWO*%
X150750000Y-112874500D03*
X126925000Y-97450000D03*
X155250000Y-109274500D03*
%TO.N,/SWCLK*%
X123725000Y-97250000D03*
X154250000Y-108500000D03*
%TO.N,/SWDIO*%
X153500000Y-107500000D03*
X123275000Y-96550000D03*
%TO.N,/SNSR_MTN*%
X122125000Y-93875000D03*
%TO.N,/ISP*%
X149150000Y-103725000D03*
X150000000Y-106500000D03*
X121825000Y-92975000D03*
X152000000Y-110250000D03*
%TO.N,/DBG_VIN*%
X159000000Y-98000000D03*
X148250000Y-114000000D03*
%TO.N,/FC0_MISO*%
X120350000Y-95000000D03*
%TO.N,/FC0_SCK*%
X122450000Y-88725000D03*
%TO.N,/FC0_MOSI*%
X121024260Y-94419223D03*
%TD*%
D21*
%TO.N,/SH*%
X133180000Y-57000000D02*
X141820000Y-57000000D01*
X133180000Y-57000000D02*
X133180000Y-61180000D01*
X141820000Y-57000000D02*
X141820000Y-61180000D01*
%TD*%
%TA.AperFunction,Conductor*%
%TO.N,GND*%
G36*
X141111621Y-57395502D02*
G01*
X141158114Y-57449158D01*
X141169500Y-57501500D01*
X141169500Y-57540925D01*
X141173342Y-57571336D01*
X141181555Y-57636347D01*
X141184929Y-57663058D01*
X141245432Y-57815871D01*
X141342037Y-57948837D01*
X141348141Y-57953887D01*
X141348147Y-57953893D01*
X141398816Y-57995810D01*
X141438554Y-58054643D01*
X141444500Y-58092894D01*
X141444500Y-60028830D01*
X141424498Y-60096951D01*
X141401329Y-60123779D01*
X141320044Y-60194688D01*
X141320041Y-60194691D01*
X141314319Y-60199683D01*
X141220307Y-60333448D01*
X141160917Y-60485776D01*
X141158140Y-60506873D01*
X141151505Y-60557268D01*
X141122783Y-60622195D01*
X141063518Y-60661287D01*
X140992526Y-60662132D01*
X140932347Y-60624462D01*
X140903069Y-60565728D01*
X140892634Y-60513977D01*
X140890936Y-60505556D01*
X140825571Y-60377270D01*
X140728116Y-60271288D01*
X140605750Y-60195418D01*
X140467488Y-60155249D01*
X140460673Y-60154749D01*
X140459596Y-60154669D01*
X140459583Y-60154669D01*
X140457288Y-60154500D01*
X140353930Y-60154500D01*
X140349685Y-60155082D01*
X140349678Y-60155082D01*
X140290769Y-60163152D01*
X140247354Y-60169099D01*
X140239470Y-60172511D01*
X140239469Y-60172511D01*
X140123098Y-60222869D01*
X140123095Y-60222871D01*
X140115217Y-60226280D01*
X140003325Y-60316888D01*
X139919921Y-60434249D01*
X139871150Y-60569715D01*
X139870522Y-60578273D01*
X139870521Y-60578276D01*
X139865098Y-60652137D01*
X139860606Y-60713307D01*
X139889064Y-60854444D01*
X139954429Y-60982730D01*
X140051884Y-61088712D01*
X140174250Y-61164582D01*
X140312512Y-61204751D01*
X140319327Y-61205251D01*
X140320404Y-61205331D01*
X140320417Y-61205331D01*
X140322712Y-61205500D01*
X140426070Y-61205500D01*
X140430315Y-61204918D01*
X140430322Y-61204918D01*
X140489231Y-61196848D01*
X140532646Y-61190901D01*
X140587929Y-61166978D01*
X140656902Y-61137131D01*
X140656905Y-61137129D01*
X140664783Y-61133720D01*
X140776675Y-61043112D01*
X140860079Y-60925751D01*
X140899949Y-60815008D01*
X140941844Y-60757690D01*
X141008076Y-60732121D01*
X141077618Y-60746419D01*
X141128391Y-60796044D01*
X141144500Y-60857689D01*
X141144500Y-61745996D01*
X141159181Y-61867313D01*
X141216973Y-62020255D01*
X141309579Y-62154997D01*
X141315249Y-62160048D01*
X141315250Y-62160050D01*
X141341576Y-62183505D01*
X141431652Y-62263760D01*
X141438361Y-62267312D01*
X141438362Y-62267313D01*
X141569434Y-62336712D01*
X141569436Y-62336713D01*
X141576145Y-62340265D01*
X141627215Y-62353093D01*
X141727345Y-62378244D01*
X141727349Y-62378244D01*
X141734716Y-62380095D01*
X141742315Y-62380135D01*
X141742317Y-62380135D01*
X141810347Y-62380491D01*
X141898210Y-62380951D01*
X141905590Y-62379179D01*
X141905592Y-62379179D01*
X142049811Y-62344556D01*
X142049815Y-62344555D01*
X142057190Y-62342784D01*
X142202476Y-62267796D01*
X142208200Y-62262803D01*
X142319956Y-62165312D01*
X142319959Y-62165309D01*
X142325681Y-62160317D01*
X142419693Y-62026552D01*
X142456107Y-61933155D01*
X142499488Y-61876954D01*
X142566367Y-61853127D01*
X142635511Y-61869241D01*
X142684967Y-61920178D01*
X142699500Y-61978925D01*
X142699500Y-62962683D01*
X142697586Y-62984563D01*
X142694864Y-63000000D01*
X142695520Y-63003721D01*
X142696113Y-63013530D01*
X142696113Y-63013531D01*
X142709925Y-63241864D01*
X142712099Y-63277801D01*
X142762266Y-63551552D01*
X142845063Y-63817260D01*
X142959285Y-64071050D01*
X142961254Y-64074307D01*
X142961256Y-64074311D01*
X142984606Y-64112936D01*
X143103265Y-64309222D01*
X143105606Y-64312210D01*
X143105608Y-64312213D01*
X143260403Y-64509793D01*
X143274904Y-64528302D01*
X143471698Y-64725096D01*
X143474698Y-64727447D01*
X143474701Y-64727449D01*
X143678604Y-64887197D01*
X143690778Y-64896735D01*
X143694032Y-64898702D01*
X143925689Y-65038744D01*
X143925693Y-65038746D01*
X143928950Y-65040715D01*
X144055845Y-65097826D01*
X144179264Y-65153373D01*
X144179270Y-65153375D01*
X144182740Y-65154937D01*
X144448448Y-65237734D01*
X144722199Y-65287901D01*
X144725991Y-65288130D01*
X144725996Y-65288131D01*
X144985484Y-65303827D01*
X144996279Y-65304480D01*
X145000000Y-65305136D01*
X145015437Y-65302414D01*
X145037317Y-65300500D01*
X156962683Y-65300500D01*
X156984563Y-65302414D01*
X157000000Y-65305136D01*
X157010855Y-65303222D01*
X157021294Y-65303222D01*
X157034509Y-65302438D01*
X157295187Y-65317077D01*
X157309219Y-65318658D01*
X157451471Y-65342828D01*
X157593719Y-65366997D01*
X157607494Y-65370141D01*
X157693847Y-65395019D01*
X157884799Y-65450031D01*
X157898118Y-65454692D01*
X158113449Y-65543885D01*
X158164736Y-65565129D01*
X158177466Y-65571260D01*
X158430020Y-65710841D01*
X158441985Y-65718358D01*
X158677342Y-65885353D01*
X158688389Y-65894163D01*
X158903559Y-66086450D01*
X158913550Y-66096441D01*
X159105837Y-66311611D01*
X159114647Y-66322658D01*
X159281642Y-66558015D01*
X159289159Y-66569980D01*
X159428740Y-66822534D01*
X159434871Y-66835264D01*
X159545308Y-67101882D01*
X159549969Y-67115201D01*
X159581689Y-67225304D01*
X159629859Y-67392506D01*
X159633003Y-67406281D01*
X159645723Y-67481145D01*
X159675183Y-67654530D01*
X159681341Y-67690776D01*
X159682923Y-67704817D01*
X159697562Y-67965488D01*
X159696778Y-67978706D01*
X159696778Y-67989145D01*
X159694864Y-68000000D01*
X159696778Y-68010855D01*
X159697586Y-68015437D01*
X159699500Y-68037317D01*
X159699500Y-115962683D01*
X159697586Y-115984563D01*
X159694864Y-116000000D01*
X159696778Y-116010855D01*
X159696778Y-116021294D01*
X159697562Y-116034509D01*
X159682923Y-116295183D01*
X159681342Y-116309219D01*
X159658272Y-116444996D01*
X159633003Y-116593719D01*
X159629859Y-116607494D01*
X159606910Y-116687154D01*
X159549969Y-116884799D01*
X159545308Y-116898118D01*
X159446547Y-117136548D01*
X159434871Y-117164736D01*
X159428740Y-117177466D01*
X159289159Y-117430020D01*
X159281642Y-117441985D01*
X159114647Y-117677342D01*
X159105837Y-117688389D01*
X158913550Y-117903559D01*
X158903559Y-117913550D01*
X158688389Y-118105837D01*
X158677342Y-118114647D01*
X158441985Y-118281642D01*
X158430020Y-118289159D01*
X158177466Y-118428740D01*
X158164735Y-118434871D01*
X157898118Y-118545308D01*
X157884799Y-118549969D01*
X157693847Y-118604981D01*
X157607494Y-118629859D01*
X157593719Y-118633003D01*
X157451471Y-118657172D01*
X157309219Y-118681342D01*
X157295187Y-118682923D01*
X157034509Y-118697562D01*
X157021294Y-118696778D01*
X157010855Y-118696778D01*
X157000000Y-118694864D01*
X156989145Y-118696778D01*
X156984563Y-118697586D01*
X156962683Y-118699500D01*
X118037317Y-118699500D01*
X118015437Y-118697586D01*
X118010855Y-118696778D01*
X118000000Y-118694864D01*
X117989145Y-118696778D01*
X117978706Y-118696778D01*
X117965491Y-118697562D01*
X117704813Y-118682923D01*
X117690781Y-118681342D01*
X117548529Y-118657172D01*
X117406281Y-118633003D01*
X117392506Y-118629859D01*
X117306153Y-118604981D01*
X117115201Y-118549969D01*
X117101882Y-118545308D01*
X116835265Y-118434871D01*
X116822534Y-118428740D01*
X116569980Y-118289159D01*
X116558015Y-118281642D01*
X116322658Y-118114647D01*
X116311611Y-118105837D01*
X116096441Y-117913550D01*
X116086450Y-117903559D01*
X115894163Y-117688389D01*
X115885353Y-117677342D01*
X115718358Y-117441985D01*
X115710841Y-117430020D01*
X115571260Y-117177466D01*
X115565129Y-117164736D01*
X115553453Y-117136548D01*
X115454692Y-116898118D01*
X115450031Y-116884799D01*
X115393090Y-116687154D01*
X115370141Y-116607494D01*
X115366997Y-116593719D01*
X115341728Y-116444996D01*
X115318658Y-116309219D01*
X115317077Y-116295183D01*
X115302438Y-116034509D01*
X115303222Y-116021294D01*
X115303222Y-116010855D01*
X115305136Y-116000000D01*
X115302414Y-115984563D01*
X115300500Y-115962683D01*
X115300500Y-113095000D01*
X131294815Y-113095000D01*
X131295505Y-113101565D01*
X131299885Y-113143233D01*
X131313503Y-113272803D01*
X131368750Y-113442835D01*
X131458141Y-113597665D01*
X131462559Y-113602572D01*
X131462560Y-113602573D01*
X131531341Y-113678961D01*
X131577770Y-113730526D01*
X131583109Y-113734405D01*
X131632777Y-113770491D01*
X131722407Y-113835612D01*
X131728435Y-113838296D01*
X131728437Y-113838297D01*
X131879702Y-113905644D01*
X131885733Y-113908329D01*
X131973171Y-113926915D01*
X132054152Y-113944128D01*
X132054156Y-113944128D01*
X132060609Y-113945500D01*
X132239391Y-113945500D01*
X132245844Y-113944128D01*
X132245848Y-113944128D01*
X132326829Y-113926915D01*
X132414267Y-113908329D01*
X132420298Y-113905644D01*
X132571563Y-113838297D01*
X132571565Y-113838296D01*
X132577593Y-113835612D01*
X132667224Y-113770491D01*
X132699439Y-113747085D01*
X132766306Y-113723227D01*
X132835458Y-113739307D01*
X132884938Y-113790220D01*
X132899500Y-113849021D01*
X132899500Y-116712626D01*
X132898935Y-116724183D01*
X132895754Y-116735168D01*
X132896758Y-116746759D01*
X132899030Y-116772994D01*
X132899500Y-116783866D01*
X132899500Y-116792948D01*
X132900562Y-116798649D01*
X132900562Y-116798651D01*
X132900724Y-116799521D01*
X132902384Y-116811720D01*
X132902403Y-116811933D01*
X132905413Y-116846696D01*
X132910520Y-116857145D01*
X132911432Y-116860433D01*
X132912661Y-116863617D01*
X132914791Y-116875053D01*
X132929014Y-116898127D01*
X132933221Y-116904952D01*
X132939160Y-116915734D01*
X132954575Y-116947269D01*
X132963101Y-116955178D01*
X132965134Y-116957916D01*
X132967428Y-116960446D01*
X132973532Y-116970348D01*
X132982788Y-116977387D01*
X132982793Y-116977392D01*
X133001487Y-116991607D01*
X133010908Y-116999526D01*
X133036646Y-117023401D01*
X133047447Y-117027710D01*
X133050324Y-117029529D01*
X133053381Y-117031066D01*
X133062641Y-117038108D01*
X133083348Y-117044104D01*
X133096367Y-117047874D01*
X133108008Y-117051871D01*
X133140622Y-117064883D01*
X133146915Y-117065500D01*
X133149997Y-117065500D01*
X133153067Y-117065650D01*
X133153061Y-117065766D01*
X133159183Y-117066065D01*
X133170168Y-117069246D01*
X133207994Y-117065970D01*
X133218866Y-117065500D01*
X141747626Y-117065500D01*
X141759183Y-117066065D01*
X141770168Y-117069246D01*
X141807994Y-117065970D01*
X141818866Y-117065500D01*
X141827948Y-117065500D01*
X141833649Y-117064438D01*
X141833651Y-117064438D01*
X141834521Y-117064276D01*
X141846720Y-117062616D01*
X141870105Y-117060591D01*
X141870106Y-117060591D01*
X141881696Y-117059587D01*
X141892145Y-117054480D01*
X141895433Y-117053568D01*
X141898617Y-117052339D01*
X141910053Y-117050209D01*
X141939952Y-117031779D01*
X141950734Y-117025840D01*
X141971819Y-117015533D01*
X141982269Y-117010425D01*
X141990178Y-117001899D01*
X141992916Y-116999866D01*
X141995446Y-116997572D01*
X142005348Y-116991468D01*
X142012387Y-116982212D01*
X142012392Y-116982207D01*
X142026607Y-116963513D01*
X142034526Y-116954092D01*
X142050490Y-116936882D01*
X142058401Y-116928354D01*
X142062710Y-116917553D01*
X142064529Y-116914676D01*
X142066066Y-116911619D01*
X142073108Y-116902359D01*
X142082874Y-116868632D01*
X142086873Y-116856986D01*
X142099883Y-116824378D01*
X142100500Y-116818085D01*
X142100500Y-116815003D01*
X142100650Y-116811933D01*
X142100766Y-116811939D01*
X142101065Y-116805817D01*
X142104246Y-116794832D01*
X142100970Y-116757006D01*
X142100500Y-116746134D01*
X142100500Y-116175000D01*
X156919750Y-116175000D01*
X156938670Y-116318709D01*
X156994139Y-116452625D01*
X157082379Y-116567621D01*
X157197375Y-116655861D01*
X157331291Y-116711330D01*
X157475000Y-116730250D01*
X157618709Y-116711330D01*
X157752625Y-116655861D01*
X157867621Y-116567621D01*
X157955861Y-116452625D01*
X158011330Y-116318709D01*
X158030250Y-116175000D01*
X158011330Y-116031291D01*
X157955861Y-115897375D01*
X157867621Y-115782379D01*
X157752625Y-115694139D01*
X157618709Y-115638670D01*
X157475000Y-115619750D01*
X157331291Y-115638670D01*
X157197375Y-115694139D01*
X157082379Y-115782379D01*
X156994139Y-115897375D01*
X156938670Y-116031291D01*
X156919750Y-116175000D01*
X142100500Y-116175000D01*
X142100500Y-114961500D01*
X142120502Y-114893379D01*
X142174158Y-114846886D01*
X142226500Y-114835500D01*
X143564820Y-114835500D01*
X143608722Y-114826767D01*
X143619040Y-114819873D01*
X143619042Y-114819872D01*
X143648185Y-114800399D01*
X143658504Y-114793504D01*
X143665399Y-114783185D01*
X143684872Y-114754042D01*
X143684873Y-114754040D01*
X143691767Y-114743722D01*
X143700500Y-114699820D01*
X143700500Y-114000000D01*
X147844508Y-114000000D01*
X147864354Y-114125304D01*
X147921950Y-114238342D01*
X148011658Y-114328050D01*
X148124696Y-114385646D01*
X148134485Y-114387196D01*
X148134487Y-114387197D01*
X148240207Y-114403941D01*
X148250000Y-114405492D01*
X148259793Y-114403941D01*
X148365513Y-114387197D01*
X148365515Y-114387196D01*
X148375304Y-114385646D01*
X148488342Y-114328050D01*
X148578050Y-114238342D01*
X148635646Y-114125304D01*
X148655492Y-114000000D01*
X148635646Y-113874696D01*
X148578050Y-113761658D01*
X148488342Y-113671950D01*
X148375304Y-113614354D01*
X148365515Y-113612804D01*
X148365513Y-113612803D01*
X148259793Y-113596059D01*
X148250000Y-113594508D01*
X148240207Y-113596059D01*
X148134487Y-113612803D01*
X148134485Y-113612804D01*
X148124696Y-113614354D01*
X148011658Y-113671950D01*
X147921950Y-113761658D01*
X147864354Y-113874696D01*
X147844508Y-114000000D01*
X143700500Y-114000000D01*
X143700500Y-113270180D01*
X143691767Y-113226278D01*
X143684873Y-113215960D01*
X143684872Y-113215958D01*
X143665399Y-113186815D01*
X143658504Y-113176496D01*
X143648185Y-113169601D01*
X143619042Y-113150128D01*
X143619040Y-113150127D01*
X143608722Y-113143233D01*
X143564820Y-113134500D01*
X143405398Y-113134500D01*
X143337277Y-113114498D01*
X143290784Y-113060842D01*
X143280680Y-112990568D01*
X143310174Y-112925988D01*
X143331337Y-112906564D01*
X143361991Y-112884293D01*
X143375470Y-112874500D01*
X150344508Y-112874500D01*
X150364354Y-112999804D01*
X150421950Y-113112842D01*
X150511658Y-113202550D01*
X150624696Y-113260146D01*
X150634485Y-113261696D01*
X150634487Y-113261697D01*
X150740207Y-113278441D01*
X150750000Y-113279992D01*
X150759793Y-113278441D01*
X150865513Y-113261697D01*
X150865515Y-113261696D01*
X150875304Y-113260146D01*
X150988342Y-113202550D01*
X151078050Y-113112842D01*
X151135646Y-112999804D01*
X151155492Y-112874500D01*
X151153941Y-112864707D01*
X151137197Y-112758987D01*
X151137196Y-112758985D01*
X151135646Y-112749196D01*
X151078050Y-112636158D01*
X150988342Y-112546450D01*
X150875304Y-112488854D01*
X150865515Y-112487304D01*
X150865513Y-112487303D01*
X150759793Y-112470559D01*
X150750000Y-112469008D01*
X150740207Y-112470559D01*
X150634487Y-112487303D01*
X150634485Y-112487304D01*
X150624696Y-112488854D01*
X150511658Y-112546450D01*
X150421950Y-112636158D01*
X150364354Y-112749196D01*
X150362804Y-112758985D01*
X150362803Y-112758987D01*
X150346059Y-112864707D01*
X150344508Y-112874500D01*
X143375470Y-112874500D01*
X143422230Y-112840526D01*
X143495649Y-112758987D01*
X143537440Y-112712573D01*
X143537441Y-112712572D01*
X143541859Y-112707665D01*
X143631250Y-112552835D01*
X143686497Y-112382803D01*
X143697127Y-112281671D01*
X143704495Y-112211565D01*
X143705185Y-112205000D01*
X143697919Y-112135873D01*
X143687187Y-112033761D01*
X143687187Y-112033760D01*
X143686497Y-112027197D01*
X143631250Y-111857165D01*
X143541859Y-111702335D01*
X143478617Y-111632098D01*
X143447900Y-111568090D01*
X143456663Y-111497637D01*
X143482054Y-111466532D01*
X143479937Y-111464840D01*
X143499623Y-111440212D01*
X143492554Y-111426764D01*
X142579885Y-110514095D01*
X142545859Y-110451783D01*
X142547694Y-110426132D01*
X143214408Y-110426132D01*
X143214539Y-110427965D01*
X143218790Y-110434580D01*
X143852486Y-111068276D01*
X143864261Y-111074706D01*
X143876276Y-111065410D01*
X143897001Y-111035811D01*
X143902479Y-111026323D01*
X143987159Y-110844723D01*
X143990907Y-110834429D01*
X144042769Y-110640878D01*
X144044671Y-110630091D01*
X144062135Y-110430475D01*
X144062135Y-110419525D01*
X144047304Y-110250000D01*
X151594508Y-110250000D01*
X151596059Y-110259793D01*
X151610082Y-110348329D01*
X151614354Y-110375304D01*
X151671950Y-110488342D01*
X151761658Y-110578050D01*
X151874696Y-110635646D01*
X151884485Y-110637196D01*
X151884487Y-110637197D01*
X151990207Y-110653941D01*
X152000000Y-110655492D01*
X152009793Y-110653941D01*
X152115513Y-110637197D01*
X152115515Y-110637196D01*
X152125304Y-110635646D01*
X152238342Y-110578050D01*
X152316392Y-110500000D01*
X156919953Y-110500000D01*
X156938092Y-110672576D01*
X156991714Y-110837611D01*
X157078478Y-110987889D01*
X157194590Y-111116845D01*
X157334976Y-111218842D01*
X157341004Y-111221526D01*
X157341006Y-111221527D01*
X157487470Y-111286737D01*
X157493501Y-111289422D01*
X157578368Y-111307461D01*
X157656779Y-111324128D01*
X157656783Y-111324128D01*
X157663236Y-111325500D01*
X157836764Y-111325500D01*
X157843217Y-111324128D01*
X157843221Y-111324128D01*
X157921631Y-111307461D01*
X158006499Y-111289422D01*
X158012530Y-111286737D01*
X158158994Y-111221527D01*
X158158996Y-111221526D01*
X158165024Y-111218842D01*
X158305410Y-111116845D01*
X158421522Y-110987889D01*
X158508286Y-110837611D01*
X158561908Y-110672576D01*
X158580047Y-110500000D01*
X158579218Y-110492108D01*
X158567536Y-110380968D01*
X158561908Y-110327424D01*
X158549431Y-110289021D01*
X158516310Y-110187085D01*
X158508286Y-110162389D01*
X158421522Y-110012111D01*
X158305410Y-109883155D01*
X158165024Y-109781158D01*
X158158996Y-109778474D01*
X158158994Y-109778473D01*
X158012530Y-109713263D01*
X158012529Y-109713263D01*
X158006499Y-109710578D01*
X157921631Y-109692539D01*
X157843221Y-109675872D01*
X157843217Y-109675872D01*
X157836764Y-109674500D01*
X157663236Y-109674500D01*
X157656783Y-109675872D01*
X157656779Y-109675872D01*
X157578369Y-109692539D01*
X157493501Y-109710578D01*
X157487472Y-109713262D01*
X157487470Y-109713263D01*
X157341007Y-109778473D01*
X157341005Y-109778474D01*
X157334977Y-109781158D01*
X157329636Y-109785038D01*
X157329635Y-109785039D01*
X157276455Y-109823677D01*
X157194590Y-109883155D01*
X157078478Y-110012111D01*
X156991714Y-110162389D01*
X156983690Y-110187085D01*
X156950570Y-110289021D01*
X156938092Y-110327424D01*
X156932464Y-110380968D01*
X156920783Y-110492108D01*
X156919953Y-110500000D01*
X152316392Y-110500000D01*
X152328050Y-110488342D01*
X152385646Y-110375304D01*
X152389919Y-110348329D01*
X152403941Y-110259793D01*
X152405492Y-110250000D01*
X152399018Y-110209122D01*
X152387197Y-110134487D01*
X152387196Y-110134485D01*
X152385646Y-110124696D01*
X152328050Y-110011658D01*
X152238342Y-109921950D01*
X152125304Y-109864354D01*
X152115515Y-109862804D01*
X152115513Y-109862803D01*
X152009793Y-109846059D01*
X152000000Y-109844508D01*
X151990207Y-109846059D01*
X151884487Y-109862803D01*
X151884485Y-109862804D01*
X151874696Y-109864354D01*
X151761658Y-109921950D01*
X151671950Y-110011658D01*
X151614354Y-110124696D01*
X151612804Y-110134485D01*
X151612803Y-110134487D01*
X151600982Y-110209122D01*
X151594508Y-110250000D01*
X144047304Y-110250000D01*
X144044671Y-110219909D01*
X144042769Y-110209122D01*
X143990907Y-110015571D01*
X143987159Y-110005277D01*
X143902479Y-109823677D01*
X143897001Y-109814189D01*
X143875689Y-109783752D01*
X143865212Y-109775377D01*
X143851764Y-109782446D01*
X143222022Y-110412188D01*
X143214408Y-110426132D01*
X142547694Y-110426132D01*
X142550924Y-110380968D01*
X142579885Y-110335905D01*
X143365790Y-109550000D01*
X146844508Y-109550000D01*
X146846059Y-109559793D01*
X146851721Y-109595539D01*
X146864354Y-109675304D01*
X146921950Y-109788342D01*
X147011658Y-109878050D01*
X147124696Y-109935646D01*
X147134485Y-109937196D01*
X147134487Y-109937197D01*
X147240207Y-109953941D01*
X147250000Y-109955492D01*
X147259793Y-109953941D01*
X147365513Y-109937197D01*
X147365515Y-109937196D01*
X147375304Y-109935646D01*
X147488342Y-109878050D01*
X147578050Y-109788342D01*
X147635646Y-109675304D01*
X147648280Y-109595539D01*
X147653941Y-109559793D01*
X147655492Y-109550000D01*
X147653116Y-109535000D01*
X147637197Y-109434487D01*
X147637196Y-109434485D01*
X147635646Y-109424696D01*
X147578050Y-109311658D01*
X147540892Y-109274500D01*
X154844508Y-109274500D01*
X154846059Y-109284293D01*
X154852586Y-109325500D01*
X154864354Y-109399804D01*
X154921950Y-109512842D01*
X155011658Y-109602550D01*
X155124696Y-109660146D01*
X155134485Y-109661696D01*
X155134487Y-109661697D01*
X155240207Y-109678441D01*
X155250000Y-109679992D01*
X155259793Y-109678441D01*
X155365513Y-109661697D01*
X155365515Y-109661696D01*
X155375304Y-109660146D01*
X155488342Y-109602550D01*
X155578050Y-109512842D01*
X155635646Y-109399804D01*
X155647415Y-109325500D01*
X155653941Y-109284293D01*
X155655492Y-109274500D01*
X155653941Y-109264707D01*
X155637197Y-109158987D01*
X155637196Y-109158985D01*
X155635646Y-109149196D01*
X155578050Y-109036158D01*
X155488342Y-108946450D01*
X155375304Y-108888854D01*
X155365515Y-108887304D01*
X155365513Y-108887303D01*
X155259793Y-108870559D01*
X155250000Y-108869008D01*
X155240207Y-108870559D01*
X155134487Y-108887303D01*
X155134485Y-108887304D01*
X155124696Y-108888854D01*
X155011658Y-108946450D01*
X154921950Y-109036158D01*
X154864354Y-109149196D01*
X154862804Y-109158985D01*
X154862803Y-109158987D01*
X154846059Y-109264707D01*
X154844508Y-109274500D01*
X147540892Y-109274500D01*
X147488342Y-109221950D01*
X147375304Y-109164354D01*
X147365515Y-109162804D01*
X147365513Y-109162803D01*
X147259793Y-109146059D01*
X147250000Y-109144508D01*
X147240207Y-109146059D01*
X147134487Y-109162803D01*
X147134485Y-109162804D01*
X147124696Y-109164354D01*
X147011658Y-109221950D01*
X146921950Y-109311658D01*
X146864354Y-109424696D01*
X146862804Y-109434485D01*
X146862803Y-109434487D01*
X146846884Y-109535000D01*
X146844508Y-109550000D01*
X143365790Y-109550000D01*
X143493276Y-109422514D01*
X143499706Y-109410739D01*
X143478701Y-109383589D01*
X143481065Y-109381760D01*
X143455651Y-109349962D01*
X143448346Y-109279342D01*
X143478617Y-109217902D01*
X143537440Y-109152573D01*
X143537441Y-109152572D01*
X143541859Y-109147665D01*
X143605142Y-109038056D01*
X143627946Y-108998558D01*
X143627947Y-108998557D01*
X143631250Y-108992835D01*
X143666965Y-108882915D01*
X143684457Y-108829082D01*
X143684457Y-108829080D01*
X143686497Y-108822803D01*
X143697127Y-108721671D01*
X143704495Y-108651565D01*
X143705185Y-108645000D01*
X143697919Y-108575873D01*
X143689945Y-108500000D01*
X153844508Y-108500000D01*
X153846059Y-108509793D01*
X153849243Y-108529893D01*
X153864354Y-108625304D01*
X153921950Y-108738342D01*
X154011658Y-108828050D01*
X154124696Y-108885646D01*
X154134485Y-108887196D01*
X154134487Y-108887197D01*
X154240207Y-108903941D01*
X154250000Y-108905492D01*
X154259793Y-108903941D01*
X154365513Y-108887197D01*
X154365515Y-108887196D01*
X154375304Y-108885646D01*
X154488342Y-108828050D01*
X154578050Y-108738342D01*
X154635646Y-108625304D01*
X154650758Y-108529893D01*
X154653941Y-108509793D01*
X154655492Y-108500000D01*
X156919953Y-108500000D01*
X156938092Y-108672576D01*
X156940132Y-108678855D01*
X156940133Y-108678859D01*
X156956590Y-108729509D01*
X156991714Y-108837611D01*
X157078478Y-108987889D01*
X157194590Y-109116845D01*
X157334976Y-109218842D01*
X157341004Y-109221526D01*
X157341006Y-109221527D01*
X157470861Y-109279342D01*
X157493501Y-109289422D01*
X157565130Y-109304647D01*
X157656779Y-109324128D01*
X157656783Y-109324128D01*
X157663236Y-109325500D01*
X157836764Y-109325500D01*
X157843217Y-109324128D01*
X157843221Y-109324128D01*
X157934870Y-109304647D01*
X158006499Y-109289422D01*
X158029139Y-109279342D01*
X158158994Y-109221527D01*
X158158996Y-109221526D01*
X158165024Y-109218842D01*
X158305410Y-109116845D01*
X158421522Y-108987889D01*
X158508286Y-108837611D01*
X158543410Y-108729509D01*
X158559867Y-108678859D01*
X158559868Y-108678855D01*
X158561908Y-108672576D01*
X158580047Y-108500000D01*
X158561908Y-108327424D01*
X158552077Y-108297165D01*
X158535807Y-108247092D01*
X158508286Y-108162389D01*
X158421522Y-108012111D01*
X158305410Y-107883155D01*
X158165024Y-107781158D01*
X158158996Y-107778474D01*
X158158994Y-107778473D01*
X158012530Y-107713263D01*
X158012529Y-107713263D01*
X158006499Y-107710578D01*
X157921631Y-107692539D01*
X157843221Y-107675872D01*
X157843217Y-107675872D01*
X157836764Y-107674500D01*
X157663236Y-107674500D01*
X157656783Y-107675872D01*
X157656779Y-107675872D01*
X157578369Y-107692539D01*
X157493501Y-107710578D01*
X157487472Y-107713262D01*
X157487470Y-107713263D01*
X157341007Y-107778473D01*
X157341005Y-107778474D01*
X157334977Y-107781158D01*
X157329636Y-107785038D01*
X157329635Y-107785039D01*
X157265452Y-107831671D01*
X157194590Y-107883155D01*
X157078478Y-108012111D01*
X156991714Y-108162389D01*
X156964193Y-108247092D01*
X156947924Y-108297165D01*
X156938092Y-108327424D01*
X156919953Y-108500000D01*
X154655492Y-108500000D01*
X154635646Y-108374696D01*
X154578050Y-108261658D01*
X154488342Y-108171950D01*
X154375304Y-108114354D01*
X154365515Y-108112804D01*
X154365513Y-108112803D01*
X154259793Y-108096059D01*
X154250000Y-108094508D01*
X154240207Y-108096059D01*
X154134487Y-108112803D01*
X154134485Y-108112804D01*
X154124696Y-108114354D01*
X154011658Y-108171950D01*
X153921950Y-108261658D01*
X153864354Y-108374696D01*
X153844508Y-108500000D01*
X143689945Y-108500000D01*
X143687187Y-108473761D01*
X143687187Y-108473760D01*
X143686497Y-108467197D01*
X143631250Y-108297165D01*
X143541859Y-108142335D01*
X143537440Y-108137427D01*
X143426645Y-108014377D01*
X143426643Y-108014376D01*
X143422230Y-108009474D01*
X143325345Y-107939082D01*
X143282935Y-107908269D01*
X143282933Y-107908268D01*
X143277593Y-107904388D01*
X143271567Y-107901705D01*
X143271560Y-107901701D01*
X143200597Y-107870107D01*
X143146501Y-107824127D01*
X143125851Y-107756200D01*
X143145203Y-107687892D01*
X143200597Y-107639893D01*
X143271560Y-107608299D01*
X143271567Y-107608295D01*
X143277593Y-107605612D01*
X143316703Y-107577197D01*
X143416891Y-107504405D01*
X143422230Y-107500526D01*
X143422704Y-107500000D01*
X153094508Y-107500000D01*
X153096059Y-107509793D01*
X153111661Y-107608299D01*
X153114354Y-107625304D01*
X153171950Y-107738342D01*
X153261658Y-107828050D01*
X153374696Y-107885646D01*
X153384485Y-107887196D01*
X153384487Y-107887197D01*
X153490207Y-107903941D01*
X153500000Y-107905492D01*
X153509793Y-107903941D01*
X153615513Y-107887197D01*
X153615515Y-107887196D01*
X153625304Y-107885646D01*
X153738342Y-107828050D01*
X153828050Y-107738342D01*
X153885646Y-107625304D01*
X153888340Y-107608299D01*
X153903941Y-107509793D01*
X153905492Y-107500000D01*
X153885646Y-107374696D01*
X153828050Y-107261658D01*
X153738342Y-107171950D01*
X153625304Y-107114354D01*
X153615515Y-107112804D01*
X153615513Y-107112803D01*
X153509793Y-107096059D01*
X153500000Y-107094508D01*
X153490207Y-107096059D01*
X153384487Y-107112803D01*
X153384485Y-107112804D01*
X153374696Y-107114354D01*
X153261658Y-107171950D01*
X153171950Y-107261658D01*
X153114354Y-107374696D01*
X153094508Y-107500000D01*
X143422704Y-107500000D01*
X143427834Y-107494303D01*
X143537440Y-107372573D01*
X143537441Y-107372572D01*
X143541859Y-107367665D01*
X143631250Y-107212835D01*
X143686497Y-107042803D01*
X143697127Y-106941671D01*
X143704495Y-106871565D01*
X143705185Y-106865000D01*
X143701033Y-106825500D01*
X143687187Y-106693761D01*
X143687187Y-106693760D01*
X143686497Y-106687197D01*
X143631250Y-106517165D01*
X143621340Y-106500000D01*
X149594508Y-106500000D01*
X149614354Y-106625304D01*
X149671950Y-106738342D01*
X149761658Y-106828050D01*
X149874696Y-106885646D01*
X149884485Y-106887196D01*
X149884487Y-106887197D01*
X149990207Y-106903941D01*
X150000000Y-106905492D01*
X150009793Y-106903941D01*
X150115513Y-106887197D01*
X150115515Y-106887196D01*
X150125304Y-106885646D01*
X150238342Y-106828050D01*
X150328050Y-106738342D01*
X150385646Y-106625304D01*
X150405492Y-106500000D01*
X156919953Y-106500000D01*
X156938092Y-106672576D01*
X156940132Y-106678855D01*
X156940133Y-106678859D01*
X156944975Y-106693761D01*
X156991714Y-106837611D01*
X157078478Y-106987889D01*
X157194590Y-107116845D01*
X157270435Y-107171950D01*
X157318058Y-107206550D01*
X157334976Y-107218842D01*
X157341004Y-107221526D01*
X157341006Y-107221527D01*
X157431142Y-107261658D01*
X157493501Y-107289422D01*
X157578369Y-107307461D01*
X157656779Y-107324128D01*
X157656783Y-107324128D01*
X157663236Y-107325500D01*
X157836764Y-107325500D01*
X157843217Y-107324128D01*
X157843221Y-107324128D01*
X157921632Y-107307461D01*
X158006499Y-107289422D01*
X158068858Y-107261658D01*
X158158994Y-107221527D01*
X158158996Y-107221526D01*
X158165024Y-107218842D01*
X158181943Y-107206550D01*
X158229565Y-107171950D01*
X158305410Y-107116845D01*
X158421522Y-106987889D01*
X158508286Y-106837611D01*
X158555025Y-106693761D01*
X158559867Y-106678859D01*
X158559868Y-106678855D01*
X158561908Y-106672576D01*
X158580047Y-106500000D01*
X158561908Y-106327424D01*
X158508286Y-106162389D01*
X158421522Y-106012111D01*
X158382196Y-105968435D01*
X158309832Y-105888066D01*
X158309831Y-105888065D01*
X158305410Y-105883155D01*
X158187100Y-105797197D01*
X158170366Y-105785039D01*
X158170365Y-105785038D01*
X158165024Y-105781158D01*
X158158996Y-105778474D01*
X158158994Y-105778473D01*
X158012530Y-105713263D01*
X158012529Y-105713263D01*
X158006499Y-105710578D01*
X157921632Y-105692539D01*
X157843221Y-105675872D01*
X157843217Y-105675872D01*
X157836764Y-105674500D01*
X157663236Y-105674500D01*
X157656783Y-105675872D01*
X157656779Y-105675872D01*
X157578368Y-105692539D01*
X157493501Y-105710578D01*
X157487472Y-105713262D01*
X157487470Y-105713263D01*
X157341007Y-105778473D01*
X157341005Y-105778474D01*
X157334977Y-105781158D01*
X157329636Y-105785038D01*
X157329635Y-105785039D01*
X157303867Y-105803761D01*
X157194590Y-105883155D01*
X157190169Y-105888065D01*
X157190168Y-105888066D01*
X157117804Y-105968435D01*
X157078478Y-106012111D01*
X156991714Y-106162389D01*
X156938092Y-106327424D01*
X156919953Y-106500000D01*
X150405492Y-106500000D01*
X150385646Y-106374696D01*
X150328050Y-106261658D01*
X150238342Y-106171950D01*
X150125304Y-106114354D01*
X150115515Y-106112804D01*
X150115513Y-106112803D01*
X150009793Y-106096059D01*
X150000000Y-106094508D01*
X149990207Y-106096059D01*
X149884487Y-106112803D01*
X149884485Y-106112804D01*
X149874696Y-106114354D01*
X149761658Y-106171950D01*
X149671950Y-106261658D01*
X149614354Y-106374696D01*
X149594508Y-106500000D01*
X143621340Y-106500000D01*
X143617550Y-106493435D01*
X143545162Y-106368056D01*
X143541859Y-106362335D01*
X143422230Y-106229474D01*
X143336862Y-106167450D01*
X143282935Y-106128269D01*
X143282933Y-106128268D01*
X143277593Y-106124388D01*
X143271567Y-106121705D01*
X143271560Y-106121701D01*
X143200597Y-106090107D01*
X143146501Y-106044127D01*
X143125851Y-105976200D01*
X143145203Y-105907892D01*
X143200597Y-105859893D01*
X143271560Y-105828299D01*
X143271567Y-105828295D01*
X143277593Y-105825612D01*
X143316703Y-105797197D01*
X143416891Y-105724405D01*
X143422230Y-105720526D01*
X143427834Y-105714303D01*
X143537440Y-105592573D01*
X143537441Y-105592572D01*
X143541859Y-105587665D01*
X143618169Y-105455492D01*
X143627946Y-105438558D01*
X143627947Y-105438557D01*
X143631250Y-105432835D01*
X143686497Y-105262803D01*
X143691526Y-105214961D01*
X143704495Y-105091565D01*
X143705185Y-105085000D01*
X143697919Y-105015873D01*
X143687187Y-104913761D01*
X143687187Y-104913760D01*
X143686497Y-104907197D01*
X143631250Y-104737165D01*
X143626514Y-104728961D01*
X143545162Y-104588056D01*
X143541859Y-104582335D01*
X143467724Y-104500000D01*
X156919953Y-104500000D01*
X156938092Y-104672576D01*
X156940132Y-104678855D01*
X156940133Y-104678859D01*
X156947838Y-104702573D01*
X156991714Y-104837611D01*
X157078478Y-104987889D01*
X157194590Y-105116845D01*
X157275051Y-105175304D01*
X157309190Y-105200107D01*
X157334976Y-105218842D01*
X157341004Y-105221526D01*
X157341006Y-105221527D01*
X157471236Y-105279509D01*
X157493501Y-105289422D01*
X157578368Y-105307461D01*
X157656779Y-105324128D01*
X157656783Y-105324128D01*
X157663236Y-105325500D01*
X157836764Y-105325500D01*
X157843217Y-105324128D01*
X157843221Y-105324128D01*
X157921632Y-105307461D01*
X158006499Y-105289422D01*
X158028764Y-105279509D01*
X158158994Y-105221527D01*
X158158996Y-105221526D01*
X158165024Y-105218842D01*
X158190811Y-105200107D01*
X158224949Y-105175304D01*
X158305410Y-105116845D01*
X158421522Y-104987889D01*
X158508286Y-104837611D01*
X158552162Y-104702573D01*
X158559867Y-104678859D01*
X158559868Y-104678855D01*
X158561908Y-104672576D01*
X158580047Y-104500000D01*
X158561908Y-104327424D01*
X158556282Y-104310107D01*
X158521015Y-104201565D01*
X158508286Y-104162389D01*
X158421522Y-104012111D01*
X158305410Y-103883155D01*
X158193633Y-103801944D01*
X158170366Y-103785039D01*
X158170365Y-103785038D01*
X158165024Y-103781158D01*
X158158996Y-103778474D01*
X158158994Y-103778473D01*
X158012530Y-103713263D01*
X158012529Y-103713263D01*
X158006499Y-103710578D01*
X157920672Y-103692335D01*
X157843221Y-103675872D01*
X157843217Y-103675872D01*
X157836764Y-103674500D01*
X157663236Y-103674500D01*
X157656783Y-103675872D01*
X157656779Y-103675872D01*
X157579328Y-103692335D01*
X157493501Y-103710578D01*
X157487472Y-103713262D01*
X157487470Y-103713263D01*
X157341007Y-103778473D01*
X157341005Y-103778474D01*
X157334977Y-103781158D01*
X157329636Y-103785038D01*
X157329635Y-103785039D01*
X157239806Y-103850304D01*
X157194590Y-103883155D01*
X157078478Y-104012111D01*
X156991714Y-104162389D01*
X156978985Y-104201565D01*
X156943719Y-104310107D01*
X156938092Y-104327424D01*
X156919953Y-104500000D01*
X143467724Y-104500000D01*
X143422230Y-104449474D01*
X143325345Y-104379082D01*
X143282935Y-104348269D01*
X143282933Y-104348268D01*
X143277593Y-104344388D01*
X143271567Y-104341705D01*
X143271560Y-104341701D01*
X143200597Y-104310107D01*
X143146501Y-104264127D01*
X143125851Y-104196200D01*
X143145203Y-104127892D01*
X143200597Y-104079893D01*
X143271560Y-104048299D01*
X143271567Y-104048295D01*
X143277593Y-104045612D01*
X143305545Y-104025304D01*
X143416891Y-103944405D01*
X143422230Y-103940526D01*
X143427834Y-103934303D01*
X143537440Y-103812573D01*
X143537441Y-103812572D01*
X143541859Y-103807665D01*
X143589586Y-103725000D01*
X148744508Y-103725000D01*
X148746059Y-103734793D01*
X148756695Y-103801944D01*
X148764354Y-103850304D01*
X148821950Y-103963342D01*
X148911658Y-104053050D01*
X149024696Y-104110646D01*
X149034485Y-104112196D01*
X149034487Y-104112197D01*
X149140207Y-104128941D01*
X149150000Y-104130492D01*
X149159793Y-104128941D01*
X149265513Y-104112197D01*
X149265515Y-104112196D01*
X149275304Y-104110646D01*
X149388342Y-104053050D01*
X149478050Y-103963342D01*
X149510325Y-103900000D01*
X150144508Y-103900000D01*
X150146059Y-103909793D01*
X150162076Y-104010918D01*
X150164354Y-104025304D01*
X150221950Y-104138342D01*
X150311658Y-104228050D01*
X150424696Y-104285646D01*
X150434485Y-104287196D01*
X150434487Y-104287197D01*
X150540207Y-104303941D01*
X150550000Y-104305492D01*
X150559793Y-104303941D01*
X150665513Y-104287197D01*
X150665515Y-104287196D01*
X150675304Y-104285646D01*
X150788342Y-104228050D01*
X150878050Y-104138342D01*
X150935646Y-104025304D01*
X150937925Y-104010918D01*
X150953941Y-103909793D01*
X150955492Y-103900000D01*
X150947124Y-103847165D01*
X150937197Y-103784487D01*
X150937196Y-103784485D01*
X150935646Y-103774696D01*
X150878050Y-103661658D01*
X150788342Y-103571950D01*
X150675304Y-103514354D01*
X150665515Y-103512804D01*
X150665513Y-103512803D01*
X150559793Y-103496059D01*
X150550000Y-103494508D01*
X150540207Y-103496059D01*
X150434487Y-103512803D01*
X150434485Y-103512804D01*
X150424696Y-103514354D01*
X150311658Y-103571950D01*
X150221950Y-103661658D01*
X150164354Y-103774696D01*
X150162804Y-103784485D01*
X150162803Y-103784487D01*
X150152876Y-103847165D01*
X150144508Y-103900000D01*
X149510325Y-103900000D01*
X149535646Y-103850304D01*
X149543306Y-103801944D01*
X149553941Y-103734793D01*
X149555492Y-103725000D01*
X149551225Y-103698056D01*
X149537197Y-103609487D01*
X149537196Y-103609485D01*
X149535646Y-103599696D01*
X149478050Y-103486658D01*
X149388342Y-103396950D01*
X149275304Y-103339354D01*
X149265515Y-103337804D01*
X149265513Y-103337803D01*
X149159793Y-103321059D01*
X149150000Y-103319508D01*
X149140207Y-103321059D01*
X149034487Y-103337803D01*
X149034485Y-103337804D01*
X149024696Y-103339354D01*
X148911658Y-103396950D01*
X148821950Y-103486658D01*
X148764354Y-103599696D01*
X148762804Y-103609485D01*
X148762803Y-103609487D01*
X148748775Y-103698056D01*
X148744508Y-103725000D01*
X143589586Y-103725000D01*
X143631250Y-103652835D01*
X143674783Y-103518855D01*
X143684457Y-103489082D01*
X143684457Y-103489080D01*
X143686497Y-103482803D01*
X143697127Y-103381671D01*
X143704495Y-103311565D01*
X143705185Y-103305000D01*
X143697919Y-103235873D01*
X143687187Y-103133761D01*
X143687187Y-103133760D01*
X143686497Y-103127197D01*
X143683134Y-103116845D01*
X143633292Y-102963450D01*
X143631250Y-102957165D01*
X143541859Y-102802335D01*
X143478617Y-102732098D01*
X143447900Y-102668090D01*
X143456663Y-102597637D01*
X143482054Y-102566532D01*
X143479937Y-102564840D01*
X143499623Y-102540212D01*
X143492554Y-102526764D01*
X142579885Y-101614095D01*
X142545859Y-101551783D01*
X142547694Y-101526132D01*
X143214408Y-101526132D01*
X143214539Y-101527965D01*
X143218790Y-101534580D01*
X143852486Y-102168276D01*
X143864261Y-102174706D01*
X143876276Y-102165410D01*
X143897001Y-102135811D01*
X143902479Y-102126323D01*
X143961383Y-102000000D01*
X145594508Y-102000000D01*
X145614354Y-102125304D01*
X145671950Y-102238342D01*
X145761658Y-102328050D01*
X145874696Y-102385646D01*
X145884485Y-102387196D01*
X145884487Y-102387197D01*
X145990207Y-102403941D01*
X146000000Y-102405492D01*
X146009793Y-102403941D01*
X146115513Y-102387197D01*
X146115515Y-102387196D01*
X146125304Y-102385646D01*
X146238342Y-102328050D01*
X146328050Y-102238342D01*
X146385646Y-102125304D01*
X146405492Y-102000000D01*
X146395107Y-101934429D01*
X146387197Y-101884487D01*
X146387196Y-101884485D01*
X146385646Y-101874696D01*
X146328050Y-101761658D01*
X146238342Y-101671950D01*
X146125304Y-101614354D01*
X146115515Y-101612804D01*
X146115513Y-101612803D01*
X146009793Y-101596059D01*
X146000000Y-101594508D01*
X145990207Y-101596059D01*
X145884487Y-101612803D01*
X145884485Y-101612804D01*
X145874696Y-101614354D01*
X145761658Y-101671950D01*
X145671950Y-101761658D01*
X145614354Y-101874696D01*
X145612804Y-101884485D01*
X145612803Y-101884487D01*
X145604893Y-101934429D01*
X145594508Y-102000000D01*
X143961383Y-102000000D01*
X143987159Y-101944723D01*
X143990907Y-101934429D01*
X144042769Y-101740878D01*
X144044671Y-101730091D01*
X144062135Y-101530475D01*
X144062135Y-101519525D01*
X144044671Y-101319909D01*
X144042769Y-101309122D01*
X144018800Y-101219669D01*
X156567001Y-101219669D01*
X156567371Y-101226490D01*
X156572895Y-101277352D01*
X156576521Y-101292604D01*
X156621676Y-101413054D01*
X156630214Y-101428649D01*
X156706715Y-101530724D01*
X156719276Y-101543285D01*
X156821351Y-101619786D01*
X156836946Y-101628324D01*
X156957394Y-101673478D01*
X156972649Y-101677105D01*
X157023514Y-101682631D01*
X157030328Y-101683000D01*
X157091810Y-101683000D01*
X157159931Y-101703002D01*
X157206424Y-101756658D01*
X157216528Y-101826932D01*
X157185448Y-101893309D01*
X157078478Y-102012111D01*
X156991714Y-102162389D01*
X156989674Y-102168669D01*
X156940167Y-102321039D01*
X156938092Y-102327424D01*
X156919953Y-102500000D01*
X156938092Y-102672576D01*
X156991714Y-102837611D01*
X157078478Y-102987889D01*
X157194590Y-103116845D01*
X157334976Y-103218842D01*
X157341004Y-103221526D01*
X157341006Y-103221527D01*
X157439771Y-103265500D01*
X157493501Y-103289422D01*
X157572436Y-103306200D01*
X157656779Y-103324128D01*
X157656783Y-103324128D01*
X157663236Y-103325500D01*
X157836764Y-103325500D01*
X157843217Y-103324128D01*
X157843221Y-103324128D01*
X157927564Y-103306200D01*
X158006499Y-103289422D01*
X158060229Y-103265500D01*
X158158994Y-103221527D01*
X158158996Y-103221526D01*
X158165024Y-103218842D01*
X158305410Y-103116845D01*
X158421522Y-102987889D01*
X158508286Y-102837611D01*
X158561908Y-102672576D01*
X158580047Y-102500000D01*
X158561908Y-102327424D01*
X158559834Y-102321039D01*
X158510326Y-102168669D01*
X158508286Y-102162389D01*
X158421522Y-102012111D01*
X158314551Y-101893307D01*
X158283835Y-101829301D01*
X158292600Y-101758848D01*
X158338063Y-101704317D01*
X158408189Y-101682999D01*
X158469669Y-101682999D01*
X158476490Y-101682629D01*
X158527352Y-101677105D01*
X158542604Y-101673479D01*
X158663054Y-101628324D01*
X158678649Y-101619786D01*
X158780724Y-101543285D01*
X158793285Y-101530724D01*
X158869786Y-101428649D01*
X158878324Y-101413054D01*
X158923478Y-101292606D01*
X158927105Y-101277351D01*
X158932631Y-101226486D01*
X158933000Y-101219672D01*
X158933000Y-100772115D01*
X158928525Y-100756876D01*
X158927135Y-100755671D01*
X158919452Y-100754000D01*
X156585116Y-100754000D01*
X156569877Y-100758475D01*
X156568672Y-100759865D01*
X156567001Y-100767548D01*
X156567001Y-101219669D01*
X144018800Y-101219669D01*
X143990907Y-101115571D01*
X143987159Y-101105277D01*
X143902479Y-100923677D01*
X143897001Y-100914189D01*
X143875689Y-100883752D01*
X143865212Y-100875377D01*
X143851764Y-100882446D01*
X143222022Y-101512188D01*
X143214408Y-101526132D01*
X142547694Y-101526132D01*
X142550924Y-101480968D01*
X142579885Y-101435905D01*
X143493276Y-100522514D01*
X143499706Y-100510739D01*
X143490410Y-100498724D01*
X143460811Y-100477999D01*
X143451323Y-100472521D01*
X143269723Y-100387841D01*
X143259429Y-100384093D01*
X143065878Y-100332231D01*
X143055091Y-100330329D01*
X142855475Y-100312865D01*
X142844525Y-100312865D01*
X142644909Y-100330329D01*
X142634122Y-100332231D01*
X142440571Y-100384093D01*
X142430277Y-100387841D01*
X142279749Y-100458032D01*
X142209558Y-100468693D01*
X142144745Y-100439713D01*
X142105889Y-100380293D01*
X142100500Y-100343837D01*
X142100500Y-100227885D01*
X156567000Y-100227885D01*
X156571475Y-100243124D01*
X156572865Y-100244329D01*
X156580548Y-100246000D01*
X157477885Y-100246000D01*
X157493124Y-100241525D01*
X157494329Y-100240135D01*
X157496000Y-100232452D01*
X157496000Y-100227885D01*
X158004000Y-100227885D01*
X158008475Y-100243124D01*
X158009865Y-100244329D01*
X158017548Y-100246000D01*
X158914884Y-100246000D01*
X158930123Y-100241525D01*
X158931328Y-100240135D01*
X158932999Y-100232452D01*
X158932999Y-99780331D01*
X158932629Y-99773510D01*
X158927105Y-99722648D01*
X158923479Y-99707396D01*
X158878324Y-99586946D01*
X158869786Y-99571351D01*
X158793285Y-99469276D01*
X158780724Y-99456715D01*
X158678649Y-99380214D01*
X158663054Y-99371676D01*
X158542606Y-99326522D01*
X158527351Y-99322895D01*
X158476486Y-99317369D01*
X158469672Y-99317000D01*
X158022115Y-99317000D01*
X158006876Y-99321475D01*
X158005671Y-99322865D01*
X158004000Y-99330548D01*
X158004000Y-100227885D01*
X157496000Y-100227885D01*
X157496000Y-99335116D01*
X157491525Y-99319877D01*
X157490135Y-99318672D01*
X157482452Y-99317001D01*
X157030331Y-99317001D01*
X157023510Y-99317371D01*
X156972648Y-99322895D01*
X156957396Y-99326521D01*
X156836946Y-99371676D01*
X156821351Y-99380214D01*
X156719276Y-99456715D01*
X156706715Y-99469276D01*
X156630214Y-99571351D01*
X156621676Y-99586946D01*
X156576522Y-99707394D01*
X156572895Y-99722649D01*
X156567369Y-99773514D01*
X156567000Y-99780328D01*
X156567000Y-100227885D01*
X142100500Y-100227885D01*
X142100500Y-99557374D01*
X142101065Y-99545817D01*
X142104246Y-99534832D01*
X142100970Y-99497006D01*
X142100500Y-99486134D01*
X142100500Y-99477052D01*
X142099276Y-99470479D01*
X142097616Y-99458280D01*
X142095591Y-99434895D01*
X142095591Y-99434894D01*
X142094587Y-99423304D01*
X142089480Y-99412855D01*
X142088568Y-99409567D01*
X142087339Y-99406383D01*
X142085209Y-99394947D01*
X142066779Y-99365048D01*
X142060840Y-99354266D01*
X142050533Y-99333181D01*
X142045425Y-99322731D01*
X142036899Y-99314822D01*
X142034866Y-99312084D01*
X142032572Y-99309554D01*
X142026468Y-99299652D01*
X142017212Y-99292613D01*
X142017207Y-99292608D01*
X141998513Y-99278393D01*
X141989092Y-99270474D01*
X141971882Y-99254510D01*
X141971883Y-99254510D01*
X141963354Y-99246599D01*
X141952553Y-99242290D01*
X141949676Y-99240471D01*
X141946619Y-99238934D01*
X141937359Y-99231892D01*
X141903632Y-99222126D01*
X141891992Y-99218129D01*
X141859378Y-99205117D01*
X141853085Y-99204500D01*
X141850003Y-99204500D01*
X141846933Y-99204350D01*
X141846939Y-99204234D01*
X141840817Y-99203935D01*
X141829832Y-99200754D01*
X141792006Y-99204030D01*
X141781134Y-99204500D01*
X133252374Y-99204500D01*
X133240817Y-99203935D01*
X133229832Y-99200754D01*
X133192006Y-99204030D01*
X133181134Y-99204500D01*
X133172052Y-99204500D01*
X133166351Y-99205562D01*
X133166349Y-99205562D01*
X133165479Y-99205724D01*
X133153280Y-99207384D01*
X133129895Y-99209409D01*
X133129894Y-99209409D01*
X133118304Y-99210413D01*
X133107855Y-99215520D01*
X133104567Y-99216432D01*
X133101383Y-99217661D01*
X133089947Y-99219791D01*
X133070316Y-99231892D01*
X133060048Y-99238221D01*
X133049265Y-99244160D01*
X133017731Y-99259575D01*
X133009822Y-99268101D01*
X133007084Y-99270134D01*
X133004554Y-99272428D01*
X132994652Y-99278532D01*
X132987613Y-99287788D01*
X132987608Y-99287793D01*
X132973393Y-99306487D01*
X132965474Y-99315908D01*
X132960310Y-99321475D01*
X132941599Y-99341646D01*
X132937290Y-99352447D01*
X132935471Y-99355324D01*
X132933934Y-99358381D01*
X132926892Y-99367641D01*
X132923656Y-99378817D01*
X132917126Y-99401367D01*
X132913129Y-99413008D01*
X132900117Y-99445622D01*
X132899500Y-99451915D01*
X132899500Y-99454997D01*
X132899350Y-99458067D01*
X132899234Y-99458061D01*
X132898935Y-99464183D01*
X132895754Y-99475168D01*
X132896758Y-99486759D01*
X132899030Y-99512994D01*
X132899500Y-99523866D01*
X132899500Y-99880979D01*
X132879498Y-99949100D01*
X132825842Y-99995593D01*
X132755568Y-100005697D01*
X132699439Y-99982915D01*
X132582935Y-99898269D01*
X132582933Y-99898268D01*
X132577593Y-99894388D01*
X132571565Y-99891704D01*
X132571563Y-99891703D01*
X132420298Y-99824356D01*
X132420297Y-99824356D01*
X132414267Y-99821671D01*
X132326829Y-99803085D01*
X132245848Y-99785872D01*
X132245844Y-99785872D01*
X132239391Y-99784500D01*
X132060609Y-99784500D01*
X132054156Y-99785872D01*
X132054152Y-99785872D01*
X131973171Y-99803085D01*
X131885733Y-99821671D01*
X131879703Y-99824356D01*
X131879702Y-99824356D01*
X131728438Y-99891703D01*
X131728436Y-99891704D01*
X131722408Y-99894388D01*
X131577770Y-99999474D01*
X131573357Y-100004376D01*
X131573355Y-100004377D01*
X131473307Y-100115491D01*
X131458141Y-100132335D01*
X131454838Y-100138056D01*
X131392517Y-100246000D01*
X131368750Y-100287165D01*
X131313503Y-100457197D01*
X131312813Y-100463760D01*
X131312813Y-100463761D01*
X131299508Y-100590353D01*
X131294815Y-100635000D01*
X131295505Y-100641565D01*
X131307323Y-100754000D01*
X131313503Y-100812803D01*
X131368750Y-100982835D01*
X131458141Y-101137665D01*
X131462559Y-101142572D01*
X131462560Y-101142573D01*
X131538120Y-101226490D01*
X131577770Y-101270526D01*
X131722407Y-101375612D01*
X131728433Y-101378295D01*
X131728440Y-101378299D01*
X131799403Y-101409893D01*
X131853499Y-101455873D01*
X131874149Y-101523800D01*
X131854797Y-101592108D01*
X131799404Y-101640107D01*
X131728438Y-101671703D01*
X131728436Y-101671704D01*
X131722408Y-101674388D01*
X131717067Y-101678268D01*
X131717066Y-101678269D01*
X131683024Y-101703002D01*
X131577770Y-101779474D01*
X131573357Y-101784376D01*
X131573355Y-101784377D01*
X131475272Y-101893309D01*
X131458141Y-101912335D01*
X131368750Y-102067165D01*
X131313503Y-102237197D01*
X131294815Y-102415000D01*
X131295505Y-102421565D01*
X131302874Y-102491671D01*
X131313503Y-102592803D01*
X131368750Y-102762835D01*
X131458141Y-102917665D01*
X131462559Y-102922572D01*
X131462560Y-102922573D01*
X131516223Y-102982171D01*
X131577770Y-103050526D01*
X131583109Y-103054405D01*
X131683298Y-103127197D01*
X131722407Y-103155612D01*
X131728433Y-103158295D01*
X131728440Y-103158299D01*
X131799403Y-103189893D01*
X131853499Y-103235873D01*
X131874149Y-103303800D01*
X131854797Y-103372108D01*
X131799404Y-103420107D01*
X131728438Y-103451703D01*
X131728436Y-103451704D01*
X131722408Y-103454388D01*
X131577770Y-103559474D01*
X131573357Y-103564376D01*
X131573355Y-103564377D01*
X131488554Y-103658558D01*
X131458141Y-103692335D01*
X131454838Y-103698056D01*
X131372591Y-103840513D01*
X131368750Y-103847165D01*
X131313503Y-104017197D01*
X131312813Y-104023760D01*
X131312813Y-104023761D01*
X131295505Y-104188435D01*
X131294815Y-104195000D01*
X131295505Y-104201565D01*
X131302874Y-104271671D01*
X131313503Y-104372803D01*
X131368750Y-104542835D01*
X131458141Y-104697665D01*
X131462559Y-104702572D01*
X131462560Y-104702573D01*
X131475956Y-104717450D01*
X131577770Y-104830526D01*
X131583109Y-104834405D01*
X131707383Y-104924696D01*
X131722407Y-104935612D01*
X131728433Y-104938295D01*
X131728440Y-104938299D01*
X131799403Y-104969893D01*
X131853499Y-105015873D01*
X131874149Y-105083800D01*
X131854797Y-105152108D01*
X131799404Y-105200107D01*
X131728438Y-105231703D01*
X131728436Y-105231704D01*
X131722408Y-105234388D01*
X131577770Y-105339474D01*
X131573357Y-105344376D01*
X131573355Y-105344377D01*
X131462560Y-105467427D01*
X131458141Y-105472335D01*
X131368750Y-105627165D01*
X131313503Y-105797197D01*
X131312813Y-105803760D01*
X131312813Y-105803761D01*
X131302081Y-105905873D01*
X131294815Y-105975000D01*
X131295505Y-105981565D01*
X131302874Y-106051671D01*
X131313503Y-106152803D01*
X131368750Y-106322835D01*
X131458141Y-106477665D01*
X131462559Y-106482572D01*
X131462560Y-106482573D01*
X131478252Y-106500000D01*
X131577770Y-106610526D01*
X131583109Y-106614405D01*
X131683298Y-106687197D01*
X131722407Y-106715612D01*
X131728433Y-106718295D01*
X131728440Y-106718299D01*
X131799403Y-106749893D01*
X131853499Y-106795873D01*
X131874149Y-106863800D01*
X131854797Y-106932108D01*
X131799404Y-106980107D01*
X131728438Y-107011703D01*
X131728436Y-107011704D01*
X131722408Y-107014388D01*
X131577770Y-107119474D01*
X131573357Y-107124376D01*
X131573355Y-107124377D01*
X131534572Y-107167450D01*
X131458141Y-107252335D01*
X131368750Y-107407165D01*
X131313503Y-107577197D01*
X131312813Y-107583760D01*
X131312813Y-107583761D01*
X131302081Y-107685873D01*
X131294815Y-107755000D01*
X131295505Y-107761565D01*
X131308547Y-107885646D01*
X131313503Y-107932803D01*
X131368750Y-108102835D01*
X131372053Y-108108557D01*
X131372054Y-108108558D01*
X131412701Y-108178961D01*
X131458141Y-108257665D01*
X131462559Y-108262572D01*
X131462560Y-108262573D01*
X131563517Y-108374696D01*
X131577770Y-108390526D01*
X131583109Y-108394405D01*
X131714968Y-108490207D01*
X131722407Y-108495612D01*
X131728433Y-108498295D01*
X131728440Y-108498299D01*
X131799403Y-108529893D01*
X131853499Y-108575873D01*
X131874149Y-108643800D01*
X131854797Y-108712108D01*
X131799404Y-108760107D01*
X131728438Y-108791703D01*
X131728436Y-108791704D01*
X131722408Y-108794388D01*
X131577770Y-108899474D01*
X131573357Y-108904376D01*
X131573355Y-108904377D01*
X131503309Y-108982171D01*
X131458141Y-109032335D01*
X131454838Y-109038056D01*
X131385019Y-109158987D01*
X131368750Y-109187165D01*
X131357585Y-109221527D01*
X131325430Y-109320491D01*
X131313503Y-109357197D01*
X131312813Y-109363760D01*
X131312813Y-109363761D01*
X131298967Y-109495500D01*
X131294815Y-109535000D01*
X131313503Y-109712803D01*
X131368750Y-109882835D01*
X131458141Y-110037665D01*
X131462559Y-110042572D01*
X131462560Y-110042573D01*
X131565298Y-110156674D01*
X131577770Y-110170526D01*
X131722407Y-110275612D01*
X131728433Y-110278295D01*
X131728440Y-110278299D01*
X131799403Y-110309893D01*
X131853499Y-110355873D01*
X131874149Y-110423800D01*
X131854797Y-110492108D01*
X131799404Y-110540107D01*
X131728438Y-110571703D01*
X131728436Y-110571704D01*
X131722408Y-110574388D01*
X131577770Y-110679474D01*
X131573357Y-110684376D01*
X131573355Y-110684377D01*
X131462560Y-110807427D01*
X131458141Y-110812335D01*
X131368750Y-110967165D01*
X131313503Y-111137197D01*
X131294815Y-111315000D01*
X131295505Y-111321565D01*
X131302874Y-111391671D01*
X131313503Y-111492803D01*
X131368750Y-111662835D01*
X131458141Y-111817665D01*
X131577770Y-111950526D01*
X131583109Y-111954405D01*
X131683298Y-112027197D01*
X131722407Y-112055612D01*
X131728433Y-112058295D01*
X131728440Y-112058299D01*
X131799403Y-112089893D01*
X131853499Y-112135873D01*
X131874149Y-112203800D01*
X131854797Y-112272108D01*
X131799404Y-112320107D01*
X131728438Y-112351703D01*
X131728436Y-112351704D01*
X131722408Y-112354388D01*
X131577770Y-112459474D01*
X131573357Y-112464376D01*
X131573355Y-112464377D01*
X131551316Y-112488854D01*
X131458141Y-112592335D01*
X131368750Y-112747165D01*
X131313503Y-112917197D01*
X131312813Y-112923760D01*
X131312813Y-112923761D01*
X131298967Y-113055500D01*
X131294815Y-113095000D01*
X115300500Y-113095000D01*
X115300500Y-105050000D01*
X128219508Y-105050000D01*
X128221059Y-105059793D01*
X128231308Y-105124500D01*
X128239354Y-105175304D01*
X128296950Y-105288342D01*
X128386658Y-105378050D01*
X128499696Y-105435646D01*
X128509485Y-105437196D01*
X128509487Y-105437197D01*
X128615207Y-105453941D01*
X128625000Y-105455492D01*
X128634793Y-105453941D01*
X128740513Y-105437197D01*
X128740515Y-105437196D01*
X128750304Y-105435646D01*
X128863342Y-105378050D01*
X128953050Y-105288342D01*
X129010646Y-105175304D01*
X129018693Y-105124500D01*
X129028941Y-105059793D01*
X129030492Y-105050000D01*
X129019749Y-104982171D01*
X129012197Y-104934487D01*
X129012196Y-104934485D01*
X129010646Y-104924696D01*
X128953050Y-104811658D01*
X128863342Y-104721950D01*
X128750304Y-104664354D01*
X128740515Y-104662804D01*
X128740513Y-104662803D01*
X128634793Y-104646059D01*
X128625000Y-104644508D01*
X128615207Y-104646059D01*
X128509487Y-104662803D01*
X128509485Y-104662804D01*
X128499696Y-104664354D01*
X128386658Y-104721950D01*
X128296950Y-104811658D01*
X128239354Y-104924696D01*
X128237804Y-104934485D01*
X128237803Y-104934487D01*
X128230251Y-104982171D01*
X128219508Y-105050000D01*
X115300500Y-105050000D01*
X115300500Y-100345000D01*
X122749508Y-100345000D01*
X122751059Y-100354793D01*
X122766284Y-100450918D01*
X122769354Y-100470304D01*
X122826950Y-100583342D01*
X122916658Y-100673050D01*
X123029696Y-100730646D01*
X123039485Y-100732196D01*
X123039487Y-100732197D01*
X123145207Y-100748941D01*
X123155000Y-100750492D01*
X123164793Y-100748941D01*
X123270513Y-100732197D01*
X123270515Y-100732196D01*
X123280304Y-100730646D01*
X123393342Y-100673050D01*
X123483050Y-100583342D01*
X123540646Y-100470304D01*
X123543717Y-100450918D01*
X123558941Y-100354793D01*
X123560492Y-100345000D01*
X123555402Y-100312865D01*
X123542197Y-100229487D01*
X123542196Y-100229485D01*
X123541486Y-100225000D01*
X128744508Y-100225000D01*
X128746059Y-100234793D01*
X128761492Y-100332231D01*
X128764354Y-100350304D01*
X128821950Y-100463342D01*
X128911658Y-100553050D01*
X129024696Y-100610646D01*
X129034485Y-100612196D01*
X129034487Y-100612197D01*
X129140207Y-100628941D01*
X129150000Y-100630492D01*
X129159793Y-100628941D01*
X129265513Y-100612197D01*
X129265515Y-100612196D01*
X129275304Y-100610646D01*
X129388342Y-100553050D01*
X129478050Y-100463342D01*
X129535646Y-100350304D01*
X129538509Y-100332231D01*
X129553941Y-100234793D01*
X129555492Y-100225000D01*
X129541722Y-100138056D01*
X129537197Y-100109487D01*
X129537196Y-100109485D01*
X129535646Y-100099696D01*
X129478050Y-99986658D01*
X129388342Y-99896950D01*
X129275304Y-99839354D01*
X129265515Y-99837804D01*
X129265513Y-99837803D01*
X129159793Y-99821059D01*
X129150000Y-99819508D01*
X129140207Y-99821059D01*
X129034487Y-99837803D01*
X129034485Y-99837804D01*
X129024696Y-99839354D01*
X128911658Y-99896950D01*
X128821950Y-99986658D01*
X128764354Y-100099696D01*
X128762804Y-100109485D01*
X128762803Y-100109487D01*
X128758278Y-100138056D01*
X128744508Y-100225000D01*
X123541486Y-100225000D01*
X123540646Y-100219696D01*
X123483050Y-100106658D01*
X123393342Y-100016950D01*
X123280304Y-99959354D01*
X123270515Y-99957804D01*
X123270513Y-99957803D01*
X123164793Y-99941059D01*
X123155000Y-99939508D01*
X123145207Y-99941059D01*
X123039487Y-99957803D01*
X123039485Y-99957804D01*
X123029696Y-99959354D01*
X122916658Y-100016950D01*
X122826950Y-100106658D01*
X122769354Y-100219696D01*
X122767804Y-100229485D01*
X122767803Y-100229487D01*
X122754598Y-100312865D01*
X122749508Y-100345000D01*
X115300500Y-100345000D01*
X115300500Y-98000000D01*
X158594508Y-98000000D01*
X158614354Y-98125304D01*
X158671950Y-98238342D01*
X158761658Y-98328050D01*
X158874696Y-98385646D01*
X158884485Y-98387196D01*
X158884487Y-98387197D01*
X158990207Y-98403941D01*
X159000000Y-98405492D01*
X159009793Y-98403941D01*
X159115513Y-98387197D01*
X159115515Y-98387196D01*
X159125304Y-98385646D01*
X159238342Y-98328050D01*
X159328050Y-98238342D01*
X159385646Y-98125304D01*
X159405492Y-98000000D01*
X159385646Y-97874696D01*
X159328050Y-97761658D01*
X159238342Y-97671950D01*
X159125304Y-97614354D01*
X159115515Y-97612804D01*
X159115513Y-97612803D01*
X159009793Y-97596059D01*
X159000000Y-97594508D01*
X158990207Y-97596059D01*
X158884487Y-97612803D01*
X158884485Y-97612804D01*
X158874696Y-97614354D01*
X158761658Y-97671950D01*
X158671950Y-97761658D01*
X158614354Y-97874696D01*
X158594508Y-98000000D01*
X115300500Y-98000000D01*
X115300500Y-96550000D01*
X122869508Y-96550000D01*
X122871059Y-96559793D01*
X122873468Y-96575000D01*
X122889354Y-96675304D01*
X122946950Y-96788342D01*
X123036658Y-96878050D01*
X123149696Y-96935646D01*
X123159485Y-96937196D01*
X123159487Y-96937197D01*
X123244332Y-96950635D01*
X123308485Y-96981048D01*
X123346012Y-97041316D01*
X123344453Y-97114022D01*
X123343855Y-97115863D01*
X123339354Y-97124696D01*
X123319508Y-97250000D01*
X123321059Y-97259793D01*
X123331339Y-97324696D01*
X123339354Y-97375304D01*
X123396950Y-97488342D01*
X123486658Y-97578050D01*
X123599696Y-97635646D01*
X123609485Y-97637196D01*
X123609487Y-97637197D01*
X123715207Y-97653941D01*
X123725000Y-97655492D01*
X123734793Y-97653941D01*
X123840513Y-97637197D01*
X123840515Y-97637196D01*
X123850304Y-97635646D01*
X123963342Y-97578050D01*
X124053050Y-97488342D01*
X124072586Y-97450000D01*
X126519508Y-97450000D01*
X126539354Y-97575304D01*
X126596950Y-97688342D01*
X126686658Y-97778050D01*
X126799696Y-97835646D01*
X126809485Y-97837196D01*
X126809487Y-97837197D01*
X126915207Y-97853941D01*
X126925000Y-97855492D01*
X126934793Y-97853941D01*
X127040513Y-97837197D01*
X127040515Y-97837196D01*
X127050304Y-97835646D01*
X127163342Y-97778050D01*
X127253050Y-97688342D01*
X127310646Y-97575304D01*
X127330492Y-97450000D01*
X127328941Y-97440207D01*
X127312197Y-97334487D01*
X127312196Y-97334485D01*
X127310646Y-97324696D01*
X127253050Y-97211658D01*
X127163342Y-97121950D01*
X127050304Y-97064354D01*
X127040515Y-97062804D01*
X127040513Y-97062803D01*
X126934793Y-97046059D01*
X126925000Y-97044508D01*
X126915207Y-97046059D01*
X126809487Y-97062803D01*
X126809485Y-97062804D01*
X126799696Y-97064354D01*
X126686658Y-97121950D01*
X126596950Y-97211658D01*
X126539354Y-97324696D01*
X126537804Y-97334485D01*
X126537803Y-97334487D01*
X126521059Y-97440207D01*
X126519508Y-97450000D01*
X124072586Y-97450000D01*
X124110646Y-97375304D01*
X124118662Y-97324696D01*
X124128941Y-97259793D01*
X124130492Y-97250000D01*
X124110646Y-97124696D01*
X124053050Y-97011658D01*
X123963342Y-96921950D01*
X123850304Y-96864354D01*
X123840515Y-96862804D01*
X123840513Y-96862803D01*
X123755668Y-96849365D01*
X123691515Y-96818952D01*
X123653988Y-96758684D01*
X123655547Y-96685978D01*
X123656145Y-96684137D01*
X123660646Y-96675304D01*
X123674982Y-96584793D01*
X123676533Y-96575000D01*
X139344508Y-96575000D01*
X139346059Y-96584793D01*
X139358844Y-96665513D01*
X139364354Y-96700304D01*
X139421950Y-96813342D01*
X139511658Y-96903050D01*
X139624696Y-96960646D01*
X139634485Y-96962196D01*
X139634487Y-96962197D01*
X139740207Y-96978941D01*
X139750000Y-96980492D01*
X139759793Y-96978941D01*
X139865513Y-96962197D01*
X139865515Y-96962196D01*
X139875304Y-96960646D01*
X139988342Y-96903050D01*
X140078050Y-96813342D01*
X140135646Y-96700304D01*
X140141157Y-96665513D01*
X140153941Y-96584793D01*
X140155492Y-96575000D01*
X140153941Y-96565207D01*
X140137197Y-96459487D01*
X140137196Y-96459485D01*
X140135646Y-96449696D01*
X140078050Y-96336658D01*
X139988342Y-96246950D01*
X139875304Y-96189354D01*
X139865515Y-96187804D01*
X139865513Y-96187803D01*
X139759793Y-96171059D01*
X139750000Y-96169508D01*
X139740207Y-96171059D01*
X139634487Y-96187803D01*
X139634485Y-96187804D01*
X139624696Y-96189354D01*
X139511658Y-96246950D01*
X139421950Y-96336658D01*
X139364354Y-96449696D01*
X139362804Y-96459485D01*
X139362803Y-96459487D01*
X139346059Y-96565207D01*
X139344508Y-96575000D01*
X123676533Y-96575000D01*
X123678941Y-96559793D01*
X123680492Y-96550000D01*
X123678941Y-96540207D01*
X123662197Y-96434487D01*
X123662196Y-96434485D01*
X123660646Y-96424696D01*
X123603050Y-96311658D01*
X123513342Y-96221950D01*
X123400304Y-96164354D01*
X123390515Y-96162804D01*
X123390513Y-96162803D01*
X123284793Y-96146059D01*
X123275000Y-96144508D01*
X123265207Y-96146059D01*
X123159487Y-96162803D01*
X123159485Y-96162804D01*
X123149696Y-96164354D01*
X123036658Y-96221950D01*
X122946950Y-96311658D01*
X122889354Y-96424696D01*
X122887804Y-96434485D01*
X122887803Y-96434487D01*
X122871059Y-96540207D01*
X122869508Y-96550000D01*
X115300500Y-96550000D01*
X115300500Y-95425000D01*
X117219508Y-95425000D01*
X117239354Y-95550304D01*
X117296950Y-95663342D01*
X117386658Y-95753050D01*
X117499696Y-95810646D01*
X117509485Y-95812196D01*
X117509487Y-95812197D01*
X117615207Y-95828941D01*
X117625000Y-95830492D01*
X117634793Y-95828941D01*
X117740513Y-95812197D01*
X117740515Y-95812196D01*
X117750304Y-95810646D01*
X117863342Y-95753050D01*
X117953050Y-95663342D01*
X118010646Y-95550304D01*
X118018613Y-95500000D01*
X158594508Y-95500000D01*
X158596059Y-95509793D01*
X158600925Y-95540513D01*
X158614354Y-95625304D01*
X158671950Y-95738342D01*
X158761658Y-95828050D01*
X158874696Y-95885646D01*
X158884485Y-95887196D01*
X158884487Y-95887197D01*
X158990207Y-95903941D01*
X159000000Y-95905492D01*
X159009793Y-95903941D01*
X159115513Y-95887197D01*
X159115515Y-95887196D01*
X159125304Y-95885646D01*
X159238342Y-95828050D01*
X159328050Y-95738342D01*
X159385646Y-95625304D01*
X159399076Y-95540513D01*
X159403941Y-95509793D01*
X159405492Y-95500000D01*
X159387626Y-95387197D01*
X159387197Y-95384487D01*
X159387196Y-95384485D01*
X159385646Y-95374696D01*
X159328050Y-95261658D01*
X159238342Y-95171950D01*
X159125304Y-95114354D01*
X159115515Y-95112804D01*
X159115513Y-95112803D01*
X159009793Y-95096059D01*
X159000000Y-95094508D01*
X158990207Y-95096059D01*
X158884487Y-95112803D01*
X158884485Y-95112804D01*
X158874696Y-95114354D01*
X158761658Y-95171950D01*
X158671950Y-95261658D01*
X158614354Y-95374696D01*
X158612804Y-95384485D01*
X158612803Y-95384487D01*
X158612374Y-95387197D01*
X158594508Y-95500000D01*
X118018613Y-95500000D01*
X118030492Y-95425000D01*
X118024259Y-95385646D01*
X118012197Y-95309487D01*
X118012196Y-95309485D01*
X118010646Y-95299696D01*
X117953050Y-95186658D01*
X117863342Y-95096950D01*
X117750304Y-95039354D01*
X117740515Y-95037804D01*
X117740513Y-95037803D01*
X117634793Y-95021059D01*
X117625000Y-95019508D01*
X117615207Y-95021059D01*
X117509487Y-95037803D01*
X117509485Y-95037804D01*
X117499696Y-95039354D01*
X117386658Y-95096950D01*
X117296950Y-95186658D01*
X117239354Y-95299696D01*
X117237804Y-95309485D01*
X117237803Y-95309487D01*
X117225741Y-95385646D01*
X117219508Y-95425000D01*
X115300500Y-95425000D01*
X115300500Y-95000000D01*
X119944508Y-95000000D01*
X119946059Y-95009793D01*
X119962620Y-95114354D01*
X119964354Y-95125304D01*
X120021950Y-95238342D01*
X120111658Y-95328050D01*
X120224696Y-95385646D01*
X120234485Y-95387196D01*
X120234487Y-95387197D01*
X120340207Y-95403941D01*
X120350000Y-95405492D01*
X120359793Y-95403941D01*
X120465513Y-95387197D01*
X120465515Y-95387196D01*
X120475304Y-95385646D01*
X120588342Y-95328050D01*
X120678050Y-95238342D01*
X120735646Y-95125304D01*
X120737381Y-95114354D01*
X120753941Y-95009793D01*
X120755492Y-95000000D01*
X120747019Y-94946501D01*
X120756119Y-94876090D01*
X120801841Y-94821776D01*
X120869669Y-94800804D01*
X120898900Y-94805220D01*
X120898956Y-94804869D01*
X121005704Y-94821776D01*
X121024260Y-94824715D01*
X121034053Y-94823164D01*
X121139773Y-94806420D01*
X121139775Y-94806419D01*
X121149564Y-94804869D01*
X121262602Y-94747273D01*
X121352310Y-94657565D01*
X121409906Y-94544527D01*
X121429752Y-94419223D01*
X121415699Y-94330492D01*
X121411457Y-94303710D01*
X121411456Y-94303708D01*
X121409906Y-94293919D01*
X121352310Y-94180881D01*
X121262602Y-94091173D01*
X121149564Y-94033577D01*
X121139775Y-94032027D01*
X121139773Y-94032026D01*
X121034053Y-94015282D01*
X121024260Y-94013731D01*
X121014467Y-94015282D01*
X120908747Y-94032026D01*
X120908745Y-94032027D01*
X120898956Y-94033577D01*
X120785918Y-94091173D01*
X120696210Y-94180881D01*
X120638614Y-94293919D01*
X120637064Y-94303708D01*
X120637063Y-94303710D01*
X120632821Y-94330492D01*
X120618768Y-94419223D01*
X120620319Y-94429016D01*
X120620319Y-94429017D01*
X120627241Y-94472722D01*
X120618141Y-94543133D01*
X120572419Y-94597447D01*
X120504591Y-94618419D01*
X120475360Y-94614003D01*
X120475304Y-94614354D01*
X120359793Y-94596059D01*
X120350000Y-94594508D01*
X120340207Y-94596059D01*
X120234487Y-94612803D01*
X120234485Y-94612804D01*
X120224696Y-94614354D01*
X120111658Y-94671950D01*
X120021950Y-94761658D01*
X119964354Y-94874696D01*
X119962804Y-94884485D01*
X119962803Y-94884487D01*
X119952981Y-94946501D01*
X119944508Y-95000000D01*
X115300500Y-95000000D01*
X115300500Y-92975000D01*
X121419508Y-92975000D01*
X121421059Y-92984793D01*
X121431339Y-93049696D01*
X121439354Y-93100304D01*
X121496950Y-93213342D01*
X121586658Y-93303050D01*
X121699696Y-93360646D01*
X121709487Y-93362197D01*
X121709488Y-93362197D01*
X121777682Y-93372998D01*
X121841835Y-93403411D01*
X121879362Y-93463679D01*
X121878348Y-93534668D01*
X121847066Y-93586542D01*
X121796950Y-93636658D01*
X121739354Y-93749696D01*
X121719508Y-93875000D01*
X121721059Y-93884793D01*
X121722732Y-93895353D01*
X121739354Y-94000304D01*
X121796950Y-94113342D01*
X121886658Y-94203050D01*
X121999696Y-94260646D01*
X122009485Y-94262196D01*
X122009487Y-94262197D01*
X122115207Y-94278941D01*
X122125000Y-94280492D01*
X122134793Y-94278941D01*
X122240513Y-94262197D01*
X122240515Y-94262196D01*
X122250304Y-94260646D01*
X122363342Y-94203050D01*
X122453050Y-94113342D01*
X122510646Y-94000304D01*
X122527269Y-93895353D01*
X122528941Y-93884793D01*
X122530492Y-93875000D01*
X122510646Y-93749696D01*
X122453050Y-93636658D01*
X122363342Y-93546950D01*
X122250304Y-93489354D01*
X122240513Y-93487803D01*
X122240512Y-93487803D01*
X122172318Y-93477002D01*
X122108165Y-93446589D01*
X122070638Y-93386321D01*
X122071652Y-93315332D01*
X122102934Y-93263458D01*
X122153050Y-93213342D01*
X122172586Y-93175000D01*
X128194508Y-93175000D01*
X128196059Y-93184793D01*
X128205763Y-93246059D01*
X128214354Y-93300304D01*
X128271950Y-93413342D01*
X128361658Y-93503050D01*
X128474696Y-93560646D01*
X128484487Y-93562197D01*
X128484488Y-93562197D01*
X128496654Y-93564124D01*
X128522210Y-93568171D01*
X128586362Y-93598583D01*
X128623889Y-93658850D01*
X128622876Y-93729840D01*
X128614765Y-93749824D01*
X128593855Y-93790861D01*
X128593854Y-93790865D01*
X128589354Y-93799696D01*
X128587804Y-93809485D01*
X128587803Y-93809487D01*
X128571059Y-93915207D01*
X128569508Y-93925000D01*
X128571059Y-93934793D01*
X128587418Y-94038078D01*
X128589354Y-94050304D01*
X128646950Y-94163342D01*
X128708410Y-94224802D01*
X128742436Y-94287114D01*
X128737371Y-94357929D01*
X128694824Y-94414765D01*
X128676519Y-94426163D01*
X128586658Y-94471950D01*
X128496950Y-94561658D01*
X128439354Y-94674696D01*
X128419508Y-94800000D01*
X128421059Y-94809793D01*
X128431339Y-94874696D01*
X128439354Y-94925304D01*
X128496950Y-95038342D01*
X128586658Y-95128050D01*
X128699696Y-95185646D01*
X128709485Y-95187196D01*
X128709487Y-95187197D01*
X128815207Y-95203941D01*
X128825000Y-95205492D01*
X128834793Y-95203941D01*
X128940513Y-95187197D01*
X128940515Y-95187196D01*
X128950304Y-95185646D01*
X129063342Y-95128050D01*
X129153050Y-95038342D01*
X129210646Y-94925304D01*
X129218662Y-94874696D01*
X129228941Y-94809793D01*
X129230492Y-94800000D01*
X129210646Y-94674696D01*
X129153050Y-94561658D01*
X129091590Y-94500198D01*
X129057564Y-94437886D01*
X129062629Y-94367071D01*
X129105176Y-94310235D01*
X129123482Y-94298836D01*
X129204510Y-94257550D01*
X129204509Y-94257550D01*
X129213342Y-94253050D01*
X129303050Y-94163342D01*
X129360646Y-94050304D01*
X129362583Y-94038078D01*
X129378941Y-93934793D01*
X129380492Y-93925000D01*
X129378941Y-93915207D01*
X129362197Y-93809487D01*
X129362196Y-93809485D01*
X129360646Y-93799696D01*
X129303050Y-93686658D01*
X129266392Y-93650000D01*
X134469508Y-93650000D01*
X134471059Y-93659793D01*
X134474204Y-93679647D01*
X134489354Y-93775304D01*
X134546950Y-93888342D01*
X134636658Y-93978050D01*
X134749696Y-94035646D01*
X134759485Y-94037196D01*
X134759487Y-94037197D01*
X134865207Y-94053941D01*
X134875000Y-94055492D01*
X134884793Y-94053941D01*
X134990513Y-94037197D01*
X134990515Y-94037196D01*
X135000304Y-94035646D01*
X135113342Y-93978050D01*
X135203050Y-93888342D01*
X135260646Y-93775304D01*
X135275797Y-93679647D01*
X135278941Y-93659793D01*
X135280492Y-93650000D01*
X135277506Y-93631145D01*
X135262197Y-93534487D01*
X135262196Y-93534485D01*
X135260646Y-93524696D01*
X135203050Y-93411658D01*
X135113342Y-93321950D01*
X135021198Y-93275000D01*
X136619508Y-93275000D01*
X136621059Y-93284793D01*
X136634580Y-93370160D01*
X136639354Y-93400304D01*
X136696950Y-93513342D01*
X136786658Y-93603050D01*
X136899696Y-93660646D01*
X136909485Y-93662196D01*
X136909487Y-93662197D01*
X137015207Y-93678941D01*
X137025000Y-93680492D01*
X137034793Y-93678941D01*
X137140513Y-93662197D01*
X137140515Y-93662196D01*
X137150304Y-93660646D01*
X137263342Y-93603050D01*
X137353050Y-93513342D01*
X137410646Y-93400304D01*
X137415421Y-93370160D01*
X137428941Y-93284793D01*
X137430492Y-93275000D01*
X137428560Y-93262803D01*
X137426532Y-93250000D01*
X138219508Y-93250000D01*
X138221059Y-93259793D01*
X138236320Y-93356145D01*
X138239354Y-93375304D01*
X138296950Y-93488342D01*
X138386658Y-93578050D01*
X138499696Y-93635646D01*
X138509485Y-93637196D01*
X138509487Y-93637197D01*
X138615207Y-93653941D01*
X138625000Y-93655492D01*
X138634793Y-93653941D01*
X138740513Y-93637197D01*
X138740515Y-93637196D01*
X138750304Y-93635646D01*
X138863342Y-93578050D01*
X138953050Y-93488342D01*
X139010646Y-93375304D01*
X139013681Y-93356145D01*
X139028941Y-93259793D01*
X139030492Y-93250000D01*
X139028941Y-93240207D01*
X139012197Y-93134487D01*
X139012196Y-93134485D01*
X139010646Y-93124696D01*
X138953050Y-93011658D01*
X138863342Y-92921950D01*
X138750304Y-92864354D01*
X138740515Y-92862804D01*
X138740513Y-92862803D01*
X138634793Y-92846059D01*
X138625000Y-92844508D01*
X138615207Y-92846059D01*
X138509487Y-92862803D01*
X138509485Y-92862804D01*
X138499696Y-92864354D01*
X138386658Y-92921950D01*
X138296950Y-93011658D01*
X138239354Y-93124696D01*
X138237804Y-93134485D01*
X138237803Y-93134487D01*
X138221059Y-93240207D01*
X138219508Y-93250000D01*
X137426532Y-93250000D01*
X137412197Y-93159487D01*
X137412196Y-93159485D01*
X137410646Y-93149696D01*
X137353050Y-93036658D01*
X137263342Y-92946950D01*
X137150304Y-92889354D01*
X137140515Y-92887804D01*
X137140513Y-92887803D01*
X137034793Y-92871059D01*
X137025000Y-92869508D01*
X137015207Y-92871059D01*
X136909487Y-92887803D01*
X136909485Y-92887804D01*
X136899696Y-92889354D01*
X136786658Y-92946950D01*
X136696950Y-93036658D01*
X136639354Y-93149696D01*
X136637804Y-93159485D01*
X136637803Y-93159487D01*
X136621440Y-93262803D01*
X136619508Y-93275000D01*
X135021198Y-93275000D01*
X135000304Y-93264354D01*
X134990515Y-93262804D01*
X134990513Y-93262803D01*
X134884793Y-93246059D01*
X134875000Y-93244508D01*
X134865207Y-93246059D01*
X134759487Y-93262803D01*
X134759485Y-93262804D01*
X134749696Y-93264354D01*
X134636658Y-93321950D01*
X134546950Y-93411658D01*
X134489354Y-93524696D01*
X134487804Y-93534485D01*
X134487803Y-93534487D01*
X134472494Y-93631145D01*
X134469508Y-93650000D01*
X129266392Y-93650000D01*
X129213342Y-93596950D01*
X129100304Y-93539354D01*
X129090513Y-93537803D01*
X129090512Y-93537803D01*
X129070717Y-93534668D01*
X129052790Y-93531829D01*
X128988638Y-93501417D01*
X128951111Y-93441150D01*
X128952124Y-93370160D01*
X128960235Y-93350176D01*
X128981145Y-93309139D01*
X128981146Y-93309135D01*
X128985646Y-93300304D01*
X128994238Y-93246059D01*
X129003941Y-93184793D01*
X129005492Y-93175000D01*
X129000085Y-93140863D01*
X128987197Y-93059487D01*
X128987196Y-93059485D01*
X128985646Y-93049696D01*
X128928050Y-92936658D01*
X128838342Y-92846950D01*
X128725304Y-92789354D01*
X128715515Y-92787804D01*
X128715513Y-92787803D01*
X128609793Y-92771059D01*
X128600000Y-92769508D01*
X128590207Y-92771059D01*
X128484487Y-92787803D01*
X128484485Y-92787804D01*
X128474696Y-92789354D01*
X128361658Y-92846950D01*
X128271950Y-92936658D01*
X128214354Y-93049696D01*
X128212804Y-93059485D01*
X128212803Y-93059487D01*
X128199915Y-93140863D01*
X128194508Y-93175000D01*
X122172586Y-93175000D01*
X122210646Y-93100304D01*
X122218662Y-93049696D01*
X122228941Y-92984793D01*
X122230492Y-92975000D01*
X122216927Y-92889354D01*
X122212197Y-92859487D01*
X122212196Y-92859485D01*
X122210646Y-92849696D01*
X122153050Y-92736658D01*
X122063342Y-92646950D01*
X121950304Y-92589354D01*
X121940515Y-92587804D01*
X121940513Y-92587803D01*
X121834793Y-92571059D01*
X121825000Y-92569508D01*
X121815207Y-92571059D01*
X121709487Y-92587803D01*
X121709485Y-92587804D01*
X121699696Y-92589354D01*
X121586658Y-92646950D01*
X121496950Y-92736658D01*
X121439354Y-92849696D01*
X121437804Y-92859485D01*
X121437803Y-92859487D01*
X121433073Y-92889354D01*
X121419508Y-92975000D01*
X115300500Y-92975000D01*
X115300500Y-92400000D01*
X116619508Y-92400000D01*
X116639354Y-92525304D01*
X116696950Y-92638342D01*
X116786658Y-92728050D01*
X116899696Y-92785646D01*
X116909485Y-92787196D01*
X116909487Y-92787197D01*
X117015207Y-92803941D01*
X117025000Y-92805492D01*
X117034793Y-92803941D01*
X117140513Y-92787197D01*
X117140515Y-92787196D01*
X117150304Y-92785646D01*
X117263342Y-92728050D01*
X117353050Y-92638342D01*
X117410646Y-92525304D01*
X117430492Y-92400000D01*
X117419483Y-92330492D01*
X117412197Y-92284487D01*
X117412196Y-92284485D01*
X117410646Y-92274696D01*
X117353050Y-92161658D01*
X117263342Y-92071950D01*
X117150304Y-92014354D01*
X117140515Y-92012804D01*
X117140513Y-92012803D01*
X117034793Y-91996059D01*
X117025000Y-91994508D01*
X117015207Y-91996059D01*
X116909487Y-92012803D01*
X116909485Y-92012804D01*
X116899696Y-92014354D01*
X116786658Y-92071950D01*
X116696950Y-92161658D01*
X116639354Y-92274696D01*
X116637804Y-92284485D01*
X116637803Y-92284487D01*
X116630517Y-92330492D01*
X116619508Y-92400000D01*
X115300500Y-92400000D01*
X115300500Y-91925000D01*
X128594508Y-91925000D01*
X128596059Y-91934793D01*
X128605763Y-91996059D01*
X128614354Y-92050304D01*
X128671950Y-92163342D01*
X128761658Y-92253050D01*
X128874696Y-92310646D01*
X128884485Y-92312196D01*
X128884487Y-92312197D01*
X128990207Y-92328941D01*
X129000000Y-92330492D01*
X129009793Y-92328941D01*
X129115513Y-92312197D01*
X129115515Y-92312196D01*
X129125304Y-92310646D01*
X129238342Y-92253050D01*
X129328050Y-92163342D01*
X129385646Y-92050304D01*
X129394238Y-91996059D01*
X129403941Y-91934793D01*
X129405492Y-91925000D01*
X129385646Y-91799696D01*
X129328050Y-91686658D01*
X129238342Y-91596950D01*
X129125304Y-91539354D01*
X129115515Y-91537804D01*
X129115513Y-91537803D01*
X129009793Y-91521059D01*
X129000000Y-91519508D01*
X128990207Y-91521059D01*
X128884487Y-91537803D01*
X128884485Y-91537804D01*
X128874696Y-91539354D01*
X128761658Y-91596950D01*
X128671950Y-91686658D01*
X128614354Y-91799696D01*
X128594508Y-91925000D01*
X115300500Y-91925000D01*
X115300500Y-89250000D01*
X125094508Y-89250000D01*
X125096059Y-89259793D01*
X125103940Y-89309549D01*
X125114354Y-89375304D01*
X125171950Y-89488342D01*
X125261658Y-89578050D01*
X125374696Y-89635646D01*
X125384485Y-89637196D01*
X125384487Y-89637197D01*
X125490207Y-89653941D01*
X125500000Y-89655492D01*
X125501286Y-89655288D01*
X125564818Y-89673943D01*
X125611311Y-89727599D01*
X125621415Y-89797873D01*
X125608964Y-89837144D01*
X125564354Y-89924696D01*
X125562804Y-89934485D01*
X125562803Y-89934487D01*
X125553623Y-89992450D01*
X125544508Y-90050000D01*
X125546059Y-90059793D01*
X125549204Y-90079647D01*
X125564354Y-90175304D01*
X125621950Y-90288342D01*
X125711658Y-90378050D01*
X125824696Y-90435646D01*
X125834485Y-90437196D01*
X125834487Y-90437197D01*
X125940207Y-90453941D01*
X125950000Y-90455492D01*
X125959793Y-90453941D01*
X126065513Y-90437197D01*
X126065515Y-90437196D01*
X126075304Y-90435646D01*
X126188342Y-90378050D01*
X126241392Y-90325000D01*
X138394508Y-90325000D01*
X138396059Y-90334793D01*
X138411320Y-90431145D01*
X138414354Y-90450304D01*
X138471950Y-90563342D01*
X138561658Y-90653050D01*
X138674696Y-90710646D01*
X138684485Y-90712196D01*
X138684487Y-90712197D01*
X138790207Y-90728941D01*
X138800000Y-90730492D01*
X138809793Y-90728941D01*
X138915513Y-90712197D01*
X138915515Y-90712196D01*
X138925304Y-90710646D01*
X139038342Y-90653050D01*
X139128050Y-90563342D01*
X139185646Y-90450304D01*
X139188681Y-90431145D01*
X139203941Y-90334793D01*
X139205492Y-90325000D01*
X139203941Y-90315207D01*
X139187197Y-90209487D01*
X139187196Y-90209485D01*
X139185646Y-90199696D01*
X139128050Y-90086658D01*
X139038342Y-89996950D01*
X138925304Y-89939354D01*
X138915515Y-89937804D01*
X138915513Y-89937803D01*
X138809793Y-89921059D01*
X138800000Y-89919508D01*
X138790207Y-89921059D01*
X138684487Y-89937803D01*
X138684485Y-89937804D01*
X138674696Y-89939354D01*
X138561658Y-89996950D01*
X138471950Y-90086658D01*
X138414354Y-90199696D01*
X138412804Y-90209485D01*
X138412803Y-90209487D01*
X138396059Y-90315207D01*
X138394508Y-90325000D01*
X126241392Y-90325000D01*
X126278050Y-90288342D01*
X126335646Y-90175304D01*
X126350797Y-90079647D01*
X126353941Y-90059793D01*
X126355492Y-90050000D01*
X126346377Y-89992450D01*
X126337197Y-89934487D01*
X126337196Y-89934485D01*
X126335646Y-89924696D01*
X126278050Y-89811658D01*
X126188342Y-89721950D01*
X126075304Y-89664354D01*
X126065515Y-89662804D01*
X126065513Y-89662803D01*
X125959793Y-89646059D01*
X125950000Y-89644508D01*
X125948714Y-89644712D01*
X125885182Y-89626057D01*
X125838689Y-89572401D01*
X125828585Y-89502127D01*
X125841036Y-89462856D01*
X125881145Y-89384137D01*
X125885646Y-89375304D01*
X125902525Y-89268731D01*
X125932937Y-89204579D01*
X125993205Y-89167051D01*
X126064194Y-89168065D01*
X126116069Y-89199347D01*
X126148829Y-89232107D01*
X126261867Y-89289703D01*
X126271656Y-89291253D01*
X126271658Y-89291254D01*
X126377378Y-89307998D01*
X126387171Y-89309549D01*
X126396964Y-89307998D01*
X126502684Y-89291254D01*
X126502686Y-89291253D01*
X126512475Y-89289703D01*
X126625513Y-89232107D01*
X126715221Y-89142399D01*
X126772817Y-89029361D01*
X126776732Y-89004647D01*
X126791112Y-88913850D01*
X126792663Y-88904057D01*
X126786129Y-88862803D01*
X126774368Y-88788544D01*
X126774367Y-88788542D01*
X126772817Y-88778753D01*
X126715221Y-88665715D01*
X126625513Y-88576007D01*
X126512475Y-88518411D01*
X126502686Y-88516861D01*
X126502684Y-88516860D01*
X126396964Y-88500116D01*
X126387171Y-88498565D01*
X126377378Y-88500116D01*
X126271658Y-88516860D01*
X126271656Y-88516861D01*
X126261867Y-88518411D01*
X126148829Y-88576007D01*
X126059121Y-88665715D01*
X126001525Y-88778753D01*
X125987255Y-88868855D01*
X125984646Y-88885325D01*
X125954234Y-88949478D01*
X125893966Y-88987006D01*
X125822977Y-88985992D01*
X125771102Y-88954710D01*
X125738342Y-88921950D01*
X125625304Y-88864354D01*
X125615515Y-88862804D01*
X125615513Y-88862803D01*
X125509793Y-88846059D01*
X125500000Y-88844508D01*
X125490207Y-88846059D01*
X125384487Y-88862803D01*
X125384485Y-88862804D01*
X125374696Y-88864354D01*
X125261658Y-88921950D01*
X125171950Y-89011658D01*
X125114354Y-89124696D01*
X125112804Y-89134485D01*
X125112803Y-89134487D01*
X125101702Y-89204579D01*
X125094508Y-89250000D01*
X115300500Y-89250000D01*
X115300500Y-88725000D01*
X122044508Y-88725000D01*
X122046059Y-88734793D01*
X122053022Y-88778753D01*
X122064354Y-88850304D01*
X122121950Y-88963342D01*
X122211658Y-89053050D01*
X122324696Y-89110646D01*
X122334485Y-89112196D01*
X122334487Y-89112197D01*
X122440207Y-89128941D01*
X122450000Y-89130492D01*
X122459793Y-89128941D01*
X122565513Y-89112197D01*
X122565515Y-89112196D01*
X122575304Y-89110646D01*
X122688342Y-89053050D01*
X122778050Y-88963342D01*
X122835646Y-88850304D01*
X122846979Y-88778753D01*
X122853941Y-88734793D01*
X122855492Y-88725000D01*
X122835646Y-88599696D01*
X122778050Y-88486658D01*
X122688342Y-88396950D01*
X122575304Y-88339354D01*
X122565515Y-88337804D01*
X122565513Y-88337803D01*
X122459793Y-88321059D01*
X122450000Y-88319508D01*
X122440207Y-88321059D01*
X122334487Y-88337803D01*
X122334485Y-88337804D01*
X122324696Y-88339354D01*
X122211658Y-88396950D01*
X122121950Y-88486658D01*
X122064354Y-88599696D01*
X122044508Y-88725000D01*
X115300500Y-88725000D01*
X115300500Y-86049500D01*
X127794508Y-86049500D01*
X127796059Y-86059293D01*
X127797841Y-86070541D01*
X127814354Y-86174804D01*
X127871950Y-86287842D01*
X127961658Y-86377550D01*
X128074696Y-86435146D01*
X128084485Y-86436696D01*
X128084487Y-86436697D01*
X128190207Y-86453441D01*
X128200000Y-86454992D01*
X128209793Y-86453441D01*
X128315513Y-86436697D01*
X128315515Y-86436696D01*
X128325304Y-86435146D01*
X128438342Y-86377550D01*
X128528050Y-86287842D01*
X128585646Y-86174804D01*
X128602160Y-86070541D01*
X128603941Y-86059293D01*
X128605492Y-86049500D01*
X128587626Y-85936697D01*
X128587197Y-85933987D01*
X128587196Y-85933985D01*
X128585646Y-85924196D01*
X128528050Y-85811158D01*
X128438342Y-85721450D01*
X128325304Y-85663854D01*
X128315515Y-85662304D01*
X128315513Y-85662303D01*
X128209793Y-85645559D01*
X128200000Y-85644008D01*
X128190207Y-85645559D01*
X128084487Y-85662303D01*
X128084485Y-85662304D01*
X128074696Y-85663854D01*
X127961658Y-85721450D01*
X127871950Y-85811158D01*
X127814354Y-85924196D01*
X127812804Y-85933985D01*
X127812803Y-85933987D01*
X127812374Y-85936697D01*
X127794508Y-86049500D01*
X115300500Y-86049500D01*
X115300500Y-85400000D01*
X122369008Y-85400000D01*
X122370559Y-85409793D01*
X122385177Y-85502086D01*
X122388854Y-85525304D01*
X122446450Y-85638342D01*
X122536158Y-85728050D01*
X122649196Y-85785646D01*
X122658985Y-85787196D01*
X122658987Y-85787197D01*
X122764707Y-85803941D01*
X122774500Y-85805492D01*
X122784293Y-85803941D01*
X122890013Y-85787197D01*
X122890015Y-85787196D01*
X122899804Y-85785646D01*
X123012842Y-85728050D01*
X123102550Y-85638342D01*
X123160146Y-85525304D01*
X123163824Y-85502086D01*
X123178441Y-85409793D01*
X123179992Y-85400000D01*
X123164811Y-85304147D01*
X123161697Y-85284487D01*
X123161696Y-85284485D01*
X123160146Y-85274696D01*
X123102550Y-85161658D01*
X123012842Y-85071950D01*
X122899804Y-85014354D01*
X122890015Y-85012804D01*
X122890013Y-85012803D01*
X122784293Y-84996059D01*
X122774500Y-84994508D01*
X122764707Y-84996059D01*
X122658987Y-85012803D01*
X122658985Y-85012804D01*
X122649196Y-85014354D01*
X122536158Y-85071950D01*
X122446450Y-85161658D01*
X122388854Y-85274696D01*
X122387304Y-85284485D01*
X122387303Y-85284487D01*
X122384189Y-85304147D01*
X122369008Y-85400000D01*
X115300500Y-85400000D01*
X115300500Y-84800000D01*
X125244508Y-84800000D01*
X125246059Y-84809793D01*
X125262193Y-84911658D01*
X125264354Y-84925304D01*
X125321950Y-85038342D01*
X125411658Y-85128050D01*
X125524696Y-85185646D01*
X125534485Y-85187196D01*
X125534487Y-85187197D01*
X125640207Y-85203941D01*
X125650000Y-85205492D01*
X125659793Y-85203941D01*
X125765513Y-85187197D01*
X125765515Y-85187196D01*
X125775304Y-85185646D01*
X125784140Y-85181144D01*
X125851975Y-85146581D01*
X125921751Y-85133477D01*
X125987536Y-85160177D01*
X126028442Y-85218205D01*
X126033626Y-85239137D01*
X126039354Y-85275304D01*
X126096950Y-85388342D01*
X126186658Y-85478050D01*
X126299696Y-85535646D01*
X126309485Y-85537196D01*
X126309487Y-85537197D01*
X126415207Y-85553941D01*
X126425000Y-85555492D01*
X126434793Y-85553941D01*
X126540513Y-85537197D01*
X126540515Y-85537196D01*
X126550304Y-85535646D01*
X126642853Y-85488490D01*
X126712628Y-85475386D01*
X126778413Y-85502086D01*
X126819320Y-85560113D01*
X126824504Y-85581046D01*
X126837670Y-85664173D01*
X126839354Y-85674804D01*
X126896950Y-85787842D01*
X126986658Y-85877550D01*
X127099696Y-85935146D01*
X127109485Y-85936696D01*
X127109487Y-85936697D01*
X127215207Y-85953441D01*
X127225000Y-85954992D01*
X127234793Y-85953441D01*
X127340513Y-85936697D01*
X127340515Y-85936696D01*
X127350304Y-85935146D01*
X127463342Y-85877550D01*
X127553050Y-85787842D01*
X127610646Y-85674804D01*
X127612381Y-85663854D01*
X127628941Y-85559293D01*
X127630492Y-85549500D01*
X127625109Y-85515513D01*
X127612197Y-85433987D01*
X127612196Y-85433985D01*
X127610646Y-85424196D01*
X127553050Y-85311158D01*
X127463342Y-85221450D01*
X127350304Y-85163854D01*
X127340515Y-85162304D01*
X127340513Y-85162303D01*
X127234793Y-85145559D01*
X127225000Y-85144008D01*
X127215207Y-85145559D01*
X127109487Y-85162303D01*
X127109485Y-85162304D01*
X127099696Y-85163854D01*
X127007148Y-85211010D01*
X126937372Y-85224114D01*
X126871587Y-85197414D01*
X126830680Y-85139387D01*
X126825496Y-85118454D01*
X126812197Y-85034487D01*
X126812196Y-85034485D01*
X126810646Y-85024696D01*
X126753050Y-84911658D01*
X126663342Y-84821950D01*
X126550304Y-84764354D01*
X126540515Y-84762804D01*
X126540513Y-84762803D01*
X126434793Y-84746059D01*
X126425000Y-84744508D01*
X126415207Y-84746059D01*
X126309487Y-84762803D01*
X126309485Y-84762804D01*
X126299696Y-84764354D01*
X126290861Y-84768856D01*
X126290860Y-84768856D01*
X126223025Y-84803419D01*
X126153249Y-84816523D01*
X126087464Y-84789823D01*
X126046558Y-84731795D01*
X126041374Y-84710862D01*
X126037197Y-84684488D01*
X126037197Y-84684487D01*
X126035646Y-84674696D01*
X125978050Y-84561658D01*
X125888342Y-84471950D01*
X125775304Y-84414354D01*
X125765515Y-84412804D01*
X125765513Y-84412803D01*
X125659793Y-84396059D01*
X125650000Y-84394508D01*
X125640207Y-84396059D01*
X125534487Y-84412803D01*
X125534485Y-84412804D01*
X125524696Y-84414354D01*
X125411658Y-84471950D01*
X125321950Y-84561658D01*
X125264354Y-84674696D01*
X125244508Y-84800000D01*
X115300500Y-84800000D01*
X115300500Y-83065963D01*
X117994757Y-83065963D01*
X118011175Y-83261483D01*
X118065258Y-83450091D01*
X118068076Y-83455574D01*
X118152123Y-83619113D01*
X118152126Y-83619117D01*
X118154944Y-83624601D01*
X118276818Y-83778369D01*
X118281511Y-83782363D01*
X118281512Y-83782364D01*
X118417003Y-83897675D01*
X118426238Y-83905535D01*
X118431616Y-83908541D01*
X118431618Y-83908542D01*
X118463330Y-83926265D01*
X118597513Y-84001257D01*
X118784118Y-84061889D01*
X118978946Y-84085121D01*
X118985081Y-84084649D01*
X118985083Y-84084649D01*
X119168434Y-84070541D01*
X119168438Y-84070540D01*
X119174576Y-84070068D01*
X119363556Y-84017303D01*
X119538689Y-83928837D01*
X119553116Y-83917566D01*
X119680251Y-83818237D01*
X119693303Y-83808040D01*
X119699857Y-83800448D01*
X119817485Y-83664173D01*
X119817485Y-83664172D01*
X119821509Y-83659511D01*
X119918425Y-83488909D01*
X119980358Y-83302732D01*
X119987130Y-83249126D01*
X125495541Y-83249126D01*
X125525935Y-83450097D01*
X125596119Y-83640852D01*
X125599479Y-83646272D01*
X125599480Y-83646273D01*
X125699863Y-83808176D01*
X125699866Y-83808180D01*
X125703226Y-83813599D01*
X125707612Y-83818237D01*
X125801547Y-83917570D01*
X125842881Y-83961280D01*
X126009379Y-84077863D01*
X126195919Y-84158586D01*
X126220992Y-84163824D01*
X126390144Y-84199162D01*
X126390149Y-84199163D01*
X126394880Y-84200151D01*
X126399762Y-84200407D01*
X126399871Y-84200413D01*
X126399887Y-84200413D01*
X126401539Y-84200500D01*
X127550800Y-84200500D01*
X127598793Y-84195625D01*
X127695868Y-84185765D01*
X127695870Y-84185765D01*
X127702216Y-84185120D01*
X127896172Y-84124338D01*
X128073944Y-84025797D01*
X128228271Y-83893523D01*
X128352848Y-83732919D01*
X128442587Y-83550545D01*
X128451486Y-83516381D01*
X128492212Y-83360034D01*
X128492212Y-83360031D01*
X128493822Y-83353852D01*
X128504459Y-83150874D01*
X128474065Y-82949903D01*
X128403881Y-82759148D01*
X128350345Y-82672802D01*
X128300137Y-82591824D01*
X128300134Y-82591820D01*
X128296774Y-82586401D01*
X128157119Y-82438720D01*
X127990621Y-82322137D01*
X127804081Y-82241414D01*
X127758053Y-82231798D01*
X127609856Y-82200838D01*
X127609851Y-82200837D01*
X127605120Y-82199849D01*
X127600238Y-82199593D01*
X127600129Y-82199587D01*
X127600113Y-82199587D01*
X127598461Y-82199500D01*
X126449200Y-82199500D01*
X126401207Y-82204375D01*
X126304132Y-82214235D01*
X126304130Y-82214235D01*
X126297784Y-82214880D01*
X126103828Y-82275662D01*
X125926056Y-82374203D01*
X125771729Y-82506477D01*
X125767822Y-82511514D01*
X125767820Y-82511516D01*
X125713331Y-82581763D01*
X125647152Y-82667081D01*
X125557413Y-82849455D01*
X125555804Y-82855633D01*
X125555803Y-82855635D01*
X125529603Y-82956220D01*
X125506178Y-83046148D01*
X125495541Y-83249126D01*
X119987130Y-83249126D01*
X120004949Y-83108071D01*
X120005341Y-83080000D01*
X119986194Y-82884728D01*
X119984413Y-82878829D01*
X119984412Y-82878824D01*
X119931265Y-82702793D01*
X119929484Y-82696894D01*
X119837370Y-82523653D01*
X119713361Y-82371602D01*
X119562180Y-82246535D01*
X119389585Y-82153213D01*
X119295869Y-82124203D01*
X119208039Y-82097015D01*
X119208036Y-82097014D01*
X119202152Y-82095193D01*
X119196027Y-82094549D01*
X119196026Y-82094549D01*
X119013147Y-82075327D01*
X119013146Y-82075327D01*
X119007019Y-82074683D01*
X118884383Y-82085844D01*
X118817759Y-82091907D01*
X118817758Y-82091907D01*
X118811618Y-82092466D01*
X118805704Y-82094207D01*
X118805702Y-82094207D01*
X118676734Y-82132165D01*
X118623393Y-82147864D01*
X118617928Y-82150721D01*
X118454972Y-82235912D01*
X118454968Y-82235915D01*
X118449512Y-82238767D01*
X118444712Y-82242627D01*
X118444711Y-82242627D01*
X118410326Y-82270273D01*
X118296600Y-82361711D01*
X118170480Y-82512016D01*
X118167516Y-82517408D01*
X118167513Y-82517412D01*
X118132136Y-82581763D01*
X118075956Y-82683954D01*
X118074095Y-82689821D01*
X118074094Y-82689823D01*
X118052103Y-82759148D01*
X118016628Y-82870978D01*
X117994757Y-83065963D01*
X115300500Y-83065963D01*
X115300500Y-80485963D01*
X127994757Y-80485963D01*
X128011175Y-80681483D01*
X128065258Y-80870091D01*
X128068076Y-80875574D01*
X128152123Y-81039113D01*
X128152126Y-81039117D01*
X128154944Y-81044601D01*
X128276818Y-81198369D01*
X128426238Y-81325535D01*
X128431616Y-81328541D01*
X128431618Y-81328542D01*
X128467932Y-81348837D01*
X128597513Y-81421257D01*
X128784118Y-81481889D01*
X128978946Y-81505121D01*
X128985081Y-81504649D01*
X128985083Y-81504649D01*
X129168434Y-81490541D01*
X129168438Y-81490540D01*
X129174576Y-81490068D01*
X129363556Y-81437303D01*
X129538689Y-81348837D01*
X129568515Y-81325535D01*
X129688453Y-81231829D01*
X129693303Y-81228040D01*
X129723084Y-81193539D01*
X129817485Y-81084173D01*
X129817485Y-81084172D01*
X129821509Y-81079511D01*
X129918425Y-80908909D01*
X129980358Y-80722732D01*
X130004949Y-80528071D01*
X130005341Y-80500000D01*
X129986194Y-80304728D01*
X129984413Y-80298829D01*
X129984412Y-80298824D01*
X129931265Y-80122793D01*
X129929484Y-80116894D01*
X129837370Y-79943653D01*
X129713361Y-79791602D01*
X129562180Y-79666535D01*
X129389585Y-79573213D01*
X129278996Y-79538980D01*
X129208039Y-79517015D01*
X129208036Y-79517014D01*
X129202152Y-79515193D01*
X129196027Y-79514549D01*
X129196026Y-79514549D01*
X129013147Y-79495327D01*
X129013146Y-79495327D01*
X129007019Y-79494683D01*
X128884383Y-79505844D01*
X128817759Y-79511907D01*
X128817758Y-79511907D01*
X128811618Y-79512466D01*
X128805704Y-79514207D01*
X128805702Y-79514207D01*
X128775283Y-79523160D01*
X128623393Y-79567864D01*
X128617928Y-79570721D01*
X128454972Y-79655912D01*
X128454968Y-79655915D01*
X128449512Y-79658767D01*
X128444712Y-79662627D01*
X128444711Y-79662627D01*
X128429944Y-79674500D01*
X128296600Y-79781711D01*
X128170480Y-79932016D01*
X128167516Y-79937408D01*
X128167513Y-79937412D01*
X128119611Y-80024546D01*
X128075956Y-80103954D01*
X128074095Y-80109821D01*
X128074094Y-80109823D01*
X128058646Y-80158521D01*
X128016628Y-80290978D01*
X127994757Y-80485963D01*
X115300500Y-80485963D01*
X115300500Y-79075000D01*
X120844750Y-79075000D01*
X120863670Y-79218709D01*
X120919139Y-79352625D01*
X121007379Y-79467621D01*
X121122375Y-79555861D01*
X121256291Y-79611330D01*
X121400000Y-79630250D01*
X121543709Y-79611330D01*
X121574761Y-79598468D01*
X121645351Y-79590879D01*
X121708838Y-79622659D01*
X121745065Y-79683717D01*
X121747900Y-79698425D01*
X121763670Y-79818209D01*
X121819139Y-79952125D01*
X121907379Y-80067121D01*
X122022375Y-80155361D01*
X122156291Y-80210830D01*
X122300000Y-80229750D01*
X122443709Y-80210830D01*
X122577625Y-80155361D01*
X122692621Y-80067121D01*
X122780861Y-79952125D01*
X122836330Y-79818209D01*
X122855250Y-79674500D01*
X122836330Y-79530791D01*
X122780861Y-79396875D01*
X122692621Y-79281879D01*
X122577625Y-79193639D01*
X122443709Y-79138170D01*
X122300000Y-79119250D01*
X122156291Y-79138170D01*
X122148659Y-79141331D01*
X122148660Y-79141331D01*
X122125239Y-79151032D01*
X122054649Y-79158621D01*
X121991162Y-79126841D01*
X121954935Y-79065783D01*
X121952099Y-79051069D01*
X121944761Y-78995327D01*
X121936330Y-78931291D01*
X121880861Y-78797375D01*
X121792621Y-78682379D01*
X121677625Y-78594139D01*
X121543709Y-78538670D01*
X121400000Y-78519750D01*
X121256291Y-78538670D01*
X121122375Y-78594139D01*
X121007379Y-78682379D01*
X120919139Y-78797375D01*
X120863670Y-78931291D01*
X120844750Y-79075000D01*
X115300500Y-79075000D01*
X115300500Y-77985963D01*
X117994757Y-77985963D01*
X118011175Y-78181483D01*
X118065258Y-78370091D01*
X118068076Y-78375574D01*
X118152123Y-78539113D01*
X118152126Y-78539117D01*
X118154944Y-78544601D01*
X118276818Y-78698369D01*
X118426238Y-78825535D01*
X118431616Y-78828541D01*
X118431618Y-78828542D01*
X118467932Y-78848837D01*
X118597513Y-78921257D01*
X118784118Y-78981889D01*
X118978946Y-79005121D01*
X118985081Y-79004649D01*
X118985083Y-79004649D01*
X119168434Y-78990541D01*
X119168438Y-78990540D01*
X119174576Y-78990068D01*
X119363556Y-78937303D01*
X119538689Y-78848837D01*
X119568515Y-78825535D01*
X119688453Y-78731829D01*
X119693303Y-78728040D01*
X119723084Y-78693539D01*
X119817485Y-78584173D01*
X119817485Y-78584172D01*
X119821509Y-78579511D01*
X119845323Y-78537592D01*
X119915378Y-78414272D01*
X119918425Y-78408909D01*
X119980358Y-78222732D01*
X120004949Y-78028071D01*
X120005341Y-78000000D01*
X120003965Y-77985963D01*
X127994757Y-77985963D01*
X128011175Y-78181483D01*
X128065258Y-78370091D01*
X128068076Y-78375574D01*
X128152123Y-78539113D01*
X128152126Y-78539117D01*
X128154944Y-78544601D01*
X128276818Y-78698369D01*
X128426238Y-78825535D01*
X128431616Y-78828541D01*
X128431618Y-78828542D01*
X128467932Y-78848837D01*
X128597513Y-78921257D01*
X128784118Y-78981889D01*
X128978946Y-79005121D01*
X128985081Y-79004649D01*
X128985083Y-79004649D01*
X129168434Y-78990541D01*
X129168438Y-78990540D01*
X129174576Y-78990068D01*
X129363556Y-78937303D01*
X129538689Y-78848837D01*
X129568515Y-78825535D01*
X129688453Y-78731829D01*
X129693303Y-78728040D01*
X129723084Y-78693539D01*
X129817485Y-78584173D01*
X129817485Y-78584172D01*
X129821509Y-78579511D01*
X129845323Y-78537592D01*
X129915378Y-78414272D01*
X129918425Y-78408909D01*
X129980358Y-78222732D01*
X130004949Y-78028071D01*
X130005341Y-78000000D01*
X129986194Y-77804728D01*
X129984413Y-77798829D01*
X129984412Y-77798824D01*
X129931265Y-77622793D01*
X129929484Y-77616894D01*
X129837370Y-77443653D01*
X129713361Y-77291602D01*
X129562180Y-77166535D01*
X129389585Y-77073213D01*
X129337936Y-77057225D01*
X129278776Y-77017974D01*
X129250228Y-76952970D01*
X129261356Y-76882851D01*
X129308627Y-76829879D01*
X129338986Y-76816174D01*
X129492255Y-76770191D01*
X129501842Y-76766433D01*
X129693098Y-76672738D01*
X129701944Y-76667465D01*
X129749247Y-76633723D01*
X129757648Y-76623023D01*
X129750660Y-76609870D01*
X129012812Y-75872022D01*
X128998868Y-75864408D01*
X128997035Y-75864539D01*
X128990420Y-75868790D01*
X128246737Y-76612473D01*
X128239977Y-76624853D01*
X128245258Y-76631907D01*
X128406756Y-76726279D01*
X128416042Y-76730729D01*
X128615001Y-76806703D01*
X128624898Y-76809579D01*
X128645834Y-76813838D01*
X128708599Y-76847020D01*
X128743462Y-76908867D01*
X128739353Y-76979745D01*
X128697577Y-77037149D01*
X128656291Y-77058182D01*
X128623393Y-77067864D01*
X128617928Y-77070721D01*
X128454972Y-77155912D01*
X128454968Y-77155915D01*
X128449512Y-77158767D01*
X128444712Y-77162627D01*
X128444711Y-77162627D01*
X128410326Y-77190273D01*
X128296600Y-77281711D01*
X128170480Y-77432016D01*
X128167516Y-77437408D01*
X128167513Y-77437412D01*
X128088813Y-77580567D01*
X128075956Y-77603954D01*
X128016628Y-77790978D01*
X127994757Y-77985963D01*
X120003965Y-77985963D01*
X119986194Y-77804728D01*
X119984413Y-77798829D01*
X119984412Y-77798824D01*
X119931265Y-77622793D01*
X119929484Y-77616894D01*
X119837370Y-77443653D01*
X119713361Y-77291602D01*
X119562180Y-77166535D01*
X119389585Y-77073213D01*
X119273081Y-77037149D01*
X119208039Y-77017015D01*
X119208036Y-77017014D01*
X119202152Y-77015193D01*
X119196027Y-77014549D01*
X119196026Y-77014549D01*
X119013147Y-76995327D01*
X119013146Y-76995327D01*
X119007019Y-76994683D01*
X118884383Y-77005844D01*
X118817759Y-77011907D01*
X118817758Y-77011907D01*
X118811618Y-77012466D01*
X118805704Y-77014207D01*
X118805702Y-77014207D01*
X118727753Y-77037149D01*
X118623393Y-77067864D01*
X118617928Y-77070721D01*
X118454972Y-77155912D01*
X118454968Y-77155915D01*
X118449512Y-77158767D01*
X118444712Y-77162627D01*
X118444711Y-77162627D01*
X118410326Y-77190273D01*
X118296600Y-77281711D01*
X118170480Y-77432016D01*
X118167516Y-77437408D01*
X118167513Y-77437412D01*
X118088813Y-77580567D01*
X118075956Y-77603954D01*
X118016628Y-77790978D01*
X117994757Y-77985963D01*
X115300500Y-77985963D01*
X115300500Y-75471863D01*
X127638050Y-75471863D01*
X127650309Y-75684477D01*
X127651745Y-75694697D01*
X127698565Y-75902446D01*
X127701645Y-75912275D01*
X127781770Y-76109603D01*
X127786413Y-76118794D01*
X127866460Y-76249420D01*
X127876916Y-76258880D01*
X127885694Y-76255096D01*
X128627978Y-75512812D01*
X128634356Y-75501132D01*
X129364408Y-75501132D01*
X129364539Y-75502965D01*
X129368790Y-75509580D01*
X130110474Y-76251264D01*
X130122485Y-76257823D01*
X130143459Y-76241800D01*
X130209734Y-76216342D01*
X130279252Y-76230756D01*
X130329942Y-76280466D01*
X130345948Y-76341927D01*
X130345948Y-83316215D01*
X130344032Y-83338107D01*
X130341312Y-83353524D01*
X130343040Y-83363329D01*
X130343225Y-83365210D01*
X130343225Y-83366031D01*
X130343512Y-83368125D01*
X130357519Y-83510460D01*
X130403286Y-83661367D01*
X130406207Y-83666832D01*
X130463239Y-83773539D01*
X130477618Y-83800443D01*
X130577656Y-83922344D01*
X130699557Y-84022382D01*
X130705011Y-84025297D01*
X130705014Y-84025299D01*
X130773475Y-84061889D01*
X130838633Y-84096714D01*
X130989540Y-84142481D01*
X131073269Y-84150721D01*
X131077750Y-84151162D01*
X131084058Y-84152234D01*
X131087069Y-84153435D01*
X131093362Y-84154052D01*
X131100939Y-84154052D01*
X131113279Y-84154658D01*
X131131874Y-84156488D01*
X131133969Y-84156775D01*
X131134790Y-84156775D01*
X131136671Y-84156960D01*
X131146476Y-84158688D01*
X131161893Y-84155968D01*
X131183785Y-84154052D01*
X132146491Y-84154053D01*
X133109109Y-84154054D01*
X133131001Y-84155970D01*
X133146418Y-84158690D01*
X133156168Y-84156972D01*
X133173401Y-84158330D01*
X133188364Y-84160701D01*
X133225851Y-84172883D01*
X133245917Y-84183108D01*
X133277805Y-84206278D01*
X133293722Y-84222195D01*
X133316892Y-84254083D01*
X133327117Y-84274149D01*
X133339299Y-84311636D01*
X133341670Y-84326599D01*
X133343028Y-84343832D01*
X133341310Y-84353582D01*
X133343225Y-84364436D01*
X133344030Y-84369000D01*
X133345946Y-84390891D01*
X133345948Y-86816215D01*
X133344032Y-86838107D01*
X133341312Y-86853524D01*
X133343040Y-86863329D01*
X133343225Y-86865210D01*
X133343225Y-86866031D01*
X133343512Y-86868125D01*
X133357519Y-87010460D01*
X133403286Y-87161367D01*
X133477618Y-87300443D01*
X133577656Y-87422344D01*
X133699557Y-87522382D01*
X133705011Y-87525297D01*
X133705014Y-87525299D01*
X133803421Y-87577894D01*
X133838633Y-87596714D01*
X133989540Y-87642481D01*
X134077750Y-87651162D01*
X134084058Y-87652234D01*
X134087069Y-87653435D01*
X134093362Y-87654052D01*
X134100939Y-87654052D01*
X134113279Y-87654658D01*
X134131874Y-87656488D01*
X134133969Y-87656775D01*
X134134790Y-87656775D01*
X134136671Y-87656960D01*
X134146476Y-87658688D01*
X134161893Y-87655968D01*
X134183785Y-87654052D01*
X141109151Y-87654052D01*
X141131018Y-87655964D01*
X141146476Y-87658688D01*
X141155070Y-87657172D01*
X141159117Y-87656773D01*
X141159328Y-87656773D01*
X141159858Y-87656700D01*
X141297247Y-87643156D01*
X141297252Y-87643155D01*
X141303409Y-87642548D01*
X141404284Y-87611937D01*
X141448390Y-87598553D01*
X141448391Y-87598552D01*
X141454308Y-87596757D01*
X141593374Y-87522408D01*
X141598155Y-87518484D01*
X141710477Y-87426287D01*
X141710481Y-87426283D01*
X141715264Y-87422357D01*
X141719195Y-87417566D01*
X141811365Y-87305235D01*
X141811369Y-87305230D01*
X141815292Y-87300448D01*
X141889615Y-87161368D01*
X141935377Y-87010460D01*
X141935982Y-87004307D01*
X141935985Y-87004294D01*
X141944058Y-86922241D01*
X141945130Y-86915936D01*
X141946329Y-86912931D01*
X141946946Y-86906638D01*
X141946946Y-86899061D01*
X141947552Y-86886722D01*
X141949382Y-86868125D01*
X141949668Y-86866035D01*
X141949668Y-86865218D01*
X141949854Y-86863327D01*
X141951582Y-86853524D01*
X141948862Y-86838107D01*
X141946946Y-86816215D01*
X141946947Y-85065963D01*
X147994757Y-85065963D01*
X148011175Y-85261483D01*
X148065258Y-85450091D01*
X148068076Y-85455574D01*
X148152123Y-85619113D01*
X148152126Y-85619117D01*
X148154944Y-85624601D01*
X148276818Y-85778369D01*
X148281511Y-85782363D01*
X148281512Y-85782364D01*
X148393356Y-85877550D01*
X148426238Y-85905535D01*
X148431616Y-85908541D01*
X148431618Y-85908542D01*
X148467932Y-85928837D01*
X148597513Y-86001257D01*
X148784118Y-86061889D01*
X148978946Y-86085121D01*
X148985081Y-86084649D01*
X148985083Y-86084649D01*
X149168434Y-86070541D01*
X149168438Y-86070540D01*
X149174576Y-86070068D01*
X149363556Y-86017303D01*
X149538689Y-85928837D01*
X149544630Y-85924196D01*
X149688453Y-85811829D01*
X149693303Y-85808040D01*
X149710738Y-85787842D01*
X149817485Y-85664173D01*
X149817485Y-85664172D01*
X149821509Y-85659511D01*
X149918425Y-85488909D01*
X149980358Y-85302732D01*
X150004949Y-85108071D01*
X150005341Y-85080000D01*
X149986194Y-84884728D01*
X149984413Y-84878829D01*
X149984412Y-84878824D01*
X149931265Y-84702793D01*
X149929484Y-84696894D01*
X149837370Y-84523653D01*
X149713361Y-84371602D01*
X149562180Y-84246535D01*
X149389585Y-84153213D01*
X149286297Y-84121240D01*
X149208039Y-84097015D01*
X149208036Y-84097014D01*
X149202152Y-84095193D01*
X149196027Y-84094549D01*
X149196026Y-84094549D01*
X149013147Y-84075327D01*
X149013146Y-84075327D01*
X149007019Y-84074683D01*
X148884383Y-84085844D01*
X148817759Y-84091907D01*
X148817758Y-84091907D01*
X148811618Y-84092466D01*
X148805704Y-84094207D01*
X148805702Y-84094207D01*
X148790936Y-84098553D01*
X148623393Y-84147864D01*
X148617928Y-84150721D01*
X148454972Y-84235912D01*
X148454968Y-84235915D01*
X148449512Y-84238767D01*
X148444712Y-84242627D01*
X148444711Y-84242627D01*
X148430463Y-84254083D01*
X148296600Y-84361711D01*
X148170480Y-84512016D01*
X148167516Y-84517408D01*
X148167513Y-84517412D01*
X148147043Y-84554647D01*
X148075956Y-84683954D01*
X148016628Y-84870978D01*
X147994757Y-85065963D01*
X141946947Y-85065963D01*
X141946948Y-84390891D01*
X141948864Y-84369000D01*
X141949669Y-84364436D01*
X141951584Y-84353582D01*
X141949866Y-84343835D01*
X141951224Y-84326606D01*
X141953592Y-84311662D01*
X141965778Y-84274168D01*
X141975991Y-84254129D01*
X141999162Y-84222242D01*
X142015065Y-84206341D01*
X142046963Y-84183170D01*
X142047085Y-84183108D01*
X142067001Y-84172963D01*
X142104491Y-84160785D01*
X142120039Y-84158324D01*
X142136853Y-84157002D01*
X142146418Y-84158690D01*
X142157273Y-84156777D01*
X142157274Y-84156777D01*
X142160871Y-84156143D01*
X142161876Y-84155966D01*
X142183743Y-84154054D01*
X144109151Y-84154052D01*
X144131018Y-84155964D01*
X144146476Y-84158688D01*
X144155070Y-84157172D01*
X144159117Y-84156773D01*
X144159328Y-84156773D01*
X144159858Y-84156700D01*
X144297247Y-84143156D01*
X144297252Y-84143155D01*
X144303409Y-84142548D01*
X144404284Y-84111937D01*
X144448390Y-84098553D01*
X144448391Y-84098552D01*
X144454308Y-84096757D01*
X144593374Y-84022408D01*
X144598155Y-84018484D01*
X144710477Y-83926287D01*
X144710481Y-83926283D01*
X144715264Y-83922357D01*
X144719195Y-83917566D01*
X144811365Y-83805235D01*
X144811369Y-83805230D01*
X144815292Y-83800448D01*
X144823660Y-83784790D01*
X144886699Y-83666825D01*
X144886700Y-83666824D01*
X144889615Y-83661368D01*
X144894193Y-83646273D01*
X144918944Y-83564649D01*
X144935377Y-83510460D01*
X144935982Y-83504307D01*
X144935985Y-83504294D01*
X144944058Y-83422241D01*
X144945130Y-83415936D01*
X144946329Y-83412931D01*
X144946946Y-83406638D01*
X144946946Y-83399061D01*
X144947552Y-83386722D01*
X144949382Y-83368125D01*
X144949668Y-83366035D01*
X144949668Y-83365218D01*
X144949854Y-83363327D01*
X144951582Y-83353524D01*
X144948862Y-83338107D01*
X144946946Y-83316215D01*
X144946946Y-83065963D01*
X154994757Y-83065963D01*
X155011175Y-83261483D01*
X155065258Y-83450091D01*
X155068076Y-83455574D01*
X155152123Y-83619113D01*
X155152126Y-83619117D01*
X155154944Y-83624601D01*
X155276818Y-83778369D01*
X155281511Y-83782363D01*
X155281512Y-83782364D01*
X155417003Y-83897675D01*
X155426238Y-83905535D01*
X155431616Y-83908541D01*
X155431618Y-83908542D01*
X155463330Y-83926265D01*
X155597513Y-84001257D01*
X155784118Y-84061889D01*
X155978946Y-84085121D01*
X155985081Y-84084649D01*
X155985083Y-84084649D01*
X156168434Y-84070541D01*
X156168438Y-84070540D01*
X156174576Y-84070068D01*
X156363556Y-84017303D01*
X156538689Y-83928837D01*
X156553116Y-83917566D01*
X156680251Y-83818237D01*
X156693303Y-83808040D01*
X156699857Y-83800448D01*
X156817485Y-83664173D01*
X156817485Y-83664172D01*
X156821509Y-83659511D01*
X156918425Y-83488909D01*
X156980358Y-83302732D01*
X157004949Y-83108071D01*
X157005341Y-83080000D01*
X156986194Y-82884728D01*
X156984413Y-82878829D01*
X156984412Y-82878824D01*
X156931265Y-82702793D01*
X156929484Y-82696894D01*
X156837370Y-82523653D01*
X156713361Y-82371602D01*
X156562180Y-82246535D01*
X156389585Y-82153213D01*
X156295869Y-82124203D01*
X156208039Y-82097015D01*
X156208036Y-82097014D01*
X156202152Y-82095193D01*
X156196027Y-82094549D01*
X156196026Y-82094549D01*
X156013147Y-82075327D01*
X156013146Y-82075327D01*
X156007019Y-82074683D01*
X155884383Y-82085844D01*
X155817759Y-82091907D01*
X155817758Y-82091907D01*
X155811618Y-82092466D01*
X155805704Y-82094207D01*
X155805702Y-82094207D01*
X155676734Y-82132165D01*
X155623393Y-82147864D01*
X155617928Y-82150721D01*
X155454972Y-82235912D01*
X155454968Y-82235915D01*
X155449512Y-82238767D01*
X155444712Y-82242627D01*
X155444711Y-82242627D01*
X155410326Y-82270273D01*
X155296600Y-82361711D01*
X155170480Y-82512016D01*
X155167516Y-82517408D01*
X155167513Y-82517412D01*
X155132136Y-82581763D01*
X155075956Y-82683954D01*
X155074095Y-82689821D01*
X155074094Y-82689823D01*
X155052103Y-82759148D01*
X155016628Y-82870978D01*
X154994757Y-83065963D01*
X144946946Y-83065963D01*
X144946946Y-79985963D01*
X147994757Y-79985963D01*
X148011175Y-80181483D01*
X148065258Y-80370091D01*
X148068076Y-80375574D01*
X148152123Y-80539113D01*
X148152126Y-80539117D01*
X148154944Y-80544601D01*
X148276818Y-80698369D01*
X148281511Y-80702363D01*
X148281512Y-80702364D01*
X148312321Y-80728584D01*
X148426238Y-80825535D01*
X148431616Y-80828541D01*
X148431618Y-80828542D01*
X148467932Y-80848837D01*
X148597513Y-80921257D01*
X148784118Y-80981889D01*
X148978946Y-81005121D01*
X148985081Y-81004649D01*
X148985083Y-81004649D01*
X149168434Y-80990541D01*
X149168438Y-80990540D01*
X149174576Y-80990068D01*
X149363556Y-80937303D01*
X149538689Y-80848837D01*
X149568515Y-80825535D01*
X149688453Y-80731829D01*
X149693303Y-80728040D01*
X149703167Y-80716613D01*
X149817485Y-80584173D01*
X149817485Y-80584172D01*
X149821509Y-80579511D01*
X149918425Y-80408909D01*
X149980358Y-80222732D01*
X150004949Y-80028071D01*
X150005341Y-80000000D01*
X149986194Y-79804728D01*
X149984413Y-79798829D01*
X149984412Y-79798824D01*
X149931265Y-79622793D01*
X149929484Y-79616894D01*
X149837370Y-79443653D01*
X149713361Y-79291602D01*
X149562180Y-79166535D01*
X149389585Y-79073213D01*
X149295869Y-79044203D01*
X149208039Y-79017015D01*
X149208036Y-79017014D01*
X149202152Y-79015193D01*
X149196027Y-79014549D01*
X149196026Y-79014549D01*
X149013147Y-78995327D01*
X149013146Y-78995327D01*
X149007019Y-78994683D01*
X148884383Y-79005844D01*
X148817759Y-79011907D01*
X148817758Y-79011907D01*
X148811618Y-79012466D01*
X148805704Y-79014207D01*
X148805702Y-79014207D01*
X148680457Y-79051069D01*
X148623393Y-79067864D01*
X148617928Y-79070721D01*
X148454972Y-79155912D01*
X148454968Y-79155915D01*
X148449512Y-79158767D01*
X148444712Y-79162627D01*
X148444711Y-79162627D01*
X148410326Y-79190273D01*
X148296600Y-79281711D01*
X148170480Y-79432016D01*
X148167516Y-79437408D01*
X148167513Y-79437412D01*
X148136028Y-79494683D01*
X148075956Y-79603954D01*
X148016628Y-79790978D01*
X147994757Y-79985963D01*
X144946946Y-79985963D01*
X144946946Y-77985963D01*
X154994757Y-77985963D01*
X155011175Y-78181483D01*
X155065258Y-78370091D01*
X155068076Y-78375574D01*
X155152123Y-78539113D01*
X155152126Y-78539117D01*
X155154944Y-78544601D01*
X155276818Y-78698369D01*
X155426238Y-78825535D01*
X155431616Y-78828541D01*
X155431618Y-78828542D01*
X155467932Y-78848837D01*
X155597513Y-78921257D01*
X155784118Y-78981889D01*
X155978946Y-79005121D01*
X155985081Y-79004649D01*
X155985083Y-79004649D01*
X156168434Y-78990541D01*
X156168438Y-78990540D01*
X156174576Y-78990068D01*
X156363556Y-78937303D01*
X156538689Y-78848837D01*
X156568515Y-78825535D01*
X156688453Y-78731829D01*
X156693303Y-78728040D01*
X156723084Y-78693539D01*
X156817485Y-78584173D01*
X156817485Y-78584172D01*
X156821509Y-78579511D01*
X156845323Y-78537592D01*
X156915378Y-78414272D01*
X156918425Y-78408909D01*
X156980358Y-78222732D01*
X157004949Y-78028071D01*
X157005341Y-78000000D01*
X156986194Y-77804728D01*
X156984413Y-77798829D01*
X156984412Y-77798824D01*
X156931265Y-77622793D01*
X156929484Y-77616894D01*
X156837370Y-77443653D01*
X156713361Y-77291602D01*
X156562180Y-77166535D01*
X156389585Y-77073213D01*
X156273081Y-77037149D01*
X156208039Y-77017015D01*
X156208036Y-77017014D01*
X156202152Y-77015193D01*
X156196027Y-77014549D01*
X156196026Y-77014549D01*
X156013147Y-76995327D01*
X156013146Y-76995327D01*
X156007019Y-76994683D01*
X155884383Y-77005844D01*
X155817759Y-77011907D01*
X155817758Y-77011907D01*
X155811618Y-77012466D01*
X155805704Y-77014207D01*
X155805702Y-77014207D01*
X155727753Y-77037149D01*
X155623393Y-77067864D01*
X155617928Y-77070721D01*
X155454972Y-77155912D01*
X155454968Y-77155915D01*
X155449512Y-77158767D01*
X155444712Y-77162627D01*
X155444711Y-77162627D01*
X155410326Y-77190273D01*
X155296600Y-77281711D01*
X155170480Y-77432016D01*
X155167516Y-77437408D01*
X155167513Y-77437412D01*
X155088813Y-77580567D01*
X155075956Y-77603954D01*
X155016628Y-77790978D01*
X154994757Y-77985963D01*
X144946946Y-77985963D01*
X144946946Y-76044853D01*
X148239977Y-76044853D01*
X148245258Y-76051907D01*
X148406756Y-76146279D01*
X148416042Y-76150729D01*
X148615001Y-76226703D01*
X148624899Y-76229579D01*
X148833595Y-76272038D01*
X148843823Y-76273257D01*
X149056650Y-76281062D01*
X149066936Y-76280595D01*
X149278185Y-76253534D01*
X149288262Y-76251392D01*
X149492255Y-76190191D01*
X149501842Y-76186433D01*
X149693098Y-76092738D01*
X149701944Y-76087465D01*
X149749247Y-76053723D01*
X149757648Y-76043023D01*
X149750660Y-76029870D01*
X149012812Y-75292022D01*
X148998868Y-75284408D01*
X148997035Y-75284539D01*
X148990420Y-75288790D01*
X148246737Y-76032473D01*
X148239977Y-76044853D01*
X144946946Y-76044853D01*
X144946946Y-74891863D01*
X147638050Y-74891863D01*
X147650309Y-75104477D01*
X147651745Y-75114697D01*
X147698565Y-75322446D01*
X147701645Y-75332275D01*
X147781770Y-75529603D01*
X147786413Y-75538794D01*
X147866460Y-75669420D01*
X147876916Y-75678880D01*
X147885694Y-75675096D01*
X148627978Y-74932812D01*
X148634356Y-74921132D01*
X149364408Y-74921132D01*
X149364539Y-74922965D01*
X149368790Y-74929580D01*
X150110474Y-75671264D01*
X150122484Y-75677823D01*
X150134223Y-75668855D01*
X150165004Y-75626019D01*
X150170315Y-75617180D01*
X150264670Y-75426267D01*
X150268469Y-75416672D01*
X150330376Y-75212915D01*
X150332555Y-75202834D01*
X150360590Y-74989887D01*
X150361109Y-74983212D01*
X150362572Y-74923364D01*
X150362378Y-74916646D01*
X150344781Y-74702604D01*
X150343096Y-74692424D01*
X150291214Y-74485875D01*
X150287894Y-74476124D01*
X150202972Y-74280814D01*
X150198105Y-74271739D01*
X150133063Y-74171197D01*
X150122377Y-74161995D01*
X150112812Y-74166398D01*
X149372022Y-74907188D01*
X149364408Y-74921132D01*
X148634356Y-74921132D01*
X148635592Y-74918868D01*
X148635461Y-74917035D01*
X148631210Y-74910420D01*
X147889849Y-74169059D01*
X147878313Y-74162759D01*
X147866031Y-74172382D01*
X147818089Y-74242662D01*
X147813004Y-74251613D01*
X147723338Y-74444783D01*
X147719775Y-74454470D01*
X147662864Y-74659681D01*
X147660933Y-74669800D01*
X147638302Y-74881574D01*
X147638050Y-74891863D01*
X144946946Y-74891863D01*
X144946946Y-73796427D01*
X148241223Y-73796427D01*
X148247968Y-73808758D01*
X148987188Y-74547978D01*
X149001132Y-74555592D01*
X149002965Y-74555461D01*
X149009580Y-74551210D01*
X149515937Y-74044853D01*
X155239977Y-74044853D01*
X155245258Y-74051907D01*
X155406756Y-74146279D01*
X155416042Y-74150729D01*
X155615001Y-74226703D01*
X155624899Y-74229579D01*
X155833595Y-74272038D01*
X155843823Y-74273257D01*
X156056650Y-74281062D01*
X156066936Y-74280595D01*
X156278185Y-74253534D01*
X156288262Y-74251392D01*
X156492255Y-74190191D01*
X156501842Y-74186433D01*
X156693098Y-74092738D01*
X156701944Y-74087465D01*
X156749247Y-74053723D01*
X156757648Y-74043023D01*
X156750660Y-74029870D01*
X156012812Y-73292022D01*
X155998868Y-73284408D01*
X155997035Y-73284539D01*
X155990420Y-73288790D01*
X155246737Y-74032473D01*
X155239977Y-74044853D01*
X149515937Y-74044853D01*
X149753389Y-73807401D01*
X149760410Y-73794544D01*
X149753611Y-73785213D01*
X149749554Y-73782518D01*
X149563117Y-73679599D01*
X149553705Y-73675369D01*
X149352959Y-73604280D01*
X149342989Y-73601646D01*
X149133327Y-73564301D01*
X149123073Y-73563331D01*
X148910116Y-73560728D01*
X148899832Y-73561448D01*
X148689321Y-73593661D01*
X148679293Y-73596050D01*
X148476868Y-73662212D01*
X148467359Y-73666209D01*
X148278466Y-73764540D01*
X148269734Y-73770039D01*
X148249677Y-73785099D01*
X148241223Y-73796427D01*
X144946946Y-73796427D01*
X144946946Y-72891863D01*
X154638050Y-72891863D01*
X154650309Y-73104477D01*
X154651745Y-73114697D01*
X154698565Y-73322446D01*
X154701645Y-73332275D01*
X154781770Y-73529603D01*
X154786413Y-73538794D01*
X154866460Y-73669420D01*
X154876916Y-73678880D01*
X154885694Y-73675096D01*
X155627978Y-72932812D01*
X155634356Y-72921132D01*
X156364408Y-72921132D01*
X156364539Y-72922965D01*
X156368790Y-72929580D01*
X157110474Y-73671264D01*
X157122484Y-73677823D01*
X157134223Y-73668855D01*
X157165004Y-73626019D01*
X157170315Y-73617180D01*
X157264670Y-73426267D01*
X157268469Y-73416672D01*
X157330376Y-73212915D01*
X157332555Y-73202834D01*
X157360590Y-72989887D01*
X157361109Y-72983212D01*
X157362572Y-72923364D01*
X157362378Y-72916646D01*
X157344781Y-72702604D01*
X157343096Y-72692424D01*
X157291214Y-72485875D01*
X157287894Y-72476124D01*
X157202972Y-72280814D01*
X157198105Y-72271739D01*
X157133063Y-72171197D01*
X157122377Y-72161995D01*
X157112812Y-72166398D01*
X156372022Y-72907188D01*
X156364408Y-72921132D01*
X155634356Y-72921132D01*
X155635592Y-72918868D01*
X155635461Y-72917035D01*
X155631210Y-72910420D01*
X154889849Y-72169059D01*
X154878313Y-72162759D01*
X154866031Y-72172382D01*
X154818089Y-72242662D01*
X154813004Y-72251613D01*
X154723338Y-72444783D01*
X154719775Y-72454470D01*
X154662864Y-72659681D01*
X154660933Y-72669800D01*
X154638302Y-72881574D01*
X154638050Y-72891863D01*
X144946946Y-72891863D01*
X144946946Y-72390849D01*
X144948858Y-72368981D01*
X144949669Y-72364379D01*
X144949669Y-72364378D01*
X144951582Y-72353524D01*
X144949853Y-72343723D01*
X144949667Y-72341837D01*
X144949667Y-72341013D01*
X144949381Y-72338930D01*
X144939264Y-72236307D01*
X144935351Y-72196610D01*
X144889572Y-72045727D01*
X144823616Y-71922344D01*
X144818157Y-71912131D01*
X144818155Y-71912128D01*
X144815239Y-71906673D01*
X144760609Y-71840108D01*
X144724760Y-71796427D01*
X155241223Y-71796427D01*
X155247968Y-71808758D01*
X155987188Y-72547978D01*
X156001132Y-72555592D01*
X156002965Y-72555461D01*
X156009580Y-72551210D01*
X156753389Y-71807401D01*
X156760410Y-71794544D01*
X156753611Y-71785213D01*
X156749554Y-71782518D01*
X156563117Y-71679599D01*
X156553705Y-71675369D01*
X156352959Y-71604280D01*
X156342989Y-71601646D01*
X156133327Y-71564301D01*
X156123073Y-71563331D01*
X155910116Y-71560728D01*
X155899832Y-71561448D01*
X155689321Y-71593661D01*
X155679293Y-71596050D01*
X155476868Y-71662212D01*
X155467359Y-71666209D01*
X155278466Y-71764540D01*
X155269734Y-71770039D01*
X155249677Y-71785099D01*
X155241223Y-71796427D01*
X144724760Y-71796427D01*
X144719133Y-71789570D01*
X144715210Y-71784790D01*
X144593327Y-71684761D01*
X144587872Y-71681845D01*
X144587869Y-71681843D01*
X144459730Y-71613345D01*
X144459729Y-71613345D01*
X144454273Y-71610428D01*
X144303390Y-71564649D01*
X144297234Y-71564042D01*
X144297228Y-71564041D01*
X144215163Y-71555952D01*
X144208853Y-71554879D01*
X144205825Y-71553671D01*
X144199532Y-71553054D01*
X144191959Y-71553054D01*
X144179603Y-71552446D01*
X144163500Y-71550859D01*
X144161066Y-71550619D01*
X144158984Y-71550333D01*
X144158163Y-71550333D01*
X144156277Y-71550147D01*
X144146476Y-71548418D01*
X144135621Y-71550331D01*
X144131019Y-71551142D01*
X144109151Y-71553054D01*
X143146363Y-71553053D01*
X142183749Y-71553052D01*
X142161883Y-71551140D01*
X142146419Y-71548415D01*
X142136672Y-71550135D01*
X142119445Y-71548781D01*
X142112939Y-71547751D01*
X142104492Y-71546414D01*
X142066994Y-71534233D01*
X142046948Y-71524020D01*
X142015056Y-71500848D01*
X141999153Y-71484945D01*
X141975980Y-71453051D01*
X141965768Y-71433008D01*
X141953587Y-71395514D01*
X141951218Y-71380550D01*
X141949864Y-71363329D01*
X141951584Y-71353582D01*
X141948860Y-71338124D01*
X141946948Y-71316257D01*
X141946947Y-70500000D01*
X146369819Y-70500000D01*
X146388426Y-70617482D01*
X146442427Y-70723465D01*
X146526535Y-70807573D01*
X146632518Y-70861574D01*
X146750000Y-70880181D01*
X146867482Y-70861574D01*
X146973465Y-70807573D01*
X147057573Y-70723465D01*
X147111574Y-70617482D01*
X147130181Y-70500000D01*
X147111574Y-70382518D01*
X147057573Y-70276535D01*
X146973465Y-70192427D01*
X146867482Y-70138426D01*
X146750000Y-70119819D01*
X146632518Y-70138426D01*
X146526535Y-70192427D01*
X146442427Y-70276535D01*
X146388426Y-70382518D01*
X146369819Y-70500000D01*
X141946947Y-70500000D01*
X141946945Y-68890849D01*
X141948857Y-68868981D01*
X141949668Y-68864379D01*
X141949668Y-68864378D01*
X141951581Y-68853524D01*
X141949852Y-68843723D01*
X141949666Y-68841837D01*
X141949666Y-68841013D01*
X141949380Y-68838930D01*
X141935957Y-68702771D01*
X141935350Y-68696610D01*
X141889571Y-68545728D01*
X141815239Y-68406674D01*
X141715209Y-68284791D01*
X141593326Y-68184761D01*
X141454272Y-68110429D01*
X141303390Y-68064650D01*
X141250687Y-68059455D01*
X141215168Y-68055953D01*
X141208854Y-68054879D01*
X141205825Y-68053671D01*
X141199532Y-68053054D01*
X141191949Y-68053054D01*
X141179592Y-68052446D01*
X141167887Y-68051293D01*
X141161067Y-68050620D01*
X141158985Y-68050334D01*
X141158163Y-68050334D01*
X141156277Y-68050148D01*
X141146476Y-68048419D01*
X141131023Y-68051142D01*
X141109157Y-68053054D01*
X134183785Y-68053054D01*
X134161893Y-68051138D01*
X134160147Y-68050830D01*
X134146476Y-68048418D01*
X134135623Y-68050330D01*
X134134316Y-68050330D01*
X134130671Y-68050830D01*
X134114245Y-68052446D01*
X133995723Y-68064108D01*
X133995719Y-68064109D01*
X133989558Y-68064715D01*
X133899453Y-68092039D01*
X133844590Y-68108676D01*
X133844588Y-68108677D01*
X133838668Y-68110472D01*
X133699604Y-68184786D01*
X133694822Y-68188710D01*
X133582506Y-68280868D01*
X133577710Y-68284803D01*
X133477670Y-68406678D01*
X133403330Y-68545728D01*
X133401533Y-68551650D01*
X133367470Y-68663904D01*
X133357545Y-68696610D01*
X133356938Y-68702765D01*
X133356938Y-68702766D01*
X133348846Y-68784844D01*
X133347774Y-68791148D01*
X133346566Y-68794175D01*
X133345949Y-68800468D01*
X133345949Y-68808030D01*
X133345341Y-68820393D01*
X133343513Y-68838933D01*
X133343226Y-68841021D01*
X133343226Y-68841845D01*
X133343041Y-68843721D01*
X133341312Y-68853524D01*
X133343225Y-68864378D01*
X133344037Y-68868987D01*
X133345949Y-68890855D01*
X133345946Y-71316261D01*
X133344034Y-71338128D01*
X133341311Y-71353581D01*
X133343031Y-71363328D01*
X133341677Y-71380558D01*
X133339307Y-71395532D01*
X133327129Y-71433024D01*
X133316928Y-71453051D01*
X133316905Y-71453096D01*
X133293741Y-71484984D01*
X133277817Y-71500912D01*
X133245921Y-71524090D01*
X133225861Y-71534313D01*
X133188372Y-71546498D01*
X133173998Y-71548776D01*
X133156351Y-71550167D01*
X133146418Y-71548416D01*
X133133931Y-71550619D01*
X133131000Y-71551136D01*
X133109109Y-71553052D01*
X132146491Y-71553053D01*
X131183785Y-71553054D01*
X131161893Y-71551138D01*
X131161882Y-71551136D01*
X131146476Y-71548418D01*
X131135623Y-71550330D01*
X131134316Y-71550330D01*
X131130671Y-71550830D01*
X131108066Y-71553054D01*
X130995723Y-71564108D01*
X130995719Y-71564109D01*
X130989558Y-71564715D01*
X130899453Y-71592039D01*
X130844590Y-71608676D01*
X130844588Y-71608677D01*
X130838668Y-71610472D01*
X130699604Y-71684786D01*
X130577710Y-71784803D01*
X130477670Y-71906678D01*
X130474755Y-71912131D01*
X130474753Y-71912134D01*
X130469287Y-71922358D01*
X130403330Y-72045728D01*
X130357545Y-72196610D01*
X130356938Y-72202771D01*
X130356937Y-72202775D01*
X130348847Y-72284836D01*
X130347774Y-72291145D01*
X130346565Y-72294175D01*
X130345948Y-72300468D01*
X130345948Y-72308040D01*
X130345340Y-72320403D01*
X130343513Y-72338933D01*
X130343226Y-72341021D01*
X130343226Y-72341845D01*
X130343041Y-72343721D01*
X130341312Y-72353524D01*
X130343225Y-72364378D01*
X130344036Y-72368981D01*
X130345948Y-72390849D01*
X130345948Y-74659738D01*
X130325946Y-74727859D01*
X130272290Y-74774352D01*
X130202016Y-74784456D01*
X130137722Y-74755210D01*
X130122378Y-74741995D01*
X130112812Y-74746398D01*
X129372022Y-75487188D01*
X129364408Y-75501132D01*
X128634356Y-75501132D01*
X128635592Y-75498868D01*
X128635461Y-75497035D01*
X128631210Y-75490420D01*
X127889849Y-74749059D01*
X127878313Y-74742759D01*
X127866031Y-74752382D01*
X127818089Y-74822662D01*
X127813004Y-74831613D01*
X127723338Y-75024783D01*
X127719775Y-75034470D01*
X127662864Y-75239681D01*
X127660933Y-75249800D01*
X127638302Y-75461574D01*
X127638050Y-75471863D01*
X115300500Y-75471863D01*
X115300500Y-74376427D01*
X128241223Y-74376427D01*
X128247968Y-74388758D01*
X128987188Y-75127978D01*
X129001132Y-75135592D01*
X129002965Y-75135461D01*
X129009580Y-75131210D01*
X129753389Y-74387401D01*
X129760410Y-74374544D01*
X129753611Y-74365213D01*
X129749554Y-74362518D01*
X129563117Y-74259599D01*
X129553705Y-74255369D01*
X129352959Y-74184280D01*
X129342989Y-74181646D01*
X129133327Y-74144301D01*
X129123073Y-74143331D01*
X128910116Y-74140728D01*
X128899832Y-74141448D01*
X128689321Y-74173661D01*
X128679293Y-74176050D01*
X128476868Y-74242212D01*
X128467359Y-74246209D01*
X128278466Y-74344540D01*
X128269734Y-74350039D01*
X128249677Y-74365099D01*
X128241223Y-74376427D01*
X115300500Y-74376427D01*
X115300500Y-74044853D01*
X118239977Y-74044853D01*
X118245258Y-74051907D01*
X118406756Y-74146279D01*
X118416042Y-74150729D01*
X118615001Y-74226703D01*
X118624899Y-74229579D01*
X118833595Y-74272038D01*
X118843823Y-74273257D01*
X119056650Y-74281062D01*
X119066936Y-74280595D01*
X119278185Y-74253534D01*
X119288262Y-74251392D01*
X119492255Y-74190191D01*
X119501842Y-74186433D01*
X119693098Y-74092738D01*
X119701944Y-74087465D01*
X119749247Y-74053723D01*
X119757648Y-74043023D01*
X119750660Y-74029870D01*
X119012812Y-73292022D01*
X118998868Y-73284408D01*
X118997035Y-73284539D01*
X118990420Y-73288790D01*
X118246737Y-74032473D01*
X118239977Y-74044853D01*
X115300500Y-74044853D01*
X115300500Y-72891863D01*
X117638050Y-72891863D01*
X117650309Y-73104477D01*
X117651745Y-73114697D01*
X117698565Y-73322446D01*
X117701645Y-73332275D01*
X117781770Y-73529603D01*
X117786413Y-73538794D01*
X117866460Y-73669420D01*
X117876916Y-73678880D01*
X117885694Y-73675096D01*
X118627978Y-72932812D01*
X118634356Y-72921132D01*
X119364408Y-72921132D01*
X119364539Y-72922965D01*
X119368790Y-72929580D01*
X120110474Y-73671264D01*
X120122484Y-73677823D01*
X120134223Y-73668855D01*
X120165004Y-73626019D01*
X120170315Y-73617180D01*
X120264670Y-73426267D01*
X120268469Y-73416672D01*
X120330376Y-73212915D01*
X120332555Y-73202834D01*
X120360590Y-72989887D01*
X120361109Y-72983212D01*
X120362572Y-72923364D01*
X120362378Y-72916646D01*
X120356827Y-72849126D01*
X125495541Y-72849126D01*
X125525935Y-73050097D01*
X125596119Y-73240852D01*
X125599479Y-73246272D01*
X125599480Y-73246273D01*
X125699863Y-73408176D01*
X125699866Y-73408180D01*
X125703226Y-73413599D01*
X125707612Y-73418237D01*
X125812926Y-73529603D01*
X125842881Y-73561280D01*
X126009379Y-73677863D01*
X126195919Y-73758586D01*
X126224419Y-73764540D01*
X126390144Y-73799162D01*
X126390149Y-73799163D01*
X126394880Y-73800151D01*
X126399762Y-73800407D01*
X126399871Y-73800413D01*
X126399887Y-73800413D01*
X126401539Y-73800500D01*
X127550800Y-73800500D01*
X127609437Y-73794544D01*
X127695868Y-73785765D01*
X127695870Y-73785765D01*
X127702216Y-73785120D01*
X127896172Y-73724338D01*
X128073944Y-73625797D01*
X128228271Y-73493523D01*
X128352848Y-73332919D01*
X128442587Y-73150545D01*
X128468752Y-73050097D01*
X128492212Y-72960034D01*
X128492212Y-72960031D01*
X128493822Y-72953852D01*
X128504459Y-72750874D01*
X128474065Y-72549903D01*
X128403881Y-72359148D01*
X128391842Y-72339731D01*
X128300137Y-72191824D01*
X128300134Y-72191820D01*
X128296774Y-72186401D01*
X128211960Y-72096713D01*
X128161508Y-72043361D01*
X128161507Y-72043360D01*
X128157119Y-72038720D01*
X127990621Y-71922137D01*
X127804081Y-71841414D01*
X127758053Y-71831798D01*
X127609856Y-71800838D01*
X127609851Y-71800837D01*
X127605120Y-71799849D01*
X127600238Y-71799593D01*
X127600129Y-71799587D01*
X127600113Y-71799587D01*
X127598461Y-71799500D01*
X126449200Y-71799500D01*
X126401207Y-71804375D01*
X126304132Y-71814235D01*
X126304130Y-71814235D01*
X126297784Y-71814880D01*
X126103828Y-71875662D01*
X125926056Y-71974203D01*
X125771729Y-72106477D01*
X125767822Y-72111514D01*
X125767820Y-72111516D01*
X125721527Y-72171197D01*
X125647152Y-72267081D01*
X125557413Y-72449455D01*
X125555804Y-72455633D01*
X125555803Y-72455635D01*
X125529603Y-72556220D01*
X125506178Y-72646148D01*
X125495541Y-72849126D01*
X120356827Y-72849126D01*
X120344781Y-72702604D01*
X120343096Y-72692424D01*
X120291214Y-72485875D01*
X120287894Y-72476124D01*
X120202972Y-72280814D01*
X120198105Y-72271739D01*
X120133063Y-72171197D01*
X120122377Y-72161995D01*
X120112812Y-72166398D01*
X119372022Y-72907188D01*
X119364408Y-72921132D01*
X118634356Y-72921132D01*
X118635592Y-72918868D01*
X118635461Y-72917035D01*
X118631210Y-72910420D01*
X117889849Y-72169059D01*
X117878313Y-72162759D01*
X117866031Y-72172382D01*
X117818089Y-72242662D01*
X117813004Y-72251613D01*
X117723338Y-72444783D01*
X117719775Y-72454470D01*
X117662864Y-72659681D01*
X117660933Y-72669800D01*
X117638302Y-72881574D01*
X117638050Y-72891863D01*
X115300500Y-72891863D01*
X115300500Y-71796427D01*
X118241223Y-71796427D01*
X118247968Y-71808758D01*
X118987188Y-72547978D01*
X119001132Y-72555592D01*
X119002965Y-72555461D01*
X119009580Y-72551210D01*
X119753389Y-71807401D01*
X119760410Y-71794544D01*
X119753611Y-71785213D01*
X119749554Y-71782518D01*
X119563117Y-71679599D01*
X119553705Y-71675369D01*
X119352959Y-71604280D01*
X119342989Y-71601646D01*
X119133327Y-71564301D01*
X119123073Y-71563331D01*
X118910116Y-71560728D01*
X118899832Y-71561448D01*
X118689321Y-71593661D01*
X118679293Y-71596050D01*
X118476868Y-71662212D01*
X118467359Y-71666209D01*
X118278466Y-71764540D01*
X118269734Y-71770039D01*
X118249677Y-71785099D01*
X118241223Y-71796427D01*
X115300500Y-71796427D01*
X115300500Y-68037317D01*
X115302414Y-68015437D01*
X115303222Y-68010855D01*
X115305136Y-68000000D01*
X115303222Y-67989145D01*
X115303222Y-67978706D01*
X115302438Y-67965488D01*
X115317077Y-67704817D01*
X115318659Y-67690776D01*
X115324818Y-67654530D01*
X115354277Y-67481145D01*
X115366997Y-67406281D01*
X115370141Y-67392506D01*
X115418311Y-67225304D01*
X115450031Y-67115201D01*
X115454692Y-67101882D01*
X115455472Y-67100000D01*
X145994508Y-67100000D01*
X146014354Y-67225304D01*
X146071950Y-67338342D01*
X146161658Y-67428050D01*
X146274696Y-67485646D01*
X146284485Y-67487196D01*
X146284487Y-67487197D01*
X146390207Y-67503941D01*
X146400000Y-67505492D01*
X146409793Y-67503941D01*
X146515513Y-67487197D01*
X146515515Y-67487196D01*
X146525304Y-67485646D01*
X146638342Y-67428050D01*
X146728050Y-67338342D01*
X146785646Y-67225304D01*
X146805492Y-67100000D01*
X146785646Y-66974696D01*
X146728050Y-66861658D01*
X146638342Y-66771950D01*
X146525304Y-66714354D01*
X146515515Y-66712804D01*
X146515513Y-66712803D01*
X146409793Y-66696059D01*
X146400000Y-66694508D01*
X146390207Y-66696059D01*
X146284487Y-66712803D01*
X146284485Y-66712804D01*
X146274696Y-66714354D01*
X146161658Y-66771950D01*
X146071950Y-66861658D01*
X146014354Y-66974696D01*
X145994508Y-67100000D01*
X115455472Y-67100000D01*
X115565129Y-66835264D01*
X115571260Y-66822534D01*
X115710841Y-66569980D01*
X115718358Y-66558015D01*
X115885353Y-66322658D01*
X115894163Y-66311611D01*
X116086450Y-66096441D01*
X116096441Y-66086450D01*
X116193179Y-66000000D01*
X140294508Y-66000000D01*
X140296059Y-66009793D01*
X140309783Y-66096441D01*
X140314354Y-66125304D01*
X140371950Y-66238342D01*
X140461658Y-66328050D01*
X140574696Y-66385646D01*
X140584485Y-66387196D01*
X140584487Y-66387197D01*
X140690207Y-66403941D01*
X140700000Y-66405492D01*
X140709793Y-66403941D01*
X140815513Y-66387197D01*
X140815515Y-66387196D01*
X140825304Y-66385646D01*
X140938342Y-66328050D01*
X141028050Y-66238342D01*
X141085646Y-66125304D01*
X141090218Y-66096441D01*
X141103941Y-66009793D01*
X141105492Y-66000000D01*
X141085646Y-65874696D01*
X141028050Y-65761658D01*
X140938342Y-65671950D01*
X140825304Y-65614354D01*
X140815515Y-65612804D01*
X140815513Y-65612803D01*
X140709793Y-65596059D01*
X140700000Y-65594508D01*
X140690207Y-65596059D01*
X140584487Y-65612803D01*
X140584485Y-65612804D01*
X140574696Y-65614354D01*
X140461658Y-65671950D01*
X140371950Y-65761658D01*
X140314354Y-65874696D01*
X140294508Y-66000000D01*
X116193179Y-66000000D01*
X116311611Y-65894163D01*
X116322658Y-65885353D01*
X116558015Y-65718358D01*
X116569980Y-65710841D01*
X116822534Y-65571260D01*
X116835264Y-65565129D01*
X116886551Y-65543885D01*
X117101882Y-65454692D01*
X117115201Y-65450031D01*
X117306153Y-65395019D01*
X117392506Y-65370141D01*
X117406281Y-65366997D01*
X117548529Y-65342828D01*
X117690781Y-65318658D01*
X117704813Y-65317077D01*
X117965491Y-65302438D01*
X117978706Y-65303222D01*
X117989145Y-65303222D01*
X118000000Y-65305136D01*
X118015437Y-65302414D01*
X118037317Y-65300500D01*
X129962683Y-65300500D01*
X129984563Y-65302414D01*
X129989145Y-65303222D01*
X130000000Y-65305136D01*
X130003721Y-65304480D01*
X130013530Y-65303887D01*
X130013531Y-65303887D01*
X130274004Y-65288131D01*
X130274009Y-65288130D01*
X130277801Y-65287901D01*
X130551552Y-65237734D01*
X130817260Y-65154937D01*
X130820730Y-65153375D01*
X130820736Y-65153373D01*
X130944155Y-65097826D01*
X131071050Y-65040715D01*
X131074307Y-65038746D01*
X131074311Y-65038744D01*
X131305968Y-64898702D01*
X131309222Y-64896735D01*
X131321397Y-64887197D01*
X131525299Y-64727449D01*
X131525302Y-64727447D01*
X131528302Y-64725096D01*
X131725096Y-64528302D01*
X131739597Y-64509793D01*
X131747269Y-64500000D01*
X135844508Y-64500000D01*
X135846059Y-64509793D01*
X135849419Y-64531004D01*
X135864354Y-64625304D01*
X135921950Y-64738342D01*
X136011658Y-64828050D01*
X136124696Y-64885646D01*
X136134485Y-64887196D01*
X136134487Y-64887197D01*
X136240207Y-64903941D01*
X136250000Y-64905492D01*
X136259793Y-64903941D01*
X136365513Y-64887197D01*
X136365515Y-64887196D01*
X136375304Y-64885646D01*
X136488342Y-64828050D01*
X136578050Y-64738342D01*
X136635646Y-64625304D01*
X136650582Y-64531004D01*
X136653941Y-64509793D01*
X136655492Y-64500000D01*
X138344508Y-64500000D01*
X138346059Y-64509793D01*
X138349419Y-64531004D01*
X138364354Y-64625304D01*
X138421950Y-64738342D01*
X138511658Y-64828050D01*
X138624696Y-64885646D01*
X138634485Y-64887196D01*
X138634487Y-64887197D01*
X138740207Y-64903941D01*
X138750000Y-64905492D01*
X138759793Y-64903941D01*
X138865513Y-64887197D01*
X138865515Y-64887196D01*
X138875304Y-64885646D01*
X138988342Y-64828050D01*
X139078050Y-64738342D01*
X139135646Y-64625304D01*
X139150582Y-64531004D01*
X139153941Y-64509793D01*
X139155492Y-64500000D01*
X139135646Y-64374696D01*
X139078050Y-64261658D01*
X138988342Y-64171950D01*
X138875304Y-64114354D01*
X138865515Y-64112804D01*
X138865513Y-64112803D01*
X138759793Y-64096059D01*
X138750000Y-64094508D01*
X138740207Y-64096059D01*
X138634487Y-64112803D01*
X138634485Y-64112804D01*
X138624696Y-64114354D01*
X138511658Y-64171950D01*
X138421950Y-64261658D01*
X138364354Y-64374696D01*
X138344508Y-64500000D01*
X136655492Y-64500000D01*
X136635646Y-64374696D01*
X136578050Y-64261658D01*
X136488342Y-64171950D01*
X136375304Y-64114354D01*
X136365515Y-64112804D01*
X136365513Y-64112803D01*
X136259793Y-64096059D01*
X136250000Y-64094508D01*
X136240207Y-64096059D01*
X136134487Y-64112803D01*
X136134485Y-64112804D01*
X136124696Y-64114354D01*
X136011658Y-64171950D01*
X135921950Y-64261658D01*
X135864354Y-64374696D01*
X135844508Y-64500000D01*
X131747269Y-64500000D01*
X131894392Y-64312213D01*
X131894394Y-64312210D01*
X131896735Y-64309222D01*
X132015394Y-64112936D01*
X132038744Y-64074311D01*
X132038746Y-64074307D01*
X132040715Y-64071050D01*
X132154937Y-63817260D01*
X132237734Y-63551552D01*
X132287901Y-63277801D01*
X132297823Y-63113783D01*
X132303827Y-63014516D01*
X132304480Y-63003721D01*
X132305136Y-63000000D01*
X132302414Y-62984563D01*
X132300500Y-62962683D01*
X132300500Y-62504544D01*
X139353863Y-62504544D01*
X139355414Y-62514337D01*
X139361336Y-62551724D01*
X139373709Y-62629848D01*
X139431305Y-62742886D01*
X139521013Y-62832594D01*
X139634051Y-62890190D01*
X139643840Y-62891740D01*
X139643842Y-62891741D01*
X139749562Y-62908485D01*
X139759355Y-62910036D01*
X139769148Y-62908485D01*
X139874868Y-62891741D01*
X139874870Y-62891740D01*
X139884659Y-62890190D01*
X139997697Y-62832594D01*
X140087405Y-62742886D01*
X140090289Y-62737226D01*
X140144945Y-62695082D01*
X140215682Y-62689008D01*
X140278472Y-62722142D01*
X140313382Y-62783963D01*
X140315105Y-62792788D01*
X140330778Y-62891741D01*
X140333121Y-62906537D01*
X140390717Y-63019575D01*
X140480425Y-63109283D01*
X140593463Y-63166879D01*
X140603252Y-63168429D01*
X140603254Y-63168430D01*
X140708974Y-63185174D01*
X140718767Y-63186725D01*
X140728560Y-63185174D01*
X140834280Y-63168430D01*
X140834282Y-63168429D01*
X140844071Y-63166879D01*
X140957109Y-63109283D01*
X141046817Y-63019575D01*
X141104413Y-62906537D01*
X141106757Y-62891741D01*
X141122708Y-62791026D01*
X141124259Y-62781233D01*
X141119296Y-62749897D01*
X141105964Y-62665720D01*
X141105963Y-62665718D01*
X141104413Y-62655929D01*
X141046817Y-62542891D01*
X140957109Y-62453183D01*
X140844071Y-62395587D01*
X140834282Y-62394037D01*
X140834280Y-62394036D01*
X140728560Y-62377292D01*
X140718767Y-62375741D01*
X140708974Y-62377292D01*
X140603254Y-62394036D01*
X140603252Y-62394037D01*
X140593463Y-62395587D01*
X140480425Y-62453183D01*
X140390717Y-62542891D01*
X140387833Y-62548551D01*
X140333177Y-62590695D01*
X140262440Y-62596769D01*
X140199650Y-62563635D01*
X140164740Y-62501814D01*
X140163017Y-62492989D01*
X140146552Y-62389032D01*
X140146552Y-62389031D01*
X140145001Y-62379240D01*
X140087405Y-62266202D01*
X139997697Y-62176494D01*
X139884659Y-62118898D01*
X139874870Y-62117348D01*
X139874868Y-62117347D01*
X139769148Y-62100603D01*
X139759355Y-62099052D01*
X139749562Y-62100603D01*
X139643842Y-62117347D01*
X139643840Y-62117348D01*
X139634051Y-62118898D01*
X139521013Y-62176494D01*
X139431305Y-62266202D01*
X139373709Y-62379240D01*
X139372159Y-62389029D01*
X139372158Y-62389031D01*
X139371120Y-62395587D01*
X139353863Y-62504544D01*
X132300500Y-62504544D01*
X132300500Y-61978501D01*
X132320502Y-61910380D01*
X132374158Y-61863887D01*
X132444432Y-61853783D01*
X132509012Y-61883277D01*
X132544366Y-61933963D01*
X132576973Y-62020255D01*
X132669579Y-62154997D01*
X132675249Y-62160048D01*
X132675250Y-62160050D01*
X132701576Y-62183505D01*
X132791652Y-62263760D01*
X132798361Y-62267312D01*
X132798362Y-62267313D01*
X132929434Y-62336712D01*
X132929436Y-62336713D01*
X132936145Y-62340265D01*
X132987215Y-62353093D01*
X133087345Y-62378244D01*
X133087349Y-62378244D01*
X133094716Y-62380095D01*
X133102315Y-62380135D01*
X133102317Y-62380135D01*
X133170347Y-62380491D01*
X133258210Y-62380951D01*
X133265590Y-62379179D01*
X133265592Y-62379179D01*
X133409811Y-62344556D01*
X133409815Y-62344555D01*
X133417190Y-62342784D01*
X133562476Y-62267796D01*
X133568200Y-62262803D01*
X133679956Y-62165312D01*
X133679959Y-62165309D01*
X133685681Y-62160317D01*
X133779693Y-62026552D01*
X133839083Y-61874224D01*
X133855500Y-61749527D01*
X133855500Y-60859263D01*
X133875502Y-60791142D01*
X133929158Y-60744649D01*
X133999432Y-60734545D01*
X134064012Y-60764039D01*
X134102396Y-60823765D01*
X134105014Y-60834358D01*
X134109064Y-60854444D01*
X134174429Y-60982730D01*
X134271884Y-61088712D01*
X134394250Y-61164582D01*
X134532512Y-61204751D01*
X134539327Y-61205251D01*
X134540404Y-61205331D01*
X134540417Y-61205331D01*
X134542712Y-61205500D01*
X134646070Y-61205500D01*
X134650315Y-61204918D01*
X134650322Y-61204918D01*
X134709231Y-61196848D01*
X134752646Y-61190901D01*
X134807929Y-61166978D01*
X134876902Y-61137131D01*
X134876905Y-61137129D01*
X134884783Y-61133720D01*
X134996675Y-61043112D01*
X135080079Y-60925751D01*
X135112983Y-60834358D01*
X135125942Y-60798363D01*
X135125942Y-60798361D01*
X135128850Y-60790285D01*
X135130778Y-60764039D01*
X135138765Y-60655256D01*
X135139394Y-60646693D01*
X135110936Y-60505556D01*
X135045571Y-60377270D01*
X134948116Y-60271288D01*
X134913782Y-60250000D01*
X135594508Y-60250000D01*
X135614354Y-60375304D01*
X135671950Y-60488342D01*
X135761658Y-60578050D01*
X135874696Y-60635646D01*
X135884485Y-60637196D01*
X135884487Y-60637197D01*
X135990207Y-60653941D01*
X136000000Y-60655492D01*
X136009793Y-60653941D01*
X136115513Y-60637197D01*
X136115515Y-60637196D01*
X136125304Y-60635646D01*
X136238342Y-60578050D01*
X136328050Y-60488342D01*
X136385646Y-60375304D01*
X136405492Y-60250000D01*
X138594508Y-60250000D01*
X138614354Y-60375304D01*
X138671950Y-60488342D01*
X138761658Y-60578050D01*
X138874696Y-60635646D01*
X138884485Y-60637196D01*
X138884487Y-60637197D01*
X138990207Y-60653941D01*
X139000000Y-60655492D01*
X139009793Y-60653941D01*
X139115513Y-60637197D01*
X139115515Y-60637196D01*
X139125304Y-60635646D01*
X139238342Y-60578050D01*
X139328050Y-60488342D01*
X139385646Y-60375304D01*
X139405492Y-60250000D01*
X139390393Y-60154669D01*
X139387197Y-60134487D01*
X139387196Y-60134485D01*
X139385646Y-60124696D01*
X139328050Y-60011658D01*
X139238342Y-59921950D01*
X139125304Y-59864354D01*
X139115515Y-59862804D01*
X139115513Y-59862803D01*
X139009793Y-59846059D01*
X139000000Y-59844508D01*
X138990207Y-59846059D01*
X138884487Y-59862803D01*
X138884485Y-59862804D01*
X138874696Y-59864354D01*
X138761658Y-59921950D01*
X138671950Y-60011658D01*
X138614354Y-60124696D01*
X138612804Y-60134485D01*
X138612803Y-60134487D01*
X138609607Y-60154669D01*
X138594508Y-60250000D01*
X136405492Y-60250000D01*
X136390393Y-60154669D01*
X136387197Y-60134487D01*
X136387196Y-60134485D01*
X136385646Y-60124696D01*
X136328050Y-60011658D01*
X136238342Y-59921950D01*
X136125304Y-59864354D01*
X136115515Y-59862804D01*
X136115513Y-59862803D01*
X136009793Y-59846059D01*
X136000000Y-59844508D01*
X135990207Y-59846059D01*
X135884487Y-59862803D01*
X135884485Y-59862804D01*
X135874696Y-59864354D01*
X135761658Y-59921950D01*
X135671950Y-60011658D01*
X135614354Y-60124696D01*
X135612804Y-60134485D01*
X135612803Y-60134487D01*
X135609607Y-60154669D01*
X135594508Y-60250000D01*
X134913782Y-60250000D01*
X134825750Y-60195418D01*
X134687488Y-60155249D01*
X134680673Y-60154749D01*
X134679596Y-60154669D01*
X134679583Y-60154669D01*
X134677288Y-60154500D01*
X134573930Y-60154500D01*
X134569685Y-60155082D01*
X134569678Y-60155082D01*
X134510769Y-60163152D01*
X134467354Y-60169099D01*
X134459470Y-60172511D01*
X134459469Y-60172511D01*
X134343098Y-60222869D01*
X134343095Y-60222871D01*
X134335217Y-60226280D01*
X134223325Y-60316888D01*
X134139921Y-60434249D01*
X134091150Y-60569715D01*
X134088208Y-60568656D01*
X134061674Y-60617812D01*
X133999526Y-60652137D01*
X133928687Y-60647414D01*
X133871647Y-60605141D01*
X133847063Y-60544284D01*
X133843395Y-60513977D01*
X133840819Y-60492687D01*
X133783027Y-60339745D01*
X133774427Y-60327232D01*
X133694723Y-60211262D01*
X133694722Y-60211261D01*
X133690421Y-60205003D01*
X133597679Y-60122373D01*
X133560125Y-60062125D01*
X133555500Y-60028299D01*
X133555500Y-58098313D01*
X133575502Y-58030192D01*
X133597302Y-58005607D01*
X133597940Y-58005202D01*
X133710448Y-57885393D01*
X133752720Y-57808502D01*
X133785807Y-57748316D01*
X133789627Y-57741368D01*
X133799102Y-57704468D01*
X133828529Y-57589854D01*
X133828529Y-57589853D01*
X133830500Y-57582177D01*
X133830500Y-57501500D01*
X133850502Y-57433379D01*
X133904158Y-57386886D01*
X133956500Y-57375500D01*
X141043500Y-57375500D01*
X141111621Y-57395502D01*
G37*
%TD.AperFunction*%
%TD*%
M02*
