%TF.GenerationSoftware,KiCad,Pcbnew,6.0.2+dfsg-1*%
%TF.CreationDate,2022-03-12T01:01:00-08:00*%
%TF.ProjectId,redshift,72656473-6869-4667-942e-6b696361645f,0.1*%
%TF.SameCoordinates,Original*%
%TF.FileFunction,Copper,L3,Inr*%
%TF.FilePolarity,Positive*%
%FSLAX46Y46*%
G04 Gerber Fmt 4.6, Leading zero omitted, Abs format (unit mm)*
G04 Created by KiCad (PCBNEW 6.0.2+dfsg-1) date 2022-03-12 01:01:00*
%MOMM*%
%LPD*%
G01*
G04 APERTURE LIST*
%TA.AperFunction,ComponentPad*%
%ADD10C,1.700000*%
%TD*%
%TA.AperFunction,ComponentPad*%
%ADD11O,2.700000X1.700000*%
%TD*%
%TA.AperFunction,ComponentPad*%
%ADD12O,1.050000X2.100000*%
%TD*%
%TA.AperFunction,ComponentPad*%
%ADD13O,1.000000X2.000000*%
%TD*%
%TA.AperFunction,ComponentPad*%
%ADD14R,1.350000X1.350000*%
%TD*%
%TA.AperFunction,ComponentPad*%
%ADD15O,1.350000X1.350000*%
%TD*%
%TA.AperFunction,ComponentPad*%
%ADD16R,1.400000X1.400000*%
%TD*%
%TA.AperFunction,ComponentPad*%
%ADD17C,1.400000*%
%TD*%
%TA.AperFunction,ViaPad*%
%ADD18C,0.450000*%
%TD*%
%TA.AperFunction,ViaPad*%
%ADD19C,0.500000*%
%TD*%
%TA.AperFunction,ViaPad*%
%ADD20C,0.800000*%
%TD*%
%TA.AperFunction,Conductor*%
%ADD21C,0.250000*%
%TD*%
%TA.AperFunction,Conductor*%
%ADD22C,0.450000*%
%TD*%
G04 APERTURE END LIST*
D10*
%TO.N,/ENC_A*%
%TO.C,ENC1*%
X129000000Y-80500000D03*
%TO.N,/ENC_B*%
X129000000Y-78000000D03*
%TO.N,GND*%
X129000000Y-75500000D03*
D11*
%TO.N,N/C*%
X127000000Y-72800000D03*
X127000000Y-83200000D03*
%TD*%
D12*
%TO.N,/SH*%
%TO.C,J1*%
X141820000Y-61180000D03*
D13*
X141820000Y-57000000D03*
X133180000Y-57000000D03*
D12*
X133180000Y-61180000D03*
%TD*%
D10*
%TO.N,GND*%
%TO.C,SW3*%
X149000000Y-74920000D03*
%TO.N,/SW3_M_NO*%
X149000000Y-80000000D03*
%TO.N,/SW3_M_NC*%
X149000000Y-85080000D03*
%TD*%
D14*
%TO.N,GND*%
%TO.C,J3*%
X157750000Y-100500000D03*
D15*
%TO.N,/DBG_VIN*%
X157750000Y-102500000D03*
%TO.N,/RESET*%
X157750000Y-104500000D03*
%TO.N,/SWDIO*%
X157750000Y-106500000D03*
%TO.N,/SWO*%
X157750000Y-108500000D03*
%TO.N,/SWCLK*%
X157750000Y-110500000D03*
%TD*%
D16*
%TO.N,N/C*%
%TO.C,U1*%
X142850000Y-113985000D03*
D17*
X142850000Y-112205000D03*
%TO.N,GND*%
X142850000Y-110425000D03*
%TO.N,Net-(C19-Pad1)*%
X142850000Y-108645000D03*
%TO.N,Net-(C21-Pad1)*%
X142850000Y-106865000D03*
%TO.N,unconnected-(U1-Pad6)*%
X142850000Y-105085000D03*
%TO.N,Net-(C17-Pad2)*%
X142850000Y-103305000D03*
%TO.N,GND*%
X142850000Y-101525000D03*
%TO.N,/SNSR_MTN*%
X132150000Y-100635000D03*
%TO.N,/FC6_SCK*%
X132150000Y-102415000D03*
%TO.N,/FC6_MOSI*%
X132150000Y-104195000D03*
%TO.N,/FC6_MISO*%
X132150000Y-105975000D03*
%TO.N,/FC6_CS1*%
X132150000Y-107755000D03*
%TO.N,/SNSR_RST*%
X132150000Y-109535000D03*
%TO.N,/SNSR_LED*%
X132150000Y-111315000D03*
%TO.N,N/C*%
X132150000Y-113095000D03*
%TD*%
D10*
%TO.N,GND*%
%TO.C,SW2*%
X156000000Y-72920000D03*
%TO.N,/SW2_R_NO*%
X156000000Y-78000000D03*
%TO.N,/SW2_R_NC*%
X156000000Y-83080000D03*
%TD*%
%TO.N,GND*%
%TO.C,SW1*%
X119000000Y-72920000D03*
%TO.N,/SW1_L_NO*%
X119000000Y-78000000D03*
%TO.N,/SW1_L_NC*%
X119000000Y-83080000D03*
%TD*%
D18*
%TO.N,+5V*%
X146750000Y-70500000D03*
D19*
X140650975Y-66546739D03*
X148000000Y-104500000D03*
%TO.N,+3V3*%
X138500000Y-88000000D03*
X146250000Y-94750000D03*
X131000000Y-89500000D03*
X145750000Y-104000000D03*
X138500000Y-98500000D03*
X145750000Y-103000000D03*
X142250000Y-92500000D03*
X123500000Y-87250000D03*
X134500000Y-98500000D03*
X146250000Y-95750000D03*
X142750000Y-91000000D03*
X131000000Y-91500000D03*
X146000000Y-67250000D03*
X136500000Y-98500000D03*
X125750000Y-111250000D03*
X139750000Y-97250000D03*
X145000000Y-67250000D03*
X142250000Y-93500000D03*
D20*
X153000000Y-118250000D03*
D19*
X131000000Y-90500000D03*
%TO.N,+1V8*%
X147250000Y-109250000D03*
%TO.N,/USB_D+*%
X136250000Y-64500000D03*
X138042518Y-91207482D03*
%TO.N,/USB_D-*%
X138000000Y-89000000D03*
X138750000Y-64500000D03*
%TO.N,/VBUS_*%
X136000000Y-60250000D03*
X159000000Y-96250000D03*
X140718767Y-62781233D03*
X139000000Y-60250000D03*
X139759355Y-62504544D03*
%TO.N,/USB1_LED*%
X136143360Y-92413402D03*
X119750000Y-87750000D03*
D18*
%TO.N,/FC6_CS1*%
X140250000Y-98000000D03*
D19*
%TO.N,/RESET*%
X136620878Y-91129122D03*
X150725500Y-104500000D03*
%TO.N,/FC6_SCK*%
X128000000Y-102500000D03*
X129475500Y-102500000D03*
X135750000Y-93500000D03*
%TO.N,/FC6_MOSI*%
X131024500Y-100000000D03*
X128000000Y-100000000D03*
%TO.N,/FC6_MISO*%
X137750000Y-95500000D03*
X129975500Y-106250000D03*
X128000000Y-106250000D03*
D18*
%TO.N,/SW1_L_NC*%
X135519107Y-91020248D03*
D19*
%TO.N,/SNSR_RST*%
X132500000Y-97450989D03*
X129000000Y-99475500D03*
X136500000Y-97274500D03*
%TO.N,/SW1_L_NO*%
X136500000Y-89250000D03*
%TO.N,GND*%
X136700989Y-94750000D03*
X144270000Y-92500000D03*
X142000000Y-62750000D03*
X145750000Y-107250000D03*
X144250000Y-90500000D03*
X128500000Y-105500000D03*
X142000000Y-68000000D03*
X134000000Y-65250000D03*
X139451727Y-94957641D03*
X134925500Y-89524020D03*
X150750000Y-114000000D03*
X140000000Y-68000000D03*
X141600989Y-88000000D03*
D20*
X149750000Y-118250000D03*
D19*
X154750000Y-105750000D03*
X145000000Y-85750000D03*
X145000000Y-66274989D03*
X133475011Y-92000000D03*
X137500000Y-98500000D03*
X148000000Y-107000000D03*
X140750000Y-88000000D03*
X153250000Y-114000000D03*
X150500000Y-68250000D03*
X135500000Y-98500000D03*
X149500000Y-114000000D03*
X148750000Y-108750000D03*
X140000000Y-63909500D03*
X145750000Y-106250000D03*
X145250000Y-90500000D03*
X143500000Y-66225500D03*
X132000000Y-65250000D03*
X149520000Y-105270000D03*
X137528381Y-87971619D03*
X144250000Y-93500000D03*
X133374500Y-62750000D03*
D18*
X141250000Y-92500000D03*
D19*
X133500000Y-98500000D03*
X129250000Y-96250000D03*
%TO.N,/SW4_NC*%
X135544503Y-94500000D03*
X129250000Y-97250000D03*
%TO.N,/SW4_NO*%
X135944011Y-95500000D03*
X129250000Y-98250000D03*
D18*
%TO.N,/SW2_R_NO*%
X137750000Y-92519503D03*
%TO.N,/SW2_R_NC*%
X137750000Y-93500000D03*
%TO.N,/SW3_M_NO*%
X139000000Y-90750000D03*
%TO.N,/SW3_M_NC*%
X139000000Y-92000000D03*
%TO.N,/ENC_B*%
X133500000Y-93000000D03*
D20*
X120750000Y-78000000D03*
%TO.N,/ENC_A*%
X121334080Y-79767133D03*
D18*
X133750000Y-91000000D03*
D19*
%TO.N,/SWO*%
X150750000Y-112874500D03*
X139250000Y-93548273D03*
X155250000Y-109274500D03*
D18*
%TO.N,/SWCLK*%
X141250000Y-93500000D03*
D19*
X153750000Y-108750000D03*
%TO.N,/SWDIO*%
X153750000Y-107750000D03*
X145000000Y-94000000D03*
%TO.N,/SNSR_MTN*%
X138397276Y-94749989D03*
%TO.N,/ISP*%
X141250000Y-98000000D03*
X150725500Y-105500000D03*
X152000000Y-110250000D03*
X137500000Y-96750000D03*
%TO.N,/DBG_VIN*%
X159000000Y-99000000D03*
X148250000Y-114000000D03*
%TD*%
D21*
%TO.N,+5V*%
X147250000Y-71750000D02*
X146375000Y-70875000D01*
X146750000Y-70500000D02*
X146375000Y-70875000D01*
X148000000Y-104500000D02*
X147250000Y-103750000D01*
X140650975Y-66546739D02*
X142046739Y-66546739D01*
X147250000Y-103750000D02*
X147250000Y-71750000D01*
X142046739Y-66546739D02*
X146375000Y-70875000D01*
D22*
%TO.N,/VBUS_*%
X140718767Y-62781233D02*
X140036044Y-62781233D01*
X140036044Y-62781233D02*
X139759355Y-62504544D01*
X139000000Y-60250000D02*
X139759355Y-61009355D01*
X139759355Y-61009355D02*
X139759355Y-62504544D01*
X136000000Y-60250000D02*
X139000000Y-60250000D01*
X159000000Y-96250000D02*
X159000000Y-73250000D01*
X159000000Y-73250000D02*
X151250000Y-65500000D01*
X143437534Y-65500000D02*
X140718767Y-62781233D01*
X151250000Y-65500000D02*
X143437534Y-65500000D01*
%TO.N,/DBG_VIN*%
X159250000Y-111250000D02*
X159250000Y-101750000D01*
X159250000Y-99250000D02*
X159000000Y-99000000D01*
X159250000Y-101750000D02*
X159250000Y-99250000D01*
X150000000Y-112250000D02*
X158250000Y-112250000D01*
X159250000Y-101750000D02*
X158500000Y-102500000D01*
X148250000Y-114000000D02*
X150000000Y-112250000D01*
X158500000Y-102500000D02*
X157750000Y-102500000D01*
X158250000Y-112250000D02*
X159250000Y-111250000D01*
%TD*%
%TA.AperFunction,Conductor*%
%TO.N,+3V3*%
G36*
X142941621Y-55520502D02*
G01*
X142988114Y-55574158D01*
X142999500Y-55626500D01*
X142999500Y-62986321D01*
X142998255Y-63000000D01*
X142995208Y-63000000D01*
X142996988Y-63027153D01*
X142999730Y-63068994D01*
X143000000Y-63077235D01*
X143000000Y-64227239D01*
X142979998Y-64295360D01*
X142926342Y-64341853D01*
X142856068Y-64351957D01*
X142791488Y-64322463D01*
X142784905Y-64316334D01*
X141827523Y-63358952D01*
X141793497Y-63296640D01*
X141798562Y-63225825D01*
X141841109Y-63168989D01*
X141907629Y-63144178D01*
X141936328Y-63145408D01*
X141990206Y-63153941D01*
X141990207Y-63153941D01*
X142000000Y-63155492D01*
X142009793Y-63153941D01*
X142115513Y-63137197D01*
X142115515Y-63137196D01*
X142125304Y-63135646D01*
X142238342Y-63078050D01*
X142328050Y-62988342D01*
X142385646Y-62875304D01*
X142395408Y-62813672D01*
X142403941Y-62759793D01*
X142405492Y-62750000D01*
X142385646Y-62624696D01*
X142328050Y-62511658D01*
X142238342Y-62421950D01*
X142240174Y-62420118D01*
X142205729Y-62375451D01*
X142199653Y-62304714D01*
X142232785Y-62241923D01*
X142240305Y-62234796D01*
X142325681Y-62160317D01*
X142419693Y-62026552D01*
X142479083Y-61874224D01*
X142495500Y-61749527D01*
X142495500Y-60614004D01*
X142480819Y-60492687D01*
X142423027Y-60339745D01*
X142382759Y-60281155D01*
X142334723Y-60211262D01*
X142334722Y-60211261D01*
X142330421Y-60205003D01*
X142208348Y-60096240D01*
X142201638Y-60092687D01*
X142070566Y-60023288D01*
X142070564Y-60023287D01*
X142063855Y-60019735D01*
X142003787Y-60004647D01*
X141912655Y-59981756D01*
X141912651Y-59981756D01*
X141905284Y-59979905D01*
X141897685Y-59979865D01*
X141897683Y-59979865D01*
X141829653Y-59979509D01*
X141741790Y-59979049D01*
X141734410Y-59980821D01*
X141734408Y-59980821D01*
X141590189Y-60015444D01*
X141590185Y-60015445D01*
X141582810Y-60017216D01*
X141437524Y-60092204D01*
X141431802Y-60097196D01*
X141431800Y-60097197D01*
X141320044Y-60194688D01*
X141320041Y-60194691D01*
X141314319Y-60199683D01*
X141220307Y-60333448D01*
X141160917Y-60485776D01*
X141144500Y-60610473D01*
X141144500Y-61745996D01*
X141159181Y-61867313D01*
X141216973Y-62020255D01*
X141309579Y-62154997D01*
X141315249Y-62160048D01*
X141315250Y-62160050D01*
X141370615Y-62209378D01*
X141431652Y-62263760D01*
X141438361Y-62267312D01*
X141438362Y-62267313D01*
X141569434Y-62336712D01*
X141569436Y-62336713D01*
X141576145Y-62340265D01*
X141583508Y-62342114D01*
X141583512Y-62342116D01*
X141585142Y-62342525D01*
X141586200Y-62343147D01*
X141590602Y-62344837D01*
X141590320Y-62345571D01*
X141646338Y-62378518D01*
X141678360Y-62441883D01*
X141671040Y-62512502D01*
X141666715Y-62521932D01*
X141614354Y-62624696D01*
X141594508Y-62750000D01*
X141596059Y-62759793D01*
X141596059Y-62759794D01*
X141604592Y-62813672D01*
X141595492Y-62884083D01*
X141549770Y-62938397D01*
X141481941Y-62959369D01*
X141413542Y-62940341D01*
X141391048Y-62922477D01*
X141097659Y-62629088D01*
X141074487Y-62597196D01*
X141046817Y-62542891D01*
X140957109Y-62453183D01*
X140844071Y-62395587D01*
X140834282Y-62394037D01*
X140834280Y-62394036D01*
X140728560Y-62377292D01*
X140718767Y-62375741D01*
X140708974Y-62377292D01*
X140696675Y-62379240D01*
X140593463Y-62395587D01*
X140585390Y-62399700D01*
X140547300Y-62405733D01*
X140260855Y-62405733D01*
X140192734Y-62385731D01*
X140146241Y-62332075D01*
X140134855Y-62279733D01*
X140134855Y-61268678D01*
X140154857Y-61200557D01*
X140208513Y-61154064D01*
X140280240Y-61144178D01*
X140312948Y-61149271D01*
X140352956Y-61155500D01*
X140424145Y-61155500D01*
X140463589Y-61149851D01*
X140515943Y-61142354D01*
X140515946Y-61142353D01*
X140524829Y-61141081D01*
X140648820Y-61084706D01*
X140752004Y-60995796D01*
X140826087Y-60881501D01*
X140865113Y-60751006D01*
X140865945Y-60614804D01*
X140839383Y-60521864D01*
X140830983Y-60492473D01*
X140830982Y-60492471D01*
X140828516Y-60483842D01*
X140755835Y-60368650D01*
X140723107Y-60339745D01*
X140660473Y-60284429D01*
X140653745Y-60278487D01*
X140645622Y-60274673D01*
X140645620Y-60274672D01*
X140572211Y-60240207D01*
X140530452Y-60220601D01*
X140521588Y-60219221D01*
X140521585Y-60219220D01*
X140458103Y-60209336D01*
X140427044Y-60204500D01*
X140355855Y-60204500D01*
X140316411Y-60210149D01*
X140264057Y-60217646D01*
X140264054Y-60217647D01*
X140255171Y-60218919D01*
X140131180Y-60275294D01*
X140027996Y-60364204D01*
X140023112Y-60371739D01*
X139962176Y-60465750D01*
X139908339Y-60512034D01*
X139838027Y-60521864D01*
X139773561Y-60492119D01*
X139767349Y-60486312D01*
X139378892Y-60097855D01*
X139355720Y-60065963D01*
X139328050Y-60011658D01*
X139238342Y-59921950D01*
X139125304Y-59864354D01*
X139115515Y-59862804D01*
X139115513Y-59862803D01*
X139009793Y-59846059D01*
X139000000Y-59844508D01*
X138874696Y-59864354D01*
X138866623Y-59868467D01*
X138828533Y-59874500D01*
X136171467Y-59874500D01*
X136133377Y-59868467D01*
X136125304Y-59864354D01*
X136000000Y-59844508D01*
X135990207Y-59846059D01*
X135884487Y-59862803D01*
X135884485Y-59862804D01*
X135874696Y-59864354D01*
X135761658Y-59921950D01*
X135671950Y-60011658D01*
X135614354Y-60124696D01*
X135594508Y-60250000D01*
X135596059Y-60259793D01*
X135612359Y-60362706D01*
X135614354Y-60375304D01*
X135671950Y-60488342D01*
X135761658Y-60578050D01*
X135874696Y-60635646D01*
X135884485Y-60637196D01*
X135884487Y-60637197D01*
X135990207Y-60653941D01*
X136000000Y-60655492D01*
X136125304Y-60635646D01*
X136133377Y-60631533D01*
X136171467Y-60625500D01*
X138792273Y-60625500D01*
X138860394Y-60645502D01*
X138881368Y-60662405D01*
X139346950Y-61127987D01*
X139380976Y-61190299D01*
X139383855Y-61217082D01*
X139383855Y-62333077D01*
X139377822Y-62371167D01*
X139373709Y-62379240D01*
X139353863Y-62504544D01*
X139355414Y-62514337D01*
X139361336Y-62551724D01*
X139373709Y-62629848D01*
X139431305Y-62742886D01*
X139521013Y-62832594D01*
X139575318Y-62860264D01*
X139607210Y-62883436D01*
X139732696Y-63008922D01*
X139747421Y-63027153D01*
X139748822Y-63028693D01*
X139754472Y-63037443D01*
X139762650Y-63043890D01*
X139780509Y-63057969D01*
X139784876Y-63061850D01*
X139784942Y-63061772D01*
X139788900Y-63065126D01*
X139792582Y-63068808D01*
X139796813Y-63071831D01*
X139796816Y-63071834D01*
X139801635Y-63075277D01*
X139808096Y-63079894D01*
X139812825Y-63083445D01*
X139852644Y-63114836D01*
X139861193Y-63117838D01*
X139868563Y-63123105D01*
X139917122Y-63137627D01*
X139922763Y-63139460D01*
X139939701Y-63145408D01*
X139970592Y-63156256D01*
X139976099Y-63156733D01*
X139978806Y-63156733D01*
X139981378Y-63156844D01*
X139981538Y-63156892D01*
X139981532Y-63157036D01*
X139982150Y-63157075D01*
X139988330Y-63158923D01*
X140041599Y-63156830D01*
X140046545Y-63156733D01*
X140511040Y-63156733D01*
X140579161Y-63176735D01*
X140600135Y-63193638D01*
X143134186Y-65727689D01*
X143148911Y-65745920D01*
X143150312Y-65747460D01*
X143155962Y-65756210D01*
X143164140Y-65762657D01*
X143181999Y-65776736D01*
X143193088Y-65786591D01*
X143193708Y-65787211D01*
X143227734Y-65849523D01*
X143222669Y-65920338D01*
X143193710Y-65965398D01*
X143171950Y-65987158D01*
X143114354Y-66100196D01*
X143112804Y-66109985D01*
X143112803Y-66109987D01*
X143104709Y-66161093D01*
X143094508Y-66225500D01*
X143096059Y-66235293D01*
X143111494Y-66332744D01*
X143114354Y-66350804D01*
X143171950Y-66463842D01*
X143261658Y-66553550D01*
X143374696Y-66611146D01*
X143384485Y-66612696D01*
X143384487Y-66612697D01*
X143490207Y-66629441D01*
X143500000Y-66630992D01*
X143509793Y-66629441D01*
X143615513Y-66612697D01*
X143615515Y-66612696D01*
X143625304Y-66611146D01*
X143738342Y-66553550D01*
X143828050Y-66463842D01*
X143885646Y-66350804D01*
X143888507Y-66332744D01*
X143903941Y-66235293D01*
X143905492Y-66225500D01*
X143895291Y-66161093D01*
X143887197Y-66109987D01*
X143887196Y-66109985D01*
X143885646Y-66100196D01*
X143864504Y-66058702D01*
X143851400Y-65988927D01*
X143878100Y-65923142D01*
X143936127Y-65882235D01*
X143976771Y-65875500D01*
X144548445Y-65875500D01*
X144616566Y-65895502D01*
X144663059Y-65949158D01*
X144673163Y-66019432D01*
X144660712Y-66058702D01*
X144614354Y-66149685D01*
X144612804Y-66159474D01*
X144612803Y-66159476D01*
X144601011Y-66233930D01*
X144594508Y-66274989D01*
X144596059Y-66284782D01*
X144603656Y-66332745D01*
X144614354Y-66400293D01*
X144671950Y-66513331D01*
X144761658Y-66603039D01*
X144874696Y-66660635D01*
X144884485Y-66662185D01*
X144884487Y-66662186D01*
X144990207Y-66678930D01*
X145000000Y-66680481D01*
X145009793Y-66678930D01*
X145115513Y-66662186D01*
X145115515Y-66662185D01*
X145125304Y-66660635D01*
X145238342Y-66603039D01*
X145328050Y-66513331D01*
X145385646Y-66400293D01*
X145396345Y-66332745D01*
X145403941Y-66284782D01*
X145405492Y-66274989D01*
X145398989Y-66233930D01*
X145387197Y-66159476D01*
X145387196Y-66159474D01*
X145385646Y-66149685D01*
X145339288Y-66058703D01*
X145326184Y-65988926D01*
X145352884Y-65923142D01*
X145410911Y-65882235D01*
X145451555Y-65875500D01*
X151042273Y-65875500D01*
X151110394Y-65895502D01*
X151131368Y-65912405D01*
X158587595Y-73368632D01*
X158621621Y-73430944D01*
X158624500Y-73457727D01*
X158624500Y-96078533D01*
X158618467Y-96116623D01*
X158614354Y-96124696D01*
X158594508Y-96250000D01*
X158596059Y-96259793D01*
X158612620Y-96364354D01*
X158614354Y-96375304D01*
X158671950Y-96488342D01*
X158761658Y-96578050D01*
X158874696Y-96635646D01*
X158884485Y-96637196D01*
X158884487Y-96637197D01*
X158990207Y-96653941D01*
X159000000Y-96655492D01*
X159009793Y-96653941D01*
X159115513Y-96637197D01*
X159115515Y-96637196D01*
X159125304Y-96635646D01*
X159238342Y-96578050D01*
X159328050Y-96488342D01*
X159385646Y-96375304D01*
X159387381Y-96364354D01*
X159403941Y-96259793D01*
X159405492Y-96250000D01*
X159385646Y-96124696D01*
X159381533Y-96116623D01*
X159375500Y-96078533D01*
X159375500Y-73303497D01*
X159377979Y-73280209D01*
X159378078Y-73278111D01*
X159380269Y-73267934D01*
X159376373Y-73235016D01*
X159376029Y-73229179D01*
X159375928Y-73229187D01*
X159375500Y-73224008D01*
X159375500Y-73218807D01*
X159372372Y-73200013D01*
X159371535Y-73194137D01*
X159366800Y-73154133D01*
X159365576Y-73143790D01*
X159361654Y-73135623D01*
X159360167Y-73126687D01*
X159355223Y-73117525D01*
X159355222Y-73117521D01*
X159336094Y-73082071D01*
X159333398Y-73076780D01*
X159314897Y-73038251D01*
X159314896Y-73038250D01*
X159311463Y-73031100D01*
X159307906Y-73026869D01*
X159305974Y-73024937D01*
X159304255Y-73023063D01*
X159304181Y-73022926D01*
X159304291Y-73022826D01*
X159303868Y-73022346D01*
X159300806Y-73016671D01*
X159261632Y-72980459D01*
X159258067Y-72977030D01*
X154375631Y-68094594D01*
X155798074Y-68094594D01*
X155799053Y-68100291D01*
X155799053Y-68100292D01*
X155823095Y-68240207D01*
X155835438Y-68312043D01*
X155911804Y-68519043D01*
X155914756Y-68524004D01*
X155914756Y-68524005D01*
X155981880Y-68636829D01*
X156024614Y-68708659D01*
X156170090Y-68874543D01*
X156343360Y-69011137D01*
X156538620Y-69113869D01*
X156749333Y-69179297D01*
X156755070Y-69179976D01*
X156924789Y-69200064D01*
X156924795Y-69200064D01*
X156928476Y-69200500D01*
X157055970Y-69200500D01*
X157219711Y-69185454D01*
X157225273Y-69183885D01*
X157225275Y-69183885D01*
X157325888Y-69155509D01*
X157432064Y-69125565D01*
X157629947Y-69027980D01*
X157652503Y-69011137D01*
X157802109Y-68899420D01*
X157802110Y-68899420D01*
X157806733Y-68895967D01*
X157943046Y-68748505D01*
X157952582Y-68738189D01*
X157952584Y-68738186D01*
X157956501Y-68733949D01*
X158074236Y-68547350D01*
X158155994Y-68342421D01*
X158157958Y-68332550D01*
X158197911Y-68131691D01*
X158197911Y-68131688D01*
X158199038Y-68126024D01*
X158199450Y-68094594D01*
X158200627Y-68004647D01*
X158201926Y-67905406D01*
X158198332Y-67884487D01*
X158165541Y-67693654D01*
X158165541Y-67693653D01*
X158164562Y-67687957D01*
X158088196Y-67480957D01*
X158061345Y-67435824D01*
X157978340Y-67296306D01*
X157978339Y-67296305D01*
X157975386Y-67291341D01*
X157829910Y-67125457D01*
X157656640Y-66988863D01*
X157461380Y-66886131D01*
X157250667Y-66820703D01*
X157236718Y-66819052D01*
X157075211Y-66799936D01*
X157075205Y-66799936D01*
X157071524Y-66799500D01*
X156944030Y-66799500D01*
X156780289Y-66814546D01*
X156774727Y-66816115D01*
X156774725Y-66816115D01*
X156742803Y-66825118D01*
X156567936Y-66874435D01*
X156370053Y-66972020D01*
X156365427Y-66975474D01*
X156365426Y-66975475D01*
X156236804Y-67071522D01*
X156193267Y-67104033D01*
X156173463Y-67125457D01*
X156100454Y-67204438D01*
X156043499Y-67266051D01*
X155925764Y-67452650D01*
X155844006Y-67657579D01*
X155842880Y-67663239D01*
X155842879Y-67663243D01*
X155802344Y-67867028D01*
X155800962Y-67873976D01*
X155800886Y-67879751D01*
X155800886Y-67879755D01*
X155800475Y-67911188D01*
X155798074Y-68094594D01*
X154375631Y-68094594D01*
X151553348Y-65272311D01*
X151538623Y-65254080D01*
X151537222Y-65252540D01*
X151531572Y-65243790D01*
X151508308Y-65225450D01*
X151467195Y-65167568D01*
X151463901Y-65096648D01*
X151499473Y-65035206D01*
X151562616Y-65002749D01*
X151586314Y-65000500D01*
X156996699Y-65000500D01*
X157003293Y-65000673D01*
X157039471Y-65002569D01*
X157133549Y-65007499D01*
X157313790Y-65017622D01*
X157326421Y-65018973D01*
X157475061Y-65042515D01*
X157476150Y-65042694D01*
X157564176Y-65057650D01*
X157635217Y-65069721D01*
X157646721Y-65072234D01*
X157795562Y-65112115D01*
X157797833Y-65112747D01*
X157949080Y-65156321D01*
X157959350Y-65159764D01*
X158104647Y-65215539D01*
X158107696Y-65216755D01*
X158251685Y-65276397D01*
X158260651Y-65280530D01*
X158400049Y-65351557D01*
X158403752Y-65353523D01*
X158539483Y-65428539D01*
X158547159Y-65433145D01*
X158678692Y-65518564D01*
X158682979Y-65521475D01*
X158809119Y-65610976D01*
X158815475Y-65615797D01*
X158937519Y-65714626D01*
X158942178Y-65718589D01*
X158991490Y-65762657D01*
X159057388Y-65821547D01*
X159062523Y-65826403D01*
X159173597Y-65937477D01*
X159178453Y-65942612D01*
X159226156Y-65995991D01*
X159281405Y-66057815D01*
X159285368Y-66062473D01*
X159384203Y-66184525D01*
X159389024Y-66190881D01*
X159443930Y-66268263D01*
X159478525Y-66317021D01*
X159481436Y-66321308D01*
X159566855Y-66452841D01*
X159571460Y-66460515D01*
X159625366Y-66558050D01*
X159646472Y-66596239D01*
X159648443Y-66599951D01*
X159719470Y-66739349D01*
X159723603Y-66748315D01*
X159755416Y-66825118D01*
X159783245Y-66892304D01*
X159784461Y-66895353D01*
X159840235Y-67040647D01*
X159843679Y-67050920D01*
X159887253Y-67202167D01*
X159887885Y-67204438D01*
X159927766Y-67353279D01*
X159930279Y-67364783D01*
X159942350Y-67435824D01*
X159957306Y-67523850D01*
X159957485Y-67524939D01*
X159978493Y-67657579D01*
X159981026Y-67673572D01*
X159982378Y-67686212D01*
X159986222Y-67754647D01*
X159992506Y-67866558D01*
X159992531Y-67867028D01*
X159999327Y-67996707D01*
X159999500Y-68003301D01*
X159999500Y-115996699D01*
X159999327Y-116003293D01*
X159992531Y-116132972D01*
X159992506Y-116133442D01*
X159982797Y-116306346D01*
X159982379Y-116313782D01*
X159981027Y-116326421D01*
X159957485Y-116475061D01*
X159957306Y-116476150D01*
X159944379Y-116552233D01*
X159930279Y-116635217D01*
X159927766Y-116646721D01*
X159887885Y-116795562D01*
X159887253Y-116797833D01*
X159843679Y-116949080D01*
X159840236Y-116959350D01*
X159812911Y-117030535D01*
X159784467Y-117104633D01*
X159783245Y-117107696D01*
X159750818Y-117185983D01*
X159723605Y-117251680D01*
X159719470Y-117260651D01*
X159648443Y-117400049D01*
X159646472Y-117403761D01*
X159571461Y-117539483D01*
X159566855Y-117547159D01*
X159481436Y-117678692D01*
X159478525Y-117682979D01*
X159389024Y-117809119D01*
X159384203Y-117815475D01*
X159354340Y-117852353D01*
X159285374Y-117937519D01*
X159281411Y-117942178D01*
X159247608Y-117980004D01*
X159178454Y-118057387D01*
X159173598Y-118062522D01*
X159062523Y-118173597D01*
X159057388Y-118178453D01*
X158942185Y-118281405D01*
X158937527Y-118285368D01*
X158815475Y-118384203D01*
X158809119Y-118389024D01*
X158716719Y-118454585D01*
X158682979Y-118478525D01*
X158678692Y-118481436D01*
X158547159Y-118566855D01*
X158539483Y-118571461D01*
X158403761Y-118646472D01*
X158400049Y-118648443D01*
X158260651Y-118719470D01*
X158251685Y-118723603D01*
X158170837Y-118757091D01*
X158107696Y-118783245D01*
X158104647Y-118784461D01*
X157959353Y-118840235D01*
X157949080Y-118843679D01*
X157797833Y-118887253D01*
X157795562Y-118887885D01*
X157646721Y-118927766D01*
X157635217Y-118930279D01*
X157564176Y-118942350D01*
X157476150Y-118957306D01*
X157475061Y-118957485D01*
X157326421Y-118981027D01*
X157313790Y-118982378D01*
X157133549Y-118992501D01*
X157058898Y-118996413D01*
X157003293Y-118999327D01*
X156996699Y-118999500D01*
X150012517Y-118999500D01*
X149944396Y-118979498D01*
X149897903Y-118925842D01*
X149887799Y-118855568D01*
X149917293Y-118790988D01*
X149964300Y-118757091D01*
X150019993Y-118734023D01*
X150019998Y-118734020D01*
X150027625Y-118730861D01*
X150142621Y-118642621D01*
X150230861Y-118527625D01*
X150286330Y-118393709D01*
X150305250Y-118250000D01*
X150286330Y-118106291D01*
X150230861Y-117972375D01*
X150142621Y-117857379D01*
X150027625Y-117769139D01*
X149893709Y-117713670D01*
X149750000Y-117694750D01*
X149606291Y-117713670D01*
X149472375Y-117769139D01*
X149357379Y-117857379D01*
X149269139Y-117972375D01*
X149213670Y-118106291D01*
X149194750Y-118250000D01*
X149213670Y-118393709D01*
X149269139Y-118527625D01*
X149357379Y-118642621D01*
X149472375Y-118730861D01*
X149480002Y-118734020D01*
X149480007Y-118734023D01*
X149535700Y-118757091D01*
X149590982Y-118801639D01*
X149613403Y-118869002D01*
X149595845Y-118937793D01*
X149543884Y-118986172D01*
X149487483Y-118999500D01*
X118003301Y-118999500D01*
X117996707Y-118999327D01*
X117941102Y-118996413D01*
X117866451Y-118992501D01*
X117686210Y-118982378D01*
X117673579Y-118981027D01*
X117524939Y-118957485D01*
X117523850Y-118957306D01*
X117435824Y-118942350D01*
X117364783Y-118930279D01*
X117353279Y-118927766D01*
X117204438Y-118887885D01*
X117202167Y-118887253D01*
X117050920Y-118843679D01*
X117040647Y-118840235D01*
X116895353Y-118784461D01*
X116892304Y-118783245D01*
X116829163Y-118757091D01*
X116748315Y-118723603D01*
X116739349Y-118719470D01*
X116599951Y-118648443D01*
X116596239Y-118646472D01*
X116460517Y-118571461D01*
X116452841Y-118566855D01*
X116321308Y-118481436D01*
X116317021Y-118478525D01*
X116283281Y-118454585D01*
X116190881Y-118389024D01*
X116184525Y-118384203D01*
X116062473Y-118285368D01*
X116057815Y-118281405D01*
X115942612Y-118178453D01*
X115937477Y-118173597D01*
X115826402Y-118062522D01*
X115821546Y-118057387D01*
X115752392Y-117980004D01*
X115718589Y-117942178D01*
X115714626Y-117937519D01*
X115645660Y-117852353D01*
X115615797Y-117815475D01*
X115610976Y-117809119D01*
X115521475Y-117682979D01*
X115518564Y-117678692D01*
X115433145Y-117547159D01*
X115428539Y-117539483D01*
X115353528Y-117403761D01*
X115351557Y-117400049D01*
X115280530Y-117260651D01*
X115276395Y-117251680D01*
X115249183Y-117185983D01*
X115216755Y-117107696D01*
X115215533Y-117104633D01*
X115187090Y-117030535D01*
X115159764Y-116959350D01*
X115156321Y-116949080D01*
X115112747Y-116797833D01*
X115112115Y-116795562D01*
X115072234Y-116646721D01*
X115069721Y-116635217D01*
X115055621Y-116552233D01*
X115042694Y-116476150D01*
X115042515Y-116475061D01*
X115018973Y-116326421D01*
X115017621Y-116313782D01*
X115017204Y-116306346D01*
X115007494Y-116133442D01*
X115007469Y-116132972D01*
X115005458Y-116094594D01*
X116798074Y-116094594D01*
X116799053Y-116100291D01*
X116799053Y-116100292D01*
X116803475Y-116126024D01*
X116835438Y-116312043D01*
X116911804Y-116519043D01*
X116914756Y-116524004D01*
X116914756Y-116524005D01*
X116974661Y-116624695D01*
X117024614Y-116708659D01*
X117170090Y-116874543D01*
X117343360Y-117011137D01*
X117538620Y-117113869D01*
X117749333Y-117179297D01*
X117755070Y-117179976D01*
X117924789Y-117200064D01*
X117924795Y-117200064D01*
X117928476Y-117200500D01*
X118055970Y-117200500D01*
X118219711Y-117185454D01*
X118225273Y-117183885D01*
X118225275Y-117183885D01*
X118325887Y-117155510D01*
X118432064Y-117125565D01*
X118629947Y-117027980D01*
X118652503Y-117011137D01*
X118802109Y-116899420D01*
X118802110Y-116899420D01*
X118806733Y-116895967D01*
X118897447Y-116797833D01*
X118952582Y-116738189D01*
X118952584Y-116738186D01*
X118956501Y-116733949D01*
X119074236Y-116547350D01*
X119155994Y-116342421D01*
X119159176Y-116326428D01*
X119197911Y-116131691D01*
X119197911Y-116131688D01*
X119199038Y-116126024D01*
X119199450Y-116094594D01*
X119201850Y-115911188D01*
X119201926Y-115905406D01*
X119200947Y-115899708D01*
X119165541Y-115693654D01*
X119165541Y-115693653D01*
X119164562Y-115687957D01*
X119088196Y-115480957D01*
X118975386Y-115291341D01*
X118829910Y-115125457D01*
X118656640Y-114988863D01*
X118461380Y-114886131D01*
X118250667Y-114820703D01*
X118236718Y-114819052D01*
X118075211Y-114799936D01*
X118075205Y-114799936D01*
X118071524Y-114799500D01*
X117944030Y-114799500D01*
X117780289Y-114814546D01*
X117774727Y-114816115D01*
X117774725Y-114816115D01*
X117705991Y-114835500D01*
X117567936Y-114874435D01*
X117370053Y-114972020D01*
X117365427Y-114975474D01*
X117365426Y-114975475D01*
X117342709Y-114992439D01*
X117193267Y-115104033D01*
X117043499Y-115266051D01*
X116925764Y-115452650D01*
X116844006Y-115657579D01*
X116800962Y-115873976D01*
X116800886Y-115879751D01*
X116800886Y-115879755D01*
X116800475Y-115911188D01*
X116798074Y-116094594D01*
X115005458Y-116094594D01*
X115000673Y-116003293D01*
X115000500Y-115996699D01*
X115000500Y-106250000D01*
X127594508Y-106250000D01*
X127596059Y-106259793D01*
X127611523Y-106357427D01*
X127614354Y-106375304D01*
X127671950Y-106488342D01*
X127761658Y-106578050D01*
X127874696Y-106635646D01*
X127884485Y-106637196D01*
X127884487Y-106637197D01*
X127990207Y-106653941D01*
X128000000Y-106655492D01*
X128009793Y-106653941D01*
X128115513Y-106637197D01*
X128115515Y-106637196D01*
X128125304Y-106635646D01*
X128238342Y-106578050D01*
X128328050Y-106488342D01*
X128385646Y-106375304D01*
X128388478Y-106357427D01*
X128403941Y-106259793D01*
X128405492Y-106250000D01*
X129570008Y-106250000D01*
X129571559Y-106259793D01*
X129587023Y-106357427D01*
X129589854Y-106375304D01*
X129647450Y-106488342D01*
X129737158Y-106578050D01*
X129850196Y-106635646D01*
X129859985Y-106637196D01*
X129859987Y-106637197D01*
X129965707Y-106653941D01*
X129975500Y-106655492D01*
X129985293Y-106653941D01*
X130091013Y-106637197D01*
X130091015Y-106637196D01*
X130100804Y-106635646D01*
X130213842Y-106578050D01*
X130303550Y-106488342D01*
X130361146Y-106375304D01*
X130363978Y-106357427D01*
X130379441Y-106259793D01*
X130380992Y-106250000D01*
X130377127Y-106225595D01*
X130362697Y-106134487D01*
X130362696Y-106134485D01*
X130361146Y-106124696D01*
X130303550Y-106011658D01*
X130213842Y-105921950D01*
X130100804Y-105864354D01*
X130091015Y-105862804D01*
X130091013Y-105862803D01*
X129985293Y-105846059D01*
X129975500Y-105844508D01*
X129965707Y-105846059D01*
X129859987Y-105862803D01*
X129859985Y-105862804D01*
X129850196Y-105864354D01*
X129737158Y-105921950D01*
X129647450Y-106011658D01*
X129589854Y-106124696D01*
X129588304Y-106134485D01*
X129588303Y-106134487D01*
X129573873Y-106225595D01*
X129570008Y-106250000D01*
X128405492Y-106250000D01*
X128401627Y-106225595D01*
X128387197Y-106134487D01*
X128387196Y-106134485D01*
X128385646Y-106124696D01*
X128381144Y-106115860D01*
X128366380Y-106086883D01*
X128353276Y-106017107D01*
X128379976Y-105951322D01*
X128438004Y-105910416D01*
X128480289Y-105906783D01*
X128480289Y-105903941D01*
X128490207Y-105903941D01*
X128500000Y-105905492D01*
X128509793Y-105903941D01*
X128615513Y-105887197D01*
X128615515Y-105887196D01*
X128625304Y-105885646D01*
X128738342Y-105828050D01*
X128828050Y-105738342D01*
X128885646Y-105625304D01*
X128891608Y-105587665D01*
X128903941Y-105509793D01*
X128905492Y-105500000D01*
X128903941Y-105490207D01*
X128887197Y-105384487D01*
X128887196Y-105384485D01*
X128885646Y-105374696D01*
X128828050Y-105261658D01*
X128738342Y-105171950D01*
X128625304Y-105114354D01*
X128615515Y-105112804D01*
X128615513Y-105112803D01*
X128509793Y-105096059D01*
X128500000Y-105094508D01*
X128490207Y-105096059D01*
X128384487Y-105112803D01*
X128384485Y-105112804D01*
X128374696Y-105114354D01*
X128261658Y-105171950D01*
X128171950Y-105261658D01*
X128114354Y-105374696D01*
X128112804Y-105384485D01*
X128112803Y-105384487D01*
X128096059Y-105490207D01*
X128094508Y-105500000D01*
X128096059Y-105509793D01*
X128108393Y-105587665D01*
X128114354Y-105625304D01*
X128118855Y-105634137D01*
X128118856Y-105634140D01*
X128133620Y-105663117D01*
X128146724Y-105732893D01*
X128120024Y-105798678D01*
X128061996Y-105839584D01*
X128019711Y-105843217D01*
X128019711Y-105846059D01*
X128009793Y-105846059D01*
X128000000Y-105844508D01*
X127990207Y-105846059D01*
X127884487Y-105862803D01*
X127884485Y-105862804D01*
X127874696Y-105864354D01*
X127761658Y-105921950D01*
X127671950Y-106011658D01*
X127614354Y-106124696D01*
X127612804Y-106134485D01*
X127612803Y-106134487D01*
X127598373Y-106225595D01*
X127594508Y-106250000D01*
X115000500Y-106250000D01*
X115000500Y-102500000D01*
X127594508Y-102500000D01*
X127596059Y-102509793D01*
X127605321Y-102568269D01*
X127614354Y-102625304D01*
X127671950Y-102738342D01*
X127761658Y-102828050D01*
X127874696Y-102885646D01*
X127884485Y-102887196D01*
X127884487Y-102887197D01*
X127990207Y-102903941D01*
X128000000Y-102905492D01*
X128009793Y-102903941D01*
X128115513Y-102887197D01*
X128115515Y-102887196D01*
X128125304Y-102885646D01*
X128238342Y-102828050D01*
X128328050Y-102738342D01*
X128385646Y-102625304D01*
X128394680Y-102568269D01*
X128403941Y-102509793D01*
X128405492Y-102500000D01*
X129070008Y-102500000D01*
X129071559Y-102509793D01*
X129080821Y-102568269D01*
X129089854Y-102625304D01*
X129147450Y-102738342D01*
X129237158Y-102828050D01*
X129350196Y-102885646D01*
X129359985Y-102887196D01*
X129359987Y-102887197D01*
X129465707Y-102903941D01*
X129475500Y-102905492D01*
X129485293Y-102903941D01*
X129591013Y-102887197D01*
X129591015Y-102887196D01*
X129600804Y-102885646D01*
X129713842Y-102828050D01*
X129803550Y-102738342D01*
X129861146Y-102625304D01*
X129870180Y-102568269D01*
X129879441Y-102509793D01*
X129880992Y-102500000D01*
X129867720Y-102416200D01*
X129862697Y-102384487D01*
X129862696Y-102384485D01*
X129861146Y-102374696D01*
X129803550Y-102261658D01*
X129713842Y-102171950D01*
X129600804Y-102114354D01*
X129591015Y-102112804D01*
X129591013Y-102112803D01*
X129485293Y-102096059D01*
X129475500Y-102094508D01*
X129465707Y-102096059D01*
X129359987Y-102112803D01*
X129359985Y-102112804D01*
X129350196Y-102114354D01*
X129237158Y-102171950D01*
X129147450Y-102261658D01*
X129089854Y-102374696D01*
X129088304Y-102384485D01*
X129088303Y-102384487D01*
X129083280Y-102416200D01*
X129070008Y-102500000D01*
X128405492Y-102500000D01*
X128392220Y-102416200D01*
X128387197Y-102384487D01*
X128387196Y-102384485D01*
X128385646Y-102374696D01*
X128328050Y-102261658D01*
X128238342Y-102171950D01*
X128125304Y-102114354D01*
X128115515Y-102112804D01*
X128115513Y-102112803D01*
X128009793Y-102096059D01*
X128000000Y-102094508D01*
X127990207Y-102096059D01*
X127884487Y-102112803D01*
X127884485Y-102112804D01*
X127874696Y-102114354D01*
X127761658Y-102171950D01*
X127671950Y-102261658D01*
X127614354Y-102374696D01*
X127612804Y-102384485D01*
X127612803Y-102384487D01*
X127607780Y-102416200D01*
X127594508Y-102500000D01*
X115000500Y-102500000D01*
X115000500Y-100000000D01*
X127594508Y-100000000D01*
X127614354Y-100125304D01*
X127671950Y-100238342D01*
X127761658Y-100328050D01*
X127874696Y-100385646D01*
X127884485Y-100387196D01*
X127884487Y-100387197D01*
X127990207Y-100403941D01*
X128000000Y-100405492D01*
X128009793Y-100403941D01*
X128115513Y-100387197D01*
X128115515Y-100387196D01*
X128125304Y-100385646D01*
X128238342Y-100328050D01*
X128328050Y-100238342D01*
X128385646Y-100125304D01*
X128405492Y-100000000D01*
X130619008Y-100000000D01*
X130638854Y-100125304D01*
X130696450Y-100238342D01*
X130786158Y-100328050D01*
X130899196Y-100385646D01*
X130908985Y-100387196D01*
X130908987Y-100387197D01*
X131014707Y-100403941D01*
X131024500Y-100405492D01*
X131146211Y-100386215D01*
X131146214Y-100386215D01*
X131149804Y-100385646D01*
X131149878Y-100386110D01*
X131213700Y-100384289D01*
X131274496Y-100420953D01*
X131305819Y-100484666D01*
X131306974Y-100519317D01*
X131294815Y-100635000D01*
X131295505Y-100641565D01*
X131302874Y-100711671D01*
X131313503Y-100812803D01*
X131368750Y-100982835D01*
X131458141Y-101137665D01*
X131462559Y-101142572D01*
X131462560Y-101142573D01*
X131553924Y-101244042D01*
X131577770Y-101270526D01*
X131583109Y-101274405D01*
X131683298Y-101347197D01*
X131722407Y-101375612D01*
X131728433Y-101378295D01*
X131728440Y-101378299D01*
X131799403Y-101409893D01*
X131853499Y-101455873D01*
X131874149Y-101523800D01*
X131854797Y-101592108D01*
X131799404Y-101640107D01*
X131728438Y-101671703D01*
X131728436Y-101671704D01*
X131722408Y-101674388D01*
X131717067Y-101678268D01*
X131717066Y-101678269D01*
X131632791Y-101739499D01*
X131577770Y-101779474D01*
X131573357Y-101784376D01*
X131573355Y-101784377D01*
X131499366Y-101866550D01*
X131458141Y-101912335D01*
X131368750Y-102067165D01*
X131366708Y-102073450D01*
X131318461Y-102221939D01*
X131313503Y-102237197D01*
X131312813Y-102243760D01*
X131312813Y-102243761D01*
X131302081Y-102345873D01*
X131294815Y-102415000D01*
X131295505Y-102421565D01*
X131302874Y-102491671D01*
X131313503Y-102592803D01*
X131315543Y-102599080D01*
X131315543Y-102599082D01*
X131337155Y-102665595D01*
X131368750Y-102762835D01*
X131372053Y-102768557D01*
X131372054Y-102768558D01*
X131426649Y-102863120D01*
X131458141Y-102917665D01*
X131462559Y-102922572D01*
X131462560Y-102922573D01*
X131520770Y-102987221D01*
X131577770Y-103050526D01*
X131583109Y-103054405D01*
X131683298Y-103127197D01*
X131722407Y-103155612D01*
X131728433Y-103158295D01*
X131728440Y-103158299D01*
X131799403Y-103189893D01*
X131853499Y-103235873D01*
X131874149Y-103303800D01*
X131854797Y-103372108D01*
X131799404Y-103420107D01*
X131728438Y-103451703D01*
X131728436Y-103451704D01*
X131722408Y-103454388D01*
X131717067Y-103458268D01*
X131717066Y-103458269D01*
X131621703Y-103527555D01*
X131577770Y-103559474D01*
X131573357Y-103564376D01*
X131573355Y-103564377D01*
X131508970Y-103635884D01*
X131458141Y-103692335D01*
X131454838Y-103698056D01*
X131409184Y-103777132D01*
X131368750Y-103847165D01*
X131366708Y-103853450D01*
X131318461Y-104001939D01*
X131313503Y-104017197D01*
X131312813Y-104023760D01*
X131312813Y-104023761D01*
X131297238Y-104171950D01*
X131294815Y-104195000D01*
X131295505Y-104201565D01*
X131312774Y-104365863D01*
X131313503Y-104372803D01*
X131368750Y-104542835D01*
X131458141Y-104697665D01*
X131462559Y-104702572D01*
X131462560Y-104702573D01*
X131520770Y-104767221D01*
X131577770Y-104830526D01*
X131583109Y-104834405D01*
X131683298Y-104907197D01*
X131722407Y-104935612D01*
X131728433Y-104938295D01*
X131728440Y-104938299D01*
X131799403Y-104969893D01*
X131853499Y-105015873D01*
X131874149Y-105083800D01*
X131854797Y-105152108D01*
X131799404Y-105200107D01*
X131728438Y-105231703D01*
X131728436Y-105231704D01*
X131722408Y-105234388D01*
X131717067Y-105238268D01*
X131717066Y-105238269D01*
X131646660Y-105289422D01*
X131577770Y-105339474D01*
X131573357Y-105344376D01*
X131573355Y-105344377D01*
X131519547Y-105404137D01*
X131458141Y-105472335D01*
X131454838Y-105478056D01*
X131385560Y-105598050D01*
X131368750Y-105627165D01*
X131353370Y-105674500D01*
X131318461Y-105781939D01*
X131313503Y-105797197D01*
X131312813Y-105803760D01*
X131312813Y-105803761D01*
X131302284Y-105903941D01*
X131294815Y-105975000D01*
X131295505Y-105981565D01*
X131302874Y-106051671D01*
X131313503Y-106152803D01*
X131368750Y-106322835D01*
X131458141Y-106477665D01*
X131462559Y-106482572D01*
X131462560Y-106482573D01*
X131542216Y-106571039D01*
X131577770Y-106610526D01*
X131583109Y-106614405D01*
X131683298Y-106687197D01*
X131722407Y-106715612D01*
X131728433Y-106718295D01*
X131728440Y-106718299D01*
X131799403Y-106749893D01*
X131853499Y-106795873D01*
X131874149Y-106863800D01*
X131854797Y-106932108D01*
X131799404Y-106980107D01*
X131728438Y-107011703D01*
X131728436Y-107011704D01*
X131722408Y-107014388D01*
X131717067Y-107018268D01*
X131717066Y-107018269D01*
X131621703Y-107087555D01*
X131577770Y-107119474D01*
X131573357Y-107124376D01*
X131573355Y-107124377D01*
X131462560Y-107247427D01*
X131458141Y-107252335D01*
X131454838Y-107258056D01*
X131380279Y-107387197D01*
X131368750Y-107407165D01*
X131366708Y-107413450D01*
X131318461Y-107561939D01*
X131313503Y-107577197D01*
X131312813Y-107583760D01*
X131312813Y-107583761D01*
X131302081Y-107685873D01*
X131294815Y-107755000D01*
X131295505Y-107761565D01*
X131307460Y-107875304D01*
X131313503Y-107932803D01*
X131368750Y-108102835D01*
X131372053Y-108108557D01*
X131372054Y-108108558D01*
X131391555Y-108142335D01*
X131458141Y-108257665D01*
X131462559Y-108262572D01*
X131462560Y-108262573D01*
X131554205Y-108364354D01*
X131577770Y-108390526D01*
X131583109Y-108394405D01*
X131683298Y-108467197D01*
X131722407Y-108495612D01*
X131728433Y-108498295D01*
X131728440Y-108498299D01*
X131799403Y-108529893D01*
X131853499Y-108575873D01*
X131874149Y-108643800D01*
X131854797Y-108712108D01*
X131799404Y-108760107D01*
X131728438Y-108791703D01*
X131728436Y-108791704D01*
X131722408Y-108794388D01*
X131717067Y-108798268D01*
X131717066Y-108798269D01*
X131596846Y-108885614D01*
X131577770Y-108899474D01*
X131573357Y-108904376D01*
X131573355Y-108904377D01*
X131493739Y-108992799D01*
X131458141Y-109032335D01*
X131454838Y-109038056D01*
X131385019Y-109158987D01*
X131368750Y-109187165D01*
X131357585Y-109221527D01*
X131318461Y-109341939D01*
X131313503Y-109357197D01*
X131312813Y-109363760D01*
X131312813Y-109363761D01*
X131302081Y-109465873D01*
X131294815Y-109535000D01*
X131295505Y-109541565D01*
X131302874Y-109611671D01*
X131313503Y-109712803D01*
X131368750Y-109882835D01*
X131458141Y-110037665D01*
X131462559Y-110042572D01*
X131462560Y-110042573D01*
X131565298Y-110156674D01*
X131577770Y-110170526D01*
X131583109Y-110174405D01*
X131683298Y-110247197D01*
X131722407Y-110275612D01*
X131728433Y-110278295D01*
X131728440Y-110278299D01*
X131799403Y-110309893D01*
X131853499Y-110355873D01*
X131874149Y-110423800D01*
X131854797Y-110492108D01*
X131799404Y-110540107D01*
X131728438Y-110571703D01*
X131728436Y-110571704D01*
X131722408Y-110574388D01*
X131717067Y-110578268D01*
X131717066Y-110578269D01*
X131644289Y-110631145D01*
X131577770Y-110679474D01*
X131573357Y-110684376D01*
X131573355Y-110684377D01*
X131499366Y-110766550D01*
X131458141Y-110812335D01*
X131368750Y-110967165D01*
X131366708Y-110973450D01*
X131318461Y-111121939D01*
X131313503Y-111137197D01*
X131312813Y-111143760D01*
X131312813Y-111143761D01*
X131302753Y-111239473D01*
X131294815Y-111315000D01*
X131295505Y-111321565D01*
X131311688Y-111475530D01*
X131313503Y-111492803D01*
X131315543Y-111499080D01*
X131315543Y-111499082D01*
X131316220Y-111501165D01*
X131368750Y-111662835D01*
X131458141Y-111817665D01*
X131462559Y-111822572D01*
X131462560Y-111822573D01*
X131570178Y-111942094D01*
X131577770Y-111950526D01*
X131583109Y-111954405D01*
X131683298Y-112027197D01*
X131722407Y-112055612D01*
X131728433Y-112058295D01*
X131728440Y-112058299D01*
X131799403Y-112089893D01*
X131853499Y-112135873D01*
X131874149Y-112203800D01*
X131854797Y-112272108D01*
X131799404Y-112320107D01*
X131728438Y-112351703D01*
X131728436Y-112351704D01*
X131722408Y-112354388D01*
X131717067Y-112358268D01*
X131717066Y-112358269D01*
X131621703Y-112427555D01*
X131577770Y-112459474D01*
X131573357Y-112464376D01*
X131573355Y-112464377D01*
X131489890Y-112557074D01*
X131458141Y-112592335D01*
X131454838Y-112598056D01*
X131426878Y-112646485D01*
X131368750Y-112747165D01*
X131366709Y-112753447D01*
X131318461Y-112901939D01*
X131313503Y-112917197D01*
X131312813Y-112923760D01*
X131312813Y-112923761D01*
X131301277Y-113033523D01*
X131294815Y-113095000D01*
X131295505Y-113101565D01*
X131299885Y-113143233D01*
X131313503Y-113272803D01*
X131368750Y-113442835D01*
X131458141Y-113597665D01*
X131462559Y-113602572D01*
X131462560Y-113602573D01*
X131531341Y-113678961D01*
X131577770Y-113730526D01*
X131583109Y-113734405D01*
X131632777Y-113770491D01*
X131722407Y-113835612D01*
X131728435Y-113838296D01*
X131728437Y-113838297D01*
X131879702Y-113905644D01*
X131885733Y-113908329D01*
X131973171Y-113926915D01*
X132054152Y-113944128D01*
X132054156Y-113944128D01*
X132060609Y-113945500D01*
X132239391Y-113945500D01*
X132245844Y-113944128D01*
X132245848Y-113944128D01*
X132326829Y-113926915D01*
X132414267Y-113908329D01*
X132420298Y-113905644D01*
X132571563Y-113838297D01*
X132571565Y-113838296D01*
X132577593Y-113835612D01*
X132667224Y-113770491D01*
X132716891Y-113734405D01*
X132722230Y-113730526D01*
X132768660Y-113678961D01*
X132837440Y-113602573D01*
X132837441Y-113602572D01*
X132841859Y-113597665D01*
X132931250Y-113442835D01*
X132953667Y-113373843D01*
X132993741Y-113315237D01*
X133059137Y-113287600D01*
X133129094Y-113299707D01*
X133181400Y-113347713D01*
X133199500Y-113412779D01*
X133199500Y-116764901D01*
X133199459Y-116765000D01*
X133199500Y-116765099D01*
X133199617Y-116765383D01*
X133200000Y-116765541D01*
X133200099Y-116765500D01*
X141799901Y-116765500D01*
X141800000Y-116765541D01*
X141800099Y-116765500D01*
X141800383Y-116765383D01*
X141800541Y-116765000D01*
X141800500Y-116764901D01*
X141800500Y-116094594D01*
X155798074Y-116094594D01*
X155799053Y-116100291D01*
X155799053Y-116100292D01*
X155803475Y-116126024D01*
X155835438Y-116312043D01*
X155911804Y-116519043D01*
X155914756Y-116524004D01*
X155914756Y-116524005D01*
X155974661Y-116624695D01*
X156024614Y-116708659D01*
X156170090Y-116874543D01*
X156343360Y-117011137D01*
X156538620Y-117113869D01*
X156749333Y-117179297D01*
X156755070Y-117179976D01*
X156924789Y-117200064D01*
X156924795Y-117200064D01*
X156928476Y-117200500D01*
X157055970Y-117200500D01*
X157219711Y-117185454D01*
X157225273Y-117183885D01*
X157225275Y-117183885D01*
X157325887Y-117155510D01*
X157432064Y-117125565D01*
X157629947Y-117027980D01*
X157652503Y-117011137D01*
X157802109Y-116899420D01*
X157802110Y-116899420D01*
X157806733Y-116895967D01*
X157897447Y-116797833D01*
X157952582Y-116738189D01*
X157952584Y-116738186D01*
X157956501Y-116733949D01*
X158074236Y-116547350D01*
X158155994Y-116342421D01*
X158159176Y-116326428D01*
X158197911Y-116131691D01*
X158197911Y-116131688D01*
X158199038Y-116126024D01*
X158199450Y-116094594D01*
X158201850Y-115911188D01*
X158201926Y-115905406D01*
X158200947Y-115899708D01*
X158165541Y-115693654D01*
X158165541Y-115693653D01*
X158164562Y-115687957D01*
X158088196Y-115480957D01*
X157975386Y-115291341D01*
X157829910Y-115125457D01*
X157656640Y-114988863D01*
X157461380Y-114886131D01*
X157250667Y-114820703D01*
X157236718Y-114819052D01*
X157075211Y-114799936D01*
X157075205Y-114799936D01*
X157071524Y-114799500D01*
X156944030Y-114799500D01*
X156780289Y-114814546D01*
X156774727Y-114816115D01*
X156774725Y-114816115D01*
X156705991Y-114835500D01*
X156567936Y-114874435D01*
X156370053Y-114972020D01*
X156365427Y-114975474D01*
X156365426Y-114975475D01*
X156342709Y-114992439D01*
X156193267Y-115104033D01*
X156043499Y-115266051D01*
X155925764Y-115452650D01*
X155844006Y-115657579D01*
X155800962Y-115873976D01*
X155800886Y-115879751D01*
X155800886Y-115879755D01*
X155800475Y-115911188D01*
X155798074Y-116094594D01*
X141800500Y-116094594D01*
X141800500Y-114848193D01*
X141820502Y-114780072D01*
X141874158Y-114733579D01*
X141944432Y-114723475D01*
X142009012Y-114752969D01*
X142031262Y-114778187D01*
X142041496Y-114793504D01*
X142051815Y-114800399D01*
X142080958Y-114819872D01*
X142080960Y-114819873D01*
X142091278Y-114826767D01*
X142135180Y-114835500D01*
X143564820Y-114835500D01*
X143608722Y-114826767D01*
X143619040Y-114819873D01*
X143619042Y-114819872D01*
X143648185Y-114800399D01*
X143658504Y-114793504D01*
X143668735Y-114778192D01*
X143684872Y-114754042D01*
X143684873Y-114754040D01*
X143691767Y-114743722D01*
X143700500Y-114699820D01*
X143700500Y-114000000D01*
X147844508Y-114000000D01*
X147864354Y-114125304D01*
X147921950Y-114238342D01*
X148011658Y-114328050D01*
X148124696Y-114385646D01*
X148134485Y-114387196D01*
X148134487Y-114387197D01*
X148240207Y-114403941D01*
X148250000Y-114405492D01*
X148259793Y-114403941D01*
X148365513Y-114387197D01*
X148365515Y-114387196D01*
X148375304Y-114385646D01*
X148488342Y-114328050D01*
X148578050Y-114238342D01*
X148605720Y-114184038D01*
X148628891Y-114152147D01*
X148880964Y-113900074D01*
X148943276Y-113866048D01*
X149014091Y-113871113D01*
X149070927Y-113913660D01*
X149095738Y-113980180D01*
X149096059Y-113989169D01*
X149096059Y-113990207D01*
X149094508Y-114000000D01*
X149114354Y-114125304D01*
X149171950Y-114238342D01*
X149261658Y-114328050D01*
X149374696Y-114385646D01*
X149384485Y-114387196D01*
X149384487Y-114387197D01*
X149490207Y-114403941D01*
X149500000Y-114405492D01*
X149509793Y-114403941D01*
X149615513Y-114387197D01*
X149615515Y-114387196D01*
X149625304Y-114385646D01*
X149738342Y-114328050D01*
X149828050Y-114238342D01*
X149885646Y-114125304D01*
X149905492Y-114000000D01*
X150344508Y-114000000D01*
X150364354Y-114125304D01*
X150421950Y-114238342D01*
X150511658Y-114328050D01*
X150624696Y-114385646D01*
X150634485Y-114387196D01*
X150634487Y-114387197D01*
X150740207Y-114403941D01*
X150750000Y-114405492D01*
X150759793Y-114403941D01*
X150865513Y-114387197D01*
X150865515Y-114387196D01*
X150875304Y-114385646D01*
X150988342Y-114328050D01*
X151078050Y-114238342D01*
X151135646Y-114125304D01*
X151155492Y-114000000D01*
X152844508Y-114000000D01*
X152864354Y-114125304D01*
X152921950Y-114238342D01*
X153011658Y-114328050D01*
X153124696Y-114385646D01*
X153134485Y-114387196D01*
X153134487Y-114387197D01*
X153240207Y-114403941D01*
X153250000Y-114405492D01*
X153259793Y-114403941D01*
X153365513Y-114387197D01*
X153365515Y-114387196D01*
X153375304Y-114385646D01*
X153488342Y-114328050D01*
X153578050Y-114238342D01*
X153635646Y-114125304D01*
X153655492Y-114000000D01*
X153640548Y-113905644D01*
X153637197Y-113884487D01*
X153637196Y-113884485D01*
X153635646Y-113874696D01*
X153578050Y-113761658D01*
X153488342Y-113671950D01*
X153375304Y-113614354D01*
X153365515Y-113612804D01*
X153365513Y-113612803D01*
X153259793Y-113596059D01*
X153250000Y-113594508D01*
X153240207Y-113596059D01*
X153134487Y-113612803D01*
X153134485Y-113612804D01*
X153124696Y-113614354D01*
X153011658Y-113671950D01*
X152921950Y-113761658D01*
X152864354Y-113874696D01*
X152862804Y-113884485D01*
X152862803Y-113884487D01*
X152859452Y-113905644D01*
X152844508Y-114000000D01*
X151155492Y-114000000D01*
X151140548Y-113905644D01*
X151137197Y-113884487D01*
X151137196Y-113884485D01*
X151135646Y-113874696D01*
X151078050Y-113761658D01*
X150988342Y-113671950D01*
X150875304Y-113614354D01*
X150865515Y-113612804D01*
X150865513Y-113612803D01*
X150759793Y-113596059D01*
X150750000Y-113594508D01*
X150740207Y-113596059D01*
X150634487Y-113612803D01*
X150634485Y-113612804D01*
X150624696Y-113614354D01*
X150511658Y-113671950D01*
X150421950Y-113761658D01*
X150364354Y-113874696D01*
X150362804Y-113884485D01*
X150362803Y-113884487D01*
X150359452Y-113905644D01*
X150344508Y-114000000D01*
X149905492Y-114000000D01*
X149890548Y-113905644D01*
X149887197Y-113884487D01*
X149887196Y-113884485D01*
X149885646Y-113874696D01*
X149828050Y-113761658D01*
X149738342Y-113671950D01*
X149625304Y-113614354D01*
X149615515Y-113612804D01*
X149615513Y-113612803D01*
X149509793Y-113596059D01*
X149500000Y-113594508D01*
X149490207Y-113596059D01*
X149489169Y-113596059D01*
X149421048Y-113576057D01*
X149374555Y-113522401D01*
X149364451Y-113452127D01*
X149393945Y-113387547D01*
X149400074Y-113380964D01*
X150118633Y-112662405D01*
X150180945Y-112628379D01*
X150207728Y-112625500D01*
X150236418Y-112625500D01*
X150304539Y-112645502D01*
X150351032Y-112699158D01*
X150360867Y-112771210D01*
X150349126Y-112845342D01*
X150344508Y-112874500D01*
X150364354Y-112999804D01*
X150421950Y-113112842D01*
X150511658Y-113202550D01*
X150624696Y-113260146D01*
X150634485Y-113261696D01*
X150634487Y-113261697D01*
X150740207Y-113278441D01*
X150750000Y-113279992D01*
X150759793Y-113278441D01*
X150865513Y-113261697D01*
X150865515Y-113261696D01*
X150875304Y-113260146D01*
X150988342Y-113202550D01*
X151078050Y-113112842D01*
X151135646Y-112999804D01*
X151155492Y-112874500D01*
X151150874Y-112845342D01*
X151139133Y-112771210D01*
X151148233Y-112700799D01*
X151193955Y-112646485D01*
X151263582Y-112625500D01*
X158196504Y-112625500D01*
X158219801Y-112627979D01*
X158221886Y-112628077D01*
X158232066Y-112630269D01*
X158264984Y-112626373D01*
X158270821Y-112626029D01*
X158270813Y-112625928D01*
X158275992Y-112625500D01*
X158281193Y-112625500D01*
X158286321Y-112624646D01*
X158286327Y-112624646D01*
X158299987Y-112622372D01*
X158305863Y-112621535D01*
X158310952Y-112620933D01*
X158356210Y-112615576D01*
X158364377Y-112611654D01*
X158373313Y-112610167D01*
X158382475Y-112605223D01*
X158382479Y-112605222D01*
X158417929Y-112586094D01*
X158423220Y-112583398D01*
X158461749Y-112564897D01*
X158461750Y-112564896D01*
X158468900Y-112561463D01*
X158473131Y-112557906D01*
X158475063Y-112555974D01*
X158476937Y-112554255D01*
X158477074Y-112554181D01*
X158477174Y-112554291D01*
X158477654Y-112553868D01*
X158483329Y-112550806D01*
X158519540Y-112511634D01*
X158522969Y-112508069D01*
X159477692Y-111553346D01*
X159495909Y-111538633D01*
X159497460Y-111537222D01*
X159506210Y-111531572D01*
X159512658Y-111523392D01*
X159512661Y-111523390D01*
X159526734Y-111505539D01*
X159530621Y-111501165D01*
X159530543Y-111501099D01*
X159533898Y-111497140D01*
X159537576Y-111493462D01*
X159540595Y-111489238D01*
X159540602Y-111489229D01*
X159548679Y-111477926D01*
X159552243Y-111473180D01*
X159577154Y-111441580D01*
X159583603Y-111433400D01*
X159586605Y-111424852D01*
X159591872Y-111417481D01*
X159606396Y-111368917D01*
X159608231Y-111363270D01*
X159622395Y-111322936D01*
X159622395Y-111322935D01*
X159625023Y-111315452D01*
X159625500Y-111309945D01*
X159625500Y-111307238D01*
X159625611Y-111304668D01*
X159625659Y-111304506D01*
X159625804Y-111304512D01*
X159625843Y-111303892D01*
X159627691Y-111297713D01*
X159625597Y-111244419D01*
X159625500Y-111239473D01*
X159625500Y-101809333D01*
X159625842Y-101803892D01*
X159627690Y-101797714D01*
X159625597Y-101744445D01*
X159625500Y-101739499D01*
X159625500Y-99303496D01*
X159627979Y-99280208D01*
X159628078Y-99278110D01*
X159630269Y-99267933D01*
X159626373Y-99235015D01*
X159626029Y-99229179D01*
X159625928Y-99229187D01*
X159625500Y-99224008D01*
X159625500Y-99218807D01*
X159622371Y-99200007D01*
X159621534Y-99194130D01*
X159616800Y-99154134D01*
X159615576Y-99143790D01*
X159611654Y-99135623D01*
X159610167Y-99126687D01*
X159605223Y-99117525D01*
X159605222Y-99117521D01*
X159586094Y-99082071D01*
X159583398Y-99076780D01*
X159564897Y-99038251D01*
X159564896Y-99038250D01*
X159561463Y-99031100D01*
X159557906Y-99026869D01*
X159555974Y-99024937D01*
X159554255Y-99023063D01*
X159554181Y-99022926D01*
X159554291Y-99022826D01*
X159553868Y-99022346D01*
X159550806Y-99016671D01*
X159532772Y-99000000D01*
X159511633Y-98980460D01*
X159508067Y-98977030D01*
X159378892Y-98847855D01*
X159355720Y-98815963D01*
X159328050Y-98761658D01*
X159238342Y-98671950D01*
X159125304Y-98614354D01*
X159115515Y-98612804D01*
X159115513Y-98612803D01*
X159009793Y-98596059D01*
X159000000Y-98594508D01*
X158990207Y-98596059D01*
X158884487Y-98612803D01*
X158884485Y-98612804D01*
X158874696Y-98614354D01*
X158761658Y-98671950D01*
X158671950Y-98761658D01*
X158614354Y-98874696D01*
X158612804Y-98884485D01*
X158612803Y-98884487D01*
X158612374Y-98887197D01*
X158594508Y-99000000D01*
X158596059Y-99009793D01*
X158608494Y-99088303D01*
X158614354Y-99125304D01*
X158671950Y-99238342D01*
X158761658Y-99328050D01*
X158805704Y-99350493D01*
X158857318Y-99399240D01*
X158874500Y-99462759D01*
X158874500Y-101542273D01*
X158854498Y-101610394D01*
X158837595Y-101631368D01*
X158532148Y-101936815D01*
X158469836Y-101970841D01*
X158399021Y-101965776D01*
X158349417Y-101932030D01*
X158309832Y-101888066D01*
X158309831Y-101888065D01*
X158305410Y-101883155D01*
X158203803Y-101809333D01*
X158170366Y-101785039D01*
X158170365Y-101785038D01*
X158165024Y-101781158D01*
X158158996Y-101778474D01*
X158158994Y-101778473D01*
X158012530Y-101713263D01*
X158012529Y-101713263D01*
X158006499Y-101710578D01*
X157921632Y-101692539D01*
X157843221Y-101675872D01*
X157843217Y-101675872D01*
X157836764Y-101674500D01*
X157663236Y-101674500D01*
X157656783Y-101675872D01*
X157656779Y-101675872D01*
X157578369Y-101692539D01*
X157493501Y-101710578D01*
X157487472Y-101713262D01*
X157487470Y-101713263D01*
X157341007Y-101778473D01*
X157341005Y-101778474D01*
X157334977Y-101781158D01*
X157329636Y-101785038D01*
X157329635Y-101785039D01*
X157217445Y-101866550D01*
X157194590Y-101883155D01*
X157190169Y-101888065D01*
X157190168Y-101888066D01*
X157105158Y-101982480D01*
X157078478Y-102012111D01*
X156991714Y-102162389D01*
X156969448Y-102230918D01*
X156958176Y-102265612D01*
X156938092Y-102327424D01*
X156919953Y-102500000D01*
X156938092Y-102672576D01*
X156991714Y-102837611D01*
X157078478Y-102987889D01*
X157082899Y-102992799D01*
X157179687Y-103100293D01*
X157194590Y-103116845D01*
X157334976Y-103218842D01*
X157341004Y-103221526D01*
X157341006Y-103221527D01*
X157439771Y-103265500D01*
X157493501Y-103289422D01*
X157572436Y-103306200D01*
X157656779Y-103324128D01*
X157656783Y-103324128D01*
X157663236Y-103325500D01*
X157836764Y-103325500D01*
X157843217Y-103324128D01*
X157843221Y-103324128D01*
X157927564Y-103306200D01*
X158006499Y-103289422D01*
X158060229Y-103265500D01*
X158158994Y-103221527D01*
X158158996Y-103221526D01*
X158165024Y-103218842D01*
X158305410Y-103116845D01*
X158320314Y-103100293D01*
X158417101Y-102992799D01*
X158421522Y-102987889D01*
X158451904Y-102935267D01*
X158503288Y-102886274D01*
X158540332Y-102873979D01*
X158550022Y-102872366D01*
X158555863Y-102871535D01*
X158560952Y-102870933D01*
X158606210Y-102865576D01*
X158614377Y-102861654D01*
X158623313Y-102860167D01*
X158632475Y-102855223D01*
X158632479Y-102855222D01*
X158667929Y-102836094D01*
X158673218Y-102833399D01*
X158693957Y-102823440D01*
X158764023Y-102811983D01*
X158829160Y-102840225D01*
X158868689Y-102899200D01*
X158874500Y-102937023D01*
X158874500Y-111042273D01*
X158854498Y-111110394D01*
X158837595Y-111131368D01*
X158131368Y-111837595D01*
X158069056Y-111871621D01*
X158042273Y-111874500D01*
X150053496Y-111874500D01*
X150030199Y-111872021D01*
X150028114Y-111871923D01*
X150017934Y-111869731D01*
X149985014Y-111873627D01*
X149979179Y-111873971D01*
X149979187Y-111874072D01*
X149974009Y-111874500D01*
X149968807Y-111874500D01*
X149950013Y-111877628D01*
X149944146Y-111878463D01*
X149930668Y-111880058D01*
X149893791Y-111884423D01*
X149885622Y-111888346D01*
X149876687Y-111889833D01*
X149832064Y-111913911D01*
X149826801Y-111916592D01*
X149806882Y-111926157D01*
X149781100Y-111938537D01*
X149776869Y-111942094D01*
X149774937Y-111944026D01*
X149773063Y-111945745D01*
X149772926Y-111945819D01*
X149772826Y-111945709D01*
X149772346Y-111946132D01*
X149766671Y-111949194D01*
X149759602Y-111956841D01*
X149759601Y-111956842D01*
X149730460Y-111988367D01*
X149727030Y-111991933D01*
X148097855Y-113621108D01*
X148065963Y-113644280D01*
X148011658Y-113671950D01*
X147921950Y-113761658D01*
X147864354Y-113874696D01*
X147862804Y-113884485D01*
X147862803Y-113884487D01*
X147859452Y-113905644D01*
X147844508Y-114000000D01*
X143700500Y-114000000D01*
X143700500Y-113270180D01*
X143691767Y-113226278D01*
X143684873Y-113215960D01*
X143684872Y-113215958D01*
X143665399Y-113186815D01*
X143658504Y-113176496D01*
X143626547Y-113155143D01*
X143619042Y-113150128D01*
X143619040Y-113150127D01*
X143608722Y-113143233D01*
X143564820Y-113134500D01*
X143405398Y-113134500D01*
X143337277Y-113114498D01*
X143290784Y-113060842D01*
X143280680Y-112990568D01*
X143310174Y-112925988D01*
X143331337Y-112906564D01*
X143361991Y-112884293D01*
X143422230Y-112840526D01*
X143479231Y-112777221D01*
X143537440Y-112712573D01*
X143537441Y-112712572D01*
X143541859Y-112707665D01*
X143588793Y-112626373D01*
X143627946Y-112558558D01*
X143627947Y-112558557D01*
X143631250Y-112552835D01*
X143678256Y-112408165D01*
X143684457Y-112389082D01*
X143684457Y-112389080D01*
X143686497Y-112382803D01*
X143697127Y-112281671D01*
X143704495Y-112211565D01*
X143705185Y-112205000D01*
X143697919Y-112135873D01*
X143687187Y-112033761D01*
X143687187Y-112033760D01*
X143686497Y-112027197D01*
X143657690Y-111938537D01*
X143643471Y-111894777D01*
X143631250Y-111857165D01*
X143541859Y-111702335D01*
X143500634Y-111656550D01*
X143426645Y-111574377D01*
X143426643Y-111574376D01*
X143422230Y-111569474D01*
X143370063Y-111531572D01*
X143282935Y-111468269D01*
X143282933Y-111468268D01*
X143277593Y-111464388D01*
X143271567Y-111461705D01*
X143271560Y-111461701D01*
X143200597Y-111430107D01*
X143146501Y-111384127D01*
X143125851Y-111316200D01*
X143145203Y-111247892D01*
X143200597Y-111199893D01*
X143271560Y-111168299D01*
X143271567Y-111168295D01*
X143277593Y-111165612D01*
X143316703Y-111137197D01*
X143416891Y-111064405D01*
X143422230Y-111060526D01*
X143479231Y-110997221D01*
X143537440Y-110932573D01*
X143537441Y-110932572D01*
X143541859Y-110927665D01*
X143631250Y-110772835D01*
X143678256Y-110628165D01*
X143684457Y-110609082D01*
X143684457Y-110609080D01*
X143686497Y-110602803D01*
X143697127Y-110501671D01*
X143704495Y-110431565D01*
X143705185Y-110425000D01*
X143697919Y-110355873D01*
X143687187Y-110253761D01*
X143687187Y-110253760D01*
X143686792Y-110250000D01*
X151594508Y-110250000D01*
X151596059Y-110259793D01*
X151610082Y-110348329D01*
X151614354Y-110375304D01*
X151671950Y-110488342D01*
X151761658Y-110578050D01*
X151874696Y-110635646D01*
X151884485Y-110637196D01*
X151884487Y-110637197D01*
X151990207Y-110653941D01*
X152000000Y-110655492D01*
X152009793Y-110653941D01*
X152115513Y-110637197D01*
X152115515Y-110637196D01*
X152125304Y-110635646D01*
X152238342Y-110578050D01*
X152316392Y-110500000D01*
X156919953Y-110500000D01*
X156938092Y-110672576D01*
X156991714Y-110837611D01*
X157078478Y-110987889D01*
X157082899Y-110992799D01*
X157188782Y-111110394D01*
X157194590Y-111116845D01*
X157334976Y-111218842D01*
X157341004Y-111221526D01*
X157341006Y-111221527D01*
X157487470Y-111286737D01*
X157493501Y-111289422D01*
X157566974Y-111305039D01*
X157656779Y-111324128D01*
X157656783Y-111324128D01*
X157663236Y-111325500D01*
X157836764Y-111325500D01*
X157843217Y-111324128D01*
X157843221Y-111324128D01*
X157933026Y-111305039D01*
X158006499Y-111289422D01*
X158012530Y-111286737D01*
X158158994Y-111221527D01*
X158158996Y-111221526D01*
X158165024Y-111218842D01*
X158305410Y-111116845D01*
X158311219Y-111110394D01*
X158417101Y-110992799D01*
X158421522Y-110987889D01*
X158508286Y-110837611D01*
X158561908Y-110672576D01*
X158580047Y-110500000D01*
X158579218Y-110492108D01*
X158567869Y-110384137D01*
X158561908Y-110327424D01*
X158508286Y-110162389D01*
X158421522Y-110012111D01*
X158305410Y-109883155D01*
X158165024Y-109781158D01*
X158158996Y-109778474D01*
X158158994Y-109778473D01*
X158012530Y-109713263D01*
X158012529Y-109713263D01*
X158006499Y-109710578D01*
X157901543Y-109688269D01*
X157843221Y-109675872D01*
X157843217Y-109675872D01*
X157836764Y-109674500D01*
X157663236Y-109674500D01*
X157656783Y-109675872D01*
X157656779Y-109675872D01*
X157598457Y-109688269D01*
X157493501Y-109710578D01*
X157487472Y-109713262D01*
X157487470Y-109713263D01*
X157341007Y-109778473D01*
X157341005Y-109778474D01*
X157334977Y-109781158D01*
X157329636Y-109785038D01*
X157329635Y-109785039D01*
X157316783Y-109794377D01*
X157194590Y-109883155D01*
X157078478Y-110012111D01*
X156991714Y-110162389D01*
X156938092Y-110327424D01*
X156932131Y-110384137D01*
X156920783Y-110492108D01*
X156919953Y-110500000D01*
X152316392Y-110500000D01*
X152328050Y-110488342D01*
X152385646Y-110375304D01*
X152389919Y-110348329D01*
X152403941Y-110259793D01*
X152405492Y-110250000D01*
X152403941Y-110240207D01*
X152387197Y-110134487D01*
X152387196Y-110134485D01*
X152385646Y-110124696D01*
X152328050Y-110011658D01*
X152238342Y-109921950D01*
X152125304Y-109864354D01*
X152115515Y-109862804D01*
X152115513Y-109862803D01*
X152009793Y-109846059D01*
X152000000Y-109844508D01*
X151990207Y-109846059D01*
X151884487Y-109862803D01*
X151884485Y-109862804D01*
X151874696Y-109864354D01*
X151761658Y-109921950D01*
X151671950Y-110011658D01*
X151614354Y-110124696D01*
X151612804Y-110134485D01*
X151612803Y-110134487D01*
X151596059Y-110240207D01*
X151594508Y-110250000D01*
X143686792Y-110250000D01*
X143686497Y-110247197D01*
X143631250Y-110077165D01*
X143541859Y-109922335D01*
X143493705Y-109868855D01*
X143426645Y-109794377D01*
X143426643Y-109794376D01*
X143422230Y-109789474D01*
X143317336Y-109713263D01*
X143282935Y-109688269D01*
X143282933Y-109688268D01*
X143277593Y-109684388D01*
X143271567Y-109681705D01*
X143271560Y-109681701D01*
X143200597Y-109650107D01*
X143146501Y-109604127D01*
X143125851Y-109536200D01*
X143145203Y-109467892D01*
X143200597Y-109419893D01*
X143271560Y-109388299D01*
X143271567Y-109388295D01*
X143277593Y-109385612D01*
X143316703Y-109357197D01*
X143416891Y-109284405D01*
X143422230Y-109280526D01*
X143449716Y-109250000D01*
X146844508Y-109250000D01*
X146846059Y-109259793D01*
X146860492Y-109350918D01*
X146864354Y-109375304D01*
X146921950Y-109488342D01*
X147011658Y-109578050D01*
X147124696Y-109635646D01*
X147134485Y-109637196D01*
X147134487Y-109637197D01*
X147240207Y-109653941D01*
X147250000Y-109655492D01*
X147259793Y-109653941D01*
X147365513Y-109637197D01*
X147365515Y-109637196D01*
X147375304Y-109635646D01*
X147488342Y-109578050D01*
X147578050Y-109488342D01*
X147635646Y-109375304D01*
X147639509Y-109350918D01*
X147651612Y-109274500D01*
X154844508Y-109274500D01*
X154846059Y-109284293D01*
X154861873Y-109384137D01*
X154864354Y-109399804D01*
X154921950Y-109512842D01*
X155011658Y-109602550D01*
X155124696Y-109660146D01*
X155134485Y-109661696D01*
X155134487Y-109661697D01*
X155240207Y-109678441D01*
X155250000Y-109679992D01*
X155259793Y-109678441D01*
X155365513Y-109661697D01*
X155365515Y-109661696D01*
X155375304Y-109660146D01*
X155488342Y-109602550D01*
X155578050Y-109512842D01*
X155635646Y-109399804D01*
X155638128Y-109384137D01*
X155653941Y-109284293D01*
X155655492Y-109274500D01*
X155635646Y-109149196D01*
X155578050Y-109036158D01*
X155488342Y-108946450D01*
X155375304Y-108888854D01*
X155365515Y-108887304D01*
X155365513Y-108887303D01*
X155259793Y-108870559D01*
X155250000Y-108869008D01*
X155240207Y-108870559D01*
X155134487Y-108887303D01*
X155134485Y-108887304D01*
X155124696Y-108888854D01*
X155011658Y-108946450D01*
X154921950Y-109036158D01*
X154864354Y-109149196D01*
X154844508Y-109274500D01*
X147651612Y-109274500D01*
X147653941Y-109259793D01*
X147655492Y-109250000D01*
X147650300Y-109217221D01*
X147637197Y-109134487D01*
X147637196Y-109134485D01*
X147635646Y-109124696D01*
X147578050Y-109011658D01*
X147488342Y-108921950D01*
X147375304Y-108864354D01*
X147365515Y-108862804D01*
X147365513Y-108862803D01*
X147259793Y-108846059D01*
X147250000Y-108844508D01*
X147240207Y-108846059D01*
X147134487Y-108862803D01*
X147134485Y-108862804D01*
X147124696Y-108864354D01*
X147011658Y-108921950D01*
X146921950Y-109011658D01*
X146864354Y-109124696D01*
X146862804Y-109134485D01*
X146862803Y-109134487D01*
X146849700Y-109217221D01*
X146844508Y-109250000D01*
X143449716Y-109250000D01*
X143479231Y-109217221D01*
X143537440Y-109152573D01*
X143537441Y-109152572D01*
X143541859Y-109147665D01*
X143605142Y-109038056D01*
X143627946Y-108998558D01*
X143627947Y-108998557D01*
X143631250Y-108992835D01*
X143679829Y-108843326D01*
X143684457Y-108829082D01*
X143684457Y-108829080D01*
X143686497Y-108822803D01*
X143694149Y-108750000D01*
X148344508Y-108750000D01*
X148346059Y-108759793D01*
X148362620Y-108864354D01*
X148364354Y-108875304D01*
X148421950Y-108988342D01*
X148511658Y-109078050D01*
X148624696Y-109135646D01*
X148634485Y-109137196D01*
X148634487Y-109137197D01*
X148740207Y-109153941D01*
X148750000Y-109155492D01*
X148759793Y-109153941D01*
X148865513Y-109137197D01*
X148865515Y-109137196D01*
X148875304Y-109135646D01*
X148988342Y-109078050D01*
X149078050Y-108988342D01*
X149135646Y-108875304D01*
X149137381Y-108864354D01*
X149153941Y-108759793D01*
X149155492Y-108750000D01*
X153344508Y-108750000D01*
X153346059Y-108759793D01*
X153362620Y-108864354D01*
X153364354Y-108875304D01*
X153421950Y-108988342D01*
X153511658Y-109078050D01*
X153624696Y-109135646D01*
X153634485Y-109137196D01*
X153634487Y-109137197D01*
X153740207Y-109153941D01*
X153750000Y-109155492D01*
X153759793Y-109153941D01*
X153865513Y-109137197D01*
X153865515Y-109137196D01*
X153875304Y-109135646D01*
X153988342Y-109078050D01*
X154078050Y-108988342D01*
X154135646Y-108875304D01*
X154137381Y-108864354D01*
X154153941Y-108759793D01*
X154155492Y-108750000D01*
X154145118Y-108684500D01*
X154137197Y-108634487D01*
X154137196Y-108634485D01*
X154135646Y-108624696D01*
X154078050Y-108511658D01*
X154066392Y-108500000D01*
X156919953Y-108500000D01*
X156938092Y-108672576D01*
X156940132Y-108678855D01*
X156940133Y-108678859D01*
X156960066Y-108740207D01*
X156991714Y-108837611D01*
X157078478Y-108987889D01*
X157194590Y-109116845D01*
X157334976Y-109218842D01*
X157341004Y-109221526D01*
X157341006Y-109221527D01*
X157484337Y-109285342D01*
X157493501Y-109289422D01*
X157578369Y-109307461D01*
X157656779Y-109324128D01*
X157656783Y-109324128D01*
X157663236Y-109325500D01*
X157836764Y-109325500D01*
X157843217Y-109324128D01*
X157843221Y-109324128D01*
X157921631Y-109307461D01*
X158006499Y-109289422D01*
X158015663Y-109285342D01*
X158158994Y-109221527D01*
X158158996Y-109221526D01*
X158165024Y-109218842D01*
X158305410Y-109116845D01*
X158421522Y-108987889D01*
X158508286Y-108837611D01*
X158539934Y-108740207D01*
X158559867Y-108678859D01*
X158559868Y-108678855D01*
X158561908Y-108672576D01*
X158580047Y-108500000D01*
X158561908Y-108327424D01*
X158554816Y-108305595D01*
X158535807Y-108247092D01*
X158508286Y-108162389D01*
X158421522Y-108012111D01*
X158305410Y-107883155D01*
X158165024Y-107781158D01*
X158158996Y-107778474D01*
X158158994Y-107778473D01*
X158012530Y-107713263D01*
X158012529Y-107713263D01*
X158006499Y-107710578D01*
X157921631Y-107692539D01*
X157843221Y-107675872D01*
X157843217Y-107675872D01*
X157836764Y-107674500D01*
X157663236Y-107674500D01*
X157656783Y-107675872D01*
X157656779Y-107675872D01*
X157578369Y-107692539D01*
X157493501Y-107710578D01*
X157487472Y-107713262D01*
X157487470Y-107713263D01*
X157341007Y-107778473D01*
X157341005Y-107778474D01*
X157334977Y-107781158D01*
X157329636Y-107785038D01*
X157329635Y-107785039D01*
X157265452Y-107831671D01*
X157194590Y-107883155D01*
X157078478Y-108012111D01*
X156991714Y-108162389D01*
X156964193Y-108247092D01*
X156945185Y-108305595D01*
X156938092Y-108327424D01*
X156919953Y-108500000D01*
X154066392Y-108500000D01*
X153988342Y-108421950D01*
X153875304Y-108364354D01*
X153876294Y-108362412D01*
X153828542Y-108329759D01*
X153800905Y-108264362D01*
X153813012Y-108194405D01*
X153861019Y-108142100D01*
X153875068Y-108135683D01*
X153875304Y-108135646D01*
X153988342Y-108078050D01*
X154078050Y-107988342D01*
X154135646Y-107875304D01*
X154144072Y-107822108D01*
X154153941Y-107759793D01*
X154155492Y-107750000D01*
X154150028Y-107715500D01*
X154137197Y-107634487D01*
X154137196Y-107634485D01*
X154135646Y-107624696D01*
X154078050Y-107511658D01*
X153988342Y-107421950D01*
X153875304Y-107364354D01*
X153865515Y-107362804D01*
X153865513Y-107362803D01*
X153759793Y-107346059D01*
X153750000Y-107344508D01*
X153740207Y-107346059D01*
X153634487Y-107362803D01*
X153634485Y-107362804D01*
X153624696Y-107364354D01*
X153511658Y-107421950D01*
X153421950Y-107511658D01*
X153364354Y-107624696D01*
X153362804Y-107634485D01*
X153362803Y-107634487D01*
X153349972Y-107715500D01*
X153344508Y-107750000D01*
X153346059Y-107759793D01*
X153355929Y-107822108D01*
X153364354Y-107875304D01*
X153421950Y-107988342D01*
X153511658Y-108078050D01*
X153623367Y-108134969D01*
X153624696Y-108135646D01*
X153623706Y-108137588D01*
X153671458Y-108170241D01*
X153699095Y-108235638D01*
X153686988Y-108305595D01*
X153638981Y-108357900D01*
X153624932Y-108364317D01*
X153624696Y-108364354D01*
X153511658Y-108421950D01*
X153421950Y-108511658D01*
X153364354Y-108624696D01*
X153362804Y-108634485D01*
X153362803Y-108634487D01*
X153354882Y-108684500D01*
X153344508Y-108750000D01*
X149155492Y-108750000D01*
X149145118Y-108684500D01*
X149137197Y-108634487D01*
X149137196Y-108634485D01*
X149135646Y-108624696D01*
X149078050Y-108511658D01*
X148988342Y-108421950D01*
X148875304Y-108364354D01*
X148865515Y-108362804D01*
X148865513Y-108362803D01*
X148759793Y-108346059D01*
X148750000Y-108344508D01*
X148740207Y-108346059D01*
X148634487Y-108362803D01*
X148634485Y-108362804D01*
X148624696Y-108364354D01*
X148511658Y-108421950D01*
X148421950Y-108511658D01*
X148364354Y-108624696D01*
X148362804Y-108634485D01*
X148362803Y-108634487D01*
X148354882Y-108684500D01*
X148344508Y-108750000D01*
X143694149Y-108750000D01*
X143697127Y-108721671D01*
X143704495Y-108651565D01*
X143705185Y-108645000D01*
X143697919Y-108575873D01*
X143687187Y-108473761D01*
X143687187Y-108473760D01*
X143686497Y-108467197D01*
X143631250Y-108297165D01*
X143595728Y-108235638D01*
X143545162Y-108148056D01*
X143541859Y-108142335D01*
X143488028Y-108082550D01*
X143426645Y-108014377D01*
X143426643Y-108014376D01*
X143422230Y-108009474D01*
X143325345Y-107939082D01*
X143282935Y-107908269D01*
X143282933Y-107908268D01*
X143277593Y-107904388D01*
X143271567Y-107901705D01*
X143271560Y-107901701D01*
X143200597Y-107870107D01*
X143146501Y-107824127D01*
X143125851Y-107756200D01*
X143145203Y-107687892D01*
X143200597Y-107639893D01*
X143271560Y-107608299D01*
X143271567Y-107608295D01*
X143277593Y-107605612D01*
X143315529Y-107578050D01*
X143416891Y-107504405D01*
X143422230Y-107500526D01*
X143479231Y-107437221D01*
X143537440Y-107372573D01*
X143537441Y-107372572D01*
X143541859Y-107367665D01*
X143566995Y-107324128D01*
X143609793Y-107250000D01*
X145344508Y-107250000D01*
X145346059Y-107259793D01*
X145362620Y-107364354D01*
X145364354Y-107375304D01*
X145421950Y-107488342D01*
X145511658Y-107578050D01*
X145624696Y-107635646D01*
X145634485Y-107637196D01*
X145634487Y-107637197D01*
X145740207Y-107653941D01*
X145750000Y-107655492D01*
X145759793Y-107653941D01*
X145865513Y-107637197D01*
X145865515Y-107637196D01*
X145875304Y-107635646D01*
X145988342Y-107578050D01*
X146078050Y-107488342D01*
X146135646Y-107375304D01*
X146137381Y-107364354D01*
X146153941Y-107259793D01*
X146155492Y-107250000D01*
X146150512Y-107218558D01*
X146137197Y-107134487D01*
X146137196Y-107134485D01*
X146135646Y-107124696D01*
X146078050Y-107011658D01*
X146066392Y-107000000D01*
X147594508Y-107000000D01*
X147614354Y-107125304D01*
X147671950Y-107238342D01*
X147761658Y-107328050D01*
X147874696Y-107385646D01*
X147884485Y-107387196D01*
X147884487Y-107387197D01*
X147990207Y-107403941D01*
X148000000Y-107405492D01*
X148009793Y-107403941D01*
X148115513Y-107387197D01*
X148115515Y-107387196D01*
X148125304Y-107385646D01*
X148238342Y-107328050D01*
X148328050Y-107238342D01*
X148385646Y-107125304D01*
X148405492Y-107000000D01*
X148393130Y-106921950D01*
X148387197Y-106884487D01*
X148387196Y-106884485D01*
X148385646Y-106874696D01*
X148328050Y-106761658D01*
X148238342Y-106671950D01*
X148125304Y-106614354D01*
X148115515Y-106612804D01*
X148115513Y-106612803D01*
X148009793Y-106596059D01*
X148000000Y-106594508D01*
X147990207Y-106596059D01*
X147884487Y-106612803D01*
X147884485Y-106612804D01*
X147874696Y-106614354D01*
X147761658Y-106671950D01*
X147671950Y-106761658D01*
X147614354Y-106874696D01*
X147612804Y-106884485D01*
X147612803Y-106884487D01*
X147606870Y-106921950D01*
X147594508Y-107000000D01*
X146066392Y-107000000D01*
X145988342Y-106921950D01*
X145875304Y-106864354D01*
X145876294Y-106862412D01*
X145828542Y-106829759D01*
X145800905Y-106764362D01*
X145813012Y-106694405D01*
X145861019Y-106642100D01*
X145875068Y-106635683D01*
X145875304Y-106635646D01*
X145988342Y-106578050D01*
X146066392Y-106500000D01*
X156919953Y-106500000D01*
X156938092Y-106672576D01*
X156940132Y-106678855D01*
X156940133Y-106678859D01*
X156950814Y-106711731D01*
X156991714Y-106837611D01*
X157078478Y-106987889D01*
X157082899Y-106992799D01*
X157150759Y-107068165D01*
X157194590Y-107116845D01*
X157284017Y-107181818D01*
X157318058Y-107206550D01*
X157334976Y-107218842D01*
X157341004Y-107221526D01*
X157341006Y-107221527D01*
X157426953Y-107259793D01*
X157493501Y-107289422D01*
X157578369Y-107307461D01*
X157656779Y-107324128D01*
X157656783Y-107324128D01*
X157663236Y-107325500D01*
X157836764Y-107325500D01*
X157843217Y-107324128D01*
X157843221Y-107324128D01*
X157921632Y-107307461D01*
X158006499Y-107289422D01*
X158073047Y-107259793D01*
X158158994Y-107221527D01*
X158158996Y-107221526D01*
X158165024Y-107218842D01*
X158181943Y-107206550D01*
X158215983Y-107181818D01*
X158305410Y-107116845D01*
X158349242Y-107068165D01*
X158417101Y-106992799D01*
X158421522Y-106987889D01*
X158508286Y-106837611D01*
X158549186Y-106711731D01*
X158559867Y-106678859D01*
X158559868Y-106678855D01*
X158561908Y-106672576D01*
X158580047Y-106500000D01*
X158561908Y-106327424D01*
X158550652Y-106292779D01*
X158530083Y-106229474D01*
X158508286Y-106162389D01*
X158421522Y-106012111D01*
X158366788Y-105951322D01*
X158309832Y-105888066D01*
X158309831Y-105888065D01*
X158305410Y-105883155D01*
X158187100Y-105797197D01*
X158170366Y-105785039D01*
X158170365Y-105785038D01*
X158165024Y-105781158D01*
X158158996Y-105778474D01*
X158158994Y-105778473D01*
X158012530Y-105713263D01*
X158012529Y-105713263D01*
X158006499Y-105710578D01*
X157921632Y-105692539D01*
X157843221Y-105675872D01*
X157843217Y-105675872D01*
X157836764Y-105674500D01*
X157663236Y-105674500D01*
X157656783Y-105675872D01*
X157656779Y-105675872D01*
X157578368Y-105692539D01*
X157493501Y-105710578D01*
X157487472Y-105713262D01*
X157487470Y-105713263D01*
X157341007Y-105778473D01*
X157341005Y-105778474D01*
X157334977Y-105781158D01*
X157329636Y-105785038D01*
X157329635Y-105785039D01*
X157270436Y-105828050D01*
X157194590Y-105883155D01*
X157190169Y-105888065D01*
X157190168Y-105888066D01*
X157133212Y-105951322D01*
X157078478Y-106012111D01*
X156991714Y-106162389D01*
X156969917Y-106229474D01*
X156949349Y-106292779D01*
X156938092Y-106327424D01*
X156919953Y-106500000D01*
X146066392Y-106500000D01*
X146078050Y-106488342D01*
X146135646Y-106375304D01*
X146138478Y-106357427D01*
X146153941Y-106259793D01*
X146155492Y-106250000D01*
X146151627Y-106225595D01*
X146137197Y-106134487D01*
X146137196Y-106134485D01*
X146135646Y-106124696D01*
X146078050Y-106011658D01*
X145988342Y-105921950D01*
X145875304Y-105864354D01*
X145865515Y-105862804D01*
X145865513Y-105862803D01*
X145759793Y-105846059D01*
X145750000Y-105844508D01*
X145740207Y-105846059D01*
X145634487Y-105862803D01*
X145634485Y-105862804D01*
X145624696Y-105864354D01*
X145511658Y-105921950D01*
X145421950Y-106011658D01*
X145364354Y-106124696D01*
X145362804Y-106134485D01*
X145362803Y-106134487D01*
X145348373Y-106225595D01*
X145344508Y-106250000D01*
X145346059Y-106259793D01*
X145361523Y-106357427D01*
X145364354Y-106375304D01*
X145421950Y-106488342D01*
X145511658Y-106578050D01*
X145591742Y-106618855D01*
X145624696Y-106635646D01*
X145623706Y-106637588D01*
X145671458Y-106670241D01*
X145699095Y-106735638D01*
X145686988Y-106805595D01*
X145638981Y-106857900D01*
X145624932Y-106864317D01*
X145624696Y-106864354D01*
X145511658Y-106921950D01*
X145421950Y-107011658D01*
X145364354Y-107124696D01*
X145362804Y-107134485D01*
X145362803Y-107134487D01*
X145349488Y-107218558D01*
X145344508Y-107250000D01*
X143609793Y-107250000D01*
X143627946Y-107218558D01*
X143627947Y-107218557D01*
X143631250Y-107212835D01*
X143678256Y-107068165D01*
X143684457Y-107049082D01*
X143684457Y-107049080D01*
X143686497Y-107042803D01*
X143689771Y-107011658D01*
X143704495Y-106871565D01*
X143705185Y-106865000D01*
X143697919Y-106795873D01*
X143687187Y-106693761D01*
X143687187Y-106693760D01*
X143686497Y-106687197D01*
X143676196Y-106655492D01*
X143633292Y-106523450D01*
X143631250Y-106517165D01*
X143617550Y-106493435D01*
X143545162Y-106368056D01*
X143541859Y-106362335D01*
X143500634Y-106316550D01*
X143426645Y-106234377D01*
X143426643Y-106234376D01*
X143422230Y-106229474D01*
X143337069Y-106167600D01*
X143282935Y-106128269D01*
X143282933Y-106128268D01*
X143277593Y-106124388D01*
X143271567Y-106121705D01*
X143271560Y-106121701D01*
X143200597Y-106090107D01*
X143146501Y-106044127D01*
X143125851Y-105976200D01*
X143145203Y-105907892D01*
X143200597Y-105859893D01*
X143271560Y-105828299D01*
X143271567Y-105828295D01*
X143277593Y-105825612D01*
X143316703Y-105797197D01*
X143416891Y-105724405D01*
X143422230Y-105720526D01*
X143431188Y-105710578D01*
X143537440Y-105592573D01*
X143537441Y-105592572D01*
X143541859Y-105587665D01*
X143631250Y-105432835D01*
X143680977Y-105279793D01*
X143684159Y-105270000D01*
X149114508Y-105270000D01*
X149134354Y-105395304D01*
X149191950Y-105508342D01*
X149281658Y-105598050D01*
X149394696Y-105655646D01*
X149404485Y-105657196D01*
X149404487Y-105657197D01*
X149510207Y-105673941D01*
X149520000Y-105675492D01*
X149529793Y-105673941D01*
X149635513Y-105657197D01*
X149635515Y-105657196D01*
X149645304Y-105655646D01*
X149758342Y-105598050D01*
X149848050Y-105508342D01*
X149852300Y-105500000D01*
X150320008Y-105500000D01*
X150321559Y-105509793D01*
X150333893Y-105587665D01*
X150339854Y-105625304D01*
X150397450Y-105738342D01*
X150487158Y-105828050D01*
X150600196Y-105885646D01*
X150609985Y-105887196D01*
X150609987Y-105887197D01*
X150715707Y-105903941D01*
X150725500Y-105905492D01*
X150735293Y-105903941D01*
X150841013Y-105887197D01*
X150841015Y-105887196D01*
X150850804Y-105885646D01*
X150963842Y-105828050D01*
X151041892Y-105750000D01*
X154344508Y-105750000D01*
X154346059Y-105759793D01*
X154362620Y-105864354D01*
X154364354Y-105875304D01*
X154421950Y-105988342D01*
X154511658Y-106078050D01*
X154624696Y-106135646D01*
X154634485Y-106137196D01*
X154634487Y-106137197D01*
X154740207Y-106153941D01*
X154750000Y-106155492D01*
X154759793Y-106153941D01*
X154865513Y-106137197D01*
X154865515Y-106137196D01*
X154875304Y-106135646D01*
X154988342Y-106078050D01*
X155078050Y-105988342D01*
X155135646Y-105875304D01*
X155137381Y-105864354D01*
X155153941Y-105759793D01*
X155155492Y-105750000D01*
X155150047Y-105715623D01*
X155137197Y-105634487D01*
X155137196Y-105634485D01*
X155135646Y-105624696D01*
X155078050Y-105511658D01*
X154988342Y-105421950D01*
X154875304Y-105364354D01*
X154865515Y-105362804D01*
X154865513Y-105362803D01*
X154759793Y-105346059D01*
X154750000Y-105344508D01*
X154740207Y-105346059D01*
X154634487Y-105362803D01*
X154634485Y-105362804D01*
X154624696Y-105364354D01*
X154511658Y-105421950D01*
X154421950Y-105511658D01*
X154364354Y-105624696D01*
X154362804Y-105634485D01*
X154362803Y-105634487D01*
X154349953Y-105715623D01*
X154344508Y-105750000D01*
X151041892Y-105750000D01*
X151053550Y-105738342D01*
X151111146Y-105625304D01*
X151117108Y-105587665D01*
X151129441Y-105509793D01*
X151130992Y-105500000D01*
X151129441Y-105490207D01*
X151112697Y-105384487D01*
X151112696Y-105384485D01*
X151111146Y-105374696D01*
X151053550Y-105261658D01*
X150963842Y-105171950D01*
X150850804Y-105114354D01*
X150851794Y-105112412D01*
X150804042Y-105079759D01*
X150776405Y-105014362D01*
X150788512Y-104944405D01*
X150836519Y-104892100D01*
X150850568Y-104885683D01*
X150850804Y-104885646D01*
X150963842Y-104828050D01*
X151053550Y-104738342D01*
X151111146Y-104625304D01*
X151117046Y-104588056D01*
X151129441Y-104509793D01*
X151130992Y-104500000D01*
X156919953Y-104500000D01*
X156938092Y-104672576D01*
X156940132Y-104678855D01*
X156940133Y-104678859D01*
X156947838Y-104702573D01*
X156991714Y-104837611D01*
X157078478Y-104987889D01*
X157194590Y-105116845D01*
X157270435Y-105171950D01*
X157309190Y-105200107D01*
X157334976Y-105218842D01*
X157341004Y-105221526D01*
X157341006Y-105221527D01*
X157471874Y-105279793D01*
X157493501Y-105289422D01*
X157578368Y-105307461D01*
X157656779Y-105324128D01*
X157656783Y-105324128D01*
X157663236Y-105325500D01*
X157836764Y-105325500D01*
X157843217Y-105324128D01*
X157843221Y-105324128D01*
X157921632Y-105307461D01*
X158006499Y-105289422D01*
X158028126Y-105279793D01*
X158158994Y-105221527D01*
X158158996Y-105221526D01*
X158165024Y-105218842D01*
X158190811Y-105200107D01*
X158229565Y-105171950D01*
X158305410Y-105116845D01*
X158421522Y-104987889D01*
X158508286Y-104837611D01*
X158552162Y-104702573D01*
X158559867Y-104678859D01*
X158559868Y-104678855D01*
X158561908Y-104672576D01*
X158580047Y-104500000D01*
X158561908Y-104327424D01*
X158556282Y-104310107D01*
X158521015Y-104201565D01*
X158508286Y-104162389D01*
X158421522Y-104012111D01*
X158305410Y-103883155D01*
X158165024Y-103781158D01*
X158158996Y-103778474D01*
X158158994Y-103778473D01*
X158012530Y-103713263D01*
X158012529Y-103713263D01*
X158006499Y-103710578D01*
X157920672Y-103692335D01*
X157843221Y-103675872D01*
X157843217Y-103675872D01*
X157836764Y-103674500D01*
X157663236Y-103674500D01*
X157656783Y-103675872D01*
X157656779Y-103675872D01*
X157579328Y-103692335D01*
X157493501Y-103710578D01*
X157487472Y-103713262D01*
X157487470Y-103713263D01*
X157341007Y-103778473D01*
X157341005Y-103778474D01*
X157334977Y-103781158D01*
X157194590Y-103883155D01*
X157078478Y-104012111D01*
X156991714Y-104162389D01*
X156978985Y-104201565D01*
X156943719Y-104310107D01*
X156938092Y-104327424D01*
X156919953Y-104500000D01*
X151130992Y-104500000D01*
X151117567Y-104415237D01*
X151112697Y-104384487D01*
X151112696Y-104384485D01*
X151111146Y-104374696D01*
X151053550Y-104261658D01*
X150963842Y-104171950D01*
X150850804Y-104114354D01*
X150841015Y-104112804D01*
X150841013Y-104112803D01*
X150735293Y-104096059D01*
X150725500Y-104094508D01*
X150715707Y-104096059D01*
X150609987Y-104112803D01*
X150609985Y-104112804D01*
X150600196Y-104114354D01*
X150487158Y-104171950D01*
X150397450Y-104261658D01*
X150339854Y-104374696D01*
X150338304Y-104384485D01*
X150338303Y-104384487D01*
X150333433Y-104415237D01*
X150320008Y-104500000D01*
X150321559Y-104509793D01*
X150333955Y-104588056D01*
X150339854Y-104625304D01*
X150397450Y-104738342D01*
X150487158Y-104828050D01*
X150558711Y-104864508D01*
X150600196Y-104885646D01*
X150599206Y-104887588D01*
X150646958Y-104920241D01*
X150674595Y-104985638D01*
X150662488Y-105055595D01*
X150614481Y-105107900D01*
X150600432Y-105114317D01*
X150600196Y-105114354D01*
X150487158Y-105171950D01*
X150397450Y-105261658D01*
X150339854Y-105374696D01*
X150338304Y-105384485D01*
X150338303Y-105384487D01*
X150321559Y-105490207D01*
X150320008Y-105500000D01*
X149852300Y-105500000D01*
X149905646Y-105395304D01*
X149925492Y-105270000D01*
X149923941Y-105260207D01*
X149907197Y-105154487D01*
X149907196Y-105154485D01*
X149905646Y-105144696D01*
X149848050Y-105031658D01*
X149758342Y-104941950D01*
X149645304Y-104884354D01*
X149635515Y-104882804D01*
X149635513Y-104882803D01*
X149529793Y-104866059D01*
X149520000Y-104864508D01*
X149510207Y-104866059D01*
X149404487Y-104882803D01*
X149404485Y-104882804D01*
X149394696Y-104884354D01*
X149281658Y-104941950D01*
X149191950Y-105031658D01*
X149134354Y-105144696D01*
X149132804Y-105154485D01*
X149132803Y-105154487D01*
X149116059Y-105260207D01*
X149114508Y-105270000D01*
X143684159Y-105270000D01*
X143684457Y-105269082D01*
X143684457Y-105269080D01*
X143686497Y-105262803D01*
X143691526Y-105214961D01*
X143704495Y-105091565D01*
X143705185Y-105085000D01*
X143700507Y-105040491D01*
X143687187Y-104913761D01*
X143687187Y-104913760D01*
X143686497Y-104907197D01*
X143673131Y-104866059D01*
X143633292Y-104743450D01*
X143631250Y-104737165D01*
X143541859Y-104582335D01*
X143487146Y-104521570D01*
X143426645Y-104454377D01*
X143426643Y-104454376D01*
X143422230Y-104449474D01*
X143319308Y-104374696D01*
X143282935Y-104348269D01*
X143282933Y-104348268D01*
X143277593Y-104344388D01*
X143271567Y-104341705D01*
X143271560Y-104341701D01*
X143200597Y-104310107D01*
X143146501Y-104264127D01*
X143125851Y-104196200D01*
X143145203Y-104127892D01*
X143200597Y-104079893D01*
X143271560Y-104048299D01*
X143271567Y-104048295D01*
X143277593Y-104045612D01*
X143316703Y-104017197D01*
X143416891Y-103944405D01*
X143422230Y-103940526D01*
X143469466Y-103888066D01*
X143537440Y-103812573D01*
X143537441Y-103812572D01*
X143541859Y-103807665D01*
X143583790Y-103735039D01*
X143627946Y-103658558D01*
X143627947Y-103658557D01*
X143631250Y-103652835D01*
X143678256Y-103508165D01*
X143684457Y-103489082D01*
X143684457Y-103489080D01*
X143686497Y-103482803D01*
X143697127Y-103381671D01*
X143704495Y-103311565D01*
X143705185Y-103305000D01*
X143697919Y-103235873D01*
X143687187Y-103133761D01*
X143687187Y-103133760D01*
X143686497Y-103127197D01*
X143683134Y-103116845D01*
X143633292Y-102963450D01*
X143631250Y-102957165D01*
X143583222Y-102873977D01*
X143545162Y-102808056D01*
X143541859Y-102802335D01*
X143484239Y-102738342D01*
X143426645Y-102674377D01*
X143426643Y-102674376D01*
X143422230Y-102669474D01*
X143325345Y-102599082D01*
X143282935Y-102568269D01*
X143282933Y-102568268D01*
X143277593Y-102564388D01*
X143271567Y-102561705D01*
X143271560Y-102561701D01*
X143200597Y-102530107D01*
X143146501Y-102484127D01*
X143125851Y-102416200D01*
X143145203Y-102347892D01*
X143200597Y-102299893D01*
X143271560Y-102268299D01*
X143271567Y-102268295D01*
X143277593Y-102265612D01*
X143316703Y-102237197D01*
X143416891Y-102164405D01*
X143422230Y-102160526D01*
X143479231Y-102097221D01*
X143537440Y-102032573D01*
X143537441Y-102032572D01*
X143541859Y-102027665D01*
X143611278Y-101907427D01*
X143627946Y-101878558D01*
X143627947Y-101878557D01*
X143631250Y-101872835D01*
X143678256Y-101728165D01*
X143684457Y-101709082D01*
X143684457Y-101709080D01*
X143686497Y-101702803D01*
X143697127Y-101601671D01*
X143704495Y-101531565D01*
X143705185Y-101525000D01*
X143697919Y-101455873D01*
X143687187Y-101353761D01*
X143687187Y-101353760D01*
X143686497Y-101347197D01*
X143631250Y-101177165D01*
X143541859Y-101022335D01*
X143500634Y-100976550D01*
X143426645Y-100894377D01*
X143426643Y-100894376D01*
X143422230Y-100889474D01*
X143325345Y-100819082D01*
X143282935Y-100788269D01*
X143282933Y-100788268D01*
X143277593Y-100784388D01*
X143271565Y-100781704D01*
X143271563Y-100781703D01*
X143120298Y-100714356D01*
X143120297Y-100714356D01*
X143114267Y-100711671D01*
X143026829Y-100693085D01*
X142945848Y-100675872D01*
X142945844Y-100675872D01*
X142939391Y-100674500D01*
X142760609Y-100674500D01*
X142754156Y-100675872D01*
X142754152Y-100675872D01*
X142673171Y-100693085D01*
X142585733Y-100711671D01*
X142579703Y-100714356D01*
X142579702Y-100714356D01*
X142428438Y-100781703D01*
X142428436Y-100781704D01*
X142422408Y-100784388D01*
X142277770Y-100889474D01*
X142273357Y-100894376D01*
X142273355Y-100894377D01*
X142199366Y-100976550D01*
X142158141Y-101022335D01*
X142068750Y-101177165D01*
X142064638Y-101189820D01*
X142046333Y-101246157D01*
X142006259Y-101304763D01*
X141940863Y-101332400D01*
X141870906Y-101320293D01*
X141818600Y-101272287D01*
X141800500Y-101207221D01*
X141800500Y-99505099D01*
X141800541Y-99505000D01*
X141800383Y-99504617D01*
X141800099Y-99504500D01*
X141800000Y-99504459D01*
X141799901Y-99504500D01*
X133200099Y-99504500D01*
X133200000Y-99504459D01*
X133199901Y-99504500D01*
X133199617Y-99504617D01*
X133199459Y-99505000D01*
X133199500Y-99505099D01*
X133199500Y-100317221D01*
X133179498Y-100385342D01*
X133125842Y-100431835D01*
X133055568Y-100441939D01*
X132990988Y-100412445D01*
X132953667Y-100356157D01*
X132933292Y-100293450D01*
X132931250Y-100287165D01*
X132841859Y-100132335D01*
X132835528Y-100125304D01*
X132726645Y-100004377D01*
X132726643Y-100004376D01*
X132722230Y-99999474D01*
X132577593Y-99894388D01*
X132571565Y-99891704D01*
X132571563Y-99891703D01*
X132420298Y-99824356D01*
X132420297Y-99824356D01*
X132414267Y-99821671D01*
X132326829Y-99803085D01*
X132245848Y-99785872D01*
X132245844Y-99785872D01*
X132239391Y-99784500D01*
X132060609Y-99784500D01*
X132054156Y-99785872D01*
X132054152Y-99785872D01*
X131973171Y-99803085D01*
X131885733Y-99821671D01*
X131879703Y-99824356D01*
X131879702Y-99824356D01*
X131728438Y-99891703D01*
X131728436Y-99891704D01*
X131722408Y-99894388D01*
X131717067Y-99898268D01*
X131717066Y-99898269D01*
X131611513Y-99974958D01*
X131544645Y-99998817D01*
X131475494Y-99982736D01*
X131426013Y-99931822D01*
X131413004Y-99892734D01*
X131411699Y-99884493D01*
X131411696Y-99884485D01*
X131410146Y-99874696D01*
X131352550Y-99761658D01*
X131262842Y-99671950D01*
X131149804Y-99614354D01*
X131140015Y-99612804D01*
X131140013Y-99612803D01*
X131034293Y-99596059D01*
X131024500Y-99594508D01*
X131014707Y-99596059D01*
X130908987Y-99612803D01*
X130908985Y-99612804D01*
X130899196Y-99614354D01*
X130786158Y-99671950D01*
X130696450Y-99761658D01*
X130638854Y-99874696D01*
X130619008Y-100000000D01*
X128405492Y-100000000D01*
X128385646Y-99874696D01*
X128328050Y-99761658D01*
X128238342Y-99671950D01*
X128125304Y-99614354D01*
X128115515Y-99612804D01*
X128115513Y-99612803D01*
X128009793Y-99596059D01*
X128000000Y-99594508D01*
X127990207Y-99596059D01*
X127884487Y-99612803D01*
X127884485Y-99612804D01*
X127874696Y-99614354D01*
X127761658Y-99671950D01*
X127671950Y-99761658D01*
X127614354Y-99874696D01*
X127594508Y-100000000D01*
X115000500Y-100000000D01*
X115000500Y-99475500D01*
X128594508Y-99475500D01*
X128596059Y-99485293D01*
X128600335Y-99512288D01*
X128614354Y-99600804D01*
X128671950Y-99713842D01*
X128761658Y-99803550D01*
X128874696Y-99861146D01*
X128884485Y-99862696D01*
X128884487Y-99862697D01*
X128990207Y-99879441D01*
X129000000Y-99880992D01*
X129009793Y-99879441D01*
X129115513Y-99862697D01*
X129115515Y-99862696D01*
X129125304Y-99861146D01*
X129238342Y-99803550D01*
X129328050Y-99713842D01*
X129385646Y-99600804D01*
X129399666Y-99512288D01*
X129403941Y-99485293D01*
X129405492Y-99475500D01*
X129385646Y-99350196D01*
X129328050Y-99237158D01*
X129238342Y-99147450D01*
X129125304Y-99089854D01*
X129115515Y-99088304D01*
X129115513Y-99088303D01*
X129009793Y-99071559D01*
X129000000Y-99070008D01*
X128990207Y-99071559D01*
X128884487Y-99088303D01*
X128884485Y-99088304D01*
X128874696Y-99089854D01*
X128761658Y-99147450D01*
X128671950Y-99237158D01*
X128614354Y-99350196D01*
X128594508Y-99475500D01*
X115000500Y-99475500D01*
X115000500Y-98250000D01*
X128844508Y-98250000D01*
X128846059Y-98259793D01*
X128861467Y-98357073D01*
X128864354Y-98375304D01*
X128921950Y-98488342D01*
X129011658Y-98578050D01*
X129124696Y-98635646D01*
X129134485Y-98637196D01*
X129134487Y-98637197D01*
X129240207Y-98653941D01*
X129250000Y-98655492D01*
X129259793Y-98653941D01*
X129365513Y-98637197D01*
X129365515Y-98637196D01*
X129375304Y-98635646D01*
X129488342Y-98578050D01*
X129566392Y-98500000D01*
X133094508Y-98500000D01*
X133096059Y-98509793D01*
X133112620Y-98614354D01*
X133114354Y-98625304D01*
X133171950Y-98738342D01*
X133261658Y-98828050D01*
X133374696Y-98885646D01*
X133384485Y-98887196D01*
X133384487Y-98887197D01*
X133490207Y-98903941D01*
X133500000Y-98905492D01*
X133509793Y-98903941D01*
X133615513Y-98887197D01*
X133615515Y-98887196D01*
X133625304Y-98885646D01*
X133738342Y-98828050D01*
X133828050Y-98738342D01*
X133885646Y-98625304D01*
X133887381Y-98614354D01*
X133903941Y-98509793D01*
X133905492Y-98500000D01*
X135094508Y-98500000D01*
X135096059Y-98509793D01*
X135112620Y-98614354D01*
X135114354Y-98625304D01*
X135171950Y-98738342D01*
X135261658Y-98828050D01*
X135374696Y-98885646D01*
X135384485Y-98887196D01*
X135384487Y-98887197D01*
X135490207Y-98903941D01*
X135500000Y-98905492D01*
X135509793Y-98903941D01*
X135615513Y-98887197D01*
X135615515Y-98887196D01*
X135625304Y-98885646D01*
X135738342Y-98828050D01*
X135828050Y-98738342D01*
X135885646Y-98625304D01*
X135887381Y-98614354D01*
X135903941Y-98509793D01*
X135905492Y-98500000D01*
X137094508Y-98500000D01*
X137096059Y-98509793D01*
X137112620Y-98614354D01*
X137114354Y-98625304D01*
X137171950Y-98738342D01*
X137261658Y-98828050D01*
X137374696Y-98885646D01*
X137384485Y-98887196D01*
X137384487Y-98887197D01*
X137490207Y-98903941D01*
X137500000Y-98905492D01*
X137509793Y-98903941D01*
X137615513Y-98887197D01*
X137615515Y-98887196D01*
X137625304Y-98885646D01*
X137738342Y-98828050D01*
X137828050Y-98738342D01*
X137885646Y-98625304D01*
X137887381Y-98614354D01*
X137903941Y-98509793D01*
X137905492Y-98500000D01*
X137887626Y-98387197D01*
X137887197Y-98384487D01*
X137887196Y-98384485D01*
X137885646Y-98374696D01*
X137828050Y-98261658D01*
X137738342Y-98171950D01*
X137625304Y-98114354D01*
X137615515Y-98112804D01*
X137615513Y-98112803D01*
X137509793Y-98096059D01*
X137500000Y-98094508D01*
X137490207Y-98096059D01*
X137384487Y-98112803D01*
X137384485Y-98112804D01*
X137374696Y-98114354D01*
X137261658Y-98171950D01*
X137171950Y-98261658D01*
X137114354Y-98374696D01*
X137112804Y-98384485D01*
X137112803Y-98384487D01*
X137112374Y-98387197D01*
X137094508Y-98500000D01*
X135905492Y-98500000D01*
X135887626Y-98387197D01*
X135887197Y-98384487D01*
X135887196Y-98384485D01*
X135885646Y-98374696D01*
X135828050Y-98261658D01*
X135738342Y-98171950D01*
X135625304Y-98114354D01*
X135615515Y-98112804D01*
X135615513Y-98112803D01*
X135509793Y-98096059D01*
X135500000Y-98094508D01*
X135490207Y-98096059D01*
X135384487Y-98112803D01*
X135384485Y-98112804D01*
X135374696Y-98114354D01*
X135261658Y-98171950D01*
X135171950Y-98261658D01*
X135114354Y-98374696D01*
X135112804Y-98384485D01*
X135112803Y-98384487D01*
X135112374Y-98387197D01*
X135094508Y-98500000D01*
X133905492Y-98500000D01*
X133887626Y-98387197D01*
X133887197Y-98384487D01*
X133887196Y-98384485D01*
X133885646Y-98374696D01*
X133828050Y-98261658D01*
X133738342Y-98171950D01*
X133625304Y-98114354D01*
X133615515Y-98112804D01*
X133615513Y-98112803D01*
X133509793Y-98096059D01*
X133500000Y-98094508D01*
X133490207Y-98096059D01*
X133384487Y-98112803D01*
X133384485Y-98112804D01*
X133374696Y-98114354D01*
X133261658Y-98171950D01*
X133171950Y-98261658D01*
X133114354Y-98374696D01*
X133112804Y-98384485D01*
X133112803Y-98384487D01*
X133112374Y-98387197D01*
X133094508Y-98500000D01*
X129566392Y-98500000D01*
X129578050Y-98488342D01*
X129635646Y-98375304D01*
X129638534Y-98357073D01*
X129653941Y-98259793D01*
X129655492Y-98250000D01*
X129651289Y-98223465D01*
X129637197Y-98134487D01*
X129637196Y-98134485D01*
X129635646Y-98124696D01*
X129578050Y-98011658D01*
X129566392Y-98000000D01*
X139869819Y-98000000D01*
X139888426Y-98117482D01*
X139942427Y-98223465D01*
X140026535Y-98307573D01*
X140132518Y-98361574D01*
X140250000Y-98380181D01*
X140367482Y-98361574D01*
X140473465Y-98307573D01*
X140557573Y-98223465D01*
X140611574Y-98117482D01*
X140613125Y-98107689D01*
X140616190Y-98098256D01*
X140617806Y-98098781D01*
X140643302Y-98044990D01*
X140703568Y-98007460D01*
X140774557Y-98008469D01*
X140833732Y-98047697D01*
X140861792Y-98109134D01*
X140862802Y-98115508D01*
X140864354Y-98125304D01*
X140921950Y-98238342D01*
X141011658Y-98328050D01*
X141124696Y-98385646D01*
X141134485Y-98387196D01*
X141134487Y-98387197D01*
X141240207Y-98403941D01*
X141250000Y-98405492D01*
X141259793Y-98403941D01*
X141365513Y-98387197D01*
X141365515Y-98387196D01*
X141375304Y-98385646D01*
X141488342Y-98328050D01*
X141578050Y-98238342D01*
X141635646Y-98125304D01*
X141637381Y-98114354D01*
X141653941Y-98009793D01*
X141655492Y-98000000D01*
X141643130Y-97921950D01*
X141637197Y-97884487D01*
X141637196Y-97884485D01*
X141635646Y-97874696D01*
X141578050Y-97761658D01*
X141488342Y-97671950D01*
X141375304Y-97614354D01*
X141365515Y-97612804D01*
X141365513Y-97612803D01*
X141259793Y-97596059D01*
X141250000Y-97594508D01*
X141240207Y-97596059D01*
X141134487Y-97612803D01*
X141134485Y-97612804D01*
X141124696Y-97614354D01*
X141011658Y-97671950D01*
X140921950Y-97761658D01*
X140864354Y-97874696D01*
X140862803Y-97884489D01*
X140862802Y-97884492D01*
X140861792Y-97890866D01*
X140831378Y-97955018D01*
X140771109Y-97992543D01*
X140700120Y-97991528D01*
X140640949Y-97952294D01*
X140617650Y-97901270D01*
X140616190Y-97901744D01*
X140613125Y-97892310D01*
X140611574Y-97882518D01*
X140601330Y-97862412D01*
X140562073Y-97785367D01*
X140557573Y-97776535D01*
X140473465Y-97692427D01*
X140367482Y-97638426D01*
X140250000Y-97619819D01*
X140132518Y-97638426D01*
X140026535Y-97692427D01*
X139942427Y-97776535D01*
X139937927Y-97785367D01*
X139898671Y-97862412D01*
X139888426Y-97882518D01*
X139869819Y-98000000D01*
X129566392Y-98000000D01*
X129488342Y-97921950D01*
X129375304Y-97864354D01*
X129376294Y-97862412D01*
X129328542Y-97829759D01*
X129300905Y-97764362D01*
X129313012Y-97694405D01*
X129361019Y-97642100D01*
X129375068Y-97635683D01*
X129375304Y-97635646D01*
X129488342Y-97578050D01*
X129578050Y-97488342D01*
X129597082Y-97450989D01*
X132094508Y-97450989D01*
X132114354Y-97576293D01*
X132171950Y-97689331D01*
X132261658Y-97779039D01*
X132374696Y-97836635D01*
X132384485Y-97838185D01*
X132384487Y-97838186D01*
X132490207Y-97854930D01*
X132500000Y-97856481D01*
X132509793Y-97854930D01*
X132615513Y-97838186D01*
X132615515Y-97838185D01*
X132625304Y-97836635D01*
X132738342Y-97779039D01*
X132828050Y-97689331D01*
X132885646Y-97576293D01*
X132905492Y-97450989D01*
X132897385Y-97399804D01*
X132887197Y-97335476D01*
X132887196Y-97335474D01*
X132885646Y-97325685D01*
X132859566Y-97274500D01*
X136094508Y-97274500D01*
X136096059Y-97284293D01*
X136111873Y-97384137D01*
X136114354Y-97399804D01*
X136171950Y-97512842D01*
X136261658Y-97602550D01*
X136374696Y-97660146D01*
X136384485Y-97661696D01*
X136384487Y-97661697D01*
X136490207Y-97678441D01*
X136500000Y-97679992D01*
X136509793Y-97678441D01*
X136615513Y-97661697D01*
X136615515Y-97661696D01*
X136625304Y-97660146D01*
X136738342Y-97602550D01*
X136828050Y-97512842D01*
X136885646Y-97399804D01*
X136888128Y-97384137D01*
X136903941Y-97284293D01*
X136905492Y-97274500D01*
X136885646Y-97149196D01*
X136828050Y-97036158D01*
X136738342Y-96946450D01*
X136625304Y-96888854D01*
X136615515Y-96887304D01*
X136615513Y-96887303D01*
X136509793Y-96870559D01*
X136500000Y-96869008D01*
X136490207Y-96870559D01*
X136384487Y-96887303D01*
X136384485Y-96887304D01*
X136374696Y-96888854D01*
X136261658Y-96946450D01*
X136171950Y-97036158D01*
X136114354Y-97149196D01*
X136094508Y-97274500D01*
X132859566Y-97274500D01*
X132828050Y-97212647D01*
X132738342Y-97122939D01*
X132625304Y-97065343D01*
X132615515Y-97063793D01*
X132615513Y-97063792D01*
X132509793Y-97047048D01*
X132500000Y-97045497D01*
X132490207Y-97047048D01*
X132384487Y-97063792D01*
X132384485Y-97063793D01*
X132374696Y-97065343D01*
X132261658Y-97122939D01*
X132171950Y-97212647D01*
X132114354Y-97325685D01*
X132112804Y-97335474D01*
X132112803Y-97335476D01*
X132102615Y-97399804D01*
X132094508Y-97450989D01*
X129597082Y-97450989D01*
X129635646Y-97375304D01*
X129655492Y-97250000D01*
X129640278Y-97153941D01*
X129637197Y-97134487D01*
X129637196Y-97134485D01*
X129635646Y-97124696D01*
X129578050Y-97011658D01*
X129488342Y-96921950D01*
X129375304Y-96864354D01*
X129376294Y-96862412D01*
X129328542Y-96829759D01*
X129300905Y-96764362D01*
X129303391Y-96750000D01*
X137094508Y-96750000D01*
X137096059Y-96759793D01*
X137112620Y-96864354D01*
X137114354Y-96875304D01*
X137171950Y-96988342D01*
X137261658Y-97078050D01*
X137374696Y-97135646D01*
X137384485Y-97137196D01*
X137384487Y-97137197D01*
X137490207Y-97153941D01*
X137500000Y-97155492D01*
X137509793Y-97153941D01*
X137615513Y-97137197D01*
X137615515Y-97137196D01*
X137625304Y-97135646D01*
X137738342Y-97078050D01*
X137828050Y-96988342D01*
X137885646Y-96875304D01*
X137887381Y-96864354D01*
X137903941Y-96759793D01*
X137905492Y-96750000D01*
X137890278Y-96653941D01*
X137887197Y-96634487D01*
X137887196Y-96634485D01*
X137885646Y-96624696D01*
X137828050Y-96511658D01*
X137738342Y-96421950D01*
X137625304Y-96364354D01*
X137615515Y-96362804D01*
X137615513Y-96362803D01*
X137509793Y-96346059D01*
X137500000Y-96344508D01*
X137490207Y-96346059D01*
X137384487Y-96362803D01*
X137384485Y-96362804D01*
X137374696Y-96364354D01*
X137261658Y-96421950D01*
X137171950Y-96511658D01*
X137114354Y-96624696D01*
X137112804Y-96634485D01*
X137112803Y-96634487D01*
X137109722Y-96653941D01*
X137094508Y-96750000D01*
X129303391Y-96750000D01*
X129313012Y-96694405D01*
X129361019Y-96642100D01*
X129375068Y-96635683D01*
X129375304Y-96635646D01*
X129488342Y-96578050D01*
X129578050Y-96488342D01*
X129635646Y-96375304D01*
X129637381Y-96364354D01*
X129653941Y-96259793D01*
X129655492Y-96250000D01*
X129635646Y-96124696D01*
X129578050Y-96011658D01*
X129488342Y-95921950D01*
X129375304Y-95864354D01*
X129365515Y-95862804D01*
X129365513Y-95862803D01*
X129259793Y-95846059D01*
X129250000Y-95844508D01*
X129240207Y-95846059D01*
X129134487Y-95862803D01*
X129134485Y-95862804D01*
X129124696Y-95864354D01*
X129011658Y-95921950D01*
X128921950Y-96011658D01*
X128864354Y-96124696D01*
X128844508Y-96250000D01*
X128846059Y-96259793D01*
X128862620Y-96364354D01*
X128864354Y-96375304D01*
X128921950Y-96488342D01*
X129011658Y-96578050D01*
X129085870Y-96615863D01*
X129124696Y-96635646D01*
X129123706Y-96637588D01*
X129171458Y-96670241D01*
X129199095Y-96735638D01*
X129186988Y-96805595D01*
X129138981Y-96857900D01*
X129124932Y-96864317D01*
X129124696Y-96864354D01*
X129011658Y-96921950D01*
X128921950Y-97011658D01*
X128864354Y-97124696D01*
X128862804Y-97134485D01*
X128862803Y-97134487D01*
X128859722Y-97153941D01*
X128844508Y-97250000D01*
X128864354Y-97375304D01*
X128921950Y-97488342D01*
X129011658Y-97578050D01*
X129091742Y-97618855D01*
X129124696Y-97635646D01*
X129123706Y-97637588D01*
X129171458Y-97670241D01*
X129199095Y-97735638D01*
X129186988Y-97805595D01*
X129138981Y-97857900D01*
X129124932Y-97864317D01*
X129124696Y-97864354D01*
X129011658Y-97921950D01*
X128921950Y-98011658D01*
X128864354Y-98124696D01*
X128862804Y-98134485D01*
X128862803Y-98134487D01*
X128848711Y-98223465D01*
X128844508Y-98250000D01*
X115000500Y-98250000D01*
X115000500Y-95500000D01*
X135538519Y-95500000D01*
X135558365Y-95625304D01*
X135615961Y-95738342D01*
X135705669Y-95828050D01*
X135818707Y-95885646D01*
X135828496Y-95887196D01*
X135828498Y-95887197D01*
X135934218Y-95903941D01*
X135944011Y-95905492D01*
X135953804Y-95903941D01*
X136059524Y-95887197D01*
X136059526Y-95887196D01*
X136069315Y-95885646D01*
X136182353Y-95828050D01*
X136272061Y-95738342D01*
X136329657Y-95625304D01*
X136349503Y-95500000D01*
X137344508Y-95500000D01*
X137364354Y-95625304D01*
X137421950Y-95738342D01*
X137511658Y-95828050D01*
X137624696Y-95885646D01*
X137634485Y-95887196D01*
X137634487Y-95887197D01*
X137740207Y-95903941D01*
X137750000Y-95905492D01*
X137759793Y-95903941D01*
X137865513Y-95887197D01*
X137865515Y-95887196D01*
X137875304Y-95885646D01*
X137988342Y-95828050D01*
X138078050Y-95738342D01*
X138135646Y-95625304D01*
X138155492Y-95500000D01*
X138135646Y-95374696D01*
X138099376Y-95303512D01*
X138086272Y-95233735D01*
X138112972Y-95167950D01*
X138171000Y-95127044D01*
X138241931Y-95124004D01*
X138253610Y-95128360D01*
X138253705Y-95128069D01*
X138263138Y-95131134D01*
X138271972Y-95135635D01*
X138281761Y-95137185D01*
X138281763Y-95137186D01*
X138387483Y-95153930D01*
X138397276Y-95155481D01*
X138407069Y-95153930D01*
X138512789Y-95137186D01*
X138512791Y-95137185D01*
X138522580Y-95135635D01*
X138635618Y-95078039D01*
X138725326Y-94988331D01*
X138740963Y-94957641D01*
X139046235Y-94957641D01*
X139047786Y-94967434D01*
X139064194Y-95071028D01*
X139066081Y-95082945D01*
X139123677Y-95195983D01*
X139213385Y-95285691D01*
X139326423Y-95343287D01*
X139336212Y-95344837D01*
X139336214Y-95344838D01*
X139441934Y-95361582D01*
X139451727Y-95363133D01*
X139461520Y-95361582D01*
X139567240Y-95344838D01*
X139567242Y-95344837D01*
X139577031Y-95343287D01*
X139690069Y-95285691D01*
X139779777Y-95195983D01*
X139837373Y-95082945D01*
X139839261Y-95071028D01*
X139855668Y-94967434D01*
X139857219Y-94957641D01*
X139855451Y-94946477D01*
X139838924Y-94842128D01*
X139838923Y-94842126D01*
X139837373Y-94832337D01*
X139779777Y-94719299D01*
X139690069Y-94629591D01*
X139577031Y-94571995D01*
X139567242Y-94570445D01*
X139567240Y-94570444D01*
X139461520Y-94553700D01*
X139451727Y-94552149D01*
X139441934Y-94553700D01*
X139336214Y-94570444D01*
X139336212Y-94570445D01*
X139326423Y-94571995D01*
X139213385Y-94629591D01*
X139123677Y-94719299D01*
X139066081Y-94832337D01*
X139064531Y-94842126D01*
X139064530Y-94842128D01*
X139048003Y-94946477D01*
X139046235Y-94957641D01*
X138740963Y-94957641D01*
X138782922Y-94875293D01*
X138789726Y-94832337D01*
X138801217Y-94759782D01*
X138802768Y-94749989D01*
X138796797Y-94712288D01*
X138784473Y-94634476D01*
X138784472Y-94634474D01*
X138782922Y-94624685D01*
X138725326Y-94511647D01*
X138635618Y-94421939D01*
X138522580Y-94364343D01*
X138512791Y-94362793D01*
X138512789Y-94362792D01*
X138407069Y-94346048D01*
X138397276Y-94344497D01*
X138387483Y-94346048D01*
X138281763Y-94362792D01*
X138281761Y-94362793D01*
X138271972Y-94364343D01*
X138158934Y-94421939D01*
X138069226Y-94511647D01*
X138011630Y-94624685D01*
X138010080Y-94634474D01*
X138010079Y-94634476D01*
X137997755Y-94712288D01*
X137991784Y-94749989D01*
X137993335Y-94759782D01*
X138004827Y-94832337D01*
X138011630Y-94875293D01*
X138026227Y-94903941D01*
X138047900Y-94946477D01*
X138061004Y-95016254D01*
X138034304Y-95082039D01*
X137976276Y-95122945D01*
X137905345Y-95125985D01*
X137893666Y-95121629D01*
X137893571Y-95121920D01*
X137884137Y-95118854D01*
X137875304Y-95114354D01*
X137865515Y-95112804D01*
X137865513Y-95112803D01*
X137759793Y-95096059D01*
X137750000Y-95094508D01*
X137740207Y-95096059D01*
X137634487Y-95112803D01*
X137634485Y-95112804D01*
X137624696Y-95114354D01*
X137511658Y-95171950D01*
X137421950Y-95261658D01*
X137364354Y-95374696D01*
X137344508Y-95500000D01*
X136349503Y-95500000D01*
X136329657Y-95374696D01*
X136272061Y-95261658D01*
X136182353Y-95171950D01*
X136069315Y-95114354D01*
X136059526Y-95112804D01*
X136059524Y-95112803D01*
X135953804Y-95096059D01*
X135944011Y-95094508D01*
X135934218Y-95096059D01*
X135828498Y-95112803D01*
X135828496Y-95112804D01*
X135818707Y-95114354D01*
X135705669Y-95171950D01*
X135615961Y-95261658D01*
X135558365Y-95374696D01*
X135538519Y-95500000D01*
X115000500Y-95500000D01*
X115000500Y-94500000D01*
X135139011Y-94500000D01*
X135140562Y-94509793D01*
X135151127Y-94576496D01*
X135158857Y-94625304D01*
X135216453Y-94738342D01*
X135306161Y-94828050D01*
X135419199Y-94885646D01*
X135428988Y-94887196D01*
X135428990Y-94887197D01*
X135534710Y-94903941D01*
X135544503Y-94905492D01*
X135554296Y-94903941D01*
X135660016Y-94887197D01*
X135660018Y-94887196D01*
X135669807Y-94885646D01*
X135782845Y-94828050D01*
X135860895Y-94750000D01*
X136295497Y-94750000D01*
X136297048Y-94759793D01*
X136313791Y-94865502D01*
X136315343Y-94875304D01*
X136372939Y-94988342D01*
X136462647Y-95078050D01*
X136575685Y-95135646D01*
X136585474Y-95137196D01*
X136585476Y-95137197D01*
X136691196Y-95153941D01*
X136700989Y-95155492D01*
X136710782Y-95153941D01*
X136816502Y-95137197D01*
X136816504Y-95137196D01*
X136826293Y-95135646D01*
X136939331Y-95078050D01*
X137029039Y-94988342D01*
X137086635Y-94875304D01*
X137088188Y-94865502D01*
X137104930Y-94759793D01*
X137106481Y-94750000D01*
X137103236Y-94729509D01*
X137088186Y-94634487D01*
X137088185Y-94634485D01*
X137086635Y-94624696D01*
X137029039Y-94511658D01*
X136939331Y-94421950D01*
X136826293Y-94364354D01*
X136816504Y-94362804D01*
X136816502Y-94362803D01*
X136710782Y-94346059D01*
X136700989Y-94344508D01*
X136691196Y-94346059D01*
X136585476Y-94362803D01*
X136585474Y-94362804D01*
X136575685Y-94364354D01*
X136462647Y-94421950D01*
X136372939Y-94511658D01*
X136315343Y-94624696D01*
X136313793Y-94634485D01*
X136313792Y-94634487D01*
X136298742Y-94729509D01*
X136295497Y-94750000D01*
X135860895Y-94750000D01*
X135872553Y-94738342D01*
X135930149Y-94625304D01*
X135937880Y-94576496D01*
X135948444Y-94509793D01*
X135949995Y-94500000D01*
X135937633Y-94421950D01*
X135931700Y-94384487D01*
X135931699Y-94384485D01*
X135930149Y-94374696D01*
X135872553Y-94261658D01*
X135782845Y-94171950D01*
X135774014Y-94167450D01*
X135774008Y-94167446D01*
X135721636Y-94140761D01*
X135670021Y-94092013D01*
X135652955Y-94023098D01*
X135675856Y-93955897D01*
X135731454Y-93911745D01*
X135759128Y-93904046D01*
X135814059Y-93895346D01*
X135865512Y-93887197D01*
X135865513Y-93887197D01*
X135875304Y-93885646D01*
X135988342Y-93828050D01*
X136078050Y-93738342D01*
X136135646Y-93625304D01*
X136137381Y-93614354D01*
X136153941Y-93509793D01*
X136155492Y-93500000D01*
X137369819Y-93500000D01*
X137388426Y-93617482D01*
X137392927Y-93626315D01*
X137392927Y-93626316D01*
X137412019Y-93663786D01*
X137442427Y-93723465D01*
X137526535Y-93807573D01*
X137632518Y-93861574D01*
X137750000Y-93880181D01*
X137867482Y-93861574D01*
X137973465Y-93807573D01*
X138057573Y-93723465D01*
X138087981Y-93663786D01*
X138107073Y-93626316D01*
X138107073Y-93626315D01*
X138111574Y-93617482D01*
X138122535Y-93548273D01*
X138844508Y-93548273D01*
X138846059Y-93558066D01*
X138856869Y-93626316D01*
X138864354Y-93673577D01*
X138921950Y-93786615D01*
X139011658Y-93876323D01*
X139124696Y-93933919D01*
X139134485Y-93935469D01*
X139134487Y-93935470D01*
X139240207Y-93952214D01*
X139250000Y-93953765D01*
X139259793Y-93952214D01*
X139365513Y-93935470D01*
X139365515Y-93935469D01*
X139375304Y-93933919D01*
X139488342Y-93876323D01*
X139578050Y-93786615D01*
X139635646Y-93673577D01*
X139643132Y-93626316D01*
X139653941Y-93558066D01*
X139655492Y-93548273D01*
X139650968Y-93519711D01*
X139647846Y-93500000D01*
X140869819Y-93500000D01*
X140888426Y-93617482D01*
X140892927Y-93626315D01*
X140892927Y-93626316D01*
X140912019Y-93663786D01*
X140942427Y-93723465D01*
X141026535Y-93807573D01*
X141132518Y-93861574D01*
X141250000Y-93880181D01*
X141367482Y-93861574D01*
X141473465Y-93807573D01*
X141557573Y-93723465D01*
X141587981Y-93663786D01*
X141607073Y-93626316D01*
X141607073Y-93626315D01*
X141611574Y-93617482D01*
X141630181Y-93500000D01*
X143844508Y-93500000D01*
X143846059Y-93509793D01*
X143862620Y-93614354D01*
X143864354Y-93625304D01*
X143921950Y-93738342D01*
X144011658Y-93828050D01*
X144124696Y-93885646D01*
X144134485Y-93887196D01*
X144134487Y-93887197D01*
X144240207Y-93903941D01*
X144250000Y-93905492D01*
X144259793Y-93903941D01*
X144365513Y-93887197D01*
X144365515Y-93887196D01*
X144375304Y-93885646D01*
X144389074Y-93878630D01*
X144413117Y-93866380D01*
X144482893Y-93853276D01*
X144548678Y-93879976D01*
X144589584Y-93938004D01*
X144593217Y-93980289D01*
X144596059Y-93980289D01*
X144596059Y-93990207D01*
X144594508Y-94000000D01*
X144596059Y-94009793D01*
X144612620Y-94114354D01*
X144614354Y-94125304D01*
X144671950Y-94238342D01*
X144761658Y-94328050D01*
X144874696Y-94385646D01*
X144884485Y-94387196D01*
X144884487Y-94387197D01*
X144990207Y-94403941D01*
X145000000Y-94405492D01*
X145009793Y-94403941D01*
X145115513Y-94387197D01*
X145115515Y-94387196D01*
X145125304Y-94385646D01*
X145238342Y-94328050D01*
X145328050Y-94238342D01*
X145385646Y-94125304D01*
X145387381Y-94114354D01*
X145403941Y-94009793D01*
X145405492Y-94000000D01*
X145387626Y-93887197D01*
X145387197Y-93884487D01*
X145387196Y-93884485D01*
X145385646Y-93874696D01*
X145328050Y-93761658D01*
X145238342Y-93671950D01*
X145125304Y-93614354D01*
X145115515Y-93612804D01*
X145115513Y-93612803D01*
X145009793Y-93596059D01*
X145000000Y-93594508D01*
X144990207Y-93596059D01*
X144884487Y-93612803D01*
X144884485Y-93612804D01*
X144874696Y-93614354D01*
X144865861Y-93618856D01*
X144865860Y-93618856D01*
X144836883Y-93633620D01*
X144767107Y-93646724D01*
X144701322Y-93620024D01*
X144660416Y-93561996D01*
X144656783Y-93519711D01*
X144653941Y-93519711D01*
X144653941Y-93509793D01*
X144655492Y-93500000D01*
X144653941Y-93490207D01*
X144637197Y-93384487D01*
X144637196Y-93384485D01*
X144635646Y-93374696D01*
X144578050Y-93261658D01*
X144488342Y-93171950D01*
X144479511Y-93167450D01*
X144479505Y-93167446D01*
X144378090Y-93115772D01*
X144326475Y-93067024D01*
X144309409Y-92998109D01*
X144332310Y-92930908D01*
X144387811Y-92886833D01*
X144395304Y-92885646D01*
X144415117Y-92875551D01*
X144421753Y-92872170D01*
X144508342Y-92828050D01*
X144598050Y-92738342D01*
X144655646Y-92625304D01*
X144657872Y-92611254D01*
X144673941Y-92509793D01*
X144675492Y-92500000D01*
X144673941Y-92490207D01*
X144657197Y-92384487D01*
X144657196Y-92384485D01*
X144655646Y-92374696D01*
X144598050Y-92261658D01*
X144508342Y-92171950D01*
X144395304Y-92114354D01*
X144385515Y-92112804D01*
X144385513Y-92112803D01*
X144279793Y-92096059D01*
X144270000Y-92094508D01*
X144260207Y-92096059D01*
X144154487Y-92112803D01*
X144154485Y-92112804D01*
X144144696Y-92114354D01*
X144031658Y-92171950D01*
X143941950Y-92261658D01*
X143884354Y-92374696D01*
X143882804Y-92384485D01*
X143882803Y-92384487D01*
X143866059Y-92490207D01*
X143864508Y-92500000D01*
X143866059Y-92509793D01*
X143882129Y-92611254D01*
X143884354Y-92625304D01*
X143941950Y-92738342D01*
X144031658Y-92828050D01*
X144040489Y-92832550D01*
X144040495Y-92832554D01*
X144141910Y-92884228D01*
X144193525Y-92932976D01*
X144210591Y-93001891D01*
X144187690Y-93069092D01*
X144132189Y-93113167D01*
X144124696Y-93114354D01*
X144115865Y-93118854D01*
X144115864Y-93118854D01*
X144101219Y-93126316D01*
X144011658Y-93171950D01*
X143921950Y-93261658D01*
X143864354Y-93374696D01*
X143862804Y-93384485D01*
X143862803Y-93384487D01*
X143846059Y-93490207D01*
X143844508Y-93500000D01*
X141630181Y-93500000D01*
X141611574Y-93382518D01*
X141557573Y-93276535D01*
X141473465Y-93192427D01*
X141367482Y-93138426D01*
X141279233Y-93124449D01*
X141250546Y-93110850D01*
X141220767Y-93124449D01*
X141132518Y-93138426D01*
X141026535Y-93192427D01*
X140942427Y-93276535D01*
X140888426Y-93382518D01*
X140869819Y-93500000D01*
X139647846Y-93500000D01*
X139637197Y-93432760D01*
X139637196Y-93432758D01*
X139635646Y-93422969D01*
X139578050Y-93309931D01*
X139488342Y-93220223D01*
X139375304Y-93162627D01*
X139365515Y-93161077D01*
X139365513Y-93161076D01*
X139259793Y-93144332D01*
X139250000Y-93142781D01*
X139240207Y-93144332D01*
X139134487Y-93161076D01*
X139134485Y-93161077D01*
X139124696Y-93162627D01*
X139011658Y-93220223D01*
X138921950Y-93309931D01*
X138864354Y-93422969D01*
X138862804Y-93432758D01*
X138862803Y-93432760D01*
X138849032Y-93519711D01*
X138844508Y-93548273D01*
X138122535Y-93548273D01*
X138130181Y-93500000D01*
X138111574Y-93382518D01*
X138057573Y-93276535D01*
X137973465Y-93192427D01*
X137867482Y-93138426D01*
X137840805Y-93134201D01*
X137776651Y-93103790D01*
X137750276Y-93061434D01*
X137720630Y-93106146D01*
X137659195Y-93134201D01*
X137632518Y-93138426D01*
X137526535Y-93192427D01*
X137442427Y-93276535D01*
X137388426Y-93382518D01*
X137369819Y-93500000D01*
X136155492Y-93500000D01*
X136153941Y-93490207D01*
X136137197Y-93384487D01*
X136137196Y-93384485D01*
X136135646Y-93374696D01*
X136078050Y-93261658D01*
X135988342Y-93171950D01*
X135875304Y-93114354D01*
X135865515Y-93112804D01*
X135865513Y-93112803D01*
X135759793Y-93096059D01*
X135750000Y-93094508D01*
X135740207Y-93096059D01*
X135634487Y-93112803D01*
X135634485Y-93112804D01*
X135624696Y-93114354D01*
X135511658Y-93171950D01*
X135421950Y-93261658D01*
X135364354Y-93374696D01*
X135362804Y-93384485D01*
X135362803Y-93384487D01*
X135346059Y-93490207D01*
X135344508Y-93500000D01*
X135346059Y-93509793D01*
X135362620Y-93614354D01*
X135364354Y-93625304D01*
X135421950Y-93738342D01*
X135511658Y-93828050D01*
X135520489Y-93832550D01*
X135520495Y-93832554D01*
X135572867Y-93859239D01*
X135624482Y-93907987D01*
X135641548Y-93976902D01*
X135618647Y-94044103D01*
X135563049Y-94088255D01*
X135535375Y-94095954D01*
X135480444Y-94104654D01*
X135428991Y-94112803D01*
X135428990Y-94112803D01*
X135419199Y-94114354D01*
X135306161Y-94171950D01*
X135216453Y-94261658D01*
X135158857Y-94374696D01*
X135157307Y-94384485D01*
X135157306Y-94384487D01*
X135151373Y-94421950D01*
X135139011Y-94500000D01*
X115000500Y-94500000D01*
X115000500Y-92000000D01*
X133069519Y-92000000D01*
X133071070Y-92009793D01*
X133087631Y-92114354D01*
X133089365Y-92125304D01*
X133146961Y-92238342D01*
X133236669Y-92328050D01*
X133349707Y-92385646D01*
X133359496Y-92387196D01*
X133359498Y-92387197D01*
X133379798Y-92390412D01*
X133443951Y-92420825D01*
X133481478Y-92481093D01*
X133480464Y-92552082D01*
X133441231Y-92611254D01*
X133399023Y-92634694D01*
X133392310Y-92636875D01*
X133382518Y-92638426D01*
X133276535Y-92692427D01*
X133192427Y-92776535D01*
X133138426Y-92882518D01*
X133119819Y-93000000D01*
X133138426Y-93117482D01*
X133142927Y-93126315D01*
X133142927Y-93126316D01*
X133163722Y-93167128D01*
X133192427Y-93223465D01*
X133276535Y-93307573D01*
X133382518Y-93361574D01*
X133500000Y-93380181D01*
X133617482Y-93361574D01*
X133723465Y-93307573D01*
X133807573Y-93223465D01*
X133836278Y-93167128D01*
X133857073Y-93126316D01*
X133857073Y-93126315D01*
X133861574Y-93117482D01*
X133880181Y-93000000D01*
X133861574Y-92882518D01*
X133807573Y-92776535D01*
X133723465Y-92692427D01*
X133617482Y-92638426D01*
X133596646Y-92635126D01*
X133532492Y-92604715D01*
X133494964Y-92544448D01*
X133495976Y-92473458D01*
X133535208Y-92414286D01*
X133537143Y-92413402D01*
X135737868Y-92413402D01*
X135739419Y-92423195D01*
X135754673Y-92519503D01*
X135757714Y-92538706D01*
X135815310Y-92651744D01*
X135905018Y-92741452D01*
X136018056Y-92799048D01*
X136027845Y-92800598D01*
X136027847Y-92800599D01*
X136133567Y-92817343D01*
X136143360Y-92818894D01*
X136153153Y-92817343D01*
X136258873Y-92800599D01*
X136258875Y-92800598D01*
X136268664Y-92799048D01*
X136381702Y-92741452D01*
X136471410Y-92651744D01*
X136529006Y-92538706D01*
X136532048Y-92519503D01*
X137369819Y-92519503D01*
X137388426Y-92636985D01*
X137442427Y-92742968D01*
X137526535Y-92827076D01*
X137537286Y-92832554D01*
X137621673Y-92875551D01*
X137632518Y-92881077D01*
X137642313Y-92882628D01*
X137642315Y-92882629D01*
X137659200Y-92885304D01*
X137723352Y-92915717D01*
X137749723Y-92958071D01*
X137779367Y-92913361D01*
X137840800Y-92885304D01*
X137857685Y-92882629D01*
X137857687Y-92882628D01*
X137867482Y-92881077D01*
X137878328Y-92875551D01*
X137962714Y-92832554D01*
X137973465Y-92827076D01*
X138057573Y-92742968D01*
X138111574Y-92636985D01*
X138130181Y-92519503D01*
X138127092Y-92500000D01*
X140869819Y-92500000D01*
X140888426Y-92617482D01*
X140942427Y-92723465D01*
X141026535Y-92807573D01*
X141132518Y-92861574D01*
X141142311Y-92863125D01*
X141220767Y-92875551D01*
X141249454Y-92889150D01*
X141279233Y-92875551D01*
X141357689Y-92863125D01*
X141367482Y-92861574D01*
X141473465Y-92807573D01*
X141557573Y-92723465D01*
X141611574Y-92617482D01*
X141630181Y-92500000D01*
X141627187Y-92481093D01*
X141613125Y-92392311D01*
X141611574Y-92382518D01*
X141557573Y-92276535D01*
X141473465Y-92192427D01*
X141367482Y-92138426D01*
X141250000Y-92119819D01*
X141132518Y-92138426D01*
X141026535Y-92192427D01*
X140942427Y-92276535D01*
X140888426Y-92382518D01*
X140886875Y-92392311D01*
X140872814Y-92481093D01*
X140869819Y-92500000D01*
X138127092Y-92500000D01*
X138111574Y-92402021D01*
X138105583Y-92390262D01*
X138062073Y-92304870D01*
X138057573Y-92296038D01*
X137973465Y-92211930D01*
X137867482Y-92157929D01*
X137808741Y-92148626D01*
X137759793Y-92140873D01*
X137750000Y-92139322D01*
X137740207Y-92140873D01*
X137691259Y-92148626D01*
X137632518Y-92157929D01*
X137526535Y-92211930D01*
X137442427Y-92296038D01*
X137437927Y-92304870D01*
X137394418Y-92390262D01*
X137388426Y-92402021D01*
X137369819Y-92519503D01*
X136532048Y-92519503D01*
X136547301Y-92423195D01*
X136548852Y-92413402D01*
X136540643Y-92361574D01*
X136530557Y-92297889D01*
X136530556Y-92297887D01*
X136529006Y-92288098D01*
X136471410Y-92175060D01*
X136381702Y-92085352D01*
X136268664Y-92027756D01*
X136258875Y-92026206D01*
X136258873Y-92026205D01*
X136153153Y-92009461D01*
X136143360Y-92007910D01*
X136133567Y-92009461D01*
X136027847Y-92026205D01*
X136027845Y-92026206D01*
X136018056Y-92027756D01*
X135905018Y-92085352D01*
X135815310Y-92175060D01*
X135757714Y-92288098D01*
X135756164Y-92297887D01*
X135756163Y-92297889D01*
X135746077Y-92361574D01*
X135737868Y-92413402D01*
X133537143Y-92413402D01*
X133581958Y-92392932D01*
X133581090Y-92390262D01*
X133590523Y-92387197D01*
X133600315Y-92385646D01*
X133713353Y-92328050D01*
X133803061Y-92238342D01*
X133860657Y-92125304D01*
X133862392Y-92114354D01*
X133878952Y-92009793D01*
X133880503Y-92000000D01*
X138619819Y-92000000D01*
X138638426Y-92117482D01*
X138692427Y-92223465D01*
X138776535Y-92307573D01*
X138882518Y-92361574D01*
X139000000Y-92380181D01*
X139117482Y-92361574D01*
X139223465Y-92307573D01*
X139307573Y-92223465D01*
X139361574Y-92117482D01*
X139380181Y-92000000D01*
X139361574Y-91882518D01*
X139307573Y-91776535D01*
X139223465Y-91692427D01*
X139117482Y-91638426D01*
X139000000Y-91619819D01*
X138882518Y-91638426D01*
X138776535Y-91692427D01*
X138692427Y-91776535D01*
X138638426Y-91882518D01*
X138619819Y-92000000D01*
X133880503Y-92000000D01*
X133860657Y-91874696D01*
X133803061Y-91761658D01*
X133713353Y-91671950D01*
X133600315Y-91614354D01*
X133590526Y-91612804D01*
X133590524Y-91612803D01*
X133484804Y-91596059D01*
X133475011Y-91594508D01*
X133465218Y-91596059D01*
X133359498Y-91612803D01*
X133359496Y-91612804D01*
X133349707Y-91614354D01*
X133236669Y-91671950D01*
X133146961Y-91761658D01*
X133089365Y-91874696D01*
X133069519Y-92000000D01*
X115000500Y-92000000D01*
X115000500Y-91000000D01*
X133369819Y-91000000D01*
X133388426Y-91117482D01*
X133442427Y-91223465D01*
X133526535Y-91307573D01*
X133632518Y-91361574D01*
X133750000Y-91380181D01*
X133867482Y-91361574D01*
X133973465Y-91307573D01*
X134057573Y-91223465D01*
X134111574Y-91117482D01*
X134126974Y-91020248D01*
X135138926Y-91020248D01*
X135157533Y-91137730D01*
X135211534Y-91243713D01*
X135295642Y-91327821D01*
X135322722Y-91341619D01*
X135387206Y-91374475D01*
X135401625Y-91381822D01*
X135519107Y-91400429D01*
X135636589Y-91381822D01*
X135651009Y-91374475D01*
X135715492Y-91341619D01*
X135742572Y-91327821D01*
X135826680Y-91243713D01*
X135880681Y-91137730D01*
X135882044Y-91129122D01*
X136215386Y-91129122D01*
X136216937Y-91138915D01*
X136231439Y-91230476D01*
X136235232Y-91254426D01*
X136292828Y-91367464D01*
X136382536Y-91457172D01*
X136495574Y-91514768D01*
X136505363Y-91516318D01*
X136505365Y-91516319D01*
X136611085Y-91533063D01*
X136620878Y-91534614D01*
X136630671Y-91533063D01*
X136736391Y-91516319D01*
X136736393Y-91516318D01*
X136746182Y-91514768D01*
X136859220Y-91457172D01*
X136948928Y-91367464D01*
X137006524Y-91254426D01*
X137010318Y-91230476D01*
X137013960Y-91207482D01*
X137637026Y-91207482D01*
X137638577Y-91217275D01*
X137652879Y-91307573D01*
X137656872Y-91332786D01*
X137714468Y-91445824D01*
X137804176Y-91535532D01*
X137917214Y-91593128D01*
X137927003Y-91594678D01*
X137927005Y-91594679D01*
X138032725Y-91611423D01*
X138042518Y-91612974D01*
X138052311Y-91611423D01*
X138158031Y-91594679D01*
X138158033Y-91594678D01*
X138167822Y-91593128D01*
X138280860Y-91535532D01*
X138370568Y-91445824D01*
X138428164Y-91332786D01*
X138432158Y-91307573D01*
X138446459Y-91217275D01*
X138448010Y-91207482D01*
X138437150Y-91138915D01*
X138429715Y-91091969D01*
X138429714Y-91091967D01*
X138428164Y-91082178D01*
X138370568Y-90969140D01*
X138280860Y-90879432D01*
X138167822Y-90821836D01*
X138158033Y-90820286D01*
X138158031Y-90820285D01*
X138052311Y-90803541D01*
X138042518Y-90801990D01*
X138032725Y-90803541D01*
X137927005Y-90820285D01*
X137927003Y-90820286D01*
X137917214Y-90821836D01*
X137804176Y-90879432D01*
X137714468Y-90969140D01*
X137656872Y-91082178D01*
X137655322Y-91091967D01*
X137655321Y-91091969D01*
X137647886Y-91138915D01*
X137637026Y-91207482D01*
X137013960Y-91207482D01*
X137024819Y-91138915D01*
X137026370Y-91129122D01*
X137015038Y-91057573D01*
X137008075Y-91013609D01*
X137008074Y-91013607D01*
X137006524Y-91003818D01*
X136948928Y-90890780D01*
X136859220Y-90801072D01*
X136758986Y-90750000D01*
X138619819Y-90750000D01*
X138638426Y-90867482D01*
X138642927Y-90876315D01*
X138642927Y-90876316D01*
X138656404Y-90902766D01*
X138692427Y-90973465D01*
X138776535Y-91057573D01*
X138882518Y-91111574D01*
X139000000Y-91130181D01*
X139117482Y-91111574D01*
X139223465Y-91057573D01*
X139307573Y-90973465D01*
X139343596Y-90902766D01*
X139357073Y-90876316D01*
X139357073Y-90876315D01*
X139361574Y-90867482D01*
X139380181Y-90750000D01*
X139361574Y-90632518D01*
X139307573Y-90526535D01*
X139281038Y-90500000D01*
X143844508Y-90500000D01*
X143846059Y-90509793D01*
X143862092Y-90611019D01*
X143864354Y-90625304D01*
X143921950Y-90738342D01*
X144011658Y-90828050D01*
X144124696Y-90885646D01*
X144134485Y-90887196D01*
X144134487Y-90887197D01*
X144240207Y-90903941D01*
X144250000Y-90905492D01*
X144259793Y-90903941D01*
X144365513Y-90887197D01*
X144365515Y-90887196D01*
X144375304Y-90885646D01*
X144488342Y-90828050D01*
X144578050Y-90738342D01*
X144635646Y-90625304D01*
X144637588Y-90626294D01*
X144670241Y-90578542D01*
X144735638Y-90550905D01*
X144805595Y-90563012D01*
X144857900Y-90611019D01*
X144864317Y-90625068D01*
X144864354Y-90625304D01*
X144921950Y-90738342D01*
X145011658Y-90828050D01*
X145124696Y-90885646D01*
X145134485Y-90887196D01*
X145134487Y-90887197D01*
X145240207Y-90903941D01*
X145250000Y-90905492D01*
X145259793Y-90903941D01*
X145365513Y-90887197D01*
X145365515Y-90887196D01*
X145375304Y-90885646D01*
X145488342Y-90828050D01*
X145578050Y-90738342D01*
X145635646Y-90625304D01*
X145637909Y-90611019D01*
X145653941Y-90509793D01*
X145655492Y-90500000D01*
X145647430Y-90449095D01*
X145637197Y-90384487D01*
X145637196Y-90384485D01*
X145635646Y-90374696D01*
X145578050Y-90261658D01*
X145488342Y-90171950D01*
X145375304Y-90114354D01*
X145365515Y-90112804D01*
X145365513Y-90112803D01*
X145259793Y-90096059D01*
X145250000Y-90094508D01*
X145240207Y-90096059D01*
X145134487Y-90112803D01*
X145134485Y-90112804D01*
X145124696Y-90114354D01*
X145011658Y-90171950D01*
X144921950Y-90261658D01*
X144864354Y-90374696D01*
X144862412Y-90373706D01*
X144829759Y-90421458D01*
X144764362Y-90449095D01*
X144694405Y-90436988D01*
X144642100Y-90388981D01*
X144635683Y-90374932D01*
X144635646Y-90374696D01*
X144578050Y-90261658D01*
X144488342Y-90171950D01*
X144375304Y-90114354D01*
X144365515Y-90112804D01*
X144365513Y-90112803D01*
X144259793Y-90096059D01*
X144250000Y-90094508D01*
X144240207Y-90096059D01*
X144134487Y-90112803D01*
X144134485Y-90112804D01*
X144124696Y-90114354D01*
X144011658Y-90171950D01*
X143921950Y-90261658D01*
X143864354Y-90374696D01*
X143862804Y-90384485D01*
X143862803Y-90384487D01*
X143852570Y-90449095D01*
X143844508Y-90500000D01*
X139281038Y-90500000D01*
X139223465Y-90442427D01*
X139117482Y-90388426D01*
X139000000Y-90369819D01*
X138882518Y-90388426D01*
X138776535Y-90442427D01*
X138692427Y-90526535D01*
X138638426Y-90632518D01*
X138619819Y-90750000D01*
X136758986Y-90750000D01*
X136746182Y-90743476D01*
X136736393Y-90741926D01*
X136736391Y-90741925D01*
X136630671Y-90725181D01*
X136620878Y-90723630D01*
X136611085Y-90725181D01*
X136505365Y-90741925D01*
X136505363Y-90741926D01*
X136495574Y-90743476D01*
X136382536Y-90801072D01*
X136292828Y-90890780D01*
X136235232Y-91003818D01*
X136233682Y-91013607D01*
X136233681Y-91013609D01*
X136226718Y-91057573D01*
X136215386Y-91129122D01*
X135882044Y-91129122D01*
X135899288Y-91020248D01*
X135880681Y-90902766D01*
X135826680Y-90796783D01*
X135742572Y-90712675D01*
X135636589Y-90658674D01*
X135519107Y-90640067D01*
X135401625Y-90658674D01*
X135295642Y-90712675D01*
X135211534Y-90796783D01*
X135157533Y-90902766D01*
X135138926Y-91020248D01*
X134126974Y-91020248D01*
X134130181Y-91000000D01*
X134111574Y-90882518D01*
X134057573Y-90776535D01*
X133973465Y-90692427D01*
X133867482Y-90638426D01*
X133750000Y-90619819D01*
X133632518Y-90638426D01*
X133526535Y-90692427D01*
X133442427Y-90776535D01*
X133388426Y-90882518D01*
X133369819Y-91000000D01*
X115000500Y-91000000D01*
X115000500Y-89524020D01*
X134520008Y-89524020D01*
X134521559Y-89533813D01*
X134537688Y-89635646D01*
X134539854Y-89649324D01*
X134597450Y-89762362D01*
X134687158Y-89852070D01*
X134800196Y-89909666D01*
X134809985Y-89911216D01*
X134809987Y-89911217D01*
X134915707Y-89927961D01*
X134925500Y-89929512D01*
X134935293Y-89927961D01*
X135041013Y-89911217D01*
X135041015Y-89911216D01*
X135050804Y-89909666D01*
X135163842Y-89852070D01*
X135253550Y-89762362D01*
X135311146Y-89649324D01*
X135313313Y-89635646D01*
X135329441Y-89533813D01*
X135330992Y-89524020D01*
X135311146Y-89398716D01*
X135253550Y-89285678D01*
X135217872Y-89250000D01*
X136094508Y-89250000D01*
X136096059Y-89259793D01*
X136107583Y-89332550D01*
X136114354Y-89375304D01*
X136171950Y-89488342D01*
X136261658Y-89578050D01*
X136374696Y-89635646D01*
X136384485Y-89637196D01*
X136384487Y-89637197D01*
X136490207Y-89653941D01*
X136500000Y-89655492D01*
X136509793Y-89653941D01*
X136615513Y-89637197D01*
X136615515Y-89637196D01*
X136625304Y-89635646D01*
X136738342Y-89578050D01*
X136828050Y-89488342D01*
X136885646Y-89375304D01*
X136892418Y-89332550D01*
X136903941Y-89259793D01*
X136905492Y-89250000D01*
X136888525Y-89142875D01*
X136887197Y-89134487D01*
X136887196Y-89134485D01*
X136885646Y-89124696D01*
X136828050Y-89011658D01*
X136816392Y-89000000D01*
X137594508Y-89000000D01*
X137614354Y-89125304D01*
X137671950Y-89238342D01*
X137761658Y-89328050D01*
X137874696Y-89385646D01*
X137884485Y-89387196D01*
X137884487Y-89387197D01*
X137990207Y-89403941D01*
X138000000Y-89405492D01*
X138009793Y-89403941D01*
X138115513Y-89387197D01*
X138115515Y-89387196D01*
X138125304Y-89385646D01*
X138238342Y-89328050D01*
X138328050Y-89238342D01*
X138385646Y-89125304D01*
X138405492Y-89000000D01*
X138393130Y-88921950D01*
X138387197Y-88884487D01*
X138387196Y-88884485D01*
X138385646Y-88874696D01*
X138328050Y-88761658D01*
X138238342Y-88671950D01*
X138125304Y-88614354D01*
X138115515Y-88612804D01*
X138115513Y-88612803D01*
X138009793Y-88596059D01*
X138000000Y-88594508D01*
X137990207Y-88596059D01*
X137884487Y-88612803D01*
X137884485Y-88612804D01*
X137874696Y-88614354D01*
X137761658Y-88671950D01*
X137671950Y-88761658D01*
X137614354Y-88874696D01*
X137612804Y-88884485D01*
X137612803Y-88884487D01*
X137606870Y-88921950D01*
X137594508Y-89000000D01*
X136816392Y-89000000D01*
X136738342Y-88921950D01*
X136625304Y-88864354D01*
X136615515Y-88862804D01*
X136615513Y-88862803D01*
X136509793Y-88846059D01*
X136500000Y-88844508D01*
X136490207Y-88846059D01*
X136384487Y-88862803D01*
X136384485Y-88862804D01*
X136374696Y-88864354D01*
X136261658Y-88921950D01*
X136171950Y-89011658D01*
X136114354Y-89124696D01*
X136112804Y-89134485D01*
X136112803Y-89134487D01*
X136111475Y-89142875D01*
X136094508Y-89250000D01*
X135217872Y-89250000D01*
X135163842Y-89195970D01*
X135050804Y-89138374D01*
X135041015Y-89136824D01*
X135041013Y-89136823D01*
X134935293Y-89120079D01*
X134925500Y-89118528D01*
X134915707Y-89120079D01*
X134809987Y-89136823D01*
X134809985Y-89136824D01*
X134800196Y-89138374D01*
X134687158Y-89195970D01*
X134597450Y-89285678D01*
X134539854Y-89398716D01*
X134520008Y-89524020D01*
X115000500Y-89524020D01*
X115000500Y-87750000D01*
X119344508Y-87750000D01*
X119346059Y-87759793D01*
X119359763Y-87846315D01*
X119364354Y-87875304D01*
X119421950Y-87988342D01*
X119511658Y-88078050D01*
X119624696Y-88135646D01*
X119634485Y-88137196D01*
X119634487Y-88137197D01*
X119740207Y-88153941D01*
X119750000Y-88155492D01*
X119759793Y-88153941D01*
X119865513Y-88137197D01*
X119865515Y-88137196D01*
X119875304Y-88135646D01*
X119988342Y-88078050D01*
X120078050Y-87988342D01*
X120135646Y-87875304D01*
X120140238Y-87846315D01*
X120153941Y-87759793D01*
X120155492Y-87750000D01*
X120143130Y-87671950D01*
X120137197Y-87634487D01*
X120137196Y-87634485D01*
X120135646Y-87624696D01*
X120078050Y-87511658D01*
X119988342Y-87421950D01*
X119875304Y-87364354D01*
X119865515Y-87362804D01*
X119865513Y-87362803D01*
X119759793Y-87346059D01*
X119750000Y-87344508D01*
X119740207Y-87346059D01*
X119634487Y-87362803D01*
X119634485Y-87362804D01*
X119624696Y-87364354D01*
X119511658Y-87421950D01*
X119421950Y-87511658D01*
X119364354Y-87624696D01*
X119362804Y-87634485D01*
X119362803Y-87634487D01*
X119356870Y-87671950D01*
X119344508Y-87750000D01*
X115000500Y-87750000D01*
X115000500Y-83065963D01*
X117994757Y-83065963D01*
X118011175Y-83261483D01*
X118065258Y-83450091D01*
X118076674Y-83472304D01*
X118152123Y-83619113D01*
X118152126Y-83619117D01*
X118154944Y-83624601D01*
X118276818Y-83778369D01*
X118281511Y-83782363D01*
X118281512Y-83782364D01*
X118417003Y-83897675D01*
X118426238Y-83905535D01*
X118431616Y-83908541D01*
X118431618Y-83908542D01*
X118467932Y-83928837D01*
X118597513Y-84001257D01*
X118784118Y-84061889D01*
X118978946Y-84085121D01*
X118985081Y-84084649D01*
X118985083Y-84084649D01*
X119168434Y-84070541D01*
X119168438Y-84070540D01*
X119174576Y-84070068D01*
X119363556Y-84017303D01*
X119538689Y-83928837D01*
X119568515Y-83905535D01*
X119634355Y-83854095D01*
X119693303Y-83808040D01*
X119723084Y-83773539D01*
X119817485Y-83664173D01*
X119817485Y-83664172D01*
X119821509Y-83659511D01*
X119918425Y-83488909D01*
X119980358Y-83302732D01*
X119987130Y-83249126D01*
X125495541Y-83249126D01*
X125525935Y-83450097D01*
X125596119Y-83640852D01*
X125599479Y-83646272D01*
X125599480Y-83646273D01*
X125699863Y-83808176D01*
X125699866Y-83808180D01*
X125703226Y-83813599D01*
X125707612Y-83818237D01*
X125802591Y-83918674D01*
X125842881Y-83961280D01*
X126009379Y-84077863D01*
X126195919Y-84158586D01*
X126241947Y-84168202D01*
X126390144Y-84199162D01*
X126390149Y-84199163D01*
X126394880Y-84200151D01*
X126399762Y-84200407D01*
X126399871Y-84200413D01*
X126399887Y-84200413D01*
X126401539Y-84200500D01*
X127550800Y-84200500D01*
X127598793Y-84195625D01*
X127695868Y-84185765D01*
X127695870Y-84185765D01*
X127702216Y-84185120D01*
X127896172Y-84124338D01*
X128073944Y-84025797D01*
X128228271Y-83893523D01*
X128248488Y-83867460D01*
X128291639Y-83811829D01*
X128352848Y-83732919D01*
X128442587Y-83550545D01*
X128460167Y-83483056D01*
X128492212Y-83360034D01*
X128492212Y-83360031D01*
X128493822Y-83353852D01*
X128504459Y-83150874D01*
X128474065Y-82949903D01*
X128403881Y-82759148D01*
X128350345Y-82672802D01*
X128300137Y-82591824D01*
X128300134Y-82591820D01*
X128296774Y-82586401D01*
X128157119Y-82438720D01*
X127990621Y-82322137D01*
X127804081Y-82241414D01*
X127758053Y-82231798D01*
X127609856Y-82200838D01*
X127609851Y-82200837D01*
X127605120Y-82199849D01*
X127600238Y-82199593D01*
X127600129Y-82199587D01*
X127600113Y-82199587D01*
X127598461Y-82199500D01*
X126449200Y-82199500D01*
X126401207Y-82204375D01*
X126304132Y-82214235D01*
X126304130Y-82214235D01*
X126297784Y-82214880D01*
X126103828Y-82275662D01*
X125926056Y-82374203D01*
X125771729Y-82506477D01*
X125767822Y-82511514D01*
X125767820Y-82511516D01*
X125713331Y-82581763D01*
X125647152Y-82667081D01*
X125557413Y-82849455D01*
X125555804Y-82855633D01*
X125555803Y-82855635D01*
X125529603Y-82956220D01*
X125506178Y-83046148D01*
X125495541Y-83249126D01*
X119987130Y-83249126D01*
X120004949Y-83108071D01*
X120005341Y-83080000D01*
X119986194Y-82884728D01*
X119984413Y-82878829D01*
X119984412Y-82878824D01*
X119931265Y-82702793D01*
X119929484Y-82696894D01*
X119837370Y-82523653D01*
X119713361Y-82371602D01*
X119562180Y-82246535D01*
X119389585Y-82153213D01*
X119295869Y-82124203D01*
X119208039Y-82097015D01*
X119208036Y-82097014D01*
X119202152Y-82095193D01*
X119196027Y-82094549D01*
X119196026Y-82094549D01*
X119013147Y-82075327D01*
X119013146Y-82075327D01*
X119007019Y-82074683D01*
X118884383Y-82085844D01*
X118817759Y-82091907D01*
X118817758Y-82091907D01*
X118811618Y-82092466D01*
X118805704Y-82094207D01*
X118805702Y-82094207D01*
X118676734Y-82132165D01*
X118623393Y-82147864D01*
X118617928Y-82150721D01*
X118454972Y-82235912D01*
X118454968Y-82235915D01*
X118449512Y-82238767D01*
X118444712Y-82242627D01*
X118444711Y-82242627D01*
X118410326Y-82270273D01*
X118296600Y-82361711D01*
X118170480Y-82512016D01*
X118167516Y-82517408D01*
X118167513Y-82517412D01*
X118132136Y-82581763D01*
X118075956Y-82683954D01*
X118074095Y-82689821D01*
X118074094Y-82689823D01*
X118052103Y-82759148D01*
X118016628Y-82870978D01*
X117994757Y-83065963D01*
X115000500Y-83065963D01*
X115000500Y-80485963D01*
X127994757Y-80485963D01*
X128011175Y-80681483D01*
X128065258Y-80870091D01*
X128068076Y-80875574D01*
X128152123Y-81039113D01*
X128152126Y-81039117D01*
X128154944Y-81044601D01*
X128276818Y-81198369D01*
X128426238Y-81325535D01*
X128431616Y-81328541D01*
X128431618Y-81328542D01*
X128467932Y-81348837D01*
X128597513Y-81421257D01*
X128784118Y-81481889D01*
X128978946Y-81505121D01*
X128985081Y-81504649D01*
X128985083Y-81504649D01*
X129168434Y-81490541D01*
X129168438Y-81490540D01*
X129174576Y-81490068D01*
X129363556Y-81437303D01*
X129538689Y-81348837D01*
X129568515Y-81325535D01*
X129688453Y-81231829D01*
X129693303Y-81228040D01*
X129723084Y-81193539D01*
X129817485Y-81084173D01*
X129817485Y-81084172D01*
X129821509Y-81079511D01*
X129918425Y-80908909D01*
X129980358Y-80722732D01*
X130004949Y-80528071D01*
X130005341Y-80500000D01*
X129986194Y-80304728D01*
X129984413Y-80298829D01*
X129984412Y-80298824D01*
X129931265Y-80122793D01*
X129929484Y-80116894D01*
X129837370Y-79943653D01*
X129713361Y-79791602D01*
X129562180Y-79666535D01*
X129389585Y-79573213D01*
X129295868Y-79544203D01*
X129208039Y-79517015D01*
X129208036Y-79517014D01*
X129202152Y-79515193D01*
X129196027Y-79514549D01*
X129196026Y-79514549D01*
X129013147Y-79495327D01*
X129013146Y-79495327D01*
X129007019Y-79494683D01*
X128884383Y-79505844D01*
X128817759Y-79511907D01*
X128817758Y-79511907D01*
X128811618Y-79512466D01*
X128805704Y-79514207D01*
X128805702Y-79514207D01*
X128676734Y-79552165D01*
X128623393Y-79567864D01*
X128617928Y-79570721D01*
X128454972Y-79655912D01*
X128454968Y-79655915D01*
X128449512Y-79658767D01*
X128444712Y-79662627D01*
X128444711Y-79662627D01*
X128410326Y-79690273D01*
X128296600Y-79781711D01*
X128170480Y-79932016D01*
X128167516Y-79937408D01*
X128167513Y-79937412D01*
X128119611Y-80024546D01*
X128075956Y-80103954D01*
X128016628Y-80290978D01*
X127994757Y-80485963D01*
X115000500Y-80485963D01*
X115000500Y-79767133D01*
X120778830Y-79767133D01*
X120797750Y-79910842D01*
X120853219Y-80044758D01*
X120941459Y-80159754D01*
X121056455Y-80247994D01*
X121190371Y-80303463D01*
X121334080Y-80322383D01*
X121477789Y-80303463D01*
X121611705Y-80247994D01*
X121726701Y-80159754D01*
X121814941Y-80044758D01*
X121870410Y-79910842D01*
X121889330Y-79767133D01*
X121870410Y-79623424D01*
X121814941Y-79489508D01*
X121726701Y-79374512D01*
X121611705Y-79286272D01*
X121477789Y-79230803D01*
X121334080Y-79211883D01*
X121190371Y-79230803D01*
X121056455Y-79286272D01*
X120941459Y-79374512D01*
X120853219Y-79489508D01*
X120797750Y-79623424D01*
X120778830Y-79767133D01*
X115000500Y-79767133D01*
X115000500Y-77985963D01*
X117994757Y-77985963D01*
X118011175Y-78181483D01*
X118065258Y-78370091D01*
X118068076Y-78375574D01*
X118152123Y-78539113D01*
X118152126Y-78539117D01*
X118154944Y-78544601D01*
X118276818Y-78698369D01*
X118426238Y-78825535D01*
X118431616Y-78828541D01*
X118431618Y-78828542D01*
X118467932Y-78848837D01*
X118597513Y-78921257D01*
X118784118Y-78981889D01*
X118978946Y-79005121D01*
X118985081Y-79004649D01*
X118985083Y-79004649D01*
X119168434Y-78990541D01*
X119168438Y-78990540D01*
X119174576Y-78990068D01*
X119363556Y-78937303D01*
X119538689Y-78848837D01*
X119568515Y-78825535D01*
X119688453Y-78731829D01*
X119693303Y-78728040D01*
X119723084Y-78693539D01*
X119817485Y-78584173D01*
X119817485Y-78584172D01*
X119821509Y-78579511D01*
X119918425Y-78408909D01*
X119980358Y-78222732D01*
X119982975Y-78202016D01*
X120011357Y-78136940D01*
X120070416Y-78097538D01*
X120141402Y-78096321D01*
X120201777Y-78133676D01*
X120224390Y-78169590D01*
X120269139Y-78277625D01*
X120357379Y-78392621D01*
X120472375Y-78480861D01*
X120606291Y-78536330D01*
X120750000Y-78555250D01*
X120893709Y-78536330D01*
X121027625Y-78480861D01*
X121142621Y-78392621D01*
X121230861Y-78277625D01*
X121286330Y-78143709D01*
X121305250Y-78000000D01*
X121303402Y-77985963D01*
X127994757Y-77985963D01*
X128011175Y-78181483D01*
X128065258Y-78370091D01*
X128068076Y-78375574D01*
X128152123Y-78539113D01*
X128152126Y-78539117D01*
X128154944Y-78544601D01*
X128276818Y-78698369D01*
X128426238Y-78825535D01*
X128431616Y-78828541D01*
X128431618Y-78828542D01*
X128467932Y-78848837D01*
X128597513Y-78921257D01*
X128784118Y-78981889D01*
X128978946Y-79005121D01*
X128985081Y-79004649D01*
X128985083Y-79004649D01*
X129168434Y-78990541D01*
X129168438Y-78990540D01*
X129174576Y-78990068D01*
X129363556Y-78937303D01*
X129538689Y-78848837D01*
X129568515Y-78825535D01*
X129688453Y-78731829D01*
X129693303Y-78728040D01*
X129723084Y-78693539D01*
X129817485Y-78584173D01*
X129817485Y-78584172D01*
X129821509Y-78579511D01*
X129918425Y-78408909D01*
X129980358Y-78222732D01*
X130004949Y-78028071D01*
X130005341Y-78000000D01*
X129986194Y-77804728D01*
X129984413Y-77798829D01*
X129984412Y-77798824D01*
X129931265Y-77622793D01*
X129929484Y-77616894D01*
X129837370Y-77443653D01*
X129713361Y-77291602D01*
X129562180Y-77166535D01*
X129389585Y-77073213D01*
X129295869Y-77044203D01*
X129208039Y-77017015D01*
X129208036Y-77017014D01*
X129202152Y-77015193D01*
X129196027Y-77014549D01*
X129196026Y-77014549D01*
X129013147Y-76995327D01*
X129013146Y-76995327D01*
X129007019Y-76994683D01*
X128884383Y-77005844D01*
X128817759Y-77011907D01*
X128817758Y-77011907D01*
X128811618Y-77012466D01*
X128805704Y-77014207D01*
X128805702Y-77014207D01*
X128676734Y-77052165D01*
X128623393Y-77067864D01*
X128617928Y-77070721D01*
X128454972Y-77155912D01*
X128454968Y-77155915D01*
X128449512Y-77158767D01*
X128444712Y-77162627D01*
X128444711Y-77162627D01*
X128410326Y-77190273D01*
X128296600Y-77281711D01*
X128170480Y-77432016D01*
X128167516Y-77437408D01*
X128167513Y-77437412D01*
X128119819Y-77524168D01*
X128075956Y-77603954D01*
X128074095Y-77609821D01*
X128074094Y-77609823D01*
X128071851Y-77616894D01*
X128016628Y-77790978D01*
X127994757Y-77985963D01*
X121303402Y-77985963D01*
X121286330Y-77856291D01*
X121230861Y-77722375D01*
X121142621Y-77607379D01*
X121027625Y-77519139D01*
X120893709Y-77463670D01*
X120750000Y-77444750D01*
X120606291Y-77463670D01*
X120472375Y-77519139D01*
X120357379Y-77607379D01*
X120269139Y-77722375D01*
X120265980Y-77730002D01*
X120265977Y-77730007D01*
X120225462Y-77827822D01*
X120180914Y-77883103D01*
X120113551Y-77905525D01*
X120044760Y-77887967D01*
X119996381Y-77836006D01*
X119986403Y-77806855D01*
X119986194Y-77804728D01*
X119984412Y-77798824D01*
X119931265Y-77622793D01*
X119929484Y-77616894D01*
X119837370Y-77443653D01*
X119713361Y-77291602D01*
X119562180Y-77166535D01*
X119389585Y-77073213D01*
X119295869Y-77044203D01*
X119208039Y-77017015D01*
X119208036Y-77017014D01*
X119202152Y-77015193D01*
X119196027Y-77014549D01*
X119196026Y-77014549D01*
X119013147Y-76995327D01*
X119013146Y-76995327D01*
X119007019Y-76994683D01*
X118884383Y-77005844D01*
X118817759Y-77011907D01*
X118817758Y-77011907D01*
X118811618Y-77012466D01*
X118805704Y-77014207D01*
X118805702Y-77014207D01*
X118676734Y-77052165D01*
X118623393Y-77067864D01*
X118617928Y-77070721D01*
X118454972Y-77155912D01*
X118454968Y-77155915D01*
X118449512Y-77158767D01*
X118444712Y-77162627D01*
X118444711Y-77162627D01*
X118410326Y-77190273D01*
X118296600Y-77281711D01*
X118170480Y-77432016D01*
X118167516Y-77437408D01*
X118167513Y-77437412D01*
X118119819Y-77524168D01*
X118075956Y-77603954D01*
X118074095Y-77609821D01*
X118074094Y-77609823D01*
X118071851Y-77616894D01*
X118016628Y-77790978D01*
X117994757Y-77985963D01*
X115000500Y-77985963D01*
X115000500Y-75485963D01*
X127994757Y-75485963D01*
X128011175Y-75681483D01*
X128065258Y-75870091D01*
X128068076Y-75875574D01*
X128152123Y-76039113D01*
X128152126Y-76039117D01*
X128154944Y-76044601D01*
X128276818Y-76198369D01*
X128426238Y-76325535D01*
X128431616Y-76328541D01*
X128431618Y-76328542D01*
X128467932Y-76348837D01*
X128597513Y-76421257D01*
X128784118Y-76481889D01*
X128978946Y-76505121D01*
X128985081Y-76504649D01*
X128985083Y-76504649D01*
X129168434Y-76490541D01*
X129168438Y-76490540D01*
X129174576Y-76490068D01*
X129363556Y-76437303D01*
X129538689Y-76348837D01*
X129568515Y-76325535D01*
X129688453Y-76231829D01*
X129693303Y-76228040D01*
X129723084Y-76193539D01*
X129817485Y-76084173D01*
X129817485Y-76084172D01*
X129821509Y-76079511D01*
X129918425Y-75908909D01*
X129980358Y-75722732D01*
X130004949Y-75528071D01*
X130005341Y-75500000D01*
X129986194Y-75304728D01*
X129984413Y-75298829D01*
X129984412Y-75298824D01*
X129931265Y-75122793D01*
X129929484Y-75116894D01*
X129837370Y-74943653D01*
X129713361Y-74791602D01*
X129562180Y-74666535D01*
X129389585Y-74573213D01*
X129254677Y-74531452D01*
X129208039Y-74517015D01*
X129208036Y-74517014D01*
X129202152Y-74515193D01*
X129196027Y-74514549D01*
X129196026Y-74514549D01*
X129013147Y-74495327D01*
X129013146Y-74495327D01*
X129007019Y-74494683D01*
X128884383Y-74505844D01*
X128817759Y-74511907D01*
X128817758Y-74511907D01*
X128811618Y-74512466D01*
X128805704Y-74514207D01*
X128805702Y-74514207D01*
X128728619Y-74536894D01*
X128623393Y-74567864D01*
X128617928Y-74570721D01*
X128454972Y-74655912D01*
X128454968Y-74655915D01*
X128449512Y-74658767D01*
X128444712Y-74662627D01*
X128444711Y-74662627D01*
X128410326Y-74690273D01*
X128296600Y-74781711D01*
X128170480Y-74932016D01*
X128167516Y-74937408D01*
X128167513Y-74937412D01*
X128159727Y-74951575D01*
X128075956Y-75103954D01*
X128016628Y-75290978D01*
X127994757Y-75485963D01*
X115000500Y-75485963D01*
X115000500Y-72905963D01*
X117994757Y-72905963D01*
X118011175Y-73101483D01*
X118065258Y-73290091D01*
X118068076Y-73295574D01*
X118152123Y-73459113D01*
X118152126Y-73459117D01*
X118154944Y-73464601D01*
X118276818Y-73618369D01*
X118281511Y-73622363D01*
X118281512Y-73622364D01*
X118401332Y-73724338D01*
X118426238Y-73745535D01*
X118431616Y-73748541D01*
X118431618Y-73748542D01*
X118497067Y-73785120D01*
X118597513Y-73841257D01*
X118784118Y-73901889D01*
X118978946Y-73925121D01*
X118985081Y-73924649D01*
X118985083Y-73924649D01*
X119168434Y-73910541D01*
X119168438Y-73910540D01*
X119174576Y-73910068D01*
X119363556Y-73857303D01*
X119538689Y-73768837D01*
X119568515Y-73745535D01*
X119688453Y-73651829D01*
X119693303Y-73648040D01*
X119723084Y-73613539D01*
X119817485Y-73504173D01*
X119817485Y-73504172D01*
X119821509Y-73499511D01*
X119918425Y-73328909D01*
X119980358Y-73142732D01*
X120004949Y-72948071D01*
X120005341Y-72920000D01*
X119998392Y-72849126D01*
X125495541Y-72849126D01*
X125525935Y-73050097D01*
X125596119Y-73240852D01*
X125599479Y-73246272D01*
X125599480Y-73246273D01*
X125699863Y-73408176D01*
X125699866Y-73408180D01*
X125703226Y-73413599D01*
X125707612Y-73418237D01*
X125788878Y-73504173D01*
X125842881Y-73561280D01*
X126009379Y-73677863D01*
X126195919Y-73758586D01*
X126226851Y-73765048D01*
X126390144Y-73799162D01*
X126390149Y-73799163D01*
X126394880Y-73800151D01*
X126399762Y-73800407D01*
X126399871Y-73800413D01*
X126399887Y-73800413D01*
X126401539Y-73800500D01*
X127550800Y-73800500D01*
X127598793Y-73795625D01*
X127695868Y-73785765D01*
X127695870Y-73785765D01*
X127702216Y-73785120D01*
X127896172Y-73724338D01*
X128073944Y-73625797D01*
X128228271Y-73493523D01*
X128246957Y-73469434D01*
X128348939Y-73337958D01*
X128352848Y-73332919D01*
X128442587Y-73150545D01*
X128445180Y-73140591D01*
X128492212Y-72960034D01*
X128492212Y-72960031D01*
X128493822Y-72953852D01*
X128504459Y-72750874D01*
X128474065Y-72549903D01*
X128403881Y-72359148D01*
X128400474Y-72353652D01*
X130641722Y-72353652D01*
X130645948Y-72353652D01*
X130645948Y-83352764D01*
X130645886Y-83353553D01*
X130642781Y-83353553D01*
X130644604Y-83369733D01*
X130654335Y-83456093D01*
X130655409Y-83465629D01*
X130674034Y-83518858D01*
X130687126Y-83556272D01*
X130692659Y-83572086D01*
X130752665Y-83667584D01*
X130832416Y-83747335D01*
X130927914Y-83807341D01*
X130934586Y-83809676D01*
X130934589Y-83809677D01*
X130981142Y-83825966D01*
X131034371Y-83844591D01*
X131041398Y-83845383D01*
X131041399Y-83845383D01*
X131146447Y-83857219D01*
X131146330Y-83858253D01*
X131146546Y-83858278D01*
X131146546Y-83854052D01*
X133139366Y-83854054D01*
X133153478Y-83854847D01*
X133171649Y-83856895D01*
X133173981Y-83857180D01*
X133241205Y-83866029D01*
X133252077Y-83867460D01*
X133277243Y-83873452D01*
X133309474Y-83884730D01*
X133316074Y-83887250D01*
X133368473Y-83908954D01*
X133387289Y-83918674D01*
X133419434Y-83938872D01*
X133429077Y-83945579D01*
X133454312Y-83964942D01*
X133471325Y-83977997D01*
X133483714Y-83988863D01*
X133511137Y-84016286D01*
X133522003Y-84028675D01*
X133554421Y-84070923D01*
X133561128Y-84080566D01*
X133570319Y-84095193D01*
X133581326Y-84112711D01*
X133591046Y-84131527D01*
X133612750Y-84183926D01*
X133615269Y-84190524D01*
X133626548Y-84222757D01*
X133632540Y-84247925D01*
X133642820Y-84326019D01*
X133643105Y-84328351D01*
X133645153Y-84346522D01*
X133645946Y-84360634D01*
X133645948Y-86852764D01*
X133645886Y-86853553D01*
X133642781Y-86853553D01*
X133655409Y-86965629D01*
X133692659Y-87072086D01*
X133752665Y-87167584D01*
X133832416Y-87247335D01*
X133927914Y-87307341D01*
X133934586Y-87309676D01*
X133934589Y-87309677D01*
X133981142Y-87325966D01*
X134034371Y-87344591D01*
X134041398Y-87345383D01*
X134041399Y-87345383D01*
X134146447Y-87357219D01*
X134146330Y-87358253D01*
X134146546Y-87358278D01*
X134146546Y-87354052D01*
X137333419Y-87354052D01*
X137401540Y-87374054D01*
X137448033Y-87427710D01*
X137458137Y-87497984D01*
X137428643Y-87562564D01*
X137390621Y-87592319D01*
X137290039Y-87643569D01*
X137200331Y-87733277D01*
X137142735Y-87846315D01*
X137141185Y-87856104D01*
X137141184Y-87856106D01*
X137136689Y-87884487D01*
X137122889Y-87971619D01*
X137124440Y-87981412D01*
X137140459Y-88082550D01*
X137142735Y-88096923D01*
X137200331Y-88209961D01*
X137290039Y-88299669D01*
X137403077Y-88357265D01*
X137412866Y-88358815D01*
X137412868Y-88358816D01*
X137518588Y-88375560D01*
X137528381Y-88377111D01*
X137538174Y-88375560D01*
X137643894Y-88358816D01*
X137643896Y-88358815D01*
X137653685Y-88357265D01*
X137766723Y-88299669D01*
X137856431Y-88209961D01*
X137914027Y-88096923D01*
X137916304Y-88082550D01*
X137929378Y-88000000D01*
X140344508Y-88000000D01*
X140346059Y-88009793D01*
X140357583Y-88082550D01*
X140364354Y-88125304D01*
X140421950Y-88238342D01*
X140511658Y-88328050D01*
X140624696Y-88385646D01*
X140634485Y-88387196D01*
X140634487Y-88387197D01*
X140740207Y-88403941D01*
X140750000Y-88405492D01*
X140759793Y-88403941D01*
X140865513Y-88387197D01*
X140865515Y-88387196D01*
X140875304Y-88385646D01*
X140988342Y-88328050D01*
X141078050Y-88238342D01*
X141078094Y-88238386D01*
X141129785Y-88198529D01*
X141200521Y-88192455D01*
X141263312Y-88225589D01*
X141270908Y-88234356D01*
X141272939Y-88238342D01*
X141362647Y-88328050D01*
X141475685Y-88385646D01*
X141485474Y-88387196D01*
X141485476Y-88387197D01*
X141591196Y-88403941D01*
X141600989Y-88405492D01*
X141610782Y-88403941D01*
X141716502Y-88387197D01*
X141716504Y-88387196D01*
X141726293Y-88385646D01*
X141839331Y-88328050D01*
X141929039Y-88238342D01*
X141986635Y-88125304D01*
X141993407Y-88082550D01*
X142004930Y-88009793D01*
X142006481Y-88000000D01*
X141986635Y-87874696D01*
X141929039Y-87761658D01*
X141839331Y-87671950D01*
X141726293Y-87614354D01*
X141716504Y-87612804D01*
X141716502Y-87612803D01*
X141610782Y-87596059D01*
X141600989Y-87594508D01*
X141591196Y-87596059D01*
X141485476Y-87612803D01*
X141485474Y-87612804D01*
X141475685Y-87614354D01*
X141362647Y-87671950D01*
X141272939Y-87761658D01*
X141272894Y-87761613D01*
X141221212Y-87801469D01*
X141150476Y-87807546D01*
X141087683Y-87774416D01*
X141080080Y-87765642D01*
X141078050Y-87761658D01*
X140988342Y-87671950D01*
X140875304Y-87614354D01*
X140865515Y-87612804D01*
X140865513Y-87612803D01*
X140813094Y-87604501D01*
X140748941Y-87574089D01*
X140747668Y-87572044D01*
X140702693Y-87600948D01*
X140686906Y-87604501D01*
X140634487Y-87612803D01*
X140634485Y-87612804D01*
X140624696Y-87614354D01*
X140511658Y-87671950D01*
X140421950Y-87761658D01*
X140364354Y-87874696D01*
X140344508Y-88000000D01*
X137929378Y-88000000D01*
X137932322Y-87981412D01*
X137933873Y-87971619D01*
X137920073Y-87884487D01*
X137915578Y-87856106D01*
X137915577Y-87856104D01*
X137914027Y-87846315D01*
X137856431Y-87733277D01*
X137766723Y-87643569D01*
X137666140Y-87592319D01*
X137614525Y-87543570D01*
X137597459Y-87474655D01*
X137620360Y-87407454D01*
X137675958Y-87363302D01*
X137723343Y-87354052D01*
X140667195Y-87354052D01*
X140735316Y-87374054D01*
X140748183Y-87388904D01*
X140751661Y-87383659D01*
X140816656Y-87355091D01*
X140832805Y-87354052D01*
X141145658Y-87354052D01*
X141146447Y-87354114D01*
X141146447Y-87357219D01*
X141162627Y-87355396D01*
X141251495Y-87345383D01*
X141251496Y-87345383D01*
X141258523Y-87344591D01*
X141311752Y-87325966D01*
X141358305Y-87309677D01*
X141358308Y-87309676D01*
X141364980Y-87307341D01*
X141460478Y-87247335D01*
X141540229Y-87167584D01*
X141600235Y-87072086D01*
X141637485Y-86965629D01*
X141650113Y-86853553D01*
X141651147Y-86853670D01*
X141651172Y-86853454D01*
X141646946Y-86853454D01*
X141646947Y-85750000D01*
X144594508Y-85750000D01*
X144596059Y-85759793D01*
X144604301Y-85811829D01*
X144614354Y-85875304D01*
X144671950Y-85988342D01*
X144761658Y-86078050D01*
X144874696Y-86135646D01*
X144884485Y-86137196D01*
X144884487Y-86137197D01*
X144990207Y-86153941D01*
X145000000Y-86155492D01*
X145009793Y-86153941D01*
X145115513Y-86137197D01*
X145115515Y-86137196D01*
X145125304Y-86135646D01*
X145238342Y-86078050D01*
X145328050Y-85988342D01*
X145385646Y-85875304D01*
X145395700Y-85811829D01*
X145403941Y-85759793D01*
X145405492Y-85750000D01*
X145403941Y-85740207D01*
X145387197Y-85634487D01*
X145387196Y-85634485D01*
X145385646Y-85624696D01*
X145328050Y-85511658D01*
X145238342Y-85421950D01*
X145125304Y-85364354D01*
X145115515Y-85362804D01*
X145115513Y-85362803D01*
X145009793Y-85346059D01*
X145000000Y-85344508D01*
X144990207Y-85346059D01*
X144884487Y-85362803D01*
X144884485Y-85362804D01*
X144874696Y-85364354D01*
X144761658Y-85421950D01*
X144671950Y-85511658D01*
X144614354Y-85624696D01*
X144612804Y-85634485D01*
X144612803Y-85634487D01*
X144596059Y-85740207D01*
X144594508Y-85750000D01*
X141646947Y-85750000D01*
X141646948Y-84360634D01*
X141647741Y-84346522D01*
X141649789Y-84328351D01*
X141650074Y-84326019D01*
X141660354Y-84247925D01*
X141666346Y-84222757D01*
X141677625Y-84190524D01*
X141680144Y-84183926D01*
X141701848Y-84131527D01*
X141711568Y-84112711D01*
X141722575Y-84095193D01*
X141731766Y-84080566D01*
X141738473Y-84070923D01*
X141770891Y-84028675D01*
X141781757Y-84016286D01*
X141809180Y-83988863D01*
X141821569Y-83977997D01*
X141838582Y-83964942D01*
X141863817Y-83945579D01*
X141873460Y-83938872D01*
X141905605Y-83918674D01*
X141924421Y-83908954D01*
X141976820Y-83887250D01*
X141983420Y-83884730D01*
X142015651Y-83873452D01*
X142040817Y-83867460D01*
X142051689Y-83866029D01*
X142118913Y-83857180D01*
X142121245Y-83856895D01*
X142139416Y-83854847D01*
X142153528Y-83854054D01*
X143966491Y-83854052D01*
X144145658Y-83854052D01*
X144146447Y-83854114D01*
X144146447Y-83857219D01*
X144162627Y-83855396D01*
X144251495Y-83845383D01*
X144251496Y-83845383D01*
X144258523Y-83844591D01*
X144311752Y-83825966D01*
X144358305Y-83809677D01*
X144358308Y-83809676D01*
X144364980Y-83807341D01*
X144460478Y-83747335D01*
X144540229Y-83667584D01*
X144600235Y-83572086D01*
X144605769Y-83556272D01*
X144618860Y-83518858D01*
X144637485Y-83465629D01*
X144638560Y-83456093D01*
X144650113Y-83353553D01*
X144651147Y-83353670D01*
X144651172Y-83353454D01*
X144646946Y-83353454D01*
X144646946Y-72354342D01*
X144647008Y-72353553D01*
X144650113Y-72353553D01*
X144648290Y-72337373D01*
X144638277Y-72248505D01*
X144638277Y-72248504D01*
X144637485Y-72241477D01*
X144600235Y-72135020D01*
X144540229Y-72039522D01*
X144460478Y-71959771D01*
X144364980Y-71899765D01*
X144358308Y-71897430D01*
X144358305Y-71897429D01*
X144290634Y-71873751D01*
X144258523Y-71862515D01*
X144251496Y-71861723D01*
X144251495Y-71861723D01*
X144146447Y-71849887D01*
X144146564Y-71848853D01*
X144146348Y-71848828D01*
X144146348Y-71853054D01*
X142153538Y-71853052D01*
X142139426Y-71852259D01*
X142121246Y-71850210D01*
X142118912Y-71849925D01*
X142040817Y-71839644D01*
X142015651Y-71833652D01*
X141992714Y-71825627D01*
X141983429Y-71822377D01*
X141976830Y-71819859D01*
X141924417Y-71798148D01*
X141905602Y-71788428D01*
X141887624Y-71777132D01*
X141873463Y-71768234D01*
X141863807Y-71761517D01*
X141821570Y-71729108D01*
X141809189Y-71718250D01*
X141781752Y-71690812D01*
X141770887Y-71678424D01*
X141738484Y-71636195D01*
X141731762Y-71626532D01*
X141711572Y-71594399D01*
X141701852Y-71575584D01*
X141681822Y-71527228D01*
X141680140Y-71523168D01*
X141677622Y-71516571D01*
X141666346Y-71484346D01*
X141660356Y-71459190D01*
X141650071Y-71381071D01*
X141649786Y-71378739D01*
X141647740Y-71360580D01*
X141646948Y-71346473D01*
X141646945Y-68854342D01*
X141647007Y-68853553D01*
X141650112Y-68853553D01*
X141637484Y-68741477D01*
X141600233Y-68635021D01*
X141567264Y-68582550D01*
X141543995Y-68545518D01*
X141543994Y-68545517D01*
X141540228Y-68539523D01*
X141460477Y-68459772D01*
X141454482Y-68456005D01*
X141370970Y-68403531D01*
X141370967Y-68403530D01*
X141364979Y-68399767D01*
X141258523Y-68362516D01*
X141251500Y-68361725D01*
X141251497Y-68361724D01*
X141146447Y-68349888D01*
X141146564Y-68348853D01*
X141146350Y-68348829D01*
X141146350Y-68353054D01*
X140475215Y-68353054D01*
X140407094Y-68333052D01*
X140360601Y-68279396D01*
X140350497Y-68209122D01*
X140362948Y-68169851D01*
X140381145Y-68134137D01*
X140385646Y-68125304D01*
X140389608Y-68100292D01*
X140403941Y-68009793D01*
X140405492Y-68000000D01*
X141594508Y-68000000D01*
X141596059Y-68009793D01*
X141610393Y-68100292D01*
X141614354Y-68125304D01*
X141671950Y-68238342D01*
X141761658Y-68328050D01*
X141874696Y-68385646D01*
X141884485Y-68387196D01*
X141884487Y-68387197D01*
X141990207Y-68403941D01*
X142000000Y-68405492D01*
X142009793Y-68403941D01*
X142115513Y-68387197D01*
X142115515Y-68387196D01*
X142125304Y-68385646D01*
X142238342Y-68328050D01*
X142328050Y-68238342D01*
X142385646Y-68125304D01*
X142389608Y-68100292D01*
X142403941Y-68009793D01*
X142405492Y-68000000D01*
X142393130Y-67921950D01*
X142387197Y-67884487D01*
X142387196Y-67884485D01*
X142385646Y-67874696D01*
X142328050Y-67761658D01*
X142238342Y-67671950D01*
X142125304Y-67614354D01*
X142115515Y-67612804D01*
X142115513Y-67612803D01*
X142009793Y-67596059D01*
X142000000Y-67594508D01*
X141990207Y-67596059D01*
X141884487Y-67612803D01*
X141884485Y-67612804D01*
X141874696Y-67614354D01*
X141761658Y-67671950D01*
X141671950Y-67761658D01*
X141614354Y-67874696D01*
X141612804Y-67884485D01*
X141612803Y-67884487D01*
X141606870Y-67921950D01*
X141594508Y-68000000D01*
X140405492Y-68000000D01*
X140393130Y-67921950D01*
X140387197Y-67884487D01*
X140387196Y-67884485D01*
X140385646Y-67874696D01*
X140328050Y-67761658D01*
X140238342Y-67671950D01*
X140125304Y-67614354D01*
X140115515Y-67612804D01*
X140115513Y-67612803D01*
X140009793Y-67596059D01*
X140000000Y-67594508D01*
X139990207Y-67596059D01*
X139884487Y-67612803D01*
X139884485Y-67612804D01*
X139874696Y-67614354D01*
X139761658Y-67671950D01*
X139671950Y-67761658D01*
X139614354Y-67874696D01*
X139612804Y-67884485D01*
X139612803Y-67884487D01*
X139606870Y-67921950D01*
X139594508Y-68000000D01*
X139596059Y-68009793D01*
X139610393Y-68100292D01*
X139614354Y-68125304D01*
X139618855Y-68134137D01*
X139637052Y-68169851D01*
X139650156Y-68239628D01*
X139623456Y-68305412D01*
X139565429Y-68346319D01*
X139524785Y-68353054D01*
X134147236Y-68353054D01*
X134146447Y-68352992D01*
X134146447Y-68349887D01*
X134130267Y-68351710D01*
X134041399Y-68361723D01*
X134041398Y-68361723D01*
X134034371Y-68362515D01*
X133981143Y-68381140D01*
X133934589Y-68397429D01*
X133934586Y-68397430D01*
X133927914Y-68399765D01*
X133832416Y-68459771D01*
X133752665Y-68539522D01*
X133692659Y-68635020D01*
X133690324Y-68641692D01*
X133690323Y-68641695D01*
X133674034Y-68688249D01*
X133655409Y-68741477D01*
X133642781Y-68853553D01*
X133641748Y-68853437D01*
X133641723Y-68853655D01*
X133645949Y-68853655D01*
X133645946Y-71346481D01*
X133645154Y-71360588D01*
X133643108Y-71378748D01*
X133642822Y-71381089D01*
X133632540Y-71459182D01*
X133626548Y-71484346D01*
X133615273Y-71516571D01*
X133612754Y-71523171D01*
X133596798Y-71561694D01*
X133591043Y-71575587D01*
X133581324Y-71594399D01*
X133561142Y-71626519D01*
X133554419Y-71636184D01*
X133522003Y-71678430D01*
X133511135Y-71690822D01*
X133483717Y-71718240D01*
X133471325Y-71729108D01*
X133429079Y-71761524D01*
X133419417Y-71768245D01*
X133387296Y-71788428D01*
X133368486Y-71798146D01*
X133316072Y-71819857D01*
X133309466Y-71822378D01*
X133277241Y-71833653D01*
X133252077Y-71839645D01*
X133201822Y-71846262D01*
X133173951Y-71849931D01*
X133171668Y-71850210D01*
X133153473Y-71852260D01*
X133139368Y-71853052D01*
X131326450Y-71853054D01*
X131147236Y-71853054D01*
X131146447Y-71852992D01*
X131146447Y-71849887D01*
X131130267Y-71851710D01*
X131041399Y-71861723D01*
X131041398Y-71861723D01*
X131034371Y-71862515D01*
X131002260Y-71873751D01*
X130934589Y-71897429D01*
X130934586Y-71897430D01*
X130927914Y-71899765D01*
X130832416Y-71959771D01*
X130752665Y-72039522D01*
X130692659Y-72135020D01*
X130655409Y-72241477D01*
X130654617Y-72248504D01*
X130654617Y-72248505D01*
X130644604Y-72337373D01*
X130642781Y-72353553D01*
X130641747Y-72353436D01*
X130641722Y-72353652D01*
X128400474Y-72353652D01*
X128400364Y-72353475D01*
X128300137Y-72191824D01*
X128300134Y-72191820D01*
X128296774Y-72186401D01*
X128206052Y-72090465D01*
X128161508Y-72043361D01*
X128161507Y-72043360D01*
X128157119Y-72038720D01*
X127990621Y-71922137D01*
X127804081Y-71841414D01*
X127700903Y-71819859D01*
X127609856Y-71800838D01*
X127609851Y-71800837D01*
X127605120Y-71799849D01*
X127600238Y-71799593D01*
X127600129Y-71799587D01*
X127600113Y-71799587D01*
X127598461Y-71799500D01*
X126449200Y-71799500D01*
X126401207Y-71804375D01*
X126304132Y-71814235D01*
X126304130Y-71814235D01*
X126297784Y-71814880D01*
X126103828Y-71875662D01*
X125926056Y-71974203D01*
X125771729Y-72106477D01*
X125767822Y-72111514D01*
X125767820Y-72111516D01*
X125749589Y-72135020D01*
X125647152Y-72267081D01*
X125557413Y-72449455D01*
X125555804Y-72455633D01*
X125555803Y-72455635D01*
X125529603Y-72556220D01*
X125506178Y-72646148D01*
X125495541Y-72849126D01*
X119998392Y-72849126D01*
X119986194Y-72724728D01*
X119984413Y-72718829D01*
X119984412Y-72718824D01*
X119931265Y-72542793D01*
X119929484Y-72536894D01*
X119837370Y-72363653D01*
X119713361Y-72211602D01*
X119562180Y-72086535D01*
X119389585Y-71993213D01*
X119281551Y-71959771D01*
X119208039Y-71937015D01*
X119208036Y-71937014D01*
X119202152Y-71935193D01*
X119196027Y-71934549D01*
X119196026Y-71934549D01*
X119013147Y-71915327D01*
X119013146Y-71915327D01*
X119007019Y-71914683D01*
X118884876Y-71925799D01*
X118817759Y-71931907D01*
X118817758Y-71931907D01*
X118811618Y-71932466D01*
X118805704Y-71934207D01*
X118805702Y-71934207D01*
X118701839Y-71964776D01*
X118623393Y-71987864D01*
X118617928Y-71990721D01*
X118454972Y-72075912D01*
X118454968Y-72075915D01*
X118449512Y-72078767D01*
X118444712Y-72082627D01*
X118444711Y-72082627D01*
X118420212Y-72102325D01*
X118296600Y-72201711D01*
X118170480Y-72352016D01*
X118167516Y-72357408D01*
X118167513Y-72357412D01*
X118120061Y-72443728D01*
X118075956Y-72523954D01*
X118074095Y-72529821D01*
X118074094Y-72529823D01*
X118046292Y-72617466D01*
X118016628Y-72710978D01*
X117994757Y-72905963D01*
X115000500Y-72905963D01*
X115000500Y-68094594D01*
X116798074Y-68094594D01*
X116799053Y-68100291D01*
X116799053Y-68100292D01*
X116823095Y-68240207D01*
X116835438Y-68312043D01*
X116911804Y-68519043D01*
X116914756Y-68524004D01*
X116914756Y-68524005D01*
X116981880Y-68636829D01*
X117024614Y-68708659D01*
X117170090Y-68874543D01*
X117343360Y-69011137D01*
X117538620Y-69113869D01*
X117749333Y-69179297D01*
X117755070Y-69179976D01*
X117924789Y-69200064D01*
X117924795Y-69200064D01*
X117928476Y-69200500D01*
X118055970Y-69200500D01*
X118219711Y-69185454D01*
X118225273Y-69183885D01*
X118225275Y-69183885D01*
X118325888Y-69155509D01*
X118432064Y-69125565D01*
X118629947Y-69027980D01*
X118652503Y-69011137D01*
X118802109Y-68899420D01*
X118802110Y-68899420D01*
X118806733Y-68895967D01*
X118943046Y-68748505D01*
X118952582Y-68738189D01*
X118952584Y-68738186D01*
X118956501Y-68733949D01*
X119074236Y-68547350D01*
X119155994Y-68342421D01*
X119157958Y-68332550D01*
X119197911Y-68131691D01*
X119197911Y-68131688D01*
X119199038Y-68126024D01*
X119199450Y-68094594D01*
X119200627Y-68004647D01*
X119201926Y-67905406D01*
X119198332Y-67884487D01*
X119165541Y-67693654D01*
X119165541Y-67693653D01*
X119164562Y-67687957D01*
X119088196Y-67480957D01*
X119061345Y-67435824D01*
X118978340Y-67296306D01*
X118978339Y-67296305D01*
X118975386Y-67291341D01*
X118829910Y-67125457D01*
X118656640Y-66988863D01*
X118461380Y-66886131D01*
X118250667Y-66820703D01*
X118236718Y-66819052D01*
X118075211Y-66799936D01*
X118075205Y-66799936D01*
X118071524Y-66799500D01*
X117944030Y-66799500D01*
X117780289Y-66814546D01*
X117774727Y-66816115D01*
X117774725Y-66816115D01*
X117742803Y-66825118D01*
X117567936Y-66874435D01*
X117370053Y-66972020D01*
X117365427Y-66975474D01*
X117365426Y-66975475D01*
X117236804Y-67071522D01*
X117193267Y-67104033D01*
X117173463Y-67125457D01*
X117100454Y-67204438D01*
X117043499Y-67266051D01*
X116925764Y-67452650D01*
X116844006Y-67657579D01*
X116842880Y-67663239D01*
X116842879Y-67663243D01*
X116802344Y-67867028D01*
X116800962Y-67873976D01*
X116800886Y-67879751D01*
X116800886Y-67879755D01*
X116800475Y-67911188D01*
X116798074Y-68094594D01*
X115000500Y-68094594D01*
X115000500Y-68003301D01*
X115000673Y-67996707D01*
X115007469Y-67867028D01*
X115007494Y-67866558D01*
X115013778Y-67754647D01*
X115017622Y-67686212D01*
X115018974Y-67673572D01*
X115021507Y-67657579D01*
X115042515Y-67524939D01*
X115042694Y-67523850D01*
X115057650Y-67435824D01*
X115069721Y-67364783D01*
X115072234Y-67353279D01*
X115112115Y-67204438D01*
X115112747Y-67202167D01*
X115156321Y-67050920D01*
X115159765Y-67040647D01*
X115215539Y-66895353D01*
X115216755Y-66892304D01*
X115244584Y-66825118D01*
X115276397Y-66748315D01*
X115280530Y-66739349D01*
X115351557Y-66599951D01*
X115353528Y-66596239D01*
X115374635Y-66558050D01*
X115380886Y-66546739D01*
X140245483Y-66546739D01*
X140247034Y-66556532D01*
X140258582Y-66629441D01*
X140265329Y-66672043D01*
X140322925Y-66785081D01*
X140412633Y-66874789D01*
X140525671Y-66932385D01*
X140535460Y-66933935D01*
X140535462Y-66933936D01*
X140641182Y-66950680D01*
X140650975Y-66952231D01*
X140660768Y-66950680D01*
X140766488Y-66933936D01*
X140766490Y-66933935D01*
X140776279Y-66932385D01*
X140889317Y-66874789D01*
X140904962Y-66859144D01*
X140967274Y-66825118D01*
X140994057Y-66822239D01*
X141880433Y-66822239D01*
X141948554Y-66842241D01*
X141969528Y-66859144D01*
X146152231Y-71041847D01*
X146167900Y-71060938D01*
X146176376Y-71073624D01*
X146189062Y-71082100D01*
X146208153Y-71097769D01*
X146937595Y-71827211D01*
X146971621Y-71889523D01*
X146974500Y-71916306D01*
X146974500Y-103710457D01*
X146972079Y-103735039D01*
X146969103Y-103750000D01*
X146974500Y-103777132D01*
X146974500Y-103777133D01*
X146990485Y-103857495D01*
X147051376Y-103948624D01*
X147061692Y-103955517D01*
X147061693Y-103955518D01*
X147064064Y-103957102D01*
X147083156Y-103972772D01*
X147562570Y-104452186D01*
X147597924Y-104521570D01*
X147612803Y-104615513D01*
X147614354Y-104625304D01*
X147671950Y-104738342D01*
X147761658Y-104828050D01*
X147874696Y-104885646D01*
X147884485Y-104887196D01*
X147884487Y-104887197D01*
X147990207Y-104903941D01*
X148000000Y-104905492D01*
X148009793Y-104903941D01*
X148115513Y-104887197D01*
X148115515Y-104887196D01*
X148125304Y-104885646D01*
X148238342Y-104828050D01*
X148328050Y-104738342D01*
X148385646Y-104625304D01*
X148391546Y-104588056D01*
X148403941Y-104509793D01*
X148405492Y-104500000D01*
X148392067Y-104415237D01*
X148387197Y-104384487D01*
X148387196Y-104384485D01*
X148385646Y-104374696D01*
X148328050Y-104261658D01*
X148238342Y-104171950D01*
X148125304Y-104114354D01*
X148115515Y-104112804D01*
X148115513Y-104112803D01*
X148021570Y-104097924D01*
X147952186Y-104062570D01*
X147562405Y-103672789D01*
X147528379Y-103610477D01*
X147525500Y-103583694D01*
X147525500Y-101189820D01*
X156924500Y-101189820D01*
X156933233Y-101233722D01*
X156940127Y-101244040D01*
X156940128Y-101244042D01*
X156954548Y-101265623D01*
X156966496Y-101283504D01*
X156976815Y-101290399D01*
X157005958Y-101309872D01*
X157005960Y-101309873D01*
X157016278Y-101316767D01*
X157060180Y-101325500D01*
X158439820Y-101325500D01*
X158483722Y-101316767D01*
X158494040Y-101309873D01*
X158494042Y-101309872D01*
X158523185Y-101290399D01*
X158533504Y-101283504D01*
X158545452Y-101265623D01*
X158559872Y-101244042D01*
X158559873Y-101244040D01*
X158566767Y-101233722D01*
X158575500Y-101189820D01*
X158575500Y-99810180D01*
X158566767Y-99766278D01*
X158559873Y-99755960D01*
X158559872Y-99755958D01*
X158540399Y-99726815D01*
X158533504Y-99716496D01*
X158523185Y-99709601D01*
X158494042Y-99690128D01*
X158494040Y-99690127D01*
X158483722Y-99683233D01*
X158439820Y-99674500D01*
X157060180Y-99674500D01*
X157016278Y-99683233D01*
X157005960Y-99690127D01*
X157005958Y-99690128D01*
X156976815Y-99709601D01*
X156966496Y-99716496D01*
X156959601Y-99726815D01*
X156940128Y-99755958D01*
X156940127Y-99755960D01*
X156933233Y-99766278D01*
X156924500Y-99810180D01*
X156924500Y-101189820D01*
X147525500Y-101189820D01*
X147525500Y-85065963D01*
X147994757Y-85065963D01*
X148011175Y-85261483D01*
X148065258Y-85450091D01*
X148068076Y-85455574D01*
X148152123Y-85619113D01*
X148152126Y-85619117D01*
X148154944Y-85624601D01*
X148276818Y-85778369D01*
X148281511Y-85782363D01*
X148281512Y-85782364D01*
X148390717Y-85875304D01*
X148426238Y-85905535D01*
X148431616Y-85908541D01*
X148431618Y-85908542D01*
X148467932Y-85928837D01*
X148597513Y-86001257D01*
X148784118Y-86061889D01*
X148978946Y-86085121D01*
X148985081Y-86084649D01*
X148985083Y-86084649D01*
X149168434Y-86070541D01*
X149168438Y-86070540D01*
X149174576Y-86070068D01*
X149363556Y-86017303D01*
X149538689Y-85928837D01*
X149568515Y-85905535D01*
X149688453Y-85811829D01*
X149693303Y-85808040D01*
X149723084Y-85773539D01*
X149817485Y-85664173D01*
X149817485Y-85664172D01*
X149821509Y-85659511D01*
X149918425Y-85488909D01*
X149980358Y-85302732D01*
X150004949Y-85108071D01*
X150005341Y-85080000D01*
X149986194Y-84884728D01*
X149984413Y-84878829D01*
X149984412Y-84878824D01*
X149931265Y-84702793D01*
X149929484Y-84696894D01*
X149837370Y-84523653D01*
X149713361Y-84371602D01*
X149562180Y-84246535D01*
X149389585Y-84153213D01*
X149258744Y-84112711D01*
X149208039Y-84097015D01*
X149208036Y-84097014D01*
X149202152Y-84095193D01*
X149196027Y-84094549D01*
X149196026Y-84094549D01*
X149013147Y-84075327D01*
X149013146Y-84075327D01*
X149007019Y-84074683D01*
X148884383Y-84085844D01*
X148817759Y-84091907D01*
X148817758Y-84091907D01*
X148811618Y-84092466D01*
X148805704Y-84094207D01*
X148805702Y-84094207D01*
X148742832Y-84112711D01*
X148623393Y-84147864D01*
X148617928Y-84150721D01*
X148454972Y-84235912D01*
X148454968Y-84235915D01*
X148449512Y-84238767D01*
X148444712Y-84242627D01*
X148444711Y-84242627D01*
X148410326Y-84270273D01*
X148296600Y-84361711D01*
X148170480Y-84512016D01*
X148167516Y-84517408D01*
X148167513Y-84517412D01*
X148088813Y-84660567D01*
X148075956Y-84683954D01*
X148016628Y-84870978D01*
X147994757Y-85065963D01*
X147525500Y-85065963D01*
X147525500Y-83065963D01*
X154994757Y-83065963D01*
X155011175Y-83261483D01*
X155065258Y-83450091D01*
X155076674Y-83472304D01*
X155152123Y-83619113D01*
X155152126Y-83619117D01*
X155154944Y-83624601D01*
X155276818Y-83778369D01*
X155281511Y-83782363D01*
X155281512Y-83782364D01*
X155417003Y-83897675D01*
X155426238Y-83905535D01*
X155431616Y-83908541D01*
X155431618Y-83908542D01*
X155467932Y-83928837D01*
X155597513Y-84001257D01*
X155784118Y-84061889D01*
X155978946Y-84085121D01*
X155985081Y-84084649D01*
X155985083Y-84084649D01*
X156168434Y-84070541D01*
X156168438Y-84070540D01*
X156174576Y-84070068D01*
X156363556Y-84017303D01*
X156538689Y-83928837D01*
X156568515Y-83905535D01*
X156634355Y-83854095D01*
X156693303Y-83808040D01*
X156723084Y-83773539D01*
X156817485Y-83664173D01*
X156817485Y-83664172D01*
X156821509Y-83659511D01*
X156918425Y-83488909D01*
X156980358Y-83302732D01*
X157004949Y-83108071D01*
X157005341Y-83080000D01*
X156986194Y-82884728D01*
X156984413Y-82878829D01*
X156984412Y-82878824D01*
X156931265Y-82702793D01*
X156929484Y-82696894D01*
X156837370Y-82523653D01*
X156713361Y-82371602D01*
X156562180Y-82246535D01*
X156389585Y-82153213D01*
X156295869Y-82124203D01*
X156208039Y-82097015D01*
X156208036Y-82097014D01*
X156202152Y-82095193D01*
X156196027Y-82094549D01*
X156196026Y-82094549D01*
X156013147Y-82075327D01*
X156013146Y-82075327D01*
X156007019Y-82074683D01*
X155884383Y-82085844D01*
X155817759Y-82091907D01*
X155817758Y-82091907D01*
X155811618Y-82092466D01*
X155805704Y-82094207D01*
X155805702Y-82094207D01*
X155676734Y-82132165D01*
X155623393Y-82147864D01*
X155617928Y-82150721D01*
X155454972Y-82235912D01*
X155454968Y-82235915D01*
X155449512Y-82238767D01*
X155444712Y-82242627D01*
X155444711Y-82242627D01*
X155410326Y-82270273D01*
X155296600Y-82361711D01*
X155170480Y-82512016D01*
X155167516Y-82517408D01*
X155167513Y-82517412D01*
X155132136Y-82581763D01*
X155075956Y-82683954D01*
X155074095Y-82689821D01*
X155074094Y-82689823D01*
X155052103Y-82759148D01*
X155016628Y-82870978D01*
X154994757Y-83065963D01*
X147525500Y-83065963D01*
X147525500Y-79985963D01*
X147994757Y-79985963D01*
X148011175Y-80181483D01*
X148065258Y-80370091D01*
X148068076Y-80375574D01*
X148152123Y-80539113D01*
X148152126Y-80539117D01*
X148154944Y-80544601D01*
X148276818Y-80698369D01*
X148281511Y-80702363D01*
X148281512Y-80702364D01*
X148312321Y-80728584D01*
X148426238Y-80825535D01*
X148431616Y-80828541D01*
X148431618Y-80828542D01*
X148467932Y-80848837D01*
X148597513Y-80921257D01*
X148784118Y-80981889D01*
X148978946Y-81005121D01*
X148985081Y-81004649D01*
X148985083Y-81004649D01*
X149168434Y-80990541D01*
X149168438Y-80990540D01*
X149174576Y-80990068D01*
X149363556Y-80937303D01*
X149538689Y-80848837D01*
X149568515Y-80825535D01*
X149688453Y-80731829D01*
X149693303Y-80728040D01*
X149703167Y-80716613D01*
X149817485Y-80584173D01*
X149817485Y-80584172D01*
X149821509Y-80579511D01*
X149918425Y-80408909D01*
X149980358Y-80222732D01*
X150004949Y-80028071D01*
X150005341Y-80000000D01*
X149986194Y-79804728D01*
X149984413Y-79798829D01*
X149984412Y-79798824D01*
X149931265Y-79622793D01*
X149929484Y-79616894D01*
X149837370Y-79443653D01*
X149713361Y-79291602D01*
X149562180Y-79166535D01*
X149389585Y-79073213D01*
X149295869Y-79044203D01*
X149208039Y-79017015D01*
X149208036Y-79017014D01*
X149202152Y-79015193D01*
X149196027Y-79014549D01*
X149196026Y-79014549D01*
X149013147Y-78995327D01*
X149013146Y-78995327D01*
X149007019Y-78994683D01*
X148884383Y-79005844D01*
X148817759Y-79011907D01*
X148817758Y-79011907D01*
X148811618Y-79012466D01*
X148805704Y-79014207D01*
X148805702Y-79014207D01*
X148676734Y-79052165D01*
X148623393Y-79067864D01*
X148617928Y-79070721D01*
X148454972Y-79155912D01*
X148454968Y-79155915D01*
X148449512Y-79158767D01*
X148444712Y-79162627D01*
X148444711Y-79162627D01*
X148410326Y-79190273D01*
X148296600Y-79281711D01*
X148170480Y-79432016D01*
X148167516Y-79437408D01*
X148167513Y-79437412D01*
X148142476Y-79482955D01*
X148075956Y-79603954D01*
X148016628Y-79790978D01*
X147994757Y-79985963D01*
X147525500Y-79985963D01*
X147525500Y-77985963D01*
X154994757Y-77985963D01*
X155011175Y-78181483D01*
X155065258Y-78370091D01*
X155068076Y-78375574D01*
X155152123Y-78539113D01*
X155152126Y-78539117D01*
X155154944Y-78544601D01*
X155276818Y-78698369D01*
X155426238Y-78825535D01*
X155431616Y-78828541D01*
X155431618Y-78828542D01*
X155467932Y-78848837D01*
X155597513Y-78921257D01*
X155784118Y-78981889D01*
X155978946Y-79005121D01*
X155985081Y-79004649D01*
X155985083Y-79004649D01*
X156168434Y-78990541D01*
X156168438Y-78990540D01*
X156174576Y-78990068D01*
X156363556Y-78937303D01*
X156538689Y-78848837D01*
X156568515Y-78825535D01*
X156688453Y-78731829D01*
X156693303Y-78728040D01*
X156723084Y-78693539D01*
X156817485Y-78584173D01*
X156817485Y-78584172D01*
X156821509Y-78579511D01*
X156918425Y-78408909D01*
X156980358Y-78222732D01*
X157004949Y-78028071D01*
X157005341Y-78000000D01*
X156986194Y-77804728D01*
X156984413Y-77798829D01*
X156984412Y-77798824D01*
X156931265Y-77622793D01*
X156929484Y-77616894D01*
X156837370Y-77443653D01*
X156713361Y-77291602D01*
X156562180Y-77166535D01*
X156389585Y-77073213D01*
X156295869Y-77044203D01*
X156208039Y-77017015D01*
X156208036Y-77017014D01*
X156202152Y-77015193D01*
X156196027Y-77014549D01*
X156196026Y-77014549D01*
X156013147Y-76995327D01*
X156013146Y-76995327D01*
X156007019Y-76994683D01*
X155884383Y-77005844D01*
X155817759Y-77011907D01*
X155817758Y-77011907D01*
X155811618Y-77012466D01*
X155805704Y-77014207D01*
X155805702Y-77014207D01*
X155676734Y-77052165D01*
X155623393Y-77067864D01*
X155617928Y-77070721D01*
X155454972Y-77155912D01*
X155454968Y-77155915D01*
X155449512Y-77158767D01*
X155444712Y-77162627D01*
X155444711Y-77162627D01*
X155410326Y-77190273D01*
X155296600Y-77281711D01*
X155170480Y-77432016D01*
X155167516Y-77437408D01*
X155167513Y-77437412D01*
X155119819Y-77524168D01*
X155075956Y-77603954D01*
X155074095Y-77609821D01*
X155074094Y-77609823D01*
X155071851Y-77616894D01*
X155016628Y-77790978D01*
X154994757Y-77985963D01*
X147525500Y-77985963D01*
X147525500Y-74905963D01*
X147994757Y-74905963D01*
X148011175Y-75101483D01*
X148065258Y-75290091D01*
X148068076Y-75295574D01*
X148152123Y-75459113D01*
X148152126Y-75459117D01*
X148154944Y-75464601D01*
X148276818Y-75618369D01*
X148281511Y-75622363D01*
X148281512Y-75622364D01*
X148406321Y-75728584D01*
X148426238Y-75745535D01*
X148431616Y-75748541D01*
X148431618Y-75748542D01*
X148467932Y-75768837D01*
X148597513Y-75841257D01*
X148784118Y-75901889D01*
X148978946Y-75925121D01*
X148985081Y-75924649D01*
X148985083Y-75924649D01*
X149168434Y-75910541D01*
X149168438Y-75910540D01*
X149174576Y-75910068D01*
X149363556Y-75857303D01*
X149538689Y-75768837D01*
X149568515Y-75745535D01*
X149688453Y-75651829D01*
X149693303Y-75648040D01*
X149723084Y-75613539D01*
X149817485Y-75504173D01*
X149817485Y-75504172D01*
X149821509Y-75499511D01*
X149829206Y-75485963D01*
X149915378Y-75334272D01*
X149918425Y-75328909D01*
X149980358Y-75142732D01*
X150004949Y-74948071D01*
X150005341Y-74920000D01*
X149986194Y-74724728D01*
X149984413Y-74718829D01*
X149984412Y-74718824D01*
X149931265Y-74542793D01*
X149929484Y-74536894D01*
X149837370Y-74363653D01*
X149713361Y-74211602D01*
X149562180Y-74086535D01*
X149389585Y-73993213D01*
X149295869Y-73964203D01*
X149208039Y-73937015D01*
X149208036Y-73937014D01*
X149202152Y-73935193D01*
X149196027Y-73934549D01*
X149196026Y-73934549D01*
X149013147Y-73915327D01*
X149013146Y-73915327D01*
X149007019Y-73914683D01*
X148884383Y-73925844D01*
X148817759Y-73931907D01*
X148817758Y-73931907D01*
X148811618Y-73932466D01*
X148805704Y-73934207D01*
X148805702Y-73934207D01*
X148676734Y-73972165D01*
X148623393Y-73987864D01*
X148617928Y-73990721D01*
X148454972Y-74075912D01*
X148454968Y-74075915D01*
X148449512Y-74078767D01*
X148444712Y-74082627D01*
X148444711Y-74082627D01*
X148410326Y-74110273D01*
X148296600Y-74201711D01*
X148170480Y-74352016D01*
X148167516Y-74357408D01*
X148167513Y-74357412D01*
X148092048Y-74494683D01*
X148075956Y-74523954D01*
X148074095Y-74529821D01*
X148074094Y-74529823D01*
X148046292Y-74617466D01*
X148016628Y-74710978D01*
X147994757Y-74905963D01*
X147525500Y-74905963D01*
X147525500Y-72905963D01*
X154994757Y-72905963D01*
X155011175Y-73101483D01*
X155065258Y-73290091D01*
X155068076Y-73295574D01*
X155152123Y-73459113D01*
X155152126Y-73459117D01*
X155154944Y-73464601D01*
X155276818Y-73618369D01*
X155281511Y-73622363D01*
X155281512Y-73622364D01*
X155401332Y-73724338D01*
X155426238Y-73745535D01*
X155431616Y-73748541D01*
X155431618Y-73748542D01*
X155497067Y-73785120D01*
X155597513Y-73841257D01*
X155784118Y-73901889D01*
X155978946Y-73925121D01*
X155985081Y-73924649D01*
X155985083Y-73924649D01*
X156168434Y-73910541D01*
X156168438Y-73910540D01*
X156174576Y-73910068D01*
X156363556Y-73857303D01*
X156538689Y-73768837D01*
X156568515Y-73745535D01*
X156688453Y-73651829D01*
X156693303Y-73648040D01*
X156723084Y-73613539D01*
X156817485Y-73504173D01*
X156817485Y-73504172D01*
X156821509Y-73499511D01*
X156918425Y-73328909D01*
X156980358Y-73142732D01*
X157004949Y-72948071D01*
X157005341Y-72920000D01*
X156986194Y-72724728D01*
X156984413Y-72718829D01*
X156984412Y-72718824D01*
X156931265Y-72542793D01*
X156929484Y-72536894D01*
X156837370Y-72363653D01*
X156713361Y-72211602D01*
X156562180Y-72086535D01*
X156389585Y-71993213D01*
X156281551Y-71959771D01*
X156208039Y-71937015D01*
X156208036Y-71937014D01*
X156202152Y-71935193D01*
X156196027Y-71934549D01*
X156196026Y-71934549D01*
X156013147Y-71915327D01*
X156013146Y-71915327D01*
X156007019Y-71914683D01*
X155884876Y-71925799D01*
X155817759Y-71931907D01*
X155817758Y-71931907D01*
X155811618Y-71932466D01*
X155805704Y-71934207D01*
X155805702Y-71934207D01*
X155701839Y-71964776D01*
X155623393Y-71987864D01*
X155617928Y-71990721D01*
X155454972Y-72075912D01*
X155454968Y-72075915D01*
X155449512Y-72078767D01*
X155444712Y-72082627D01*
X155444711Y-72082627D01*
X155420212Y-72102325D01*
X155296600Y-72201711D01*
X155170480Y-72352016D01*
X155167516Y-72357408D01*
X155167513Y-72357412D01*
X155120061Y-72443728D01*
X155075956Y-72523954D01*
X155074095Y-72529821D01*
X155074094Y-72529823D01*
X155046292Y-72617466D01*
X155016628Y-72710978D01*
X154994757Y-72905963D01*
X147525500Y-72905963D01*
X147525500Y-71789543D01*
X147527921Y-71764961D01*
X147528476Y-71762171D01*
X147530897Y-71750000D01*
X147514503Y-71667583D01*
X147509515Y-71642505D01*
X147498834Y-71626519D01*
X147455518Y-71561694D01*
X147448624Y-71551376D01*
X147435936Y-71542898D01*
X147416844Y-71527228D01*
X146913073Y-71023457D01*
X146879047Y-70961145D01*
X146884112Y-70890330D01*
X146926659Y-70833494D01*
X146944964Y-70822096D01*
X146964630Y-70812076D01*
X146964636Y-70812071D01*
X146973465Y-70807573D01*
X147057573Y-70723465D01*
X147111574Y-70617482D01*
X147130181Y-70500000D01*
X147111574Y-70382518D01*
X147057573Y-70276535D01*
X146973465Y-70192427D01*
X146867482Y-70138426D01*
X146750000Y-70119819D01*
X146632518Y-70138426D01*
X146526535Y-70192427D01*
X146442427Y-70276535D01*
X146437929Y-70285364D01*
X146437924Y-70285370D01*
X146427904Y-70305036D01*
X146379155Y-70356651D01*
X146310240Y-70373716D01*
X146243039Y-70350814D01*
X146226543Y-70336927D01*
X144139616Y-68250000D01*
X150094508Y-68250000D01*
X150096059Y-68259793D01*
X150112699Y-68364852D01*
X150114354Y-68375304D01*
X150171950Y-68488342D01*
X150261658Y-68578050D01*
X150374696Y-68635646D01*
X150384485Y-68637196D01*
X150384487Y-68637197D01*
X150490207Y-68653941D01*
X150500000Y-68655492D01*
X150509793Y-68653941D01*
X150615513Y-68637197D01*
X150615515Y-68637196D01*
X150625304Y-68635646D01*
X150738342Y-68578050D01*
X150828050Y-68488342D01*
X150885646Y-68375304D01*
X150887302Y-68364852D01*
X150903941Y-68259793D01*
X150905492Y-68250000D01*
X150885646Y-68124696D01*
X150828050Y-68011658D01*
X150738342Y-67921950D01*
X150625304Y-67864354D01*
X150615515Y-67862804D01*
X150615513Y-67862803D01*
X150509793Y-67846059D01*
X150500000Y-67844508D01*
X150490207Y-67846059D01*
X150384487Y-67862803D01*
X150384485Y-67862804D01*
X150374696Y-67864354D01*
X150261658Y-67921950D01*
X150171950Y-68011658D01*
X150114354Y-68124696D01*
X150094508Y-68250000D01*
X144139616Y-68250000D01*
X142269511Y-66379895D01*
X142253841Y-66360803D01*
X142252254Y-66358428D01*
X142245363Y-66348115D01*
X142222362Y-66332746D01*
X142222360Y-66332744D01*
X142185922Y-66308397D01*
X142185921Y-66308397D01*
X142154234Y-66287224D01*
X142142065Y-66284803D01*
X142142064Y-66284803D01*
X142073872Y-66271239D01*
X142058911Y-66268263D01*
X142058910Y-66268263D01*
X142046739Y-66265842D01*
X142034568Y-66268263D01*
X142031778Y-66268818D01*
X142007196Y-66271239D01*
X140994057Y-66271239D01*
X140925936Y-66251237D01*
X140904962Y-66234334D01*
X140889317Y-66218689D01*
X140776279Y-66161093D01*
X140766490Y-66159543D01*
X140766488Y-66159542D01*
X140660768Y-66142798D01*
X140650975Y-66141247D01*
X140641182Y-66142798D01*
X140535462Y-66159542D01*
X140535460Y-66159543D01*
X140525671Y-66161093D01*
X140412633Y-66218689D01*
X140322925Y-66308397D01*
X140265329Y-66421435D01*
X140245483Y-66546739D01*
X115380886Y-66546739D01*
X115428540Y-66460515D01*
X115433145Y-66452841D01*
X115518564Y-66321308D01*
X115521475Y-66317021D01*
X115556070Y-66268263D01*
X115610976Y-66190881D01*
X115615797Y-66184525D01*
X115714632Y-66062473D01*
X115718595Y-66057815D01*
X115773845Y-65995991D01*
X115821547Y-65942612D01*
X115826403Y-65937477D01*
X115937478Y-65826402D01*
X115942613Y-65821546D01*
X116008510Y-65762657D01*
X116057822Y-65718589D01*
X116062481Y-65714626D01*
X116184525Y-65615797D01*
X116190881Y-65610976D01*
X116317021Y-65521475D01*
X116321308Y-65518564D01*
X116452841Y-65433145D01*
X116460517Y-65428539D01*
X116596248Y-65353523D01*
X116599951Y-65351557D01*
X116739349Y-65280530D01*
X116748315Y-65276397D01*
X116892304Y-65216755D01*
X116895353Y-65215539D01*
X117040650Y-65159764D01*
X117050920Y-65156321D01*
X117202167Y-65112747D01*
X117204438Y-65112115D01*
X117353279Y-65072234D01*
X117364783Y-65069721D01*
X117435824Y-65057650D01*
X117523850Y-65042694D01*
X117524939Y-65042515D01*
X117673579Y-65018973D01*
X117686210Y-65017622D01*
X117866451Y-65007499D01*
X117960529Y-65002569D01*
X117996707Y-65000673D01*
X118003301Y-65000500D01*
X129986321Y-65000500D01*
X130000000Y-65001745D01*
X130000000Y-65004792D01*
X130068993Y-65000270D01*
X130077235Y-65000000D01*
X131486577Y-65000000D01*
X131554698Y-65020002D01*
X131601191Y-65073658D01*
X131611026Y-65145710D01*
X131594508Y-65250000D01*
X131596059Y-65259793D01*
X131599345Y-65280537D01*
X131614354Y-65375304D01*
X131671950Y-65488342D01*
X131761658Y-65578050D01*
X131874696Y-65635646D01*
X131884485Y-65637196D01*
X131884487Y-65637197D01*
X131990207Y-65653941D01*
X132000000Y-65655492D01*
X132009793Y-65653941D01*
X132115513Y-65637197D01*
X132115515Y-65637196D01*
X132125304Y-65635646D01*
X132238342Y-65578050D01*
X132328050Y-65488342D01*
X132385646Y-65375304D01*
X132400656Y-65280537D01*
X132403941Y-65259793D01*
X132405492Y-65250000D01*
X133594508Y-65250000D01*
X133596059Y-65259793D01*
X133599345Y-65280537D01*
X133614354Y-65375304D01*
X133671950Y-65488342D01*
X133761658Y-65578050D01*
X133874696Y-65635646D01*
X133884485Y-65637196D01*
X133884487Y-65637197D01*
X133990207Y-65653941D01*
X134000000Y-65655492D01*
X134009793Y-65653941D01*
X134115513Y-65637197D01*
X134115515Y-65637196D01*
X134125304Y-65635646D01*
X134238342Y-65578050D01*
X134328050Y-65488342D01*
X134385646Y-65375304D01*
X134400656Y-65280537D01*
X134403941Y-65259793D01*
X134405492Y-65250000D01*
X134391775Y-65163395D01*
X134387197Y-65134487D01*
X134387196Y-65134485D01*
X134385646Y-65124696D01*
X134328050Y-65011658D01*
X134238342Y-64921950D01*
X134125304Y-64864354D01*
X134115515Y-64862804D01*
X134115513Y-64862803D01*
X134009793Y-64846059D01*
X134000000Y-64844508D01*
X133990207Y-64846059D01*
X133884487Y-64862803D01*
X133884485Y-64862804D01*
X133874696Y-64864354D01*
X133761658Y-64921950D01*
X133671950Y-65011658D01*
X133614354Y-65124696D01*
X133612804Y-65134485D01*
X133612803Y-65134487D01*
X133608225Y-65163395D01*
X133594508Y-65250000D01*
X132405492Y-65250000D01*
X132391775Y-65163395D01*
X132387197Y-65134487D01*
X132387196Y-65134485D01*
X132385646Y-65124696D01*
X132328050Y-65011658D01*
X132238342Y-64921950D01*
X132125304Y-64864354D01*
X132115511Y-64862803D01*
X132115508Y-64862802D01*
X132106287Y-64861341D01*
X132042135Y-64830928D01*
X132004609Y-64770659D01*
X132000000Y-64736893D01*
X132000000Y-64500000D01*
X135844508Y-64500000D01*
X135864354Y-64625304D01*
X135921950Y-64738342D01*
X136011658Y-64828050D01*
X136124696Y-64885646D01*
X136134485Y-64887196D01*
X136134487Y-64887197D01*
X136240207Y-64903941D01*
X136250000Y-64905492D01*
X136259793Y-64903941D01*
X136365513Y-64887197D01*
X136365515Y-64887196D01*
X136375304Y-64885646D01*
X136488342Y-64828050D01*
X136578050Y-64738342D01*
X136635646Y-64625304D01*
X136655492Y-64500000D01*
X138344508Y-64500000D01*
X138364354Y-64625304D01*
X138421950Y-64738342D01*
X138511658Y-64828050D01*
X138624696Y-64885646D01*
X138634485Y-64887196D01*
X138634487Y-64887197D01*
X138740207Y-64903941D01*
X138750000Y-64905492D01*
X138759793Y-64903941D01*
X138865513Y-64887197D01*
X138865515Y-64887196D01*
X138875304Y-64885646D01*
X138988342Y-64828050D01*
X139078050Y-64738342D01*
X139135646Y-64625304D01*
X139155492Y-64500000D01*
X139135646Y-64374696D01*
X139078050Y-64261658D01*
X138988342Y-64171950D01*
X138875304Y-64114354D01*
X138865515Y-64112804D01*
X138865513Y-64112803D01*
X138759793Y-64096059D01*
X138750000Y-64094508D01*
X138740207Y-64096059D01*
X138634487Y-64112803D01*
X138634485Y-64112804D01*
X138624696Y-64114354D01*
X138511658Y-64171950D01*
X138421950Y-64261658D01*
X138364354Y-64374696D01*
X138344508Y-64500000D01*
X136655492Y-64500000D01*
X136635646Y-64374696D01*
X136578050Y-64261658D01*
X136488342Y-64171950D01*
X136375304Y-64114354D01*
X136365515Y-64112804D01*
X136365513Y-64112803D01*
X136259793Y-64096059D01*
X136250000Y-64094508D01*
X136240207Y-64096059D01*
X136134487Y-64112803D01*
X136134485Y-64112804D01*
X136124696Y-64114354D01*
X136011658Y-64171950D01*
X135921950Y-64261658D01*
X135864354Y-64374696D01*
X135844508Y-64500000D01*
X132000000Y-64500000D01*
X132000000Y-63909500D01*
X139594508Y-63909500D01*
X139614354Y-64034804D01*
X139671950Y-64147842D01*
X139761658Y-64237550D01*
X139874696Y-64295146D01*
X139884485Y-64296696D01*
X139884487Y-64296697D01*
X139990207Y-64313441D01*
X140000000Y-64314992D01*
X140009793Y-64313441D01*
X140115513Y-64296697D01*
X140115515Y-64296696D01*
X140125304Y-64295146D01*
X140238342Y-64237550D01*
X140328050Y-64147842D01*
X140385646Y-64034804D01*
X140405492Y-63909500D01*
X140385646Y-63784196D01*
X140328050Y-63671158D01*
X140238342Y-63581450D01*
X140125304Y-63523854D01*
X140115515Y-63522304D01*
X140115513Y-63522303D01*
X140009793Y-63505559D01*
X140000000Y-63504008D01*
X139990207Y-63505559D01*
X139884487Y-63522303D01*
X139884485Y-63522304D01*
X139874696Y-63523854D01*
X139761658Y-63581450D01*
X139671950Y-63671158D01*
X139614354Y-63784196D01*
X139594508Y-63909500D01*
X132000000Y-63909500D01*
X132000000Y-63077235D01*
X132000270Y-63068994D01*
X132003607Y-63018079D01*
X132004792Y-63000000D01*
X132001576Y-63000000D01*
X132000500Y-62990268D01*
X132000500Y-61745996D01*
X132504500Y-61745996D01*
X132519181Y-61867313D01*
X132576973Y-62020255D01*
X132669579Y-62154997D01*
X132675249Y-62160048D01*
X132675250Y-62160050D01*
X132730615Y-62209378D01*
X132791652Y-62263760D01*
X132798361Y-62267312D01*
X132798362Y-62267313D01*
X132929434Y-62336712D01*
X132929436Y-62336713D01*
X132936145Y-62340265D01*
X132945143Y-62342525D01*
X132957998Y-62345754D01*
X133019194Y-62381748D01*
X133051215Y-62445114D01*
X133043895Y-62515732D01*
X133039571Y-62525158D01*
X132988854Y-62624696D01*
X132969008Y-62750000D01*
X132970559Y-62759793D01*
X132979093Y-62813672D01*
X132988854Y-62875304D01*
X133046450Y-62988342D01*
X133136158Y-63078050D01*
X133249196Y-63135646D01*
X133258985Y-63137196D01*
X133258987Y-63137197D01*
X133364707Y-63153941D01*
X133374500Y-63155492D01*
X133384293Y-63153941D01*
X133490013Y-63137197D01*
X133490015Y-63137196D01*
X133499804Y-63135646D01*
X133612842Y-63078050D01*
X133702550Y-62988342D01*
X133760146Y-62875304D01*
X133769908Y-62813672D01*
X133778441Y-62759793D01*
X133779992Y-62750000D01*
X133760146Y-62624696D01*
X133702550Y-62511658D01*
X133612842Y-62421950D01*
X133612456Y-62421753D01*
X133572317Y-62369700D01*
X133566243Y-62298964D01*
X133599376Y-62236173D01*
X133606894Y-62229048D01*
X133685681Y-62160317D01*
X133779693Y-62026552D01*
X133839083Y-61874224D01*
X133855500Y-61749527D01*
X133855500Y-60745196D01*
X134134055Y-60745196D01*
X134171484Y-60876158D01*
X134244165Y-60991350D01*
X134346255Y-61081513D01*
X134354378Y-61085327D01*
X134354380Y-61085328D01*
X134413607Y-61113135D01*
X134469548Y-61139399D01*
X134478412Y-61140779D01*
X134478415Y-61140780D01*
X134541897Y-61150664D01*
X134572956Y-61155500D01*
X134644145Y-61155500D01*
X134683589Y-61149851D01*
X134735943Y-61142354D01*
X134735946Y-61142353D01*
X134744829Y-61141081D01*
X134868820Y-61084706D01*
X134972004Y-60995796D01*
X135046087Y-60881501D01*
X135085113Y-60751006D01*
X135085945Y-60614804D01*
X135059383Y-60521864D01*
X135050983Y-60492473D01*
X135050982Y-60492471D01*
X135048516Y-60483842D01*
X134975835Y-60368650D01*
X134943107Y-60339745D01*
X134880473Y-60284429D01*
X134873745Y-60278487D01*
X134865622Y-60274673D01*
X134865620Y-60274672D01*
X134792211Y-60240207D01*
X134750452Y-60220601D01*
X134741588Y-60219221D01*
X134741585Y-60219220D01*
X134678103Y-60209336D01*
X134647044Y-60204500D01*
X134575855Y-60204500D01*
X134536411Y-60210149D01*
X134484057Y-60217646D01*
X134484054Y-60217647D01*
X134475171Y-60218919D01*
X134351180Y-60275294D01*
X134247996Y-60364204D01*
X134243112Y-60371739D01*
X134182177Y-60465750D01*
X134173913Y-60478499D01*
X134171342Y-60487096D01*
X134171341Y-60487098D01*
X134167415Y-60500227D01*
X134134887Y-60608994D01*
X134134832Y-60617970D01*
X134134832Y-60617971D01*
X134134736Y-60633699D01*
X134134055Y-60745196D01*
X133855500Y-60745196D01*
X133855500Y-60614004D01*
X133840819Y-60492687D01*
X133783027Y-60339745D01*
X133742759Y-60281155D01*
X133694723Y-60211262D01*
X133694722Y-60211261D01*
X133690421Y-60205003D01*
X133568348Y-60096240D01*
X133561638Y-60092687D01*
X133430566Y-60023288D01*
X133430564Y-60023287D01*
X133423855Y-60019735D01*
X133363787Y-60004647D01*
X133272655Y-59981756D01*
X133272651Y-59981756D01*
X133265284Y-59979905D01*
X133257685Y-59979865D01*
X133257683Y-59979865D01*
X133189653Y-59979509D01*
X133101790Y-59979049D01*
X133094410Y-59980821D01*
X133094408Y-59980821D01*
X132950189Y-60015444D01*
X132950185Y-60015445D01*
X132942810Y-60017216D01*
X132797524Y-60092204D01*
X132791802Y-60097196D01*
X132791800Y-60097197D01*
X132680044Y-60194688D01*
X132680041Y-60194691D01*
X132674319Y-60199683D01*
X132580307Y-60333448D01*
X132520917Y-60485776D01*
X132504500Y-60610473D01*
X132504500Y-61745996D01*
X132000500Y-61745996D01*
X132000500Y-57540925D01*
X132529500Y-57540925D01*
X132544929Y-57663058D01*
X132605432Y-57815871D01*
X132702037Y-57948837D01*
X132828674Y-58053600D01*
X132977387Y-58123579D01*
X132985170Y-58125064D01*
X132985174Y-58125065D01*
X133131044Y-58152891D01*
X133131046Y-58152891D01*
X133138830Y-58154376D01*
X133220845Y-58149216D01*
X133294949Y-58144554D01*
X133294951Y-58144554D01*
X133302860Y-58144056D01*
X133310396Y-58141607D01*
X133310398Y-58141607D01*
X133365882Y-58123579D01*
X133459171Y-58093268D01*
X133597940Y-58005202D01*
X133710448Y-57885393D01*
X133752720Y-57808502D01*
X133785807Y-57748316D01*
X133789627Y-57741368D01*
X133809734Y-57663058D01*
X133828529Y-57589855D01*
X133828529Y-57589852D01*
X133830500Y-57582177D01*
X133830500Y-57540925D01*
X141169500Y-57540925D01*
X141184929Y-57663058D01*
X141245432Y-57815871D01*
X141342037Y-57948837D01*
X141468674Y-58053600D01*
X141617387Y-58123579D01*
X141625170Y-58125064D01*
X141625174Y-58125065D01*
X141771044Y-58152891D01*
X141771046Y-58152891D01*
X141778830Y-58154376D01*
X141860845Y-58149216D01*
X141934949Y-58144554D01*
X141934951Y-58144554D01*
X141942860Y-58144056D01*
X141950396Y-58141607D01*
X141950398Y-58141607D01*
X142005882Y-58123579D01*
X142099171Y-58093268D01*
X142237940Y-58005202D01*
X142350448Y-57885393D01*
X142392720Y-57808502D01*
X142425807Y-57748316D01*
X142429627Y-57741368D01*
X142449734Y-57663058D01*
X142468529Y-57589855D01*
X142468529Y-57589852D01*
X142470500Y-57582177D01*
X142470500Y-56459075D01*
X142455071Y-56336942D01*
X142394568Y-56184129D01*
X142297963Y-56051163D01*
X142171326Y-55946400D01*
X142022613Y-55876421D01*
X142014830Y-55874936D01*
X142014826Y-55874935D01*
X141868956Y-55847109D01*
X141868954Y-55847109D01*
X141861170Y-55845624D01*
X141779155Y-55850784D01*
X141705051Y-55855446D01*
X141705049Y-55855446D01*
X141697140Y-55855944D01*
X141689604Y-55858393D01*
X141689602Y-55858393D01*
X141647637Y-55872028D01*
X141540829Y-55906732D01*
X141402060Y-55994798D01*
X141289552Y-56114607D01*
X141285735Y-56121551D01*
X141285733Y-56121553D01*
X141244506Y-56196545D01*
X141210373Y-56258632D01*
X141208403Y-56266304D01*
X141208402Y-56266307D01*
X141188247Y-56344807D01*
X141169500Y-56417823D01*
X141169500Y-57540925D01*
X133830500Y-57540925D01*
X133830500Y-56459075D01*
X133815071Y-56336942D01*
X133754568Y-56184129D01*
X133657963Y-56051163D01*
X133531326Y-55946400D01*
X133382613Y-55876421D01*
X133374830Y-55874936D01*
X133374826Y-55874935D01*
X133228956Y-55847109D01*
X133228954Y-55847109D01*
X133221170Y-55845624D01*
X133139155Y-55850784D01*
X133065051Y-55855446D01*
X133065049Y-55855446D01*
X133057140Y-55855944D01*
X133049604Y-55858393D01*
X133049602Y-55858393D01*
X133007637Y-55872028D01*
X132900829Y-55906732D01*
X132762060Y-55994798D01*
X132649552Y-56114607D01*
X132645735Y-56121551D01*
X132645733Y-56121553D01*
X132604506Y-56196545D01*
X132570373Y-56258632D01*
X132568403Y-56266304D01*
X132568402Y-56266307D01*
X132548247Y-56344807D01*
X132529500Y-56417823D01*
X132529500Y-57540925D01*
X132000500Y-57540925D01*
X132000500Y-55626500D01*
X132020502Y-55558379D01*
X132074158Y-55511886D01*
X132126500Y-55500500D01*
X142873500Y-55500500D01*
X142941621Y-55520502D01*
G37*
%TD.AperFunction*%
%TD*%
M02*
