%TF.GenerationSoftware,KiCad,Pcbnew,6.0.9+dfsg-1*%
%TF.CreationDate,2023-01-18T23:30:58-08:00*%
%TF.ProjectId,redshift,72656473-6869-4667-942e-6b696361645f,0.2*%
%TF.SameCoordinates,Original*%
%TF.FileFunction,Legend,Top*%
%TF.FilePolarity,Positive*%
%FSLAX46Y46*%
G04 Gerber Fmt 4.6, Leading zero omitted, Abs format (unit mm)*
G04 Created by KiCad (PCBNEW 6.0.9+dfsg-1) date 2023-01-18 23:30:58*
%MOMM*%
%LPD*%
G01*
G04 APERTURE LIST*
%ADD10C,0.150000*%
%ADD11C,0.187500*%
%ADD12C,0.125000*%
%ADD13C,0.120000*%
%ADD14C,0.200000*%
%ADD15C,0.100000*%
%ADD16C,0.127000*%
G04 APERTURE END LIST*
D10*
X157750000Y-98000000D02*
X158250000Y-98000000D01*
D11*
X155078125Y-110767857D02*
X155042410Y-110803571D01*
X154935267Y-110839285D01*
X154863839Y-110839285D01*
X154756696Y-110803571D01*
X154685267Y-110732142D01*
X154649553Y-110660714D01*
X154613839Y-110517857D01*
X154613839Y-110410714D01*
X154649553Y-110267857D01*
X154685267Y-110196428D01*
X154756696Y-110125000D01*
X154863839Y-110089285D01*
X154935267Y-110089285D01*
X155042410Y-110125000D01*
X155078125Y-110160714D01*
X155756696Y-110839285D02*
X155399553Y-110839285D01*
X155399553Y-110089285D01*
X156006696Y-110839285D02*
X156006696Y-110089285D01*
X156435267Y-110839285D02*
X156113839Y-110410714D01*
X156435267Y-110089285D02*
X156006696Y-110517857D01*
X154813839Y-106789285D02*
X154813839Y-106039285D01*
X154992410Y-106039285D01*
X155099553Y-106075000D01*
X155170982Y-106146428D01*
X155206696Y-106217857D01*
X155242410Y-106360714D01*
X155242410Y-106467857D01*
X155206696Y-106610714D01*
X155170982Y-106682142D01*
X155099553Y-106753571D01*
X154992410Y-106789285D01*
X154813839Y-106789285D01*
X155563839Y-106789285D02*
X155563839Y-106039285D01*
X156063839Y-106039285D02*
X156206696Y-106039285D01*
X156278125Y-106075000D01*
X156349553Y-106146428D01*
X156385267Y-106289285D01*
X156385267Y-106539285D01*
X156349553Y-106682142D01*
X156278125Y-106753571D01*
X156206696Y-106789285D01*
X156063839Y-106789285D01*
X155992410Y-106753571D01*
X155920982Y-106682142D01*
X155885267Y-106539285D01*
X155885267Y-106289285D01*
X155920982Y-106146428D01*
X155992410Y-106075000D01*
X156063839Y-106039285D01*
X154813839Y-102139285D02*
X155063839Y-102889285D01*
X155313839Y-102139285D01*
X155563839Y-102889285D02*
X155563839Y-102139285D01*
X155920982Y-102889285D02*
X155920982Y-102139285D01*
X156349553Y-102889285D01*
X156349553Y-102139285D01*
X154863839Y-100075000D02*
X154792410Y-100039285D01*
X154685267Y-100039285D01*
X154578125Y-100075000D01*
X154506696Y-100146428D01*
X154470982Y-100217857D01*
X154435267Y-100360714D01*
X154435267Y-100467857D01*
X154470982Y-100610714D01*
X154506696Y-100682142D01*
X154578125Y-100753571D01*
X154685267Y-100789285D01*
X154756696Y-100789285D01*
X154863839Y-100753571D01*
X154899553Y-100717857D01*
X154899553Y-100467857D01*
X154756696Y-100467857D01*
X155220982Y-100789285D02*
X155220982Y-100039285D01*
X155649553Y-100789285D01*
X155649553Y-100039285D01*
X156006696Y-100789285D02*
X156006696Y-100039285D01*
X156185267Y-100039285D01*
X156292410Y-100075000D01*
X156363839Y-100146428D01*
X156399553Y-100217857D01*
X156435267Y-100360714D01*
X156435267Y-100467857D01*
X156399553Y-100610714D01*
X156363839Y-100682142D01*
X156292410Y-100753571D01*
X156185267Y-100789285D01*
X156006696Y-100789285D01*
X154363839Y-108803571D02*
X154470982Y-108839285D01*
X154649553Y-108839285D01*
X154720982Y-108803571D01*
X154756696Y-108767857D01*
X154792410Y-108696428D01*
X154792410Y-108625000D01*
X154756696Y-108553571D01*
X154720982Y-108517857D01*
X154649553Y-108482142D01*
X154506696Y-108446428D01*
X154435267Y-108410714D01*
X154399553Y-108375000D01*
X154363839Y-108303571D01*
X154363839Y-108232142D01*
X154399553Y-108160714D01*
X154435267Y-108125000D01*
X154506696Y-108089285D01*
X154685267Y-108089285D01*
X154792410Y-108125000D01*
X155042410Y-108089285D02*
X155220982Y-108839285D01*
X155363839Y-108303571D01*
X155506696Y-108839285D01*
X155685267Y-108089285D01*
X156113839Y-108089285D02*
X156256696Y-108089285D01*
X156328125Y-108125000D01*
X156399553Y-108196428D01*
X156435267Y-108339285D01*
X156435267Y-108589285D01*
X156399553Y-108732142D01*
X156328125Y-108803571D01*
X156256696Y-108839285D01*
X156113839Y-108839285D01*
X156042410Y-108803571D01*
X155970982Y-108732142D01*
X155935267Y-108589285D01*
X155935267Y-108339285D01*
X155970982Y-108196428D01*
X156042410Y-108125000D01*
X156113839Y-108089285D01*
X155099553Y-104839285D02*
X154849553Y-104482142D01*
X154670982Y-104839285D02*
X154670982Y-104089285D01*
X154956696Y-104089285D01*
X155028125Y-104125000D01*
X155063839Y-104160714D01*
X155099553Y-104232142D01*
X155099553Y-104339285D01*
X155063839Y-104410714D01*
X155028125Y-104446428D01*
X154956696Y-104482142D01*
X154670982Y-104482142D01*
X155385267Y-104803571D02*
X155492410Y-104839285D01*
X155670982Y-104839285D01*
X155742410Y-104803571D01*
X155778125Y-104767857D01*
X155813839Y-104696428D01*
X155813839Y-104625000D01*
X155778125Y-104553571D01*
X155742410Y-104517857D01*
X155670982Y-104482142D01*
X155528125Y-104446428D01*
X155456696Y-104410714D01*
X155420982Y-104375000D01*
X155385267Y-104303571D01*
X155385267Y-104232142D01*
X155420982Y-104160714D01*
X155456696Y-104125000D01*
X155528125Y-104089285D01*
X155706696Y-104089285D01*
X155813839Y-104125000D01*
X156028125Y-104089285D02*
X156456696Y-104089285D01*
X156242410Y-104839285D02*
X156242410Y-104089285D01*
D10*
%TO.C,C25*%
X144657142Y-113157142D02*
X144609523Y-113204761D01*
X144466666Y-113252380D01*
X144371428Y-113252380D01*
X144228571Y-113204761D01*
X144133333Y-113109523D01*
X144085714Y-113014285D01*
X144038095Y-112823809D01*
X144038095Y-112680952D01*
X144085714Y-112490476D01*
X144133333Y-112395238D01*
X144228571Y-112300000D01*
X144371428Y-112252380D01*
X144466666Y-112252380D01*
X144609523Y-112300000D01*
X144657142Y-112347619D01*
X145038095Y-112347619D02*
X145085714Y-112300000D01*
X145180952Y-112252380D01*
X145419047Y-112252380D01*
X145514285Y-112300000D01*
X145561904Y-112347619D01*
X145609523Y-112442857D01*
X145609523Y-112538095D01*
X145561904Y-112680952D01*
X144990476Y-113252380D01*
X145609523Y-113252380D01*
X146514285Y-112252380D02*
X146038095Y-112252380D01*
X145990476Y-112728571D01*
X146038095Y-112680952D01*
X146133333Y-112633333D01*
X146371428Y-112633333D01*
X146466666Y-112680952D01*
X146514285Y-112728571D01*
X146561904Y-112823809D01*
X146561904Y-113061904D01*
X146514285Y-113157142D01*
X146466666Y-113204761D01*
X146371428Y-113252380D01*
X146133333Y-113252380D01*
X146038095Y-113204761D01*
X145990476Y-113157142D01*
%TO.C,R6*%
X140777380Y-97041666D02*
X140301190Y-97375000D01*
X140777380Y-97613095D02*
X139777380Y-97613095D01*
X139777380Y-97232142D01*
X139825000Y-97136904D01*
X139872619Y-97089285D01*
X139967857Y-97041666D01*
X140110714Y-97041666D01*
X140205952Y-97089285D01*
X140253571Y-97136904D01*
X140301190Y-97232142D01*
X140301190Y-97613095D01*
X139777380Y-96184523D02*
X139777380Y-96375000D01*
X139825000Y-96470238D01*
X139872619Y-96517857D01*
X140015476Y-96613095D01*
X140205952Y-96660714D01*
X140586904Y-96660714D01*
X140682142Y-96613095D01*
X140729761Y-96565476D01*
X140777380Y-96470238D01*
X140777380Y-96279761D01*
X140729761Y-96184523D01*
X140682142Y-96136904D01*
X140586904Y-96089285D01*
X140348809Y-96089285D01*
X140253571Y-96136904D01*
X140205952Y-96184523D01*
X140158333Y-96279761D01*
X140158333Y-96470238D01*
X140205952Y-96565476D01*
X140253571Y-96613095D01*
X140348809Y-96660714D01*
%TO.C,C24*%
X116982142Y-94617857D02*
X117029761Y-94665476D01*
X117077380Y-94808333D01*
X117077380Y-94903571D01*
X117029761Y-95046428D01*
X116934523Y-95141666D01*
X116839285Y-95189285D01*
X116648809Y-95236904D01*
X116505952Y-95236904D01*
X116315476Y-95189285D01*
X116220238Y-95141666D01*
X116125000Y-95046428D01*
X116077380Y-94903571D01*
X116077380Y-94808333D01*
X116125000Y-94665476D01*
X116172619Y-94617857D01*
X116172619Y-94236904D02*
X116125000Y-94189285D01*
X116077380Y-94094047D01*
X116077380Y-93855952D01*
X116125000Y-93760714D01*
X116172619Y-93713095D01*
X116267857Y-93665476D01*
X116363095Y-93665476D01*
X116505952Y-93713095D01*
X117077380Y-94284523D01*
X117077380Y-93665476D01*
X116410714Y-92808333D02*
X117077380Y-92808333D01*
X116029761Y-93046428D02*
X116744047Y-93284523D01*
X116744047Y-92665476D01*
%TO.C,C11*%
X143482142Y-89657142D02*
X143434523Y-89704761D01*
X143291666Y-89752380D01*
X143196428Y-89752380D01*
X143053571Y-89704761D01*
X142958333Y-89609523D01*
X142910714Y-89514285D01*
X142863095Y-89323809D01*
X142863095Y-89180952D01*
X142910714Y-88990476D01*
X142958333Y-88895238D01*
X143053571Y-88800000D01*
X143196428Y-88752380D01*
X143291666Y-88752380D01*
X143434523Y-88800000D01*
X143482142Y-88847619D01*
X144434523Y-89752380D02*
X143863095Y-89752380D01*
X144148809Y-89752380D02*
X144148809Y-88752380D01*
X144053571Y-88895238D01*
X143958333Y-88990476D01*
X143863095Y-89038095D01*
X145386904Y-89752380D02*
X144815476Y-89752380D01*
X145101190Y-89752380D02*
X145101190Y-88752380D01*
X145005952Y-88895238D01*
X144910714Y-88990476D01*
X144815476Y-89038095D01*
%TO.C,R5*%
X143277380Y-97041666D02*
X142801190Y-97375000D01*
X143277380Y-97613095D02*
X142277380Y-97613095D01*
X142277380Y-97232142D01*
X142325000Y-97136904D01*
X142372619Y-97089285D01*
X142467857Y-97041666D01*
X142610714Y-97041666D01*
X142705952Y-97089285D01*
X142753571Y-97136904D01*
X142801190Y-97232142D01*
X142801190Y-97613095D01*
X142277380Y-96136904D02*
X142277380Y-96613095D01*
X142753571Y-96660714D01*
X142705952Y-96613095D01*
X142658333Y-96517857D01*
X142658333Y-96279761D01*
X142705952Y-96184523D01*
X142753571Y-96136904D01*
X142848809Y-96089285D01*
X143086904Y-96089285D01*
X143182142Y-96136904D01*
X143229761Y-96184523D01*
X143277380Y-96279761D01*
X143277380Y-96517857D01*
X143229761Y-96613095D01*
X143182142Y-96660714D01*
%TO.C,C13*%
X141282142Y-90192857D02*
X141329761Y-90240476D01*
X141377380Y-90383333D01*
X141377380Y-90478571D01*
X141329761Y-90621428D01*
X141234523Y-90716666D01*
X141139285Y-90764285D01*
X140948809Y-90811904D01*
X140805952Y-90811904D01*
X140615476Y-90764285D01*
X140520238Y-90716666D01*
X140425000Y-90621428D01*
X140377380Y-90478571D01*
X140377380Y-90383333D01*
X140425000Y-90240476D01*
X140472619Y-90192857D01*
X141377380Y-89240476D02*
X141377380Y-89811904D01*
X141377380Y-89526190D02*
X140377380Y-89526190D01*
X140520238Y-89621428D01*
X140615476Y-89716666D01*
X140663095Y-89811904D01*
X140377380Y-88907142D02*
X140377380Y-88288095D01*
X140758333Y-88621428D01*
X140758333Y-88478571D01*
X140805952Y-88383333D01*
X140853571Y-88335714D01*
X140948809Y-88288095D01*
X141186904Y-88288095D01*
X141282142Y-88335714D01*
X141329761Y-88383333D01*
X141377380Y-88478571D01*
X141377380Y-88764285D01*
X141329761Y-88859523D01*
X141282142Y-88907142D01*
%TO.C,C10*%
X148357142Y-66297142D02*
X148309523Y-66344761D01*
X148166666Y-66392380D01*
X148071428Y-66392380D01*
X147928571Y-66344761D01*
X147833333Y-66249523D01*
X147785714Y-66154285D01*
X147738095Y-65963809D01*
X147738095Y-65820952D01*
X147785714Y-65630476D01*
X147833333Y-65535238D01*
X147928571Y-65440000D01*
X148071428Y-65392380D01*
X148166666Y-65392380D01*
X148309523Y-65440000D01*
X148357142Y-65487619D01*
X149309523Y-66392380D02*
X148738095Y-66392380D01*
X149023809Y-66392380D02*
X149023809Y-65392380D01*
X148928571Y-65535238D01*
X148833333Y-65630476D01*
X148738095Y-65678095D01*
X149928571Y-65392380D02*
X150023809Y-65392380D01*
X150119047Y-65440000D01*
X150166666Y-65487619D01*
X150214285Y-65582857D01*
X150261904Y-65773333D01*
X150261904Y-66011428D01*
X150214285Y-66201904D01*
X150166666Y-66297142D01*
X150119047Y-66344761D01*
X150023809Y-66392380D01*
X149928571Y-66392380D01*
X149833333Y-66344761D01*
X149785714Y-66297142D01*
X149738095Y-66201904D01*
X149690476Y-66011428D01*
X149690476Y-65773333D01*
X149738095Y-65582857D01*
X149785714Y-65487619D01*
X149833333Y-65440000D01*
X149928571Y-65392380D01*
%TO.C,ENC1*%
X123848571Y-79714285D02*
X123848571Y-79380952D01*
X124372380Y-79238095D02*
X124372380Y-79714285D01*
X123372380Y-79714285D01*
X123372380Y-79238095D01*
X124372380Y-78809523D02*
X123372380Y-78809523D01*
X124372380Y-78238095D01*
X123372380Y-78238095D01*
X124277142Y-77190476D02*
X124324761Y-77238095D01*
X124372380Y-77380952D01*
X124372380Y-77476190D01*
X124324761Y-77619047D01*
X124229523Y-77714285D01*
X124134285Y-77761904D01*
X123943809Y-77809523D01*
X123800952Y-77809523D01*
X123610476Y-77761904D01*
X123515238Y-77714285D01*
X123420000Y-77619047D01*
X123372380Y-77476190D01*
X123372380Y-77380952D01*
X123420000Y-77238095D01*
X123467619Y-77190476D01*
X124372380Y-76238095D02*
X124372380Y-76809523D01*
X124372380Y-76523809D02*
X123372380Y-76523809D01*
X123515238Y-76619047D01*
X123610476Y-76714285D01*
X123658095Y-76809523D01*
%TO.C,C14*%
X138757142Y-91857142D02*
X138709523Y-91904761D01*
X138566666Y-91952380D01*
X138471428Y-91952380D01*
X138328571Y-91904761D01*
X138233333Y-91809523D01*
X138185714Y-91714285D01*
X138138095Y-91523809D01*
X138138095Y-91380952D01*
X138185714Y-91190476D01*
X138233333Y-91095238D01*
X138328571Y-91000000D01*
X138471428Y-90952380D01*
X138566666Y-90952380D01*
X138709523Y-91000000D01*
X138757142Y-91047619D01*
X139709523Y-91952380D02*
X139138095Y-91952380D01*
X139423809Y-91952380D02*
X139423809Y-90952380D01*
X139328571Y-91095238D01*
X139233333Y-91190476D01*
X139138095Y-91238095D01*
X140566666Y-91285714D02*
X140566666Y-91952380D01*
X140328571Y-90904761D02*
X140090476Y-91619047D01*
X140709523Y-91619047D01*
%TO.C,C20*%
X144657142Y-114457142D02*
X144609523Y-114504761D01*
X144466666Y-114552380D01*
X144371428Y-114552380D01*
X144228571Y-114504761D01*
X144133333Y-114409523D01*
X144085714Y-114314285D01*
X144038095Y-114123809D01*
X144038095Y-113980952D01*
X144085714Y-113790476D01*
X144133333Y-113695238D01*
X144228571Y-113600000D01*
X144371428Y-113552380D01*
X144466666Y-113552380D01*
X144609523Y-113600000D01*
X144657142Y-113647619D01*
X145038095Y-113647619D02*
X145085714Y-113600000D01*
X145180952Y-113552380D01*
X145419047Y-113552380D01*
X145514285Y-113600000D01*
X145561904Y-113647619D01*
X145609523Y-113742857D01*
X145609523Y-113838095D01*
X145561904Y-113980952D01*
X144990476Y-114552380D01*
X145609523Y-114552380D01*
X146228571Y-113552380D02*
X146323809Y-113552380D01*
X146419047Y-113600000D01*
X146466666Y-113647619D01*
X146514285Y-113742857D01*
X146561904Y-113933333D01*
X146561904Y-114171428D01*
X146514285Y-114361904D01*
X146466666Y-114457142D01*
X146419047Y-114504761D01*
X146323809Y-114552380D01*
X146228571Y-114552380D01*
X146133333Y-114504761D01*
X146085714Y-114457142D01*
X146038095Y-114361904D01*
X145990476Y-114171428D01*
X145990476Y-113933333D01*
X146038095Y-113742857D01*
X146085714Y-113647619D01*
X146133333Y-113600000D01*
X146228571Y-113552380D01*
%TO.C,L1*%
X132058333Y-89877380D02*
X131582142Y-89877380D01*
X131582142Y-88877380D01*
X132915476Y-89877380D02*
X132344047Y-89877380D01*
X132629761Y-89877380D02*
X132629761Y-88877380D01*
X132534523Y-89020238D01*
X132439285Y-89115476D01*
X132344047Y-89163095D01*
%TO.C,D4*%
X140777380Y-95613095D02*
X139777380Y-95613095D01*
X139777380Y-95375000D01*
X139825000Y-95232142D01*
X139920238Y-95136904D01*
X140015476Y-95089285D01*
X140205952Y-95041666D01*
X140348809Y-95041666D01*
X140539285Y-95089285D01*
X140634523Y-95136904D01*
X140729761Y-95232142D01*
X140777380Y-95375000D01*
X140777380Y-95613095D01*
X140110714Y-94184523D02*
X140777380Y-94184523D01*
X139729761Y-94422619D02*
X140444047Y-94660714D01*
X140444047Y-94041666D01*
%TO.C,C2*%
X148733333Y-103157142D02*
X148685714Y-103204761D01*
X148542857Y-103252380D01*
X148447619Y-103252380D01*
X148304761Y-103204761D01*
X148209523Y-103109523D01*
X148161904Y-103014285D01*
X148114285Y-102823809D01*
X148114285Y-102680952D01*
X148161904Y-102490476D01*
X148209523Y-102395238D01*
X148304761Y-102300000D01*
X148447619Y-102252380D01*
X148542857Y-102252380D01*
X148685714Y-102300000D01*
X148733333Y-102347619D01*
X149114285Y-102347619D02*
X149161904Y-102300000D01*
X149257142Y-102252380D01*
X149495238Y-102252380D01*
X149590476Y-102300000D01*
X149638095Y-102347619D01*
X149685714Y-102442857D01*
X149685714Y-102538095D01*
X149638095Y-102680952D01*
X149066666Y-103252380D01*
X149685714Y-103252380D01*
%TO.C,U3*%
X149838095Y-103277380D02*
X149838095Y-104086904D01*
X149885714Y-104182142D01*
X149933333Y-104229761D01*
X150028571Y-104277380D01*
X150219047Y-104277380D01*
X150314285Y-104229761D01*
X150361904Y-104182142D01*
X150409523Y-104086904D01*
X150409523Y-103277380D01*
X150790476Y-103277380D02*
X151409523Y-103277380D01*
X151076190Y-103658333D01*
X151219047Y-103658333D01*
X151314285Y-103705952D01*
X151361904Y-103753571D01*
X151409523Y-103848809D01*
X151409523Y-104086904D01*
X151361904Y-104182142D01*
X151314285Y-104229761D01*
X151219047Y-104277380D01*
X150933333Y-104277380D01*
X150838095Y-104229761D01*
X150790476Y-104182142D01*
%TO.C,C4*%
X124807142Y-85341666D02*
X124854761Y-85389285D01*
X124902380Y-85532142D01*
X124902380Y-85627380D01*
X124854761Y-85770238D01*
X124759523Y-85865476D01*
X124664285Y-85913095D01*
X124473809Y-85960714D01*
X124330952Y-85960714D01*
X124140476Y-85913095D01*
X124045238Y-85865476D01*
X123950000Y-85770238D01*
X123902380Y-85627380D01*
X123902380Y-85532142D01*
X123950000Y-85389285D01*
X123997619Y-85341666D01*
X124235714Y-84484523D02*
X124902380Y-84484523D01*
X123854761Y-84722619D02*
X124569047Y-84960714D01*
X124569047Y-84341666D01*
%TO.C,C15*%
X134257142Y-93557142D02*
X134209523Y-93604761D01*
X134066666Y-93652380D01*
X133971428Y-93652380D01*
X133828571Y-93604761D01*
X133733333Y-93509523D01*
X133685714Y-93414285D01*
X133638095Y-93223809D01*
X133638095Y-93080952D01*
X133685714Y-92890476D01*
X133733333Y-92795238D01*
X133828571Y-92700000D01*
X133971428Y-92652380D01*
X134066666Y-92652380D01*
X134209523Y-92700000D01*
X134257142Y-92747619D01*
X135209523Y-93652380D02*
X134638095Y-93652380D01*
X134923809Y-93652380D02*
X134923809Y-92652380D01*
X134828571Y-92795238D01*
X134733333Y-92890476D01*
X134638095Y-92938095D01*
X136114285Y-92652380D02*
X135638095Y-92652380D01*
X135590476Y-93128571D01*
X135638095Y-93080952D01*
X135733333Y-93033333D01*
X135971428Y-93033333D01*
X136066666Y-93080952D01*
X136114285Y-93128571D01*
X136161904Y-93223809D01*
X136161904Y-93461904D01*
X136114285Y-93557142D01*
X136066666Y-93604761D01*
X135971428Y-93652380D01*
X135733333Y-93652380D01*
X135638095Y-93604761D01*
X135590476Y-93557142D01*
%TO.C,R4*%
X142027380Y-97041666D02*
X141551190Y-97375000D01*
X142027380Y-97613095D02*
X141027380Y-97613095D01*
X141027380Y-97232142D01*
X141075000Y-97136904D01*
X141122619Y-97089285D01*
X141217857Y-97041666D01*
X141360714Y-97041666D01*
X141455952Y-97089285D01*
X141503571Y-97136904D01*
X141551190Y-97232142D01*
X141551190Y-97613095D01*
X141360714Y-96184523D02*
X142027380Y-96184523D01*
X140979761Y-96422619D02*
X141694047Y-96660714D01*
X141694047Y-96041666D01*
%TO.C,Y1*%
X135551190Y-97626190D02*
X136027380Y-97626190D01*
X135027380Y-97959523D02*
X135551190Y-97626190D01*
X135027380Y-97292857D01*
X136027380Y-96435714D02*
X136027380Y-97007142D01*
X136027380Y-96721428D02*
X135027380Y-96721428D01*
X135170238Y-96816666D01*
X135265476Y-96911904D01*
X135313095Y-97007142D01*
%TO.C,U2*%
X143038095Y-68752380D02*
X143038095Y-69561904D01*
X143085714Y-69657142D01*
X143133333Y-69704761D01*
X143228571Y-69752380D01*
X143419047Y-69752380D01*
X143514285Y-69704761D01*
X143561904Y-69657142D01*
X143609523Y-69561904D01*
X143609523Y-68752380D01*
X144038095Y-68847619D02*
X144085714Y-68800000D01*
X144180952Y-68752380D01*
X144419047Y-68752380D01*
X144514285Y-68800000D01*
X144561904Y-68847619D01*
X144609523Y-68942857D01*
X144609523Y-69038095D01*
X144561904Y-69180952D01*
X143990476Y-69752380D01*
X144609523Y-69752380D01*
%TO.C,U4*%
X116602380Y-98836904D02*
X117411904Y-98836904D01*
X117507142Y-98789285D01*
X117554761Y-98741666D01*
X117602380Y-98646428D01*
X117602380Y-98455952D01*
X117554761Y-98360714D01*
X117507142Y-98313095D01*
X117411904Y-98265476D01*
X116602380Y-98265476D01*
X116935714Y-97360714D02*
X117602380Y-97360714D01*
X116554761Y-97598809D02*
X117269047Y-97836904D01*
X117269047Y-97217857D01*
%TO.C,C23*%
X132932142Y-99182142D02*
X132884523Y-99229761D01*
X132741666Y-99277380D01*
X132646428Y-99277380D01*
X132503571Y-99229761D01*
X132408333Y-99134523D01*
X132360714Y-99039285D01*
X132313095Y-98848809D01*
X132313095Y-98705952D01*
X132360714Y-98515476D01*
X132408333Y-98420238D01*
X132503571Y-98325000D01*
X132646428Y-98277380D01*
X132741666Y-98277380D01*
X132884523Y-98325000D01*
X132932142Y-98372619D01*
X133313095Y-98372619D02*
X133360714Y-98325000D01*
X133455952Y-98277380D01*
X133694047Y-98277380D01*
X133789285Y-98325000D01*
X133836904Y-98372619D01*
X133884523Y-98467857D01*
X133884523Y-98563095D01*
X133836904Y-98705952D01*
X133265476Y-99277380D01*
X133884523Y-99277380D01*
X134217857Y-98277380D02*
X134836904Y-98277380D01*
X134503571Y-98658333D01*
X134646428Y-98658333D01*
X134741666Y-98705952D01*
X134789285Y-98753571D01*
X134836904Y-98848809D01*
X134836904Y-99086904D01*
X134789285Y-99182142D01*
X134741666Y-99229761D01*
X134646428Y-99277380D01*
X134360714Y-99277380D01*
X134265476Y-99229761D01*
X134217857Y-99182142D01*
%TO.C,C6*%
X123757142Y-102966666D02*
X123804761Y-103014285D01*
X123852380Y-103157142D01*
X123852380Y-103252380D01*
X123804761Y-103395238D01*
X123709523Y-103490476D01*
X123614285Y-103538095D01*
X123423809Y-103585714D01*
X123280952Y-103585714D01*
X123090476Y-103538095D01*
X122995238Y-103490476D01*
X122900000Y-103395238D01*
X122852380Y-103252380D01*
X122852380Y-103157142D01*
X122900000Y-103014285D01*
X122947619Y-102966666D01*
X122852380Y-102109523D02*
X122852380Y-102300000D01*
X122900000Y-102395238D01*
X122947619Y-102442857D01*
X123090476Y-102538095D01*
X123280952Y-102585714D01*
X123661904Y-102585714D01*
X123757142Y-102538095D01*
X123804761Y-102490476D01*
X123852380Y-102395238D01*
X123852380Y-102204761D01*
X123804761Y-102109523D01*
X123757142Y-102061904D01*
X123661904Y-102014285D01*
X123423809Y-102014285D01*
X123328571Y-102061904D01*
X123280952Y-102109523D01*
X123233333Y-102204761D01*
X123233333Y-102395238D01*
X123280952Y-102490476D01*
X123328571Y-102538095D01*
X123423809Y-102585714D01*
%TO.C,C12*%
X142532142Y-90192857D02*
X142579761Y-90240476D01*
X142627380Y-90383333D01*
X142627380Y-90478571D01*
X142579761Y-90621428D01*
X142484523Y-90716666D01*
X142389285Y-90764285D01*
X142198809Y-90811904D01*
X142055952Y-90811904D01*
X141865476Y-90764285D01*
X141770238Y-90716666D01*
X141675000Y-90621428D01*
X141627380Y-90478571D01*
X141627380Y-90383333D01*
X141675000Y-90240476D01*
X141722619Y-90192857D01*
X142627380Y-89240476D02*
X142627380Y-89811904D01*
X142627380Y-89526190D02*
X141627380Y-89526190D01*
X141770238Y-89621428D01*
X141865476Y-89716666D01*
X141913095Y-89811904D01*
X141722619Y-88859523D02*
X141675000Y-88811904D01*
X141627380Y-88716666D01*
X141627380Y-88478571D01*
X141675000Y-88383333D01*
X141722619Y-88335714D01*
X141817857Y-88288095D01*
X141913095Y-88288095D01*
X142055952Y-88335714D01*
X142627380Y-88907142D01*
X142627380Y-88288095D01*
%TO.C,R7*%
X129583333Y-110582380D02*
X129250000Y-110106190D01*
X129011904Y-110582380D02*
X129011904Y-109582380D01*
X129392857Y-109582380D01*
X129488095Y-109630000D01*
X129535714Y-109677619D01*
X129583333Y-109772857D01*
X129583333Y-109915714D01*
X129535714Y-110010952D01*
X129488095Y-110058571D01*
X129392857Y-110106190D01*
X129011904Y-110106190D01*
X129916666Y-109582380D02*
X130583333Y-109582380D01*
X130154761Y-110582380D01*
%TO.C,D3*%
X143277380Y-95613095D02*
X142277380Y-95613095D01*
X142277380Y-95375000D01*
X142325000Y-95232142D01*
X142420238Y-95136904D01*
X142515476Y-95089285D01*
X142705952Y-95041666D01*
X142848809Y-95041666D01*
X143039285Y-95089285D01*
X143134523Y-95136904D01*
X143229761Y-95232142D01*
X143277380Y-95375000D01*
X143277380Y-95613095D01*
X142277380Y-94708333D02*
X142277380Y-94089285D01*
X142658333Y-94422619D01*
X142658333Y-94279761D01*
X142705952Y-94184523D01*
X142753571Y-94136904D01*
X142848809Y-94089285D01*
X143086904Y-94089285D01*
X143182142Y-94136904D01*
X143229761Y-94184523D01*
X143277380Y-94279761D01*
X143277380Y-94565476D01*
X143229761Y-94660714D01*
X143182142Y-94708333D01*
%TO.C,SW4*%
X150823809Y-98202380D02*
X150823809Y-97202380D01*
X151252380Y-98154761D02*
X151395238Y-98202380D01*
X151633333Y-98202380D01*
X151728571Y-98154761D01*
X151776190Y-98107142D01*
X151823809Y-98011904D01*
X151823809Y-97916666D01*
X151776190Y-97821428D01*
X151728571Y-97773809D01*
X151633333Y-97726190D01*
X151442857Y-97678571D01*
X151347619Y-97630952D01*
X151300000Y-97583333D01*
X151252380Y-97488095D01*
X151252380Y-97392857D01*
X151300000Y-97297619D01*
X151347619Y-97250000D01*
X151442857Y-97202380D01*
X151680952Y-97202380D01*
X151823809Y-97250000D01*
X152252380Y-98202380D02*
X152252380Y-97202380D01*
X152633333Y-97202380D01*
X152728571Y-97250000D01*
X152776190Y-97297619D01*
X152823809Y-97392857D01*
X152823809Y-97535714D01*
X152776190Y-97630952D01*
X152728571Y-97678571D01*
X152633333Y-97726190D01*
X152252380Y-97726190D01*
%TO.C,C22*%
X150457142Y-105407142D02*
X150409523Y-105454761D01*
X150266666Y-105502380D01*
X150171428Y-105502380D01*
X150028571Y-105454761D01*
X149933333Y-105359523D01*
X149885714Y-105264285D01*
X149838095Y-105073809D01*
X149838095Y-104930952D01*
X149885714Y-104740476D01*
X149933333Y-104645238D01*
X150028571Y-104550000D01*
X150171428Y-104502380D01*
X150266666Y-104502380D01*
X150409523Y-104550000D01*
X150457142Y-104597619D01*
X150838095Y-104597619D02*
X150885714Y-104550000D01*
X150980952Y-104502380D01*
X151219047Y-104502380D01*
X151314285Y-104550000D01*
X151361904Y-104597619D01*
X151409523Y-104692857D01*
X151409523Y-104788095D01*
X151361904Y-104930952D01*
X150790476Y-105502380D01*
X151409523Y-105502380D01*
X151790476Y-104597619D02*
X151838095Y-104550000D01*
X151933333Y-104502380D01*
X152171428Y-104502380D01*
X152266666Y-104550000D01*
X152314285Y-104597619D01*
X152361904Y-104692857D01*
X152361904Y-104788095D01*
X152314285Y-104930952D01*
X151742857Y-105502380D01*
X152361904Y-105502380D01*
%TO.C,D2*%
X142027380Y-95613095D02*
X141027380Y-95613095D01*
X141027380Y-95375000D01*
X141075000Y-95232142D01*
X141170238Y-95136904D01*
X141265476Y-95089285D01*
X141455952Y-95041666D01*
X141598809Y-95041666D01*
X141789285Y-95089285D01*
X141884523Y-95136904D01*
X141979761Y-95232142D01*
X142027380Y-95375000D01*
X142027380Y-95613095D01*
X141122619Y-94660714D02*
X141075000Y-94613095D01*
X141027380Y-94517857D01*
X141027380Y-94279761D01*
X141075000Y-94184523D01*
X141122619Y-94136904D01*
X141217857Y-94089285D01*
X141313095Y-94089285D01*
X141455952Y-94136904D01*
X142027380Y-94708333D01*
X142027380Y-94089285D01*
%TO.C,D7*%
X159452380Y-94738095D02*
X158452380Y-94738095D01*
X158452380Y-94500000D01*
X158500000Y-94357142D01*
X158595238Y-94261904D01*
X158690476Y-94214285D01*
X158880952Y-94166666D01*
X159023809Y-94166666D01*
X159214285Y-94214285D01*
X159309523Y-94261904D01*
X159404761Y-94357142D01*
X159452380Y-94500000D01*
X159452380Y-94738095D01*
X158452380Y-93833333D02*
X158452380Y-93166666D01*
X159452380Y-93595238D01*
X157202380Y-98071428D02*
X156202380Y-98071428D01*
X156202380Y-97833333D01*
X156250000Y-97690476D01*
X156345238Y-97595238D01*
X156440476Y-97547619D01*
X156630952Y-97500000D01*
X156773809Y-97500000D01*
X156964285Y-97547619D01*
X157059523Y-97595238D01*
X157154761Y-97690476D01*
X157202380Y-97833333D01*
X157202380Y-98071428D01*
X156678571Y-96738095D02*
X156726190Y-96595238D01*
X156773809Y-96547619D01*
X156869047Y-96500000D01*
X157011904Y-96500000D01*
X157107142Y-96547619D01*
X157154761Y-96595238D01*
X157202380Y-96690476D01*
X157202380Y-97071428D01*
X156202380Y-97071428D01*
X156202380Y-96738095D01*
X156250000Y-96642857D01*
X156297619Y-96595238D01*
X156392857Y-96547619D01*
X156488095Y-96547619D01*
X156583333Y-96595238D01*
X156630952Y-96642857D01*
X156678571Y-96738095D01*
X156678571Y-97071428D01*
X156250000Y-95547619D02*
X156202380Y-95642857D01*
X156202380Y-95785714D01*
X156250000Y-95928571D01*
X156345238Y-96023809D01*
X156440476Y-96071428D01*
X156630952Y-96119047D01*
X156773809Y-96119047D01*
X156964285Y-96071428D01*
X157059523Y-96023809D01*
X157154761Y-95928571D01*
X157202380Y-95785714D01*
X157202380Y-95690476D01*
X157154761Y-95547619D01*
X157107142Y-95500000D01*
X156773809Y-95500000D01*
X156773809Y-95690476D01*
X156202380Y-94452380D02*
X157202380Y-94119047D01*
X156202380Y-93785714D01*
X156678571Y-93119047D02*
X156726190Y-92976190D01*
X156773809Y-92928571D01*
X156869047Y-92880952D01*
X157011904Y-92880952D01*
X157107142Y-92928571D01*
X157154761Y-92976190D01*
X157202380Y-93071428D01*
X157202380Y-93452380D01*
X156202380Y-93452380D01*
X156202380Y-93119047D01*
X156250000Y-93023809D01*
X156297619Y-92976190D01*
X156392857Y-92928571D01*
X156488095Y-92928571D01*
X156583333Y-92976190D01*
X156630952Y-93023809D01*
X156678571Y-93119047D01*
X156678571Y-93452380D01*
X156202380Y-92452380D02*
X157011904Y-92452380D01*
X157107142Y-92404761D01*
X157154761Y-92357142D01*
X157202380Y-92261904D01*
X157202380Y-92071428D01*
X157154761Y-91976190D01*
X157107142Y-91928571D01*
X157011904Y-91880952D01*
X156202380Y-91880952D01*
X157154761Y-91452380D02*
X157202380Y-91309523D01*
X157202380Y-91071428D01*
X157154761Y-90976190D01*
X157107142Y-90928571D01*
X157011904Y-90880952D01*
X156916666Y-90880952D01*
X156821428Y-90928571D01*
X156773809Y-90976190D01*
X156726190Y-91071428D01*
X156678571Y-91261904D01*
X156630952Y-91357142D01*
X156583333Y-91404761D01*
X156488095Y-91452380D01*
X156392857Y-91452380D01*
X156297619Y-91404761D01*
X156250000Y-91357142D01*
X156202380Y-91261904D01*
X156202380Y-91023809D01*
X156250000Y-90880952D01*
%TO.C,SW3*%
X147666666Y-88404761D02*
X147809523Y-88452380D01*
X148047619Y-88452380D01*
X148142857Y-88404761D01*
X148190476Y-88357142D01*
X148238095Y-88261904D01*
X148238095Y-88166666D01*
X148190476Y-88071428D01*
X148142857Y-88023809D01*
X148047619Y-87976190D01*
X147857142Y-87928571D01*
X147761904Y-87880952D01*
X147714285Y-87833333D01*
X147666666Y-87738095D01*
X147666666Y-87642857D01*
X147714285Y-87547619D01*
X147761904Y-87500000D01*
X147857142Y-87452380D01*
X148095238Y-87452380D01*
X148238095Y-87500000D01*
X148571428Y-87452380D02*
X148809523Y-88452380D01*
X149000000Y-87738095D01*
X149190476Y-88452380D01*
X149428571Y-87452380D01*
X149714285Y-87452380D02*
X150333333Y-87452380D01*
X150000000Y-87833333D01*
X150142857Y-87833333D01*
X150238095Y-87880952D01*
X150285714Y-87928571D01*
X150333333Y-88023809D01*
X150333333Y-88261904D01*
X150285714Y-88357142D01*
X150238095Y-88404761D01*
X150142857Y-88452380D01*
X149857142Y-88452380D01*
X149761904Y-88404761D01*
X149714285Y-88357142D01*
%TO.C,C9*%
X132208333Y-93382142D02*
X132160714Y-93429761D01*
X132017857Y-93477380D01*
X131922619Y-93477380D01*
X131779761Y-93429761D01*
X131684523Y-93334523D01*
X131636904Y-93239285D01*
X131589285Y-93048809D01*
X131589285Y-92905952D01*
X131636904Y-92715476D01*
X131684523Y-92620238D01*
X131779761Y-92525000D01*
X131922619Y-92477380D01*
X132017857Y-92477380D01*
X132160714Y-92525000D01*
X132208333Y-92572619D01*
X132684523Y-93477380D02*
X132875000Y-93477380D01*
X132970238Y-93429761D01*
X133017857Y-93382142D01*
X133113095Y-93239285D01*
X133160714Y-93048809D01*
X133160714Y-92667857D01*
X133113095Y-92572619D01*
X133065476Y-92525000D01*
X132970238Y-92477380D01*
X132779761Y-92477380D01*
X132684523Y-92525000D01*
X132636904Y-92572619D01*
X132589285Y-92667857D01*
X132589285Y-92905952D01*
X132636904Y-93001190D01*
X132684523Y-93048809D01*
X132779761Y-93096428D01*
X132970238Y-93096428D01*
X133065476Y-93048809D01*
X133113095Y-93001190D01*
X133160714Y-92905952D01*
%TO.C,C3*%
X128707142Y-102916666D02*
X128754761Y-102964285D01*
X128802380Y-103107142D01*
X128802380Y-103202380D01*
X128754761Y-103345238D01*
X128659523Y-103440476D01*
X128564285Y-103488095D01*
X128373809Y-103535714D01*
X128230952Y-103535714D01*
X128040476Y-103488095D01*
X127945238Y-103440476D01*
X127850000Y-103345238D01*
X127802380Y-103202380D01*
X127802380Y-103107142D01*
X127850000Y-102964285D01*
X127897619Y-102916666D01*
X127802380Y-102583333D02*
X127802380Y-101964285D01*
X128183333Y-102297619D01*
X128183333Y-102154761D01*
X128230952Y-102059523D01*
X128278571Y-102011904D01*
X128373809Y-101964285D01*
X128611904Y-101964285D01*
X128707142Y-102011904D01*
X128754761Y-102059523D01*
X128802380Y-102154761D01*
X128802380Y-102440476D01*
X128754761Y-102535714D01*
X128707142Y-102583333D01*
%TO.C,D6*%
X148511904Y-69822380D02*
X148511904Y-68822380D01*
X148750000Y-68822380D01*
X148892857Y-68870000D01*
X148988095Y-68965238D01*
X149035714Y-69060476D01*
X149083333Y-69250952D01*
X149083333Y-69393809D01*
X149035714Y-69584285D01*
X148988095Y-69679523D01*
X148892857Y-69774761D01*
X148750000Y-69822380D01*
X148511904Y-69822380D01*
X149940476Y-68822380D02*
X149750000Y-68822380D01*
X149654761Y-68870000D01*
X149607142Y-68917619D01*
X149511904Y-69060476D01*
X149464285Y-69250952D01*
X149464285Y-69631904D01*
X149511904Y-69727142D01*
X149559523Y-69774761D01*
X149654761Y-69822380D01*
X149845238Y-69822380D01*
X149940476Y-69774761D01*
X149988095Y-69727142D01*
X150035714Y-69631904D01*
X150035714Y-69393809D01*
X149988095Y-69298571D01*
X149940476Y-69250952D01*
X149845238Y-69203333D01*
X149654761Y-69203333D01*
X149559523Y-69250952D01*
X149511904Y-69298571D01*
X149464285Y-69393809D01*
D12*
%TO.C,C17*%
X144457142Y-100857142D02*
X144409523Y-100904761D01*
X144266666Y-100952380D01*
X144171428Y-100952380D01*
X144028571Y-100904761D01*
X143933333Y-100809523D01*
X143885714Y-100714285D01*
X143838095Y-100523809D01*
X143838095Y-100380952D01*
X143885714Y-100190476D01*
X143933333Y-100095238D01*
X144028571Y-100000000D01*
X144171428Y-99952380D01*
X144266666Y-99952380D01*
X144409523Y-100000000D01*
X144457142Y-100047619D01*
X145409523Y-100952380D02*
X144838095Y-100952380D01*
X145123809Y-100952380D02*
X145123809Y-99952380D01*
X145028571Y-100095238D01*
X144933333Y-100190476D01*
X144838095Y-100238095D01*
X145742857Y-99952380D02*
X146409523Y-99952380D01*
X145980952Y-100952380D01*
D10*
%TO.C,C7*%
X150058333Y-109057142D02*
X150010714Y-109104761D01*
X149867857Y-109152380D01*
X149772619Y-109152380D01*
X149629761Y-109104761D01*
X149534523Y-109009523D01*
X149486904Y-108914285D01*
X149439285Y-108723809D01*
X149439285Y-108580952D01*
X149486904Y-108390476D01*
X149534523Y-108295238D01*
X149629761Y-108200000D01*
X149772619Y-108152380D01*
X149867857Y-108152380D01*
X150010714Y-108200000D01*
X150058333Y-108247619D01*
X150391666Y-108152380D02*
X151058333Y-108152380D01*
X150629761Y-109152380D01*
D12*
%TO.C,C5*%
X125107142Y-102941666D02*
X125154761Y-102989285D01*
X125202380Y-103132142D01*
X125202380Y-103227380D01*
X125154761Y-103370238D01*
X125059523Y-103465476D01*
X124964285Y-103513095D01*
X124773809Y-103560714D01*
X124630952Y-103560714D01*
X124440476Y-103513095D01*
X124345238Y-103465476D01*
X124250000Y-103370238D01*
X124202380Y-103227380D01*
X124202380Y-103132142D01*
X124250000Y-102989285D01*
X124297619Y-102941666D01*
X124202380Y-102036904D02*
X124202380Y-102513095D01*
X124678571Y-102560714D01*
X124630952Y-102513095D01*
X124583333Y-102417857D01*
X124583333Y-102179761D01*
X124630952Y-102084523D01*
X124678571Y-102036904D01*
X124773809Y-101989285D01*
X125011904Y-101989285D01*
X125107142Y-102036904D01*
X125154761Y-102084523D01*
X125202380Y-102179761D01*
X125202380Y-102417857D01*
X125154761Y-102513095D01*
X125107142Y-102560714D01*
D10*
%TO.C,C16*%
X126457142Y-103867857D02*
X126504761Y-103915476D01*
X126552380Y-104058333D01*
X126552380Y-104153571D01*
X126504761Y-104296428D01*
X126409523Y-104391666D01*
X126314285Y-104439285D01*
X126123809Y-104486904D01*
X125980952Y-104486904D01*
X125790476Y-104439285D01*
X125695238Y-104391666D01*
X125600000Y-104296428D01*
X125552380Y-104153571D01*
X125552380Y-104058333D01*
X125600000Y-103915476D01*
X125647619Y-103867857D01*
X126552380Y-102915476D02*
X126552380Y-103486904D01*
X126552380Y-103201190D02*
X125552380Y-103201190D01*
X125695238Y-103296428D01*
X125790476Y-103391666D01*
X125838095Y-103486904D01*
X125552380Y-102058333D02*
X125552380Y-102248809D01*
X125600000Y-102344047D01*
X125647619Y-102391666D01*
X125790476Y-102486904D01*
X125980952Y-102534523D01*
X126361904Y-102534523D01*
X126457142Y-102486904D01*
X126504761Y-102439285D01*
X126552380Y-102344047D01*
X126552380Y-102153571D01*
X126504761Y-102058333D01*
X126457142Y-102010714D01*
X126361904Y-101963095D01*
X126123809Y-101963095D01*
X126028571Y-102010714D01*
X125980952Y-102058333D01*
X125933333Y-102153571D01*
X125933333Y-102344047D01*
X125980952Y-102439285D01*
X126028571Y-102486904D01*
X126123809Y-102534523D01*
%TO.C,R8*%
X129708333Y-104582380D02*
X129375000Y-104106190D01*
X129136904Y-104582380D02*
X129136904Y-103582380D01*
X129517857Y-103582380D01*
X129613095Y-103630000D01*
X129660714Y-103677619D01*
X129708333Y-103772857D01*
X129708333Y-103915714D01*
X129660714Y-104010952D01*
X129613095Y-104058571D01*
X129517857Y-104106190D01*
X129136904Y-104106190D01*
X130279761Y-104010952D02*
X130184523Y-103963333D01*
X130136904Y-103915714D01*
X130089285Y-103820476D01*
X130089285Y-103772857D01*
X130136904Y-103677619D01*
X130184523Y-103630000D01*
X130279761Y-103582380D01*
X130470238Y-103582380D01*
X130565476Y-103630000D01*
X130613095Y-103677619D01*
X130660714Y-103772857D01*
X130660714Y-103820476D01*
X130613095Y-103915714D01*
X130565476Y-103963333D01*
X130470238Y-104010952D01*
X130279761Y-104010952D01*
X130184523Y-104058571D01*
X130136904Y-104106190D01*
X130089285Y-104201428D01*
X130089285Y-104391904D01*
X130136904Y-104487142D01*
X130184523Y-104534761D01*
X130279761Y-104582380D01*
X130470238Y-104582380D01*
X130565476Y-104534761D01*
X130613095Y-104487142D01*
X130660714Y-104391904D01*
X130660714Y-104201428D01*
X130613095Y-104106190D01*
X130565476Y-104058571D01*
X130470238Y-104010952D01*
%TO.C,J2*%
X116252380Y-111533333D02*
X116966666Y-111533333D01*
X117109523Y-111580952D01*
X117204761Y-111676190D01*
X117252380Y-111819047D01*
X117252380Y-111914285D01*
X116347619Y-111104761D02*
X116300000Y-111057142D01*
X116252380Y-110961904D01*
X116252380Y-110723809D01*
X116300000Y-110628571D01*
X116347619Y-110580952D01*
X116442857Y-110533333D01*
X116538095Y-110533333D01*
X116680952Y-110580952D01*
X117252380Y-111152380D01*
X117252380Y-110533333D01*
%TO.C,J4*%
X154552380Y-113933333D02*
X155266666Y-113933333D01*
X155409523Y-113980952D01*
X155504761Y-114076190D01*
X155552380Y-114219047D01*
X155552380Y-114314285D01*
X154885714Y-113028571D02*
X155552380Y-113028571D01*
X154504761Y-113266666D02*
X155219047Y-113504761D01*
X155219047Y-112885714D01*
%TO.C,J3*%
X157416666Y-112202380D02*
X157416666Y-112916666D01*
X157369047Y-113059523D01*
X157273809Y-113154761D01*
X157130952Y-113202380D01*
X157035714Y-113202380D01*
X157797619Y-112202380D02*
X158416666Y-112202380D01*
X158083333Y-112583333D01*
X158226190Y-112583333D01*
X158321428Y-112630952D01*
X158369047Y-112678571D01*
X158416666Y-112773809D01*
X158416666Y-113011904D01*
X158369047Y-113107142D01*
X158321428Y-113154761D01*
X158226190Y-113202380D01*
X157940476Y-113202380D01*
X157845238Y-113154761D01*
X157797619Y-113107142D01*
%TO.C,C18*%
X144457142Y-102132142D02*
X144409523Y-102179761D01*
X144266666Y-102227380D01*
X144171428Y-102227380D01*
X144028571Y-102179761D01*
X143933333Y-102084523D01*
X143885714Y-101989285D01*
X143838095Y-101798809D01*
X143838095Y-101655952D01*
X143885714Y-101465476D01*
X143933333Y-101370238D01*
X144028571Y-101275000D01*
X144171428Y-101227380D01*
X144266666Y-101227380D01*
X144409523Y-101275000D01*
X144457142Y-101322619D01*
X145409523Y-102227380D02*
X144838095Y-102227380D01*
X145123809Y-102227380D02*
X145123809Y-101227380D01*
X145028571Y-101370238D01*
X144933333Y-101465476D01*
X144838095Y-101513095D01*
X145980952Y-101655952D02*
X145885714Y-101608333D01*
X145838095Y-101560714D01*
X145790476Y-101465476D01*
X145790476Y-101417857D01*
X145838095Y-101322619D01*
X145885714Y-101275000D01*
X145980952Y-101227380D01*
X146171428Y-101227380D01*
X146266666Y-101275000D01*
X146314285Y-101322619D01*
X146361904Y-101417857D01*
X146361904Y-101465476D01*
X146314285Y-101560714D01*
X146266666Y-101608333D01*
X146171428Y-101655952D01*
X145980952Y-101655952D01*
X145885714Y-101703571D01*
X145838095Y-101751190D01*
X145790476Y-101846428D01*
X145790476Y-102036904D01*
X145838095Y-102132142D01*
X145885714Y-102179761D01*
X145980952Y-102227380D01*
X146171428Y-102227380D01*
X146266666Y-102179761D01*
X146314285Y-102132142D01*
X146361904Y-102036904D01*
X146361904Y-101846428D01*
X146314285Y-101751190D01*
X146266666Y-101703571D01*
X146171428Y-101655952D01*
%TO.C,U1*%
X136738095Y-117247380D02*
X136738095Y-118056904D01*
X136785714Y-118152142D01*
X136833333Y-118199761D01*
X136928571Y-118247380D01*
X137119047Y-118247380D01*
X137214285Y-118199761D01*
X137261904Y-118152142D01*
X137309523Y-118056904D01*
X137309523Y-117247380D01*
X138309523Y-118247380D02*
X137738095Y-118247380D01*
X138023809Y-118247380D02*
X138023809Y-117247380D01*
X137928571Y-117390238D01*
X137833333Y-117485476D01*
X137738095Y-117533095D01*
%TO.C,C19*%
X150457142Y-107857142D02*
X150409523Y-107904761D01*
X150266666Y-107952380D01*
X150171428Y-107952380D01*
X150028571Y-107904761D01*
X149933333Y-107809523D01*
X149885714Y-107714285D01*
X149838095Y-107523809D01*
X149838095Y-107380952D01*
X149885714Y-107190476D01*
X149933333Y-107095238D01*
X150028571Y-107000000D01*
X150171428Y-106952380D01*
X150266666Y-106952380D01*
X150409523Y-107000000D01*
X150457142Y-107047619D01*
X151409523Y-107952380D02*
X150838095Y-107952380D01*
X151123809Y-107952380D02*
X151123809Y-106952380D01*
X151028571Y-107095238D01*
X150933333Y-107190476D01*
X150838095Y-107238095D01*
X151885714Y-107952380D02*
X152076190Y-107952380D01*
X152171428Y-107904761D01*
X152219047Y-107857142D01*
X152314285Y-107714285D01*
X152361904Y-107523809D01*
X152361904Y-107142857D01*
X152314285Y-107047619D01*
X152266666Y-107000000D01*
X152171428Y-106952380D01*
X151980952Y-106952380D01*
X151885714Y-107000000D01*
X151838095Y-107047619D01*
X151790476Y-107142857D01*
X151790476Y-107380952D01*
X151838095Y-107476190D01*
X151885714Y-107523809D01*
X151980952Y-107571428D01*
X152171428Y-107571428D01*
X152266666Y-107523809D01*
X152314285Y-107476190D01*
X152361904Y-107380952D01*
%TO.C,SW2*%
X154666666Y-86404761D02*
X154809523Y-86452380D01*
X155047619Y-86452380D01*
X155142857Y-86404761D01*
X155190476Y-86357142D01*
X155238095Y-86261904D01*
X155238095Y-86166666D01*
X155190476Y-86071428D01*
X155142857Y-86023809D01*
X155047619Y-85976190D01*
X154857142Y-85928571D01*
X154761904Y-85880952D01*
X154714285Y-85833333D01*
X154666666Y-85738095D01*
X154666666Y-85642857D01*
X154714285Y-85547619D01*
X154761904Y-85500000D01*
X154857142Y-85452380D01*
X155095238Y-85452380D01*
X155238095Y-85500000D01*
X155571428Y-85452380D02*
X155809523Y-86452380D01*
X156000000Y-85738095D01*
X156190476Y-86452380D01*
X156428571Y-85452380D01*
X156761904Y-85547619D02*
X156809523Y-85500000D01*
X156904761Y-85452380D01*
X157142857Y-85452380D01*
X157238095Y-85500000D01*
X157285714Y-85547619D01*
X157333333Y-85642857D01*
X157333333Y-85738095D01*
X157285714Y-85880952D01*
X156714285Y-86452380D01*
X157333333Y-86452380D01*
%TO.C,R13*%
X146103501Y-69902380D02*
X145770168Y-69426190D01*
X145532073Y-69902380D02*
X145532073Y-68902380D01*
X145913025Y-68902380D01*
X146008263Y-68950000D01*
X146055882Y-68997619D01*
X146103501Y-69092857D01*
X146103501Y-69235714D01*
X146055882Y-69330952D01*
X146008263Y-69378571D01*
X145913025Y-69426190D01*
X145532073Y-69426190D01*
X147055882Y-69902380D02*
X146484454Y-69902380D01*
X146770168Y-69902380D02*
X146770168Y-68902380D01*
X146674930Y-69045238D01*
X146579692Y-69140476D01*
X146484454Y-69188095D01*
X147389216Y-68902380D02*
X148008263Y-68902380D01*
X147674930Y-69283333D01*
X147817787Y-69283333D01*
X147913025Y-69330952D01*
X147960644Y-69378571D01*
X148008263Y-69473809D01*
X148008263Y-69711904D01*
X147960644Y-69807142D01*
X147913025Y-69854761D01*
X147817787Y-69902380D01*
X147532073Y-69902380D01*
X147436835Y-69854761D01*
X147389216Y-69807142D01*
%TO.C,C21*%
X150457142Y-106632142D02*
X150409523Y-106679761D01*
X150266666Y-106727380D01*
X150171428Y-106727380D01*
X150028571Y-106679761D01*
X149933333Y-106584523D01*
X149885714Y-106489285D01*
X149838095Y-106298809D01*
X149838095Y-106155952D01*
X149885714Y-105965476D01*
X149933333Y-105870238D01*
X150028571Y-105775000D01*
X150171428Y-105727380D01*
X150266666Y-105727380D01*
X150409523Y-105775000D01*
X150457142Y-105822619D01*
X150838095Y-105822619D02*
X150885714Y-105775000D01*
X150980952Y-105727380D01*
X151219047Y-105727380D01*
X151314285Y-105775000D01*
X151361904Y-105822619D01*
X151409523Y-105917857D01*
X151409523Y-106013095D01*
X151361904Y-106155952D01*
X150790476Y-106727380D01*
X151409523Y-106727380D01*
X152361904Y-106727380D02*
X151790476Y-106727380D01*
X152076190Y-106727380D02*
X152076190Y-105727380D01*
X151980952Y-105870238D01*
X151885714Y-105965476D01*
X151790476Y-106013095D01*
%TO.C,SW1*%
X115916666Y-85754761D02*
X116059523Y-85802380D01*
X116297619Y-85802380D01*
X116392857Y-85754761D01*
X116440476Y-85707142D01*
X116488095Y-85611904D01*
X116488095Y-85516666D01*
X116440476Y-85421428D01*
X116392857Y-85373809D01*
X116297619Y-85326190D01*
X116107142Y-85278571D01*
X116011904Y-85230952D01*
X115964285Y-85183333D01*
X115916666Y-85088095D01*
X115916666Y-84992857D01*
X115964285Y-84897619D01*
X116011904Y-84850000D01*
X116107142Y-84802380D01*
X116345238Y-84802380D01*
X116488095Y-84850000D01*
X116821428Y-84802380D02*
X117059523Y-85802380D01*
X117250000Y-85088095D01*
X117440476Y-85802380D01*
X117678571Y-84802380D01*
X118583333Y-85802380D02*
X118011904Y-85802380D01*
X118297619Y-85802380D02*
X118297619Y-84802380D01*
X118202380Y-84945238D01*
X118107142Y-85040476D01*
X118011904Y-85088095D01*
D13*
%TO.C,C25*%
X145259420Y-110490000D02*
X145540580Y-110490000D01*
X145259420Y-111510000D02*
X145540580Y-111510000D01*
%TO.C,R6*%
X137230000Y-97028641D02*
X137230000Y-96721359D01*
X136470000Y-97028641D02*
X136470000Y-96721359D01*
%TO.C,C24*%
X116732836Y-91390000D02*
X116517164Y-91390000D01*
X116732836Y-92110000D02*
X116517164Y-92110000D01*
%TO.C,C11*%
X138534420Y-88790000D02*
X138815580Y-88790000D01*
X138534420Y-89810000D02*
X138815580Y-89810000D01*
%TO.C,R5*%
X138570000Y-97028641D02*
X138570000Y-96721359D01*
X139330000Y-97028641D02*
X139330000Y-96721359D01*
%TO.C,C13*%
X135115000Y-89442164D02*
X135115000Y-89657836D01*
X135835000Y-89442164D02*
X135835000Y-89657836D01*
%TO.C,C10*%
X148892164Y-67460000D02*
X149107836Y-67460000D01*
X148892164Y-66740000D02*
X149107836Y-66740000D01*
%TO.C,C8*%
X140360000Y-66622164D02*
X140360000Y-66837836D01*
X139640000Y-66622164D02*
X139640000Y-66837836D01*
%TO.C,ENC1*%
X130070000Y-83020000D02*
X129070000Y-83020000D01*
X130070000Y-72980000D02*
X130070000Y-73980000D01*
X124680000Y-83020000D02*
X125480000Y-83020000D01*
X130070000Y-72980000D02*
X129070000Y-72980000D01*
X130070000Y-83020000D02*
X130070000Y-82020000D01*
X124680000Y-83020000D02*
X124680000Y-82020000D01*
X124680000Y-72980000D02*
X124680000Y-73980000D01*
X124680000Y-72980000D02*
X125480000Y-72980000D01*
%TO.C,C14*%
X136309420Y-92010000D02*
X136590580Y-92010000D01*
X136309420Y-90990000D02*
X136590580Y-90990000D01*
%TO.C,C20*%
X145259420Y-109910000D02*
X145540580Y-109910000D01*
X145259420Y-108890000D02*
X145540580Y-108890000D01*
D14*
%TO.C,J1*%
X142290000Y-59650000D02*
X142290000Y-58400000D01*
X132710000Y-54400000D02*
X132710000Y-55680000D01*
X142290000Y-55680000D02*
X142290000Y-54400000D01*
X132710000Y-59650000D02*
X132710000Y-58400000D01*
X142290000Y-54400000D02*
X132710000Y-54400000D01*
D13*
%TO.C,L1*%
X134485000Y-90050378D02*
X134485000Y-90849622D01*
X133365000Y-90050378D02*
X133365000Y-90849622D01*
D15*
%TO.C,D4*%
X136900000Y-93785000D02*
G75*
G03*
X136900000Y-93785000I-50000J0D01*
G01*
D13*
%TO.C,C2*%
X146992164Y-103160000D02*
X147207836Y-103160000D01*
X146992164Y-102440000D02*
X147207836Y-102440000D01*
%TO.C,U3*%
X146340000Y-106100000D02*
X146340000Y-105300000D01*
X149460000Y-106100000D02*
X149460000Y-104300000D01*
X146340000Y-106100000D02*
X146340000Y-106900000D01*
X149460000Y-106100000D02*
X149460000Y-106900000D01*
%TO.C,C4*%
X123610000Y-85282836D02*
X123610000Y-85067164D01*
X122890000Y-85282836D02*
X122890000Y-85067164D01*
%TO.C,C15*%
X133492164Y-93940000D02*
X133707836Y-93940000D01*
X133492164Y-94660000D02*
X133707836Y-94660000D01*
%TO.C,R4*%
X138280000Y-97028641D02*
X138280000Y-96721359D01*
X137520000Y-97028641D02*
X137520000Y-96721359D01*
%TO.C,Y1*%
X134875000Y-97175000D02*
X134875000Y-94975000D01*
X132275000Y-94975000D02*
X134875000Y-94975000D01*
%TO.C,C1*%
X133860000Y-64642164D02*
X133860000Y-64857836D01*
X133140000Y-64642164D02*
X133140000Y-64857836D01*
%TO.C,U2*%
X143800000Y-68460000D02*
X143000000Y-68460000D01*
X143800000Y-65340000D02*
X142000000Y-65340000D01*
X143800000Y-68460000D02*
X144600000Y-68460000D01*
X143800000Y-65340000D02*
X144600000Y-65340000D01*
D16*
%TO.C,U4*%
X129500000Y-88000000D02*
X128710000Y-88000000D01*
X119500000Y-98000000D02*
X119500000Y-97210000D01*
X129500000Y-88000000D02*
X129500000Y-88790000D01*
X129500000Y-98000000D02*
X128710000Y-98000000D01*
X129500000Y-98000000D02*
X129500000Y-97210000D01*
X119500000Y-88000000D02*
X120290000Y-88000000D01*
X119500000Y-98000000D02*
X120290000Y-98000000D01*
X119500000Y-88000000D02*
X119500000Y-88790000D01*
D14*
X120850000Y-100340000D02*
G75*
G03*
X120850000Y-100340000I-100000J0D01*
G01*
D13*
%TO.C,C23*%
X133467164Y-97390000D02*
X133682836Y-97390000D01*
X133467164Y-98110000D02*
X133682836Y-98110000D01*
%TO.C,C6*%
X124110000Y-100717164D02*
X124110000Y-100932836D01*
X123390000Y-100717164D02*
X123390000Y-100932836D01*
%TO.C,C12*%
X136115000Y-89442164D02*
X136115000Y-89657836D01*
X136835000Y-89442164D02*
X136835000Y-89657836D01*
%TO.C,R7*%
X129596359Y-111680000D02*
X129903641Y-111680000D01*
X129596359Y-110920000D02*
X129903641Y-110920000D01*
D15*
%TO.C,D3*%
X139000000Y-93785000D02*
G75*
G03*
X139000000Y-93785000I-50000J0D01*
G01*
D13*
%TO.C,SW4*%
X153450000Y-98950000D02*
X153450000Y-99250000D01*
X150150000Y-98950000D02*
X153450000Y-98950000D01*
X150150000Y-99250000D02*
X150150000Y-98950000D01*
X153450000Y-101750000D02*
X153450000Y-101450000D01*
X150150000Y-101450000D02*
X150150000Y-101750000D01*
X150150000Y-101750000D02*
X153450000Y-101750000D01*
%TO.C,C22*%
X144992164Y-105890000D02*
X145207836Y-105890000D01*
X144992164Y-106610000D02*
X145207836Y-106610000D01*
D15*
%TO.C,D2*%
X137950000Y-93785000D02*
G75*
G03*
X137950000Y-93785000I-50000J0D01*
G01*
%TO.C,D7*%
X159050000Y-95910000D02*
G75*
G03*
X159050000Y-95910000I-50000J0D01*
G01*
D13*
%TO.C,SW3*%
X152020000Y-86520000D02*
X151020000Y-86520000D01*
X145980000Y-86520000D02*
X145980000Y-85520000D01*
X152020000Y-73480000D02*
X152020000Y-74480000D01*
X152020000Y-86520000D02*
X152020000Y-85520000D01*
X145980000Y-73480000D02*
X146980000Y-73480000D01*
X152020000Y-73480000D02*
X151020000Y-73480000D01*
X145980000Y-86520000D02*
X146980000Y-86520000D01*
X148100000Y-77500000D02*
X149900000Y-77500000D01*
X148100000Y-78600000D02*
X149900000Y-78600000D01*
X145980000Y-73480000D02*
X145980000Y-74480000D01*
X149900000Y-78600000D02*
G75*
G03*
X149900000Y-77500000I0J550000D01*
G01*
X148100000Y-77500000D02*
G75*
G03*
X148100000Y-78600000I0J-550000D01*
G01*
%TO.C,C9*%
X132015000Y-91342164D02*
X132015000Y-91557836D01*
X132735000Y-91342164D02*
X132735000Y-91557836D01*
%TO.C,R1*%
X132880000Y-64596359D02*
X132880000Y-64903641D01*
X132120000Y-64596359D02*
X132120000Y-64903641D01*
%TO.C,C3*%
X128710000Y-100717164D02*
X128710000Y-100932836D01*
X127990000Y-100717164D02*
X127990000Y-100932836D01*
%TO.C,R2*%
X140380000Y-63903641D02*
X140380000Y-63596359D01*
X139620000Y-63903641D02*
X139620000Y-63596359D01*
D15*
%TO.C,D6*%
X150140000Y-68200000D02*
G75*
G03*
X150140000Y-68200000I-50000J0D01*
G01*
D13*
%TO.C,C17*%
X145207836Y-102590000D02*
X144992164Y-102590000D01*
X145207836Y-103310000D02*
X144992164Y-103310000D01*
%TO.C,C7*%
X147792164Y-109060000D02*
X148007836Y-109060000D01*
X147792164Y-108340000D02*
X148007836Y-108340000D01*
%TO.C,C5*%
X124390000Y-100717164D02*
X124390000Y-100932836D01*
X125110000Y-100717164D02*
X125110000Y-100932836D01*
%TO.C,C16*%
X126110000Y-100717164D02*
X126110000Y-100932836D01*
X125390000Y-100717164D02*
X125390000Y-100932836D01*
%TO.C,R8*%
X129721359Y-105680000D02*
X130028641Y-105680000D01*
X129721359Y-104920000D02*
X130028641Y-104920000D01*
%TO.C,J2*%
X118760000Y-109410000D02*
X119910000Y-109410000D01*
X118760000Y-102190000D02*
X119910000Y-102190000D01*
X119910000Y-102190000D02*
X119910000Y-103240000D01*
X119910000Y-109410000D02*
X119910000Y-108360000D01*
X119910000Y-108360000D02*
X120900000Y-108360000D01*
X116790000Y-108240000D02*
X116790000Y-103360000D01*
%TO.C,J4*%
X147515000Y-115265000D02*
X147515000Y-111735000D01*
X147515000Y-115265000D02*
X147580000Y-115265000D01*
X153920000Y-115265000D02*
X153985000Y-115265000D01*
X153920000Y-111735000D02*
X153985000Y-111735000D01*
X147515000Y-111735000D02*
X147580000Y-111735000D01*
X153985000Y-115265000D02*
X153985000Y-111735000D01*
X147580000Y-116590000D02*
X147580000Y-115265000D01*
%TO.C,J3*%
X156690000Y-111560000D02*
X158810000Y-111560000D01*
X156690000Y-101500000D02*
X156690000Y-111560000D01*
X156690000Y-100500000D02*
X156690000Y-99440000D01*
X156690000Y-101500000D02*
X158810000Y-101500000D01*
X158810000Y-101500000D02*
X158810000Y-111560000D01*
X156690000Y-99440000D02*
X157750000Y-99440000D01*
%TO.C,C18*%
X145207836Y-104360000D02*
X144992164Y-104360000D01*
X145207836Y-103640000D02*
X144992164Y-103640000D01*
%TO.C,D1*%
X137196148Y-63501400D02*
X137804540Y-63501400D01*
X136801843Y-65375961D02*
X136801843Y-64624039D01*
X138198843Y-64624040D02*
X138198843Y-64969560D01*
X137804540Y-66498600D02*
X137196148Y-66498600D01*
%TO.C,U1*%
X142150000Y-115235000D02*
X143550000Y-115235000D01*
%TO.C,C19*%
X144992164Y-108510000D02*
X145207836Y-108510000D01*
X144992164Y-107790000D02*
X145207836Y-107790000D01*
%TO.C,SW2*%
X152980000Y-71480000D02*
X153980000Y-71480000D01*
X152980000Y-71480000D02*
X152980000Y-72480000D01*
X152980000Y-84520000D02*
X153980000Y-84520000D01*
X159020000Y-71480000D02*
X159020000Y-72480000D01*
X159020000Y-84520000D02*
X158020000Y-84520000D01*
X155100000Y-75500000D02*
X156900000Y-75500000D01*
X159020000Y-71480000D02*
X158020000Y-71480000D01*
X159020000Y-84520000D02*
X159020000Y-83520000D01*
X155100000Y-76600000D02*
X156900000Y-76600000D01*
X152980000Y-84520000D02*
X152980000Y-83520000D01*
X156900000Y-76600000D02*
G75*
G03*
X156900000Y-75500000I0J550000D01*
G01*
X155100000Y-75500000D02*
G75*
G03*
X155100000Y-76600000I0J-550000D01*
G01*
%TO.C,R13*%
X146746359Y-67820000D02*
X147053641Y-67820000D01*
X146746359Y-68580000D02*
X147053641Y-68580000D01*
%TO.C,C21*%
X144992164Y-107560000D02*
X145207836Y-107560000D01*
X144992164Y-106840000D02*
X145207836Y-106840000D01*
%TO.C,SW1*%
X118100000Y-75500000D02*
X119900000Y-75500000D01*
X118100000Y-76600000D02*
X119900000Y-76600000D01*
X122020000Y-71480000D02*
X122020000Y-72480000D01*
X122020000Y-84520000D02*
X121020000Y-84520000D01*
X122020000Y-71480000D02*
X121020000Y-71480000D01*
X115980000Y-71480000D02*
X115980000Y-72480000D01*
X115980000Y-71480000D02*
X116980000Y-71480000D01*
X115980000Y-84520000D02*
X115980000Y-83520000D01*
X122020000Y-84520000D02*
X122020000Y-83520000D01*
X115980000Y-84520000D02*
X116980000Y-84520000D01*
X118100000Y-75500000D02*
G75*
G03*
X118100000Y-76600000I0J-550000D01*
G01*
X119900000Y-76600000D02*
G75*
G03*
X119900000Y-75500000I0J550000D01*
G01*
%TO.C,R3*%
X134880000Y-64903641D02*
X134880000Y-64596359D01*
X134120000Y-64903641D02*
X134120000Y-64596359D01*
%TD*%
M02*
