%TF.GenerationSoftware,KiCad,Pcbnew,6.0.9+dfsg-1*%
%TF.CreationDate,2023-01-18T23:30:58-08:00*%
%TF.ProjectId,redshift,72656473-6869-4667-942e-6b696361645f,0.2*%
%TF.SameCoordinates,Original*%
%TF.FileFunction,Paste,Top*%
%TF.FilePolarity,Positive*%
%FSLAX46Y46*%
G04 Gerber Fmt 4.6, Leading zero omitted, Abs format (unit mm)*
G04 Created by KiCad (PCBNEW 6.0.9+dfsg-1) date 2023-01-18 23:30:58*
%MOMM*%
%LPD*%
G01*
G04 APERTURE LIST*
G04 Aperture macros list*
%AMRoundRect*
0 Rectangle with rounded corners*
0 $1 Rounding radius*
0 $2 $3 $4 $5 $6 $7 $8 $9 X,Y pos of 4 corners*
0 Add a 4 corners polygon primitive as box body*
4,1,4,$2,$3,$4,$5,$6,$7,$8,$9,$2,$3,0*
0 Add four circle primitives for the rounded corners*
1,1,$1+$1,$2,$3*
1,1,$1+$1,$4,$5*
1,1,$1+$1,$6,$7*
1,1,$1+$1,$8,$9*
0 Add four rect primitives between the rounded corners*
20,1,$1+$1,$2,$3,$4,$5,0*
20,1,$1+$1,$4,$5,$6,$7,0*
20,1,$1+$1,$6,$7,$8,$9,0*
20,1,$1+$1,$8,$9,$2,$3,0*%
G04 Aperture macros list end*
%ADD10C,0.010000*%
%ADD11RoundRect,0.225000X-0.225000X-0.250000X0.225000X-0.250000X0.225000X0.250000X-0.225000X0.250000X0*%
%ADD12RoundRect,0.135000X0.185000X-0.135000X0.185000X0.135000X-0.185000X0.135000X-0.185000X-0.135000X0*%
%ADD13RoundRect,0.147500X0.147500X0.172500X-0.147500X0.172500X-0.147500X-0.172500X0.147500X-0.172500X0*%
%ADD14RoundRect,0.140000X0.140000X0.170000X-0.140000X0.170000X-0.140000X-0.170000X0.140000X-0.170000X0*%
%ADD15RoundRect,0.140000X-0.170000X0.140000X-0.170000X-0.140000X0.170000X-0.140000X0.170000X0.140000X0*%
%ADD16RoundRect,0.140000X-0.140000X-0.170000X0.140000X-0.170000X0.140000X0.170000X-0.140000X0.170000X0*%
%ADD17R,0.600000X1.150000*%
%ADD18R,0.300000X1.150000*%
%ADD19RoundRect,0.218750X-0.381250X0.218750X-0.381250X-0.218750X0.381250X-0.218750X0.381250X0.218750X0*%
%ADD20RoundRect,0.147500X-0.172500X0.147500X-0.172500X-0.147500X0.172500X-0.147500X0.172500X0.147500X0*%
%ADD21RoundRect,0.150000X-0.150000X0.512500X-0.150000X-0.512500X0.150000X-0.512500X0.150000X0.512500X0*%
%ADD22RoundRect,0.140000X0.170000X-0.140000X0.170000X0.140000X-0.170000X0.140000X-0.170000X-0.140000X0*%
%ADD23RoundRect,0.127500X-0.347500X-0.297500X0.347500X-0.297500X0.347500X0.297500X-0.347500X0.297500X0*%
%ADD24RoundRect,0.127500X0.347500X0.297500X-0.347500X0.297500X-0.347500X-0.297500X0.347500X-0.297500X0*%
%ADD25RoundRect,0.150000X-0.512500X-0.150000X0.512500X-0.150000X0.512500X0.150000X-0.512500X0.150000X0*%
%ADD26RoundRect,0.011200X0.128800X-0.723800X0.128800X0.723800X-0.128800X0.723800X-0.128800X-0.723800X0*%
%ADD27RoundRect,0.050400X0.684600X-0.089600X0.684600X0.089600X-0.684600X0.089600X-0.684600X-0.089600X0*%
%ADD28RoundRect,0.135000X-0.135000X-0.185000X0.135000X-0.185000X0.135000X0.185000X-0.135000X0.185000X0*%
%ADD29R,0.900000X1.700000*%
%ADD30RoundRect,0.135000X-0.185000X0.135000X-0.185000X-0.135000X0.185000X-0.135000X0.185000X0.135000X0*%
%ADD31RoundRect,0.150000X0.625000X-0.150000X0.625000X0.150000X-0.625000X0.150000X-0.625000X-0.150000X0*%
%ADD32RoundRect,0.250000X0.650000X-0.350000X0.650000X0.350000X-0.650000X0.350000X-0.650000X-0.350000X0*%
%ADD33R,0.740000X2.400000*%
%ADD34R,1.168400X0.889000*%
%ADD35R,1.168400X0.482600*%
%ADD36RoundRect,0.147500X0.172500X-0.147500X0.172500X0.147500X-0.172500X0.147500X-0.172500X-0.147500X0*%
G04 APERTURE END LIST*
%TO.C,U4*%
G36*
X125580000Y-94080000D02*
G01*
X123420000Y-94080000D01*
X123420000Y-91920000D01*
X125580000Y-91920000D01*
X125580000Y-94080000D01*
G37*
D10*
X125580000Y-94080000D02*
X123420000Y-94080000D01*
X123420000Y-91920000D01*
X125580000Y-91920000D01*
X125580000Y-94080000D01*
%TD*%
D11*
%TO.C,C25*%
X144625000Y-111000000D03*
X146175000Y-111000000D03*
%TD*%
D12*
%TO.C,R6*%
X136850000Y-97385000D03*
X136850000Y-96365000D03*
%TD*%
D13*
%TO.C,FB1*%
X140985000Y-65250000D03*
X140015000Y-65250000D03*
%TD*%
D14*
%TO.C,C24*%
X117105000Y-91750000D03*
X116145000Y-91750000D03*
%TD*%
D11*
%TO.C,C11*%
X137900000Y-89300000D03*
X139450000Y-89300000D03*
%TD*%
D12*
%TO.C,R5*%
X138950000Y-97385000D03*
X138950000Y-96365000D03*
%TD*%
D15*
%TO.C,C13*%
X135475000Y-89070000D03*
X135475000Y-90030000D03*
%TD*%
D16*
%TO.C,C10*%
X148520000Y-67100000D03*
X149480000Y-67100000D03*
%TD*%
D15*
%TO.C,C8*%
X140000000Y-66250000D03*
X140000000Y-67210000D03*
%TD*%
D11*
%TO.C,C14*%
X135675000Y-91500000D03*
X137225000Y-91500000D03*
%TD*%
%TO.C,C20*%
X144625000Y-109400000D03*
X146175000Y-109400000D03*
%TD*%
D17*
%TO.C,J1*%
X140700000Y-61755000D03*
X139900000Y-61755000D03*
D18*
X138750000Y-61755000D03*
X137750000Y-61755000D03*
X137250000Y-61755000D03*
X136250000Y-61755000D03*
D17*
X135100000Y-61755000D03*
X134300000Y-61755000D03*
X134300000Y-61755000D03*
X135100000Y-61755000D03*
D18*
X135750000Y-61755000D03*
X136750000Y-61755000D03*
X138250000Y-61755000D03*
X139250000Y-61755000D03*
D17*
X139900000Y-61755000D03*
X140700000Y-61755000D03*
%TD*%
D19*
%TO.C,L1*%
X133925000Y-89387500D03*
X133925000Y-91512500D03*
%TD*%
D20*
%TO.C,D4*%
X136850000Y-94390000D03*
X136850000Y-95360000D03*
%TD*%
D16*
%TO.C,C2*%
X146620000Y-102800000D03*
X147580000Y-102800000D03*
%TD*%
D21*
%TO.C,U3*%
X148850000Y-104962500D03*
X147900000Y-104962500D03*
X146950000Y-104962500D03*
X146950000Y-107237500D03*
X148850000Y-107237500D03*
%TD*%
D22*
%TO.C,C4*%
X123250000Y-85655000D03*
X123250000Y-84695000D03*
%TD*%
D16*
%TO.C,C15*%
X133120000Y-94300000D03*
X134080000Y-94300000D03*
%TD*%
D12*
%TO.C,R4*%
X137900000Y-97385000D03*
X137900000Y-96365000D03*
%TD*%
D23*
%TO.C,Y1*%
X134300000Y-95500000D03*
D24*
X132850000Y-95500000D03*
X132850000Y-96650000D03*
X134300000Y-96650000D03*
%TD*%
D15*
%TO.C,C1*%
X133500000Y-64270000D03*
X133500000Y-65230000D03*
%TD*%
D25*
%TO.C,U2*%
X142662500Y-65950000D03*
X142662500Y-66900000D03*
X142662500Y-67850000D03*
X144937500Y-67850000D03*
X144937500Y-65950000D03*
%TD*%
D26*
%TO.C,U4*%
X120750000Y-98670000D03*
X121250000Y-98670000D03*
X121750000Y-98670000D03*
X122250000Y-98670000D03*
X122750000Y-98670000D03*
X123250000Y-98670000D03*
X123750000Y-98670000D03*
X124250000Y-98670000D03*
X124750000Y-98670000D03*
X125250000Y-98670000D03*
X125750000Y-98670000D03*
X126250000Y-98670000D03*
X126750000Y-98670000D03*
X127250000Y-98670000D03*
X127750000Y-98670000D03*
X128250000Y-98670000D03*
D27*
X130170000Y-96750000D03*
X130170000Y-96250000D03*
X130170000Y-95750000D03*
X130170000Y-95250000D03*
X130170000Y-94750000D03*
X130170000Y-94250000D03*
X130170000Y-93750000D03*
X130170000Y-93250000D03*
X130170000Y-92750000D03*
X130170000Y-92250000D03*
X130170000Y-91750000D03*
X130170000Y-91250000D03*
X130170000Y-90750000D03*
X130170000Y-90250000D03*
X130170000Y-89750000D03*
X130170000Y-89250000D03*
D26*
X128250000Y-87330000D03*
X127750000Y-87330000D03*
X127250000Y-87330000D03*
X126750000Y-87330000D03*
X126250000Y-87330000D03*
X125750000Y-87330000D03*
X125250000Y-87330000D03*
X124750000Y-87330000D03*
X124250000Y-87330000D03*
X123750000Y-87330000D03*
X123250000Y-87330000D03*
X122750000Y-87330000D03*
X122250000Y-87330000D03*
X121750000Y-87330000D03*
X121250000Y-87330000D03*
X120750000Y-87330000D03*
D27*
X118830000Y-89250000D03*
X118830000Y-89750000D03*
X118830000Y-90250000D03*
X118830000Y-90750000D03*
X118830000Y-91250000D03*
X118830000Y-91750000D03*
X118830000Y-92250000D03*
X118830000Y-92750000D03*
X118830000Y-93250000D03*
X118830000Y-93750000D03*
X118830000Y-94250000D03*
X118830000Y-94750000D03*
X118830000Y-95250000D03*
X118830000Y-95750000D03*
X118830000Y-96250000D03*
X118830000Y-96750000D03*
%TD*%
D16*
%TO.C,C23*%
X133095000Y-97750000D03*
X134055000Y-97750000D03*
%TD*%
D15*
%TO.C,C6*%
X123750000Y-100345000D03*
X123750000Y-101305000D03*
%TD*%
%TO.C,C12*%
X136475000Y-89070000D03*
X136475000Y-90030000D03*
%TD*%
D28*
%TO.C,R7*%
X129240000Y-111300000D03*
X130260000Y-111300000D03*
%TD*%
D20*
%TO.C,D3*%
X138950000Y-94390000D03*
X138950000Y-95360000D03*
%TD*%
D29*
%TO.C,SW4*%
X150100000Y-100350000D03*
X153500000Y-100350000D03*
%TD*%
D16*
%TO.C,C22*%
X144620000Y-106250000D03*
X145580000Y-106250000D03*
%TD*%
D20*
%TO.C,D2*%
X137900000Y-94390000D03*
X137900000Y-95360000D03*
%TD*%
%TO.C,D7*%
X159000000Y-96515000D03*
X159000000Y-97485000D03*
%TD*%
D15*
%TO.C,C9*%
X132375000Y-90970000D03*
X132375000Y-91930000D03*
%TD*%
D30*
%TO.C,R1*%
X132500000Y-64240000D03*
X132500000Y-65260000D03*
%TD*%
D15*
%TO.C,C3*%
X128350000Y-100345000D03*
X128350000Y-101305000D03*
%TD*%
D12*
%TO.C,R2*%
X140000000Y-64260000D03*
X140000000Y-63240000D03*
%TD*%
D13*
%TO.C,D6*%
X149485000Y-68200000D03*
X148515000Y-68200000D03*
%TD*%
D14*
%TO.C,C17*%
X145580000Y-102950000D03*
X144620000Y-102950000D03*
%TD*%
D16*
%TO.C,C7*%
X147420000Y-108700000D03*
X148380000Y-108700000D03*
%TD*%
D15*
%TO.C,C5*%
X124750000Y-100345000D03*
X124750000Y-101305000D03*
%TD*%
%TO.C,C16*%
X125750000Y-100345000D03*
X125750000Y-101305000D03*
%TD*%
D28*
%TO.C,R8*%
X129365000Y-105300000D03*
X130385000Y-105300000D03*
%TD*%
D31*
%TO.C,J2*%
X120125000Y-107800000D03*
X120125000Y-106800000D03*
X120125000Y-105800000D03*
X120125000Y-104800000D03*
X120125000Y-103800000D03*
D32*
X117600000Y-109100000D03*
X117600000Y-102500000D03*
%TD*%
D33*
%TO.C,J4*%
X148210000Y-115450000D03*
X148210000Y-111550000D03*
X149480000Y-115450000D03*
X149480000Y-111550000D03*
X150750000Y-115450000D03*
X150750000Y-111550000D03*
X152020000Y-115450000D03*
X152020000Y-111550000D03*
X153290000Y-115450000D03*
X153290000Y-111550000D03*
%TD*%
D14*
%TO.C,C18*%
X145580000Y-104000000D03*
X144620000Y-104000000D03*
%TD*%
D34*
%TO.C,D1*%
X138516343Y-65746800D03*
D35*
X138516343Y-64050000D03*
X136484343Y-64049999D03*
X136484343Y-65950001D03*
%TD*%
D16*
%TO.C,C19*%
X144620000Y-108150000D03*
X145580000Y-108150000D03*
%TD*%
D36*
%TO.C,F1*%
X141000000Y-64235000D03*
X141000000Y-63265000D03*
%TD*%
D28*
%TO.C,R13*%
X146390000Y-68200000D03*
X147410000Y-68200000D03*
%TD*%
D16*
%TO.C,C21*%
X144620000Y-107200000D03*
X145580000Y-107200000D03*
%TD*%
D12*
%TO.C,R3*%
X134500000Y-65260000D03*
X134500000Y-64240000D03*
%TD*%
M02*
